<?xml version="1.0" encoding="UTF-8" standalone="no"?><!DOCTYPE svg PUBLIC "-//W3C//DTD SVG 1.1//EN" "http://www.w3.org/Graphics/SVG/1.1/DTD/svg11.dtd"><svg width="100%" height="100%" viewBox="0 0 130 425" version="1.1" xmlns="http://www.w3.org/2000/svg" xmlns:xlink="http://www.w3.org/1999/xlink" xml:space="preserve" xmlns:serif="http://www.serif.com/" style="fill-rule:evenodd;clip-rule:evenodd;stroke-linejoin:round;stroke-miterlimit:1.41421;"><g><g><rect x="0.4" y="68.003" width="29.709" height="358.482" style="fill:#93a3c0;"/><rect x="100.106" y="68.003" width="29.709" height="318.971" style="fill:#93a3c0;"/><rect x="50.349" y="69.921" width="29.907" height="317.035" style="fill:#93a3c0;"/><path d="M80.058,70.521c0,-8.281 -6.651,-14.993 -14.855,-14.993c-8.204,0 -14.854,6.712 -14.854,14.993l14.854,0l14.855,0Z" style="fill:#93a3c0;"/><path d="M129.815,68.37c0,-37.76 -28.961,-68.37 -64.686,-68.37c-35.724,0 -64.685,30.61 -64.685,68.37l29.791,0c0,-20.369 15.623,-36.882 34.894,-36.882c19.272,0 34.895,16.513 34.895,36.882l29.791,0Z" style="fill:#93a3c0;"/><path d="M50.349,386.409c0,22.133 17.83,40.076 39.825,40.076c21.996,0 39.826,-17.943 39.826,-40.076l-29.869,0c0,5.533 -4.458,10.019 -9.957,10.019c-5.498,0 -9.956,-4.486 -9.956,-10.019l-29.869,0Z" style="fill:#93a3c0;"/></g></g><circle cx="6.212" cy="406.47" r="2.5" style="fill:#141313;"/><circle cx="6.175" cy="416.11" r="2.5" style="fill:#141313;"/><circle cx="20.249" cy="406.47" r="2.5" style="fill:#141313;"/><g><circle cx="20.249" cy="392.172" r="2.5" style="fill:#141313;"/><circle cx="20.249" cy="385.748" r="2.5" style="fill:#141313;"/><circle cx="20.249" cy="379.323" r="2.5" style="fill:#141313;"/><circle cx="20.249" cy="372.899" r="2.5" style="fill:#141313;"/><circle cx="20.249" cy="366.474" r="2.5" style="fill:#141313;"/><circle cx="6.212" cy="392.172" r="2.5" style="fill:#141313;"/><circle cx="6.212" cy="385.748" r="2.5" style="fill:#141313;"/><circle cx="6.212" cy="379.323" r="2.5" style="fill:#141313;"/><circle cx="6.212" cy="372.899" r="2.5" style="fill:#141313;"/><circle cx="6.212" cy="366.474" r="2.5" style="fill:#141313;"/><rect x="2.4" y="362.455" width="25" height="0.5" style="fill:#141313;"/></g><g><circle cx="19.249" cy="347.842" r="2.5" style="fill:#141313;"/><circle cx="19.249" cy="341.418" r="2.5" style="fill:#141313;"/><circle cx="19.249" cy="334.993" r="2.5" style="fill:#141313;"/><circle cx="19.249" cy="328.569" r="2.5" style="fill:#141313;"/><circle cx="19.249" cy="322.144" r="2.5" style="fill:#141313;"/><circle cx="5.212" cy="347.842" r="2.5" style="fill:#141313;"/><circle cx="5.212" cy="341.418" r="2.5" style="fill:#141313;"/><circle cx="5.212" cy="334.993" r="2.5" style="fill:#141313;"/><circle cx="5.212" cy="328.569" r="2.5" style="fill:#141313;"/><circle cx="5.212" cy="322.144" r="2.5" style="fill:#141313;"/><rect x="1.4" y="318.125" width="25" height="0.5" style="fill:#141313;"/></g><g><circle cx="19.957" cy="303.512" r="2.5" style="fill:#141313;"/><circle cx="19.957" cy="297.088" r="2.5" style="fill:#141313;"/><circle cx="19.957" cy="290.663" r="2.5" style="fill:#141313;"/><circle cx="19.957" cy="284.239" r="2.5" style="fill:#141313;"/><circle cx="19.957" cy="277.814" r="2.5" style="fill:#141313;"/><circle cx="5.921" cy="303.512" r="2.5" style="fill:#141313;"/><circle cx="5.921" cy="297.088" r="2.5" style="fill:#141313;"/><circle cx="5.921" cy="290.663" r="2.5" style="fill:#141313;"/><circle cx="5.921" cy="284.239" r="2.5" style="fill:#141313;"/><circle cx="5.921" cy="277.814" r="2.5" style="fill:#141313;"/><rect x="2.108" y="273.795" width="25" height="0.5" style="fill:#141313;"/></g><g><circle cx="21.603" cy="259.182" r="2.5" style="fill:#141313;"/><circle cx="21.603" cy="252.757" r="2.5" style="fill:#141313;"/><circle cx="21.603" cy="246.333" r="2.5" style="fill:#141313;"/><circle cx="21.603" cy="239.908" r="2.5" style="fill:#141313;"/><circle cx="21.603" cy="233.484" r="2.5" style="fill:#141313;"/><circle cx="7.566" cy="259.182" r="2.5" style="fill:#141313;"/><circle cx="7.566" cy="252.757" r="2.5" style="fill:#141313;"/><circle cx="7.566" cy="246.333" r="2.5" style="fill:#141313;"/><circle cx="7.566" cy="239.908" r="2.5" style="fill:#141313;"/><circle cx="7.566" cy="233.484" r="2.5" style="fill:#141313;"/><rect x="3.754" y="229.465" width="25" height="0.5" style="fill:#141313;"/></g><g><circle cx="21.957" cy="214.852" r="2.5" style="fill:#141313;"/><circle cx="21.957" cy="208.427" r="2.5" style="fill:#141313;"/><circle cx="21.957" cy="202.003" r="2.5" style="fill:#141313;"/><circle cx="21.957" cy="195.578" r="2.5" style="fill:#141313;"/><circle cx="21.957" cy="189.154" r="2.5" style="fill:#141313;"/><circle cx="7.921" cy="214.852" r="2.5" style="fill:#141313;"/><circle cx="7.921" cy="208.427" r="2.5" style="fill:#141313;"/><circle cx="7.921" cy="202.003" r="2.5" style="fill:#141313;"/><circle cx="7.921" cy="195.578" r="2.5" style="fill:#141313;"/><circle cx="7.921" cy="189.154" r="2.5" style="fill:#141313;"/><rect x="4.108" y="185.135" width="25" height="0.5" style="fill:#141313;"/></g><g><circle cx="19.957" cy="170.522" r="2.5" style="fill:#141313;"/><circle cx="19.957" cy="164.097" r="2.5" style="fill:#141313;"/><circle cx="19.957" cy="157.673" r="2.5" style="fill:#141313;"/><circle cx="19.957" cy="151.248" r="2.5" style="fill:#141313;"/><circle cx="19.957" cy="144.824" r="2.5" style="fill:#141313;"/><circle cx="5.921" cy="170.522" r="2.5" style="fill:#141313;"/><circle cx="5.921" cy="164.097" r="2.5" style="fill:#141313;"/><circle cx="5.921" cy="157.673" r="2.5" style="fill:#141313;"/><circle cx="5.921" cy="151.248" r="2.5" style="fill:#141313;"/><circle cx="5.921" cy="144.824" r="2.5" style="fill:#141313;"/><rect x="2.108" y="140.805" width="25" height="0.5" style="fill:#141313;"/></g><g><circle cx="21.627" cy="106.21" r="2.5" style="fill:#141313;"/><circle cx="21.627" cy="99.786" r="2.5" style="fill:#141313;"/><circle cx="21.627" cy="93.361" r="2.5" style="fill:#141313;"/><circle cx="21.627" cy="86.937" r="2.5" style="fill:#141313;"/><circle cx="21.627" cy="80.512" r="2.5" style="fill:#141313;"/><circle cx="7.59" cy="106.21" r="2.5" style="fill:#141313;"/><circle cx="7.59" cy="99.786" r="2.5" style="fill:#141313;"/><circle cx="7.59" cy="93.361" r="2.5" style="fill:#141313;"/><circle cx="7.59" cy="86.937" r="2.5" style="fill:#141313;"/><circle cx="7.59" cy="80.512" r="2.5" style="fill:#141313;"/></g><rect x="2.108" y="68.003" width="25" height="0.5" style="fill:#141313;"/><circle cx="20.249" cy="416.11" r="2.5" style="fill:#141313;"/></svg>