<?xml version="1.0" encoding="UTF-8" standalone="no"?>
<!DOCTYPE svg PUBLIC "-//W3C//DTD SVG 1.1//EN" "http://www.w3.org/Graphics/SVG/1.1/DTD/svg11.dtd">
<svg width="100%" height="100%" viewBox="0 0 150 225" version="1.1" xmlns="http://www.w3.org/2000/svg" xmlns:xlink="http://www.w3.org/1999/xlink" xml:space="preserve" xmlns:serif="http://www.serif.com/" style="fill-rule:evenodd;clip-rule:evenodd;stroke-linejoin:round;stroke-miterlimit:1.41421;">
    <g transform="matrix(1,0,0,1,-181,-16)">
        <g>
            <g>
                <rect x="0.25" y="1.04" width="1530.71" height="1530.71" style="fill:white;fill-rule:nonzero;"/>
                <path d="M188.581,252.156C180.723,252.156 174.331,245.764 174.331,237.906L174.331,19.292C174.331,11.435 180.723,5.042 188.581,5.042L322.155,5.042C330.013,5.042 336.405,11.435 336.405,19.292L336.405,237.906C336.405,245.764 330.013,252.156 322.155,252.156L188.581,252.156Z" style="fill:white;fill-rule:nonzero;"/>
                <path d="M322.155,4.792L188.581,4.792C180.585,4.792 174.081,11.297 174.081,19.292L174.081,237.906C174.081,245.901 180.585,252.406 188.581,252.406L322.155,252.406C330.15,252.406 336.655,245.901 336.655,237.906L336.655,19.292C336.655,11.297 330.15,4.792 322.155,4.792ZM322.155,5.292C329.887,5.292 336.155,11.56 336.155,19.292L336.155,237.906C336.155,245.638 329.887,251.906 322.155,251.906L188.581,251.906C180.849,251.906 174.581,245.638 174.581,237.906L174.581,19.292C174.581,11.56 180.849,5.292 188.581,5.292L322.155,5.292Z" style="fill-rule:nonzero;"/>
            </g>
            <g>
                <path d="M218.503,61.985C217.861,60.628 217.044,59.604 215.656,58.091C214.012,56.301 208.122,51.139 205.955,48.626C204.381,46.801 201.806,43.506 201.544,37.598C201.443,35.313 201.223,29.726 206.572,26.24C208.862,24.747 212.792,24.582 215.344,26.898C218.125,29.424 218.51,32.34 218.51,32.34C218.51,32.34 219.604,28.379 221.887,26.816C223.338,25.821 225.3,24.599 228.64,25.468C233.354,26.695 235.484,31.164 235.524,36.198C235.565,41.43 234.815,44.901 230.179,49.655C226.923,52.993 223.521,55.737 220.585,59.141C219.472,60.432 219.107,60.721 218.503,61.985Z" style="fill:rgb(200,0,0);fill-rule:nonzero;"/>
                <path d="M292.204,61.985C291.562,60.628 290.745,59.604 289.356,58.091C287.713,56.301 281.823,51.139 279.656,48.626C278.082,46.801 275.506,43.506 275.245,37.598C275.144,35.313 274.924,29.726 280.273,26.24C282.563,24.747 286.493,24.582 289.044,26.898C291.826,29.424 292.21,32.34 292.21,32.34C292.21,32.34 293.305,28.379 295.588,26.816C297.039,25.821 299,24.599 302.341,25.468C307.055,26.695 309.185,31.164 309.225,36.198C309.266,41.43 308.516,44.901 303.879,49.655C300.624,52.993 297.221,55.737 294.286,59.141C293.172,60.432 292.808,60.721 292.204,61.985Z" style="fill:rgb(200,0,0);fill-rule:nonzero;"/>
                <path d="M255.354,104.505C254.711,103.147 253.895,102.124 252.506,100.611C250.863,98.821 244.973,93.659 242.806,91.146C241.231,89.321 238.656,86.026 238.395,80.118C238.293,77.833 238.074,72.247 243.423,68.76C245.712,67.267 249.643,67.102 252.194,69.418C254.976,71.944 255.36,74.86 255.36,74.86C255.36,74.86 256.454,70.899 258.738,69.336C260.187,68.341 262.15,67.119 265.491,67.988C270.205,69.215 272.334,73.684 272.375,78.718C272.416,83.95 271.666,87.421 267.029,92.175C263.774,95.513 260.371,98.257 257.436,101.661C256.321,102.951 255.958,103.24 255.354,104.505Z" style="fill:rgb(200,0,0);fill-rule:nonzero;"/>
                <path d="M218.503,147.025C217.861,145.667 217.044,144.644 215.656,143.131C214.012,141.34 208.122,136.178 205.955,133.666C204.381,131.841 201.806,128.545 201.544,122.637C201.443,120.353 201.223,114.766 206.572,111.279C208.862,109.786 212.792,109.622 215.344,111.938C218.125,114.464 218.51,117.379 218.51,117.379C218.51,117.379 219.604,113.419 221.887,111.855C223.338,110.861 225.3,109.639 228.64,110.508C233.354,111.734 235.484,116.204 235.524,121.238C235.565,126.469 234.815,129.941 230.179,134.694C226.923,138.033 223.521,140.776 220.585,144.181C219.472,145.471 219.107,145.76 218.503,147.025Z" style="fill:rgb(200,0,0);fill-rule:nonzero;"/>
                <path d="M292.204,147.025C291.562,145.667 290.745,144.644 289.356,143.131C287.713,141.34 281.823,136.178 279.656,133.666C278.082,131.841 275.506,128.545 275.245,122.637C275.144,120.353 274.924,114.766 280.273,111.279C282.563,109.786 286.493,109.622 289.044,111.938C291.826,114.464 292.21,117.379 292.21,117.379C292.21,117.379 293.305,113.419 295.588,111.855C297.039,110.861 299,109.639 302.341,110.508C307.055,111.734 309.185,116.204 309.225,121.238C309.266,126.469 308.516,129.941 303.879,134.694C300.624,138.033 297.221,140.776 294.286,144.181C293.172,145.471 292.808,145.76 292.204,147.025Z" style="fill:rgb(200,0,0);fill-rule:nonzero;"/>
                <path d="M255.382,152.694C256.025,154.052 256.841,155.075 258.23,156.588C259.874,158.379 265.764,163.541 267.931,166.053C269.505,167.878 272.08,171.174 272.342,177.082C272.443,179.366 272.663,184.953 267.313,188.44C265.024,189.933 261.092,190.097 258.542,187.781C255.76,185.255 255.376,182.34 255.376,182.34C255.376,182.34 254.281,186.3 251.999,187.864C250.548,188.858 248.586,190.081 245.246,189.211C240.531,187.985 238.402,183.515 238.362,178.481C238.321,173.25 239.07,169.778 243.707,165.025C246.962,161.686 250.365,158.943 253.3,155.539C254.414,154.248 254.778,153.959 255.382,152.694Z" style="fill:rgb(200,0,0);fill-rule:nonzero;"/>
                <path d="M218.532,195.214C219.174,196.572 219.991,197.595 221.379,199.108C223.023,200.899 228.913,206.061 231.08,208.573C232.654,210.398 235.229,213.694 235.491,219.602C235.592,221.886 235.812,227.473 230.463,230.96C228.173,232.453 224.243,232.617 221.691,230.301C218.91,227.775 218.525,224.86 218.525,224.86C218.525,224.86 217.431,228.82 215.148,230.384C213.697,231.378 211.735,232.601 208.395,231.731C203.681,230.505 201.551,226.035 201.511,221.001C201.47,215.77 202.22,212.298 206.856,207.545C210.112,204.207 213.515,201.463 216.45,198.059C217.563,196.768 217.928,196.479 218.532,195.214Z" style="fill:rgb(200,0,0);fill-rule:nonzero;"/>
                <path d="M292.232,195.214C292.875,196.572 293.691,197.595 295.08,199.108C296.724,200.899 302.614,206.061 304.781,208.573C306.355,210.398 308.93,213.694 309.192,219.602C309.293,221.886 309.513,227.473 304.164,230.96C301.874,232.453 297.943,232.617 295.392,230.301C292.61,227.775 292.226,224.86 292.226,224.86C292.226,224.86 291.131,228.82 288.849,230.384C287.398,231.378 285.436,232.601 282.096,231.731C277.381,230.505 275.252,226.035 275.212,221.001C275.171,215.77 275.92,212.298 280.557,207.545C283.813,204.207 287.215,201.463 290.15,198.059C291.264,196.768 291.628,196.479 292.232,195.214Z" style="fill:rgb(200,0,0);fill-rule:nonzero;"/>
                <path d="M190.165,59.742C189.897,59.176 189.557,58.75 188.978,58.119C188.294,57.373 185.839,55.222 184.936,54.175C184.28,53.414 183.207,52.041 183.098,49.579C183.056,48.628 182.964,46.299 185.193,44.847C186.147,44.224 187.785,44.156 188.848,45.121C190.008,46.174 190.168,47.388 190.168,47.388C190.168,47.388 190.624,45.738 191.575,45.087C192.18,44.672 192.997,44.163 194.389,44.525C196.353,45.036 197.241,46.899 197.257,48.996C197.275,51.176 196.962,52.623 195.03,54.604C193.674,55.995 192.256,57.138 191.033,58.557C190.568,59.094 190.417,59.215 190.165,59.742Z" style="fill:rgb(200,0,0);fill-rule:nonzero;"/>
                <path d="M190.177,197.457C190.445,198.023 190.785,198.449 191.363,199.08C192.048,199.826 194.503,201.977 195.406,203.024C196.062,203.784 197.135,205.157 197.244,207.619C197.286,208.571 197.377,210.899 195.148,212.352C194.194,212.974 192.557,213.043 191.493,212.078C190.334,211.025 190.174,209.81 190.174,209.81C190.174,209.81 189.718,211.461 188.767,212.112C188.162,212.526 187.345,213.036 185.953,212.674C183.988,212.162 183.101,210.3 183.084,208.202C183.067,206.022 183.38,204.576 185.312,202.595C186.668,201.204 188.086,200.061 189.309,198.642C189.773,198.104 189.925,197.984 190.177,197.457Z" style="fill:rgb(200,0,0);fill-rule:nonzero;"/>
                <path d="M320.571,197.457C320.839,198.023 321.179,198.449 321.757,199.08C322.442,199.826 324.897,201.977 325.8,203.024C326.456,203.784 327.529,205.157 327.638,207.619C327.68,208.571 327.772,210.899 325.543,212.352C324.588,212.974 322.951,213.043 321.887,212.078C320.728,211.025 320.568,209.81 320.568,209.81C320.568,209.81 320.112,211.461 319.161,212.112C318.556,212.526 317.739,213.036 316.347,212.674C314.382,212.162 313.495,210.3 313.478,208.202C313.461,206.022 313.774,204.576 315.706,202.595C317.062,201.204 318.48,200.061 319.703,198.642C320.167,198.104 320.319,197.984 320.571,197.457Z" style="fill:rgb(200,0,0);fill-rule:nonzero;"/>
                <path d="M320.559,59.742C320.291,59.176 319.951,58.75 319.372,58.119C318.688,57.373 316.233,55.222 315.33,54.175C314.674,53.414 313.601,52.041 313.492,49.579C313.45,48.628 313.358,46.299 315.587,44.847C316.541,44.224 318.179,44.156 319.242,45.121C320.402,46.174 320.562,47.388 320.562,47.388C320.562,47.388 321.018,45.738 321.969,45.087C322.574,44.672 323.391,44.163 324.783,44.525C326.747,45.036 327.635,46.899 327.651,48.996C327.669,51.176 327.356,52.623 325.424,54.604C324.068,55.995 322.65,57.138 321.427,58.557C320.962,59.094 320.811,59.215 320.559,59.742Z" style="fill:rgb(200,0,0);fill-rule:nonzero;"/>
                <path d="M190.208,36.666C188.324,36.666 186.792,35.138 186.792,33.26C186.792,31.382 188.324,29.854 190.208,29.854C192.093,29.854 193.625,31.382 193.625,33.26C193.625,35.138 192.093,36.666 190.208,36.666ZM190.151,22.165C191.498,22.165 192.594,23.272 192.594,24.633C192.594,25.995 191.498,27.103 190.151,27.103C188.804,27.103 187.708,25.995 187.708,24.633C187.708,23.272 188.804,22.165 190.151,22.165ZM193.438,28.317C194.446,27.406 195.094,26.101 195.094,24.633C195.094,21.894 192.876,19.664 190.151,19.664C187.426,19.664 185.208,21.894 185.208,24.633C185.208,26.124 185.877,27.446 186.913,28.358C185.333,29.419 184.292,31.22 184.292,33.26C184.292,36.517 186.946,39.166 190.208,39.166C193.471,39.166 196.125,36.517 196.125,33.26C196.125,31.193 195.054,29.373 193.438,28.317Z" style="fill:rgb(200,0,0);fill-rule:nonzero;"/>
                <path d="M320.602,36.666C318.718,36.666 317.185,35.138 317.185,33.26C317.185,31.382 318.718,29.854 320.602,29.854C322.486,29.854 324.019,31.382 324.019,33.26C324.019,35.138 322.486,36.666 320.602,36.666ZM320.545,22.165C321.892,22.165 322.987,23.272 322.987,24.633C322.987,25.995 321.892,27.103 320.545,27.103C319.198,27.103 318.102,25.995 318.102,24.633C318.102,23.272 319.198,22.165 320.545,22.165ZM323.832,28.317C324.84,27.406 325.487,26.101 325.487,24.633C325.487,21.894 323.27,19.664 320.545,19.664C317.819,19.664 315.602,21.894 315.602,24.633C315.602,26.124 316.271,27.446 317.306,28.358C315.727,29.419 314.685,31.22 314.685,33.26C314.685,36.517 317.339,39.166 320.602,39.166C323.865,39.166 326.519,36.517 326.519,33.26C326.519,31.193 325.447,29.373 323.832,28.317Z" style="fill:rgb(200,0,0);fill-rule:nonzero;"/>
                <path d="M190.208,220.59C192.093,220.59 193.625,222.118 193.625,223.996C193.625,225.874 192.093,227.401 190.208,227.401C188.324,227.401 186.792,225.874 186.792,223.996C186.792,222.118 188.324,220.59 190.208,220.59ZM190.266,235.091C188.919,235.091 187.823,233.983 187.823,232.623C187.823,231.261 188.919,230.153 190.266,230.153C191.613,230.153 192.708,231.261 192.708,232.623C192.708,233.983 191.613,235.091 190.266,235.091ZM186.979,228.938C185.971,229.85 185.323,231.155 185.323,232.623C185.323,235.362 187.541,237.591 190.266,237.591C192.991,237.591 195.208,235.362 195.208,232.623C195.208,231.132 194.54,229.81 193.504,228.898C195.084,227.836 196.125,226.036 196.125,223.996C196.125,220.739 193.471,218.089 190.208,218.089C186.946,218.089 184.292,220.739 184.292,223.996C184.292,226.062 185.363,227.883 186.979,228.938Z" style="fill:rgb(200,0,0);fill-rule:nonzero;"/>
                <path d="M320.602,220.59C322.486,220.59 324.019,222.118 324.019,223.996C324.019,225.874 322.486,227.401 320.602,227.401C318.718,227.401 317.185,225.874 317.185,223.996C317.185,222.118 318.718,220.59 320.602,220.59ZM320.659,235.091C319.313,235.091 318.217,233.983 318.217,232.623C318.217,231.261 319.313,230.153 320.659,230.153C322.006,230.153 323.102,231.261 323.102,232.623C323.102,233.983 322.006,235.091 320.659,235.091ZM317.373,228.938C316.364,229.85 315.717,231.155 315.717,232.623C315.717,235.362 317.934,237.591 320.659,237.591C323.385,237.591 325.602,235.362 325.602,232.623C325.602,231.132 324.934,229.81 323.898,228.898C325.478,227.836 326.519,226.036 326.519,223.996C326.519,220.739 323.865,218.089 320.602,218.089C317.339,218.089 314.685,220.739 314.685,223.996C314.685,226.062 315.757,227.883 317.373,228.938Z" style="fill:rgb(200,0,0);fill-rule:nonzero;"/>
            </g>
        </g>
    </g>
</svg>
