<?xml version="1.0" encoding="UTF-8" standalone="no"?>
<!DOCTYPE svg PUBLIC "-//W3C//DTD SVG 1.1//EN" "http://www.w3.org/Graphics/SVG/1.1/DTD/svg11.dtd">
<svg width="100%" height="100%" viewBox="0 0 150 225" version="1.1" xmlns="http://www.w3.org/2000/svg" xmlns:xlink="http://www.w3.org/1999/xlink" xml:space="preserve" xmlns:serif="http://www.serif.com/" style="fill-rule:evenodd;clip-rule:evenodd;stroke-linejoin:round;stroke-miterlimit:1.41421;">
    <g transform="matrix(1,0,0,1,-1031,-526)">
        <g>
            <g>
                <rect x="0.25" y="1.04" width="1530.71" height="1530.71" style="fill:white;fill-rule:nonzero;"/>
                <path d="M1038.97,762.393C1031.12,762.393 1024.72,756 1024.72,748.143L1024.72,529.528C1024.72,521.671 1031.12,515.278 1038.97,515.278L1172.55,515.278C1180.41,515.278 1186.8,521.671 1186.8,529.528L1186.8,748.143C1186.8,756 1180.41,762.393 1172.55,762.393L1038.97,762.393Z" style="fill:white;fill-rule:nonzero;"/>
                <path d="M1172.55,515.028L1038.97,515.028C1030.98,515.028 1024.47,521.533 1024.47,529.528L1024.47,748.143C1024.47,756.138 1030.98,762.643 1038.97,762.643L1172.55,762.643C1180.54,762.643 1187.05,756.138 1187.05,748.143L1187.05,529.528C1187.05,521.533 1180.54,515.028 1172.55,515.028ZM1172.55,515.528C1180.28,515.528 1186.55,521.796 1186.55,529.528L1186.55,748.143C1186.55,755.874 1180.28,762.143 1172.55,762.143L1038.97,762.143C1031.24,762.143 1024.97,755.874 1024.97,748.143L1024.97,529.528C1024.97,521.796 1031.24,515.528 1038.97,515.528L1172.55,515.528Z" style="fill-rule:nonzero;"/>
            </g>
            <g>
                <path d="M1080.58,544.374C1077.71,541.262 1073.4,537.551 1068.91,535.371C1064.42,537.551 1060.11,541.262 1057.24,544.374C1053.13,548.833 1051.86,552.517 1051.9,556.88C1051.94,561.079 1054.07,564.808 1058.78,565.831C1062.12,566.556 1064.08,565.536 1065.53,564.707C1066.88,563.934 1067.81,562.462 1068.35,561.389C1067.71,564.606 1066.6,569.628 1065.49,572.221C1068.51,572.2 1068.91,572.221 1068.91,572.221C1068.91,572.221 1069.31,572.2 1072.33,572.221C1071.22,569.628 1070.11,564.606 1069.47,561.389C1070.01,562.462 1070.94,563.934 1072.29,564.707C1073.74,565.536 1075.7,566.556 1079.04,565.831C1083.75,564.808 1085.88,561.079 1085.92,556.88C1085.96,552.517 1084.7,548.833 1080.58,544.374Z" style="fill-rule:nonzero;"/>
                <path d="M1154.28,544.374C1151.41,541.262 1147.1,537.551 1142.61,535.371C1138.12,537.551 1133.81,541.262 1130.94,544.374C1126.83,548.833 1125.56,552.517 1125.6,556.88C1125.64,561.079 1127.77,564.808 1132.48,565.831C1135.82,566.556 1137.78,565.536 1139.23,564.707C1140.58,563.934 1141.51,562.462 1142.05,561.389C1141.41,564.606 1140.3,569.628 1139.19,572.221C1142.21,572.2 1142.61,572.221 1142.61,572.221C1142.61,572.221 1143.01,572.2 1146.03,572.221C1144.92,569.628 1143.81,564.606 1143.17,561.389C1143.71,562.462 1144.64,563.934 1145.99,564.707C1147.44,565.536 1149.4,566.556 1152.74,565.831C1157.45,564.808 1159.58,561.079 1159.62,556.88C1159.66,552.517 1158.4,548.833 1154.28,544.374Z" style="fill-rule:nonzero;"/>
                <path d="M1057.24,733.297C1060.11,736.41 1064.42,740.121 1068.91,742.301C1073.4,740.121 1077.71,736.41 1080.58,733.297C1084.7,728.839 1085.96,725.155 1085.92,720.791C1085.88,716.593 1083.75,712.864 1079.04,711.841C1075.7,711.116 1073.74,712.136 1072.29,712.965C1070.94,713.738 1070.01,715.209 1069.47,716.283C1070.11,713.066 1071.22,708.043 1072.33,705.451C1069.31,705.472 1068.91,705.451 1068.91,705.451C1068.91,705.451 1068.51,705.472 1065.49,705.451C1066.6,708.043 1067.71,713.066 1068.35,716.283C1067.81,715.209 1066.88,713.738 1065.53,712.965C1064.08,712.136 1062.12,711.116 1058.78,711.841C1054.07,712.864 1051.94,716.593 1051.9,720.791C1051.86,725.155 1053.13,728.839 1057.24,733.297Z" style="fill-rule:nonzero;"/>
                <path d="M1130.94,733.297C1133.81,736.41 1138.12,740.121 1142.61,742.301C1147.1,740.121 1151.41,736.41 1154.28,733.297C1158.4,728.839 1159.66,725.155 1159.62,720.791C1159.58,716.593 1157.45,712.864 1152.74,711.841C1149.4,711.116 1147.44,712.136 1145.99,712.965C1144.64,713.738 1143.71,715.209 1143.17,716.283C1143.81,713.066 1144.92,708.043 1146.03,705.451C1143.01,705.472 1142.61,705.451 1142.61,705.451C1142.61,705.451 1142.21,705.472 1139.19,705.451C1140.3,708.043 1141.41,713.066 1142.05,716.283C1141.51,715.209 1140.58,713.738 1139.23,712.965C1137.78,712.136 1135.82,711.116 1132.48,711.841C1127.77,712.864 1125.64,716.593 1125.6,720.791C1125.56,725.155 1126.83,728.839 1130.94,733.297Z" style="fill-rule:nonzero;"/>
                <path d="M1045.43,558.374C1044.23,557.077 1042.43,555.531 1040.56,554.622C1038.69,555.531 1036.9,557.077 1035.7,558.374C1033.99,560.232 1033.46,561.767 1033.48,563.585C1033.49,565.334 1034.38,566.888 1036.34,567.315C1037.73,567.617 1038.55,567.192 1039.16,566.846C1039.72,566.524 1040.11,565.911 1040.33,565.464C1040.06,566.804 1039.6,568.897 1039.14,569.978C1040.4,569.969 1040.56,569.978 1040.56,569.978C1040.56,569.978 1040.73,569.969 1041.99,569.978C1041.53,568.897 1041.07,566.804 1040.8,565.464C1041.02,565.911 1041.41,566.524 1041.97,566.846C1042.58,567.192 1043.39,567.617 1044.79,567.315C1046.75,566.888 1047.63,565.334 1047.65,563.585C1047.67,561.767 1047.14,560.232 1045.43,558.374Z" style="fill-rule:nonzero;"/>
                <path d="M1035.7,719.297C1036.9,720.594 1038.69,722.14 1040.56,723.049C1042.43,722.14 1044.23,720.594 1045.43,719.297C1047.14,717.439 1047.67,715.904 1047.65,714.086C1047.63,712.336 1046.75,710.782 1044.79,710.356C1043.39,710.054 1042.58,710.479 1041.97,710.825C1041.41,711.146 1041.02,711.76 1040.8,712.207C1041.07,710.866 1041.53,708.774 1041.99,707.693C1040.73,707.702 1040.56,707.693 1040.56,707.693C1040.56,707.693 1040.4,707.702 1039.14,707.693C1039.6,708.774 1040.06,710.866 1040.33,712.207C1040.11,711.76 1039.72,711.146 1039.16,710.825C1038.55,710.479 1037.73,710.054 1036.34,710.356C1034.38,710.782 1033.49,712.336 1033.48,714.086C1033.46,715.904 1033.99,717.439 1035.7,719.297Z" style="fill-rule:nonzero;"/>
                <path d="M1166.1,719.297C1167.29,720.594 1169.09,722.14 1170.96,723.049C1172.83,722.14 1174.62,720.594 1175.82,719.297C1177.54,717.439 1178.06,715.904 1178.04,714.086C1178.03,712.336 1177.14,710.782 1175.18,710.356C1173.79,710.054 1172.97,710.479 1172.37,710.825C1171.8,711.146 1171.42,711.76 1171.19,712.207C1171.46,710.866 1171.92,708.774 1172.38,707.693C1171.12,707.702 1170.96,707.693 1170.96,707.693C1170.96,707.693 1170.79,707.702 1169.53,707.693C1170,708.774 1170.46,710.866 1170.72,712.207C1170.5,711.76 1170.11,711.146 1169.55,710.825C1168.95,710.479 1168.13,710.054 1166.74,710.356C1164.77,710.782 1163.89,712.336 1163.87,714.086C1163.85,715.904 1164.38,717.439 1166.1,719.297Z" style="fill-rule:nonzero;"/>
                <path d="M1175.82,558.374C1174.62,557.077 1172.83,555.531 1170.96,554.622C1169.09,555.531 1167.29,557.077 1166.1,558.374C1164.38,560.232 1163.85,561.767 1163.87,563.585C1163.89,565.334 1164.77,566.888 1166.74,567.315C1168.13,567.617 1168.95,567.192 1169.55,566.846C1170.11,566.524 1170.5,565.911 1170.72,565.464C1170.46,566.804 1170,568.897 1169.53,569.978C1170.79,569.969 1170.96,569.978 1170.96,569.978C1170.96,569.978 1171.12,569.969 1172.38,569.978C1171.92,568.897 1171.46,566.804 1171.19,565.464C1171.42,565.911 1171.8,566.524 1172.37,566.846C1172.97,567.192 1173.79,567.617 1175.18,567.315C1177.14,566.888 1178.03,565.334 1178.04,563.585C1178.06,561.767 1177.54,560.232 1175.82,558.374Z" style="fill-rule:nonzero;"/>
                <path d="M1037.74,541.445L1041.5,535.252L1041.5,541.445L1037.74,541.445ZM1045.77,544.315L1045.77,541.445L1044.3,541.445L1044.3,529.844L1041.5,529.844L1041.5,529.866L1041.47,529.852L1034.45,541.445L1034.43,541.445L1034.43,544.315L1041.5,544.315L1041.5,546.476L1040.74,546.476L1040.74,549.346L1045.14,549.346L1045.14,546.476L1044.3,546.476L1044.3,544.315L1045.77,544.315Z" style="fill-rule:nonzero;"/>
                <path d="M1168.14,541.445L1171.89,535.252L1171.89,541.445L1168.14,541.445ZM1176.16,544.315L1176.16,541.445L1174.69,541.445L1174.69,529.844L1171.89,529.844L1171.89,529.866L1171.87,529.852L1164.84,541.445L1164.82,541.445L1164.82,544.315L1171.89,544.315L1171.89,546.476L1171.14,546.476L1171.14,549.346L1175.53,549.346L1175.53,546.476L1174.69,546.476L1174.69,544.315L1176.16,544.315Z" style="fill-rule:nonzero;"/>
                <path d="M1042.45,736.171L1038.7,742.363L1038.7,736.171L1042.45,736.171ZM1034.43,733.3L1034.43,736.171L1035.9,736.171L1035.9,747.772L1038.7,747.772L1038.7,747.749L1038.72,747.764L1045.75,736.171L1045.77,736.171L1045.77,733.3L1038.7,733.3L1038.7,731.14L1039.45,731.14L1039.45,728.269L1035.06,728.269L1035.06,731.14L1035.9,731.14L1035.9,733.3L1034.43,733.3Z" style="fill-rule:nonzero;"/>
                <path d="M1172.84,736.171L1169.09,742.363L1169.09,736.171L1172.84,736.171ZM1164.82,733.3L1164.82,736.171L1166.29,736.171L1166.29,747.772L1169.09,747.772L1169.09,747.749L1169.11,747.764L1176.14,736.171L1176.16,736.171L1176.16,733.3L1169.09,733.3L1169.09,731.14L1169.84,731.14L1169.84,728.269L1165.45,728.269L1165.45,731.14L1166.29,731.14L1166.29,733.3L1164.82,733.3Z" style="fill-rule:nonzero;"/>
            </g>
        </g>
    </g>
</svg>
