<?xml version="1.0" encoding="UTF-8" standalone="no"?>
<!DOCTYPE svg PUBLIC "-//W3C//DTD SVG 1.1//EN" "http://www.w3.org/Graphics/SVG/1.1/DTD/svg11.dtd">
<svg width="100%" height="100%" viewBox="0 0 150 225" version="1.1" xmlns="http://www.w3.org/2000/svg" xmlns:xlink="http://www.w3.org/1999/xlink" xml:space="preserve" xmlns:serif="http://www.serif.com/" style="fill-rule:evenodd;clip-rule:evenodd;stroke-linejoin:round;stroke-miterlimit:1.41421;">
    <g transform="matrix(1,0,0,1,-691,-526)">
        <g>
            <g>
                <rect x="0.25" y="1.04" width="1530.71" height="1530.71" style="fill:white;fill-rule:nonzero;"/>
                <path d="M698.816,762.393C690.959,762.393 684.566,756 684.566,748.143L684.566,529.528C684.566,521.671 690.959,515.278 698.816,515.278L832.392,515.278C840.249,515.278 846.642,521.671 846.642,529.528L846.642,748.143C846.642,756 840.249,762.393 832.392,762.393L698.816,762.393Z" style="fill:white;fill-rule:nonzero;"/>
                <path d="M832.392,515.028L698.816,515.028C690.821,515.028 684.316,521.533 684.316,529.528L684.316,748.143C684.316,756.138 690.821,762.643 698.816,762.643L832.392,762.643C840.387,762.643 846.892,756.138 846.892,748.143L846.892,529.528C846.892,521.533 840.387,515.028 832.392,515.028ZM832.392,515.528C840.123,515.528 846.392,521.796 846.392,529.528L846.392,748.143C846.392,755.874 840.123,762.143 832.392,762.143L698.816,762.143C691.084,762.143 684.816,755.874 684.816,748.143L684.816,529.528C684.816,521.796 691.084,515.528 698.816,515.528L832.392,515.528Z" style="fill-rule:nonzero;"/>
            </g>
            <g>
                <path d="M739.273,549.672C737.123,549.252 734.18,550.918 731.786,552.674C733.997,550.265 736.604,546.839 736.604,544.069C736.604,539.266 733.088,535.371 728.754,535.371C724.418,535.371 720.904,539.266 720.904,544.069C720.904,546.84 723.512,550.266 725.722,552.675C723.329,550.918 720.385,549.252 718.234,549.672C713.965,550.507 711.114,555.018 711.867,559.749C712.619,564.48 716.691,567.64 720.96,566.805C723.549,566.299 726.286,562.518 728.04,559.618C727.384,563.627 726.362,569.223 725.336,572.221C728.356,572.194 728.754,572.221 728.754,572.221C728.754,572.221 729.15,572.194 732.171,572.221C731.146,569.223 730.124,563.627 729.468,559.618C731.222,562.518 733.958,566.299 736.548,566.805C740.816,567.64 744.889,564.48 745.641,559.749C746.394,555.018 743.543,550.507 739.273,549.672Z" style="fill-rule:nonzero;"/>
                <path d="M812.974,549.672C810.823,549.252 807.88,550.918 805.486,552.674C807.697,550.265 810.304,546.839 810.304,544.069C810.304,539.266 806.789,535.371 802.454,535.371C798.119,535.371 794.604,539.266 794.604,544.069C794.604,546.84 797.212,550.266 799.422,552.675C797.029,550.918 794.085,549.252 791.935,549.672C787.665,550.507 784.814,555.018 785.567,559.749C786.319,564.48 790.392,567.64 794.661,566.805C797.25,566.299 799.986,562.518 801.74,559.618C801.084,563.627 800.062,569.223 799.037,572.221C802.057,572.194 802.454,572.221 802.454,572.221C802.454,572.221 802.851,572.194 805.872,572.221C804.846,569.223 803.824,563.627 803.168,559.618C804.922,562.518 807.659,566.299 810.248,566.805C814.517,567.64 818.589,564.48 819.341,559.749C820.094,555.018 817.243,550.507 812.974,549.672Z" style="fill-rule:nonzero;"/>
                <path d="M718.234,727.999C720.385,728.42 723.328,726.754 725.722,724.998C723.511,727.407 720.904,730.832 720.904,733.603C720.904,738.406 724.419,742.301 728.754,742.301C733.089,742.301 736.604,738.406 736.604,733.603C736.604,730.832 733.996,727.406 731.786,724.997C734.179,726.754 737.123,728.419 739.273,727.999C743.543,727.165 746.394,722.654 745.641,717.923C744.889,713.192 740.816,710.032 736.547,710.867C733.958,711.373 731.222,715.154 729.468,718.054C730.124,714.045 731.146,708.449 732.171,705.451C729.151,705.478 728.754,705.451 728.754,705.451C728.754,705.451 728.357,705.478 725.336,705.451C726.362,708.449 727.384,714.045 728.04,718.054C726.286,715.154 723.549,711.373 720.96,710.867C716.691,710.032 712.619,713.192 711.867,717.923C711.114,722.654 713.965,727.165 718.234,727.999Z" style="fill-rule:nonzero;"/>
                <path d="M791.935,727.999C794.085,728.42 797.028,726.754 799.422,724.998C797.211,727.407 794.604,730.832 794.604,733.603C794.604,738.406 798.12,742.301 802.454,742.301C806.79,742.301 810.304,738.406 810.304,733.603C810.304,730.832 807.696,727.406 805.486,724.997C807.879,726.754 810.823,728.419 812.974,727.999C817.243,727.165 820.094,722.654 819.341,717.923C818.589,713.192 814.517,710.032 810.248,710.867C807.659,711.373 804.922,715.154 803.168,718.054C803.824,714.045 804.846,708.449 805.872,705.451C802.852,705.478 802.454,705.451 802.454,705.451C802.454,705.451 802.058,705.478 799.037,705.451C800.062,708.449 801.084,714.045 801.74,718.054C799.986,715.154 797.25,711.373 794.66,710.867C790.392,710.032 786.319,713.192 785.567,717.923C784.814,722.654 787.665,727.165 791.935,727.999Z" style="fill-rule:nonzero;"/>
                <path d="M704.791,560.581C703.895,560.406 702.668,561.1 701.671,561.832C702.592,560.828 703.678,559.401 703.678,558.247C703.678,556.245 702.213,554.622 700.407,554.622C698.601,554.622 697.136,556.245 697.136,558.247C697.136,559.401 698.223,560.829 699.144,561.833C698.146,561.1 696.92,560.406 696.024,560.581C694.245,560.929 693.057,562.809 693.37,564.78C693.684,566.752 695.381,568.068 697.16,567.721C698.238,567.51 699.379,565.934 700.11,564.726C699.836,566.396 699.41,568.728 698.983,569.978C700.242,569.966 700.407,569.978 700.407,569.978C700.407,569.978 700.572,569.966 701.831,569.978C701.404,568.728 700.978,566.396 700.705,564.726C701.436,565.934 702.576,567.51 703.655,567.721C705.434,568.068 707.131,566.752 707.444,564.78C707.758,562.809 706.57,560.929 704.791,560.581Z" style="fill-rule:nonzero;"/>
                <path d="M696.024,717.089C696.92,717.264 698.146,716.57 699.144,715.838C698.223,716.842 697.136,718.27 697.136,719.424C697.136,721.426 698.601,723.049 700.407,723.049C702.214,723.049 703.678,721.426 703.678,719.424C703.678,718.27 702.592,716.842 701.671,715.838C702.668,716.57 703.895,717.264 704.791,717.089C706.57,716.742 707.758,714.862 707.444,712.89C707.131,710.919 705.434,709.602 703.655,709.95C702.576,710.161 701.436,711.736 700.705,712.945C700.978,711.274 701.404,708.942 701.831,707.693C700.573,707.704 700.407,707.693 700.407,707.693C700.407,707.693 700.242,707.704 698.983,707.693C699.41,708.942 699.836,711.274 700.11,712.945C699.379,711.736 698.238,710.161 697.159,709.95C695.381,709.602 693.684,710.919 693.37,712.89C693.057,714.862 694.245,716.742 696.024,717.089Z" style="fill-rule:nonzero;"/>
                <path d="M826.417,717.089C827.313,717.264 828.54,716.57 829.537,715.838C828.616,716.842 827.53,718.27 827.53,719.424C827.53,721.426 828.995,723.049 830.801,723.049C832.607,723.049 834.072,721.426 834.072,719.424C834.072,718.27 832.985,716.842 832.064,715.838C833.061,716.57 834.288,717.264 835.184,717.089C836.963,716.742 838.151,714.862 837.838,712.89C837.524,710.919 835.827,709.602 834.048,709.95C832.969,710.161 831.829,711.736 831.098,712.945C831.371,711.274 831.798,708.942 832.225,707.693C830.966,707.704 830.801,707.693 830.801,707.693C830.801,707.693 830.636,707.704 829.377,707.693C829.804,708.942 830.23,711.274 830.503,712.945C829.772,711.736 828.632,710.161 827.553,709.95C825.774,709.602 824.077,710.919 823.764,712.89C823.45,714.862 824.638,716.742 826.417,717.089Z" style="fill-rule:nonzero;"/>
                <path d="M835.184,560.581C834.288,560.406 833.062,561.1 832.064,561.832C832.985,560.828 834.072,559.401 834.072,558.247C834.072,556.245 832.607,554.622 830.801,554.622C828.994,554.622 827.53,556.245 827.53,558.247C827.53,559.401 828.616,560.829 829.537,561.833C828.54,561.1 827.313,560.406 826.417,560.581C824.638,560.929 823.45,562.809 823.764,564.78C824.077,566.752 825.774,568.068 827.553,567.721C828.632,567.51 829.772,565.934 830.503,564.726C830.23,566.396 829.804,568.728 829.377,569.978C830.635,569.966 830.801,569.978 830.801,569.978C830.801,569.978 830.966,569.966 832.225,569.978C831.798,568.728 831.371,566.396 831.098,564.726C831.829,565.934 832.969,567.51 834.048,567.721C835.827,568.068 837.524,566.752 837.838,564.78C838.151,562.809 836.963,560.929 835.184,560.581Z" style="fill-rule:nonzero;"/>
                <path d="M697.587,541.445L701.34,535.252L701.34,541.445L697.587,541.445ZM705.609,544.315L705.609,541.445L704.14,541.445L704.14,529.844L701.34,529.844L701.34,529.866L701.317,529.852L694.291,541.445L694.271,541.445L694.271,544.315L701.34,544.315L701.34,546.476L700.587,546.476L700.587,549.346L704.979,549.346L704.979,546.476L704.14,546.476L704.14,544.315L705.609,544.315Z" style="fill-rule:nonzero;"/>
                <path d="M827.98,541.445L831.733,535.252L831.733,541.445L827.98,541.445ZM836.003,544.315L836.003,541.445L834.533,541.445L834.533,529.844L831.733,529.844L831.733,529.866L831.711,529.852L824.685,541.445L824.664,541.445L824.664,544.315L831.733,544.315L831.733,546.476L830.98,546.476L830.98,549.346L835.373,549.346L835.373,546.476L834.533,546.476L834.533,544.315L836.003,544.315Z" style="fill-rule:nonzero;"/>
                <path d="M702.293,736.171L698.54,742.363L698.54,736.171L702.293,736.171ZM694.271,733.3L694.271,736.171L695.74,736.171L695.74,747.772L698.54,747.772L698.54,747.749L698.563,747.764L705.588,736.171L705.609,736.171L705.609,733.3L698.54,733.3L698.54,731.14L699.292,731.14L699.292,728.269L694.9,728.269L694.9,731.14L695.74,731.14L695.74,733.3L694.271,733.3Z" style="fill-rule:nonzero;"/>
                <path d="M832.687,736.171L828.934,742.363L828.934,736.171L832.687,736.171ZM824.664,733.3L824.664,736.171L826.134,736.171L826.134,747.772L828.934,747.772L828.934,747.749L828.956,747.764L835.981,736.171L836.003,736.171L836.003,733.3L828.934,733.3L828.934,731.14L829.686,731.14L829.686,728.269L825.294,728.269L825.294,731.14L826.134,731.14L826.134,733.3L824.664,733.3Z" style="fill-rule:nonzero;"/>
            </g>
        </g>
    </g>
</svg>
