<?xml version="1.0" encoding="UTF-8" standalone="no"?><!DOCTYPE svg PUBLIC "-//W3C//DTD SVG 1.1//EN" "http://www.w3.org/Graphics/SVG/1.1/DTD/svg11.dtd"><svg width="100%" height="100%" viewBox="0 0 150 225" version="1.1" xmlns="http://www.w3.org/2000/svg" xmlns:xlink="http://www.w3.org/1999/xlink" xml:space="preserve" xmlns:serif="http://www.serif.com/" style="fill-rule:evenodd;clip-rule:evenodd;stroke-miterlimit:1.41421;"><g><g><rect x="-1200.75" y="-1289.96" width="1530.71" height="1530.71" style="fill:#fff;fill-rule:nonzero;"/><path d="M8.05,236.75c-7.85,0 -14.25,-6.4 -14.25,-14.25l0,-218.62c0,-7.85 6.4,-14.25 14.25,-14.25l133.58,0c7.86,0 14.25,6.4 14.25,14.25l0,218.62c0,7.85 -6.39,14.25 -14.25,14.25l-133.58,0Z" style="fill:#fff;fill-rule:nonzero;"/><path d="M141.63,-10.62l-133.58,0c-7.99,0 -14.5,6.51 -14.5,14.5l0,218.62c0,7.99 6.51,14.5 14.5,14.5l133.58,0c7.99,0 14.5,-6.51 14.5,-14.5l0,-218.62c0,-7.99 -6.51,-14.5 -14.5,-14.5Zm0,0.5c7.73,0 14,6.27 14,14l0,218.62c0,7.73 -6.27,14 -14,14l-133.58,0c-7.73,0 -14,-6.27 -14,-14l0,-218.62c0,-7.73 6.27,-14 14,-14l133.58,0Z" style="fill-rule:nonzero;"/><path d="M49.66,27.23c-2.87,-3.11 -7.18,-6.82 -11.67,-9c-4.49,2.18 -8.8,5.89 -11.67,9c-4.12,4.46 -5.38,8.14 -5.34,12.51c0.04,4.2 2.17,7.93 6.88,8.95c3.34,0.72 5.3,-0.3 6.75,-1.13c1.35,-0.77 2.28,-2.24 2.82,-3.31c-0.64,3.21 -1.75,8.24 -2.86,10.83c3.02,-0.02 3.42,0 3.42,0c0,0 0.4,-0.02 3.42,0c-1.11,-2.59 -2.22,-7.62 -2.86,-10.83c0.54,1.07 1.47,2.54 2.82,3.31c1.45,0.83 3.41,1.85 6.75,1.13c4.71,-1.02 6.84,-4.75 6.88,-8.95c0.04,-4.37 -1.23,-8.05 -5.34,-12.51Z" style="fill-rule:nonzero;"/><path d="M100.02,199.15c2.87,3.11 7.18,6.82 11.67,9c4.49,-2.18 8.8,-5.89 11.67,-9c4.12,-4.46 5.38,-8.15 5.34,-12.51c-0.04,-4.2 -2.17,-7.93 -6.88,-8.95c-3.34,-0.72 -5.3,0.3 -6.75,1.12c-1.35,0.78 -2.28,2.25 -2.82,3.32c0.64,-3.21 1.75,-8.24 2.86,-10.83c-3.02,0.02 -3.42,0 -3.42,0c0,0 -0.4,0.02 -3.42,0c1.11,2.59 2.22,7.62 2.86,10.83c-0.54,-1.07 -1.47,-2.54 -2.82,-3.32c-1.45,-0.82 -3.41,-1.84 -6.75,-1.12c-4.71,1.02 -6.84,4.75 -6.88,8.95c-0.04,4.36 1.23,8.05 5.34,12.51Z" style="fill-rule:nonzero;"/><path d="M14.51,32.73c-1.2,-1.3 -3,-2.84 -4.87,-3.75c-1.87,0.91 -3.66,2.45 -4.86,3.75c-1.72,1.86 -2.24,3.39 -2.22,5.21c0.01,1.75 0.9,3.3 2.86,3.73c1.39,0.3 2.21,-0.12 2.81,-0.47c0.57,-0.32 0.95,-0.93 1.18,-1.38c-0.27,1.34 -0.73,3.43 -1.19,4.51c1.26,-0.01 1.42,0 1.42,0c0,0 0.17,-0.01 1.43,0c-0.47,-1.08 -0.93,-3.17 -1.19,-4.51c0.22,0.45 0.61,1.06 1.17,1.38c0.61,0.35 1.42,0.77 2.81,0.47c1.97,-0.43 2.85,-1.98 2.87,-3.73c0.02,-1.82 -0.51,-3.35 -2.22,-5.21Z" style="fill-rule:nonzero;"/><path d="M4.78,193.65c1.2,1.3 2.99,2.84 4.86,3.75c1.87,-0.91 3.67,-2.45 4.87,-3.75c1.71,-1.86 2.24,-3.39 2.22,-5.21c-0.02,-1.75 -0.9,-3.3 -2.87,-3.73c-1.39,-0.3 -2.2,0.12 -2.81,0.47c-0.56,0.32 -0.95,0.93 -1.17,1.38c0.26,-1.34 0.72,-3.43 1.19,-4.51c-1.26,0.01 -1.43,0 -1.43,0c0,0 -0.16,0.01 -1.42,0c0.46,1.08 0.92,3.17 1.19,4.51c-0.23,-0.45 -0.61,-1.06 -1.18,-1.38c-0.6,-0.35 -1.42,-0.77 -2.81,-0.47c-1.96,0.43 -2.85,1.98 -2.86,3.73c-0.02,1.82 0.5,3.35 2.22,5.21Z" style="fill-rule:nonzero;"/><path d="M135.17,193.65c1.2,1.3 3,2.84 4.87,3.75c1.87,-0.91 3.66,-2.45 4.86,-3.75c1.71,-1.86 2.24,-3.39 2.22,-5.21c-0.01,-1.75 -0.9,-3.3 -2.86,-3.73c-1.39,-0.3 -2.21,0.12 -2.81,0.47c-0.57,0.32 -0.96,0.93 -1.18,1.38c0.27,-1.34 0.73,-3.43 1.19,-4.51c-1.26,0.01 -1.42,0 -1.42,0c0,0 -0.17,0.01 -1.43,0c0.47,1.08 0.93,3.17 1.19,4.51c-0.22,-0.45 -0.61,-1.06 -1.17,-1.38c-0.61,-0.35 -1.42,-0.77 -2.81,-0.47c-1.97,0.43 -2.85,1.98 -2.87,3.73c-0.02,1.82 0.51,3.35 2.22,5.21Z" style="fill-rule:nonzero;"/><path d="M144.9,32.73c-1.2,-1.3 -2.99,-2.84 -4.86,-3.75c-1.87,0.91 -3.67,2.45 -4.87,3.75c-1.71,1.86 -2.24,3.39 -2.22,5.21c0.02,1.75 0.9,3.3 2.87,3.73c1.39,0.3 2.2,-0.12 2.81,-0.47c0.56,-0.32 0.95,-0.93 1.17,-1.38c-0.26,1.34 -0.72,3.43 -1.19,4.51c1.26,-0.01 1.43,0 1.43,0c0,0 0.16,-0.01 1.42,0c-0.46,-1.08 -0.92,-3.17 -1.19,-4.51c0.22,0.45 0.61,1.06 1.18,1.38c0.6,0.35 1.42,0.77 2.81,0.47c1.96,-0.43 2.85,-1.98 2.86,-3.73c0.02,-1.82 -0.51,-3.35 -2.22,-5.21Z" style="fill-rule:nonzero;"/><rect x="18.15" y="13.98" width="113.38" height="198.42" style="fill:none;stroke:#000;stroke-width:0.8px;"/><path d="M14.8,21.25l-6.06,-7.69l5.1,-6.84l0.66,0l0,-2.5l-4.35,0l0,2.5l0.57,0l-3.81,5.11l-0.27,0.21l0,-5.32l0.68,0l0,-2.5l-3.91,0l0,2.5l0.73,0l0,14.53l-0.73,0l0,2.5l3.91,0l0,-2.5l-0.68,0l0,-4.87l0.56,-0.75l4.42,5.62l-0.47,0l0,2.5l4.36,0l0,-2.5l-0.71,0Z" style="fill-rule:nonzero;"/><path d="M145.2,21.25l-6.06,-7.69l5.09,-6.84l0.66,0l0,-2.5l-4.35,0l0,2.5l0.57,0l-3.81,5.11l-0.27,0.21l0,-5.32l0.68,0l0,-2.5l-3.91,0l0,2.5l0.73,0l0,14.53l-0.73,0l0,2.5l3.91,0l0,-2.5l-0.68,0l0,-4.87l0.56,-0.75l4.43,5.62l-0.47,0l0,2.5l4.35,0l0,-2.5l-0.7,0Z" style="fill-rule:nonzero;"/><path d="M4.11,205.15l6.06,7.7l-5.09,6.83l-0.66,0l0,2.5l4.35,0l0,-2.5l-0.57,0l3.8,-5.11l0.28,-0.21l0,5.32l-0.68,0l0,2.5l3.91,0l0,-2.5l-0.73,0l0,-14.53l0.73,0l0,-2.5l-3.91,0l0,2.5l0.68,0l0,4.88l-0.56,0.74l-4.43,-5.62l0.47,0l0,-2.5l-4.35,0l0,2.5l0.7,0Z" style="fill-rule:nonzero;"/><path d="M134.5,205.15l6.06,7.7l-5.09,6.83l-0.66,0l0,2.5l4.35,0l0,-2.5l-0.57,0l3.81,-5.11l0.27,-0.21l0,5.32l-0.68,0l0,2.5l3.91,0l0,-2.5l-0.73,0l0,-14.53l0.73,0l0,-2.5l-3.91,0l0,2.5l0.68,0l0,4.88l-0.56,0.74l-4.42,-5.62l0.46,0l0,-2.5l-4.35,0l0,2.5l0.7,0Z" style="fill-rule:nonzero;"/><path d="M131.5,73.44c-13.5,-8.38 -36,-14.44 -56.75,-13.58c-12.24,0.51 -25.27,4.63 -35.8,9.05c-10.52,4.42 -18.55,9.15 -20.8,10.88l0,33.4l0.03,39.75c13.5,8.38 36,14.45 56.75,13.58c12.24,-0.51 25.27,-4.63 35.8,-9.05c10.52,-4.42 18.55,-9.15 20.8,-10.88l0,-33.4l-0.03,-39.75Z" style="fill:#c80000;fill-rule:nonzero;"/><path d="M131.5,73.44c-13.5,-8.38 -36,-14.44 -56.75,-13.58c-12.24,0.51 -25.27,4.63 -35.8,9.05c-10.52,4.42 -18.55,9.15 -20.8,10.88l0,33.4l0.03,39.75c13.5,8.38 36,14.45 56.75,13.58c12.24,-0.51 25.27,-4.63 35.8,-9.05c10.52,-4.42 18.55,-9.15 20.8,-10.88l0,-33.4l-0.03,-39.75Z" style="fill:none;stroke:#000;stroke-width:0.5px;"/><path d="M128.67,71.9c-4.42,1.93 -10.1,5.6 -15.17,12.71c-3.5,4.91 -5.92,12.04 -6.5,20.8c-1.17,0.38 -2.17,0.19 -3.67,0.19c0.25,-5.58 1.98,-15.58 6.67,-22.72c5.25,-8 13.83,-12.43 14.75,-12.91c2.42,0.97 3.92,1.93 3.92,1.93Z" style="fill-rule:nonzero;"/><path d="M128.67,71.9c-4.42,1.93 -10.1,5.6 -15.17,12.71c-3.5,4.91 -5.92,12.04 -6.5,20.8c-1.17,0.38 -2.17,0.19 -3.67,0.19c0.25,-5.58 1.98,-15.58 6.67,-22.72c5.25,-8 13.83,-12.43 14.75,-12.91c2.42,0.97 3.92,1.93 3.92,1.93Z" style="fill:none;stroke:#000;stroke-width:0.5px;"/><path d="M126.63,71.34c-0.59,0.3 -1.75,-1 -2.7,-0.37c-0.68,0.46 -0.55,2.67 -1.35,3.27c-0.71,0.53 -2.4,-0.52 -3.14,0.09c-0.7,0.57 -0.4,2.76 -1.1,3.39c-0.69,0.63 -2.46,-0.24 -3.12,0.43c-0.68,0.68 -0.15,2.81 -0.75,3.51c-0.65,0.76 -2.51,0.24 -3.02,1c-0.58,0.87 0.26,2.92 -0.26,3.91c-0.51,0.94 -2.47,0.97 -2.92,2c-0.43,0.99 0.72,2.83 0.34,3.9c-0.36,1.04 -2.29,1.44 -2.58,2.54c-0.29,1.07 1.1,2.67 0.88,3.78c-0.22,1.1 -2.07,1.85 -2.21,2.98c-0.13,1.12 1.46,2.44 1.4,3.58" style="fill:none;stroke:#fff;stroke-width:0.5px;stroke-linecap:round;"/><path d="M21.02,154.48c4.41,-1.92 10.09,-5.6 15.16,-12.71c3.5,-4.91 5.92,-12.04 6.5,-20.8c1.17,-0.38 2.17,-0.19 3.67,-0.19c-0.25,5.58 -1.97,15.58 -6.67,22.72c-5.25,8 -13.83,12.43 -14.75,12.91c-2.41,-0.96 -3.91,-1.93 -3.91,-1.93Z" style="fill-rule:nonzero;"/><path d="M21.02,154.48c4.41,-1.92 10.09,-5.6 15.16,-12.71c3.5,-4.91 5.92,-12.04 6.5,-20.8c1.17,-0.38 2.17,-0.19 3.67,-0.19c-0.25,5.58 -1.97,15.58 -6.67,22.72c-5.25,8 -13.83,12.43 -14.75,12.91c-2.41,-0.96 -3.91,-1.93 -3.91,-1.93Z" style="fill:none;stroke:#000;stroke-width:0.5px;"/><path d="M23.06,155.04c0.58,-0.3 1.75,1 2.69,0.37c0.69,-0.46 0.56,-2.67 1.36,-3.27c0.7,-0.53 2.39,0.53 3.13,-0.09c0.71,-0.57 0.4,-2.76 1.1,-3.39c0.7,-0.62 2.47,0.24 3.12,-0.43c0.68,-0.68 0.16,-2.81 0.75,-3.51c0.65,-0.76 2.52,-0.24 3.02,-1c0.58,-0.87 -0.26,-2.92 0.27,-3.91c0.5,-0.94 2.46,-0.97 2.91,-2c0.43,-0.99 -0.71,-2.83 -0.34,-3.9c0.36,-1.04 2.29,-1.44 2.59,-2.54c0.28,-1.06 -1.1,-2.67 -0.88,-3.78c0.21,-1.09 2.06,-1.85 2.2,-2.98c0.14,-1.11 -1.45,-2.44 -1.4,-3.58" style="fill:none;stroke:#fff;stroke-width:0.5px;stroke-linecap:round;"/><path d="M82.24,113.21c0.31,-20.85 2.81,-32.35 6.76,-45.78c-5.15,-0.34 -10.42,-0.46 -14.16,-0.37c-3.51,0.08 -8.84,0.61 -12.33,1.33c2.31,8.36 5.24,23.71 4.93,44.8c-0.31,20.85 -2.81,32.35 -6.76,45.78c5.15,0.34 11.53,0.44 14.16,0.37c2.95,-0.07 8.84,-0.6 12.33,-1.33c-2.31,-8.36 -5.24,-23.71 -4.93,-44.8Z" style="fill:#fff;fill-rule:nonzero;"/><path d="M82.24,113.21c0.31,-20.85 2.81,-32.35 6.76,-45.78c-5.15,-0.34 -10.42,-0.46 -14.16,-0.37c-3.51,0.08 -8.84,0.61 -12.33,1.33c2.31,8.36 5.24,23.71 4.93,44.8c-0.31,20.85 -2.81,32.35 -6.76,45.78c5.15,0.34 11.53,0.44 14.16,0.37c2.95,-0.07 8.84,-0.6 12.33,-1.33c-2.31,-8.36 -5.24,-23.71 -4.93,-44.8Z" style="fill:none;stroke:#000;stroke-width:0.5px;"/><path d="M86.88,164.14l-21.22,-8.86l18.04,-11.42l-15.22,-7.44l13.96,-8.56l-13.16,-9.52l5.83,-4.67c0.01,0 0.01,0 0.02,0l7.15,-5.73l-12.97,-9.4l14.29,-8.75l-15.25,-7.46l18.17,-11.5l-23.31,-9.74c-0.25,-0.11 -0.54,0.05 -0.64,0.35c-0.09,0.3 0.04,0.63 0.3,0.74l21.22,8.87l-18.04,11.41l15.22,7.45l-13.96,8.55l13.16,9.53l-5.83,4.66c-0.01,0.01 -0.01,0 -0.02,0.01l-7.15,5.72l12.97,9.4l-14.29,8.75l15.25,7.46l-18.17,11.5l23.31,9.74c0.25,0.11 0.54,-0.05 0.64,-0.35c0.09,-0.3 -0.04,-0.63 -0.3,-0.74Z" style="fill-rule:nonzero;"/><path d="M65.75,69.2l1.42,9.63l11.08,-7.52l-12.5,-2.11Z" style="fill:#fff;fill-rule:nonzero;"/><path d="M65.75,69.2l1.42,9.63l11.08,-7.52l-12.5,-2.11Z" style="fill:none;stroke:#000;stroke-width:0.5px;"/><path d="M67.83,85.89l0.5,9.6l9.09,-5.68l-9.59,-3.92Z" style="fill:#fff;fill-rule:nonzero;"/><path d="M67.83,85.89l0.5,9.6l9.09,-5.68l-9.59,-3.92Z" style="fill:none;stroke:#000;stroke-width:0.5px;"/><path d="M71.75,81.91l9.33,3.66l1.59,-9.82l-10.92,6.16Z" style="fill:#fff;fill-rule:nonzero;"/><path d="M71.75,81.91l9.33,3.66l1.59,-9.82l-10.92,6.16Z" style="fill:none;stroke:#000;stroke-width:0.5px;"/><path d="M81.33,92.7l-8.91,5.87l8,5.68l0.91,-11.55Z" style="fill:#fff;fill-rule:nonzero;"/><path d="M81.33,92.7l-8.91,5.87l8,5.68l0.91,-11.55Z" style="fill:none;stroke:#000;stroke-width:0.5px;"/><path d="M69,101.27l0,13.29l8.75,-6.45l-8.75,-6.84Z" style="fill:#fff;fill-rule:nonzero;"/><path d="M69,101.27l0,13.29l8.75,-6.45l-8.75,-6.84Z" style="fill:none;stroke:#000;stroke-width:0.5px;"/><path d="M83.92,157.02l-1.42,-9.62l-11.08,7.52l12.5,2.1Z" style="fill:#fff;fill-rule:nonzero;"/><path d="M83.92,157.02l-1.42,-9.62l-11.08,7.52l12.5,2.1Z" style="fill:none;stroke:#000;stroke-width:0.5px;"/><path d="M81.83,140.34l-0.5,-9.6l-9.08,5.68l9.58,3.92Z" style="fill:#fff;fill-rule:nonzero;"/><path d="M81.83,140.34l-0.5,-9.6l-9.08,5.68l9.58,3.92Z" style="fill:none;stroke:#000;stroke-width:0.5px;"/><path d="M77.92,144.31l-9.34,-3.66l-1.58,9.83l10.92,-6.17Z" style="fill:#fff;fill-rule:nonzero;"/><path d="M77.92,144.31l-9.34,-3.66l-1.58,9.83l10.92,-6.17Z" style="fill:none;stroke:#000;stroke-width:0.5px;"/><path d="M68.33,133.53l8.92,-5.88l-8,-5.68l-0.92,11.56Z" style="fill:#fff;fill-rule:nonzero;"/><path d="M68.33,133.53l8.92,-5.88l-8,-5.68l-0.92,11.56Z" style="fill:none;stroke:#000;stroke-width:0.5px;"/><path d="M80.67,124.96l0,-13.29l-8.75,6.45l8.75,6.84Z" style="fill:#fff;fill-rule:nonzero;"/><path d="M80.67,124.96l0,-13.29l-8.75,6.45l8.75,6.84Z" style="fill:none;stroke:#000;stroke-width:0.5px;"/><path d="M129.15,129.46c0,13.31 -10.78,24.1 -24.09,24.1c-13.31,0 -24.1,-10.79 -24.1,-24.1c0,-13.3 10.79,-24.09 24.1,-24.09c13.31,0 24.09,10.79 24.09,24.09Z" style="fill:#fff;fill-rule:nonzero;"/><path d="M129.15,129.46c0,13.31 -10.78,24.1 -24.09,24.1c-13.31,0 -24.1,-10.79 -24.1,-24.1c0,-13.3 10.79,-24.09 24.1,-24.09c13.31,0 24.09,10.79 24.09,24.09Z" style="fill:none;stroke:#000;stroke-width:1px;"/><path d="M127.2,129.46c0,12.23 -9.91,22.15 -22.14,22.15c-12.23,0 -22.14,-9.92 -22.14,-22.15c0,-12.22 9.91,-22.14 22.14,-22.14c12.23,0 22.14,9.92 22.14,22.14Z" style="fill:#fff;fill-rule:nonzero;"/><path d="M127.2,129.46c0,12.23 -9.91,22.15 -22.14,22.15c-12.23,0 -22.14,-9.92 -22.14,-22.15c0,-12.22 9.91,-22.14 22.14,-22.14c12.23,0 22.14,9.92 22.14,22.14Z" style="fill:none;stroke:#000;stroke-width:0.5px;"/><path d="M118.86,129.46c0,7.63 -6.18,13.8 -13.8,13.8c-7.62,0 -13.8,-6.17 -13.8,-13.8c0,-7.62 6.18,-13.79 13.8,-13.79c7.62,0 13.8,6.17 13.8,13.79Z" style="fill-rule:nonzero;"/><path d="M118.86,129.46c0,7.63 -6.18,13.8 -13.8,13.8c-7.62,0 -13.8,-6.17 -13.8,-13.8c0,-7.62 6.18,-13.79 13.8,-13.79c7.62,0 13.8,6.17 13.8,13.79Z" style="fill:none;stroke:#000;stroke-width:0.5px;"/><path d="M110.89,129.47c0,3.21 -2.61,5.82 -5.83,5.82c-3.22,0 -5.83,-2.61 -5.83,-5.82c0,-3.22 2.61,-5.83 5.83,-5.83c3.22,0 5.83,2.61 5.83,5.83Z" style="fill-rule:nonzero;"/><path d="M110.89,129.47c0,3.21 -2.61,5.82 -5.83,5.82c-3.22,0 -5.83,-2.61 -5.83,-5.82c0,-3.22 2.61,-5.83 5.83,-5.83c3.22,0 5.83,2.61 5.83,5.83Z" style="fill:none;stroke:#ff0;stroke-width:2px;"/><path d="M20.53,96.92c0,-13.31 10.78,-24.1 24.09,-24.1c13.31,0 24.09,10.79 24.09,24.1c0,13.3 -10.78,24.09 -24.09,24.09c-13.31,0 -24.09,-10.79 -24.09,-24.09Z" style="fill:#fff;fill-rule:nonzero;"/><path d="M20.53,96.92c0,-13.31 10.78,-24.1 24.09,-24.1c13.31,0 24.09,10.79 24.09,24.1c0,13.3 -10.78,24.09 -24.09,24.09c-13.31,0 -24.09,-10.79 -24.09,-24.09Z" style="fill:none;stroke:#000;stroke-width:1px;"/><path d="M22.48,96.92c0,-12.23 9.91,-22.14 22.14,-22.14c12.23,0 22.14,9.91 22.14,22.14c0,12.23 -9.91,22.14 -22.14,22.14c-12.23,0 -22.14,-9.91 -22.14,-22.14Z" style="fill:#fff;fill-rule:nonzero;"/><path d="M22.48,96.92c0,-12.23 9.91,-22.14 22.14,-22.14c12.23,0 22.14,9.91 22.14,22.14c0,12.23 -9.91,22.14 -22.14,22.14c-12.23,0 -22.14,-9.91 -22.14,-22.14Z" style="fill:none;stroke:#000;stroke-width:0.5px;"/><path d="M30.82,96.92c0,-7.62 6.18,-13.8 13.8,-13.8c7.62,0 13.8,6.18 13.8,13.8c0,7.62 -6.18,13.8 -13.8,13.8c-7.62,0 -13.8,-6.18 -13.8,-13.8Z" style="fill-rule:nonzero;"/><path d="M30.82,96.92c0,-7.62 6.18,-13.8 13.8,-13.8c7.62,0 13.8,6.18 13.8,13.8c0,7.62 -6.18,13.8 -13.8,13.8c-7.62,0 -13.8,-6.18 -13.8,-13.8Z" style="fill:none;stroke:#000;stroke-width:0.5px;"/><path d="M38.79,96.92c0,-3.22 2.61,-5.83 5.83,-5.83c3.22,0 5.83,2.61 5.83,5.83c0,3.22 -2.61,5.83 -5.83,5.83c-3.22,0 -5.83,-2.61 -5.83,-5.83Z" style="fill-rule:nonzero;"/><path d="M38.79,96.92c0,-3.22 2.61,-5.83 5.83,-5.83c3.22,0 5.83,2.61 5.83,5.83c0,3.22 -2.61,5.83 -5.83,5.83c-3.22,0 -5.83,-2.61 -5.83,-5.83Z" style="fill:none;stroke:#ff0;stroke-width:2px;"/><path d="M106.03,151.6l-0.37,-8.35" style="fill:none;stroke:#000;stroke-width:0.5px;"/><path d="M107.96,151.43l-1.1,-8.29" style="fill:none;stroke:#000;stroke-width:0.5px;"/><path d="M109.86,151.1l-1.82,-8.17" style="fill:none;stroke:#000;stroke-width:0.5px;"/><path d="M111.73,150.6l-2.52,-7.98" style="fill:none;stroke:#000;stroke-width:0.5px;"/><path d="M113.55,149.93l-3.21,-7.72" style="fill:none;stroke:#000;stroke-width:0.5px;"/><path d="M115.3,149.12l-3.87,-7.42" style="fill:none;stroke:#000;stroke-width:0.5px;"/><path d="M116.97,148.15l-4.5,-7.05" style="fill:none;stroke:#000;stroke-width:0.5px;"/><path d="M118.55,147.04l-5.09,-6.63" style="fill:none;stroke:#000;stroke-width:0.5px;"/><path d="M120.03,145.8l-5.65,-6.16" style="fill:none;stroke:#000;stroke-width:0.5px;"/><path d="M121.4,144.43l-6.17,-5.64" style="fill:none;stroke:#000;stroke-width:0.5px;"/><path d="M122.64,142.95l-6.64,-5.09" style="fill:none;stroke:#000;stroke-width:0.5px;"/><path d="M123.75,141.36l-7.06,-4.48" style="fill:none;stroke:#000;stroke-width:0.5px;"/><path d="M124.72,139.69l-7.43,-3.86" style="fill:none;stroke:#000;stroke-width:0.5px;"/><path d="M125.53,137.94l-7.73,-3.2" style="fill:none;stroke:#000;stroke-width:0.5px;"/><path d="M126.19,136.12l-7.98,-2.51" style="fill:none;stroke:#000;stroke-width:0.5px;"/><path d="M126.69,134.25l-8.16,-1.8" style="fill:none;stroke:#000;stroke-width:0.5px;"/><path d="M127.03,132.35l-8.29,-1.09" style="fill:none;stroke:#000;stroke-width:0.5px;"/><path d="M127.2,130.42l-8.36,-0.35" style="fill:none;stroke:#000;stroke-width:0.5px;"/><path d="M127.2,128.49l-8.36,0.37" style="fill:none;stroke:#000;stroke-width:0.5px;"/><path d="M127.03,126.56l-8.29,1.1" style="fill:none;stroke:#000;stroke-width:0.5px;"/><path d="M126.69,124.66l-8.16,1.82" style="fill:none;stroke:#000;stroke-width:0.5px;"/><path d="M126.19,122.79l-7.98,2.52" style="fill:none;stroke:#000;stroke-width:0.5px;"/><path d="M125.53,120.98l-7.73,3.2" style="fill:none;stroke:#000;stroke-width:0.5px;"/><path d="M124.71,119.23l-7.42,3.86" style="fill:none;stroke:#000;stroke-width:0.5px;"/><path d="M123.74,117.55l-7.05,4.5" style="fill:none;stroke:#000;stroke-width:0.5px;"/><path d="M122.63,115.97l-6.63,5.1" style="fill:none;stroke:#000;stroke-width:0.5px;"/><path d="M121.39,114.49l-6.16,5.65" style="fill:none;stroke:#000;stroke-width:0.5px;"/><path d="M120.02,113.12l-5.64,6.17" style="fill:none;stroke:#000;stroke-width:0.5px;"/><path d="M118.54,111.88l-5.08,6.64" style="fill:none;stroke:#000;stroke-width:0.5px;"/><path d="M116.96,110.77l-4.49,7.06" style="fill:none;stroke:#000;stroke-width:0.5px;"/><path d="M115.28,109.81l-3.85,7.42" style="fill:none;stroke:#000;stroke-width:0.5px;"/><path d="M113.53,108.99l-3.19,7.73" style="fill:none;stroke:#000;stroke-width:0.5px;"/><path d="M111.71,108.33l-2.5,7.98" style="fill:none;stroke:#000;stroke-width:0.5px;"/><path d="M109.85,107.83l-1.81,8.17" style="fill:none;stroke:#000;stroke-width:0.5px;"/><path d="M107.94,107.5l-1.08,8.29" style="fill:none;stroke:#000;stroke-width:0.5px;"/><path d="M106.02,107.33l-0.36,8.35" style="fill:none;stroke:#000;stroke-width:0.5px;"/><path d="M94.81,109.81l3.88,7.41" style="fill:none;stroke:#000;stroke-width:0.5px;"/><path d="M93.14,110.78l4.51,7.05" style="fill:none;stroke:#000;stroke-width:0.5px;"/><path d="M91.56,111.89l5.1,6.63" style="fill:none;stroke:#000;stroke-width:0.5px;"/><path d="M90.08,113.13l5.66,6.16" style="fill:none;stroke:#000;stroke-width:0.5px;"/><path d="M88.71,114.5l6.18,5.64" style="fill:none;stroke:#000;stroke-width:0.5px;"/><path d="M87.47,115.98l6.64,5.08" style="fill:none;stroke:#000;stroke-width:0.5px;"/><path d="M86.36,117.57l7.06,4.48" style="fill:none;stroke:#000;stroke-width:0.5px;"/><path d="M85.4,119.24l7.42,3.85" style="fill:none;stroke:#000;stroke-width:0.5px;"/><path d="M84.58,120.99l7.73,3.19" style="fill:none;stroke:#000;stroke-width:0.5px;"/><path d="M83.92,122.81l7.98,2.5" style="fill:none;stroke:#000;stroke-width:0.5px;"/><path d="M83.42,124.68l8.17,1.79" style="fill:none;stroke:#000;stroke-width:0.5px;"/><path d="M83.08,126.58l8.3,1.08" style="fill:none;stroke:#000;stroke-width:0.5px;"/><path d="M82.92,128.51l8.35,0.35" style="fill:none;stroke:#000;stroke-width:0.5px;"/><path d="M82.92,130.44l8.35,-0.38" style="fill:none;stroke:#000;stroke-width:0.5px;"/><path d="M83.09,132.37l8.29,-1.11" style="fill:none;stroke:#000;stroke-width:0.5px;"/><path d="M83.42,134.27l8.17,-1.82" style="fill:none;stroke:#000;stroke-width:0.5px;"/><path d="M83.93,136.14l7.97,-2.53" style="fill:none;stroke:#000;stroke-width:0.5px;"/><path d="M84.59,137.96l7.72,-3.22" style="fill:none;stroke:#000;stroke-width:0.5px;"/><path d="M85.41,139.71l7.41,-3.88" style="fill:none;stroke:#000;stroke-width:0.5px;"/><path d="M86.37,141.38l7.05,-4.51" style="fill:none;stroke:#000;stroke-width:0.5px;"/><path d="M87.48,142.96l6.63,-5.1" style="fill:none;stroke:#000;stroke-width:0.5px;"/><path d="M88.73,144.44l6.15,-5.66" style="fill:none;stroke:#000;stroke-width:0.5px;"/><path d="M90.09,145.81l5.65,-6.18" style="fill:none;stroke:#000;stroke-width:0.5px;"/><path d="M91.57,147.05l5.09,-6.64" style="fill:none;stroke:#000;stroke-width:0.5px;"/><path d="M93.16,148.16l4.48,-7.06" style="fill:none;stroke:#000;stroke-width:0.5px;"/><path d="M94.83,149.13l3.86,-7.43" style="fill:none;stroke:#000;stroke-width:0.5px;"/><path d="M96.58,149.94l3.2,-7.73" style="fill:none;stroke:#000;stroke-width:0.5px;"/><path d="M98.4,150.6l2.51,-7.98" style="fill:none;stroke:#000;stroke-width:0.5px;"/><path d="M100.27,151.1l1.8,-8.17" style="fill:none;stroke:#000;stroke-width:0.5px;"/><path d="M102.17,151.44l1.08,-8.3" style="fill:none;stroke:#000;stroke-width:0.5px;"/><path d="M104.1,151.61l0.35,-8.36" style="fill:none;stroke:#000;stroke-width:0.5px;"/><path d="M104.08,107.32l0.38,8.36" style="fill:none;stroke:#000;stroke-width:0.5px;"/><path d="M102.15,107.49l1.11,8.29" style="fill:none;stroke:#000;stroke-width:0.5px;"/><path d="M100.25,107.83l1.83,8.16" style="fill:none;stroke:#000;stroke-width:0.5px;"/><path d="M98.38,108.33l2.53,7.97" style="fill:none;stroke:#000;stroke-width:0.5px;"/><path d="M96.57,108.99l3.21,7.73" style="fill:none;stroke:#000;stroke-width:0.5px;"/><path d="M43.65,74.78l0.37,8.35" style="fill:none;stroke:#000;stroke-width:0.5px;"/><path d="M41.72,74.95l1.1,8.29" style="fill:none;stroke:#000;stroke-width:0.5px;"/><path d="M39.82,75.28l1.82,8.17" style="fill:none;stroke:#000;stroke-width:0.5px;"/><path d="M37.95,75.78l2.52,7.98" style="fill:none;stroke:#000;stroke-width:0.5px;"/><path d="M36.13,76.45l3.21,7.72" style="fill:none;stroke:#000;stroke-width:0.5px;"/><path d="M34.38,77.26l3.87,7.42" style="fill:none;stroke:#000;stroke-width:0.5px;"/><path d="M32.71,78.23l4.5,7.05" style="fill:none;stroke:#000;stroke-width:0.5px;"/><path d="M31.13,79.34l5.09,6.63" style="fill:none;stroke:#000;stroke-width:0.5px;"/><path d="M29.65,80.58l5.65,6.17" style="fill:none;stroke:#000;stroke-width:0.5px;"/><path d="M28.28,81.95l6.17,5.65" style="fill:none;stroke:#000;stroke-width:0.5px;"/><path d="M27.04,83.43l6.64,5.09" style="fill:none;stroke:#000;stroke-width:0.5px;"/><path d="M25.93,85.02l7.06,4.48" style="fill:none;stroke:#000;stroke-width:0.5px;"/><path d="M24.96,86.69l7.43,3.86" style="fill:none;stroke:#000;stroke-width:0.5px;"/><path d="M24.15,88.44l7.73,3.2" style="fill:none;stroke:#000;stroke-width:0.5px;"/><path d="M23.49,90.26l7.98,2.51" style="fill:none;stroke:#000;stroke-width:0.5px;"/><path d="M22.99,92.13l8.16,1.8" style="fill:none;stroke:#000;stroke-width:0.5px;"/><path d="M22.65,94.03l8.29,1.09" style="fill:none;stroke:#000;stroke-width:0.5px;"/><path d="M22.48,95.96l8.36,0.36" style="fill:none;stroke:#000;stroke-width:0.5px;"/><path d="M22.48,97.89l8.36,-0.37" style="fill:none;stroke:#000;stroke-width:0.5px;"/><path d="M22.65,99.82l8.29,-1.1" style="fill:none;stroke:#000;stroke-width:0.5px;"/><path d="M22.99,101.72l8.16,-1.82" style="fill:none;stroke:#000;stroke-width:0.5px;"/><path d="M23.49,103.59l7.98,-2.52" style="fill:none;stroke:#000;stroke-width:0.5px;"/><path d="M24.15,105.4l7.73,-3.2" style="fill:none;stroke:#000;stroke-width:0.5px;"/><path d="M24.97,107.15l7.42,-3.86" style="fill:none;stroke:#000;stroke-width:0.5px;"/><path d="M25.94,108.83l7.05,-4.5" style="fill:none;stroke:#000;stroke-width:0.5px;"/><path d="M27.05,110.41l6.63,-5.09" style="fill:none;stroke:#000;stroke-width:0.5px;"/><path d="M28.29,111.89l6.16,-5.65" style="fill:none;stroke:#000;stroke-width:0.5px;"/><path d="M29.66,113.26l5.64,-6.17" style="fill:none;stroke:#000;stroke-width:0.5px;"/><path d="M31.14,114.5l5.08,-6.64" style="fill:none;stroke:#000;stroke-width:0.5px;"/><path d="M32.72,115.61l4.49,-7.06" style="fill:none;stroke:#000;stroke-width:0.5px;"/><path d="M34.4,116.57l3.85,-7.42" style="fill:none;stroke:#000;stroke-width:0.5px;"/><path d="M36.15,117.39l3.19,-7.73" style="fill:none;stroke:#000;stroke-width:0.5px;"/><path d="M37.97,118.05l2.5,-7.98" style="fill:none;stroke:#000;stroke-width:0.5px;"/><path d="M39.83,118.55l1.81,-8.16" style="fill:none;stroke:#000;stroke-width:0.5px;"/><path d="M41.74,118.88l1.08,-8.29" style="fill:none;stroke:#000;stroke-width:0.5px;"/><path d="M43.66,119.05l0.36,-8.35" style="fill:none;stroke:#000;stroke-width:0.5px;"/><path d="M54.87,116.57l-3.88,-7.41" style="fill:none;stroke:#000;stroke-width:0.5px;"/><path d="M56.54,115.6l-4.51,-7.04" style="fill:none;stroke:#000;stroke-width:0.5px;"/><path d="M58.12,114.49l-5.1,-6.62" style="fill:none;stroke:#000;stroke-width:0.5px;"/><path d="M59.6,113.25l-5.66,-6.16" style="fill:none;stroke:#000;stroke-width:0.5px;"/><path d="M60.97,111.88l-6.18,-5.64" style="fill:none;stroke:#000;stroke-width:0.5px;"/><path d="M62.21,110.4l-6.64,-5.08" style="fill:none;stroke:#000;stroke-width:0.5px;"/><path d="M63.32,108.82l-7.06,-4.49" style="fill:none;stroke:#000;stroke-width:0.5px;"/><path d="M64.28,107.14l-7.42,-3.85" style="fill:none;stroke:#000;stroke-width:0.5px;"/><path d="M65.1,105.39l-7.73,-3.19" style="fill:none;stroke:#000;stroke-width:0.5px;"/><path d="M65.76,103.57l-7.98,-2.5" style="fill:none;stroke:#000;stroke-width:0.5px;"/><path d="M66.26,101.7l-8.17,-1.79" style="fill:none;stroke:#000;stroke-width:0.5px;"/><path d="M66.6,99.8l-8.3,-1.08" style="fill:none;stroke:#000;stroke-width:0.5px;"/><path d="M66.76,97.87l-8.35,-0.35" style="fill:none;stroke:#000;stroke-width:0.5px;"/><path d="M66.76,95.94l-8.35,0.38" style="fill:none;stroke:#000;stroke-width:0.5px;"/><path d="M66.59,94.01l-8.29,1.11" style="fill:none;stroke:#000;stroke-width:0.5px;"/><path d="M66.26,92.11l-8.17,1.82" style="fill:none;stroke:#000;stroke-width:0.5px;"/><path d="M65.75,90.24l-7.97,2.53" style="fill:none;stroke:#000;stroke-width:0.5px;"/><path d="M65.09,88.42l-7.72,3.22" style="fill:none;stroke:#000;stroke-width:0.5px;"/><path d="M64.27,86.67l-7.41,3.88" style="fill:none;stroke:#000;stroke-width:0.5px;"/><path d="M63.31,85l-7.05,4.51" style="fill:none;stroke:#000;stroke-width:0.5px;"/><path d="M62.2,83.42l-6.63,5.1" style="fill:none;stroke:#000;stroke-width:0.5px;"/><path d="M60.95,81.94l-6.16,5.66" style="fill:none;stroke:#000;stroke-width:0.5px;"/><path d="M59.59,80.57l-5.65,6.18" style="fill:none;stroke:#000;stroke-width:0.5px;"/><path d="M58.11,79.33l-5.09,6.64" style="fill:none;stroke:#000;stroke-width:0.5px;"/><path d="M56.52,78.22l-4.48,7.06" style="fill:none;stroke:#000;stroke-width:0.5px;"/><path d="M54.85,77.25l-3.86,7.43" style="fill:none;stroke:#000;stroke-width:0.5px;"/><path d="M53.09,76.44l-3.19,7.73" style="fill:none;stroke:#000;stroke-width:0.5px;"/><path d="M51.28,75.78l-2.51,7.98" style="fill:none;stroke:#000;stroke-width:0.5px;"/><path d="M49.41,75.28l-1.8,8.17" style="fill:none;stroke:#000;stroke-width:0.5px;"/><path d="M47.5,74.94l-1.08,8.3" style="fill:none;stroke:#000;stroke-width:0.5px;"/><path d="M45.58,74.78l-0.35,8.35" style="fill:none;stroke:#000;stroke-width:0.5px;"/><path d="M45.6,119.06l-0.38,-8.36" style="fill:none;stroke:#000;stroke-width:0.5px;"/><path d="M47.53,118.89l-1.11,-8.29" style="fill:none;stroke:#000;stroke-width:0.5px;"/><path d="M49.43,118.55l-1.83,-8.16" style="fill:none;stroke:#000;stroke-width:0.5px;"/><path d="M51.3,118.05l-2.53,-7.97" style="fill:none;stroke:#000;stroke-width:0.5px;"/><path d="M53.11,117.39l-3.21,-7.72" style="fill:none;stroke:#000;stroke-width:0.5px;"/><path d="M37.5,69.68c5.92,11.85 13.17,63.17 10.37,94.44c2.39,0.48 3.67,0.75 6.54,1.19c8.17,-44.2 5.34,-86.48 -2.38,-101.12c-6.78,2.03 -10.82,3.8 -14.53,5.49Z" style="fill-rule:nonzero;"/><path d="M37.5,69.68c5.92,11.85 13.17,63.17 10.37,94.44c2.39,0.48 3.67,0.75 6.54,1.19c8.17,-44.2 5.34,-86.48 -2.38,-101.12c-6.78,2.03 -10.82,3.8 -14.53,5.49Z" style="fill:none;stroke:#000;stroke-width:0.5px;"/><path d="M48.02,82.56c0,-0.28 -0.02,-0.67 -0.06,-1.14c-0.38,0.36 -0.91,0.7 -1.69,0.85c-0.23,0.04 -0.44,0.06 -0.66,0.06c-1.44,0 -2.67,-1.01 -3.27,-2.71c-0.65,-1.8 -0.62,-3.48 0.08,-5.61c0.29,-0.89 1.12,-3.14 2.5,-4.9l0.26,-0.34l0.4,0.04c2.04,0.16 3.99,1.13 4.73,1.53c1.78,0.98 2.81,2.17 3.42,3.99c0.68,1.98 0.19,3.92 -1.25,5.06c-0.56,0.43 -1.13,0.68 -1.73,0.73c0.25,0.38 0.47,0.67 0.64,0.87l0.88,1.02l-1.15,0.52c-0.76,0.35 -0.93,0.43 -0.96,0.45c-0.09,0.04 -0.27,0.11 -1.02,0.47l-1.15,0.55l0.03,-1.44Z" style="fill:#fff;fill-rule:nonzero;"/><path d="M49.96,71.19c-1.2,-0.65 -2.88,-1.32 -4.44,-1.45c-1.05,1.34 -1.87,3.17 -2.34,4.6c-0.68,2.06 -0.61,3.47 -0.09,4.93c0.5,1.4 1.56,2.36 3.04,2.07c1.06,-0.2 1.51,-0.81 1.83,-1.29c0.31,-0.44 0.41,-1.06 0.44,-1.49c0.19,1.16 0.45,3 0.43,4.02c0.88,-0.41 0.99,-0.46 0.99,-0.46c0,0 0.12,-0.06 1,-0.46c-0.63,-0.72 -1.53,-2.26 -2.1,-3.25c0.28,0.28 0.73,0.65 1.21,0.73c0.52,0.08 1.21,0.16 2.09,-0.53c1.25,-0.98 1.44,-2.52 0.96,-3.94c-0.5,-1.47 -1.3,-2.54 -3.02,-3.48Z" style="fill-rule:nonzero;"/><path d="M50.6,99.33c0.04,-0.27 0.08,-0.63 0.1,-1.08c-0.4,0.26 -0.95,0.48 -1.7,0.47c-0.22,0 -0.43,-0.02 -0.62,-0.06c-1.35,-0.27 -2.36,-1.45 -2.69,-3.15c-0.35,-1.81 -0.09,-3.38 0.87,-5.24c0.4,-0.78 1.49,-2.73 3.03,-4.11l0.29,-0.27l0.37,0.1c1.89,0.54 3.58,1.81 4.21,2.33c1.54,1.25 2.33,2.56 2.65,4.38c0.35,1.98 -0.38,3.7 -1.89,4.49c-0.59,0.31 -1.15,0.43 -1.72,0.37c0.18,0.4 0.34,0.71 0.48,0.93l0.68,1.12l-1.16,0.27c-0.75,0.18 -0.93,0.23 -0.96,0.24c-0.09,0.02 -0.26,0.06 -1.02,0.25l-1.15,0.3l0.23,-1.34Z" style="fill:#fff;fill-rule:nonzero;"/><path d="M54.02,89.05c-1.03,-0.84 -2.52,-1.78 -3.96,-2.19c-1.17,1.05 -2.19,2.61 -2.84,3.86c-0.92,1.8 -1.06,3.13 -0.77,4.59c0.27,1.41 1.12,2.52 2.55,2.52c1.02,0.01 1.53,-0.48 1.9,-0.86c0.35,-0.36 0.52,-0.92 0.61,-1.32c0.02,1.13 0.01,2.9 -0.16,3.85c0.88,-0.22 1,-0.25 1,-0.25c0,0 0.11,-0.03 0.99,-0.24c-0.48,-0.79 -1.11,-2.4 -1.5,-3.44c0.22,0.32 0.59,0.75 1.03,0.91c0.47,0.18 1.1,0.38 2.03,-0.1c1.31,-0.68 1.7,-2.09 1.45,-3.51c-0.26,-1.47 -0.86,-2.62 -2.33,-3.82Z" style="fill-rule:nonzero;"/><path d="M51.74,115.01c0.06,-0.24 0.12,-0.58 0.17,-0.99c-0.39,0.21 -0.91,0.37 -1.61,0.31c-0.21,-0.02 -0.4,-0.06 -0.58,-0.11c-1.24,-0.36 -2.11,-1.53 -2.31,-3.15c-0.22,-1.7 0.11,-3.15 1.11,-4.8c0.42,-0.69 1.55,-2.42 3.06,-3.59l0.3,-0.23l0.33,0.13c1.73,0.65 3.22,1.96 3.79,2.5c1.35,1.28 2,2.56 2.19,4.28c0.21,1.87 -0.56,3.42 -2.02,4.03c-0.56,0.24 -1.09,0.31 -1.62,0.21c0.15,0.38 0.28,0.69 0.39,0.91l0.57,1.09l-1.1,0.16c-0.71,0.11 -0.87,0.14 -0.9,0.15c-0.09,0.01 -0.25,0.03 -0.97,0.15l-1.09,0.18l0.29,-1.23Z" style="fill:#fff;fill-rule:nonzero;"/><path d="M55.54,105.72c-0.91,-0.86 -2.24,-1.85 -3.55,-2.35c-1.16,0.89 -2.2,2.26 -2.88,3.37c-0.96,1.6 -1.17,2.83 -0.99,4.21c0.17,1.34 0.9,2.43 2.23,2.55c0.95,0.08 1.45,-0.33 1.82,-0.66c0.34,-0.3 0.54,-0.81 0.65,-1.17c-0.06,1.05 -0.17,2.69 -0.38,3.57c0.83,-0.14 0.94,-0.15 0.94,-0.15c0,0 0.11,-0.03 0.94,-0.16c-0.4,-0.77 -0.9,-2.32 -1.2,-3.31c0.19,0.31 0.51,0.74 0.91,0.93c0.43,0.2 1,0.44 1.89,0.06c1.26,-0.53 1.71,-1.81 1.56,-3.15c-0.16,-1.38 -0.64,-2.5 -1.94,-3.74Z" style="fill-rule:nonzero;"/><path d="M54.47,119.85c-0.06,0.2 -0.12,0.49 -0.18,0.84c0.34,-0.15 0.8,-0.26 1.4,-0.16c0.17,0.03 0.34,0.08 0.49,0.13c1.05,0.39 1.74,1.46 1.84,2.86c0.1,1.49 -0.26,2.7 -1.2,4.07c-0.39,0.57 -1.45,1.98 -2.81,2.89l-0.26,0.18l-0.28,-0.13c-1.46,-0.68 -2.68,-1.9 -3.14,-2.4c-1.1,-1.19 -1.6,-2.34 -1.68,-3.83c-0.09,-1.63 0.65,-2.91 1.93,-3.34c0.5,-0.17 0.96,-0.2 1.41,-0.07c-0.11,-0.35 -0.2,-0.62 -0.29,-0.81l-0.44,-0.98l0.95,-0.07c0.62,-0.04 0.76,-0.06 0.79,-0.06c0.07,-0.01 0.21,-0.02 0.84,-0.07l0.94,-0.09l-0.31,1.04Z" style="fill:#fff;fill-rule:nonzero;"/><path d="M50.76,127.61c0.74,0.8 1.83,1.74 2.94,2.25c1.04,-0.69 2,-1.8 2.64,-2.72c0.9,-1.31 1.14,-2.35 1.06,-3.56c-0.09,-1.16 -0.66,-2.15 -1.8,-2.34c-0.81,-0.13 -1.26,0.19 -1.59,0.45c-0.31,0.24 -0.51,0.66 -0.62,0.97c0.1,-0.9 0.27,-2.31 0.5,-3.05c-0.73,0.07 -0.82,0.07 -0.82,0.07c0,0 -0.1,0.02 -0.82,0.07c0.31,0.69 0.66,2.06 0.87,2.93c-0.15,-0.28 -0.39,-0.67 -0.73,-0.86c-0.36,-0.2 -0.85,-0.44 -1.63,-0.17c-1.11,0.37 -1.55,1.45 -1.49,2.61c0.06,1.2 0.43,2.2 1.49,3.35Z" style="fill-rule:nonzero;"/><path d="M54.7,132.77c-0.07,0.17 -0.15,0.42 -0.23,0.73c0.32,-0.11 0.73,-0.15 1.25,0c0.15,0.05 0.3,0.1 0.43,0.17c0.9,0.46 1.42,1.48 1.4,2.73c-0.03,1.33 -0.45,2.37 -1.39,3.48c-0.39,0.46 -1.44,1.61 -2.72,2.26l-0.25,0.13l-0.24,-0.14c-1.23,-0.76 -2.22,-1.98 -2.59,-2.46c-0.88,-1.18 -1.23,-2.25 -1.18,-3.58c0.05,-1.45 0.81,-2.51 1.98,-2.76c0.45,-0.09 0.87,-0.07 1.25,0.09c-0.06,-0.31 -0.13,-0.57 -0.19,-0.75l-0.31,-0.91l0.85,0.04c0.55,0.03 0.68,0.03 0.7,0.03c0.07,0 0.2,0.01 0.75,0.02l0.85,0.03l-0.36,0.89Z" style="fill:#fff;fill-rule:nonzero;"/><path d="M50.78,139.25c0.59,0.79 1.49,1.74 2.43,2.31c0.98,-0.5 1.92,-1.39 2.56,-2.13c0.91,-1.06 1.2,-1.96 1.22,-3.04c0.02,-1.04 -0.41,-1.97 -1.4,-2.27c-0.71,-0.2 -1.14,0.04 -1.45,0.23c-0.3,0.18 -0.51,0.53 -0.63,0.79c0.16,-0.78 0.43,-2.02 0.69,-2.64c-0.65,-0.02 -0.73,-0.03 -0.73,-0.03c0,0 -0.09,0 -0.73,-0.03c0.22,0.65 0.42,1.89 0.53,2.7c-0.11,-0.27 -0.29,-0.64 -0.58,-0.85c-0.3,-0.21 -0.71,-0.48 -1.43,-0.33c-1.01,0.22 -1.49,1.12 -1.53,2.16c-0.04,1.07 0.21,1.99 1.05,3.13Z" style="fill-rule:nonzero;"/><path d="M53.96,144.97c-0.06,0.14 -0.12,0.35 -0.19,0.61c0.26,-0.09 0.61,-0.12 1.04,0c0.13,0.04 0.25,0.09 0.36,0.14c0.75,0.39 1.18,1.23 1.16,2.28c-0.02,1.11 -0.37,1.97 -1.15,2.9c-0.33,0.38 -1.2,1.33 -2.27,1.88l-0.2,0.11l-0.2,-0.12c-1.03,-0.63 -1.85,-1.65 -2.16,-2.05c-0.73,-0.98 -1.03,-1.88 -0.99,-2.98c0.04,-1.21 0.68,-2.09 1.65,-2.3c0.38,-0.08 0.72,-0.06 1.05,0.07c-0.06,-0.26 -0.11,-0.47 -0.17,-0.62l-0.25,-0.76l0.71,0.04c0.45,0.02 0.56,0.02 0.58,0.02c0.06,0 0.16,0 0.62,0.02l0.71,0.02l-0.3,0.74Z" style="fill:#fff;fill-rule:nonzero;"/><path d="M50.7,150.37c0.49,0.65 1.24,1.45 2.02,1.92c0.81,-0.42 1.6,-1.15 2.13,-1.77c0.76,-0.89 1,-1.64 1.02,-2.53c0.02,-0.87 -0.34,-1.65 -1.17,-1.89c-0.59,-0.17 -0.95,0.03 -1.21,0.19c-0.24,0.15 -0.42,0.44 -0.52,0.66c0.14,-0.66 0.36,-1.68 0.57,-2.21c-0.54,-0.01 -0.61,-0.02 -0.61,-0.02c0,0 -0.06,0 -0.6,-0.02c0.18,0.54 0.35,1.58 0.44,2.24c-0.09,-0.22 -0.24,-0.53 -0.48,-0.7c-0.25,-0.18 -0.59,-0.4 -1.19,-0.27c-0.85,0.17 -1.25,0.93 -1.28,1.79c-0.03,0.9 0.17,1.66 0.88,2.61Z" style="fill-rule:nonzero;"/><path d="M53.13,155.44c-0.06,0.12 -0.13,0.3 -0.21,0.51c0.24,-0.05 0.55,-0.05 0.92,0.09c0.11,0.05 0.21,0.1 0.3,0.16c0.63,0.39 0.96,1.17 0.88,2.08c-0.08,0.96 -0.44,1.69 -1.19,2.44c-0.3,0.3 -1.12,1.07 -2.09,1.46l-0.18,0.08l-0.17,-0.13c-0.86,-0.63 -1.52,-1.58 -1.76,-1.96c-0.58,-0.92 -0.79,-1.72 -0.68,-2.68c0.1,-1.06 0.71,-1.77 1.58,-1.87c0.33,-0.04 0.63,0 0.91,0.14c-0.04,-0.23 -0.07,-0.42 -0.11,-0.56l-0.18,-0.68l0.62,0.09c0.4,0.05 0.49,0.06 0.51,0.06c0.05,0.01 0.14,0.02 0.54,0.07l0.62,0.08l-0.31,0.62Z" style="fill:#fff;fill-rule:nonzero;"/><path d="M49.96,159.89c0.39,0.62 0.99,1.37 1.65,1.85c0.73,-0.3 1.46,-0.88 1.96,-1.38c0.72,-0.72 0.98,-1.35 1.05,-2.13c0.06,-0.76 -0.2,-1.47 -0.91,-1.74c-0.51,-0.2 -0.83,-0.06 -1.07,0.06c-0.22,0.11 -0.39,0.36 -0.49,0.54c0.15,-0.56 0.41,-1.44 0.63,-1.88c-0.47,-0.06 -0.53,-0.07 -0.53,-0.07c0,0 -0.06,0 -0.53,-0.07c0.13,0.49 0.21,1.41 0.25,2c-0.06,-0.2 -0.18,-0.49 -0.38,-0.65c-0.21,-0.18 -0.49,-0.4 -1.02,-0.34c-0.75,0.09 -1.14,0.71 -1.22,1.46c-0.09,0.79 0.05,1.47 0.61,2.35Z" style="fill-rule:nonzero;"/><path d="M112.18,156.7c-5.91,-11.85 -13.16,-63.17 -10.37,-94.44c-2.39,-0.48 -3.67,-0.75 -6.53,-1.19c-8.18,44.2 -5.35,86.48 2.37,101.12c6.78,-2.03 10.83,-3.8 14.53,-5.49Z" style="fill-rule:nonzero;"/><path d="M112.18,156.7c-5.91,-11.85 -13.16,-63.17 -10.37,-94.44c-2.39,-0.48 -3.67,-0.75 -6.53,-1.19c-8.18,44.2 -5.35,86.48 2.37,101.12c6.78,-2.03 10.83,-3.8 14.53,-5.49Z" style="fill:none;stroke:#000;stroke-width:0.5px;"/><path d="M101.67,143.82c-0.01,0.28 0.01,0.67 0.06,1.14c0.37,-0.35 0.9,-0.69 1.68,-0.85c0.23,-0.04 0.45,-0.06 0.66,-0.06c1.44,0 2.67,1.01 3.28,2.71c0.64,1.8 0.61,3.48 -0.08,5.61c-0.3,0.89 -1.13,3.14 -2.5,4.9l-0.27,0.34l-0.39,-0.03c-2.05,-0.17 -3.99,-1.14 -4.74,-1.54c-1.78,-0.98 -2.81,-2.17 -3.42,-3.99c-0.67,-1.98 -0.19,-3.92 1.26,-5.06c0.55,-0.43 1.12,-0.67 1.72,-0.73c-0.25,-0.38 -0.47,-0.67 -0.64,-0.87l-0.88,-1.02l1.16,-0.52c0.75,-0.35 0.92,-0.43 0.95,-0.44c0.1,-0.05 0.27,-0.12 1.02,-0.48l1.15,-0.55l-0.02,1.44Z" style="fill:#fff;fill-rule:nonzero;"/><path d="M99.72,155.19c1.2,0.65 2.89,1.32 4.45,1.45c1.04,-1.34 1.86,-3.17 2.33,-4.6c0.68,-2.05 0.62,-3.46 0.09,-4.92c-0.5,-1.41 -1.55,-2.37 -3.04,-2.08c-1.05,0.21 -1.51,0.81 -1.83,1.29c-0.3,0.44 -0.4,1.06 -0.43,1.49c-0.19,-1.16 -0.46,-3 -0.44,-4.02c-0.87,0.41 -0.99,0.46 -0.99,0.46c0,0 -0.11,0.06 -1,0.46c0.63,0.72 1.54,2.26 2.1,3.26c-0.28,-0.29 -0.72,-0.66 -1.21,-0.74c-0.51,-0.08 -1.2,-0.16 -2.09,0.53c-1.25,0.98 -1.43,2.52 -0.95,3.94c0.5,1.47 1.29,2.54 3.01,3.48Z" style="fill-rule:nonzero;"/><path d="M99.09,127.05c-0.05,0.27 -0.08,0.63 -0.11,1.08c0.4,-0.26 0.95,-0.48 1.7,-0.47c0.22,0 0.43,0.02 0.63,0.06c1.35,0.27 2.35,1.45 2.68,3.15c0.35,1.81 0.09,3.38 -0.87,5.24c-0.39,0.78 -1.49,2.73 -3.02,4.12l-0.3,0.26l-0.36,-0.1c-1.9,-0.54 -3.58,-1.81 -4.22,-2.33c-1.53,-1.25 -2.32,-2.56 -2.64,-4.38c-0.35,-1.98 0.37,-3.7 1.88,-4.49c0.59,-0.31 1.16,-0.43 1.72,-0.37c-0.18,-0.4 -0.34,-0.71 -0.47,-0.93l-0.68,-1.12l1.15,-0.27c0.76,-0.18 0.93,-0.23 0.96,-0.24c0.09,-0.02 0.27,-0.06 1.02,-0.25l1.16,-0.3l-0.23,1.34Z" style="fill:#fff;fill-rule:nonzero;"/><path d="M95.67,137.33c1.02,0.84 2.51,1.78 3.95,2.19c1.17,-1.05 2.2,-2.61 2.84,-3.86c0.92,-1.8 1.06,-3.13 0.78,-4.59c-0.28,-1.41 -1.13,-2.51 -2.56,-2.52c-1.02,-0.01 -1.53,0.48 -1.9,0.86c-0.34,0.36 -0.52,0.92 -0.61,1.32c-0.01,-1.13 0,-2.9 0.16,-3.85c-0.88,0.22 -1,0.25 -1,0.25c0,0 -0.11,0.03 -0.99,0.24c0.48,0.79 1.12,2.4 1.5,3.44c-0.22,-0.32 -0.58,-0.75 -1.02,-0.91c-0.48,-0.18 -1.11,-0.38 -2.04,0.1c-1.31,0.68 -1.69,2.09 -1.45,3.51c0.26,1.47 0.86,2.62 2.34,3.82Z" style="fill-rule:nonzero;"/><path d="M97.94,111.37c-0.06,0.24 -0.11,0.58 -0.16,0.99c0.39,-0.21 0.91,-0.37 1.61,-0.31c0.2,0.02 0.39,0.06 0.57,0.11c1.25,0.36 2.11,1.54 2.32,3.15c0.22,1.71 -0.12,3.15 -1.12,4.8c-0.42,0.69 -1.55,2.42 -3.06,3.59l-0.29,0.23l-0.34,-0.13c-1.72,-0.65 -3.22,-1.96 -3.78,-2.5c-1.35,-1.28 -2.01,-2.56 -2.2,-4.28c-0.21,-1.87 0.57,-3.42 2.02,-4.03c0.57,-0.24 1.1,-0.31 1.62,-0.21c-0.14,-0.38 -0.27,-0.69 -0.39,-0.91l-0.56,-1.09l1.09,-0.16c0.71,-0.11 0.88,-0.14 0.9,-0.14c0.09,-0.02 0.25,-0.04 0.97,-0.16l1.09,-0.18l-0.29,1.23Z" style="fill:#fff;fill-rule:nonzero;"/><path d="M94.15,120.66c0.9,0.86 2.23,1.85 3.55,2.35c1.15,-0.89 2.19,-2.26 2.87,-3.37c0.96,-1.6 1.17,-2.82 0.99,-4.21c-0.17,-1.34 -0.89,-2.43 -2.23,-2.55c-0.94,-0.08 -1.45,0.33 -1.81,0.66c-0.35,0.3 -0.54,0.81 -0.65,1.17c0.05,-1.05 0.17,-2.69 0.38,-3.56c-0.84,0.13 -0.95,0.14 -0.95,0.14c0,0 -0.1,0.03 -0.94,0.16c0.41,0.77 0.9,2.32 1.2,3.31c-0.19,-0.31 -0.5,-0.74 -0.9,-0.93c-0.43,-0.2 -1.01,-0.44 -1.9,-0.06c-1.26,0.53 -1.7,1.81 -1.55,3.15c0.15,1.39 0.64,2.5 1.94,3.74Z" style="fill-rule:nonzero;"/><path d="M95.21,106.53c0.06,-0.2 0.12,-0.49 0.19,-0.84c-0.35,0.16 -0.8,0.26 -1.4,0.16c-0.18,-0.03 -0.34,-0.07 -0.5,-0.13c-1.05,-0.39 -1.74,-1.46 -1.83,-2.86c-0.11,-1.49 0.25,-2.7 1.19,-4.07c0.39,-0.56 1.45,-1.98 2.81,-2.89l0.26,-0.17l0.28,0.12c1.46,0.68 2.68,1.9 3.14,2.4c1.1,1.19 1.61,2.34 1.69,3.83c0.09,1.63 -0.66,2.91 -1.94,3.34c-0.5,0.17 -0.96,0.2 -1.41,0.07c0.11,0.35 0.21,0.62 0.3,0.81l0.43,0.98l-0.95,0.07c-0.61,0.05 -0.76,0.06 -0.78,0.07c-0.08,0 -0.22,0.01 -0.84,0.07l-0.95,0.08l0.31,-1.04Z" style="fill:#fff;fill-rule:nonzero;"/><path d="M98.93,98.78c-0.74,-0.81 -1.84,-1.75 -2.95,-2.26c-1.03,0.69 -2,1.8 -2.63,2.72c-0.91,1.31 -1.15,2.36 -1.06,3.56c0.08,1.16 0.65,2.15 1.79,2.34c0.82,0.13 1.27,-0.19 1.6,-0.45c0.31,-0.24 0.5,-0.66 0.61,-0.97c-0.09,0.9 -0.27,2.31 -0.49,3.05c0.72,-0.07 0.81,-0.07 0.81,-0.07c0,0 0.1,-0.01 0.82,-0.07c-0.31,-0.69 -0.66,-2.06 -0.87,-2.93c0.15,0.28 0.4,0.67 0.73,0.86c0.37,0.2 0.85,0.44 1.64,0.17c1.11,-0.37 1.55,-1.44 1.49,-2.61c-0.07,-1.2 -0.43,-2.19 -1.49,-3.34Z" style="fill-rule:nonzero;"/><path d="M94.98,93.61c0.07,-0.17 0.15,-0.42 0.24,-0.73c-0.32,0.11 -0.73,0.15 -1.26,0c-0.15,-0.05 -0.29,-0.1 -0.42,-0.17c-0.9,-0.46 -1.43,-1.48 -1.4,-2.73c0.02,-1.33 0.44,-2.37 1.38,-3.48c0.4,-0.46 1.45,-1.6 2.72,-2.26l0.25,-0.13l0.24,0.14c1.24,0.76 2.22,1.98 2.59,2.46c0.88,1.18 1.24,2.25 1.19,3.58c-0.05,1.45 -0.81,2.51 -1.99,2.76c-0.45,0.09 -0.86,0.07 -1.25,-0.09c0.07,0.32 0.13,0.57 0.19,0.75l0.31,0.91l-0.85,-0.04c-0.54,-0.02 -0.67,-0.03 -0.7,-0.02c-0.07,-0.01 -0.19,-0.02 -0.75,-0.03l-0.84,-0.03l0.35,-0.89Z" style="fill:#fff;fill-rule:nonzero;"/><path d="M98.9,87.13c-0.59,-0.78 -1.49,-1.74 -2.43,-2.31c-0.97,0.5 -1.92,1.39 -2.55,2.13c-0.91,1.07 -1.21,1.97 -1.23,3.04c-0.02,1.04 0.41,1.98 1.41,2.27c0.71,0.2 1.13,-0.03 1.45,-0.23c0.29,-0.18 0.5,-0.53 0.62,-0.79c-0.16,0.79 -0.43,2.02 -0.68,2.64c0.64,0.03 0.73,0.03 0.73,0.03c0,0 0.08,0 0.73,0.03c-0.22,-0.65 -0.42,-1.89 -0.54,-2.69c0.11,0.26 0.3,0.64 0.58,0.84c0.3,0.21 0.72,0.48 1.43,0.33c1.02,-0.22 1.5,-1.12 1.53,-2.16c0.04,-1.07 -0.2,-1.99 -1.05,-3.13Z" style="fill-rule:nonzero;"/><path d="M95.72,81.41c0.06,-0.14 0.13,-0.35 0.2,-0.61c-0.27,0.09 -0.61,0.12 -1.05,0c-0.12,-0.04 -0.24,-0.09 -0.35,-0.14c-0.75,-0.38 -1.19,-1.23 -1.17,-2.28c0.02,-1.1 0.37,-1.97 1.16,-2.89c0.32,-0.39 1.2,-1.34 2.26,-1.89l0.21,-0.1l0.2,0.11c1.03,0.63 1.85,1.65 2.15,2.05c0.74,0.98 1.03,1.88 0.99,2.98c-0.04,1.21 -0.67,2.09 -1.65,2.3c-0.38,0.08 -0.72,0.06 -1.04,-0.07c0.05,0.26 0.11,0.47 0.16,0.62l0.25,0.76l-0.7,-0.03c-0.46,-0.02 -0.57,-0.03 -0.59,-0.02c-0.05,-0.01 -0.16,-0.01 -0.62,-0.03l-0.71,-0.02l0.3,-0.74Z" style="fill:#fff;fill-rule:nonzero;"/><path d="M98.98,76.01c-0.49,-0.65 -1.23,-1.45 -2.02,-1.92c-0.81,0.42 -1.6,1.15 -2.13,1.77c-0.75,0.89 -1,1.64 -1.02,2.54c-0.01,0.86 0.34,1.64 1.17,1.88c0.59,0.17 0.95,-0.03 1.21,-0.19c0.25,-0.15 0.42,-0.44 0.52,-0.66c-0.13,0.66 -0.36,1.68 -0.57,2.21c0.54,0.01 0.61,0.02 0.61,0.02c0,0 0.07,0 0.61,0.02c-0.18,-0.54 -0.35,-1.57 -0.45,-2.24c0.09,0.22 0.25,0.53 0.48,0.7c0.26,0.18 0.6,0.4 1.2,0.27c0.84,-0.17 1.24,-0.93 1.27,-1.79c0.03,-0.9 -0.17,-1.66 -0.88,-2.61Z" style="fill-rule:nonzero;"/><path d="M96.55,70.94c0.06,-0.12 0.13,-0.3 0.21,-0.51c-0.24,0.05 -0.54,0.05 -0.91,-0.09c-0.11,-0.05 -0.21,-0.09 -0.31,-0.16c-0.63,-0.39 -0.96,-1.17 -0.88,-2.08c0.09,-0.96 0.44,-1.69 1.19,-2.43c0.31,-0.31 1.13,-1.07 2.09,-1.47l0.19,-0.08l0.16,0.13c0.87,0.63 1.52,1.58 1.77,1.96c0.58,0.92 0.78,1.72 0.68,2.68c-0.11,1.06 -0.72,1.77 -1.58,1.88c-0.34,0.04 -0.64,-0.01 -0.91,-0.15c0.03,0.23 0.07,0.42 0.1,0.56l0.18,0.68l-0.61,-0.09c-0.4,-0.05 -0.5,-0.06 -0.51,-0.06c-0.05,-0.01 -0.14,-0.02 -0.55,-0.07l-0.61,-0.08l0.3,-0.62Z" style="fill:#fff;fill-rule:nonzero;"/><path d="M99.73,66.49c-0.39,-0.62 -1,-1.37 -1.65,-1.85c-0.74,0.3 -1.47,0.88 -1.97,1.38c-0.71,0.72 -0.98,1.35 -1.04,2.13c-0.07,0.76 0.19,1.47 0.91,1.74c0.5,0.2 0.82,0.06 1.06,-0.06c0.22,-0.11 0.39,-0.36 0.5,-0.54c-0.16,0.56 -0.42,1.44 -0.64,1.88c0.47,0.06 0.53,0.07 0.53,0.07c0,0 0.06,0.01 0.53,0.07c-0.12,-0.48 -0.21,-1.41 -0.25,-2c0.07,0.21 0.18,0.49 0.38,0.66c0.21,0.17 0.49,0.39 1.03,0.33c0.74,-0.08 1.14,-0.71 1.22,-1.46c0.08,-0.78 -0.05,-1.47 -0.61,-2.35Z" style="fill-rule:nonzero;"/><path d="M60.69,62.03c-2.48,0.29 -3.2,0.64 -4.77,1.01c2.31,2.56 10.83,5.46 17.89,5.2c10.56,-0.39 17.55,-3.37 21.36,-7.13c-6.67,-1.68 -34.48,0.92 -34.48,0.92Z" style="fill:#fff;fill-rule:nonzero;"/><path d="M60.69,62.03c-2.48,0.29 -3.2,0.64 -4.77,1.01c2.31,2.56 10.83,5.46 17.89,5.2c10.56,-0.39 17.55,-3.37 21.36,-7.13c-6.67,-1.68 -34.48,0.92 -34.48,0.92Z" style="fill:none;stroke:#000;stroke-width:0.5px;"/><path d="M59.13,62.17c4.19,2.54 9.82,3.46 14.94,3.46c5.12,0 14.02,-2.25 18.01,-4.95c0,0 -7.45,-1.15 -14.7,-0.96c-7.59,0.19 -13.76,1.15 -18.25,2.45Z" style="fill-rule:nonzero;"/><path d="M59.13,62.17c4.19,2.54 9.82,3.46 14.94,3.46c5.12,0 14.02,-2.25 18.01,-4.95c0,0 -7.45,-1.15 -14.7,-0.96c-7.59,0.19 -13.76,1.15 -18.25,2.45Z" style="fill:none;stroke:#000;stroke-width:0.5px;"/><path d="M88.98,164.39c2.48,-0.29 3.2,-0.64 4.77,-1.01c-2.31,-2.56 -10.84,-5.46 -17.9,-5.2c-10.56,0.39 -17.54,3.37 -21.35,7.12c6.67,1.69 34.48,-0.91 34.48,-0.91Z" style="fill:#fff;fill-rule:nonzero;"/><path d="M88.98,164.39c2.48,-0.29 3.2,-0.64 4.77,-1.01c-2.31,-2.56 -10.84,-5.46 -17.9,-5.2c-10.56,0.39 -17.54,3.37 -21.35,7.12c6.67,1.69 34.48,-0.91 34.48,-0.91Z" style="fill:none;stroke:#000;stroke-width:0.5px;"/><path d="M90.54,164.25c-4.2,-2.54 -9.82,-3.46 -14.94,-3.46c-5.12,0 -14.02,2.25 -18.02,4.95c0,0 7.46,1.15 14.71,0.96c7.58,-0.19 13.75,-1.15 18.25,-2.45Z" style="fill-rule:nonzero;"/><path d="M90.54,164.25c-4.2,-2.54 -9.82,-3.46 -14.94,-3.46c-5.12,0 -14.02,2.25 -18.02,4.95c0,0 7.46,1.15 14.71,0.96c7.58,-0.19 13.75,-1.15 18.25,-2.45Z" style="fill:none;stroke:#000;stroke-width:0.5px;"/><path d="M24.51,201.16l2.78,3.12l0,0.06l0.03,-0.03l0.03,0.03l0,-0.06l2.77,-3.12l0,-57.92l-2.77,-0.42l0,-0.01l-0.03,0l-0.03,0l0,0.01l-2.78,0.42l0,57.92Z" style="fill:#fff;fill-rule:nonzero;"/><path d="M24.51,201.16l2.78,3.12l0,0.06l0.03,-0.03l0.03,0.03l0,-0.06l2.77,-3.12l0,-57.92l-2.77,-0.42l0,-0.01l-0.03,0l-0.03,0l0,0.01l-2.78,0.42l0,57.92Z" style="fill:none;stroke:#000;stroke-width:0.5px;stroke-linejoin:round;"/><path d="M28.26,143.14c0.09,1.06 0.46,4.48 0.38,9.35c-0.1,5.58 -1.84,9.43 -1.88,14.1c-0.04,4.19 1.33,9.29 1.34,13.87c0,3.51 -0.38,8.76 -0.75,12.32c0,-3.03 0.29,-8.71 0.2,-12.42c-0.07,-3.46 -1.54,-8.9 -1.54,-13.67c0,-5.97 1.67,-10.26 1.59,-14.25c-0.09,-3.95 -0.38,-7.76 -0.63,-9.2c0.42,0.1 1.29,-0.1 1.29,-0.1Z" style="fill:#c80000;fill-rule:nonzero;"/><path d="M28.26,143.14c0.09,1.06 0.46,4.48 0.38,9.35c-0.1,5.58 -1.84,9.43 -1.88,14.1c-0.04,4.19 1.33,9.29 1.34,13.87c0,3.51 -0.38,8.76 -0.75,12.32c0,-3.03 0.29,-8.71 0.2,-12.42c-0.07,-3.46 -1.54,-8.9 -1.54,-13.67c0,-5.97 1.67,-10.26 1.59,-14.25c-0.09,-3.95 -0.38,-7.76 -0.63,-9.2c0.42,0.1 1.29,-0.1 1.29,-0.1Z" style="fill:none;stroke:#000;stroke-width:0.25px;stroke-linejoin:round;"/><path d="M25.86,129.26c0,-1.92 1.35,-3.48 3.02,-3.48c1.66,0 3.01,1.56 3.01,3.48l0,5.6c0,1.92 -1.35,3.48 -3.01,3.48c-1.67,0 -3.02,-1.56 -3.02,-3.48l0,-5.6Z" style="fill:#fff;fill-rule:nonzero;"/><path d="M25.86,129.26c0,-1.92 1.35,-3.48 3.02,-3.48c1.66,0 3.01,1.56 3.01,3.48l0,5.6c0,1.92 -1.35,3.48 -3.01,3.48c-1.67,0 -3.02,-1.56 -3.02,-3.48l0,-5.6Z" style="fill:none;stroke:#000;stroke-width:0.5px;stroke-linejoin:round;"/><path d="M27.11,144.14c4.09,0 7.36,1.99 8.23,-3.31c-3.02,1.99 -6.64,2.06 -6.35,-3.24c0.32,-6.05 0.63,-17.99 -1.88,-17.99c-2.52,0 -2.21,11.94 -1.89,17.99c0.29,5.3 -3.33,5.23 -6.34,3.24c0.86,5.3 4.13,3.31 8.23,3.31Z" style="fill:#fff;fill-rule:nonzero;"/><path d="M27.11,144.14c4.09,0 7.36,1.99 8.23,-3.31c-3.02,1.99 -6.64,2.06 -6.35,-3.24c0.32,-6.05 0.63,-17.99 -1.88,-17.99c-2.52,0 -2.21,11.94 -1.89,17.99c0.29,5.3 -3.33,5.23 -6.34,3.24c0.86,5.3 4.13,3.31 8.23,3.31Z" style="fill:none;stroke:#000;stroke-width:0.5px;"/><path d="M21.67,137.72c0,-0.9 0.62,-1.62 1.4,-1.62l2.9,0c0.78,0 1.4,0.72 1.4,1.62c0,0.89 -0.62,1.61 -1.4,1.61l-2.9,0c-0.78,0 -1.4,-0.72 -1.4,-1.61Z" style="fill:#fff;fill-rule:nonzero;"/><path d="M21.67,137.72c0,-0.9 0.62,-1.62 1.4,-1.62l2.9,0c0.78,0 1.4,0.72 1.4,1.62c0,0.89 -0.62,1.61 -1.4,1.61l-2.9,0c-0.78,0 -1.4,-0.72 -1.4,-1.61Z" style="fill:none;stroke:#000;stroke-width:0.5px;stroke-linejoin:round;"/><path d="M21.67,134.48c0,-0.89 0.62,-1.61 1.4,-1.61l2.9,0c0.78,0 1.4,0.72 1.4,1.61c0,0.9 -0.62,1.62 -1.4,1.62l-2.9,0c-0.78,0 -1.4,-0.72 -1.4,-1.62Z" style="fill:#fff;fill-rule:nonzero;"/><path d="M21.67,134.48c0,-0.89 0.62,-1.61 1.4,-1.61l2.9,0c0.78,0 1.4,0.72 1.4,1.61c0,0.9 -0.62,1.62 -1.4,1.62l-2.9,0c-0.78,0 -1.4,-0.72 -1.4,-1.62Z" style="fill:none;stroke:#000;stroke-width:0.5px;stroke-linejoin:round;"/><path d="M21.56,131.37c0,-0.89 0.62,-1.61 1.4,-1.61l2.9,0c0.78,0 1.4,0.72 1.4,1.61c0,0.9 -0.62,1.62 -1.4,1.62l-2.9,0c-0.78,0 -1.4,-0.72 -1.4,-1.62Z" style="fill:#fff;fill-rule:nonzero;"/><path d="M21.56,131.37c0,-0.89 0.62,-1.61 1.4,-1.61l2.9,0c0.78,0 1.4,0.72 1.4,1.61c0,0.9 -0.62,1.62 -1.4,1.62l-2.9,0c-0.78,0 -1.4,-0.72 -1.4,-1.62Z" style="fill:none;stroke:#000;stroke-width:0.5px;stroke-linejoin:round;"/><path d="M21.67,128.39c0,-0.89 0.62,-1.62 1.4,-1.62l2.9,0c0.78,0 1.4,0.73 1.4,1.62c0,0.89 -0.62,1.62 -1.4,1.62l-2.9,0c-0.78,0 -1.4,-0.73 -1.4,-1.62Z" style="fill:#fff;fill-rule:nonzero;"/><path d="M21.67,128.39c0,-0.89 0.62,-1.62 1.4,-1.62l2.9,0c0.78,0 1.4,0.73 1.4,1.62c0,0.89 -0.62,1.62 -1.4,1.62l-2.9,0c-0.78,0 -1.4,-0.73 -1.4,-1.62Z" style="fill:none;stroke:#000;stroke-width:0.5px;stroke-linejoin:round;"/><path d="M27.32,140.87c-0.28,-0.78 -0.1,-1.6 0.41,-1.85l1.92,-0.93c0.51,-0.25 1.15,0.18 1.43,0.95c0.28,0.78 0.1,1.61 -0.41,1.85l-1.91,0.93c-0.51,0.26 -1.16,-0.17 -1.44,-0.95Z" style="fill:#fff;fill-rule:nonzero;"/><path d="M27.32,140.87c-0.28,-0.78 -0.1,-1.6 0.41,-1.85l1.92,-0.93c0.51,-0.25 1.15,0.18 1.43,0.95c0.28,0.78 0.1,1.61 -0.41,1.85l-1.91,0.93c-0.51,0.26 -1.16,-0.17 -1.44,-0.95Z" style="fill:none;stroke:#000;stroke-width:0.5px;stroke-linejoin:round;"/><path d="M125.17,25.22l-2.78,-3.11l0,-0.07l-0.03,0.03l-0.03,-0.03l0,0.07l-2.77,3.11l0,57.92l2.77,0.42l0,0.01l0.06,0l0,-0.01l2.78,-0.42l0,-57.92Z" style="fill:#fff;fill-rule:nonzero;"/><path d="M125.17,25.22l-2.78,-3.11l0,-0.07l-0.03,0.03l-0.03,-0.03l0,0.07l-2.77,3.11l0,57.92l2.77,0.42l0,0.01l0.06,0l0,-0.01l2.78,-0.42l0,-57.92Z" style="fill:none;stroke:#000;stroke-width:0.5px;stroke-linejoin:round;"/><path d="M121.42,83.24c-0.09,-1.06 -0.46,-4.48 -0.38,-9.34c0.1,-5.59 1.84,-9.44 1.88,-14.11c0.04,-4.19 -1.34,-9.29 -1.34,-13.87c0,-3.51 0.38,-8.76 0.75,-12.32c0,3.03 -0.29,8.71 -0.2,12.42c0.07,3.46 1.54,8.91 1.54,13.67c0,5.97 -1.67,10.26 -1.59,14.25c0.09,3.95 0.38,7.76 0.63,9.2c-0.42,-0.1 -1.29,0.1 -1.29,0.1Z" style="fill:#c80000;fill-rule:nonzero;"/><path d="M121.42,83.24c-0.09,-1.06 -0.46,-4.48 -0.38,-9.34c0.1,-5.59 1.84,-9.44 1.88,-14.11c0.04,-4.19 -1.34,-9.29 -1.34,-13.87c0,-3.51 0.38,-8.76 0.75,-12.32c0,3.03 -0.29,8.71 -0.2,12.42c0.07,3.46 1.54,8.91 1.54,13.67c0,5.97 -1.67,10.26 -1.59,14.25c0.09,3.95 0.38,7.76 0.63,9.2c-0.42,-0.1 -1.29,0.1 -1.29,0.1Z" style="fill:none;stroke:#000;stroke-width:0.25px;stroke-linejoin:round;"/><path d="M123.82,97.12c0,1.92 -1.35,3.48 -3.02,3.48c-1.66,0 -3.01,-1.56 -3.01,-3.48l0,-5.6c0,-1.92 1.35,-3.48 3.01,-3.48c1.67,0 3.02,1.56 3.02,3.48l0,5.6Z" style="fill:#fff;fill-rule:nonzero;"/><path d="M123.82,97.12c0,1.92 -1.35,3.48 -3.02,3.48c-1.66,0 -3.01,-1.56 -3.01,-3.48l0,-5.6c0,-1.92 1.35,-3.48 3.01,-3.48c1.67,0 3.02,1.56 3.02,3.48l0,5.6Z" style="fill:none;stroke:#000;stroke-width:0.5px;stroke-linejoin:round;"/><path d="M122.57,82.24c-4.09,0 -7.36,-1.99 -8.23,3.31c3.02,-1.99 6.64,-2.06 6.35,3.24c-0.32,6.05 -0.63,17.99 1.88,17.99c2.52,0 2.21,-11.94 1.89,-17.99c-0.29,-5.3 3.33,-5.23 6.34,-3.24c-0.86,-5.3 -4.13,-3.31 -8.23,-3.31Z" style="fill:#fff;fill-rule:nonzero;"/><path d="M122.57,82.24c-4.09,0 -7.36,-1.99 -8.23,3.31c3.02,-1.99 6.64,-2.06 6.35,3.24c-0.32,6.05 -0.63,17.99 1.88,17.99c2.52,0 2.21,-11.94 1.89,-17.99c-0.29,-5.3 3.33,-5.23 6.34,-3.24c-0.86,-5.3 -4.13,-3.31 -8.23,-3.31Z" style="fill:none;stroke:#000;stroke-width:0.5px;"/><path d="M128.01,88.66c0,0.9 -0.62,1.62 -1.4,1.62l-2.9,0c-0.78,0 -1.4,-0.72 -1.4,-1.62c0,-0.89 0.62,-1.61 1.4,-1.61l2.9,0c0.78,0 1.4,0.72 1.4,1.61Z" style="fill:#fff;fill-rule:nonzero;"/><path d="M128.01,88.66c0,0.9 -0.62,1.62 -1.4,1.62l-2.9,0c-0.78,0 -1.4,-0.72 -1.4,-1.62c0,-0.89 0.62,-1.61 1.4,-1.61l2.9,0c0.78,0 1.4,0.72 1.4,1.61Z" style="fill:none;stroke:#000;stroke-width:0.5px;stroke-linejoin:round;"/><path d="M128.01,91.9c0,0.89 -0.62,1.61 -1.4,1.61l-2.9,0c-0.78,0 -1.4,-0.72 -1.4,-1.61c0,-0.9 0.62,-1.62 1.4,-1.62l2.9,0c0.78,0 1.4,0.72 1.4,1.62Z" style="fill:#fff;fill-rule:nonzero;"/><path d="M128.01,91.9c0,0.89 -0.62,1.61 -1.4,1.61l-2.9,0c-0.78,0 -1.4,-0.72 -1.4,-1.61c0,-0.9 0.62,-1.62 1.4,-1.62l2.9,0c0.78,0 1.4,0.72 1.4,1.62Z" style="fill:none;stroke:#000;stroke-width:0.5px;stroke-linejoin:round;"/><path d="M128.12,95.01c0,0.89 -0.62,1.61 -1.4,1.61l-2.9,0c-0.78,0 -1.4,-0.72 -1.4,-1.61c0,-0.9 0.62,-1.62 1.4,-1.62l2.9,0c0.78,0 1.4,0.72 1.4,1.62Z" style="fill:#fff;fill-rule:nonzero;"/><path d="M128.12,95.01c0,0.89 -0.62,1.61 -1.4,1.61l-2.9,0c-0.78,0 -1.4,-0.72 -1.4,-1.61c0,-0.9 0.62,-1.62 1.4,-1.62l2.9,0c0.78,0 1.4,0.72 1.4,1.62Z" style="fill:none;stroke:#000;stroke-width:0.5px;stroke-linejoin:round;"/><path d="M128.01,97.99c0,0.89 -0.62,1.62 -1.4,1.62l-2.9,0c-0.78,0 -1.4,-0.73 -1.4,-1.62c0,-0.89 0.62,-1.62 1.4,-1.62l2.9,0c0.78,0 1.4,0.73 1.4,1.62Z" style="fill:#fff;fill-rule:nonzero;"/><path d="M128.01,97.99c0,0.89 -0.62,1.62 -1.4,1.62l-2.9,0c-0.78,0 -1.4,-0.73 -1.4,-1.62c0,-0.89 0.62,-1.62 1.4,-1.62l2.9,0c0.78,0 1.4,0.73 1.4,1.62Z" style="fill:none;stroke:#000;stroke-width:0.5px;stroke-linejoin:round;"/><path d="M122.36,85.51c0.28,0.78 0.1,1.6 -0.41,1.85l-1.92,0.93c-0.51,0.25 -1.15,-0.18 -1.43,-0.95c-0.28,-0.78 -0.1,-1.6 0.41,-1.85l1.91,-0.93c0.51,-0.26 1.16,0.17 1.44,0.95Z" style="fill:#fff;fill-rule:nonzero;"/><path d="M122.36,85.51c0.28,0.78 0.1,1.6 -0.41,1.85l-1.92,0.93c-0.51,0.25 -1.15,-0.18 -1.43,-0.95c-0.28,-0.78 -0.1,-1.6 0.41,-1.85l1.91,-0.93c0.51,-0.26 1.16,0.17 1.44,0.95Z" style="fill:none;stroke:#000;stroke-width:0.5px;stroke-linejoin:round;"/><path d="M60.46,61.18c1.56,0.53 9.01,0.17 9.68,0.08c0.7,-0.1 2.94,-0.55 3.61,-1.97c-0.82,-0.14 -4.73,0.61 -6.03,0.72c-1.91,0.16 -6.89,0.99 -7.26,1.17Z" style="fill:#fff;fill-rule:nonzero;"/><path d="M58.65,21.18c0,3.63 -2.56,25.6 -5.43,29.69c-2.61,3.73 -1.28,7.13 0.31,9c0.96,1.13 1.81,0.94 2.48,0.78" style="fill:none;stroke:#000;stroke-width:0.5px;stroke-linecap:round;"/><path d="M60.41,21.18c0,3.63 -2.56,25.6 -5.43,29.69c-2.61,3.73 -1.27,7.09 0.31,9c0.93,1.13 2.16,1.56 2.79,1.02" style="fill:none;stroke:#000;stroke-width:0.5px;stroke-linecap:round;"/><path d="M62.16,21.18c0,3.63 -2.55,25.6 -5.42,29.69c-2.62,3.73 -1.28,7.11 0.31,9c1.11,1.33 2,1.27 2.8,1.12" style="fill:none;stroke:#000;stroke-width:0.5px;stroke-linecap:round;"/><path d="M63.92,21.18c0,3.63 -2.55,25.6 -5.42,29.69c-2.62,3.73 -1.33,7.21 0.3,9c2.02,2.22 2.87,1.6 3.26,1.38" style="fill:none;stroke:#000;stroke-width:0.5px;stroke-linecap:round;"/><path d="M65.68,21.18c0,3.63 -2.56,25.6 -5.43,29.69c-2.61,3.73 -1.28,7.16 0.31,9c1.64,1.9 2.83,1.78 3.3,1.55" style="fill:none;stroke:#000;stroke-width:0.5px;stroke-linecap:round;"/><path d="M67.44,21.18c0,3.63 -2.56,25.6 -5.43,29.69c-2.61,3.73 -1.28,7.16 0.31,9c1.77,2.05 2.84,1.73 3.56,1.58" style="fill:none;stroke:#000;stroke-width:0.5px;stroke-linecap:round;"/><path d="M69.2,21.18c0,3.63 -2.56,25.6 -5.43,29.69c-2.61,3.73 -1.33,7.23 0.31,9c1.41,1.52 2.3,1.94 3.06,1.55" style="fill:none;stroke:#000;stroke-width:0.5px;stroke-linecap:round;"/><path d="M70.96,21.18c0,3.63 -2.56,25.6 -5.43,29.69c-2.61,3.73 -1.25,7.11 0.31,9c1.21,1.47 2.09,2.05 3.19,1.49" style="fill:none;stroke:#000;stroke-width:0.5px;stroke-linecap:round;"/><path d="M72.72,21.18c0,3.63 -2.56,25.6 -5.43,29.69c-2.62,3.73 -1.29,7.16 0.31,9c1.64,1.9 2.54,1.64 3.22,1.17" style="fill:none;stroke:#000;stroke-width:0.5px;stroke-linecap:round;"/><path d="M74.47,21.18c0,3.63 -2.55,25.6 -5.42,29.69c-2.62,3.73 -1.33,7.21 0.31,9c2.01,2.22 5.03,0.76 4.74,-2.53c-0.12,-1.4 -0.87,-2.96 -2.42,-2.26c-1.55,0.7 -2.22,2.4 -1.24,3.51c1.86,2.1 4.16,-2.34 0.87,-1.17c-0.66,0.24 1.13,-0.84 1.55,0.08c0.25,0.55 0.02,1.46 -0.81,1.64c-0.74,0.15 -2,0.05 -2.48,-1.33c-0.69,-1.95 -0.75,-3.82 0.68,-5.84c1.49,-2.11 2.3,-7.1 3.42,-12.08c1.51,-6.77 2.3,-16.84 2.3,-18.63c0,-1.79 -1.5,-0.08 -1.5,-0.08Z" style="fill:none;stroke:#000;stroke-width:0.5px;stroke-linecap:round;"/><path d="M97.25,22.17c2,12.75 1.38,20.87 1.63,29.75c0.05,2.03 4.25,2.25 3.12,6c-0.82,2.73 -2.75,2.87 -3.75,2.5" style="fill:none;stroke:#000;stroke-width:0.5px;"/><path d="M89.22,165.2c-1.56,-0.52 -9.01,-0.17 -9.68,-0.08c-0.7,0.1 -2.94,0.55 -3.61,1.97c0.82,0.14 4.73,-0.61 6.03,-0.72c1.91,-0.16 6.89,-0.99 7.26,-1.17Z" style="fill:#fff;fill-rule:nonzero;"/><path d="M91.03,205.2c0,-3.62 2.56,-25.6 5.43,-29.69c2.61,-3.73 1.28,-7.12 -0.31,-9c-0.96,-1.13 -1.81,-0.94 -2.48,-0.78" style="fill:none;stroke:#000;stroke-width:0.5px;stroke-linecap:round;"/><path d="M89.27,205.2c0,-3.62 2.56,-25.6 5.43,-29.69c2.61,-3.73 1.26,-7.09 -0.31,-9c-0.93,-1.13 -2.16,-1.55 -2.79,-1.01" style="fill:none;stroke:#000;stroke-width:0.5px;stroke-linecap:round;"/><path d="M87.52,205.2c0,-3.62 2.55,-25.6 5.42,-29.69c2.62,-3.73 1.28,-7.11 -0.31,-9c-1.11,-1.33 -2,-1.27 -2.8,-1.11" style="fill:none;stroke:#000;stroke-width:0.5px;stroke-linecap:round;"/><path d="M85.76,205.2c0,-3.62 2.55,-25.6 5.42,-29.69c2.62,-3.73 1.33,-7.2 -0.3,-9c-2.02,-2.22 -2.87,-1.6 -3.26,-1.38" style="fill:none;stroke:#000;stroke-width:0.5px;stroke-linecap:round;"/><path d="M84,205.2c0,-3.62 2.56,-25.6 5.42,-29.69c2.62,-3.73 1.29,-7.15 -0.3,-9c-1.64,-1.9 -2.83,-1.78 -3.3,-1.55" style="fill:none;stroke:#000;stroke-width:0.5px;stroke-linecap:round;"/><path d="M82.24,205.2c0,-3.62 2.56,-25.6 5.43,-29.69c2.61,-3.73 1.28,-7.15 -0.31,-9c-1.77,-2.05 -2.84,-1.73 -3.56,-1.58" style="fill:none;stroke:#000;stroke-width:0.5px;stroke-linecap:round;"/><path d="M80.48,205.2c0,-3.62 2.56,-25.6 5.43,-29.69c2.61,-3.73 1.33,-7.23 -0.31,-9c-1.41,-1.52 -2.3,-1.94 -3.06,-1.55" style="fill:none;stroke:#000;stroke-width:0.5px;stroke-linecap:round;"/><path d="M78.72,205.2c0,-3.62 2.56,-25.6 5.43,-29.69c2.61,-3.73 1.25,-7.11 -0.31,-9c-1.21,-1.47 -2.09,-2.05 -3.19,-1.49" style="fill:none;stroke:#000;stroke-width:0.5px;stroke-linecap:round;"/><path d="M76.96,205.2c0,-3.62 2.56,-25.6 5.43,-29.69c2.61,-3.73 1.29,-7.15 -0.31,-9c-1.64,-1.9 -2.54,-1.64 -3.22,-1.17" style="fill:none;stroke:#000;stroke-width:0.5px;stroke-linecap:round;"/><path d="M75.21,205.2c0,-3.62 2.55,-25.6 5.42,-29.69c2.62,-3.73 1.33,-7.2 -0.31,-9c-2.01,-2.22 -5.03,-0.76 -4.74,2.53c0.12,1.4 0.87,2.96 2.42,2.26c1.55,-0.7 2.22,-2.4 1.24,-3.51c-1.86,-2.1 -4.16,2.34 -0.87,1.17c0.66,-0.24 -1.13,0.84 -1.55,-0.08c-0.25,-0.55 -0.02,-1.46 0.81,-1.63c0.74,-0.16 2,-0.06 2.48,1.32c0.68,1.95 0.75,3.83 -0.68,5.84c-1.49,2.11 -2.3,7.1 -3.42,12.08c-1.51,6.77 -2.3,16.84 -2.3,18.63c0,1.79 1.5,0.08 1.5,0.08Z" style="fill:none;stroke:#000;stroke-width:0.5px;stroke-linecap:round;"/><path d="M52.43,204.22c-2,-12.75 -1.38,-20.88 -1.63,-29.75c-0.05,-2.04 -4.25,-2.25 -3.12,-6c0.82,-2.73 2.75,-2.88 3.75,-2.5" style="fill:none;stroke:#000;stroke-width:0.5px;"/><path d="M83.17,35.06c-4,0.47 -3.66,-0.63 -6.81,-1.41c2.04,-1.09 3.97,-3.75 7.83,-1.09" style="fill:none;stroke:#000;stroke-width:0.5px;stroke-linecap:round;stroke-linejoin:round;"/><path d="M79.28,33.1c0.13,0.98 0.75,1.77 1.68,1.77c0.92,0 1.49,-0.81 1.67,-1.77c0.26,-1.27 -0.72,-1.52 -1.59,-1.56c-1.13,-0.05 -1.95,0.13 -1.76,1.56Z" style="fill:none;stroke:#000;stroke-width:0.5px;"/><path d="M81.79,32.92c0,0.48 -0.32,0.86 -0.72,0.86c-0.4,0 -0.72,-0.38 -0.72,-0.86c0,-0.47 0.32,-0.86 0.72,-0.86c0.4,0 0.72,0.39 0.72,0.86Z" style="fill-rule:nonzero;"/><path d="M94.7,35.39c-4,0.47 -5.68,-0.8 -5.82,-1.74c-0.11,-0.78 2.98,-3.41 6.84,-0.76" style="fill:none;stroke:#000;stroke-width:0.5px;stroke-linecap:round;stroke-linejoin:round;"/><path d="M90.81,33.44c0.13,0.97 0.75,1.77 1.68,1.77c0.92,0 1.49,-0.81 1.68,-1.77c0.25,-1.27 -0.73,-1.52 -1.6,-1.56c-1.13,-0.05 -1.95,0.13 -1.76,1.56Z" style="fill:none;stroke:#000;stroke-width:0.5px;"/><path d="M93.32,33.26c0,0.48 -0.32,0.86 -0.72,0.86c-0.4,0 -0.72,-0.38 -0.72,-0.86c0,-0.47 0.32,-0.86 0.72,-0.86c0.4,0 0.72,0.39 0.72,0.86Z" style="fill-rule:nonzero;"/><path d="M88.81,31.95c-0.51,3.9 2.22,7.03 2.39,9.38c0.1,1.4 -1.54,2.34 -3.07,2.19" style="fill:none;stroke:#000;stroke-width:0.5px;stroke-linecap:round;stroke-linejoin:round;"/><path d="M88.43,42.34c-1.36,0 -1.12,0.42 -2.3,0.74c-0.46,0.13 -1.57,0.28 -1.91,-0.89" style="fill:none;stroke:#000;stroke-width:0.25px;stroke-linecap:round;stroke-linejoin:round;"/><path d="M83.64,29.46c-0.92,0.38 -1.85,0.71 -3.67,0.36c-1.18,-0.23 -2.77,0.35 -3.71,0.84" style="fill:none;stroke:#000;stroke-width:0.5px;stroke-linecap:round;"/><path d="M88.27,29.05c0.89,0.45 1.79,0.85 3.55,0.61c1.14,-0.15 2.69,0.55 3.6,1.1" style="fill:none;stroke:#000;stroke-width:0.5px;stroke-linecap:round;"/><path d="M86.96,46.11c-0.45,-0.87 -2.7,0.04 -3.7,0.5c-1,0.46 -2.55,0.44 -3,0.23c-0.6,-0.27 -1.25,-0.59 -1,-1.69c-0.99,1.1 -0.23,2.6 1.45,2.84c1.3,0.18 2.83,0.32 4.5,-0.37c1.39,-0.57 2.08,-0.88 1.75,-1.51Z" style="fill-rule:nonzero;"/><path d="M88.11,45.97c0.45,-0.87 2.7,0.05 3.7,0.51c1,0.46 2.55,0.43 3,0.23c0.6,-0.28 1.25,-0.6 1,-1.7c1,1.1 0.23,2.61 -1.45,2.84c-1.3,0.19 -2.82,0.32 -4.5,-0.36c-1.39,-0.57 -2.08,-0.89 -1.75,-1.52Z" style="fill-rule:nonzero;"/><path d="M82.46,50.06c1.25,-0.23 1.91,-0.57 2.9,-0.92c0.65,-0.23 1.75,-0.87 2.5,0.09c0.55,-0.6 0.85,-0.51 1.9,-0.09c1.05,0.41 1.3,0.82 2.6,1.1c-1.7,-0.05 -3.8,-0.23 -5.1,-0.28c-1.15,-0.04 -2.2,-0.18 -4.8,0.1Z" style="fill:none;stroke:#000;stroke-width:0.5px;stroke-linejoin:round;"/><path d="M86.16,52.17c0.8,0.37 2.4,0.37 3.3,-0.09" style="fill:none;stroke:#000;stroke-width:0.5px;stroke-linecap:round;stroke-linejoin:round;"/><path d="M96.2,23.05c0.31,4.68 3.12,24.63 -0.32,31.18" style="fill:none;stroke:#000;stroke-width:0.5px;stroke-linecap:round;"/><path d="M66.51,191.32c4,-0.47 3.66,0.63 6.81,1.41c-2.04,1.1 -3.97,3.75 -7.83,1.1" style="fill:none;stroke:#000;stroke-width:0.5px;stroke-linecap:round;stroke-linejoin:round;"/><path d="M70.4,193.28c-0.13,-0.98 -0.75,-1.77 -1.67,-1.77c-0.93,0 -1.49,0.81 -1.68,1.77c-0.25,1.27 0.72,1.52 1.59,1.56c1.14,0.05 1.96,-0.13 1.76,-1.56Z" style="fill:none;stroke:#000;stroke-width:0.5px;"/><path d="M67.89,193.46c0,-0.47 0.32,-0.86 0.72,-0.86c0.4,0 0.73,0.39 0.73,0.86c0,0.48 -0.33,0.86 -0.73,0.86c-0.4,0 -0.72,-0.38 -0.72,-0.86Z" style="fill-rule:nonzero;"/><path d="M54.98,190.99c4,-0.47 5.69,0.8 5.82,1.74c0.12,0.78 -2.98,3.41 -6.84,0.76" style="fill:none;stroke:#000;stroke-width:0.5px;stroke-linecap:round;stroke-linejoin:round;"/><path d="M58.87,192.94c-0.13,-0.97 -0.75,-1.77 -1.67,-1.77c-0.93,0 -1.49,0.81 -1.68,1.77c-0.25,1.27 0.72,1.52 1.59,1.56c1.14,0.05 1.96,-0.13 1.76,-1.56Z" style="fill:none;stroke:#000;stroke-width:0.5px;"/><path d="M56.36,193.12c0,-0.47 0.32,-0.86 0.72,-0.86c0.4,0 0.73,0.39 0.73,0.86c0,0.48 -0.33,0.86 -0.73,0.86c-0.4,0 -0.72,-0.38 -0.72,-0.86Z" style="fill-rule:nonzero;"/><path d="M60.87,194.44c0.51,-3.91 -2.21,-7.04 -2.38,-9.38c-0.1,-1.41 1.53,-2.35 3.06,-2.19" style="fill:none;stroke:#000;stroke-width:0.5px;stroke-linecap:round;stroke-linejoin:round;"/><path d="M61.25,184.04c1.37,0 1.13,-0.42 2.3,-0.74c0.47,-0.13 1.58,-0.28 1.92,0.89" style="fill:none;stroke:#000;stroke-width:0.25px;stroke-linecap:round;stroke-linejoin:round;"/><path d="M66.05,196.92c0.91,-0.38 1.84,-0.71 3.66,-0.36c1.18,0.23 2.77,-0.35 3.72,-0.84" style="fill:none;stroke:#000;stroke-width:0.5px;stroke-linecap:round;"/><path d="M61.41,197.33c-0.89,-0.45 -1.79,-0.85 -3.55,-0.61c-1.14,0.15 -2.68,-0.55 -3.6,-1.1" style="fill:none;stroke:#000;stroke-width:0.5px;stroke-linecap:round;"/><path d="M62.72,180.27c0.45,0.87 2.7,-0.04 3.7,-0.5c1,-0.46 2.55,-0.44 3,-0.23c0.6,0.28 1.25,0.6 1,1.7c1,-1.1 0.23,-2.61 -1.45,-2.85c-1.3,-0.18 -2.82,-0.32 -4.5,0.37c-1.39,0.57 -2.07,0.88 -1.75,1.51Z" style="fill-rule:nonzero;"/><path d="M61.57,180.41c-0.45,0.87 -2.7,-0.05 -3.69,-0.5c-1.01,-0.46 -2.56,-0.44 -3,-0.23c-0.6,0.27 -1.25,0.59 -1.01,1.69c-0.99,-1.1 -0.23,-2.61 1.45,-2.84c1.31,-0.19 2.83,-0.32 4.5,0.37c1.39,0.57 2.08,0.88 1.75,1.51Z" style="fill-rule:nonzero;"/><path d="M67.22,176.33c-1.25,0.22 -1.91,0.56 -2.9,0.91c-0.65,0.23 -1.75,0.87 -2.5,-0.09c-0.55,0.6 -0.85,0.51 -1.9,0.09c-1.05,-0.41 -1.29,-0.82 -2.6,-1.1c1.7,0.05 3.8,0.23 5.1,0.28c1.15,0.04 2.2,0.18 4.8,-0.09Z" style="fill:none;stroke:#000;stroke-width:0.5px;stroke-linejoin:round;"/><path d="M63.52,174.21c-0.8,-0.37 -2.4,-0.37 -3.3,0.09" style="fill:none;stroke:#000;stroke-width:0.5px;stroke-linecap:round;stroke-linejoin:round;"/><path d="M53.49,203.33c-0.31,-4.68 -3.13,-24.63 0.31,-31.17" style="fill:none;stroke:#000;stroke-width:0.5px;stroke-linecap:round;"/><path d="M75.56,59.35c0,0 1.15,1.37 1.97,1.69c1.34,0.53 3.13,0.51 4.1,0.47c1.4,-0.06 3.56,-0.84 4.2,-1.76c0.5,-0.71 -10.27,-0.4 -10.27,-0.4Z" style="fill:#fff;fill-rule:nonzero;"/><path d="M88.88,59.51c0,0 1.12,1.25 1.94,1.58c1.35,0.52 3.13,0.5 4.1,0.46c1.4,-0.06 3.44,-0.94 4.2,-1.76c0.45,-0.48 -10.24,-0.28 -10.24,-0.28Z" style="fill:#fff;fill-rule:nonzero;"/><path d="M87.02,56.02c-0.24,2.98 -1.82,5.26 -4.81,5.55c-3.43,0.34 -5.85,-0.66 -6.64,-2.05c-0.56,-0.99 -0.62,-2.8 1.25,-3.43c1.88,-0.62 3.46,1.56 1.41,3.03" style="fill:none;stroke:#000;stroke-width:0.5px;stroke-linecap:round;"/><path d="M84.5,55.84c-0.41,2.16 -1.38,5.62 -3.95,5.79" style="fill:none;stroke:#000;stroke-width:0.5px;stroke-linecap:round;"/><path d="M81.8,55.73c0,1.55 -2.01,6.32 -4.41,5.26" style="fill:none;stroke:#000;stroke-width:0.5px;stroke-linecap:round;"/><path d="M87.96,56.02c0.23,2.98 1.81,5.26 4.8,5.55c3.43,0.34 5.85,-0.66 6.64,-2.05c0.56,-0.99 0.62,-2.8 -1.25,-3.43c-1.88,-0.62 -3.46,1.56 -1.41,3.03" style="fill:none;stroke:#000;stroke-width:0.5px;stroke-linecap:round;"/><path d="M90.47,55.84c0.41,2.16 1.35,5.67 3.93,5.85" style="fill:none;stroke:#000;stroke-width:0.5px;stroke-linecap:round;"/><path d="M93.17,55.73c0,1.55 2.02,6.28 4.42,5.23" style="fill:none;stroke:#000;stroke-width:0.5px;stroke-linecap:round;"/><path d="M74.2,167.18c0,0 -1.23,-1.52 -2.05,-1.84c-1.34,-0.53 -3.13,-0.51 -4.1,-0.47c-1.4,0.06 -3.38,1 -4.2,1.76c-0.58,0.54 10.35,0.55 10.35,0.55Z" style="fill:#fff;fill-rule:nonzero;"/><path d="M60.79,166.87c0,0 -1.11,-1.25 -1.93,-1.58c-1.35,-0.52 -3.13,-0.5 -4.1,-0.46c-1.4,0.06 -3.44,0.94 -4.2,1.76c-0.45,0.48 10.23,0.28 10.23,0.28Z" style="fill:#fff;fill-rule:nonzero;"/><path d="M62.66,170.36c0.24,-2.98 1.82,-5.26 4.8,-5.55c3.44,-0.34 5.86,0.66 6.65,2.05c0.56,0.99 0.62,2.8 -1.25,3.43c-1.88,0.62 -3.46,-1.56 -1.41,-3.02" style="fill:none;stroke:#000;stroke-width:0.5px;stroke-linecap:round;"/><path d="M65.18,170.54c0.41,-2.16 1.35,-5.62 3.93,-5.8" style="fill:none;stroke:#000;stroke-width:0.5px;stroke-linecap:round;"/><path d="M67.88,170.66c0,-1.56 2.06,-6.31 4.46,-5.26" style="fill:none;stroke:#000;stroke-width:0.5px;stroke-linecap:round;"/><path d="M61.72,170.36c-0.23,-2.98 -1.81,-5.26 -4.8,-5.55c-3.43,-0.34 -5.85,0.66 -6.64,2.05c-0.57,0.99 -0.62,2.8 1.25,3.43c1.88,0.62 3.46,-1.56 1.41,-3.02" style="fill:none;stroke:#000;stroke-width:0.5px;stroke-linecap:round;"/><path d="M59.21,170.54c-0.41,-2.16 -1.35,-5.67 -3.93,-5.85" style="fill:none;stroke:#000;stroke-width:0.5px;stroke-linecap:round;"/><path d="M56.51,170.66c0,-1.56 -2.01,-6.33 -4.42,-5.28" style="fill:none;stroke:#000;stroke-width:0.5px;stroke-linecap:round;"/><path d="M58.06,26.79c3.88,-1.12 11,-2.19 19.88,-2.25c8.25,-0.06 16.12,1 20.06,2.75c2,-4.5 6.25,-13.12 6.25,-13.12l-52.37,0l6.18,12.62Z" style="fill:#fff;fill-rule:nonzero;"/><path d="M58.06,26.79c3.88,-1.12 11,-2.19 19.88,-2.25c8.25,-0.06 16.12,1 20.06,2.75c2,-4.5 6.25,-13.12 6.25,-13.12l-52.37,0l6.18,12.62Z" style="fill:none;stroke:#000;stroke-width:0.5px;"/><path d="M57.67,25.83c11.04,-3.08 28.62,-3.29 40.83,0.34c0.33,-0.67 0.58,-1.21 0.96,-2.05c-12.5,-3.5 -28.17,-4.16 -42.83,-0.2c0.45,0.79 1.04,1.91 1.04,1.91Z" style="fill:#c80000;fill-rule:nonzero;"/><path d="M57.67,25.83c11.04,-3.08 28.62,-3.29 40.83,0.34c0.33,-0.67 0.58,-1.21 0.96,-2.05c-12.5,-3.5 -28.17,-4.16 -42.83,-0.2c0.45,0.79 1.04,1.91 1.04,1.91Z" style="fill:none;stroke:#000;stroke-width:0.5px;"/><path d="M99.33,15.99c-0.39,-0.38 -0.97,-0.84 -1.58,-1.11c-0.61,0.27 -1.19,0.73 -1.58,1.11c-0.55,0.54 -0.72,1 -0.72,1.53c0.01,0.51 0.3,0.97 0.93,1.1c0.45,0.09 0.72,-0.04 0.91,-0.14c0.19,-0.09 0.31,-0.27 0.38,-0.41c-0.08,0.4 -0.23,1.01 -0.38,1.33l0.92,0c-0.15,-0.32 -0.3,-0.93 -0.39,-1.33c0.08,0.14 0.2,0.32 0.39,0.41c0.19,0.1 0.46,0.23 0.91,0.14c0.63,-0.13 0.92,-0.59 0.93,-1.1c0,-0.53 -0.17,-0.99 -0.72,-1.53Z" style="fill-rule:nonzero;"/><path d="M93.66,15.99c-0.39,-0.38 -0.97,-0.84 -1.58,-1.11c-0.61,0.27 -1.19,0.73 -1.58,1.11c-0.55,0.54 -0.72,1 -0.72,1.53c0.01,0.51 0.3,0.97 0.93,1.1c0.45,0.09 0.72,-0.04 0.92,-0.14c0.18,-0.09 0.3,-0.27 0.38,-0.41c-0.09,0.4 -0.24,1.01 -0.39,1.33l0.92,0c-0.15,-0.32 -0.3,-0.93 -0.38,-1.33c0.07,0.14 0.19,0.32 0.38,0.41c0.19,0.1 0.46,0.23 0.91,0.14c0.63,-0.13 0.92,-0.59 0.93,-1.1c0,-0.53 -0.17,-0.99 -0.72,-1.53Z" style="fill-rule:nonzero;"/><path d="M87.99,15.99c-0.39,-0.38 -0.97,-0.84 -1.58,-1.11c-0.6,0.27 -1.19,0.73 -1.57,1.11c-0.56,0.54 -0.73,1 -0.72,1.53c0,0.51 0.29,0.97 0.92,1.1c0.46,0.09 0.72,-0.04 0.92,-0.14c0.18,-0.09 0.3,-0.27 0.38,-0.41c-0.09,0.4 -0.24,1.01 -0.39,1.33l0.92,0c-0.15,-0.32 -0.3,-0.93 -0.38,-1.33c0.07,0.14 0.2,0.32 0.38,0.41c0.19,0.1 0.46,0.23 0.91,0.14c0.64,-0.13 0.92,-0.59 0.93,-1.1c0,-0.53 -0.17,-0.99 -0.72,-1.53Z" style="fill-rule:nonzero;"/><path d="M82.32,15.99c-0.39,-0.38 -0.97,-0.84 -1.58,-1.11c-0.6,0.27 -1.18,0.73 -1.57,1.11c-0.56,0.54 -0.73,1 -0.72,1.53c0,0.51 0.29,0.97 0.93,1.1c0.45,0.09 0.71,-0.04 0.91,-0.14c0.18,-0.09 0.3,-0.27 0.38,-0.41c-0.09,0.4 -0.24,1.01 -0.39,1.33l0.92,0c-0.15,-0.32 -0.29,-0.93 -0.38,-1.33c0.07,0.14 0.2,0.32 0.38,0.41c0.19,0.1 0.46,0.23 0.91,0.14c0.64,-0.13 0.92,-0.59 0.93,-1.1c0,-0.53 -0.17,-0.99 -0.72,-1.53Z" style="fill-rule:nonzero;"/><path d="M76.65,15.99c-0.39,-0.38 -0.97,-0.84 -1.58,-1.11c-0.6,0.27 -1.18,0.73 -1.57,1.11c-0.56,0.54 -0.73,1 -0.72,1.53c0,0.51 0.29,0.97 0.93,1.1c0.45,0.09 0.71,-0.04 0.91,-0.14c0.18,-0.09 0.31,-0.27 0.38,-0.41c-0.09,0.4 -0.24,1.01 -0.39,1.33l0.93,0c-0.15,-0.32 -0.3,-0.93 -0.39,-1.33c0.07,0.14 0.2,0.32 0.38,0.41c0.2,0.1 0.46,0.23 0.91,0.14c0.64,-0.13 0.92,-0.59 0.93,-1.1c0.01,-0.53 -0.17,-0.99 -0.72,-1.53Z" style="fill-rule:nonzero;"/><path d="M70.98,15.99c-0.39,-0.38 -0.97,-0.84 -1.57,-1.11c-0.61,0.27 -1.19,0.73 -1.58,1.11c-0.56,0.54 -0.73,1 -0.72,1.53c0.01,0.51 0.29,0.97 0.93,1.1c0.45,0.09 0.71,-0.04 0.91,-0.14c0.18,-0.09 0.31,-0.27 0.38,-0.41c-0.09,0.4 -0.24,1.01 -0.39,1.33l0.93,0c-0.15,-0.32 -0.3,-0.93 -0.39,-1.33c0.07,0.14 0.2,0.32 0.38,0.41c0.2,0.1 0.46,0.23 0.91,0.14c0.64,-0.13 0.93,-0.59 0.93,-1.1c0.01,-0.53 -0.16,-0.99 -0.72,-1.53Z" style="fill-rule:nonzero;"/><path d="M65.31,15.99c-0.39,-0.38 -0.97,-0.84 -1.57,-1.11c-0.61,0.27 -1.19,0.73 -1.58,1.11c-0.55,0.54 -0.73,1 -0.72,1.53c0.01,0.51 0.29,0.97 0.93,1.1c0.45,0.09 0.71,-0.04 0.91,-0.14c0.18,-0.09 0.31,-0.27 0.38,-0.41c-0.09,0.4 -0.24,1.01 -0.39,1.33l0.93,0c-0.15,-0.32 -0.3,-0.93 -0.39,-1.33c0.07,0.14 0.2,0.32 0.38,0.41c0.2,0.1 0.46,0.23 0.91,0.14c0.64,-0.13 0.93,-0.59 0.93,-1.1c0.01,-0.53 -0.16,-0.99 -0.72,-1.53Z" style="fill-rule:nonzero;"/><path d="M59.64,15.99c-0.39,-0.38 -0.97,-0.84 -1.57,-1.11c-0.61,0.27 -1.19,0.73 -1.58,1.11c-0.55,0.54 -0.73,1 -0.72,1.53c0.01,0.51 0.29,0.97 0.93,1.1c0.45,0.09 0.72,-0.04 0.91,-0.14c0.18,-0.09 0.31,-0.27 0.38,-0.41c-0.09,0.4 -0.23,1.01 -0.38,1.33l0.92,0c-0.15,-0.32 -0.3,-0.93 -0.39,-1.33c0.08,0.14 0.2,0.32 0.38,0.41c0.2,0.1 0.46,0.23 0.91,0.14c0.64,-0.13 0.93,-0.59 0.93,-1.1c0.01,-0.53 -0.16,-0.99 -0.72,-1.53Z" style="fill-rule:nonzero;"/><path d="M97.75,19.4c-1.17,0.69 -4.92,0.6 -5.67,0c1.59,1.68 3.5,1.58 5.67,0Z" style="fill-rule:nonzero;"/><path d="M92.08,19.4c-1.17,0.69 -4.92,0.6 -5.67,0c1.59,1.68 3.51,1.58 5.67,0Z" style="fill-rule:nonzero;"/><path d="M86.41,19.4c-1.16,0.69 -4.92,0.6 -5.67,0c1.59,1.68 3.51,1.58 5.67,0Z" style="fill-rule:nonzero;"/><path d="M80.74,19.4c-1.16,0.69 -4.92,0.6 -5.67,0c1.59,1.68 3.51,1.58 5.67,0Z" style="fill-rule:nonzero;"/><path d="M75.07,19.4c-1.16,0.69 -4.92,0.6 -5.66,0c1.58,1.68 3.5,1.58 5.66,0Z" style="fill-rule:nonzero;"/><path d="M69.41,19.4c-1.17,0.69 -4.93,0.6 -5.67,0c1.58,1.68 3.5,1.58 5.67,0Z" style="fill-rule:nonzero;"/><path d="M63.74,19.4c-1.17,0.69 -4.92,0.6 -5.67,0c1.58,1.68 3.5,1.58 5.67,0Z" style="fill-rule:nonzero;"/><path d="M91.62,199.59c-3.88,1.13 -11,2.19 -19.88,2.25c-8.25,0.06 -16.12,-1 -20.06,-2.75c-2,4.5 -6.25,13.13 -6.25,13.13l52.37,0l-6.18,-12.63Z" style="fill:#fff;fill-rule:nonzero;"/><path d="M91.62,199.59c-3.88,1.13 -11,2.19 -19.88,2.25c-8.25,0.06 -16.12,-1 -20.06,-2.75c-2,4.5 -6.25,13.13 -6.25,13.13l52.37,0l-6.18,-12.63Z" style="fill:none;stroke:#000;stroke-width:0.5px;"/><path d="M92.01,200.55c-11.04,3.08 -28.62,3.29 -40.83,-0.33c-0.33,0.66 -0.58,1.2 -0.96,2.04c12.5,3.5 28.17,4.16 42.83,0.2c-0.45,-0.79 -1.04,-1.91 -1.04,-1.91Z" style="fill:#c80000;fill-rule:nonzero;"/><path d="M92.01,200.55c-11.04,3.08 -28.62,3.29 -40.83,-0.33c-0.33,0.66 -0.58,1.2 -0.96,2.04c12.5,3.5 28.17,4.16 42.83,0.2c-0.45,-0.79 -1.04,-1.91 -1.04,-1.91Z" style="fill:none;stroke:#000;stroke-width:0.5px;"/><path d="M50.35,210.39c0.39,0.38 0.97,0.84 1.58,1.11c0.61,-0.27 1.19,-0.73 1.58,-1.11c0.55,-0.54 0.72,-0.99 0.72,-1.53c-0.01,-0.51 -0.3,-0.97 -0.93,-1.1c-0.45,-0.09 -0.72,0.04 -0.91,0.14c-0.19,0.1 -0.31,0.27 -0.39,0.41c0.09,-0.4 0.24,-1.01 0.39,-1.33c-0.41,0 -0.46,0 -0.46,0c0,0 -0.05,0 -0.46,0c0.15,0.32 0.3,0.93 0.39,1.33c-0.08,-0.14 -0.2,-0.31 -0.39,-0.41c-0.19,-0.1 -0.46,-0.23 -0.91,-0.14c-0.63,0.13 -0.92,0.59 -0.93,1.1c0,0.54 0.17,0.99 0.72,1.53Z" style="fill-rule:nonzero;"/><path d="M56.02,210.39c0.39,0.38 0.97,0.84 1.58,1.11c0.61,-0.27 1.19,-0.73 1.57,-1.11c0.56,-0.54 0.73,-0.99 0.73,-1.53c-0.01,-0.51 -0.3,-0.97 -0.93,-1.1c-0.45,-0.09 -0.72,0.04 -0.92,0.14c-0.18,0.1 -0.3,0.27 -0.38,0.41c0.09,-0.4 0.24,-1.01 0.39,-1.33c-0.41,0 -0.46,0 -0.46,0c0,0 -0.06,0 -0.46,0c0.15,0.32 0.3,0.93 0.38,1.33c-0.07,-0.14 -0.19,-0.31 -0.38,-0.41c-0.19,-0.1 -0.46,-0.23 -0.91,-0.14c-0.64,0.13 -0.92,0.59 -0.93,1.1c0,0.54 0.17,0.99 0.72,1.53Z" style="fill-rule:nonzero;"/><path d="M61.69,210.39c0.39,0.38 0.97,0.84 1.58,1.11c0.6,-0.27 1.19,-0.73 1.57,-1.11c0.56,-0.54 0.73,-0.99 0.72,-1.53c0,-0.51 -0.29,-0.97 -0.93,-1.1c-0.45,-0.09 -0.71,0.04 -0.91,0.14c-0.18,0.1 -0.3,0.27 -0.38,0.41c0.09,-0.4 0.24,-1.01 0.39,-1.33c-0.41,0 -0.46,0 -0.46,0c0,0 -0.06,0 -0.46,0c0.15,0.32 0.3,0.93 0.38,1.33c-0.07,-0.14 -0.2,-0.31 -0.38,-0.41c-0.19,-0.1 -0.46,-0.23 -0.91,-0.14c-0.64,0.13 -0.92,0.59 -0.93,1.1c0,0.54 0.17,0.99 0.72,1.53Z" style="fill-rule:nonzero;"/><path d="M67.36,210.39c0.39,0.38 0.97,0.84 1.58,1.11c0.6,-0.27 1.18,-0.73 1.57,-1.11c0.56,-0.54 0.73,-0.99 0.72,-1.53c0,-0.51 -0.29,-0.97 -0.93,-1.1c-0.45,-0.09 -0.71,0.04 -0.91,0.14c-0.18,0.1 -0.31,0.27 -0.38,0.41c0.09,-0.4 0.24,-1.01 0.39,-1.33c-0.41,0 -0.46,0 -0.46,0c0,0 -0.06,0 -0.46,0c0.15,0.32 0.29,0.93 0.38,1.33c-0.07,-0.14 -0.2,-0.31 -0.38,-0.41c-0.19,-0.1 -0.46,-0.23 -0.91,-0.14c-0.64,0.13 -0.92,0.59 -0.93,1.1c-0.01,0.54 0.17,0.99 0.72,1.53Z" style="fill-rule:nonzero;"/><path d="M73.03,210.39c0.39,0.38 0.97,0.84 1.58,1.11c0.6,-0.27 1.18,-0.73 1.57,-1.11c0.56,-0.54 0.73,-0.99 0.72,-1.53c0,-0.51 -0.29,-0.97 -0.93,-1.1c-0.45,-0.09 -0.71,0.04 -0.91,0.14c-0.18,0.1 -0.31,0.27 -0.38,0.41c0.09,-0.4 0.24,-1.01 0.39,-1.33c-0.41,0 -0.46,0 -0.46,0c0,0 -0.06,0 -0.47,0c0.15,0.32 0.3,0.93 0.39,1.33c-0.07,-0.14 -0.2,-0.31 -0.38,-0.41c-0.2,-0.1 -0.46,-0.23 -0.91,-0.14c-0.64,0.13 -0.92,0.59 -0.93,1.1c-0.01,0.54 0.17,0.99 0.72,1.53Z" style="fill-rule:nonzero;"/><path d="M78.7,210.39c0.39,0.38 0.97,0.84 1.57,1.11c0.61,-0.27 1.19,-0.73 1.58,-1.11c0.56,-0.54 0.73,-0.99 0.72,-1.53c-0.01,-0.51 -0.29,-0.97 -0.93,-1.1c-0.45,-0.09 -0.71,0.04 -0.91,0.14c-0.18,0.1 -0.31,0.27 -0.38,0.41c0.09,-0.4 0.24,-1.01 0.39,-1.33c-0.41,0 -0.47,0 -0.47,0c0,0 -0.05,0 -0.46,0c0.15,0.32 0.3,0.93 0.39,1.33c-0.07,-0.14 -0.2,-0.31 -0.38,-0.41c-0.2,-0.1 -0.46,-0.23 -0.91,-0.14c-0.64,0.13 -0.93,0.59 -0.93,1.1c-0.01,0.54 0.16,0.99 0.72,1.53Z" style="fill-rule:nonzero;"/><path d="M84.37,210.39c0.39,0.38 0.97,0.84 1.57,1.11c0.61,-0.27 1.19,-0.73 1.58,-1.11c0.55,-0.54 0.73,-0.99 0.72,-1.53c-0.01,-0.51 -0.29,-0.97 -0.93,-1.1c-0.45,-0.09 -0.71,0.04 -0.91,0.14c-0.18,0.1 -0.31,0.27 -0.38,0.41c0.09,-0.4 0.23,-1.01 0.39,-1.33c-0.41,0 -0.47,0 -0.47,0c0,0 -0.05,0 -0.46,0c0.15,0.32 0.3,0.93 0.39,1.33c-0.08,-0.14 -0.2,-0.31 -0.38,-0.41c-0.2,-0.1 -0.46,-0.23 -0.91,-0.14c-0.64,0.13 -0.93,0.59 -0.93,1.1c-0.01,0.54 0.16,0.99 0.72,1.53Z" style="fill-rule:nonzero;"/><path d="M90.04,210.39c0.38,0.38 0.97,0.84 1.57,1.11c0.61,-0.27 1.19,-0.73 1.58,-1.11c0.55,-0.54 0.73,-0.99 0.72,-1.53c-0.01,-0.51 -0.29,-0.97 -0.93,-1.1c-0.45,-0.09 -0.72,0.04 -0.91,0.14c-0.18,0.1 -0.31,0.27 -0.38,0.41c0.09,-0.4 0.23,-1.01 0.38,-1.33c-0.4,0 -0.46,0 -0.46,0c0,0 -0.05,0 -0.46,0c0.15,0.32 0.3,0.93 0.39,1.33c-0.08,-0.14 -0.2,-0.31 -0.38,-0.41c-0.2,-0.1 -0.46,-0.23 -0.91,-0.14c-0.64,0.13 -0.93,0.59 -0.93,1.1c-0.01,0.54 0.16,0.99 0.72,1.53Z" style="fill-rule:nonzero;"/><path d="M51.93,206.98c1.17,-0.69 4.92,-0.6 5.67,0c-1.59,-1.68 -3.5,-1.58 -5.67,0Z" style="fill-rule:nonzero;"/><path d="M57.6,206.98c1.17,-0.69 4.92,-0.6 5.67,0c-1.59,-1.68 -3.51,-1.58 -5.67,0Z" style="fill-rule:nonzero;"/><path d="M63.27,206.98c1.16,-0.69 4.92,-0.6 5.67,0c-1.59,-1.68 -3.51,-1.58 -5.67,0Z" style="fill-rule:nonzero;"/><path d="M68.94,206.98c1.16,-0.69 4.92,-0.6 5.67,0c-1.59,-1.68 -3.51,-1.58 -5.67,0Z" style="fill-rule:nonzero;"/><path d="M74.61,206.98c1.16,-0.69 4.92,-0.6 5.66,0c-1.58,-1.68 -3.5,-1.58 -5.66,0Z" style="fill-rule:nonzero;"/><path d="M80.27,206.98c1.17,-0.69 4.93,-0.6 5.67,0c-1.58,-1.68 -3.5,-1.58 -5.67,0Z" style="fill-rule:nonzero;"/><path d="M85.94,206.98c1.17,-0.69 4.92,-0.6 5.67,0c-1.58,-1.68 -3.5,-1.58 -5.67,0Z" style="fill-rule:nonzero;"/></g></g></svg>
