<?xml version="1.0" encoding="UTF-8" standalone="no"?>
<!DOCTYPE svg PUBLIC "-//W3C//DTD SVG 1.1//EN" "http://www.w3.org/Graphics/SVG/1.1/DTD/svg11.dtd">
<svg width="100%" height="100%" viewBox="0 0 150 225" version="1.1" xmlns="http://www.w3.org/2000/svg" xmlns:xlink="http://www.w3.org/1999/xlink" xml:space="preserve" xmlns:serif="http://www.serif.com/" style="fill-rule:evenodd;clip-rule:evenodd;stroke-miterlimit:1.41421;">
    <g transform="matrix(1,0,0,1,-861,-1291)">
        <g>
            <g>
                <rect x="0.25" y="1.04" width="1530.71" height="1530.71" style="fill:white;fill-rule:nonzero;"/>
                <path d="M868.896,1527.75C861.038,1527.75 854.646,1521.35 854.646,1513.5L854.646,1294.88C854.646,1287.03 861.038,1280.63 868.896,1280.63L1002.47,1280.63C1010.33,1280.63 1016.72,1287.03 1016.72,1294.88L1016.72,1513.5C1016.72,1521.35 1010.33,1527.75 1002.47,1527.75L868.896,1527.75Z" style="fill:white;fill-rule:nonzero;"/>
                <path d="M1002.47,1280.38L868.896,1280.38C860.9,1280.38 854.396,1286.89 854.396,1294.88L854.396,1513.5C854.396,1521.49 860.9,1528 868.896,1528L1002.47,1528C1010.47,1528 1016.97,1521.49 1016.97,1513.5L1016.97,1294.88C1016.97,1286.89 1010.47,1280.38 1002.47,1280.38ZM1002.47,1280.88C1010.2,1280.88 1016.47,1287.15 1016.47,1294.88L1016.47,1513.5C1016.47,1521.23 1010.2,1527.5 1002.47,1527.5L868.896,1527.5C861.163,1527.5 854.896,1521.23 854.896,1513.5L854.896,1294.88C854.896,1287.15 861.163,1280.88 868.896,1280.88L1002.47,1280.88Z" style="fill-rule:nonzero;"/>
            </g>
            <g>
                <path d="M909.352,1323.53C907.201,1323.11 904.258,1324.78 901.864,1326.53C904.075,1324.12 906.682,1320.7 906.682,1317.93C906.682,1313.12 903.167,1309.23 898.832,1309.23C894.497,1309.23 890.982,1313.12 890.982,1317.93C890.982,1320.7 893.59,1324.12 895.8,1326.53C893.407,1324.78 890.463,1323.11 888.313,1323.53C884.043,1324.37 881.192,1328.88 881.945,1333.61C882.697,1338.34 886.77,1341.5 891.039,1340.66C893.627,1340.16 896.364,1336.38 898.118,1333.48C897.462,1337.49 896.44,1343.08 895.415,1346.08C898.435,1346.05 898.832,1346.08 898.832,1346.08C898.832,1346.08 899.229,1346.05 902.25,1346.08C901.224,1343.08 900.202,1337.49 899.546,1333.48C901.3,1336.38 904.037,1340.16 906.626,1340.66C910.895,1341.5 914.967,1338.34 915.719,1333.61C916.472,1328.88 913.621,1324.37 909.352,1323.53Z" style="fill-rule:nonzero;"/>
                <path d="M962.014,1484.85C964.164,1485.27 967.107,1483.6 969.501,1481.85C967.291,1484.26 964.683,1487.68 964.683,1490.45C964.683,1495.26 968.199,1499.15 972.533,1499.15C976.869,1499.15 980.383,1495.26 980.383,1490.45C980.383,1487.68 977.775,1484.26 975.565,1481.85C977.958,1483.6 980.902,1485.27 983.053,1484.85C987.322,1484.01 990.173,1479.5 989.42,1474.77C988.668,1470.04 984.596,1466.88 980.327,1467.72C977.738,1468.22 975.001,1472 973.247,1474.9C973.903,1470.89 974.925,1465.3 975.951,1462.3C972.931,1462.33 972.533,1462.3 972.533,1462.3C972.533,1462.3 972.137,1462.33 969.116,1462.3C970.141,1465.3 971.164,1470.89 971.819,1474.9C970.065,1472 967.329,1468.22 964.739,1467.72C960.471,1466.88 956.398,1470.04 955.646,1474.77C954.893,1479.5 957.744,1484.01 962.014,1484.85Z" style="fill-rule:nonzero;"/>
                <path d="M874.869,1325.94C873.973,1325.76 872.746,1326.45 871.749,1327.19C872.67,1326.18 873.756,1324.76 873.756,1323.6C873.756,1321.6 872.292,1319.98 870.485,1319.98C868.679,1319.98 867.214,1321.6 867.214,1323.6C867.214,1324.76 868.301,1326.18 869.222,1327.19C868.225,1326.45 866.998,1325.76 866.102,1325.94C864.323,1326.28 863.135,1328.16 863.448,1330.13C863.762,1332.11 865.459,1333.42 867.238,1333.08C868.317,1332.86 869.457,1331.29 870.188,1330.08C869.915,1331.75 869.489,1334.08 869.061,1335.33C870.32,1335.32 870.485,1335.33 870.485,1335.33C870.485,1335.33 870.651,1335.32 871.909,1335.33C871.482,1334.08 871.056,1331.75 870.783,1330.08C871.514,1331.29 872.654,1332.86 873.733,1333.08C875.512,1333.42 877.209,1332.11 877.522,1330.13C877.836,1328.16 876.648,1326.28 874.869,1325.94Z" style="fill-rule:nonzero;"/>
                <path d="M866.102,1482.44C866.998,1482.62 868.224,1481.92 869.222,1481.19C868.301,1482.2 867.214,1483.62 867.214,1484.78C867.214,1486.78 868.679,1488.4 870.485,1488.4C872.292,1488.4 873.756,1486.78 873.756,1484.78C873.756,1483.62 872.67,1482.2 871.749,1481.19C872.746,1481.92 873.973,1482.62 874.869,1482.44C876.648,1482.1 877.836,1480.22 877.522,1478.24C877.209,1476.27 875.512,1474.96 873.733,1475.3C872.654,1475.52 871.514,1477.09 870.783,1478.3C871.056,1476.63 871.482,1474.3 871.909,1473.05C870.651,1473.06 870.485,1473.05 870.485,1473.05C870.485,1473.05 870.32,1473.06 869.061,1473.05C869.489,1474.3 869.915,1476.63 870.188,1478.3C869.457,1477.09 868.317,1475.52 867.238,1475.3C865.459,1474.96 863.762,1476.27 863.448,1478.24C863.135,1480.22 864.323,1482.1 866.102,1482.44Z" style="fill-rule:nonzero;"/>
                <path d="M996.496,1482.44C997.392,1482.62 998.619,1481.92 999.616,1481.19C998.695,1482.2 997.609,1483.62 997.609,1484.78C997.609,1486.78 999.074,1488.4 1000.88,1488.4C1002.69,1488.4 1004.15,1486.78 1004.15,1484.78C1004.15,1483.62 1003.06,1482.2 1002.14,1481.19C1003.14,1481.92 1004.37,1482.62 1005.26,1482.44C1007.04,1482.1 1008.23,1480.22 1007.92,1478.24C1007.6,1476.27 1005.91,1474.96 1004.13,1475.3C1003.05,1475.52 1001.91,1477.09 1001.18,1478.3C1001.45,1476.63 1001.88,1474.3 1002.3,1473.05C1001.05,1473.06 1000.88,1473.05 1000.88,1473.05C1000.88,1473.05 1000.71,1473.06 999.456,1473.05C999.883,1474.3 1000.31,1476.63 1000.58,1478.3C999.851,1477.09 998.711,1475.52 997.632,1475.3C995.853,1474.96 994.156,1476.27 993.843,1478.24C993.529,1480.22 994.717,1482.1 996.496,1482.44Z" style="fill-rule:nonzero;"/>
                <path d="M1005.26,1325.94C1004.37,1325.76 1003.14,1326.45 1002.14,1327.19C1003.06,1326.18 1004.15,1324.76 1004.15,1323.6C1004.15,1321.6 1002.69,1319.98 1000.88,1319.98C999.073,1319.98 997.609,1321.6 997.609,1323.6C997.609,1324.76 998.695,1326.18 999.617,1327.19C998.619,1326.45 997.392,1325.76 996.496,1325.94C994.717,1326.28 993.529,1328.16 993.843,1330.13C994.156,1332.11 995.853,1333.42 997.632,1333.08C998.711,1332.86 999.851,1331.29 1000.58,1330.08C1000.31,1331.75 999.883,1334.08 999.456,1335.33C1000.71,1335.32 1000.88,1335.33 1000.88,1335.33C1000.88,1335.33 1001.05,1335.32 1002.3,1335.33C1001.88,1334.08 1001.45,1331.75 1001.18,1330.08C1001.91,1331.29 1003.05,1332.86 1004.13,1333.08C1005.91,1333.42 1007.6,1332.11 1007.92,1330.13C1008.23,1328.16 1007.04,1326.28 1005.26,1325.94Z" style="fill-rule:nonzero;"/>
                <rect x="878.989" y="1304.98" width="113.387" height="198.42" style="fill:none;stroke:black;stroke-width:0.8px;"/>
                <path d="M875.646,1312.25L869.586,1304.56L874.68,1297.72L875.344,1297.72L875.344,1295.22L870.992,1295.22L870.992,1297.72L871.563,1297.72L867.754,1302.83L867.483,1303.04L867.483,1297.72L868.158,1297.72L868.158,1295.22L864.252,1295.22L864.252,1297.72L864.983,1297.72L864.983,1312.25L864.252,1312.25L864.252,1314.75L868.158,1314.75L868.158,1312.25L867.483,1312.25L867.483,1307.38L868.038,1306.63L872.465,1312.25L871.997,1312.25L871.997,1314.75L876.349,1314.75L876.349,1312.25L875.646,1312.25Z" style="fill-rule:nonzero;"/>
                <path d="M1006.04,1312.25L999.979,1304.56L1005.07,1297.72L1005.74,1297.72L1005.74,1295.22L1001.39,1295.22L1001.39,1297.72L1001.96,1297.72L998.147,1302.83L997.877,1303.04L997.877,1297.72L998.552,1297.72L998.552,1295.22L994.646,1295.22L994.646,1297.72L995.377,1297.72L995.377,1312.25L994.646,1312.25L994.646,1314.75L998.552,1314.75L998.552,1312.25L997.877,1312.25L997.877,1307.38L998.432,1306.63L1002.86,1312.25L1002.39,1312.25L1002.39,1314.75L1006.74,1314.75L1006.74,1312.25L1006.04,1312.25Z" style="fill-rule:nonzero;"/>
                <path d="M864.955,1496.15L871.016,1503.85L865.922,1510.68L865.258,1510.68L865.258,1513.18L869.609,1513.18L869.609,1510.68L869.039,1510.68L872.848,1505.57L873.118,1505.36L873.118,1510.68L872.443,1510.68L872.443,1513.18L876.35,1513.18L876.35,1510.68L875.618,1510.68L875.618,1496.15L876.35,1496.15L876.35,1493.65L872.443,1493.65L872.443,1496.15L873.118,1496.15L873.118,1501.03L872.563,1501.77L868.137,1496.15L868.604,1496.15L868.604,1493.65L864.253,1493.65L864.253,1496.15L864.955,1496.15Z" style="fill-rule:nonzero;"/>
                <path d="M995.347,1496.15L1001.41,1503.85L996.313,1510.68L995.649,1510.68L995.649,1513.18L1000,1513.18L1000,1510.68L999.431,1510.68L1003.24,1505.57L1003.51,1505.36L1003.51,1510.68L1002.83,1510.68L1002.83,1513.18L1006.74,1513.18L1006.74,1510.68L1006.01,1510.68L1006.01,1496.15L1006.74,1496.15L1006.74,1493.65L1002.83,1493.65L1002.83,1496.15L1003.51,1496.15L1003.51,1501.03L1002.96,1501.77L998.528,1496.15L998.996,1496.15L998.996,1493.65L994.645,1493.65L994.645,1496.15L995.347,1496.15Z" style="fill-rule:nonzero;"/>
                <path d="M992.343,1364.44C978.843,1356.06 956.343,1350 935.593,1350.86C923.35,1351.37 910.323,1355.49 899.796,1359.91C889.269,1364.33 881.239,1369.06 878.989,1370.79L878.989,1404.19L879.022,1443.94C892.522,1452.32 915.022,1458.39 935.772,1457.52C948.016,1457.01 961.042,1452.89 971.569,1448.47C982.097,1444.05 990.126,1439.32 992.376,1437.59L992.376,1404.19L992.343,1364.44Z" style="fill:rgb(200,0,0);fill-rule:nonzero;"/>
                <path d="M992.343,1364.44C978.843,1356.06 956.343,1350 935.593,1350.86C923.35,1351.37 910.323,1355.49 899.796,1359.91C889.269,1364.33 881.239,1369.06 878.989,1370.79L878.989,1404.19L879.022,1443.94C892.522,1452.32 915.022,1458.39 935.772,1457.52C948.016,1457.01 961.042,1452.89 971.569,1448.47C982.097,1444.05 990.126,1439.32 992.376,1437.59L992.376,1404.19L992.343,1364.44Z" style="fill:none;stroke:black;stroke-width:0.5px;"/>
                <path d="M987.99,1396.21C987.99,1405.44 983.778,1412.92 978.583,1412.92C973.388,1412.92 969.176,1405.44 969.176,1396.21C969.176,1386.98 973.388,1379.5 978.583,1379.5C983.778,1379.5 987.99,1386.98 987.99,1396.21Z" style="fill:white;fill-rule:nonzero;"/>
                <path d="M987.99,1396.21C987.99,1405.44 983.778,1412.92 978.583,1412.92C973.388,1412.92 969.176,1405.44 969.176,1396.21C969.176,1386.98 973.388,1379.5 978.583,1379.5C983.778,1379.5 987.99,1386.98 987.99,1396.21Z" style="fill:none;stroke:black;stroke-width:0.5px;"/>
                <path d="M990.489,1394.87C990.489,1404.1 986.277,1411.58 981.082,1411.58C975.887,1411.58 971.675,1404.1 971.675,1394.87C971.675,1385.65 975.887,1378.17 981.082,1378.17C986.277,1378.17 990.489,1385.65 990.489,1394.87Z" style="fill-rule:nonzero;"/>
                <path d="M990.489,1394.87C990.489,1404.1 986.277,1411.58 981.082,1411.58C975.887,1411.58 971.675,1404.1 971.675,1394.87C971.675,1385.65 975.887,1378.17 981.082,1378.17C986.277,1378.17 990.489,1385.65 990.489,1394.87Z" style="fill:none;stroke:black;stroke-width:0.5px;"/>
                <path d="M991,1393.67C991,1401.88 987.25,1408.54 982.625,1408.54C978,1408.54 974.25,1401.88 974.25,1393.67C974.25,1385.45 978,1378.79 982.625,1378.79C987.25,1378.79 991,1385.45 991,1393.67Z" style="fill-rule:nonzero;"/>
                <path d="M974.284,1437.71C966.596,1435 956.531,1427.76 952.747,1422.22L951.839,1420.89L952.517,1419.43C953.656,1416.97 956.434,1411.62 958.666,1407.31C959.719,1405.28 960.607,1403.57 961.046,1402.69L965.18,1394.43L966.391,1403.59C967.156,1409.38 971.808,1417.99 977.987,1421.79L979.663,1422.83L979.28,1424.76C978.847,1426.95 978.677,1428.99 978.513,1430.97C978.385,1432.52 978.264,1433.98 978.028,1435.48L977.5,1438.85L974.284,1437.71Z" style="fill:white;fill-rule:nonzero;"/>
                <path d="M974.284,1437.71C966.596,1435 956.531,1427.76 952.747,1422.22L951.839,1420.89L952.517,1419.43C953.656,1416.97 956.434,1411.62 958.666,1407.31C959.719,1405.28 960.607,1403.57 961.046,1402.69L965.18,1394.43L966.391,1403.59C967.156,1409.38 971.808,1417.99 977.987,1421.79L979.663,1422.83L979.28,1424.76C978.847,1426.95 978.677,1428.99 978.513,1430.97C978.385,1432.52 978.264,1433.98 978.028,1435.48L977.5,1438.85L974.284,1437.71Z" style="fill:none;stroke:black;stroke-width:0.5px;"/>
                <path d="M955.088,1420.62C956.75,1417.04 962.243,1406.63 963.58,1403.96C964.417,1410.29 969.333,1419.79 976.5,1424.21C975.697,1428.25 975.75,1431.71 975.228,1435.04C967.667,1432.37 958.333,1425.37 955.088,1420.62Z" style="fill-rule:nonzero;"/>
                <path d="M883.322,1412.12C883.322,1402.89 887.534,1395.41 892.729,1395.41C897.925,1395.41 902.137,1402.89 902.137,1412.12C902.137,1421.35 897.925,1428.83 892.729,1428.83C887.534,1428.83 883.322,1421.35 883.322,1412.12Z" style="fill:white;fill-rule:nonzero;"/>
                <path d="M883.322,1412.12C883.322,1402.89 887.534,1395.41 892.729,1395.41C897.925,1395.41 902.137,1402.89 902.137,1412.12C902.137,1421.35 897.925,1428.83 892.729,1428.83C887.534,1428.83 883.322,1421.35 883.322,1412.12Z" style="fill:none;stroke:black;stroke-width:0.5px;"/>
                <path d="M880.823,1413.46C880.823,1404.23 885.035,1396.75 890.23,1396.75C895.426,1396.75 899.638,1404.23 899.638,1413.46C899.638,1422.68 895.426,1430.17 890.23,1430.17C885.035,1430.17 880.823,1422.68 880.823,1413.46Z" style="fill-rule:nonzero;"/>
                <path d="M880.823,1413.46C880.823,1404.23 885.035,1396.75 890.23,1396.75C895.426,1396.75 899.638,1404.23 899.638,1413.46C899.638,1422.68 895.426,1430.17 890.23,1430.17C885.035,1430.17 880.823,1422.68 880.823,1413.46Z" style="fill:none;stroke:black;stroke-width:0.5px;"/>
                <path d="M880.313,1414.67C880.313,1406.45 884.063,1399.79 888.688,1399.79C893.313,1399.79 897.063,1406.45 897.063,1414.67C897.063,1422.88 893.313,1429.54 888.688,1429.54C884.063,1429.54 880.313,1422.88 880.313,1414.67Z" style="fill-rule:nonzero;"/>
                <path d="M897.028,1370.62C904.717,1373.33 914.781,1380.57 918.565,1386.11L919.474,1387.44L918.796,1388.9C917.656,1391.36 914.879,1396.71 912.646,1401.02C911.594,1403.05 910.705,1404.76 910.267,1405.64L906.133,1413.9L904.922,1404.74C904.156,1398.95 899.505,1390.34 893.325,1386.54L891.649,1385.5L892.032,1383.57C892.466,1381.38 892.636,1379.34 892.8,1377.36C892.928,1375.81 893.049,1374.35 893.284,1372.85L893.813,1369.48L897.028,1370.62Z" style="fill:white;fill-rule:nonzero;"/>
                <path d="M897.028,1370.62C904.717,1373.33 914.781,1380.57 918.565,1386.11L919.474,1387.44L918.796,1388.9C917.656,1391.36 914.879,1396.71 912.646,1401.02C911.594,1403.05 910.705,1404.76 910.267,1405.64L906.133,1413.9L904.922,1404.74C904.156,1398.95 899.505,1390.34 893.325,1386.54L891.649,1385.5L892.032,1383.57C892.466,1381.38 892.636,1379.34 892.8,1377.36C892.928,1375.81 893.049,1374.35 893.284,1372.85L893.813,1369.48L897.028,1370.62Z" style="fill:none;stroke:black;stroke-width:0.5px;"/>
                <path d="M916.225,1387.71C914.563,1391.29 909.069,1401.7 907.732,1404.37C906.896,1398.04 901.979,1388.54 894.813,1384.12C895.615,1380.08 895.563,1376.62 896.085,1373.29C903.646,1375.96 912.979,1382.96 916.225,1387.71Z" style="fill-rule:nonzero;"/>
                <path d="M912.139,1455.78L936.931,1407.53L927.453,1379.85C927.453,1379.85 892.302,1449.4 891.885,1450.15C897.145,1452.14 902.378,1453.63 907.848,1454.86C909.267,1455.18 910.696,1455.48 912.139,1455.78Z" style="fill-rule:nonzero;"/>
                <path d="M912.139,1455.78L936.931,1407.53L927.453,1379.85C927.453,1379.85 892.302,1449.4 891.885,1450.15C897.145,1452.14 902.378,1453.63 907.848,1454.86C909.267,1455.18 910.696,1455.48 912.139,1455.78Z" style="fill:none;stroke:black;stroke-width:0.5px;"/>
                <path d="M907.722,1454.87L933.431,1404.49L928.441,1389.93C928.441,1389.93 898.639,1447.87 896.638,1451.87C900.472,1453.16 904.222,1454.12 907.722,1454.87Z" style="fill:white;fill-rule:nonzero;"/>
                <path d="M907.722,1454.87L933.431,1404.49L928.441,1389.93C928.441,1389.93 898.639,1447.87 896.638,1451.87C900.472,1453.16 904.222,1454.12 907.722,1454.87Z" style="fill:none;stroke:black;stroke-width:0.5px;"/>
                <path d="M902.264,1453.41L931.514,1396.66" style="fill:none;stroke:black;stroke-width:0.5px;"/>
                <path d="M904.098,1450.24L907.932,1454.07" style="fill:none;stroke:black;stroke-width:0.5px;"/>
                <path d="M903.892,1450.03L898.127,1449.02" style="fill:none;stroke:black;stroke-width:0.5px;"/>
                <path d="M905.138,1448.23L908.971,1452.06" style="fill:none;stroke:black;stroke-width:0.5px;"/>
                <path d="M904.932,1448.01L899.167,1447.01" style="fill:none;stroke:black;stroke-width:0.5px;"/>
                <path d="M906.178,1446.21L910.011,1450.04" style="fill:none;stroke:black;stroke-width:0.5px;"/>
                <path d="M905.972,1446L900.207,1444.99" style="fill:none;stroke:black;stroke-width:0.5px;"/>
                <path d="M907.218,1444.2L911.051,1448.03" style="fill:none;stroke:black;stroke-width:0.5px;"/>
                <path d="M907.012,1443.98L901.247,1442.98" style="fill:none;stroke:black;stroke-width:0.5px;"/>
                <path d="M908.258,1442.18L912.091,1446.01" style="fill:none;stroke:black;stroke-width:0.5px;"/>
                <path d="M908.052,1441.97L902.287,1440.96" style="fill:none;stroke:black;stroke-width:0.5px;"/>
                <path d="M909.298,1440.17L913.131,1444" style="fill:none;stroke:black;stroke-width:0.5px;"/>
                <path d="M909.092,1439.95L903.327,1438.95" style="fill:none;stroke:black;stroke-width:0.5px;"/>
                <path d="M910.338,1438.15L914.171,1441.98" style="fill:none;stroke:black;stroke-width:0.5px;"/>
                <path d="M910.132,1437.94L904.367,1436.93" style="fill:none;stroke:black;stroke-width:0.5px;"/>
                <path d="M911.378,1436.14L915.211,1439.97" style="fill:none;stroke:black;stroke-width:0.5px;"/>
                <path d="M911.172,1435.92L905.407,1434.92" style="fill:none;stroke:black;stroke-width:0.5px;"/>
                <path d="M912.418,1434.12L916.251,1437.95" style="fill:none;stroke:black;stroke-width:0.5px;"/>
                <path d="M912.212,1433.91L906.447,1432.9" style="fill:none;stroke:black;stroke-width:0.5px;"/>
                <path d="M913.458,1432.11L917.291,1435.94" style="fill:none;stroke:black;stroke-width:0.5px;"/>
                <path d="M913.252,1431.89L907.487,1430.89" style="fill:none;stroke:black;stroke-width:0.5px;"/>
                <path d="M914.498,1430.09L918.331,1433.92" style="fill:none;stroke:black;stroke-width:0.5px;"/>
                <path d="M914.292,1429.88L908.527,1428.87" style="fill:none;stroke:black;stroke-width:0.5px;"/>
                <path d="M915.538,1428.08L919.371,1431.91" style="fill:none;stroke:black;stroke-width:0.5px;"/>
                <path d="M915.332,1427.86L909.567,1426.86" style="fill:none;stroke:black;stroke-width:0.5px;"/>
                <path d="M916.578,1426.06L920.411,1429.89" style="fill:none;stroke:black;stroke-width:0.5px;"/>
                <path d="M916.372,1425.85L910.607,1424.84" style="fill:none;stroke:black;stroke-width:0.5px;"/>
                <path d="M917.618,1424.05L921.451,1427.88" style="fill:none;stroke:black;stroke-width:0.5px;"/>
                <path d="M917.412,1423.83L911.647,1422.83" style="fill:none;stroke:black;stroke-width:0.5px;"/>
                <path d="M918.658,1422.03L922.491,1425.86" style="fill:none;stroke:black;stroke-width:0.5px;"/>
                <path d="M918.452,1421.82L912.688,1420.81" style="fill:none;stroke:black;stroke-width:0.5px;"/>
                <path d="M919.698,1420.02L923.531,1423.85" style="fill:none;stroke:black;stroke-width:0.5px;"/>
                <path d="M919.492,1419.8L913.728,1418.8" style="fill:none;stroke:black;stroke-width:0.5px;"/>
                <path d="M920.738,1418L924.571,1421.83" style="fill:none;stroke:black;stroke-width:0.5px;"/>
                <path d="M920.532,1417.79L914.768,1416.78" style="fill:none;stroke:black;stroke-width:0.5px;"/>
                <path d="M921.778,1415.99L925.611,1419.82" style="fill:none;stroke:black;stroke-width:0.5px;"/>
                <path d="M921.572,1415.77L915.808,1414.77" style="fill:none;stroke:black;stroke-width:0.5px;"/>
                <path d="M922.818,1413.97L926.651,1417.8" style="fill:none;stroke:black;stroke-width:0.5px;"/>
                <path d="M922.612,1413.76L916.848,1412.75" style="fill:none;stroke:black;stroke-width:0.5px;"/>
                <path d="M923.858,1411.96L927.691,1415.79" style="fill:none;stroke:black;stroke-width:0.5px;"/>
                <path d="M923.652,1411.74L917.888,1410.74" style="fill:none;stroke:black;stroke-width:0.5px;"/>
                <path d="M924.898,1409.94L928.731,1413.77" style="fill:none;stroke:black;stroke-width:0.5px;"/>
                <path d="M924.692,1409.73L918.928,1408.72" style="fill:none;stroke:black;stroke-width:0.5px;"/>
                <path d="M925.938,1407.93L929.771,1411.76" style="fill:none;stroke:black;stroke-width:0.5px;"/>
                <path d="M925.732,1407.71L919.968,1406.71" style="fill:none;stroke:black;stroke-width:0.5px;"/>
                <path d="M926.979,1405.91L930.812,1409.74" style="fill:none;stroke:black;stroke-width:0.5px;"/>
                <path d="M926.772,1405.7L921.008,1404.69" style="fill:none;stroke:black;stroke-width:0.5px;"/>
                <path d="M928.019,1403.9L931.852,1407.73" style="fill:none;stroke:black;stroke-width:0.5px;"/>
                <path d="M927.813,1403.68L922.048,1402.68" style="fill:none;stroke:black;stroke-width:0.5px;"/>
                <path d="M929.059,1401.88L932.892,1405.71" style="fill:none;stroke:black;stroke-width:0.5px;"/>
                <path d="M928.853,1401.67L923.088,1400.66" style="fill:none;stroke:black;stroke-width:0.5px;"/>
                <path d="M929.728,1399.76L923.963,1398.75" style="fill:none;stroke:black;stroke-width:0.5px;"/>
                <path d="M930.759,1397.76L924.994,1396.75" style="fill:none;stroke:black;stroke-width:0.5px;"/>
                <path d="M931.884,1395.79L926.119,1394.79" style="fill:none;stroke:black;stroke-width:0.5px;"/>
                <path d="M959.205,1352.58L934.413,1400.83L943.891,1428.51C943.891,1428.51 979.042,1358.96 979.459,1358.21C974.199,1356.22 968.966,1354.73 963.496,1353.5C962.077,1353.19 960.647,1352.88 959.205,1352.58Z" style="fill-rule:nonzero;"/>
                <path d="M959.205,1352.58L934.413,1400.83L943.891,1428.51C943.891,1428.51 979.042,1358.96 979.459,1358.21C974.199,1356.22 968.966,1354.73 963.496,1353.5C962.077,1353.19 960.647,1352.88 959.205,1352.58Z" style="fill:none;stroke:black;stroke-width:0.5px;"/>
                <path d="M963.622,1353.5L937.913,1403.87L942.902,1418.44C942.902,1418.44 972.705,1360.5 974.706,1356.5C970.872,1355.2 967.122,1354.25 963.622,1353.5Z" style="fill:white;fill-rule:nonzero;"/>
                <path d="M963.622,1353.5L937.913,1403.87L942.902,1418.44C942.902,1418.44 972.705,1360.5 974.706,1356.5C970.872,1355.2 967.122,1354.25 963.622,1353.5Z" style="fill:none;stroke:black;stroke-width:0.5px;"/>
                <path d="M969.08,1354.95L939.83,1411.71" style="fill:none;stroke:black;stroke-width:0.5px;"/>
                <path d="M967.246,1358.12L963.412,1354.29" style="fill:none;stroke:black;stroke-width:0.5px;"/>
                <path d="M967.452,1358.33L973.217,1359.34" style="fill:none;stroke:black;stroke-width:0.5px;"/>
                <path d="M966.206,1360.13L962.373,1356.3" style="fill:none;stroke:black;stroke-width:0.5px;"/>
                <path d="M966.412,1360.35L972.177,1361.36" style="fill:none;stroke:black;stroke-width:0.5px;"/>
                <path d="M965.166,1362.15L961.333,1358.32" style="fill:none;stroke:black;stroke-width:0.5px;"/>
                <path d="M965.372,1362.36L971.137,1363.37" style="fill:none;stroke:black;stroke-width:0.5px;"/>
                <path d="M964.126,1364.17L960.293,1360.33" style="fill:none;stroke:black;stroke-width:0.5px;"/>
                <path d="M964.332,1364.38L970.097,1365.38" style="fill:none;stroke:black;stroke-width:0.5px;"/>
                <path d="M963.086,1366.18L959.253,1362.35" style="fill:none;stroke:black;stroke-width:0.5px;"/>
                <path d="M963.292,1366.39L969.057,1367.4" style="fill:none;stroke:black;stroke-width:0.5px;"/>
                <path d="M962.046,1368.2L958.213,1364.36" style="fill:none;stroke:black;stroke-width:0.5px;"/>
                <path d="M962.252,1368.41L968.017,1369.42" style="fill:none;stroke:black;stroke-width:0.5px;"/>
                <path d="M961.006,1370.21L957.173,1366.38" style="fill:none;stroke:black;stroke-width:0.5px;"/>
                <path d="M961.212,1370.42L966.977,1371.43" style="fill:none;stroke:black;stroke-width:0.5px;"/>
                <path d="M959.966,1372.23L956.133,1368.39" style="fill:none;stroke:black;stroke-width:0.5px;"/>
                <path d="M960.172,1372.44L965.937,1373.45" style="fill:none;stroke:black;stroke-width:0.5px;"/>
                <path d="M958.926,1374.24L955.093,1370.41" style="fill:none;stroke:black;stroke-width:0.5px;"/>
                <path d="M959.132,1374.45L964.896,1375.46" style="fill:none;stroke:black;stroke-width:0.5px;"/>
                <path d="M957.886,1376.25L954.053,1372.42" style="fill:none;stroke:black;stroke-width:0.5px;"/>
                <path d="M958.092,1376.47L963.856,1377.48" style="fill:none;stroke:black;stroke-width:0.5px;"/>
                <path d="M956.846,1378.27L953.013,1374.44" style="fill:none;stroke:black;stroke-width:0.5px;"/>
                <path d="M957.052,1378.48L962.816,1379.49" style="fill:none;stroke:black;stroke-width:0.5px;"/>
                <path d="M955.806,1380.29L951.973,1376.45" style="fill:none;stroke:black;stroke-width:0.5px;"/>
                <path d="M956.012,1380.5L961.776,1381.5" style="fill:none;stroke:black;stroke-width:0.5px;"/>
                <path d="M954.766,1382.3L950.933,1378.47" style="fill:none;stroke:black;stroke-width:0.5px;"/>
                <path d="M954.972,1382.51L960.736,1383.52" style="fill:none;stroke:black;stroke-width:0.5px;"/>
                <path d="M953.726,1384.32L949.893,1380.48" style="fill:none;stroke:black;stroke-width:0.5px;"/>
                <path d="M953.932,1384.53L959.696,1385.54" style="fill:none;stroke:black;stroke-width:0.5px;"/>
                <path d="M952.686,1386.33L948.853,1382.5" style="fill:none;stroke:black;stroke-width:0.5px;"/>
                <path d="M952.892,1386.54L958.656,1387.55" style="fill:none;stroke:black;stroke-width:0.5px;"/>
                <path d="M951.646,1388.35L947.813,1384.51" style="fill:none;stroke:black;stroke-width:0.5px;"/>
                <path d="M951.852,1388.56L957.616,1389.57" style="fill:none;stroke:black;stroke-width:0.5px;"/>
                <path d="M950.605,1390.36L946.772,1386.53" style="fill:none;stroke:black;stroke-width:0.5px;"/>
                <path d="M950.812,1390.57L956.576,1391.58" style="fill:none;stroke:black;stroke-width:0.5px;"/>
                <path d="M949.565,1392.37L945.732,1388.54" style="fill:none;stroke:black;stroke-width:0.5px;"/>
                <path d="M949.771,1392.59L955.536,1393.6" style="fill:none;stroke:black;stroke-width:0.5px;"/>
                <path d="M948.525,1394.39L944.692,1390.56" style="fill:none;stroke:black;stroke-width:0.5px;"/>
                <path d="M948.731,1394.6L954.496,1395.61" style="fill:none;stroke:black;stroke-width:0.5px;"/>
                <path d="M947.485,1396.41L943.652,1392.57" style="fill:none;stroke:black;stroke-width:0.5px;"/>
                <path d="M947.691,1396.62L953.456,1397.62" style="fill:none;stroke:black;stroke-width:0.5px;"/>
                <path d="M946.445,1398.42L942.612,1394.59" style="fill:none;stroke:black;stroke-width:0.5px;"/>
                <path d="M946.651,1398.63L952.416,1399.64" style="fill:none;stroke:black;stroke-width:0.5px;"/>
                <path d="M945.405,1400.44L941.572,1396.6" style="fill:none;stroke:black;stroke-width:0.5px;"/>
                <path d="M945.611,1400.65L951.376,1401.66" style="fill:none;stroke:black;stroke-width:0.5px;"/>
                <path d="M944.365,1402.45L940.532,1398.62" style="fill:none;stroke:black;stroke-width:0.5px;"/>
                <path d="M944.571,1402.66L950.336,1403.67" style="fill:none;stroke:black;stroke-width:0.5px;"/>
                <path d="M943.325,1404.46L939.492,1400.63" style="fill:none;stroke:black;stroke-width:0.5px;"/>
                <path d="M943.531,1404.68L949.296,1405.69" style="fill:none;stroke:black;stroke-width:0.5px;"/>
                <path d="M942.285,1406.48L938.452,1402.65" style="fill:none;stroke:black;stroke-width:0.5px;"/>
                <path d="M942.491,1406.69L948.256,1407.7" style="fill:none;stroke:black;stroke-width:0.5px;"/>
                <path d="M941.616,1408.6L947.381,1409.61" style="fill:none;stroke:black;stroke-width:0.5px;"/>
                <path d="M940.585,1410.6L946.35,1411.61" style="fill:none;stroke:black;stroke-width:0.5px;"/>
                <path d="M939.46,1412.57L945.225,1413.58" style="fill:none;stroke:black;stroke-width:0.5px;"/>
                <path d="M941.348,1404.19C940.943,1386.3 935.896,1368.37 910.271,1356C904.459,1357.89 898.209,1360.33 889.709,1364.58C905.021,1366.08 929.573,1384.5 930.018,1404.19C930.422,1422.08 935.469,1440.01 961.094,1452.38C966.906,1450.49 973.156,1448.05 981.656,1443.8C966.344,1442.3 941.792,1423.88 941.348,1404.19Z" style="fill:white;fill-rule:nonzero;"/>
                <path d="M941.348,1404.19C940.943,1386.3 935.896,1368.37 910.271,1356C904.459,1357.89 898.209,1360.33 889.709,1364.58C905.021,1366.08 929.573,1384.5 930.018,1404.19C930.422,1422.08 935.469,1440.01 961.094,1452.38C966.906,1450.49 973.156,1448.05 981.656,1443.8C966.344,1442.3 941.792,1423.88 941.348,1404.19Z" style="fill:none;stroke:black;stroke-width:0.5px;"/>
                <path d="M910.049,1359.91C909.505,1360.5 909.454,1361.73 909.539,1362.81C909.216,1361.66 908.654,1360.19 907.793,1359.66C906.3,1358.73 904.413,1359.08 903.576,1360.42C902.742,1361.77 903.273,1363.61 904.767,1364.54C905.628,1365.07 907.195,1364.92 908.369,1364.7C907.362,1365.1 906.278,1365.7 905.994,1366.45C905.431,1367.93 906.283,1369.69 907.898,1370.37C909.514,1371.05 911.279,1370.39 911.844,1368.9C912.185,1368 911.538,1366.42 910.975,1365.32C912.094,1366.29 913.637,1367.69 914.37,1368.58C914.943,1367.64 915.029,1367.52 915.029,1367.52C915.029,1367.52 915.096,1367.4 915.687,1366.46C914.559,1366.2 912.621,1365.44 911.25,1364.87C912.488,1364.89 914.191,1364.77 914.848,1364.06C915.929,1362.89 915.732,1361.02 914.407,1359.87C913.083,1358.73 911.131,1358.74 910.049,1359.91Z" style="fill-rule:nonzero;"/>
                <path d="M923.566,1369.05C922.942,1369.51 922.677,1370.69 922.566,1371.74C922.46,1370.58 922.182,1369.07 921.45,1368.41C920.184,1367.26 918.316,1367.26 917.277,1368.4C916.241,1369.54 916.427,1371.4 917.693,1372.55C918.424,1373.21 919.952,1373.34 921.114,1373.34C920.079,1373.55 918.936,1373.93 918.532,1374.59C917.73,1375.92 918.238,1377.75 919.666,1378.68C921.093,1379.62 922.899,1379.3 923.701,1377.97C924.188,1377.17 923.847,1375.55 923.502,1374.39C924.4,1375.52 925.633,1377.13 926.177,1378.12C926.892,1377.32 926.996,1377.22 926.996,1377.22C926.996,1377.22 927.081,1377.1 927.811,1376.31C926.777,1375.87 925.056,1374.8 923.843,1374.01C925.025,1374.24 926.679,1374.43 927.432,1373.87C928.671,1372.94 928.813,1371.11 927.747,1369.78C926.681,1368.45 924.809,1368.12 923.566,1369.05Z" style="fill-rule:nonzero;"/>
                <path d="M933.746,1382.11C933.045,1382.25 932.357,1383.11 931.848,1383.94C932.221,1382.94 932.591,1381.58 932.249,1380.74C931.66,1379.28 930.116,1378.54 928.803,1379.07C927.489,1379.6 926.904,1381.21 927.495,1382.67C927.835,1383.51 929.047,1384.22 930.01,1384.68C929.07,1384.44 927.974,1384.3 927.375,1384.69C926.184,1385.47 925.875,1387.19 926.685,1388.53C927.493,1389.87 929.114,1390.32 930.305,1389.55C931.027,1389.08 931.392,1387.6 931.567,1386.5C931.859,1387.8 932.239,1389.62 932.297,1390.65C933.206,1390.27 933.332,1390.23 933.332,1390.23C933.332,1390.23 933.446,1390.17 934.364,1389.81C933.688,1389.03 932.689,1387.46 931.999,1386.33C932.886,1386.99 934.179,1387.8 935.026,1387.63C936.419,1387.36 937.267,1385.9 936.913,1384.38C936.561,1382.85 935.143,1381.84 933.746,1382.11Z" style="fill-rule:nonzero;"/>
                <path d="M937.671,1395.58C937.067,1395.55 936.331,1396.13 935.746,1396.7C936.253,1395.95 936.83,1394.92 936.717,1394.16C936.527,1392.85 935.41,1391.92 934.226,1392.1C933.04,1392.27 932.238,1393.47 932.431,1394.79C932.541,1395.54 933.392,1396.37 934.088,1396.94C933.366,1396.56 932.494,1396.22 931.926,1396.42C930.791,1396.82 930.192,1398.17 930.589,1399.43C930.983,1400.69 932.221,1401.39 933.354,1400.99C934.04,1400.75 934.637,1399.61 935,1398.75C934.981,1399.87 934.927,1401.44 934.767,1402.3C935.589,1402.17 935.7,1402.16 935.7,1402.16C935.7,1402.16 935.805,1402.14 936.631,1402.02C936.232,1401.25 935.729,1399.76 935.391,1398.69C935.985,1399.41 936.884,1400.34 937.611,1400.37C938.809,1400.43 939.796,1399.4 939.813,1398.08C939.83,1396.76 938.871,1395.64 937.671,1395.58Z" style="fill-rule:nonzero;"/>
                <path d="M961.285,1448.46C961.829,1447.88 961.88,1446.64 961.795,1445.56C962.118,1446.71 962.68,1448.18 963.541,1448.71C965.034,1449.64 966.921,1449.3 967.758,1447.95C968.592,1446.6 968.061,1444.76 966.567,1443.84C965.706,1443.3 964.139,1443.45 962.965,1443.67C963.972,1443.27 965.056,1442.67 965.34,1441.93C965.903,1440.44 965.051,1438.68 963.436,1438C961.82,1437.33 960.055,1437.98 959.49,1439.47C959.149,1440.37 959.796,1441.95 960.359,1443.06C959.24,1442.08 957.697,1440.68 956.964,1439.79C956.391,1440.73 956.305,1440.85 956.305,1440.85C956.305,1440.85 956.238,1440.98 955.647,1441.91C956.775,1442.17 958.713,1442.93 960.084,1443.5C958.846,1443.49 957.143,1443.61 956.486,1444.31C955.405,1445.48 955.602,1447.36 956.927,1448.5C958.251,1449.65 960.203,1449.63 961.285,1448.46Z" style="fill-rule:nonzero;"/>
                <path d="M947.768,1439.33C948.392,1438.86 948.657,1437.69 948.768,1436.63C948.874,1437.79 949.152,1439.3 949.884,1439.96C951.15,1441.11 953.018,1441.12 954.057,1439.98C955.093,1438.83 954.907,1436.97 953.641,1435.83C952.91,1435.16 951.382,1435.03 950.22,1435.03C951.255,1434.83 952.398,1434.45 952.802,1433.78C953.604,1432.45 953.096,1430.62 951.668,1429.69C950.241,1428.75 948.435,1429.07 947.633,1430.4C947.146,1431.2 947.487,1432.83 947.832,1433.99C946.934,1432.85 945.701,1431.24 945.157,1430.26C944.442,1431.06 944.338,1431.16 944.338,1431.16C944.338,1431.16 944.253,1431.27 943.523,1432.06C944.557,1432.51 946.278,1433.57 947.491,1434.36C946.309,1434.13 944.655,1433.95 943.902,1434.51C942.663,1435.43 942.521,1437.26 943.587,1438.59C944.653,1439.92 946.525,1440.25 947.768,1439.33Z" style="fill-rule:nonzero;"/>
                <path d="M937.588,1426.27C938.289,1426.13 938.977,1425.26 939.486,1424.44C939.113,1425.44 938.743,1426.79 939.085,1427.63C939.674,1429.09 941.218,1429.84 942.531,1429.31C943.845,1428.77 944.43,1427.16 943.839,1425.71C943.499,1424.87 942.287,1424.15 941.324,1423.69C942.264,1423.93 943.36,1424.07 943.959,1423.68C945.15,1422.9 945.459,1421.19 944.649,1419.85C943.841,1418.5 942.22,1418.05 941.029,1418.83C940.307,1419.3 939.942,1420.78 939.767,1421.87C939.475,1420.58 939.095,1418.76 939.037,1417.72C938.128,1418.1 938.002,1418.14 938.002,1418.14C938.002,1418.14 937.888,1418.2 936.97,1418.56C937.646,1419.34 938.645,1420.91 939.335,1422.05C938.448,1421.39 937.155,1420.58 936.308,1420.74C934.915,1421.01 934.067,1422.47 934.421,1423.99C934.773,1425.52 936.191,1426.54 937.588,1426.27Z" style="fill-rule:nonzero;"/>
                <path d="M933.663,1412.79C934.267,1412.82 935.003,1412.25 935.588,1411.67C935.081,1412.42 934.504,1413.46 934.617,1414.21C934.807,1415.53 935.924,1416.45 937.108,1416.28C938.294,1416.1 939.096,1414.9 938.903,1413.59C938.793,1412.83 937.942,1412 937.246,1411.43C937.968,1411.81 938.84,1412.15 939.408,1411.95C940.543,1411.55 941.142,1410.21 940.745,1408.94C940.351,1407.68 939.113,1406.98 937.98,1407.38C937.294,1407.62 936.697,1408.76 936.334,1409.62C936.353,1408.5 936.407,1406.93 936.567,1406.08C935.745,1406.2 935.634,1406.21 935.634,1406.21C935.634,1406.21 935.529,1406.24 934.703,1406.35C935.102,1407.12 935.604,1408.61 935.943,1409.68C935.349,1408.96 934.45,1408.04 933.723,1408C932.525,1407.95 931.538,1408.97 931.521,1410.29C931.504,1411.61 932.463,1412.73 933.663,1412.79Z" style="fill-rule:nonzero;"/>
                <path d="M921.53,1353.03C919.051,1353.32 918.328,1353.67 916.76,1354.04C919.072,1356.6 927.598,1359.5 934.655,1359.24C945.217,1358.85 952.203,1355.87 956.01,1352.11C949.343,1350.43 921.53,1353.03 921.53,1353.03Z" style="fill:white;fill-rule:nonzero;"/>
                <path d="M921.53,1353.03C919.051,1353.32 918.328,1353.67 916.76,1354.04C919.072,1356.6 927.598,1359.5 934.655,1359.24C945.217,1358.85 952.203,1355.87 956.01,1352.11C949.343,1350.43 921.53,1353.03 921.53,1353.03Z" style="fill:none;stroke:black;stroke-width:0.5px;"/>
                <path d="M919.968,1353.17C924.165,1355.71 929.788,1356.63 934.909,1356.63C940.03,1356.63 948.931,1354.38 952.926,1351.68C952.926,1351.68 945.469,1350.53 938.218,1350.72C930.635,1350.91 924.465,1351.87 919.968,1353.17Z" style="fill:white;fill-rule:nonzero;"/>
                <path d="M919.968,1353.17C924.165,1355.71 929.788,1356.63 934.909,1356.63C940.03,1356.63 948.931,1354.38 952.926,1351.68C952.926,1351.68 945.469,1350.53 938.218,1350.72C930.635,1350.91 924.465,1351.87 919.968,1353.17Z" style="fill:none;stroke:black;stroke-width:0.5px;"/>
                <path d="M949.821,1455.39C952.301,1455.1 953.023,1454.75 954.592,1454.38C952.279,1451.82 943.754,1448.92 936.696,1449.18C926.135,1449.57 919.148,1452.55 915.342,1456.3C922.009,1457.99 949.821,1455.39 949.821,1455.39Z" style="fill:white;fill-rule:nonzero;"/>
                <path d="M949.821,1455.39C952.301,1455.1 953.023,1454.75 954.592,1454.38C952.279,1451.82 943.754,1448.92 936.696,1449.18C926.135,1449.57 919.148,1452.55 915.342,1456.3C922.009,1457.99 949.821,1455.39 949.821,1455.39Z" style="fill:none;stroke:black;stroke-width:0.5px;"/>
                <path d="M951.384,1455.25C947.187,1452.71 941.563,1451.79 936.442,1451.79C931.321,1451.79 922.421,1454.04 918.426,1456.74C918.426,1456.74 925.883,1457.89 933.134,1457.7C940.717,1457.51 946.887,1456.55 951.384,1455.25Z" style="fill:white;fill-rule:nonzero;"/>
                <path d="M951.384,1455.25C947.187,1452.71 941.563,1451.79 936.442,1451.79C931.321,1451.79 922.421,1454.04 918.426,1456.74C918.426,1456.74 925.883,1457.89 933.134,1457.7C940.717,1457.51 946.887,1456.55 951.384,1455.25Z" style="fill:none;stroke:black;stroke-width:0.5px;"/>
                <path d="M949.666,1359.12C948.666,1359.62 940.248,1361.74 935.666,1361.96C932.167,1362.12 927.25,1361.46 926,1360.96C930.084,1363.46 938.417,1373.87 939.666,1379.46C942.25,1374.71 947.25,1363.37 949.666,1359.12Z" style="fill:white;fill-rule:nonzero;"/>
                <path d="M949.666,1359.12C948.666,1359.62 940.248,1361.74 935.666,1361.96C932.167,1362.12 927.25,1361.46 926,1360.96C930.084,1363.46 938.417,1373.87 939.666,1379.46C942.25,1374.71 947.25,1363.37 949.666,1359.12Z" style="fill:none;stroke:black;stroke-width:0.5px;"/>
                <path d="M939.376,1375.25C940.001,1372.96 939.814,1370.23 938.917,1368.12C938.084,1366.17 938.271,1363.21 940.5,1362.62C942.084,1362.21 943.14,1362.87 943.792,1363.96C944.417,1365 944.613,1367.31 942.751,1367.92C941.459,1368.33 939.792,1367.33 939.834,1366.08C939.89,1364.42 941.158,1363.94 941.833,1364.37C942.292,1364.67 942.751,1365.42 942.376,1366.08" style="fill:none;stroke:black;stroke-width:0.5px;stroke-linecap:round;"/>
                <path d="M938.667,1367.5C938.375,1366 937.207,1363.43 935.584,1363.54C934.334,1363.62 933.542,1364.7 933.542,1365.75C933.542,1367.17 934.625,1368.21 935.542,1368.21C936.459,1368.21 936.834,1367.12 936.75,1366.37C936.642,1365.41 935.959,1364.62 935.25,1365.04C934.637,1365.4 934.667,1366.17 935.042,1366.67" style="fill:none;stroke:black;stroke-width:0.5px;stroke-linecap:round;"/>
                <path d="M921.646,1449.21C922.646,1448.71 931.064,1446.59 935.646,1446.37C939.146,1446.21 944.063,1446.87 945.313,1447.37C941.229,1444.87 932.896,1434.46 931.646,1428.87C929.063,1433.62 924.063,1444.96 921.646,1449.21Z" style="fill:white;fill-rule:nonzero;"/>
                <path d="M921.646,1449.21C922.646,1448.71 931.064,1446.59 935.646,1446.37C939.146,1446.21 944.063,1446.87 945.313,1447.37C941.229,1444.87 932.896,1434.46 931.646,1428.87C929.063,1433.62 924.063,1444.96 921.646,1449.21Z" style="fill:none;stroke:black;stroke-width:0.5px;"/>
                <path d="M931.937,1433.08C931.312,1435.37 931.498,1438.1 932.396,1440.21C933.229,1442.17 933.041,1445.12 930.813,1445.71C929.229,1446.12 928.173,1445.46 927.521,1444.37C926.896,1443.33 926.699,1441.02 928.562,1440.42C929.854,1440 931.521,1441 931.479,1442.25C931.423,1443.92 930.154,1444.39 929.479,1443.96C929.021,1443.67 928.562,1442.92 928.937,1442.25" style="fill:none;stroke:black;stroke-width:0.5px;stroke-linecap:round;"/>
                <path d="M932.646,1440.83C932.938,1442.33 934.105,1444.9 935.729,1444.79C936.979,1444.71 937.771,1443.63 937.771,1442.58C937.771,1441.17 936.688,1440.12 935.771,1440.12C934.854,1440.12 934.479,1441.21 934.563,1441.96C934.671,1442.92 935.354,1443.71 936.063,1443.29C936.676,1442.93 936.646,1442.17 936.271,1441.67" style="fill:none;stroke:black;stroke-width:0.5px;stroke-linecap:round;"/>
                <path d="M885.355,1492.16L888.131,1495.28L888.131,1495.34L888.16,1495.31L888.189,1495.34L888.189,1495.28L890.965,1492.16L890.965,1434.24L888.189,1433.82L888.189,1433.81L888.16,1433.81L888.131,1433.81L888.131,1433.82L885.355,1434.24L885.355,1492.16Z" style="fill:white;fill-rule:nonzero;"/>
                <path d="M885.355,1492.16L888.131,1495.28L888.131,1495.34L888.16,1495.31L888.189,1495.34L888.189,1495.28L890.965,1492.16L890.965,1434.24L888.189,1433.82L888.189,1433.81L888.16,1433.81L888.131,1433.81L888.131,1433.82L885.355,1434.24L885.355,1492.16Z" style="fill:none;stroke:black;stroke-width:0.5px;stroke-linejoin:round;"/>
                <path d="M889.106,1434.14C889.189,1435.2 889.564,1438.62 889.481,1443.49C889.386,1449.07 887.647,1452.92 887.605,1457.59C887.567,1461.78 888.938,1466.88 888.938,1471.46C888.939,1474.97 888.564,1480.22 888.188,1483.78C888.189,1480.75 888.481,1475.07 888.397,1471.36C888.319,1467.9 886.854,1462.46 886.855,1457.69C886.856,1451.72 888.521,1447.43 888.438,1443.44C888.356,1439.49 888.064,1435.68 887.814,1434.24C888.231,1434.34 889.106,1434.14 889.106,1434.14Z" style="fill-rule:nonzero;"/>
                <path d="M889.106,1434.14C889.189,1435.2 889.564,1438.62 889.481,1443.49C889.386,1449.07 887.647,1452.92 887.605,1457.59C887.567,1461.78 888.938,1466.88 888.938,1471.46C888.939,1474.97 888.564,1480.22 888.188,1483.78C888.189,1480.75 888.481,1475.07 888.397,1471.36C888.319,1467.9 886.854,1462.46 886.855,1457.69C886.856,1451.72 888.521,1447.43 888.438,1443.44C888.356,1439.49 888.064,1435.68 887.814,1434.24C888.231,1434.34 889.106,1434.14 889.106,1434.14Z" style="fill:none;stroke:black;stroke-width:0.1px;stroke-linejoin:round;"/>
                <path d="M886.707,1420.26C886.707,1418.34 888.057,1416.78 889.721,1416.78C891.386,1416.78 892.734,1418.34 892.734,1420.26L892.734,1425.86C892.734,1427.78 891.386,1429.34 889.721,1429.34C888.057,1429.34 886.707,1427.78 886.707,1425.86L886.707,1420.26Z" style="fill:white;fill-rule:nonzero;"/>
                <path d="M886.707,1420.26C886.707,1418.34 888.057,1416.78 889.721,1416.78C891.386,1416.78 892.734,1418.34 892.734,1420.26L892.734,1425.86C892.734,1427.78 891.386,1429.34 889.721,1429.34C888.057,1429.34 886.707,1427.78 886.707,1425.86L886.707,1420.26Z" style="fill:none;stroke:black;stroke-width:0.5px;stroke-linejoin:round;"/>
                <path d="M887.948,1435.14C892.041,1435.14 895.317,1437.13 896.179,1431.83C893.165,1433.82 889.545,1433.89 889.829,1428.59C890.151,1422.54 890.461,1410.6 887.948,1410.6C885.436,1410.6 885.745,1422.54 886.067,1428.59C886.352,1433.89 882.731,1433.82 879.718,1431.83C880.579,1437.13 883.855,1435.14 887.948,1435.14Z" style="fill:white;fill-rule:nonzero;"/>
                <path d="M887.948,1435.14C892.041,1435.14 895.317,1437.13 896.179,1431.83C893.165,1433.82 889.545,1433.89 889.829,1428.59C890.151,1422.54 890.461,1410.6 887.948,1410.6C885.436,1410.6 885.745,1422.54 886.067,1428.59C886.352,1433.89 882.731,1433.82 879.718,1431.83C880.579,1437.13 883.855,1435.14 887.948,1435.14Z" style="fill:none;stroke:black;stroke-width:0.5px;"/>
                <path d="M882.51,1428.72C882.51,1427.82 883.136,1427.1 883.909,1427.1L886.815,1427.1C887.589,1427.1 888.214,1427.82 888.214,1428.72C888.214,1429.61 887.589,1430.33 886.815,1430.33L883.909,1430.33C883.136,1430.33 882.51,1429.61 882.51,1428.72Z" style="fill:white;fill-rule:nonzero;"/>
                <path d="M882.51,1428.72C882.51,1427.82 883.136,1427.1 883.909,1427.1L886.815,1427.1C887.589,1427.1 888.214,1427.82 888.214,1428.72C888.214,1429.61 887.589,1430.33 886.815,1430.33L883.909,1430.33C883.136,1430.33 882.51,1429.61 882.51,1428.72Z" style="fill:none;stroke:black;stroke-width:0.5px;stroke-linejoin:round;"/>
                <path d="M882.51,1425.48C882.51,1424.59 883.136,1423.87 883.909,1423.87L886.815,1423.87C887.589,1423.87 888.214,1424.59 888.214,1425.48C888.214,1426.38 887.589,1427.1 886.815,1427.1L883.909,1427.1C883.136,1427.1 882.51,1426.38 882.51,1425.48Z" style="fill:white;fill-rule:nonzero;"/>
                <path d="M882.51,1425.48C882.51,1424.59 883.136,1423.87 883.909,1423.87L886.815,1423.87C887.589,1423.87 888.214,1424.59 888.214,1425.48C888.214,1426.38 887.589,1427.1 886.815,1427.1L883.909,1427.1C883.136,1427.1 882.51,1426.38 882.51,1425.48Z" style="fill:none;stroke:black;stroke-width:0.5px;stroke-linejoin:round;"/>
                <path d="M882.402,1422.37C882.402,1421.48 883.027,1420.76 883.802,1420.76L886.707,1420.76C887.48,1420.76 888.106,1421.48 888.106,1422.37C888.106,1423.27 887.48,1423.99 886.707,1423.99L883.802,1423.99C883.027,1423.99 882.402,1423.27 882.402,1422.37Z" style="fill:white;fill-rule:nonzero;"/>
                <path d="M882.402,1422.37C882.402,1421.48 883.027,1420.76 883.802,1420.76L886.707,1420.76C887.48,1420.76 888.106,1421.48 888.106,1422.37C888.106,1423.27 887.48,1423.99 886.707,1423.99L883.802,1423.99C883.027,1423.99 882.402,1423.27 882.402,1422.37Z" style="fill:none;stroke:black;stroke-width:0.5px;stroke-linejoin:round;"/>
                <path d="M882.51,1419.39C882.51,1418.5 883.136,1417.77 883.909,1417.77L886.815,1417.77C887.589,1417.77 888.214,1418.5 888.214,1419.39C888.214,1420.28 887.589,1421.01 886.815,1421.01L883.909,1421.01C883.136,1421.01 882.51,1420.28 882.51,1419.39Z" style="fill:white;fill-rule:nonzero;"/>
                <path d="M882.51,1419.39C882.51,1418.5 883.136,1417.77 883.909,1417.77L886.815,1417.77C887.589,1417.77 888.214,1418.5 888.214,1419.39C888.214,1420.28 887.589,1421.01 886.815,1421.01L883.909,1421.01C883.136,1421.01 882.51,1420.28 882.51,1419.39Z" style="fill:none;stroke:black;stroke-width:0.5px;stroke-linejoin:round;"/>
                <path d="M888.163,1431.87C887.881,1431.09 888.064,1430.27 888.574,1430.02L890.489,1429.09C890.999,1428.84 891.64,1429.27 891.923,1430.04C892.206,1430.82 892.021,1431.65 891.514,1431.89L889.599,1432.82C889.089,1433.08 888.445,1432.65 888.163,1431.87Z" style="fill:white;fill-rule:nonzero;"/>
                <path d="M888.163,1431.87C887.881,1431.09 888.064,1430.27 888.574,1430.02L890.489,1429.09C890.999,1428.84 891.64,1429.27 891.923,1430.04C892.206,1430.82 892.021,1431.65 891.514,1431.89L889.599,1432.82C889.089,1433.08 888.445,1432.65 888.163,1431.87Z" style="fill:none;stroke:black;stroke-width:0.5px;stroke-linejoin:round;"/>
                <path d="M986.01,1316.22L983.234,1313.11L983.234,1313.04L983.205,1313.07L983.176,1313.04L983.176,1313.11L980.4,1316.22L980.4,1374.14L983.176,1374.56L983.176,1374.57L983.234,1374.57L983.234,1374.56L986.01,1374.14L986.01,1316.22Z" style="fill:white;fill-rule:nonzero;"/>
                <path d="M986.01,1316.22L983.234,1313.11L983.234,1313.04L983.205,1313.07L983.176,1313.04L983.176,1313.11L980.4,1316.22L980.4,1374.14L983.176,1374.56L983.176,1374.57L983.234,1374.57L983.234,1374.56L986.01,1374.14L986.01,1316.22Z" style="fill:none;stroke:black;stroke-width:0.5px;stroke-linejoin:round;"/>
                <path d="M982.259,1374.24C982.176,1373.18 981.801,1369.76 981.884,1364.9C981.979,1359.31 983.718,1355.46 983.76,1350.79C983.798,1346.6 982.428,1341.5 982.427,1336.92C982.426,1333.41 982.801,1328.16 983.177,1324.6C983.176,1327.63 982.884,1333.31 982.968,1337.02C983.046,1340.48 984.511,1345.93 984.51,1350.69C984.509,1356.66 982.844,1360.95 982.927,1364.94C983.009,1368.89 983.301,1372.7 983.551,1374.14C983.134,1374.04 982.259,1374.24 982.259,1374.24Z" style="fill-rule:nonzero;"/>
                <path d="M982.259,1374.24C982.176,1373.18 981.801,1369.76 981.884,1364.9C981.979,1359.31 983.718,1355.46 983.76,1350.79C983.798,1346.6 982.428,1341.5 982.427,1336.92C982.426,1333.41 982.801,1328.16 983.177,1324.6C983.176,1327.63 982.884,1333.31 982.968,1337.02C983.046,1340.48 984.511,1345.93 984.51,1350.69C984.509,1356.66 982.844,1360.95 982.927,1364.94C983.009,1368.89 983.301,1372.7 983.551,1374.14C983.134,1374.04 982.259,1374.24 982.259,1374.24Z" style="fill:none;stroke:black;stroke-width:0.1px;stroke-linejoin:round;"/>
                <path d="M984.658,1388.12C984.658,1390.04 983.309,1391.6 981.645,1391.6C979.979,1391.6 978.631,1390.04 978.631,1388.12L978.631,1382.52C978.631,1380.6 979.979,1379.04 981.645,1379.04C983.309,1379.04 984.658,1380.6 984.658,1382.52L984.658,1388.12Z" style="fill:white;fill-rule:nonzero;"/>
                <path d="M984.658,1388.12C984.658,1390.04 983.309,1391.6 981.645,1391.6C979.979,1391.6 978.631,1390.04 978.631,1388.12L978.631,1382.52C978.631,1380.6 979.979,1379.04 981.645,1379.04C983.309,1379.04 984.658,1380.6 984.658,1382.52L984.658,1388.12Z" style="fill:none;stroke:black;stroke-width:0.5px;stroke-linejoin:round;"/>
                <path d="M983.417,1373.24C979.324,1373.24 976.048,1371.25 975.187,1376.55C978.2,1374.56 981.82,1374.49 981.536,1379.79C981.214,1385.84 980.904,1397.78 983.417,1397.78C985.93,1397.78 985.62,1385.84 985.298,1379.79C985.014,1374.49 988.634,1374.56 991.647,1376.55C990.786,1371.25 987.51,1373.24 983.417,1373.24Z" style="fill:white;fill-rule:nonzero;"/>
                <path d="M983.417,1373.24C979.324,1373.24 976.048,1371.25 975.187,1376.55C978.2,1374.56 981.82,1374.49 981.536,1379.79C981.214,1385.84 980.904,1397.78 983.417,1397.78C985.93,1397.78 985.62,1385.84 985.298,1379.79C985.014,1374.49 988.634,1374.56 991.647,1376.55C990.786,1371.25 987.51,1373.24 983.417,1373.24Z" style="fill:none;stroke:black;stroke-width:0.5px;"/>
                <path d="M988.855,1379.66C988.855,1380.56 988.229,1381.28 987.456,1381.28L984.55,1381.28C983.776,1381.28 983.151,1380.56 983.151,1379.66C983.151,1378.77 983.776,1378.05 984.55,1378.05L987.456,1378.05C988.229,1378.05 988.855,1378.77 988.855,1379.66Z" style="fill:white;fill-rule:nonzero;"/>
                <path d="M988.855,1379.66C988.855,1380.56 988.229,1381.28 987.456,1381.28L984.55,1381.28C983.776,1381.28 983.151,1380.56 983.151,1379.66C983.151,1378.77 983.776,1378.05 984.55,1378.05L987.456,1378.05C988.229,1378.05 988.855,1378.77 988.855,1379.66Z" style="fill:none;stroke:black;stroke-width:0.5px;stroke-linejoin:round;"/>
                <path d="M988.855,1382.9C988.855,1383.79 988.229,1384.51 987.456,1384.51L984.55,1384.51C983.776,1384.51 983.151,1383.79 983.151,1382.9C983.151,1382 983.776,1381.28 984.55,1381.28L987.456,1381.28C988.229,1381.28 988.855,1382 988.855,1382.9Z" style="fill:white;fill-rule:nonzero;"/>
                <path d="M988.855,1382.9C988.855,1383.79 988.229,1384.51 987.456,1384.51L984.55,1384.51C983.776,1384.51 983.151,1383.79 983.151,1382.9C983.151,1382 983.776,1381.28 984.55,1381.28L987.456,1381.28C988.229,1381.28 988.855,1382 988.855,1382.9Z" style="fill:none;stroke:black;stroke-width:0.5px;stroke-linejoin:round;"/>
                <path d="M988.963,1386.01C988.963,1386.9 988.338,1387.62 987.563,1387.62L984.658,1387.62C983.885,1387.62 983.259,1386.9 983.259,1386.01C983.259,1385.11 983.885,1384.39 984.658,1384.39L987.563,1384.39C988.338,1384.39 988.963,1385.11 988.963,1386.01Z" style="fill:white;fill-rule:nonzero;"/>
                <path d="M988.963,1386.01C988.963,1386.9 988.338,1387.62 987.563,1387.62L984.658,1387.62C983.885,1387.62 983.259,1386.9 983.259,1386.01C983.259,1385.11 983.885,1384.39 984.658,1384.39L987.563,1384.39C988.338,1384.39 988.963,1385.11 988.963,1386.01Z" style="fill:none;stroke:black;stroke-width:0.5px;stroke-linejoin:round;"/>
                <path d="M988.855,1388.99C988.855,1389.88 988.229,1390.61 987.456,1390.61L984.55,1390.61C983.776,1390.61 983.151,1389.88 983.151,1388.99C983.151,1388.1 983.776,1387.37 984.55,1387.37L987.456,1387.37C988.229,1387.37 988.855,1388.1 988.855,1388.99Z" style="fill:white;fill-rule:nonzero;"/>
                <path d="M988.855,1388.99C988.855,1389.88 988.229,1390.61 987.456,1390.61L984.55,1390.61C983.776,1390.61 983.151,1389.88 983.151,1388.99C983.151,1388.1 983.776,1387.37 984.55,1387.37L987.456,1387.37C988.229,1387.37 988.855,1388.1 988.855,1388.99Z" style="fill:none;stroke:black;stroke-width:0.5px;stroke-linejoin:round;"/>
                <path d="M983.202,1376.51C983.484,1377.29 983.301,1378.11 982.791,1378.36L980.876,1379.29C980.366,1379.54 979.726,1379.11 979.442,1378.34C979.159,1377.56 979.345,1376.74 979.852,1376.49L981.767,1375.56C982.276,1375.3 982.92,1375.73 983.202,1376.51Z" style="fill:white;fill-rule:nonzero;"/>
                <path d="M983.202,1376.51C983.484,1377.29 983.301,1378.11 982.791,1378.36L980.876,1379.29C980.366,1379.54 979.726,1379.11 979.442,1378.34C979.159,1377.56 979.345,1376.74 979.852,1376.49L981.767,1375.56C982.276,1375.3 982.92,1375.73 983.202,1376.51Z" style="fill:none;stroke:black;stroke-width:0.5px;stroke-linejoin:round;"/>
                <path d="M921.3,1352.18C922.866,1352.71 930.317,1352.35 930.985,1352.26C931.684,1352.16 933.926,1351.71 934.593,1350.29C933.771,1350.15 929.865,1350.9 928.564,1351.01C926.654,1351.17 921.671,1352 921.3,1352.18Z" style="fill:white;fill-rule:nonzero;"/>
                <path d="M919.49,1312.18C919.49,1315.81 916.933,1337.78 914.063,1341.87C911.449,1345.6 912.781,1349 914.371,1350.87C915.328,1352 916.183,1351.81 916.854,1351.65" style="fill:none;stroke:black;stroke-width:0.5px;stroke-linecap:round;"/>
                <path d="M921.249,1312.18C921.249,1315.81 918.69,1337.78 915.822,1341.87C913.208,1345.6 914.558,1348.96 916.131,1350.87C917.061,1352 918.296,1352.43 918.921,1351.89" style="fill:none;stroke:black;stroke-width:0.5px;stroke-linecap:round;"/>
                <path d="M923.007,1312.18C923.007,1315.81 920.448,1337.78 917.579,1341.87C914.966,1345.6 916.304,1348.98 917.889,1350.87C918.998,1352.2 919.893,1352.14 920.693,1351.99" style="fill:none;stroke:black;stroke-width:0.5px;stroke-linecap:round;"/>
                <path d="M924.766,1312.18C924.766,1315.81 922.208,1337.78 919.339,1341.87C916.725,1345.6 918.016,1349.08 919.647,1350.87C921.663,1353.09 922.511,1352.47 922.906,1352.25" style="fill:none;stroke:black;stroke-width:0.5px;stroke-linecap:round;"/>
                <path d="M926.524,1312.18C926.524,1315.81 923.965,1337.78 921.098,1341.87C918.483,1345.6 919.811,1349.03 921.407,1350.87C923.046,1352.77 924.234,1352.65 924.699,1352.42" style="fill:none;stroke:black;stroke-width:0.5px;stroke-linecap:round;"/>
                <path d="M928.283,1312.18C928.283,1315.81 925.724,1337.78 922.855,1341.87C920.241,1345.6 921.568,1349.03 923.167,1350.87C924.932,1352.92 926.002,1352.6 926.726,1352.45" style="fill:none;stroke:black;stroke-width:0.5px;stroke-linecap:round;"/>
                <path d="M930.042,1312.18C930.042,1315.81 927.481,1337.78 924.614,1341.87C921.999,1345.6 923.279,1349.1 924.925,1350.87C926.329,1352.39 927.224,1352.81 927.982,1352.42" style="fill:none;stroke:black;stroke-width:0.5px;stroke-linecap:round;"/>
                <path d="M931.8,1312.18C931.8,1315.81 929.241,1337.78 926.372,1341.87C923.758,1345.6 925.118,1348.98 926.683,1350.87C927.889,1352.34 928.774,1352.92 929.868,1352.36" style="fill:none;stroke:black;stroke-width:0.5px;stroke-linecap:round;"/>
                <path d="M933.559,1312.18C933.559,1315.81 931,1337.78 928.13,1341.87C925.518,1345.6 926.846,1349.03 928.44,1350.87C930.078,1352.77 930.985,1352.51 931.662,1352.04" style="fill:none;stroke:black;stroke-width:0.5px;stroke-linecap:round;"/>
                <path d="M935.317,1312.18C935.317,1315.81 932.758,1337.78 929.89,1341.87C927.276,1345.6 928.567,1349.08 930.199,1350.87C932.214,1353.09 935.236,1351.63 934.945,1348.34C934.82,1346.94 934.076,1345.38 932.524,1346.08C930.971,1346.78 930.302,1348.48 931.28,1349.59C933.144,1351.69 935.441,1347.25 932.151,1348.42C931.491,1348.66 933.284,1347.58 933.702,1348.5C933.951,1349.05 933.72,1349.96 932.896,1350.14C932.151,1350.29 930.894,1350.19 930.412,1348.81C929.728,1346.86 929.665,1344.99 931.095,1342.97C932.585,1340.86 933.393,1335.87 934.51,1330.89C936.027,1324.12 936.809,1314.05 936.809,1312.26C936.809,1310.47 935.317,1312.18 935.317,1312.18Z" style="fill:none;stroke:black;stroke-width:0.5px;stroke-linecap:round;"/>
                <path d="M958.093,1313.17C960.093,1325.92 959.468,1334.04 959.718,1342.92C959.775,1344.95 963.968,1345.17 962.843,1348.92C962.023,1351.65 960.093,1351.79 959.093,1351.42" style="fill:none;stroke:black;stroke-width:0.5px;"/>
                <path d="M950.065,1456.2C948.499,1455.68 941.048,1456.03 940.38,1456.12C939.682,1456.22 937.439,1456.67 936.772,1458.09C937.594,1458.23 941.5,1457.48 942.801,1457.37C944.711,1457.21 949.694,1456.38 950.065,1456.2Z" style="fill:white;fill-rule:nonzero;"/>
                <path d="M951.875,1496.2C951.875,1492.58 954.433,1470.6 957.303,1466.51C959.916,1462.78 958.584,1459.39 956.994,1457.51C956.037,1456.38 955.183,1456.57 954.512,1456.73" style="fill:none;stroke:black;stroke-width:0.5px;stroke-linecap:round;"/>
                <path d="M950.116,1496.2C950.116,1492.58 952.675,1470.6 955.543,1466.51C958.157,1462.78 956.808,1459.42 955.234,1457.51C954.305,1456.38 953.069,1455.96 952.444,1456.5" style="fill:none;stroke:black;stroke-width:0.5px;stroke-linecap:round;"/>
                <path d="M948.358,1496.2C948.358,1492.58 950.917,1470.6 953.786,1466.51C956.399,1462.78 955.062,1459.4 953.477,1457.51C952.367,1456.18 951.473,1456.24 950.672,1456.4" style="fill:none;stroke:black;stroke-width:0.5px;stroke-linecap:round;"/>
                <path d="M946.6,1496.2C946.6,1492.58 949.157,1470.6 952.026,1466.51C954.641,1462.78 953.35,1459.31 951.718,1457.51C949.702,1455.29 948.854,1455.91 948.459,1456.13" style="fill:none;stroke:black;stroke-width:0.5px;stroke-linecap:round;"/>
                <path d="M944.841,1496.2C944.841,1492.58 947.4,1470.6 950.268,1466.51C952.882,1462.78 951.555,1459.36 949.958,1457.51C948.319,1455.61 947.131,1455.73 946.666,1455.96" style="fill:none;stroke:black;stroke-width:0.5px;stroke-linecap:round;"/>
                <path d="M943.082,1496.2C943.082,1492.58 945.642,1470.6 948.51,1466.51C951.124,1462.78 949.797,1459.36 948.198,1457.51C946.434,1455.46 945.363,1455.78 944.64,1455.93" style="fill:none;stroke:black;stroke-width:0.5px;stroke-linecap:round;"/>
                <path d="M941.323,1496.2C941.323,1492.58 943.884,1470.6 946.751,1466.51C949.366,1462.78 948.086,1459.28 946.44,1457.51C945.036,1455.99 944.142,1455.57 943.383,1455.96" style="fill:none;stroke:black;stroke-width:0.5px;stroke-linecap:round;"/>
                <path d="M939.565,1496.2C939.565,1492.58 942.124,1470.6 944.993,1466.51C947.607,1462.78 946.247,1459.4 944.683,1457.51C943.477,1456.04 942.591,1455.46 941.497,1456.02" style="fill:none;stroke:black;stroke-width:0.5px;stroke-linecap:round;"/>
                <path d="M937.807,1496.2C937.807,1492.58 940.365,1470.6 943.235,1466.51C945.848,1462.78 944.52,1459.36 942.925,1457.51C941.287,1455.61 940.38,1455.87 939.703,1456.34" style="fill:none;stroke:black;stroke-width:0.5px;stroke-linecap:round;"/>
                <path d="M936.048,1496.2C936.048,1492.58 938.607,1470.6 941.476,1466.51C944.089,1462.78 942.798,1459.31 941.166,1457.51C939.151,1455.29 936.129,1456.75 936.42,1460.04C936.545,1461.44 937.289,1463 938.841,1462.3C940.395,1461.6 941.063,1459.9 940.085,1458.79C938.222,1456.69 935.924,1461.13 939.214,1459.96C939.874,1459.72 938.081,1460.8 937.663,1459.88C937.414,1459.33 937.646,1458.42 938.47,1458.25C939.214,1458.09 940.472,1458.19 940.953,1459.57C941.638,1461.52 941.7,1463.4 940.271,1465.41C938.78,1467.52 937.973,1472.51 936.855,1477.49C935.338,1484.26 934.557,1494.33 934.557,1496.12C934.557,1497.91 936.048,1496.2 936.048,1496.2Z" style="fill:none;stroke:black;stroke-width:0.5px;stroke-linecap:round;"/>
            </g>
            <g>
                <path d="M913.272,1495.22C911.272,1482.47 911.897,1474.34 911.647,1465.47C911.59,1463.43 907.397,1463.22 908.522,1459.47C909.342,1456.74 911.272,1456.59 912.272,1456.97" style="fill:none;stroke:black;stroke-width:0.5px;"/>
                <path d="M944.014,1326.06C940.013,1326.53 940.353,1325.43 937.204,1324.65C939.245,1323.56 941.175,1320.9 945.035,1323.56" style="fill:none;stroke:black;stroke-width:0.5px;stroke-linecap:round;stroke-linejoin:round;"/>
                <path d="M940.122,1324.1C940.254,1325.08 940.874,1325.87 941.801,1325.87C942.726,1325.87 943.289,1325.06 943.478,1324.1C943.729,1322.83 942.752,1322.58 941.885,1322.54C940.748,1322.49 939.929,1322.67 940.122,1324.1Z" style="fill:none;stroke:black;stroke-width:0.5px;"/>
                <path d="M942.638,1323.92C942.638,1324.4 942.313,1324.78 941.915,1324.78C941.516,1324.78 941.19,1324.4 941.19,1323.92C941.19,1323.45 941.516,1323.06 941.915,1323.06C942.313,1323.06 942.638,1323.45 942.638,1323.92Z" style="fill-rule:nonzero;"/>
                <path d="M955.544,1326.39C951.543,1326.86 949.861,1325.59 949.724,1324.65C949.61,1323.87 952.705,1321.24 956.563,1323.89" style="fill:none;stroke:black;stroke-width:0.5px;stroke-linecap:round;stroke-linejoin:round;"/>
                <path d="M951.653,1324.44C951.785,1325.41 952.403,1326.21 953.331,1326.21C954.256,1326.21 954.819,1325.4 955.008,1324.44C955.259,1323.17 954.282,1322.92 953.414,1322.88C952.278,1322.83 951.458,1323.01 951.653,1324.44Z" style="fill:none;stroke:black;stroke-width:0.5px;"/>
                <path d="M954.167,1324.26C954.167,1324.74 953.843,1325.12 953.443,1325.12C953.045,1325.12 952.721,1324.74 952.721,1324.26C952.721,1323.79 953.045,1323.4 953.443,1323.4C953.843,1323.4 954.167,1323.79 954.167,1324.26Z" style="fill-rule:nonzero;"/>
                <path d="M949.655,1322.95C949.145,1326.85 951.868,1329.98 952.04,1332.33C952.141,1333.73 950.507,1334.67 948.975,1334.52" style="fill:none;stroke:black;stroke-width:0.5px;stroke-linecap:round;stroke-linejoin:round;"/>
                <path d="M949.272,1333.34C947.911,1333.34 948.149,1333.76 946.975,1334.08C946.51,1334.21 945.4,1334.36 945.061,1333.19" style="fill:none;stroke:black;stroke-width:0.25px;stroke-linecap:round;stroke-linejoin:round;"/>
                <path d="M944.48,1320.46C943.563,1320.84 942.632,1321.17 940.815,1320.82C939.638,1320.59 938.047,1321.17 937.099,1321.66" style="fill:none;stroke:black;stroke-width:0.5px;stroke-linecap:round;"/>
                <path d="M949.112,1320.05C950.003,1320.5 950.903,1320.9 952.664,1320.66C953.805,1320.51 955.349,1321.21 956.264,1321.76" style="fill:none;stroke:black;stroke-width:0.5px;stroke-linecap:round;"/>
                <path d="M947.806,1337.11C947.354,1336.24 945.106,1337.15 944.105,1337.61C943.105,1338.07 941.552,1338.05 941.106,1337.84C940.506,1337.57 939.856,1337.25 940.105,1336.15C939.108,1337.25 939.876,1338.75 941.556,1338.99C942.856,1339.17 944.38,1339.31 946.056,1338.62C947.445,1338.05 948.131,1337.74 947.806,1337.11Z" style="fill-rule:nonzero;"/>
                <path d="M948.953,1336.97C949.403,1336.1 951.653,1337.02 952.651,1337.48C953.652,1337.94 955.206,1337.91 955.651,1337.71C956.251,1337.43 956.901,1337.11 956.652,1336.01C957.651,1337.11 956.883,1338.62 955.202,1338.85C953.901,1339.04 952.378,1339.17 950.704,1338.49C949.313,1337.92 948.627,1337.6 948.953,1336.97Z" style="fill-rule:nonzero;"/>
                <path d="M943.307,1341.06C944.556,1340.83 945.215,1340.49 946.205,1340.14C946.854,1339.91 947.954,1339.27 948.704,1340.23C949.252,1339.63 949.555,1339.72 950.603,1340.14C951.653,1340.55 951.901,1340.96 953.202,1341.24C951.502,1341.19 949.403,1341.01 948.104,1340.96C946.955,1340.92 945.903,1340.78 943.307,1341.06Z" style="fill:none;stroke:black;stroke-width:0.5px;stroke-linejoin:round;"/>
                <path d="M947.004,1343.17C947.805,1343.54 949.405,1343.54 950.305,1343.08" style="fill:none;stroke:black;stroke-width:0.5px;stroke-linecap:round;stroke-linejoin:round;"/>
                <path d="M957.039,1314.05C957.351,1318.73 960.163,1338.68 956.727,1345.23" style="fill:none;stroke:black;stroke-width:0.5px;stroke-linecap:round;"/>
                <path d="M927.355,1482.32C931.356,1481.85 931.017,1482.95 934.165,1483.73C932.124,1484.83 930.194,1487.48 926.334,1484.83" style="fill:none;stroke:black;stroke-width:0.5px;stroke-linecap:round;stroke-linejoin:round;"/>
                <path d="M931.247,1484.28C931.115,1483.3 930.495,1482.51 929.568,1482.51C928.644,1482.51 928.08,1483.32 927.892,1484.28C927.64,1485.55 928.617,1485.8 929.484,1485.84C930.621,1485.89 931.44,1485.71 931.247,1484.28Z" style="fill:none;stroke:black;stroke-width:0.5px;"/>
                <path d="M928.731,1484.46C928.731,1483.99 929.056,1483.6 929.454,1483.6C929.854,1483.6 930.179,1483.99 930.179,1484.46C930.179,1484.94 929.854,1485.32 929.454,1485.32C929.056,1485.32 928.731,1484.94 928.731,1484.46Z" style="fill-rule:nonzero;"/>
                <path d="M915.825,1481.99C919.826,1481.52 921.508,1482.79 921.646,1483.73C921.759,1484.51 918.664,1487.14 914.806,1484.49" style="fill:none;stroke:black;stroke-width:0.5px;stroke-linecap:round;stroke-linejoin:round;"/>
                <path d="M919.716,1483.94C919.584,1482.97 918.966,1482.17 918.038,1482.17C917.113,1482.17 916.55,1482.98 916.361,1483.94C916.11,1485.21 917.087,1485.46 917.955,1485.5C919.091,1485.55 919.911,1485.37 919.716,1483.94Z" style="fill:none;stroke:black;stroke-width:0.5px;"/>
                <path d="M917.202,1484.12C917.202,1483.65 917.526,1483.26 917.926,1483.26C918.324,1483.26 918.648,1483.65 918.648,1484.12C918.648,1484.6 918.324,1484.98 917.926,1484.98C917.526,1484.98 917.202,1484.6 917.202,1484.12Z" style="fill-rule:nonzero;"/>
                <path d="M921.714,1485.44C922.225,1481.53 919.501,1478.4 919.329,1476.06C919.229,1474.65 920.862,1473.71 922.395,1473.87" style="fill:none;stroke:black;stroke-width:0.5px;stroke-linecap:round;stroke-linejoin:round;"/>
                <path d="M922.097,1475.04C923.458,1475.04 923.22,1474.62 924.395,1474.3C924.859,1474.17 925.969,1474.02 926.309,1475.19" style="fill:none;stroke:black;stroke-width:0.25px;stroke-linecap:round;stroke-linejoin:round;"/>
                <path d="M926.889,1487.92C927.807,1487.54 928.737,1487.21 930.554,1487.56C931.731,1487.79 933.322,1487.21 934.271,1486.72" style="fill:none;stroke:black;stroke-width:0.5px;stroke-linecap:round;"/>
                <path d="M922.257,1488.33C921.366,1487.88 920.466,1487.48 918.705,1487.72C917.564,1487.87 916.021,1487.17 915.105,1486.62" style="fill:none;stroke:black;stroke-width:0.5px;stroke-linecap:round;"/>
                <path d="M923.563,1471.27C924.015,1472.14 926.263,1471.23 927.264,1470.77C928.264,1470.31 929.817,1470.33 930.263,1470.54C930.863,1470.82 931.513,1471.14 931.264,1472.24C932.261,1471.14 931.493,1469.63 929.813,1469.39C928.513,1469.21 926.989,1469.07 925.313,1469.76C923.924,1470.33 923.238,1470.64 923.563,1471.27Z" style="fill-rule:nonzero;"/>
                <path d="M922.416,1471.41C921.966,1472.28 919.716,1471.36 918.718,1470.91C917.717,1470.45 916.163,1470.47 915.718,1470.68C915.118,1470.95 914.468,1471.27 914.717,1472.37C913.718,1471.27 914.486,1469.76 916.167,1469.53C917.468,1469.34 918.991,1469.21 920.665,1469.9C922.057,1470.47 922.742,1470.78 922.416,1471.41Z" style="fill-rule:nonzero;"/>
                <path d="M928.063,1467.33C926.813,1467.55 926.154,1467.89 925.164,1468.24C924.516,1468.47 923.415,1469.11 922.665,1468.15C922.117,1468.75 921.814,1468.66 920.767,1468.24C919.716,1467.83 919.468,1467.42 918.167,1467.14C919.867,1467.19 921.966,1467.37 923.265,1467.42C924.414,1467.46 925.466,1467.6 928.063,1467.33Z" style="fill:none;stroke:black;stroke-width:0.5px;stroke-linejoin:round;"/>
                <path d="M924.365,1465.21C923.564,1464.84 921.964,1464.84 921.064,1465.3" style="fill:none;stroke:black;stroke-width:0.5px;stroke-linecap:round;stroke-linejoin:round;"/>
                <path d="M914.33,1494.33C914.019,1489.65 911.206,1469.7 914.643,1463.16" style="fill:none;stroke:black;stroke-width:0.5px;stroke-linecap:round;"/>
                <path d="M936.438,1350.38C936.438,1350.38 937.55,1351.72 938.37,1352.04C939.717,1352.57 941.502,1352.55 942.471,1352.51C943.876,1352.45 946.005,1351.64 946.676,1350.75C947.172,1350.09 936.438,1350.38 936.438,1350.38Z" style="fill:white;fill-rule:nonzero;"/>
                <path d="M949.728,1350.51C949.728,1350.51 950.841,1351.76 951.661,1352.09C953.008,1352.61 954.793,1352.59 955.762,1352.55C957.167,1352.49 959.204,1351.61 959.967,1350.79C960.413,1350.31 949.728,1350.51 949.728,1350.51Z" style="fill:white;fill-rule:nonzero;"/>
                <path d="M947.86,1347.02C947.626,1350 946.044,1352.28 943.058,1352.57C939.621,1352.91 937.206,1351.91 936.417,1350.52C935.851,1349.53 935.792,1347.72 937.667,1347.09C939.541,1346.47 941.123,1348.65 939.073,1350.12" style="fill:none;stroke:black;stroke-width:0.5px;stroke-linecap:round;"/>
                <path d="M945.341,1346.84C944.931,1349 943.921,1352.43 941.344,1352.6" style="fill:none;stroke:black;stroke-width:0.5px;stroke-linecap:round;"/>
                <path d="M942.647,1346.73C942.647,1348.28 940.672,1353.05 938.271,1352" style="fill:none;stroke:black;stroke-width:0.5px;stroke-linecap:round;"/>
                <path d="M948.798,1347.02C949.032,1350 950.613,1352.28 953.602,1352.57C957.037,1352.91 959.453,1351.91 960.241,1350.52C960.808,1349.53 960.866,1347.72 958.991,1347.09C957.116,1346.47 955.535,1348.65 957.585,1350.12" style="fill:none;stroke:black;stroke-width:0.5px;stroke-linecap:round;"/>
                <path d="M951.316,1346.84C951.727,1349 952.664,1352.51 955.241,1352.69" style="fill:none;stroke:black;stroke-width:0.5px;stroke-linecap:round;"/>
                <path d="M954.012,1346.73C954.012,1348.28 955.973,1353.09 958.375,1352.04" style="fill:none;stroke:black;stroke-width:0.5px;stroke-linecap:round;"/>
                <path d="M934.938,1458.07C934.938,1458.07 933.746,1456.72 932.926,1456.4C931.579,1455.87 929.794,1455.89 928.825,1455.93C927.42,1455.99 925.292,1456.8 924.62,1457.69C924.078,1458.42 934.938,1458.07 934.938,1458.07Z" style="fill:white;fill-rule:nonzero;"/>
                <path d="M921.638,1457.87C921.638,1457.87 920.524,1456.62 919.704,1456.29C918.357,1455.77 916.572,1455.79 915.604,1455.83C914.198,1455.89 912.161,1456.77 911.398,1457.59C910.952,1458.07 921.638,1457.87 921.638,1457.87Z" style="fill:white;fill-rule:nonzero;"/>
                <path d="M923.505,1461.36C923.739,1458.38 925.321,1456.1 928.308,1455.81C931.744,1455.47 934.159,1456.47 934.948,1457.86C935.515,1458.85 935.573,1460.66 933.698,1461.29C931.824,1461.91 930.242,1459.73 932.292,1458.27" style="fill:none;stroke:black;stroke-width:0.5px;stroke-linecap:round;"/>
                <path d="M926.024,1461.54C926.435,1459.38 927.392,1455.93 929.969,1455.76" style="fill:none;stroke:black;stroke-width:0.5px;stroke-linecap:round;"/>
                <path d="M928.718,1461.66C928.718,1460.1 930.755,1455.33 933.156,1456.38" style="fill:none;stroke:black;stroke-width:0.5px;stroke-linecap:round;"/>
                <path d="M922.567,1461.36C922.333,1458.38 920.752,1456.1 917.764,1455.81C914.328,1455.47 911.912,1456.47 911.124,1457.86C910.558,1458.85 910.499,1460.66 912.374,1461.29C914.249,1461.91 915.83,1459.73 913.78,1458.27" style="fill:none;stroke:black;stroke-width:0.5px;stroke-linecap:round;"/>
                <path d="M920.049,1461.54C919.639,1459.38 918.701,1455.87 916.124,1455.69" style="fill:none;stroke:black;stroke-width:0.5px;stroke-linecap:round;"/>
                <path d="M917.354,1461.66C917.354,1460.1 915.309,1455.35 912.906,1456.4" style="fill:none;stroke:black;stroke-width:0.5px;stroke-linecap:round;"/>
                <path d="M918.905,1317.79C922.78,1316.67 929.905,1315.6 938.78,1315.54C947.03,1315.48 954.905,1316.54 958.843,1318.29C960.843,1313.79 965.093,1305.17 965.093,1305.17L912.718,1305.17L918.905,1317.79Z" style="fill:white;fill-rule:nonzero;"/>
                <path d="M918.905,1317.79C922.78,1316.67 929.905,1315.6 938.78,1315.54C947.03,1315.48 954.905,1316.54 958.843,1318.29C960.843,1313.79 965.093,1305.17 965.093,1305.17L912.718,1305.17L918.905,1317.79Z" style="fill:none;stroke:black;stroke-width:0.5px;"/>
                <path d="M918.51,1316.83C929.551,1313.75 947.135,1313.54 959.343,1317.17C959.676,1316.5 959.926,1315.96 960.301,1315.12C947.801,1311.62 932.135,1310.96 917.468,1314.92C917.926,1315.71 918.51,1316.83 918.51,1316.83Z" style="fill-rule:nonzero;"/>
                <path d="M918.51,1316.83C929.551,1313.75 947.135,1313.54 959.343,1317.17C959.676,1316.5 959.926,1315.96 960.301,1315.12C947.801,1311.62 932.135,1310.96 917.468,1314.92C917.926,1315.71 918.51,1316.83 918.51,1316.83Z" style="fill:none;stroke:black;stroke-width:0.5px;"/>
                <path d="M958.593,1310.4C957.426,1311.09 953.672,1311 952.924,1310.4C954.509,1312.08 956.427,1311.98 958.593,1310.4Z" style="fill-rule:nonzero;"/>
                <path d="M952.924,1310.4C951.757,1311.09 948.003,1311 947.255,1310.4C948.84,1312.08 950.758,1311.98 952.924,1310.4Z" style="fill-rule:nonzero;"/>
                <path d="M947.255,1310.4C946.088,1311.09 942.334,1311 941.586,1310.4C943.171,1312.08 945.089,1311.98 947.255,1310.4Z" style="fill-rule:nonzero;"/>
                <path d="M941.586,1310.4C940.419,1311.09 936.665,1311 935.917,1310.4C937.502,1312.08 939.42,1311.98 941.586,1310.4Z" style="fill-rule:nonzero;"/>
                <path d="M935.917,1310.4C934.75,1311.09 930.996,1311 930.248,1310.4C931.833,1312.08 933.751,1311.98 935.917,1310.4Z" style="fill-rule:nonzero;"/>
                <path d="M930.248,1310.4C929.081,1311.09 925.327,1311 924.579,1310.4C926.164,1312.08 928.082,1311.98 930.248,1310.4Z" style="fill-rule:nonzero;"/>
                <path d="M924.579,1310.4C923.412,1311.09 919.658,1311 918.91,1310.4C920.495,1312.08 922.413,1311.98 924.579,1310.4Z" style="fill-rule:nonzero;"/>
                <path d="M952.46,1490.59C948.585,1491.72 941.46,1492.78 932.585,1492.84C924.335,1492.9 916.46,1491.84 912.522,1490.09C910.522,1494.59 906.272,1503.22 906.272,1503.22L958.647,1503.22L952.46,1490.59Z" style="fill:white;fill-rule:nonzero;"/>
                <path d="M952.46,1490.59C948.585,1491.72 941.46,1492.78 932.585,1492.84C924.335,1492.9 916.46,1491.84 912.522,1490.09C910.522,1494.59 906.272,1503.22 906.272,1503.22L958.647,1503.22L952.46,1490.59Z" style="fill:none;stroke:black;stroke-width:0.5px;"/>
                <path d="M952.855,1491.55C941.814,1494.63 924.23,1494.84 912.022,1491.22C911.689,1491.88 911.439,1492.42 911.064,1493.26C923.564,1496.76 939.23,1497.42 953.897,1493.46C953.439,1492.67 952.855,1491.55 952.855,1491.55Z" style="fill-rule:nonzero;"/>
                <path d="M952.855,1491.55C941.814,1494.63 924.23,1494.84 912.022,1491.22C911.689,1491.88 911.439,1492.42 911.064,1493.26C923.564,1496.76 939.23,1497.42 953.897,1493.46C953.439,1492.67 952.855,1491.55 952.855,1491.55Z" style="fill:none;stroke:black;stroke-width:0.5px;"/>
                <path d="M912.556,1497.98C913.723,1497.29 917.477,1497.38 918.225,1497.98C916.64,1496.3 914.722,1496.4 912.556,1497.98Z" style="fill-rule:nonzero;"/>
                <path d="M918.225,1497.98C919.392,1497.29 923.146,1497.38 923.894,1497.98C922.309,1496.3 920.391,1496.4 918.225,1497.98Z" style="fill-rule:nonzero;"/>
                <path d="M923.894,1497.98C925.061,1497.29 928.814,1497.38 929.563,1497.98C927.978,1496.3 926.06,1496.4 923.894,1497.98Z" style="fill-rule:nonzero;"/>
                <path d="M929.563,1497.98C930.729,1497.29 934.483,1497.38 935.231,1497.98C933.646,1496.3 931.729,1496.4 929.563,1497.98Z" style="fill-rule:nonzero;"/>
                <path d="M935.231,1497.98C936.398,1497.29 940.152,1497.38 940.9,1497.98C939.315,1496.3 937.397,1496.4 935.231,1497.98Z" style="fill-rule:nonzero;"/>
                <path d="M940.9,1497.98C942.067,1497.29 945.821,1497.38 946.569,1497.98C944.984,1496.3 943.066,1496.4 940.9,1497.98Z" style="fill-rule:nonzero;"/>
                <path d="M946.569,1497.98C947.736,1497.29 951.49,1497.38 952.238,1497.98C950.653,1496.3 948.735,1496.4 946.569,1497.98Z" style="fill-rule:nonzero;"/>
                <path d="M920.485,1307.69C920.169,1307.62 919.734,1307.87 919.382,1308.13C919.708,1307.77 920.092,1307.27 920.092,1306.86C920.092,1306.15 919.574,1305.58 918.935,1305.58C918.295,1305.58 917.777,1306.15 917.777,1306.86C917.777,1307.27 918.162,1307.77 918.487,1308.13C918.135,1307.87 917.7,1307.62 917.384,1307.69C916.754,1307.81 916.334,1308.48 916.444,1309.17C916.556,1309.87 917.156,1310.34 917.785,1310.21C918.167,1310.14 918.57,1309.58 918.829,1309.15C918.732,1309.74 918.582,1310.57 918.431,1311.01L919.438,1311.01C919.287,1310.57 919.137,1309.74 919.04,1309.15C919.299,1309.58 919.702,1310.14 920.084,1310.21C920.713,1310.34 921.313,1309.87 921.425,1309.17C921.535,1308.48 921.115,1307.81 920.485,1307.69Z" style="fill-rule:nonzero;"/>
                <path d="M926.154,1307.69C925.838,1307.62 925.403,1307.87 925.051,1308.13C925.377,1307.77 925.761,1307.27 925.761,1306.86C925.761,1306.15 925.243,1305.58 924.604,1305.58C923.964,1305.58 923.446,1306.15 923.446,1306.86C923.446,1307.27 923.831,1307.77 924.156,1308.13C923.804,1307.87 923.369,1307.62 923.053,1307.69C922.423,1307.81 922.003,1308.48 922.113,1309.17C922.225,1309.87 922.825,1310.34 923.454,1310.21C923.836,1310.14 924.239,1309.58 924.498,1309.15C924.401,1309.74 924.251,1310.57 924.1,1311.01L925.107,1311.01C924.956,1310.57 924.806,1309.74 924.709,1309.15C924.968,1309.58 925.371,1310.14 925.753,1310.21C926.382,1310.34 926.982,1309.87 927.094,1309.17C927.204,1308.48 926.784,1307.81 926.154,1307.69Z" style="fill-rule:nonzero;"/>
                <path d="M931.823,1307.69C931.507,1307.62 931.072,1307.87 930.72,1308.13C931.046,1307.77 931.43,1307.27 931.43,1306.86C931.43,1306.15 930.912,1305.58 930.272,1305.58C929.633,1305.58 929.115,1306.15 929.115,1306.86C929.115,1307.27 929.5,1307.77 929.825,1308.13C929.473,1307.87 929.038,1307.62 928.722,1307.69C928.092,1307.81 927.672,1308.48 927.782,1309.17C927.894,1309.87 928.494,1310.34 929.123,1310.21C929.505,1310.14 929.908,1309.58 930.167,1309.15C930.07,1309.74 929.92,1310.57 929.769,1311.01L930.776,1311.01C930.625,1310.57 930.475,1309.74 930.378,1309.15C930.637,1309.58 931.04,1310.14 931.422,1310.21C932.051,1310.34 932.651,1309.87 932.763,1309.17C932.873,1308.48 932.453,1307.81 931.823,1307.69Z" style="fill-rule:nonzero;"/>
                <path d="M937.492,1307.69C937.176,1307.62 936.741,1307.87 936.389,1308.13C936.715,1307.77 937.099,1307.27 937.099,1306.86C937.099,1306.15 936.581,1305.58 935.941,1305.58C935.302,1305.58 934.784,1306.15 934.784,1306.86C934.784,1307.27 935.169,1307.77 935.494,1308.13C935.142,1307.87 934.707,1307.62 934.391,1307.69C933.761,1307.81 933.341,1308.48 933.451,1309.17C933.563,1309.87 934.163,1310.34 934.792,1310.21C935.174,1310.14 935.577,1309.58 935.836,1309.15C935.739,1309.74 935.589,1310.57 935.438,1311.01L936.445,1311.01C936.294,1310.57 936.144,1309.74 936.047,1309.15C936.306,1309.58 936.709,1310.14 937.091,1310.21C937.72,1310.34 938.32,1309.87 938.432,1309.17C938.542,1308.48 938.122,1307.81 937.492,1307.69Z" style="fill-rule:nonzero;"/>
                <path d="M943.161,1307.69C942.845,1307.62 942.41,1307.87 942.058,1308.13C942.384,1307.77 942.768,1307.27 942.768,1306.86C942.768,1306.15 942.25,1305.58 941.61,1305.58C940.971,1305.58 940.453,1306.15 940.453,1306.86C940.453,1307.27 940.838,1307.77 941.163,1308.13C940.811,1307.87 940.376,1307.62 940.06,1307.69C939.43,1307.81 939.01,1308.48 939.12,1309.17C939.231,1309.87 939.832,1310.34 940.461,1310.21C940.843,1310.14 941.246,1309.58 941.505,1309.15C941.408,1309.74 941.258,1310.57 941.106,1311.01L942.114,1311.01C941.963,1310.57 941.813,1309.74 941.716,1309.15C941.975,1309.58 942.378,1310.14 942.76,1310.21C943.389,1310.34 943.989,1309.87 944.101,1309.17C944.211,1308.48 943.791,1307.81 943.161,1307.69Z" style="fill-rule:nonzero;"/>
                <path d="M948.83,1307.69C948.514,1307.62 948.079,1307.87 947.727,1308.13C948.053,1307.77 948.437,1307.27 948.437,1306.86C948.437,1306.15 947.919,1305.58 947.279,1305.58C946.64,1305.58 946.122,1306.15 946.122,1306.86C946.122,1307.27 946.507,1307.77 946.832,1308.13C946.479,1307.87 946.045,1307.62 945.729,1307.69C945.099,1307.81 944.679,1308.48 944.789,1309.17C944.9,1309.87 945.501,1310.34 946.13,1310.21C946.512,1310.14 946.915,1309.58 947.174,1309.15C947.077,1309.74 946.927,1310.57 946.775,1311.01L947.783,1311.01C947.632,1310.57 947.481,1309.74 947.385,1309.15C947.644,1309.58 948.047,1310.14 948.429,1310.21C949.058,1310.34 949.658,1309.87 949.77,1309.17C949.88,1308.48 949.46,1307.81 948.83,1307.69Z" style="fill-rule:nonzero;"/>
                <path d="M954.499,1307.69C954.183,1307.62 953.748,1307.87 953.396,1308.13C953.722,1307.77 954.105,1307.27 954.105,1306.86C954.105,1306.15 953.588,1305.58 952.948,1305.58C952.309,1305.58 951.791,1306.15 951.791,1306.86C951.791,1307.27 952.176,1307.77 952.501,1308.13C952.148,1307.87 951.714,1307.62 951.397,1307.69C950.768,1307.81 950.348,1308.48 950.458,1309.17C950.569,1309.87 951.17,1310.34 951.799,1310.21C952.181,1310.14 952.584,1309.58 952.843,1309.15C952.746,1309.74 952.596,1310.57 952.444,1311.01L953.452,1311.01C953.301,1310.57 953.15,1309.74 953.054,1309.15C953.313,1309.58 953.716,1310.14 954.098,1310.21C954.727,1310.34 955.327,1309.87 955.438,1309.17C955.549,1308.48 955.129,1307.81 954.499,1307.69Z" style="fill-rule:nonzero;"/>
                <path d="M960.168,1307.69C959.852,1307.62 959.417,1307.87 959.064,1308.13C959.391,1307.77 959.774,1307.27 959.774,1306.86C959.774,1306.15 959.257,1305.58 958.617,1305.58C957.978,1305.58 957.46,1306.15 957.46,1306.86C957.46,1307.27 957.845,1307.77 958.17,1308.13C957.817,1307.87 957.383,1307.62 957.066,1307.69C956.437,1307.81 956.017,1308.48 956.127,1309.17C956.238,1309.87 956.839,1310.34 957.468,1310.21C957.85,1310.14 958.253,1309.58 958.512,1309.15C958.415,1309.74 958.265,1310.57 958.113,1311.01L959.121,1311.01C958.97,1310.57 958.819,1309.74 958.723,1309.15C958.981,1309.58 959.385,1310.14 959.767,1310.21C960.396,1310.34 960.996,1309.87 961.107,1309.17C961.218,1308.48 960.798,1307.81 960.168,1307.69Z" style="fill-rule:nonzero;"/>
                <path d="M950.681,1500.69C950.997,1500.75 951.432,1500.51 951.784,1500.25C951.458,1500.6 951.074,1501.11 951.074,1501.52C951.074,1502.23 951.592,1502.8 952.231,1502.8C952.871,1502.8 953.389,1502.23 953.389,1501.52C953.389,1501.11 953.004,1500.6 952.679,1500.25C953.031,1500.51 953.466,1500.75 953.782,1500.69C954.412,1500.57 954.832,1499.9 954.722,1499.21C954.61,1498.51 954.01,1498.04 953.381,1498.17C952.999,1498.24 952.596,1498.8 952.337,1499.23C952.434,1498.63 952.584,1497.81 952.735,1497.37C952.29,1497.37 952.231,1497.37 952.231,1497.37C952.231,1497.37 952.173,1497.37 951.728,1497.37C951.879,1497.81 952.029,1498.63 952.126,1499.23C951.867,1498.8 951.464,1498.24 951.082,1498.17C950.453,1498.04 949.853,1498.51 949.741,1499.21C949.631,1499.9 950.051,1500.57 950.681,1500.69Z" style="fill-rule:nonzero;"/>
                <path d="M945.012,1500.69C945.328,1500.75 945.763,1500.51 946.115,1500.25C945.789,1500.6 945.405,1501.11 945.405,1501.52C945.405,1502.23 945.923,1502.8 946.563,1502.8C947.202,1502.8 947.72,1502.23 947.72,1501.52C947.72,1501.11 947.335,1500.6 947.01,1500.25C947.362,1500.51 947.797,1500.75 948.113,1500.69C948.743,1500.57 949.163,1499.9 949.053,1499.21C948.941,1498.51 948.341,1498.04 947.712,1498.17C947.33,1498.24 946.927,1498.8 946.668,1499.23C946.765,1498.63 946.915,1497.81 947.066,1497.37C946.621,1497.37 946.563,1497.37 946.563,1497.37C946.563,1497.37 946.504,1497.37 946.059,1497.37C946.21,1497.81 946.36,1498.63 946.457,1499.23C946.198,1498.8 945.795,1498.24 945.413,1498.17C944.784,1498.04 944.184,1498.51 944.072,1499.21C943.962,1499.9 944.382,1500.57 945.012,1500.69Z" style="fill-rule:nonzero;"/>
                <path d="M939.343,1500.69C939.659,1500.75 940.094,1500.51 940.446,1500.25C940.12,1500.6 939.736,1501.11 939.736,1501.52C939.736,1502.23 940.254,1502.8 940.894,1502.8C941.533,1502.8 942.051,1502.23 942.051,1501.52C942.051,1501.11 941.666,1500.6 941.341,1500.25C941.693,1500.51 942.128,1500.75 942.444,1500.69C943.074,1500.57 943.494,1499.9 943.384,1499.21C943.272,1498.51 942.672,1498.04 942.043,1498.17C941.661,1498.24 941.258,1498.8 940.999,1499.23C941.096,1498.63 941.246,1497.81 941.397,1497.37C940.952,1497.37 940.894,1497.37 940.894,1497.37C940.894,1497.37 940.835,1497.37 940.39,1497.37C940.541,1497.81 940.691,1498.63 940.788,1499.23C940.529,1498.8 940.126,1498.24 939.744,1498.17C939.115,1498.04 938.515,1498.51 938.403,1499.21C938.293,1499.9 938.713,1500.57 939.343,1500.69Z" style="fill-rule:nonzero;"/>
                <path d="M933.674,1500.69C933.99,1500.75 934.425,1500.51 934.777,1500.25C934.451,1500.6 934.067,1501.11 934.067,1501.52C934.067,1502.23 934.585,1502.8 935.225,1502.8C935.864,1502.8 936.382,1502.23 936.382,1501.52C936.382,1501.11 935.997,1500.6 935.672,1500.25C936.024,1500.51 936.459,1500.75 936.775,1500.69C937.405,1500.57 937.825,1499.9 937.715,1499.21C937.604,1498.51 937.003,1498.04 936.374,1498.17C935.992,1498.24 935.589,1498.8 935.33,1499.23C935.427,1498.63 935.577,1497.81 935.729,1497.37C935.283,1497.37 935.225,1497.37 935.225,1497.37C935.225,1497.37 935.166,1497.37 934.721,1497.37C934.872,1497.81 935.022,1498.63 935.119,1499.23C934.86,1498.8 934.457,1498.24 934.075,1498.17C933.446,1498.04 932.846,1498.51 932.734,1499.21C932.624,1499.9 933.044,1500.57 933.674,1500.69Z" style="fill-rule:nonzero;"/>
                <path d="M928.005,1500.69C928.321,1500.75 928.756,1500.51 929.108,1500.25C928.782,1500.6 928.398,1501.11 928.398,1501.52C928.398,1502.23 928.916,1502.8 929.556,1502.8C930.195,1502.8 930.713,1502.23 930.713,1501.52C930.713,1501.11 930.328,1500.6 930.003,1500.25C930.355,1500.51 930.79,1500.75 931.106,1500.69C931.736,1500.57 932.156,1499.9 932.046,1499.21C931.935,1498.51 931.334,1498.04 930.705,1498.17C930.323,1498.24 929.92,1498.8 929.661,1499.23C929.758,1498.63 929.908,1497.81 930.06,1497.37C929.614,1497.37 929.556,1497.37 929.556,1497.37C929.556,1497.37 929.497,1497.37 929.052,1497.37C929.203,1497.81 929.354,1498.63 929.45,1499.23C929.191,1498.8 928.788,1498.24 928.406,1498.17C927.777,1498.04 927.177,1498.51 927.065,1499.21C926.955,1499.9 927.375,1500.57 928.005,1500.69Z" style="fill-rule:nonzero;"/>
                <path d="M922.336,1500.69C922.652,1500.75 923.087,1500.51 923.439,1500.25C923.113,1500.6 922.729,1501.11 922.729,1501.52C922.729,1502.23 923.247,1502.8 923.887,1502.8C924.526,1502.8 925.044,1502.23 925.044,1501.52C925.044,1501.11 924.659,1500.6 924.334,1500.25C924.687,1500.51 925.121,1500.75 925.438,1500.69C926.067,1500.57 926.487,1499.9 926.377,1499.21C926.266,1498.51 925.665,1498.04 925.036,1498.17C924.654,1498.24 924.251,1498.8 923.992,1499.23C924.089,1498.63 924.239,1497.81 924.391,1497.37C923.945,1497.37 923.887,1497.37 923.887,1497.37C923.887,1497.37 923.828,1497.37 923.383,1497.37C923.534,1497.81 923.685,1498.63 923.781,1499.23C923.522,1498.8 923.119,1498.24 922.737,1498.17C922.108,1498.04 921.508,1498.51 921.396,1499.21C921.286,1499.9 921.706,1500.57 922.336,1500.69Z" style="fill-rule:nonzero;"/>
                <path d="M916.667,1500.69C916.983,1500.75 917.418,1500.51 917.771,1500.25C917.444,1500.6 917.061,1501.11 917.061,1501.52C917.061,1502.23 917.578,1502.8 918.218,1502.8C918.857,1502.8 919.375,1502.23 919.375,1501.52C919.375,1501.11 918.99,1500.6 918.665,1500.25C919.018,1500.51 919.452,1500.75 919.769,1500.69C920.398,1500.57 920.818,1499.9 920.708,1499.21C920.597,1498.51 919.996,1498.04 919.367,1498.17C918.985,1498.24 918.582,1498.8 918.323,1499.23C918.42,1498.63 918.57,1497.81 918.722,1497.37C918.276,1497.37 918.218,1497.37 918.218,1497.37C918.218,1497.37 918.159,1497.37 917.714,1497.37C917.865,1497.81 918.016,1498.63 918.112,1499.23C917.854,1498.8 917.45,1498.24 917.068,1498.17C916.439,1498.04 915.839,1498.51 915.728,1499.21C915.617,1499.9 916.037,1500.57 916.667,1500.69Z" style="fill-rule:nonzero;"/>
                <path d="M910.998,1500.69C911.314,1500.75 911.749,1500.51 912.102,1500.25C911.775,1500.6 911.392,1501.11 911.392,1501.52C911.392,1502.23 911.909,1502.8 912.549,1502.8C913.188,1502.8 913.706,1502.23 913.706,1501.52C913.706,1501.11 913.321,1500.6 912.996,1500.25C913.349,1500.51 913.783,1500.75 914.1,1500.69C914.729,1500.57 915.149,1499.9 915.039,1499.21C914.928,1498.51 914.327,1498.04 913.698,1498.17C913.316,1498.24 912.913,1498.8 912.654,1499.23C912.751,1498.63 912.901,1497.81 913.053,1497.37C912.607,1497.37 912.549,1497.37 912.549,1497.37C912.549,1497.37 912.49,1497.37 912.045,1497.37C912.196,1497.81 912.347,1498.63 912.443,1499.23C912.185,1498.8 911.781,1498.24 911.399,1498.17C910.771,1498.04 910.17,1498.51 910.059,1499.21C909.948,1499.9 910.368,1500.57 910.998,1500.69Z" style="fill-rule:nonzero;"/>
            </g>
        </g>
    </g>
</svg>
