<?xml version="1.0" encoding="UTF-8" standalone="no"?>
<!DOCTYPE svg PUBLIC "-//W3C//DTD SVG 1.1//EN" "http://www.w3.org/Graphics/SVG/1.1/DTD/svg11.dtd">
<svg width="100%" height="100%" viewBox="0 0 150 225" version="1.1" xmlns="http://www.w3.org/2000/svg" xmlns:xlink="http://www.w3.org/1999/xlink" xml:space="preserve" xmlns:serif="http://www.serif.com/" style="fill-rule:evenodd;clip-rule:evenodd;stroke-linejoin:round;stroke-miterlimit:1.41421;">
    <g transform="matrix(1,0,0,1,-521,-271)">
        <g>
            <g>
                <rect x="0.25" y="1.04" width="1530.71" height="1530.71" style="fill:white;fill-rule:nonzero;"/>
                <path d="M528.738,507.274C520.88,507.274 514.487,500.882 514.487,493.024L514.487,274.41C514.487,266.553 520.88,260.16 528.738,260.16L662.313,260.16C670.17,260.16 676.563,266.553 676.563,274.41L676.563,493.024C676.563,500.882 670.17,507.274 662.313,507.274L528.738,507.274Z" style="fill:white;fill-rule:nonzero;"/>
                <path d="M662.313,259.91L528.738,259.91C520.742,259.91 514.237,266.415 514.237,274.41L514.237,493.024C514.237,501.019 520.742,507.524 528.738,507.524L662.313,507.524C670.308,507.524 676.813,501.019 676.813,493.024L676.813,274.41C676.813,266.415 670.308,259.91 662.313,259.91ZM662.313,260.41C670.044,260.41 676.313,266.678 676.313,274.41L676.313,493.024C676.313,500.756 670.044,507.024 662.313,507.024L528.738,507.024C521.005,507.024 514.737,500.756 514.737,493.024L514.737,274.41C514.737,266.678 521.005,260.41 528.738,260.41L662.313,260.41Z" style="fill-rule:nonzero;"/>
            </g>
            <g>
                <path d="M558.675,317.103C561.881,311.726 570.297,302.478 575.683,298.678C570.297,294.878 561.881,285.63 558.675,280.253C555.469,285.63 547.052,294.878 541.667,298.678C547.052,302.478 555.469,311.726 558.675,317.103Z" style="fill:rgb(200,0,0);fill-rule:nonzero;"/>
                <path d="M632.376,317.103C635.583,311.726 643.999,302.478 649.385,298.678C643.999,294.878 635.583,285.63 632.376,280.253C629.17,285.63 620.754,294.878 615.368,298.678C620.754,302.478 629.17,311.726 632.376,317.103Z" style="fill:rgb(200,0,0);fill-rule:nonzero;"/>
                <path d="M558.675,373.796C561.881,368.419 570.297,359.171 575.683,355.371C570.297,351.571 561.881,342.323 558.675,336.946C555.469,342.323 547.052,351.571 541.667,355.371C547.052,359.171 555.469,368.419 558.675,373.796Z" style="fill:rgb(200,0,0);fill-rule:nonzero;"/>
                <path d="M632.376,373.796C635.583,368.419 643.999,359.171 649.385,355.371C643.999,351.571 635.583,342.323 632.376,336.946C629.17,342.323 620.754,351.571 615.368,355.371C620.754,359.171 629.17,368.419 632.376,373.796Z" style="fill:rgb(200,0,0);fill-rule:nonzero;"/>
                <path d="M595.525,402.143C598.731,396.766 607.148,387.518 612.534,383.718C607.148,379.918 598.731,370.67 595.525,365.293C592.319,370.67 583.903,379.918 578.517,383.718C583.903,387.518 592.319,396.766 595.525,402.143Z" style="fill:rgb(200,0,0);fill-rule:nonzero;"/>
                <path d="M558.675,393.64C555.469,399.017 547.052,408.265 541.667,412.064C547.052,415.864 555.469,425.112 558.675,430.489C561.881,425.112 570.297,415.864 575.683,412.064C570.297,408.265 561.881,399.017 558.675,393.64Z" style="fill:rgb(200,0,0);fill-rule:nonzero;"/>
                <path d="M632.376,393.64C629.17,399.017 620.754,408.265 615.368,412.064C620.754,415.864 629.17,425.112 632.376,430.489C635.583,425.112 643.999,415.864 649.385,412.064C643.999,408.265 635.583,399.017 632.376,393.64Z" style="fill:rgb(200,0,0);fill-rule:nonzero;"/>
                <path d="M558.675,450.333C555.469,455.71 547.052,464.958 541.667,468.758C547.052,472.558 555.469,481.806 558.675,487.183C561.881,481.806 570.297,472.558 575.683,468.758C570.297,464.958 561.881,455.71 558.675,450.333Z" style="fill:rgb(200,0,0);fill-rule:nonzero;"/>
                <path d="M632.376,450.333C629.17,455.71 620.754,464.958 615.368,468.758C620.754,472.558 629.17,481.806 632.376,487.183C635.583,481.806 643.999,472.558 649.385,468.758C643.999,464.958 635.583,455.71 632.376,450.333Z" style="fill:rgb(200,0,0);fill-rule:nonzero;"/>
                <path d="M530.328,314.859C531.664,312.619 535.171,308.765 537.415,307.182C535.171,305.598 531.664,301.745 530.328,299.504C528.992,301.745 525.485,305.598 523.241,307.182C525.485,308.765 528.992,312.619 530.328,314.859Z" style="fill:rgb(200,0,0);fill-rule:nonzero;"/>
                <path d="M530.328,452.575C528.992,454.816 525.485,458.669 523.241,460.253C525.485,461.836 528.992,465.69 530.328,467.931C531.664,465.69 535.171,461.836 537.415,460.253C535.171,458.669 531.664,454.816 530.328,452.575Z" style="fill:rgb(200,0,0);fill-rule:nonzero;"/>
                <path d="M660.723,452.575C659.387,454.816 655.88,458.669 653.635,460.253C655.88,461.836 659.387,465.69 660.723,467.931C662.059,465.69 665.566,461.836 667.81,460.253C665.566,458.669 662.059,454.816 660.723,452.575Z" style="fill:rgb(200,0,0);fill-rule:nonzero;"/>
                <path d="M660.723,314.859C662.059,312.619 665.566,308.765 667.81,307.182C665.566,305.598 662.059,301.745 660.723,299.504C659.387,301.745 655.88,305.598 653.635,307.182C655.88,308.765 659.387,312.619 660.723,314.859Z" style="fill:rgb(200,0,0);fill-rule:nonzero;"/>
                <path d="M532.956,279.635C532.647,278.571 532.243,277.996 531.94,277.693C531.526,277.28 531.051,277.077 530.438,277.108C528.346,277.156 527.409,278.869 527.409,280.546C527.409,282.181 527.722,283.314 528.338,283.915C528.798,284.365 529.478,284.588 530.439,284.546C531.036,284.531 531.864,284.367 532.419,283.673C533.072,282.854 533.256,281.465 532.956,279.635ZM530.499,274.607C531.735,274.607 532.843,275.061 533.707,275.925C534.389,276.606 534.914,277.528 535.281,278.684C535.281,278.684 535.374,278.942 535.396,279.074C535.781,280.473 535.953,282.185 535.908,284.198C535.85,286.878 535.693,293.995 530.499,294.108C528.026,294.15 526.982,293.684 525.39,291.787L527.304,290.18C528.4,291.485 528.748,291.646 530.444,291.608C531.132,291.594 532.84,291.557 533.303,286.209C532.515,286.728 531.557,287.019 530.504,287.046C528.872,287.07 527.548,286.637 526.593,285.705C525.46,284.602 524.909,282.913 524.909,280.546C524.909,277.658 526.788,274.691 530.38,274.608C530.42,274.607 530.459,274.607 530.499,274.607Z" style="fill:rgb(200,0,0);fill-rule:nonzero;"/>
                <path d="M663.35,279.635C663.041,278.571 662.637,277.996 662.334,277.693C661.92,277.28 661.444,277.077 660.832,277.108C658.739,277.156 657.803,278.869 657.803,280.546C657.803,282.181 658.115,283.314 658.731,283.915C659.191,284.365 659.871,284.588 660.833,284.546C661.43,284.531 662.258,284.367 662.813,283.673C663.466,282.854 663.649,281.465 663.35,279.635ZM660.893,274.607C662.129,274.607 663.236,275.061 664.101,275.925C664.782,276.606 665.308,277.528 665.675,278.684C665.675,278.684 665.768,278.942 665.79,279.074C666.175,280.473 666.347,282.185 666.302,284.198C666.243,286.878 666.087,293.995 660.893,294.108C658.42,294.15 657.376,293.684 655.783,291.787L657.697,290.18C658.794,291.485 659.142,291.646 660.838,291.608C661.525,291.594 663.233,291.557 663.696,286.209C662.908,286.728 661.95,287.019 660.897,287.046C659.266,287.07 657.941,286.637 656.986,285.705C655.854,284.602 655.303,282.913 655.303,280.546C655.303,277.658 657.182,274.691 660.773,274.608C660.813,274.607 660.853,274.607 660.893,274.607Z" style="fill:rgb(200,0,0);fill-rule:nonzero;"/>
                <path d="M527.868,487.508C528.178,488.572 528.582,489.147 528.885,489.45C529.299,489.863 529.773,490.066 530.387,490.035C532.479,489.987 533.416,488.274 533.416,486.597C533.416,484.962 533.104,483.829 532.487,483.228C532.026,482.778 531.347,482.555 530.385,482.597C529.788,482.612 528.961,482.776 528.406,483.47C527.753,484.289 527.569,485.678 527.868,487.508ZM530.326,492.536C529.09,492.536 527.982,492.082 527.118,491.218C526.436,490.537 525.91,489.615 525.543,488.459C525.543,488.459 525.451,488.201 525.428,488.069C525.043,486.67 524.872,484.958 524.916,482.945C524.975,480.265 525.131,473.148 530.326,473.035C532.798,472.993 533.842,473.459 535.436,475.356L533.521,476.963C532.424,475.658 532.076,475.497 530.38,475.535C529.693,475.549 527.984,475.586 527.522,480.934C528.311,480.415 529.268,480.124 530.321,480.097C531.953,480.073 533.276,480.506 534.232,481.438C535.365,482.541 535.916,484.23 535.916,486.597C535.916,489.485 534.036,492.452 530.444,492.535C530.405,492.536 530.365,492.536 530.326,492.536Z" style="fill:rgb(200,0,0);fill-rule:nonzero;"/>
                <path d="M658.262,487.508C658.571,488.572 658.976,489.147 659.278,489.45C659.692,489.863 660.167,490.066 660.78,490.035C662.873,489.987 663.81,488.274 663.81,486.597C663.81,484.962 663.497,483.829 662.881,483.228C662.42,482.778 661.74,482.555 660.778,482.597C660.182,482.612 659.354,482.776 658.8,483.47C658.146,484.289 657.963,485.678 658.262,487.508ZM660.72,492.536C659.483,492.536 658.376,492.082 657.512,491.218C656.829,490.537 656.304,489.615 655.937,488.459C655.937,488.459 655.845,488.201 655.821,488.069C655.437,486.67 655.266,484.958 655.31,482.945C655.368,480.265 655.524,473.148 660.72,473.035C663.191,472.993 664.235,473.459 665.829,475.356L663.915,476.963C662.817,475.658 662.47,475.497 660.773,475.535C660.087,475.549 658.378,475.586 657.916,480.934C658.704,480.415 659.661,480.124 660.715,480.097C662.347,480.073 663.67,480.506 664.626,481.438C665.759,482.541 666.31,484.23 666.31,486.597C666.31,489.485 664.43,492.452 660.838,492.535C660.799,492.536 660.759,492.536 660.72,492.536Z" style="fill:rgb(200,0,0);fill-rule:nonzero;"/>
            </g>
        </g>
    </g>
</svg>
