<?xml version="1.0" encoding="UTF-8" standalone="no"?>
<!DOCTYPE svg PUBLIC "-//W3C//DTD SVG 1.1//EN" "http://www.w3.org/Graphics/SVG/1.1/DTD/svg11.dtd">
<svg width="100%" height="100%" viewBox="0 0 150 225" version="1.1" xmlns="http://www.w3.org/2000/svg" xmlns:xlink="http://www.w3.org/1999/xlink" xml:space="preserve" xmlns:serif="http://www.serif.com/" style="fill-rule:evenodd;clip-rule:evenodd;stroke-linejoin:round;stroke-miterlimit:1.41421;">
    <g transform="matrix(1,0,0,1,-11,-1291)">
        <g>
            <g>
                <rect x="0.25" y="1.04" width="1530.71" height="1530.71" style="fill:white;fill-rule:nonzero;"/>
                <path d="M18.502,1527.75C10.644,1527.75 4.251,1521.35 4.251,1513.5L4.251,1294.88C4.251,1287.03 10.644,1280.63 18.502,1280.63L152.077,1280.63C159.934,1280.63 166.327,1287.03 166.327,1294.88L166.327,1513.5C166.327,1521.35 159.934,1527.75 152.077,1527.75L18.502,1527.75Z" style="fill:white;fill-rule:nonzero;"/>
                <path d="M152.077,1280.38L18.502,1280.38C10.506,1280.38 4.001,1286.89 4.001,1294.88L4.001,1513.5C4.001,1521.49 10.506,1528 18.502,1528L152.077,1528C160.072,1528 166.577,1521.49 166.577,1513.5L166.577,1294.88C166.577,1286.89 160.072,1280.38 152.077,1280.38ZM152.077,1280.88C159.809,1280.88 166.077,1287.15 166.077,1294.88L166.077,1513.5C166.077,1521.23 159.809,1527.5 152.077,1527.5L18.502,1527.5C10.77,1527.5 4.501,1521.23 4.501,1513.5L4.501,1294.88C4.501,1287.15 10.77,1280.88 18.502,1280.88L152.077,1280.88Z" style="fill-rule:nonzero;"/>
            </g>
            <g>
                <path d="M48.425,1337.58C47.782,1336.22 46.966,1335.19 45.577,1333.68C43.934,1331.89 38.043,1326.73 35.877,1324.22C34.302,1322.39 31.727,1319.1 31.465,1313.19C31.364,1310.9 31.145,1305.32 36.494,1301.83C38.783,1300.34 42.714,1300.17 45.265,1302.49C48.047,1305.01 48.431,1307.93 48.431,1307.93C48.431,1307.93 49.526,1303.97 51.809,1302.41C53.259,1301.41 55.221,1300.19 58.562,1301.06C63.276,1302.29 65.405,1306.75 65.445,1311.79C65.486,1317.02 64.737,1320.49 60.1,1325.25C56.845,1328.58 53.442,1331.33 50.507,1334.73C49.393,1336.02 49.029,1336.31 48.425,1337.58Z" style="fill:rgb(200,0,0);fill-rule:nonzero;"/>
                <path d="M122.125,1337.58C121.483,1336.22 120.667,1335.19 119.278,1333.68C117.634,1331.89 111.744,1326.73 109.577,1324.22C108.003,1322.39 105.428,1319.1 105.166,1313.19C105.065,1310.9 104.845,1305.32 110.194,1301.83C112.484,1300.34 116.415,1300.17 118.966,1302.49C121.748,1305.01 122.132,1307.93 122.132,1307.93C122.132,1307.93 123.227,1303.97 125.509,1302.41C126.96,1301.41 128.922,1300.19 132.262,1301.06C136.977,1302.29 139.106,1306.75 139.146,1311.79C139.187,1317.02 138.438,1320.49 133.801,1325.25C130.545,1328.58 127.143,1331.33 124.208,1334.73C123.094,1336.02 122.729,1336.31 122.125,1337.58Z" style="fill:rgb(200,0,0);fill-rule:nonzero;"/>
                <path d="M85.303,1428.28C85.946,1429.64 86.762,1430.66 88.151,1432.18C89.794,1433.97 95.685,1439.13 97.852,1441.64C99.426,1443.47 102.001,1446.76 102.263,1452.67C102.364,1454.96 102.584,1460.54 97.234,1464.03C94.945,1465.52 91.014,1465.69 88.463,1463.37C85.681,1460.84 85.297,1457.93 85.297,1457.93C85.297,1457.93 84.202,1461.89 81.919,1463.45C80.469,1464.45 78.507,1465.67 75.167,1464.8C70.452,1463.57 68.323,1459.1 68.283,1454.07C68.242,1448.84 68.991,1445.37 73.628,1440.61C76.883,1437.28 80.286,1434.53 83.221,1431.13C84.335,1429.84 84.699,1429.55 85.303,1428.28Z" style="fill:rgb(200,0,0);fill-rule:nonzero;"/>
                <path d="M48.425,1422.62C47.782,1421.26 46.966,1420.23 45.577,1418.72C43.934,1416.93 38.043,1411.77 35.877,1409.26C34.302,1407.43 31.727,1404.14 31.465,1398.23C31.364,1395.94 31.145,1390.36 36.494,1386.87C38.783,1385.38 42.714,1385.21 45.265,1387.53C48.047,1390.05 48.431,1392.97 48.431,1392.97C48.431,1392.97 49.526,1389.01 51.809,1387.45C53.259,1386.45 55.221,1385.23 58.562,1386.1C63.276,1387.33 65.405,1391.79 65.445,1396.83C65.486,1402.06 64.737,1405.53 60.1,1410.29C56.845,1413.62 53.442,1416.37 50.507,1419.77C49.393,1421.06 49.029,1421.35 48.425,1422.62Z" style="fill:rgb(200,0,0);fill-rule:nonzero;"/>
                <path d="M122.125,1422.62C121.483,1421.26 120.667,1420.23 119.278,1418.72C117.634,1416.93 111.744,1411.77 109.577,1409.26C108.003,1407.43 105.428,1404.14 105.166,1398.23C105.065,1395.94 104.845,1390.36 110.194,1386.87C112.484,1385.38 116.415,1385.21 118.966,1387.53C121.748,1390.05 122.132,1392.97 122.132,1392.97C122.132,1392.97 123.227,1389.01 125.509,1387.45C126.96,1386.45 128.922,1385.23 132.262,1386.1C136.977,1387.33 139.106,1391.79 139.146,1396.83C139.187,1402.06 138.438,1405.53 133.801,1410.29C130.545,1413.62 127.143,1416.37 124.208,1419.77C123.094,1421.06 122.729,1421.35 122.125,1422.62Z" style="fill:rgb(200,0,0);fill-rule:nonzero;"/>
                <path d="M48.453,1470.81C49.096,1472.16 49.912,1473.19 51.301,1474.7C52.944,1476.49 58.835,1481.65 61.002,1484.16C62.576,1485.99 65.151,1489.28 65.413,1495.19C65.514,1497.48 65.733,1503.06 60.384,1506.55C58.095,1508.04 54.164,1508.21 51.613,1505.89C48.831,1503.37 48.447,1500.45 48.447,1500.45C48.447,1500.45 47.352,1504.41 45.069,1505.97C43.619,1506.97 41.657,1508.19 38.316,1507.32C33.602,1506.1 31.473,1501.63 31.433,1496.59C31.392,1491.36 32.141,1487.89 36.778,1483.14C40.033,1479.8 43.436,1477.05 46.371,1473.65C47.485,1472.36 47.849,1472.07 48.453,1470.81Z" style="fill:rgb(200,0,0);fill-rule:nonzero;"/>
                <path d="M122.154,1470.81C122.796,1472.16 123.613,1473.19 125.001,1474.7C126.645,1476.49 132.535,1481.65 134.702,1484.16C136.276,1485.99 138.852,1489.28 139.113,1495.19C139.214,1497.48 139.434,1503.06 134.085,1506.55C131.795,1508.04 127.865,1508.21 125.313,1505.89C122.532,1503.37 122.147,1500.45 122.147,1500.45C122.147,1500.45 121.053,1504.41 118.77,1505.97C117.319,1506.97 115.357,1508.19 112.017,1507.32C107.303,1506.1 105.173,1501.63 105.133,1496.59C105.092,1491.36 105.842,1487.89 110.479,1483.14C113.734,1479.8 117.137,1477.05 120.072,1473.65C121.186,1472.36 121.55,1472.07 122.154,1470.81Z" style="fill:rgb(200,0,0);fill-rule:nonzero;"/>
                <path d="M20.086,1335.33C19.818,1334.77 19.478,1334.34 18.899,1333.71C18.214,1332.96 15.76,1330.81 14.857,1329.77C14.201,1329 13.128,1327.63 13.019,1325.17C12.977,1324.22 12.885,1321.89 15.114,1320.44C16.068,1319.81 17.706,1319.75 18.769,1320.71C19.928,1321.76 20.089,1322.98 20.089,1322.98C20.089,1322.98 20.545,1321.33 21.496,1320.68C22.1,1320.26 22.918,1319.75 24.31,1320.12C26.274,1320.63 27.162,1322.49 27.178,1324.59C27.195,1326.77 26.883,1328.21 24.951,1330.19C23.595,1331.58 22.177,1332.73 20.954,1334.15C20.489,1334.68 20.338,1334.81 20.086,1335.33Z" style="fill:rgb(200,0,0);fill-rule:nonzero;"/>
                <path d="M20.098,1473.05C20.365,1473.61 20.706,1474.04 21.284,1474.67C21.969,1475.42 24.424,1477.57 25.327,1478.61C25.983,1479.37 27.056,1480.75 27.165,1483.21C27.207,1484.16 27.298,1486.49 25.069,1487.94C24.115,1488.57 22.477,1488.63 21.414,1487.67C20.255,1486.62 20.095,1485.4 20.095,1485.4C20.095,1485.4 19.639,1487.05 18.688,1487.7C18.083,1488.12 17.266,1488.63 15.874,1488.26C13.909,1487.75 13.022,1485.89 13.005,1483.79C12.988,1481.61 13.301,1480.17 15.233,1478.19C16.589,1476.79 18.007,1475.65 19.23,1474.23C19.694,1473.7 19.846,1473.57 20.098,1473.05Z" style="fill:rgb(200,0,0);fill-rule:nonzero;"/>
                <path d="M150.492,1473.05C150.76,1473.61 151.1,1474.04 151.679,1474.67C152.364,1475.42 154.818,1477.57 155.721,1478.61C156.377,1479.37 157.45,1480.75 157.559,1483.21C157.601,1484.16 157.693,1486.49 155.464,1487.94C154.51,1488.57 152.872,1488.63 151.809,1487.67C150.65,1486.62 150.49,1485.4 150.49,1485.4C150.49,1485.4 150.033,1487.05 149.082,1487.7C148.478,1488.12 147.66,1488.63 146.268,1488.26C144.304,1487.75 143.416,1485.89 143.4,1483.79C143.383,1481.61 143.695,1480.17 145.627,1478.19C146.984,1476.79 148.402,1475.65 149.625,1474.23C150.089,1473.7 150.241,1473.57 150.492,1473.05Z" style="fill:rgb(200,0,0);fill-rule:nonzero;"/>
                <path d="M150.48,1335.33C150.213,1334.77 149.872,1334.34 149.294,1333.71C148.609,1332.96 146.155,1330.81 145.252,1329.77C144.596,1329 143.522,1327.63 143.413,1325.17C143.371,1324.22 143.28,1321.89 145.509,1320.44C146.463,1319.81 148.101,1319.75 149.164,1320.71C150.323,1321.76 150.483,1322.98 150.483,1322.98C150.483,1322.98 150.939,1321.33 151.89,1320.68C152.495,1320.26 153.312,1319.75 154.704,1320.12C156.669,1320.63 157.556,1322.49 157.573,1324.59C157.59,1326.77 157.278,1328.21 155.346,1330.19C153.989,1331.58 152.571,1332.73 151.348,1334.15C150.884,1334.68 150.732,1334.81 150.48,1335.33Z" style="fill:rgb(200,0,0);fill-rule:nonzero;"/>
                <path d="M21.333,1314.66L18.833,1314.63C18.879,1309.08 21.174,1301.7 22.519,1297.85C20.622,1297.86 18.432,1297.85 17.09,1297.84L17.09,1299.25L14.59,1299.25L14.59,1295.16L15.845,1295.17C15.847,1295.17 21.37,1295.2 24.334,1295.17L26.197,1295.15L25.505,1297C23.515,1302.31 21.374,1309.74 21.333,1314.66Z" style="fill:rgb(200,0,0);fill-rule:nonzero;"/>
                <path d="M151.727,1314.66L149.227,1314.63C149.273,1309.08 151.568,1301.7 152.913,1297.85C151.016,1297.86 148.826,1297.85 147.484,1297.84L147.484,1299.25L144.984,1299.25L144.984,1295.16L146.239,1295.17C146.241,1295.17 151.764,1295.2 154.728,1295.17L156.591,1295.15L155.899,1297C153.909,1302.31 151.768,1309.74 151.727,1314.66Z" style="fill:rgb(200,0,0);fill-rule:nonzero;"/>
                <path d="M19.453,1493.58L21.953,1493.6C21.907,1499.15 19.612,1506.53 18.267,1510.38C20.165,1510.38 22.355,1510.38 23.696,1510.39L23.696,1508.99L26.196,1508.99L26.196,1513.07L24.941,1513.06C24.939,1513.06 19.416,1513.04 16.452,1513.06L14.589,1513.08L15.281,1511.23C17.272,1505.92 19.412,1498.5 19.453,1493.58Z" style="fill:rgb(200,0,0);fill-rule:nonzero;"/>
                <path d="M149.847,1493.58L152.347,1493.6C152.301,1499.15 150.006,1506.53 148.661,1510.38C150.559,1510.38 152.749,1510.38 154.09,1510.39L154.09,1508.99L156.59,1508.99L156.59,1513.07L155.335,1513.06C155.333,1513.06 149.81,1513.04 146.846,1513.06L144.983,1513.08L145.675,1511.23C147.666,1505.92 149.806,1498.5 149.847,1493.58Z" style="fill:rgb(200,0,0);fill-rule:nonzero;"/>
            </g>
        </g>
    </g>
</svg>
