<?xml version="1.0" encoding="UTF-8" standalone="no"?>
<!DOCTYPE svg PUBLIC "-//W3C//DTD SVG 1.1//EN" "http://www.w3.org/Graphics/SVG/1.1/DTD/svg11.dtd">
<svg width="100%" height="100%" viewBox="0 0 150 225" version="1.1" xmlns="http://www.w3.org/2000/svg" xmlns:xlink="http://www.w3.org/1999/xlink" xml:space="preserve" xmlns:serif="http://www.serif.com/" style="fill-rule:evenodd;clip-rule:evenodd;stroke-linejoin:round;stroke-miterlimit:1.41421;">
    <g transform="matrix(1,0,0,1,-1031,-1291)">
        <g>
            <g>
                <rect x="0.25" y="1.04" width="1530.71" height="1530.71" style="fill:white;fill-rule:nonzero;"/>
                <path d="M1038.97,1527.75C1031.12,1527.75 1024.72,1521.35 1024.72,1513.5L1024.72,1294.88C1024.72,1287.03 1031.12,1280.63 1038.97,1280.63L1172.55,1280.63C1180.41,1280.63 1186.8,1287.03 1186.8,1294.88L1186.8,1513.5C1186.8,1521.35 1180.41,1527.75 1172.55,1527.75L1038.97,1527.75Z" style="fill:white;fill-rule:nonzero;"/>
                <path d="M1172.55,1280.38L1038.97,1280.38C1030.98,1280.38 1024.47,1286.89 1024.47,1294.88L1024.47,1513.5C1024.47,1521.49 1030.98,1528 1038.97,1528L1172.55,1528C1180.54,1528 1187.05,1521.49 1187.05,1513.5L1187.05,1294.88C1187.05,1286.89 1180.54,1280.38 1172.55,1280.38ZM1172.55,1280.88C1180.28,1280.88 1186.55,1287.15 1186.55,1294.88L1186.55,1513.5C1186.55,1521.23 1180.28,1527.5 1172.55,1527.5L1038.97,1527.5C1031.24,1527.5 1024.97,1521.23 1024.97,1513.5L1024.97,1294.88C1024.97,1287.15 1031.24,1280.88 1038.97,1280.88L1172.55,1280.88Z" style="fill-rule:nonzero;"/>
            </g>
            <g>
                <path d="M1080.58,1309.73C1077.71,1306.62 1073.4,1302.91 1068.91,1300.73C1064.42,1302.91 1060.11,1306.62 1057.24,1309.73C1053.13,1314.19 1051.86,1317.87 1051.9,1322.23C1051.94,1326.43 1054.07,1330.16 1058.78,1331.19C1062.12,1331.91 1064.08,1330.89 1065.53,1330.06C1066.88,1329.29 1067.81,1327.82 1068.35,1326.74C1067.71,1329.96 1066.6,1334.98 1065.49,1337.58C1068.51,1337.55 1068.91,1337.58 1068.91,1337.58C1068.91,1337.58 1069.31,1337.55 1072.33,1337.58C1071.22,1334.98 1070.11,1329.96 1069.47,1326.74C1070.01,1327.82 1070.94,1329.29 1072.29,1330.06C1073.74,1330.89 1075.7,1331.91 1079.04,1331.19C1083.75,1330.16 1085.88,1326.43 1085.92,1322.23C1085.96,1317.87 1084.7,1314.19 1080.58,1309.73Z" style="fill-rule:nonzero;"/>
                <path d="M1154.28,1309.73C1151.41,1306.62 1147.1,1302.91 1142.61,1300.73C1138.12,1302.91 1133.81,1306.62 1130.94,1309.73C1126.83,1314.19 1125.56,1317.87 1125.6,1322.23C1125.64,1326.43 1127.77,1330.16 1132.48,1331.19C1135.82,1331.91 1137.78,1330.89 1139.23,1330.06C1140.58,1329.29 1141.51,1327.82 1142.05,1326.74C1141.41,1329.96 1140.3,1334.98 1139.19,1337.58C1142.21,1337.55 1142.61,1337.58 1142.61,1337.58C1142.61,1337.58 1143.01,1337.55 1146.03,1337.58C1144.92,1334.98 1143.81,1329.96 1143.17,1326.74C1143.71,1327.82 1144.64,1329.29 1145.99,1330.06C1147.44,1330.89 1149.4,1331.91 1152.74,1331.19C1157.45,1330.16 1159.58,1326.43 1159.62,1322.23C1159.66,1317.87 1158.4,1314.19 1154.28,1309.73Z" style="fill-rule:nonzero;"/>
                <path d="M1094.09,1456.13C1096.96,1459.24 1101.27,1462.95 1105.76,1465.13C1110.25,1462.95 1114.56,1459.24 1117.43,1456.13C1121.55,1451.67 1122.81,1447.99 1122.77,1443.62C1122.73,1439.43 1120.6,1435.7 1115.89,1434.67C1112.55,1433.95 1110.59,1434.97 1109.14,1435.8C1107.79,1436.57 1106.86,1438.04 1106.32,1439.12C1106.96,1435.9 1108.07,1430.88 1109.18,1428.28C1106.16,1428.31 1105.76,1428.28 1105.76,1428.28C1105.76,1428.28 1105.37,1428.31 1102.34,1428.28C1103.45,1430.88 1104.56,1435.9 1105.2,1439.12C1104.66,1438.04 1103.73,1436.57 1102.38,1435.8C1100.93,1434.97 1098.97,1433.95 1095.63,1434.67C1090.92,1435.7 1088.79,1439.43 1088.75,1443.62C1088.71,1447.99 1089.98,1451.67 1094.09,1456.13Z" style="fill-rule:nonzero;"/>
                <path d="M1080.58,1394.77C1077.71,1391.66 1073.4,1387.95 1068.91,1385.77C1064.42,1387.95 1060.11,1391.66 1057.24,1394.77C1053.13,1399.23 1051.86,1402.91 1051.9,1407.27C1051.94,1411.47 1054.07,1415.2 1058.78,1416.23C1062.12,1416.95 1064.08,1415.93 1065.53,1415.1C1066.88,1414.33 1067.81,1412.86 1068.35,1411.78C1067.71,1415 1066.6,1420.02 1065.49,1422.62C1068.51,1422.59 1068.91,1422.62 1068.91,1422.62C1068.91,1422.62 1069.31,1422.59 1072.33,1422.62C1071.22,1420.02 1070.11,1415 1069.47,1411.78C1070.01,1412.86 1070.94,1414.33 1072.29,1415.1C1073.74,1415.93 1075.7,1416.95 1079.04,1416.23C1083.75,1415.2 1085.88,1411.47 1085.92,1407.27C1085.96,1402.91 1084.7,1399.23 1080.58,1394.77Z" style="fill-rule:nonzero;"/>
                <path d="M1154.28,1394.77C1151.41,1391.66 1147.1,1387.95 1142.61,1385.77C1138.12,1387.95 1133.81,1391.66 1130.94,1394.77C1126.83,1399.23 1125.56,1402.91 1125.6,1407.27C1125.64,1411.47 1127.77,1415.2 1132.48,1416.23C1135.82,1416.95 1137.78,1415.93 1139.23,1415.1C1140.58,1414.33 1141.51,1412.86 1142.05,1411.78C1141.41,1415 1140.3,1420.02 1139.19,1422.62C1142.21,1422.59 1142.61,1422.62 1142.61,1422.62C1142.61,1422.62 1143.01,1422.59 1146.03,1422.62C1144.92,1420.02 1143.81,1415 1143.17,1411.78C1143.71,1412.86 1144.64,1414.33 1145.99,1415.1C1147.44,1415.93 1149.4,1416.95 1152.74,1416.23C1157.45,1415.2 1159.58,1411.47 1159.62,1407.27C1159.66,1402.91 1158.4,1399.23 1154.28,1394.77Z" style="fill-rule:nonzero;"/>
                <path d="M1057.24,1498.65C1060.11,1501.76 1064.42,1505.48 1068.91,1507.66C1073.4,1505.48 1077.71,1501.76 1080.58,1498.65C1084.7,1494.19 1085.96,1490.51 1085.92,1486.15C1085.88,1481.95 1083.75,1478.22 1079.04,1477.2C1075.7,1476.47 1073.74,1477.49 1072.29,1478.32C1070.94,1479.09 1070.01,1480.56 1069.47,1481.64C1070.11,1478.42 1071.22,1473.4 1072.33,1470.81C1069.31,1470.83 1068.91,1470.81 1068.91,1470.81C1068.91,1470.81 1068.51,1470.83 1065.49,1470.81C1066.6,1473.4 1067.71,1478.42 1068.35,1481.64C1067.81,1480.56 1066.88,1479.09 1065.53,1478.32C1064.08,1477.49 1062.12,1476.47 1058.78,1477.2C1054.07,1478.22 1051.94,1481.95 1051.9,1486.15C1051.86,1490.51 1053.13,1494.19 1057.24,1498.65Z" style="fill-rule:nonzero;"/>
                <path d="M1130.94,1498.65C1133.81,1501.76 1138.12,1505.48 1142.61,1507.66C1147.1,1505.48 1151.41,1501.76 1154.28,1498.65C1158.4,1494.19 1159.66,1490.51 1159.62,1486.15C1159.58,1481.95 1157.45,1478.22 1152.74,1477.2C1149.4,1476.47 1147.44,1477.49 1145.99,1478.32C1144.64,1479.09 1143.71,1480.56 1143.17,1481.64C1143.81,1478.42 1144.92,1473.4 1146.03,1470.81C1143.01,1470.83 1142.61,1470.81 1142.61,1470.81C1142.61,1470.81 1142.21,1470.83 1139.19,1470.81C1140.3,1473.4 1141.41,1478.42 1142.05,1481.64C1141.51,1480.56 1140.58,1479.09 1139.23,1478.32C1137.78,1477.49 1135.82,1476.47 1132.48,1477.2C1127.77,1478.22 1125.64,1481.95 1125.6,1486.15C1125.56,1490.51 1126.83,1494.19 1130.94,1498.65Z" style="fill-rule:nonzero;"/>
                <path d="M1045.43,1323.73C1044.23,1322.43 1042.43,1320.89 1040.56,1319.98C1038.69,1320.89 1036.9,1322.43 1035.7,1323.73C1033.99,1325.59 1033.46,1327.12 1033.48,1328.94C1033.49,1330.69 1034.38,1332.24 1036.34,1332.67C1037.73,1332.97 1038.55,1332.55 1039.16,1332.2C1039.72,1331.88 1040.11,1331.27 1040.33,1330.82C1040.06,1332.16 1039.6,1334.25 1039.14,1335.33C1040.4,1335.32 1040.56,1335.33 1040.56,1335.33C1040.56,1335.33 1040.73,1335.32 1041.99,1335.33C1041.53,1334.25 1041.07,1332.16 1040.8,1330.82C1041.02,1331.27 1041.41,1331.88 1041.97,1332.2C1042.58,1332.55 1043.39,1332.97 1044.79,1332.67C1046.75,1332.24 1047.63,1330.69 1047.65,1328.94C1047.67,1327.12 1047.14,1325.59 1045.43,1323.73Z" style="fill-rule:nonzero;"/>
                <path d="M1035.7,1484.65C1036.9,1485.95 1038.69,1487.49 1040.56,1488.4C1042.43,1487.49 1044.23,1485.95 1045.43,1484.65C1047.14,1482.79 1047.67,1481.26 1047.65,1479.44C1047.63,1477.69 1046.75,1476.14 1044.79,1475.71C1043.39,1475.41 1042.58,1475.83 1041.97,1476.18C1041.41,1476.5 1041.02,1477.11 1040.8,1477.56C1041.07,1476.22 1041.53,1474.13 1041.99,1473.05C1040.73,1473.06 1040.56,1473.05 1040.56,1473.05C1040.56,1473.05 1040.4,1473.06 1039.14,1473.05C1039.6,1474.13 1040.06,1476.22 1040.33,1477.56C1040.11,1477.11 1039.72,1476.5 1039.16,1476.18C1038.55,1475.83 1037.73,1475.41 1036.34,1475.71C1034.38,1476.14 1033.49,1477.69 1033.48,1479.44C1033.46,1481.26 1033.99,1482.79 1035.7,1484.65Z" style="fill-rule:nonzero;"/>
                <path d="M1166.1,1484.65C1167.29,1485.95 1169.09,1487.49 1170.96,1488.4C1172.83,1487.49 1174.62,1485.95 1175.82,1484.65C1177.54,1482.79 1178.06,1481.26 1178.04,1479.44C1178.03,1477.69 1177.14,1476.14 1175.18,1475.71C1173.79,1475.41 1172.97,1475.83 1172.37,1476.18C1171.8,1476.5 1171.42,1477.11 1171.19,1477.56C1171.46,1476.22 1171.92,1474.13 1172.38,1473.05C1171.12,1473.06 1170.96,1473.05 1170.96,1473.05C1170.96,1473.05 1170.79,1473.06 1169.53,1473.05C1170,1474.13 1170.46,1476.22 1170.72,1477.56C1170.5,1477.11 1170.11,1476.5 1169.55,1476.18C1168.95,1475.83 1168.13,1475.41 1166.74,1475.71C1164.77,1476.14 1163.89,1477.69 1163.87,1479.44C1163.85,1481.26 1164.38,1482.79 1166.1,1484.65Z" style="fill-rule:nonzero;"/>
                <path d="M1175.82,1323.73C1174.62,1322.43 1172.83,1320.89 1170.96,1319.98C1169.09,1320.89 1167.29,1322.43 1166.1,1323.73C1164.38,1325.59 1163.85,1327.12 1163.87,1328.94C1163.89,1330.69 1164.77,1332.24 1166.74,1332.67C1168.13,1332.97 1168.95,1332.55 1169.55,1332.2C1170.11,1331.88 1170.5,1331.27 1170.72,1330.82C1170.46,1332.16 1170,1334.25 1169.53,1335.33C1170.79,1335.32 1170.96,1335.33 1170.96,1335.33C1170.96,1335.33 1171.12,1335.32 1172.38,1335.33C1171.92,1334.25 1171.46,1332.16 1171.19,1330.82C1171.42,1331.27 1171.8,1331.88 1172.37,1332.2C1172.97,1332.55 1173.79,1332.97 1175.18,1332.67C1177.14,1332.24 1178.03,1330.69 1178.04,1328.94C1178.06,1327.12 1177.54,1325.59 1175.82,1323.73Z" style="fill-rule:nonzero;"/>
                <path d="M1041.81,1314.66L1039.31,1314.63C1039.35,1309.08 1041.65,1301.7 1042.99,1297.85C1041.09,1297.86 1038.9,1297.85 1037.56,1297.84L1037.56,1299.25L1035.06,1299.25L1035.06,1295.16L1036.32,1295.17C1036.32,1295.17 1041.84,1295.2 1044.81,1295.17L1046.67,1295.15L1045.98,1297C1043.99,1302.31 1041.85,1309.74 1041.81,1314.66Z" style="fill-rule:nonzero;"/>
                <path d="M1172.2,1314.66L1169.7,1314.63C1169.75,1309.08 1172.04,1301.7 1173.38,1297.85C1171.49,1297.86 1169.3,1297.85 1167.96,1297.84L1167.96,1299.25L1165.46,1299.25L1165.46,1295.16L1166.71,1295.17C1166.71,1295.17 1172.24,1295.2 1175.2,1295.17L1177.06,1295.15L1176.37,1297C1174.38,1302.31 1172.24,1309.74 1172.2,1314.66Z" style="fill-rule:nonzero;"/>
                <path d="M1039.93,1493.58L1042.43,1493.6C1042.38,1499.15 1040.08,1506.53 1038.74,1510.38C1040.64,1510.38 1042.83,1510.38 1044.17,1510.39L1044.17,1508.99L1046.67,1508.99L1046.67,1513.07L1045.41,1513.06C1045.41,1513.06 1039.89,1513.04 1036.92,1513.06L1035.06,1513.08L1035.75,1511.23C1037.74,1505.92 1039.88,1498.5 1039.93,1493.58Z" style="fill-rule:nonzero;"/>
                <path d="M1170.32,1493.58L1172.82,1493.6C1172.77,1499.15 1170.48,1506.53 1169.13,1510.38C1171.03,1510.38 1173.22,1510.38 1174.56,1510.39L1174.56,1508.99L1177.06,1508.99L1177.06,1513.07L1175.81,1513.06C1175.81,1513.06 1170.28,1513.04 1167.32,1513.06L1165.46,1513.08L1166.15,1511.23C1168.14,1505.92 1170.28,1498.5 1170.32,1493.58Z" style="fill-rule:nonzero;"/>
            </g>
        </g>
    </g>
</svg>
