<?xml version="1.0" encoding="UTF-8" standalone="no"?>
<!DOCTYPE svg PUBLIC "-//W3C//DTD SVG 1.1//EN" "http://www.w3.org/Graphics/SVG/1.1/DTD/svg11.dtd">
<svg width="100%" height="100%" viewBox="0 0 150 225" version="1.1" xmlns="http://www.w3.org/2000/svg" xmlns:xlink="http://www.w3.org/1999/xlink" xml:space="preserve" xmlns:serif="http://www.serif.com/" style="fill-rule:evenodd;clip-rule:evenodd;stroke-linejoin:round;stroke-miterlimit:1.41421;">
    <g transform="matrix(1,0,0,1,-691,-1291)">
        <g>
            <g>
                <rect x="0.25" y="1.04" width="1530.71" height="1530.71" style="fill:white;fill-rule:nonzero;"/>
                <path d="M698.816,1527.75C690.959,1527.75 684.566,1521.35 684.566,1513.5L684.566,1294.88C684.566,1287.03 690.959,1280.63 698.816,1280.63L832.392,1280.63C840.249,1280.63 846.642,1287.03 846.642,1294.88L846.642,1513.5C846.642,1521.35 840.249,1527.75 832.392,1527.75L698.816,1527.75Z" style="fill:white;fill-rule:nonzero;"/>
                <path d="M832.392,1280.38L698.816,1280.38C690.821,1280.38 684.316,1286.89 684.316,1294.88L684.316,1513.5C684.316,1521.49 690.821,1528 698.816,1528L832.392,1528C840.387,1528 846.892,1521.49 846.892,1513.5L846.892,1294.88C846.892,1286.89 840.387,1280.38 832.392,1280.38ZM832.392,1280.88C840.123,1280.88 846.392,1287.15 846.392,1294.88L846.392,1513.5C846.392,1521.23 840.123,1527.5 832.392,1527.5L698.816,1527.5C691.084,1527.5 684.816,1521.23 684.816,1513.5L684.816,1294.88C684.816,1287.15 691.084,1280.88 698.816,1280.88L832.392,1280.88Z" style="fill-rule:nonzero;"/>
            </g>
            <g>
                <path d="M739.273,1315.03C737.123,1314.61 734.18,1316.27 731.786,1318.03C733.997,1315.62 736.604,1312.19 736.604,1309.42C736.604,1304.62 733.088,1300.73 728.754,1300.73C724.418,1300.73 720.904,1304.62 720.904,1309.42C720.904,1312.19 723.512,1315.62 725.722,1318.03C723.329,1316.27 720.385,1314.61 718.234,1315.03C713.965,1315.86 711.114,1320.37 711.867,1325.1C712.619,1329.83 716.691,1332.99 720.96,1332.16C723.549,1331.65 726.286,1327.87 728.04,1324.97C727.384,1328.98 726.362,1334.58 725.336,1337.58C728.356,1337.55 728.754,1337.58 728.754,1337.58C728.754,1337.58 729.15,1337.55 732.171,1337.58C731.146,1334.58 730.124,1328.98 729.468,1324.97C731.222,1327.87 733.958,1331.65 736.548,1332.16C740.816,1332.99 744.889,1329.83 745.641,1325.1C746.394,1320.37 743.543,1315.86 739.273,1315.03Z" style="fill-rule:nonzero;"/>
                <path d="M812.974,1315.03C810.823,1314.61 807.88,1316.27 805.486,1318.03C807.697,1315.62 810.304,1312.19 810.304,1309.42C810.304,1304.62 806.789,1300.73 802.454,1300.73C798.119,1300.73 794.604,1304.62 794.604,1309.42C794.604,1312.19 797.212,1315.62 799.422,1318.03C797.029,1316.27 794.085,1314.61 791.935,1315.03C787.665,1315.86 784.814,1320.37 785.567,1325.1C786.319,1329.83 790.392,1332.99 794.661,1332.16C797.25,1331.65 799.986,1327.87 801.74,1324.97C801.084,1328.98 800.062,1334.58 799.037,1337.58C802.057,1337.55 802.454,1337.58 802.454,1337.58C802.454,1337.58 802.851,1337.55 805.872,1337.58C804.846,1334.58 803.824,1328.98 803.168,1324.97C804.922,1327.87 807.659,1331.65 810.248,1332.16C814.517,1332.99 818.589,1329.83 819.341,1325.1C820.094,1320.37 817.243,1315.86 812.974,1315.03Z" style="fill-rule:nonzero;"/>
                <path d="M755.085,1450.83C757.235,1451.25 760.179,1449.59 762.572,1447.83C760.362,1450.24 757.754,1453.67 757.754,1456.44C757.754,1461.24 761.27,1465.13 765.604,1465.13C769.94,1465.13 773.455,1461.24 773.455,1456.44C773.455,1453.67 770.847,1450.24 768.636,1447.83C771.03,1449.59 773.974,1451.25 776.124,1450.83C780.394,1450 783.245,1445.49 782.492,1440.76C781.739,1436.02 777.667,1432.87 773.398,1433.7C770.809,1434.21 768.073,1437.99 766.318,1440.89C766.974,1436.88 767.997,1431.28 769.022,1428.28C766.002,1428.31 765.604,1428.28 765.604,1428.28C765.604,1428.28 765.208,1428.31 762.187,1428.28C763.212,1431.28 764.235,1436.88 764.891,1440.89C763.136,1437.99 760.4,1434.21 757.811,1433.7C753.542,1432.87 749.47,1436.02 748.717,1440.76C747.964,1445.49 750.815,1450 755.085,1450.83Z" style="fill-rule:nonzero;"/>
                <path d="M739.273,1400.07C737.123,1399.65 734.18,1401.31 731.786,1403.07C733.997,1400.66 736.604,1397.23 736.604,1394.46C736.604,1389.66 733.088,1385.77 728.754,1385.77C724.418,1385.77 720.904,1389.66 720.904,1394.46C720.904,1397.23 723.512,1400.66 725.722,1403.07C723.329,1401.31 720.385,1399.65 718.234,1400.07C713.965,1400.9 711.114,1405.41 711.867,1410.14C712.619,1414.87 716.691,1418.03 720.96,1417.2C723.549,1416.69 726.286,1412.91 728.04,1410.01C727.384,1414.02 726.362,1419.62 725.336,1422.62C728.356,1422.59 728.754,1422.62 728.754,1422.62C728.754,1422.62 729.15,1422.59 732.171,1422.62C731.146,1419.62 730.124,1414.02 729.468,1410.01C731.222,1412.91 733.958,1416.69 736.548,1417.2C740.816,1418.03 744.889,1414.87 745.641,1410.14C746.394,1405.41 743.543,1400.9 739.273,1400.07Z" style="fill-rule:nonzero;"/>
                <path d="M812.974,1400.07C810.823,1399.65 807.88,1401.31 805.486,1403.07C807.697,1400.66 810.304,1397.23 810.304,1394.46C810.304,1389.66 806.789,1385.77 802.454,1385.77C798.119,1385.77 794.604,1389.66 794.604,1394.46C794.604,1397.23 797.212,1400.66 799.422,1403.07C797.029,1401.31 794.085,1399.65 791.935,1400.07C787.665,1400.9 784.814,1405.41 785.567,1410.14C786.319,1414.87 790.392,1418.03 794.661,1417.2C797.25,1416.69 799.986,1412.91 801.74,1410.01C801.084,1414.02 800.062,1419.62 799.037,1422.62C802.057,1422.59 802.454,1422.62 802.454,1422.62C802.454,1422.62 802.851,1422.59 805.872,1422.62C804.846,1419.62 803.824,1414.02 803.168,1410.01C804.922,1412.91 807.659,1416.69 810.248,1417.2C814.517,1418.03 818.589,1414.87 819.341,1410.14C820.094,1405.41 817.243,1400.9 812.974,1400.07Z" style="fill-rule:nonzero;"/>
                <path d="M718.234,1493.35C720.385,1493.77 723.328,1492.11 725.722,1490.35C723.511,1492.76 720.904,1496.19 720.904,1498.96C720.904,1503.76 724.419,1507.66 728.754,1507.66C733.089,1507.66 736.604,1503.76 736.604,1498.96C736.604,1496.19 733.996,1492.76 731.786,1490.35C734.179,1492.11 737.123,1493.77 739.273,1493.35C743.543,1492.52 746.394,1488.01 745.641,1483.28C744.889,1478.55 740.816,1475.39 736.547,1476.22C733.958,1476.73 731.222,1480.51 729.468,1483.41C730.124,1479.4 731.146,1473.8 732.171,1470.81C729.151,1470.83 728.754,1470.81 728.754,1470.81C728.754,1470.81 728.357,1470.83 725.336,1470.81C726.362,1473.8 727.384,1479.4 728.04,1483.41C726.286,1480.51 723.549,1476.73 720.96,1476.22C716.691,1475.39 712.619,1478.55 711.867,1483.28C711.114,1488.01 713.965,1492.52 718.234,1493.35Z" style="fill-rule:nonzero;"/>
                <path d="M791.935,1493.35C794.085,1493.77 797.028,1492.11 799.422,1490.35C797.211,1492.76 794.604,1496.19 794.604,1498.96C794.604,1503.76 798.12,1507.66 802.454,1507.66C806.79,1507.66 810.304,1503.76 810.304,1498.96C810.304,1496.19 807.696,1492.76 805.486,1490.35C807.879,1492.11 810.823,1493.77 812.974,1493.35C817.243,1492.52 820.094,1488.01 819.341,1483.28C818.589,1478.55 814.517,1475.39 810.248,1476.22C807.659,1476.73 804.922,1480.51 803.168,1483.41C803.824,1479.4 804.846,1473.8 805.872,1470.81C802.852,1470.83 802.454,1470.81 802.454,1470.81C802.454,1470.81 802.058,1470.83 799.037,1470.81C800.062,1473.8 801.084,1479.4 801.74,1483.41C799.986,1480.51 797.25,1476.73 794.66,1476.22C790.392,1475.39 786.319,1478.55 785.567,1483.28C784.814,1488.01 787.665,1492.52 791.935,1493.35Z" style="fill-rule:nonzero;"/>
                <path d="M704.791,1325.94C703.895,1325.76 702.668,1326.45 701.671,1327.19C702.592,1326.18 703.678,1324.76 703.678,1323.6C703.678,1321.6 702.213,1319.98 700.407,1319.98C698.601,1319.98 697.136,1321.6 697.136,1323.6C697.136,1324.76 698.223,1326.18 699.144,1327.19C698.146,1326.45 696.92,1325.76 696.024,1325.94C694.245,1326.28 693.057,1328.16 693.37,1330.13C693.684,1332.11 695.381,1333.42 697.16,1333.08C698.238,1332.86 699.379,1331.29 700.11,1330.08C699.836,1331.75 699.41,1334.08 698.983,1335.33C700.242,1335.32 700.407,1335.33 700.407,1335.33C700.407,1335.33 700.572,1335.32 701.831,1335.33C701.404,1334.08 700.978,1331.75 700.705,1330.08C701.436,1331.29 702.576,1332.86 703.655,1333.08C705.434,1333.42 707.131,1332.11 707.444,1330.13C707.758,1328.16 706.57,1326.28 704.791,1325.94Z" style="fill-rule:nonzero;"/>
                <path d="M696.024,1482.44C696.92,1482.62 698.146,1481.92 699.144,1481.19C698.223,1482.2 697.136,1483.62 697.136,1484.78C697.136,1486.78 698.601,1488.4 700.407,1488.4C702.214,1488.4 703.678,1486.78 703.678,1484.78C703.678,1483.62 702.592,1482.2 701.671,1481.19C702.668,1481.92 703.895,1482.62 704.791,1482.44C706.57,1482.1 707.758,1480.22 707.444,1478.24C707.131,1476.27 705.434,1474.96 703.655,1475.3C702.576,1475.52 701.436,1477.09 700.705,1478.3C700.978,1476.63 701.404,1474.3 701.831,1473.05C700.573,1473.06 700.407,1473.05 700.407,1473.05C700.407,1473.05 700.242,1473.06 698.983,1473.05C699.41,1474.3 699.836,1476.63 700.11,1478.3C699.379,1477.09 698.238,1475.52 697.159,1475.3C695.381,1474.96 693.684,1476.27 693.37,1478.24C693.057,1480.22 694.245,1482.1 696.024,1482.44Z" style="fill-rule:nonzero;"/>
                <path d="M826.417,1482.44C827.313,1482.62 828.54,1481.92 829.537,1481.19C828.616,1482.2 827.53,1483.62 827.53,1484.78C827.53,1486.78 828.995,1488.4 830.801,1488.4C832.607,1488.4 834.072,1486.78 834.072,1484.78C834.072,1483.62 832.985,1482.2 832.064,1481.19C833.061,1481.92 834.288,1482.62 835.184,1482.44C836.963,1482.1 838.151,1480.22 837.838,1478.24C837.524,1476.27 835.827,1474.96 834.048,1475.3C832.969,1475.52 831.829,1477.09 831.098,1478.3C831.371,1476.63 831.798,1474.3 832.225,1473.05C830.966,1473.06 830.801,1473.05 830.801,1473.05C830.801,1473.05 830.636,1473.06 829.377,1473.05C829.804,1474.3 830.23,1476.63 830.503,1478.3C829.772,1477.09 828.632,1475.52 827.553,1475.3C825.774,1474.96 824.077,1476.27 823.764,1478.24C823.45,1480.22 824.638,1482.1 826.417,1482.44Z" style="fill-rule:nonzero;"/>
                <path d="M835.184,1325.94C834.288,1325.76 833.062,1326.45 832.064,1327.19C832.985,1326.18 834.072,1324.76 834.072,1323.6C834.072,1321.6 832.607,1319.98 830.801,1319.98C828.994,1319.98 827.53,1321.6 827.53,1323.6C827.53,1324.76 828.616,1326.18 829.537,1327.19C828.54,1326.45 827.313,1325.76 826.417,1325.94C824.638,1326.28 823.45,1328.16 823.764,1330.13C824.077,1332.11 825.774,1333.42 827.553,1333.08C828.632,1332.86 829.772,1331.29 830.503,1330.08C830.23,1331.75 829.804,1334.08 829.377,1335.33C830.635,1335.32 830.801,1335.33 830.801,1335.33C830.801,1335.33 830.966,1335.32 832.225,1335.33C831.798,1334.08 831.371,1331.75 831.098,1330.08C831.829,1331.29 832.969,1332.86 834.048,1333.08C835.827,1333.42 837.524,1332.11 837.838,1330.13C838.151,1328.16 836.963,1326.28 835.184,1325.94Z" style="fill-rule:nonzero;"/>
                <path d="M701.648,1314.66L699.148,1314.63C699.194,1309.08 701.489,1301.7 702.834,1297.85C700.937,1297.86 698.747,1297.85 697.405,1297.84L697.405,1299.25L694.905,1299.25L694.905,1295.16L696.16,1295.17C696.162,1295.17 701.686,1295.2 704.649,1295.17L706.512,1295.15L705.82,1297C703.83,1302.31 701.689,1309.74 701.648,1314.66Z" style="fill-rule:nonzero;"/>
                <path d="M832.042,1314.66L829.542,1314.63C829.588,1309.08 831.883,1301.7 833.228,1297.85C831.33,1297.86 829.141,1297.85 827.799,1297.84L827.799,1299.25L825.299,1299.25L825.299,1295.16L826.554,1295.17C826.556,1295.17 832.079,1295.2 835.043,1295.17L836.905,1295.15L836.214,1297C834.224,1302.31 832.083,1309.74 832.042,1314.66Z" style="fill-rule:nonzero;"/>
                <path d="M699.769,1493.58L702.269,1493.6C702.222,1499.15 699.927,1506.53 698.582,1510.38C700.479,1510.38 702.67,1510.38 704.012,1510.39L704.012,1508.99L706.512,1508.99L706.512,1513.07L705.256,1513.06C705.255,1513.06 699.731,1513.04 696.768,1513.06L694.904,1513.08L695.597,1511.23C697.587,1505.92 699.728,1498.5 699.769,1493.58Z" style="fill-rule:nonzero;"/>
                <path d="M830.162,1493.58L832.662,1493.6C832.615,1499.15 830.32,1506.53 828.976,1510.38C830.873,1510.38 833.063,1510.38 834.405,1510.39L834.405,1508.99L836.905,1508.99L836.905,1513.07L835.649,1513.06C835.648,1513.06 830.125,1513.04 827.161,1513.06L825.298,1513.08L825.99,1511.23C827.98,1505.92 830.121,1498.5 830.162,1493.58Z" style="fill-rule:nonzero;"/>
            </g>
        </g>
    </g>
</svg>
