<?xml version="1.0" encoding="UTF-8" standalone="no"?>
<!DOCTYPE svg PUBLIC "-//W3C//DTD SVG 1.1//EN" "http://www.w3.org/Graphics/SVG/1.1/DTD/svg11.dtd">
<svg width="100%" height="100%" viewBox="0 0 150 225" version="1.1" xmlns="http://www.w3.org/2000/svg" xmlns:xlink="http://www.w3.org/1999/xlink" xml:space="preserve" xmlns:serif="http://www.serif.com/" style="fill-rule:evenodd;clip-rule:evenodd;stroke-linejoin:round;stroke-miterlimit:1.41421;">
    <g transform="matrix(1,0,0,1,-1031,-1036)">
        <g>
            <g>
                <rect x="0.25" y="1.04" width="1530.71" height="1530.71" style="fill:white;fill-rule:nonzero;"/>
                <path d="M1038.97,1272.63C1031.12,1272.63 1024.72,1266.24 1024.72,1258.38L1024.72,1039.76C1024.72,1031.91 1031.12,1025.51 1038.97,1025.51L1172.55,1025.51C1180.41,1025.51 1186.8,1031.91 1186.8,1039.76L1186.8,1258.38C1186.8,1266.24 1180.41,1272.63 1172.55,1272.63L1038.97,1272.63Z" style="fill:white;fill-rule:nonzero;"/>
                <path d="M1172.55,1025.26L1038.97,1025.26C1030.98,1025.26 1024.47,1031.77 1024.47,1039.76L1024.47,1258.38C1024.47,1266.37 1030.98,1272.88 1038.97,1272.88L1172.55,1272.88C1180.54,1272.88 1187.05,1266.37 1187.05,1258.38L1187.05,1039.76C1187.05,1031.77 1180.54,1025.26 1172.55,1025.26ZM1172.55,1025.76C1180.28,1025.76 1186.55,1032.03 1186.55,1039.76L1186.55,1258.38C1186.55,1266.11 1180.28,1272.38 1172.55,1272.38L1038.97,1272.38C1031.24,1272.38 1024.97,1266.11 1024.97,1258.38L1024.97,1039.76C1024.97,1032.03 1031.24,1025.76 1038.97,1025.76L1172.55,1025.76Z" style="fill-rule:nonzero;"/>
            </g>
            <g>
                <path d="M1080.58,1054.61C1077.71,1051.5 1073.4,1047.79 1068.91,1045.61C1064.42,1047.79 1060.11,1051.5 1057.24,1054.61C1053.13,1059.07 1051.86,1062.75 1051.9,1067.12C1051.94,1071.31 1054.07,1075.04 1058.78,1076.07C1062.12,1076.79 1064.08,1075.77 1065.53,1074.94C1066.88,1074.17 1067.81,1072.7 1068.35,1071.62C1067.71,1074.84 1066.6,1079.86 1065.49,1082.46C1068.51,1082.44 1068.91,1082.46 1068.91,1082.46C1068.91,1082.46 1069.31,1082.44 1072.33,1082.46C1071.22,1079.86 1070.11,1074.84 1069.47,1071.62C1070.01,1072.7 1070.94,1074.17 1072.29,1074.94C1073.74,1075.77 1075.7,1076.79 1079.04,1076.07C1083.75,1075.04 1085.88,1071.31 1085.92,1067.12C1085.96,1062.75 1084.7,1059.07 1080.58,1054.61Z" style="fill-rule:nonzero;"/>
                <path d="M1154.28,1054.61C1151.41,1051.5 1147.1,1047.79 1142.61,1045.61C1138.12,1047.79 1133.81,1051.5 1130.94,1054.61C1126.83,1059.07 1125.56,1062.75 1125.6,1067.12C1125.64,1071.31 1127.77,1075.04 1132.48,1076.07C1135.82,1076.79 1137.78,1075.77 1139.23,1074.94C1140.58,1074.17 1141.51,1072.7 1142.05,1071.62C1141.41,1074.84 1140.3,1079.86 1139.19,1082.46C1142.21,1082.44 1142.61,1082.46 1142.61,1082.46C1142.61,1082.46 1143.01,1082.44 1146.03,1082.46C1144.92,1079.86 1143.81,1074.84 1143.17,1071.62C1143.71,1072.7 1144.64,1074.17 1145.99,1074.94C1147.44,1075.77 1149.4,1076.79 1152.74,1076.07C1157.45,1075.04 1159.58,1071.31 1159.62,1067.12C1159.66,1062.75 1158.4,1059.07 1154.28,1054.61Z" style="fill-rule:nonzero;"/>
                <path d="M1080.58,1139.65C1077.71,1136.54 1073.4,1132.83 1068.91,1130.65C1064.42,1132.83 1060.11,1136.54 1057.24,1139.65C1053.13,1144.11 1051.86,1147.79 1051.9,1152.16C1051.94,1156.35 1054.07,1160.08 1058.78,1161.11C1062.12,1161.83 1064.08,1160.81 1065.53,1159.98C1066.88,1159.21 1067.81,1157.74 1068.35,1156.67C1067.71,1159.88 1066.6,1164.9 1065.49,1167.5C1068.51,1167.48 1068.91,1167.5 1068.91,1167.5C1068.91,1167.5 1069.31,1167.48 1072.33,1167.5C1071.22,1164.9 1070.11,1159.88 1069.47,1156.67C1070.01,1157.74 1070.94,1159.21 1072.29,1159.98C1073.74,1160.81 1075.7,1161.83 1079.04,1161.11C1083.75,1160.08 1085.88,1156.35 1085.92,1152.16C1085.96,1147.79 1084.7,1144.11 1080.58,1139.65Z" style="fill-rule:nonzero;"/>
                <path d="M1154.28,1139.65C1151.41,1136.54 1147.1,1132.83 1142.61,1130.65C1138.12,1132.83 1133.81,1136.54 1130.94,1139.65C1126.83,1144.11 1125.56,1147.79 1125.6,1152.16C1125.64,1156.35 1127.77,1160.08 1132.48,1161.11C1135.82,1161.83 1137.78,1160.81 1139.23,1159.98C1140.58,1159.21 1141.51,1157.74 1142.05,1156.67C1141.41,1159.88 1140.3,1164.9 1139.19,1167.5C1142.21,1167.48 1142.61,1167.5 1142.61,1167.5C1142.61,1167.5 1143.01,1167.48 1146.03,1167.5C1144.92,1164.9 1143.81,1159.88 1143.17,1156.67C1143.71,1157.74 1144.64,1159.21 1145.99,1159.98C1147.44,1160.81 1149.4,1161.83 1152.74,1161.11C1157.45,1160.08 1159.58,1156.35 1159.62,1152.16C1159.66,1147.79 1158.4,1144.11 1154.28,1139.65Z" style="fill-rule:nonzero;"/>
                <path d="M1057.24,1243.53C1060.11,1246.65 1064.42,1250.36 1068.91,1252.54C1073.4,1250.36 1077.71,1246.65 1080.58,1243.53C1084.7,1239.08 1085.96,1235.39 1085.92,1231.03C1085.88,1226.83 1083.75,1223.1 1079.04,1222.08C1075.7,1221.35 1073.74,1222.37 1072.29,1223.2C1070.94,1223.97 1070.01,1225.45 1069.47,1226.52C1070.11,1223.3 1071.22,1218.28 1072.33,1215.69C1069.31,1215.71 1068.91,1215.69 1068.91,1215.69C1068.91,1215.69 1068.51,1215.71 1065.49,1215.69C1066.6,1218.28 1067.71,1223.3 1068.35,1226.52C1067.81,1225.45 1066.88,1223.97 1065.53,1223.2C1064.08,1222.37 1062.12,1221.35 1058.78,1222.08C1054.07,1223.1 1051.94,1226.83 1051.9,1231.03C1051.86,1235.39 1053.13,1239.08 1057.24,1243.53Z" style="fill-rule:nonzero;"/>
                <path d="M1130.94,1243.53C1133.81,1246.65 1138.12,1250.36 1142.61,1252.54C1147.1,1250.36 1151.41,1246.65 1154.28,1243.53C1158.4,1239.08 1159.66,1235.39 1159.62,1231.03C1159.58,1226.83 1157.45,1223.1 1152.74,1222.08C1149.4,1221.35 1147.44,1222.37 1145.99,1223.2C1144.64,1223.97 1143.71,1225.45 1143.17,1226.52C1143.81,1223.3 1144.92,1218.28 1146.03,1215.69C1143.01,1215.71 1142.61,1215.69 1142.61,1215.69C1142.61,1215.69 1142.21,1215.71 1139.19,1215.69C1140.3,1218.28 1141.41,1223.3 1142.05,1226.52C1141.51,1225.45 1140.58,1223.97 1139.23,1223.2C1137.78,1222.37 1135.82,1221.35 1132.48,1222.08C1127.77,1223.1 1125.64,1226.83 1125.6,1231.03C1125.56,1235.39 1126.83,1239.08 1130.94,1243.53Z" style="fill-rule:nonzero;"/>
                <path d="M1045.43,1068.61C1044.23,1067.31 1042.43,1065.77 1040.56,1064.86C1038.69,1065.77 1036.9,1067.31 1035.7,1068.61C1033.99,1070.47 1033.46,1072 1033.48,1073.82C1033.49,1075.57 1034.38,1077.12 1036.34,1077.55C1037.73,1077.85 1038.55,1077.43 1039.16,1077.08C1039.72,1076.76 1040.11,1076.15 1040.33,1075.7C1040.06,1077.04 1039.6,1079.13 1039.14,1080.21C1040.4,1080.2 1040.56,1080.21 1040.56,1080.21C1040.56,1080.21 1040.73,1080.2 1041.99,1080.21C1041.53,1079.13 1041.07,1077.04 1040.8,1075.7C1041.02,1076.15 1041.41,1076.76 1041.97,1077.08C1042.58,1077.43 1043.39,1077.85 1044.79,1077.55C1046.75,1077.12 1047.63,1075.57 1047.65,1073.82C1047.67,1072 1047.14,1070.47 1045.43,1068.61Z" style="fill-rule:nonzero;"/>
                <path d="M1035.7,1229.53C1036.9,1230.83 1038.69,1232.38 1040.56,1233.29C1042.43,1232.38 1044.23,1230.83 1045.43,1229.53C1047.14,1227.68 1047.67,1226.14 1047.65,1224.32C1047.63,1222.57 1046.75,1221.02 1044.79,1220.59C1043.39,1220.29 1042.58,1220.72 1041.97,1221.06C1041.41,1221.38 1041.02,1222 1040.8,1222.44C1041.07,1221.1 1041.53,1219.01 1041.99,1217.93C1040.73,1217.94 1040.56,1217.93 1040.56,1217.93C1040.56,1217.93 1040.4,1217.94 1039.14,1217.93C1039.6,1219.01 1040.06,1221.1 1040.33,1222.44C1040.11,1222 1039.72,1221.38 1039.16,1221.06C1038.55,1220.72 1037.73,1220.29 1036.34,1220.59C1034.38,1221.02 1033.49,1222.57 1033.48,1224.32C1033.46,1226.14 1033.99,1227.68 1035.7,1229.53Z" style="fill-rule:nonzero;"/>
                <path d="M1166.1,1229.53C1167.29,1230.83 1169.09,1232.38 1170.96,1233.29C1172.83,1232.38 1174.62,1230.83 1175.82,1229.53C1177.54,1227.68 1178.06,1226.14 1178.04,1224.32C1178.03,1222.57 1177.14,1221.02 1175.18,1220.59C1173.79,1220.29 1172.97,1220.72 1172.37,1221.06C1171.8,1221.38 1171.42,1222 1171.19,1222.44C1171.46,1221.1 1171.92,1219.01 1172.38,1217.93C1171.12,1217.94 1170.96,1217.93 1170.96,1217.93C1170.96,1217.93 1170.79,1217.94 1169.53,1217.93C1170,1219.01 1170.46,1221.1 1170.72,1222.44C1170.5,1222 1170.11,1221.38 1169.55,1221.06C1168.95,1220.72 1168.13,1220.29 1166.74,1220.59C1164.77,1221.02 1163.89,1222.57 1163.87,1224.32C1163.85,1226.14 1164.38,1227.68 1166.1,1229.53Z" style="fill-rule:nonzero;"/>
                <path d="M1175.82,1068.61C1174.62,1067.31 1172.83,1065.77 1170.96,1064.86C1169.09,1065.77 1167.29,1067.31 1166.1,1068.61C1164.38,1070.47 1163.85,1072 1163.87,1073.82C1163.89,1075.57 1164.77,1077.12 1166.74,1077.55C1168.13,1077.85 1168.95,1077.43 1169.55,1077.08C1170.11,1076.76 1170.5,1076.15 1170.72,1075.7C1170.46,1077.04 1170,1079.13 1169.53,1080.21C1170.79,1080.2 1170.96,1080.21 1170.96,1080.21C1170.96,1080.21 1171.12,1080.2 1172.38,1080.21C1171.92,1079.13 1171.46,1077.04 1171.19,1075.7C1171.42,1076.15 1171.8,1076.76 1172.37,1077.08C1172.97,1077.43 1173.79,1077.85 1175.18,1077.55C1177.14,1077.12 1178.03,1075.57 1178.04,1073.82C1178.06,1072 1177.54,1070.47 1175.82,1068.61Z" style="fill-rule:nonzero;"/>
                <path d="M1037.99,1054.58C1038.3,1055.64 1038.7,1056.21 1039,1056.52C1039.42,1056.93 1039.89,1057.13 1040.5,1057.1C1042.6,1057.05 1043.53,1055.34 1043.53,1053.67C1043.53,1052.03 1043.22,1050.9 1042.61,1050.3C1042.15,1049.85 1041.47,1049.62 1040.5,1049.67C1039.91,1049.68 1039.08,1049.84 1038.52,1050.54C1037.87,1051.36 1037.69,1052.75 1037.99,1054.58ZM1040.44,1059.6C1039.21,1059.6 1038.1,1059.15 1037.24,1058.29C1036.55,1057.6 1036.03,1056.68 1035.66,1055.53C1035.66,1055.53 1035.57,1055.27 1035.55,1055.14C1035.16,1053.74 1034.99,1052.03 1035.04,1050.01C1035.09,1047.33 1035.25,1040.22 1040.44,1040.1C1042.92,1040.06 1043.96,1040.53 1045.55,1042.42L1043.64,1044.03C1042.54,1042.73 1042.2,1042.56 1040.5,1042.6C1039.81,1042.62 1038.1,1042.65 1037.64,1048C1038.43,1047.48 1039.39,1047.19 1040.44,1047.17C1042.07,1047.14 1043.4,1047.57 1044.35,1048.51C1045.48,1049.61 1046.03,1051.3 1046.03,1053.67C1046.03,1056.55 1044.16,1059.52 1040.56,1059.6C1040.52,1059.6 1040.48,1059.6 1040.44,1059.6Z" style="fill-rule:nonzero;"/>
                <path d="M1168.38,1054.58C1168.69,1055.64 1169.09,1056.21 1169.4,1056.52C1169.81,1056.93 1170.29,1057.13 1170.9,1057.1C1172.99,1057.05 1173.93,1055.34 1173.93,1053.67C1173.93,1052.03 1173.62,1050.9 1173,1050.3C1172.54,1049.85 1171.86,1049.62 1170.9,1049.67C1170.3,1049.68 1169.47,1049.84 1168.92,1050.54C1168.26,1051.36 1168.08,1052.75 1168.38,1054.58ZM1170.84,1059.6C1169.6,1059.6 1168.49,1059.15 1167.63,1058.29C1166.95,1057.6 1166.42,1056.68 1166.06,1055.53C1166.06,1055.53 1165.96,1055.27 1165.94,1055.14C1165.56,1053.74 1165.38,1052.03 1165.43,1050.01C1165.49,1047.33 1165.64,1040.22 1170.84,1040.1C1173.31,1040.06 1174.35,1040.53 1175.95,1042.42L1174.03,1044.03C1172.94,1042.73 1172.59,1042.56 1170.89,1042.6C1170.21,1042.62 1168.5,1042.65 1168.03,1048C1168.82,1047.48 1169.78,1047.19 1170.83,1047.17C1172.46,1047.14 1173.79,1047.57 1174.74,1048.51C1175.88,1049.61 1176.43,1051.3 1176.43,1053.67C1176.43,1056.55 1174.55,1059.52 1170.96,1059.6C1170.92,1059.6 1170.88,1059.6 1170.84,1059.6Z" style="fill-rule:nonzero;"/>
                <path d="M1043.08,1243.55C1042.77,1242.49 1042.36,1241.91 1042.06,1241.61C1041.65,1241.2 1041.17,1240.99 1040.56,1241.03C1038.46,1241.07 1037.53,1242.79 1037.53,1244.46C1037.53,1246.1 1037.84,1247.23 1038.46,1247.83C1038.92,1248.28 1039.6,1248.5 1040.56,1248.46C1041.16,1248.45 1041.98,1248.28 1042.54,1247.59C1043.19,1246.77 1043.38,1245.38 1043.08,1243.55ZM1040.62,1238.52C1041.85,1238.52 1042.96,1238.98 1043.83,1239.84C1044.51,1240.52 1045.03,1241.45 1045.4,1242.6C1045.4,1242.6 1045.49,1242.86 1045.52,1242.99C1045.9,1244.39 1046.07,1246.1 1046.03,1248.12C1045.97,1250.79 1045.81,1257.91 1040.62,1258.03C1038.15,1258.07 1037.1,1257.6 1035.51,1255.7L1037.42,1254.1C1038.52,1255.4 1038.87,1255.56 1040.56,1255.53C1041.25,1255.51 1042.96,1255.47 1043.42,1250.13C1042.63,1250.65 1041.68,1250.94 1040.62,1250.96C1038.99,1250.99 1037.67,1250.55 1036.71,1249.62C1035.58,1248.52 1035.03,1246.83 1035.03,1244.46C1035.03,1241.58 1036.91,1238.61 1040.5,1238.53C1040.54,1238.52 1040.58,1238.52 1040.62,1238.52Z" style="fill-rule:nonzero;"/>
                <path d="M1173.47,1243.55C1173.16,1242.49 1172.76,1241.91 1172.45,1241.61C1172.04,1241.2 1171.56,1240.99 1170.95,1241.03C1168.86,1241.07 1167.92,1242.79 1167.92,1244.46C1167.92,1246.1 1168.23,1247.23 1168.85,1247.83C1169.31,1248.28 1169.99,1248.5 1170.95,1248.46C1171.55,1248.45 1172.38,1248.28 1172.93,1247.59C1173.58,1246.77 1173.77,1245.38 1173.47,1243.55ZM1171.01,1238.52C1172.25,1238.52 1173.36,1238.98 1174.22,1239.84C1174.9,1240.52 1175.43,1241.45 1175.79,1242.6C1175.79,1242.6 1175.89,1242.86 1175.91,1242.99C1176.29,1244.39 1176.47,1246.1 1176.42,1248.12C1176.36,1250.79 1176.21,1257.91 1171.01,1258.03C1168.54,1258.07 1167.5,1257.6 1165.9,1255.7L1167.82,1254.1C1168.91,1255.4 1169.26,1255.56 1170.96,1255.53C1171.64,1255.51 1173.35,1255.47 1173.82,1250.13C1173.03,1250.65 1172.07,1250.94 1171.02,1250.96C1169.38,1250.99 1168.06,1250.55 1167.11,1249.62C1165.97,1248.52 1165.42,1246.83 1165.42,1244.46C1165.42,1241.58 1167.3,1238.61 1170.89,1238.53C1170.93,1238.52 1170.97,1238.52 1171.01,1238.52Z" style="fill-rule:nonzero;"/>
            </g>
        </g>
    </g>
</svg>
