<?xml version="1.0" encoding="UTF-8" standalone="no"?>
<!DOCTYPE svg PUBLIC "-//W3C//DTD SVG 1.1//EN" "http://www.w3.org/Graphics/SVG/1.1/DTD/svg11.dtd">
<svg width="100%" height="100%" viewBox="0 0 150 225" version="1.1" xmlns="http://www.w3.org/2000/svg" xmlns:xlink="http://www.w3.org/1999/xlink" xml:space="preserve" xmlns:serif="http://www.serif.com/" style="fill-rule:evenodd;clip-rule:evenodd;stroke-linejoin:round;stroke-miterlimit:1.41421;">
    <g transform="matrix(1,0,0,1,-691,-1036)">
        <g>
            <g>
                <rect x="0.25" y="1.04" width="1530.71" height="1530.71" style="fill:white;fill-rule:nonzero;"/>
                <path d="M698.816,1272.63C690.959,1272.63 684.566,1266.24 684.566,1258.38L684.566,1039.76C684.566,1031.91 690.959,1025.51 698.816,1025.51L832.392,1025.51C840.249,1025.51 846.642,1031.91 846.642,1039.76L846.642,1258.38C846.642,1266.24 840.249,1272.63 832.392,1272.63L698.816,1272.63Z" style="fill:white;fill-rule:nonzero;"/>
                <path d="M832.392,1025.26L698.816,1025.26C690.821,1025.26 684.316,1031.77 684.316,1039.76L684.316,1258.38C684.316,1266.37 690.821,1272.88 698.816,1272.88L832.392,1272.88C840.387,1272.88 846.892,1266.37 846.892,1258.38L846.892,1039.76C846.892,1031.77 840.387,1025.26 832.392,1025.26ZM832.392,1025.76C840.123,1025.76 846.392,1032.03 846.392,1039.76L846.392,1258.38C846.392,1266.11 840.123,1272.38 832.392,1272.38L698.816,1272.38C691.084,1272.38 684.816,1266.11 684.816,1258.38L684.816,1039.76C684.816,1032.03 691.084,1025.76 698.816,1025.76L832.392,1025.76Z" style="fill-rule:nonzero;"/>
            </g>
            <g>
                <path d="M739.273,1059.91C737.123,1059.49 734.18,1061.15 731.786,1062.91C733.997,1060.5 736.604,1057.08 736.604,1054.31C736.604,1049.5 733.088,1045.61 728.754,1045.61C724.418,1045.61 720.904,1049.5 720.904,1054.31C720.904,1057.08 723.512,1060.5 725.722,1062.91C723.329,1061.15 720.385,1059.49 718.234,1059.91C713.965,1060.74 711.114,1065.25 711.867,1069.99C712.619,1074.72 716.691,1077.88 720.96,1077.04C723.549,1076.54 726.286,1072.75 728.04,1069.85C727.384,1073.86 726.362,1079.46 725.336,1082.46C728.356,1082.43 728.754,1082.46 728.754,1082.46C728.754,1082.46 729.15,1082.43 732.171,1082.46C731.146,1079.46 730.124,1073.86 729.468,1069.85C731.222,1072.75 733.958,1076.54 736.548,1077.04C740.816,1077.88 744.889,1074.72 745.641,1069.99C746.394,1065.25 743.543,1060.74 739.273,1059.91Z" style="fill-rule:nonzero;"/>
                <path d="M812.974,1059.91C810.823,1059.49 807.88,1061.15 805.486,1062.91C807.697,1060.5 810.304,1057.08 810.304,1054.31C810.304,1049.5 806.789,1045.61 802.454,1045.61C798.119,1045.61 794.604,1049.5 794.604,1054.31C794.604,1057.08 797.212,1060.5 799.422,1062.91C797.029,1061.15 794.085,1059.49 791.935,1059.91C787.665,1060.74 784.814,1065.25 785.567,1069.99C786.319,1074.72 790.392,1077.88 794.661,1077.04C797.25,1076.54 799.986,1072.75 801.74,1069.85C801.084,1073.86 800.062,1079.46 799.037,1082.46C802.057,1082.43 802.454,1082.46 802.454,1082.46C802.454,1082.46 802.851,1082.43 805.872,1082.46C804.846,1079.46 803.824,1073.86 803.168,1069.85C804.922,1072.75 807.659,1076.54 810.248,1077.04C814.517,1077.88 818.589,1074.72 819.341,1069.99C820.094,1065.25 817.243,1060.74 812.974,1059.91Z" style="fill-rule:nonzero;"/>
                <path d="M739.273,1144.95C737.123,1144.53 734.18,1146.19 731.786,1147.95C733.997,1145.54 736.604,1142.12 736.604,1139.35C736.604,1134.54 733.088,1130.65 728.754,1130.65C724.418,1130.65 720.904,1134.54 720.904,1139.35C720.904,1142.12 723.512,1145.54 725.722,1147.95C723.329,1146.19 720.385,1144.53 718.234,1144.95C713.965,1145.78 711.114,1150.29 711.867,1155.03C712.619,1159.76 716.691,1162.92 720.96,1162.08C723.549,1161.58 726.286,1157.79 728.04,1154.89C727.384,1158.9 726.362,1164.5 725.336,1167.5C728.356,1167.47 728.754,1167.5 728.754,1167.5C728.754,1167.5 729.15,1167.47 732.171,1167.5C731.146,1164.5 730.124,1158.9 729.468,1154.89C731.222,1157.79 733.958,1161.58 736.548,1162.08C740.816,1162.92 744.889,1159.76 745.641,1155.03C746.394,1150.29 743.543,1145.78 739.273,1144.95Z" style="fill-rule:nonzero;"/>
                <path d="M812.974,1144.95C810.823,1144.53 807.88,1146.19 805.486,1147.95C807.697,1145.54 810.304,1142.12 810.304,1139.35C810.304,1134.54 806.789,1130.65 802.454,1130.65C798.119,1130.65 794.604,1134.54 794.604,1139.35C794.604,1142.12 797.212,1145.54 799.422,1147.95C797.029,1146.19 794.085,1144.53 791.935,1144.95C787.665,1145.78 784.814,1150.29 785.567,1155.03C786.319,1159.76 790.392,1162.92 794.661,1162.08C797.25,1161.58 799.986,1157.79 801.74,1154.89C801.084,1158.9 800.062,1164.5 799.037,1167.5C802.057,1167.47 802.454,1167.5 802.454,1167.5C802.454,1167.5 802.851,1167.47 805.872,1167.5C804.846,1164.5 803.824,1158.9 803.168,1154.89C804.922,1157.79 807.659,1161.58 810.248,1162.08C814.517,1162.92 818.589,1159.76 819.341,1155.03C820.094,1150.29 817.243,1145.78 812.974,1144.95Z" style="fill-rule:nonzero;"/>
                <path d="M718.234,1238.24C720.385,1238.66 723.328,1236.99 725.722,1235.23C723.511,1237.64 720.904,1241.07 720.904,1243.84C720.904,1248.64 724.419,1252.54 728.754,1252.54C733.089,1252.54 736.604,1248.64 736.604,1243.84C736.604,1241.07 733.996,1237.64 731.786,1235.23C734.179,1236.99 737.123,1238.66 739.273,1238.24C743.543,1237.4 746.394,1232.89 745.641,1228.16C744.889,1223.43 740.816,1220.27 736.547,1221.1C733.958,1221.61 731.222,1225.39 729.468,1228.29C730.124,1224.28 731.146,1218.69 732.171,1215.69C729.151,1215.71 728.754,1215.69 728.754,1215.69C728.754,1215.69 728.357,1215.71 725.336,1215.69C726.362,1218.69 727.384,1224.28 728.04,1228.29C726.286,1225.39 723.549,1221.61 720.96,1221.1C716.691,1220.27 712.619,1223.43 711.867,1228.16C711.114,1232.89 713.965,1237.4 718.234,1238.24Z" style="fill-rule:nonzero;"/>
                <path d="M791.935,1238.24C794.085,1238.66 797.028,1236.99 799.422,1235.23C797.211,1237.64 794.604,1241.07 794.604,1243.84C794.604,1248.64 798.12,1252.54 802.454,1252.54C806.79,1252.54 810.304,1248.64 810.304,1243.84C810.304,1241.07 807.696,1237.64 805.486,1235.23C807.879,1236.99 810.823,1238.66 812.974,1238.24C817.243,1237.4 820.094,1232.89 819.341,1228.16C818.589,1223.43 814.517,1220.27 810.248,1221.1C807.659,1221.61 804.922,1225.39 803.168,1228.29C803.824,1224.28 804.846,1218.69 805.872,1215.69C802.852,1215.71 802.454,1215.69 802.454,1215.69C802.454,1215.69 802.058,1215.71 799.037,1215.69C800.062,1218.69 801.084,1224.28 801.74,1228.29C799.986,1225.39 797.25,1221.61 794.66,1221.1C790.392,1220.27 786.319,1223.43 785.567,1228.16C784.814,1232.89 787.665,1237.4 791.935,1238.24Z" style="fill-rule:nonzero;"/>
                <path d="M704.791,1070.82C703.895,1070.64 702.668,1071.34 701.671,1072.07C702.592,1071.06 703.678,1069.64 703.678,1068.48C703.678,1066.48 702.213,1064.86 700.407,1064.86C698.601,1064.86 697.136,1066.48 697.136,1068.48C697.136,1069.64 698.223,1071.07 699.144,1072.07C698.146,1071.34 696.92,1070.64 696.024,1070.82C694.245,1071.17 693.057,1073.05 693.37,1075.02C693.684,1076.99 695.381,1078.3 697.16,1077.96C698.238,1077.75 699.379,1076.17 700.11,1074.96C699.836,1076.63 699.41,1078.96 698.983,1080.21C700.242,1080.2 700.407,1080.21 700.407,1080.21C700.407,1080.21 700.572,1080.2 701.831,1080.21C701.404,1078.96 700.978,1076.63 700.705,1074.96C701.436,1076.17 702.576,1077.75 703.655,1077.96C705.434,1078.3 707.131,1076.99 707.444,1075.02C707.758,1073.05 706.57,1071.17 704.791,1070.82Z" style="fill-rule:nonzero;"/>
                <path d="M696.024,1227.33C696.92,1227.5 698.146,1226.81 699.144,1226.07C698.223,1227.08 697.136,1228.51 697.136,1229.66C697.136,1231.66 698.601,1233.29 700.407,1233.29C702.214,1233.29 703.678,1231.66 703.678,1229.66C703.678,1228.51 702.592,1227.08 701.671,1226.07C702.668,1226.81 703.895,1227.5 704.791,1227.33C706.57,1226.98 707.758,1225.1 707.444,1223.13C707.131,1221.16 705.434,1219.84 703.655,1220.19C702.576,1220.4 701.436,1221.97 700.705,1223.18C700.978,1221.51 701.404,1219.18 701.831,1217.93C700.573,1217.94 700.407,1217.93 700.407,1217.93C700.407,1217.93 700.242,1217.94 698.983,1217.93C699.41,1219.18 699.836,1221.51 700.11,1223.18C699.379,1221.97 698.238,1220.4 697.159,1220.19C695.381,1219.84 693.684,1221.16 693.37,1223.13C693.057,1225.1 694.245,1226.98 696.024,1227.33Z" style="fill-rule:nonzero;"/>
                <path d="M826.417,1227.33C827.313,1227.5 828.54,1226.81 829.537,1226.07C828.616,1227.08 827.53,1228.51 827.53,1229.66C827.53,1231.66 828.995,1233.29 830.801,1233.29C832.607,1233.29 834.072,1231.66 834.072,1229.66C834.072,1228.51 832.985,1227.08 832.064,1226.07C833.061,1226.81 834.288,1227.5 835.184,1227.33C836.963,1226.98 838.151,1225.1 837.838,1223.13C837.524,1221.16 835.827,1219.84 834.048,1220.19C832.969,1220.4 831.829,1221.97 831.098,1223.18C831.371,1221.51 831.798,1219.18 832.225,1217.93C830.966,1217.94 830.801,1217.93 830.801,1217.93C830.801,1217.93 830.636,1217.94 829.377,1217.93C829.804,1219.18 830.23,1221.51 830.503,1223.18C829.772,1221.97 828.632,1220.4 827.553,1220.19C825.774,1219.84 824.077,1221.16 823.764,1223.13C823.45,1225.1 824.638,1226.98 826.417,1227.33Z" style="fill-rule:nonzero;"/>
                <path d="M835.184,1070.82C834.288,1070.64 833.062,1071.34 832.064,1072.07C832.985,1071.06 834.072,1069.64 834.072,1068.48C834.072,1066.48 832.607,1064.86 830.801,1064.86C828.994,1064.86 827.53,1066.48 827.53,1068.48C827.53,1069.64 828.616,1071.07 829.537,1072.07C828.54,1071.34 827.313,1070.64 826.417,1070.82C824.638,1071.17 823.45,1073.05 823.764,1075.02C824.077,1076.99 825.774,1078.3 827.553,1077.96C828.632,1077.75 829.772,1076.17 830.503,1074.96C830.23,1076.63 829.804,1078.96 829.377,1080.21C830.635,1080.2 830.801,1080.21 830.801,1080.21C830.801,1080.21 830.966,1080.2 832.225,1080.21C831.798,1078.96 831.371,1076.63 831.098,1074.96C831.829,1076.17 832.969,1077.75 834.048,1077.96C835.827,1078.3 837.524,1076.99 837.838,1075.02C838.151,1073.05 836.963,1071.17 835.184,1070.82Z" style="fill-rule:nonzero;"/>
                <path d="M697.83,1054.58C698.139,1055.64 698.543,1056.21 698.846,1056.52C699.26,1056.93 699.735,1057.13 700.348,1057.1C702.44,1057.05 703.377,1055.34 703.377,1053.67C703.377,1052.03 703.064,1050.9 702.448,1050.3C701.988,1049.85 701.309,1049.62 700.347,1049.67C699.75,1049.68 698.922,1049.84 698.367,1050.54C697.714,1051.36 697.53,1052.75 697.83,1054.58ZM700.287,1059.6C699.051,1059.6 697.943,1059.15 697.079,1058.29C696.397,1057.6 695.872,1056.68 695.505,1055.53C695.505,1055.53 695.412,1055.27 695.39,1055.14C695.005,1053.74 694.833,1052.03 694.878,1050.01C694.937,1047.33 695.093,1040.22 700.287,1040.1C702.76,1040.06 703.804,1040.53 705.396,1042.42L703.482,1044.03C702.386,1042.73 702.038,1042.56 700.342,1042.6C699.654,1042.62 697.946,1042.65 697.483,1048C698.271,1047.48 699.229,1047.19 700.282,1047.17C701.914,1047.14 703.238,1047.57 704.193,1048.51C705.326,1049.61 705.877,1051.3 705.877,1053.67C705.877,1056.55 703.998,1059.52 700.406,1059.6C700.366,1059.6 700.327,1059.6 700.287,1059.6Z" style="fill-rule:nonzero;"/>
                <path d="M828.224,1054.58C828.532,1055.64 828.937,1056.21 829.239,1056.52C829.653,1056.93 830.129,1057.13 830.741,1057.1C832.834,1057.05 833.771,1055.34 833.771,1053.67C833.771,1052.03 833.458,1050.9 832.842,1050.3C832.382,1049.85 831.702,1049.62 830.74,1049.67C830.144,1049.68 829.315,1049.84 828.761,1050.54C828.107,1051.36 827.924,1052.75 828.224,1054.58ZM830.681,1059.6C829.444,1059.6 828.337,1059.15 827.473,1058.29C826.791,1057.6 826.266,1056.68 825.898,1055.53C825.898,1055.53 825.806,1055.27 825.783,1055.14C825.398,1053.74 825.227,1052.03 825.271,1050.01C825.33,1047.33 825.486,1040.22 830.681,1040.1C833.153,1040.06 834.197,1040.53 835.79,1042.42L833.876,1044.03C832.779,1042.73 832.432,1042.56 830.735,1042.6C830.048,1042.62 828.34,1042.65 827.877,1048C828.665,1047.48 829.623,1047.19 830.676,1047.17C832.308,1047.14 833.632,1047.57 834.587,1048.51C835.72,1049.61 836.271,1051.3 836.271,1053.67C836.271,1056.55 834.392,1059.52 830.8,1059.6C830.76,1059.6 830.721,1059.6 830.681,1059.6Z" style="fill-rule:nonzero;"/>
                <path d="M702.919,1243.55C702.609,1242.49 702.205,1241.91 701.902,1241.61C701.488,1241.2 701.014,1240.99 700.4,1241.03C698.308,1241.07 697.371,1242.79 697.371,1244.46C697.371,1246.1 697.684,1247.23 698.3,1247.83C698.761,1248.28 699.44,1248.5 700.402,1248.46C700.999,1248.45 701.826,1248.28 702.381,1247.59C703.034,1246.77 703.218,1245.38 702.919,1243.55ZM700.461,1238.52C701.697,1238.52 702.805,1238.98 703.669,1239.84C704.352,1240.52 704.877,1241.45 705.244,1242.6C705.244,1242.6 705.336,1242.86 705.359,1242.99C705.744,1244.39 705.915,1246.1 705.871,1248.12C705.813,1250.79 705.656,1257.91 700.461,1258.03C697.989,1258.07 696.945,1257.6 695.352,1255.7L697.266,1254.1C698.363,1255.4 698.711,1255.56 700.407,1255.53C701.094,1255.51 702.803,1255.47 703.265,1250.13C702.477,1250.65 701.52,1250.94 700.466,1250.96C698.834,1250.99 697.511,1250.55 696.555,1249.62C695.422,1248.52 694.871,1246.83 694.871,1244.46C694.871,1241.58 696.751,1238.61 700.343,1238.53C700.382,1238.52 700.422,1238.52 700.461,1238.52Z" style="fill-rule:nonzero;"/>
                <path d="M833.313,1243.55C833.003,1242.49 832.599,1241.91 832.296,1241.61C831.882,1241.2 831.407,1240.99 830.794,1241.03C828.701,1241.07 827.765,1242.79 827.765,1244.46C827.765,1246.1 828.077,1247.23 828.693,1247.83C829.154,1248.28 829.834,1248.5 830.796,1248.46C831.393,1248.45 832.22,1248.28 832.774,1247.59C833.428,1246.77 833.611,1245.38 833.313,1243.55ZM830.854,1238.52C832.091,1238.52 833.198,1238.98 834.063,1239.84C834.745,1240.52 835.271,1241.45 835.638,1242.6C835.638,1242.6 835.729,1242.86 835.753,1242.99C836.138,1244.39 836.309,1246.1 836.265,1248.12C836.206,1250.79 836.05,1257.91 830.854,1258.03C828.383,1258.07 827.339,1257.6 825.745,1255.7L827.659,1254.1C828.757,1255.4 829.104,1255.56 830.801,1255.53C831.487,1255.51 833.196,1255.47 833.658,1250.13C832.87,1250.65 831.913,1250.94 830.859,1250.96C829.228,1250.99 827.904,1250.55 826.948,1249.62C825.815,1248.52 825.265,1246.83 825.265,1244.46C825.265,1241.58 827.145,1238.61 830.736,1238.53C830.775,1238.52 830.815,1238.52 830.854,1238.52Z" style="fill-rule:nonzero;"/>
            </g>
        </g>
    </g>
</svg>
