<?xml version="1.0" encoding="UTF-8" standalone="no"?>
<!DOCTYPE svg PUBLIC "-//W3C//DTD SVG 1.1//EN" "http://www.w3.org/Graphics/SVG/1.1/DTD/svg11.dtd">
<svg width="100%" height="100%" viewBox="0 0 150 225" version="1.1" xmlns="http://www.w3.org/2000/svg" xmlns:xlink="http://www.w3.org/1999/xlink" xml:space="preserve" xmlns:serif="http://www.serif.com/" style="fill-rule:evenodd;clip-rule:evenodd;stroke-linejoin:round;stroke-miterlimit:1.41421;">
    <g transform="matrix(1,0,0,1,-181,-526)">
        <g>
            <g>
                <rect x="0.25" y="1.04" width="1530.71" height="1530.71" style="fill:white;fill-rule:nonzero;"/>
                <path d="M188.581,762.393C180.723,762.393 174.331,756 174.331,748.143L174.331,529.528C174.331,521.671 180.723,515.278 188.581,515.278L322.155,515.278C330.013,515.278 336.405,521.671 336.405,529.528L336.405,748.143C336.405,756 330.013,762.393 322.155,762.393L188.581,762.393Z" style="fill:white;fill-rule:nonzero;"/>
                <path d="M322.155,515.028L188.581,515.028C180.585,515.028 174.081,521.533 174.081,529.528L174.081,748.143C174.081,756.138 180.585,762.643 188.581,762.643L322.155,762.643C330.15,762.643 336.655,756.138 336.655,748.143L336.655,529.528C336.655,521.533 330.15,515.028 322.155,515.028ZM322.155,515.528C329.887,515.528 336.155,521.796 336.155,529.528L336.155,748.143C336.155,755.874 329.887,762.143 322.155,762.143L188.581,762.143C180.849,762.143 174.581,755.874 174.581,748.143L174.581,529.528C174.581,521.796 180.849,515.528 188.581,515.528L322.155,515.528Z" style="fill-rule:nonzero;"/>
            </g>
            <g>
                <path d="M218.503,572.221C217.861,570.864 217.044,569.84 215.656,568.327C214.012,566.537 208.122,561.374 205.955,558.862C204.381,557.037 201.806,553.742 201.544,547.833C201.443,545.549 201.223,539.962 206.572,536.476C208.862,534.982 212.792,534.818 215.344,537.134C218.125,539.66 218.51,542.576 218.51,542.576C218.51,542.576 219.604,538.615 221.887,537.052C223.338,536.057 225.3,534.835 228.64,535.704C233.354,536.931 235.484,541.4 235.524,546.434C235.565,551.665 234.815,555.137 230.179,559.891C226.923,563.229 223.521,565.973 220.585,569.377C219.472,570.667 219.107,570.957 218.503,572.221Z" style="fill:rgb(200,0,0);fill-rule:nonzero;"/>
                <path d="M292.204,572.221C291.562,570.864 290.745,569.84 289.356,568.327C287.713,566.537 281.823,561.374 279.656,558.862C278.082,557.037 275.506,553.742 275.245,547.833C275.144,545.549 274.924,539.962 280.273,536.476C282.563,534.982 286.493,534.818 289.044,537.134C291.826,539.66 292.21,542.576 292.21,542.576C292.21,542.576 293.305,538.615 295.588,537.052C297.039,536.057 299,534.835 302.341,535.704C307.055,536.931 309.185,541.4 309.225,546.434C309.266,551.665 308.516,555.137 303.879,559.891C300.624,563.229 297.221,565.973 294.286,569.377C293.172,570.667 292.808,570.957 292.204,572.221Z" style="fill:rgb(200,0,0);fill-rule:nonzero;"/>
                <path d="M255.354,600.568C254.711,599.21 253.895,598.187 252.506,596.674C250.863,594.883 244.973,589.721 242.806,587.209C241.231,585.384 238.656,582.088 238.395,576.18C238.293,573.896 238.074,568.309 243.423,564.822C245.712,563.329 249.643,563.165 252.194,565.481C254.976,568.007 255.36,570.922 255.36,570.922C255.36,570.922 256.454,566.962 258.738,565.398C260.187,564.404 262.15,563.182 265.491,564.051C270.205,565.277 272.334,569.747 272.375,574.781C272.416,580.012 271.666,583.484 267.029,588.237C263.774,591.576 260.371,594.319 257.436,597.724C256.321,599.014 255.958,599.303 255.354,600.568Z" style="fill:rgb(200,0,0);fill-rule:nonzero;"/>
                <path d="M218.503,628.915C217.861,627.557 217.044,626.534 215.656,625.02C214.012,623.23 208.122,618.068 205.955,615.556C204.381,613.73 201.806,610.435 201.544,604.527C201.443,602.243 201.223,596.656 206.572,593.169C208.862,591.676 212.792,591.512 215.344,593.828C218.125,596.353 218.51,599.269 218.51,599.269C218.51,599.269 219.604,595.309 221.887,593.745C223.338,592.75 225.3,591.528 228.64,592.397C233.354,593.624 235.484,598.094 235.524,603.127C235.565,608.359 234.815,611.831 230.179,616.584C226.923,619.922 223.521,622.666 220.585,626.07C219.472,627.361 219.107,627.65 218.503,628.915Z" style="fill:rgb(200,0,0);fill-rule:nonzero;"/>
                <path d="M292.204,628.915C291.562,627.557 290.745,626.534 289.356,625.02C287.713,623.23 281.823,618.068 279.656,615.556C278.082,613.73 275.506,610.435 275.245,604.527C275.144,602.243 274.924,596.656 280.273,593.169C282.563,591.676 286.493,591.512 289.044,593.828C291.826,596.353 292.21,599.269 292.21,599.269C292.21,599.269 293.305,595.309 295.588,593.745C297.039,592.75 299,591.528 302.341,592.397C307.055,593.624 309.185,598.094 309.225,603.127C309.266,608.359 308.516,611.831 303.879,616.584C300.624,619.922 297.221,622.666 294.286,626.07C293.172,627.361 292.808,627.65 292.204,628.915Z" style="fill:rgb(200,0,0);fill-rule:nonzero;"/>
                <path d="M218.532,648.757C219.174,650.115 219.991,651.138 221.379,652.651C223.023,654.442 228.913,659.604 231.08,662.116C232.654,663.941 235.229,667.237 235.491,673.145C235.592,675.429 235.812,681.016 230.463,684.503C228.173,685.996 224.243,686.16 221.691,683.844C218.91,681.318 218.525,678.403 218.525,678.403C218.525,678.403 217.431,682.363 215.148,683.927C213.697,684.921 211.735,686.144 208.395,685.274C203.681,684.048 201.551,679.578 201.511,674.544C201.47,669.313 202.22,665.841 206.856,661.088C210.112,657.749 213.515,655.006 216.45,651.602C217.563,650.311 217.928,650.022 218.532,648.757Z" style="fill:rgb(200,0,0);fill-rule:nonzero;"/>
                <path d="M292.232,648.757C292.875,650.115 293.691,651.138 295.08,652.651C296.724,654.442 302.614,659.604 304.781,662.116C306.355,663.941 308.93,667.237 309.192,673.145C309.293,675.429 309.513,681.016 304.164,684.503C301.874,685.996 297.943,686.16 295.392,683.844C292.61,681.318 292.226,678.403 292.226,678.403C292.226,678.403 291.131,682.363 288.849,683.927C287.398,684.921 285.436,686.144 282.096,685.274C277.381,684.048 275.252,679.578 275.212,674.544C275.171,669.313 275.92,665.841 280.557,661.088C283.813,657.749 287.215,655.006 290.15,651.602C291.264,650.311 291.628,650.022 292.232,648.757Z" style="fill:rgb(200,0,0);fill-rule:nonzero;"/>
                <path d="M255.382,677.104C256.025,678.461 256.841,679.485 258.23,680.998C259.874,682.789 265.764,687.951 267.931,690.463C269.505,692.288 272.08,695.583 272.342,701.492C272.443,703.776 272.663,709.363 267.313,712.85C265.024,714.343 261.092,714.507 258.542,712.191C255.76,709.665 255.376,706.749 255.376,706.749C255.376,706.749 254.281,710.71 251.999,712.273C250.548,713.268 248.586,714.49 245.246,713.621C240.531,712.394 238.402,707.925 238.362,702.891C238.321,697.66 239.07,694.188 243.707,689.435C246.962,686.096 250.365,683.353 253.3,679.948C254.414,678.658 254.778,678.369 255.382,677.104Z" style="fill:rgb(200,0,0);fill-rule:nonzero;"/>
                <path d="M218.532,705.451C219.174,706.808 219.991,707.832 221.379,709.345C223.023,711.135 228.913,716.297 231.08,718.81C232.654,720.635 235.229,723.93 235.491,729.838C235.592,732.123 235.812,737.709 230.463,741.196C228.173,742.689 224.243,742.853 221.691,740.538C218.91,738.012 218.525,735.096 218.525,735.096C218.525,735.096 217.431,739.057 215.148,740.62C213.697,741.615 211.735,742.837 208.395,741.968C203.681,740.741 201.551,736.271 201.511,731.238C201.47,726.006 202.22,722.535 206.856,717.781C210.112,714.443 213.515,711.699 216.45,708.295C217.563,707.004 217.928,706.715 218.532,705.451Z" style="fill:rgb(200,0,0);fill-rule:nonzero;"/>
                <path d="M292.232,705.451C292.875,706.808 293.691,707.832 295.08,709.345C296.724,711.135 302.614,716.297 304.781,718.81C306.355,720.635 308.93,723.93 309.192,729.838C309.293,732.123 309.513,737.709 304.164,741.196C301.874,742.689 297.943,742.853 295.392,740.538C292.61,738.012 292.226,735.096 292.226,735.096C292.226,735.096 291.131,739.057 288.849,740.62C287.398,741.615 285.436,742.837 282.096,741.968C277.381,740.741 275.252,736.271 275.212,731.238C275.171,726.006 275.92,722.535 280.557,717.781C283.813,714.443 287.215,711.699 290.15,708.295C291.264,707.004 291.628,706.715 292.232,705.451Z" style="fill:rgb(200,0,0);fill-rule:nonzero;"/>
                <path d="M190.165,569.978C189.897,569.412 189.557,568.985 188.978,568.355C188.294,567.609 185.839,565.458 184.936,564.411C184.28,563.65 183.207,562.277 183.098,559.815C183.056,558.863 182.964,556.535 185.193,555.082C186.147,554.46 187.785,554.392 188.848,555.357C190.008,556.409 190.168,557.624 190.168,557.624C190.168,557.624 190.624,555.974 191.575,555.322C192.18,554.908 192.997,554.399 194.389,554.761C196.353,555.272 197.241,557.135 197.257,559.232C197.275,561.412 196.962,562.859 195.03,564.839C193.674,566.23 192.256,567.374 191.033,568.792C190.568,569.33 190.417,569.451 190.165,569.978Z" style="fill:rgb(200,0,0);fill-rule:nonzero;"/>
                <path d="M190.177,707.693C190.445,708.259 190.785,708.685 191.363,709.316C192.048,710.062 194.503,712.213 195.406,713.26C196.062,714.02 197.135,715.394 197.244,717.856C197.286,718.807 197.377,721.135 195.148,722.588C194.194,723.211 192.557,723.279 191.493,722.314C190.334,721.261 190.174,720.046 190.174,720.046C190.174,720.046 189.718,721.697 188.767,722.348C188.162,722.763 187.345,723.272 185.953,722.91C183.988,722.399 183.101,720.536 183.084,718.439C183.067,716.259 183.38,714.812 185.312,712.831C186.668,711.44 188.086,710.297 189.309,708.878C189.773,708.341 189.925,708.22 190.177,707.693Z" style="fill:rgb(200,0,0);fill-rule:nonzero;"/>
                <path d="M320.571,707.693C320.839,708.259 321.179,708.685 321.757,709.316C322.442,710.062 324.897,712.213 325.8,713.26C326.456,714.02 327.529,715.394 327.638,717.856C327.68,718.807 327.772,721.135 325.543,722.588C324.588,723.211 322.951,723.279 321.887,722.314C320.728,721.261 320.568,720.046 320.568,720.046C320.568,720.046 320.112,721.697 319.161,722.348C318.556,722.763 317.739,723.272 316.347,722.91C314.382,722.399 313.495,720.536 313.478,718.439C313.461,716.259 313.774,714.812 315.706,712.831C317.062,711.44 318.48,710.297 319.703,708.878C320.167,708.341 320.319,708.22 320.571,707.693Z" style="fill:rgb(200,0,0);fill-rule:nonzero;"/>
                <path d="M320.559,569.978C320.291,569.412 319.951,568.985 319.372,568.355C318.688,567.609 316.233,565.458 315.33,564.411C314.674,563.65 313.601,562.277 313.492,559.815C313.45,558.863 313.358,556.535 315.587,555.082C316.541,554.46 318.179,554.392 319.242,555.357C320.402,556.409 320.562,557.624 320.562,557.624C320.562,557.624 321.018,555.974 321.969,555.322C322.574,554.908 323.391,554.399 324.783,554.761C326.747,555.272 327.635,557.135 327.651,559.232C327.669,561.412 327.356,562.859 325.424,564.839C324.068,566.23 322.65,567.374 321.427,568.792C320.962,569.33 320.811,569.451 320.559,569.978Z" style="fill:rgb(200,0,0);fill-rule:nonzero;"/>
                <path d="M191.589,532.353C189.636,532.353 189.226,536.363 189.226,539.728C189.226,542.389 189.533,546.853 191.589,546.853C193.666,546.853 193.976,542.389 193.976,539.728C193.976,535.179 193.062,532.353 191.589,532.353ZM191.589,549.353C188.362,549.353 186.726,546.114 186.726,539.728C186.726,537.285 186.726,529.853 191.589,529.853C193.819,529.853 196.476,531.566 196.476,539.728C196.476,546.114 194.832,549.353 191.589,549.353Z" style="fill:rgb(200,0,0);fill-rule:nonzero;"/>
                <rect x="183.577" y="529.852" width="2.5" height="19.501" style="fill:rgb(200,0,0);fill-rule:nonzero;"/>
                <path d="M321.983,532.353C320.03,532.353 319.62,536.363 319.62,539.728C319.62,542.389 319.927,546.853 321.983,546.853C324.06,546.853 324.37,542.389 324.37,539.728C324.37,535.179 323.455,532.353 321.983,532.353ZM321.983,549.353C318.756,549.353 317.12,546.114 317.12,539.728C317.12,537.285 317.12,529.853 321.983,529.853C324.212,529.853 326.87,531.566 326.87,539.728C326.87,546.114 325.226,549.353 321.983,549.353Z" style="fill:rgb(200,0,0);fill-rule:nonzero;"/>
                <rect x="313.971" y="529.852" width="2.5" height="19.501" style="fill:rgb(200,0,0);fill-rule:nonzero;"/>
                <path d="M188.463,745.278C190.417,745.278 190.827,741.267 190.827,737.903C190.827,735.242 190.52,730.778 188.463,730.778C186.387,730.778 186.077,735.242 186.077,737.903C186.077,742.452 186.991,745.278 188.463,745.278ZM188.463,728.278C191.69,728.278 193.327,731.516 193.327,737.903C193.327,740.345 193.327,747.778 188.463,747.778C186.234,747.778 183.577,746.064 183.577,737.903C183.577,731.516 185.221,728.278 188.463,728.278Z" style="fill:rgb(200,0,0);fill-rule:nonzero;"/>
                <rect x="193.976" y="728.277" width="2.5" height="19.502" style="fill:rgb(200,0,0);fill-rule:nonzero;"/>
                <path d="M318.857,745.278C320.81,745.278 321.22,741.267 321.22,737.903C321.22,735.242 320.913,730.778 318.857,730.778C316.78,730.778 316.47,735.242 316.47,737.903C316.47,742.452 317.385,745.278 318.857,745.278ZM318.857,728.278C322.084,728.278 323.72,731.516 323.72,737.903C323.72,740.345 323.72,747.778 318.857,747.778C316.627,747.778 313.97,746.064 313.97,737.903C313.97,731.516 315.614,728.278 318.857,728.278Z" style="fill:rgb(200,0,0);fill-rule:nonzero;"/>
                <rect x="324.369" y="728.277" width="2.5" height="19.502" style="fill:rgb(200,0,0);fill-rule:nonzero;"/>
            </g>
        </g>
    </g>
</svg>
