<?xml version="1.0" encoding="UTF-8" standalone="no"?>
<!DOCTYPE svg PUBLIC "-//W3C//DTD SVG 1.1//EN" "http://www.w3.org/Graphics/SVG/1.1/DTD/svg11.dtd">
<svg width="100%" height="100%" viewBox="0 0 150 225" version="1.1" xmlns="http://www.w3.org/2000/svg" xmlns:xlink="http://www.w3.org/1999/xlink" xml:space="preserve" xmlns:serif="http://www.serif.com/" style="fill-rule:evenodd;clip-rule:evenodd;stroke-linejoin:round;stroke-miterlimit:1.41421;">
    <g transform="matrix(1,0,0,1,-351,-271)">
        <g>
            <g>
                <rect x="0.25" y="1.04" width="1530.71" height="1530.71" style="fill:white;fill-rule:nonzero;"/>
                <path d="M358.659,507.274C350.802,507.274 344.409,500.882 344.409,493.024L344.409,274.41C344.409,266.553 350.802,260.16 358.659,260.16L492.234,260.16C500.091,260.16 506.484,266.553 506.484,274.41L506.484,493.024C506.484,500.882 500.091,507.274 492.234,507.274L358.659,507.274Z" style="fill:white;fill-rule:nonzero;"/>
                <path d="M492.234,259.91L358.659,259.91C350.664,259.91 344.159,266.415 344.159,274.41L344.159,493.024C344.159,501.019 350.664,507.524 358.659,507.524L492.234,507.524C500.229,507.524 506.734,501.019 506.734,493.024L506.734,274.41C506.734,266.415 500.229,259.91 492.234,259.91ZM492.234,260.41C499.966,260.41 506.234,266.678 506.234,274.41L506.234,493.024C506.234,500.756 499.966,507.024 492.234,507.024L358.659,507.024C350.927,507.024 344.659,500.756 344.659,493.024L344.659,274.41C344.659,266.678 350.927,260.41 358.659,260.41L492.234,260.41Z" style="fill-rule:nonzero;"/>
            </g>
            <g>
                <path d="M425.447,317.103C428.653,311.726 437.07,302.478 442.456,298.678C437.07,294.878 428.653,285.63 425.447,280.253C422.241,285.63 413.825,294.878 408.439,298.678C413.825,302.478 422.241,311.726 425.447,317.103Z" style="fill:rgb(200,0,0);fill-rule:nonzero;"/>
                <path d="M425.447,402.143C428.653,396.766 437.07,387.518 442.456,383.718C437.07,379.918 428.653,370.67 425.447,365.293C422.241,370.67 413.825,379.918 408.439,383.718C413.825,387.518 422.241,396.766 425.447,402.143Z" style="fill:rgb(200,0,0);fill-rule:nonzero;"/>
                <path d="M425.447,450.333C422.241,455.71 413.825,464.958 408.439,468.758C413.825,472.558 422.241,481.806 425.447,487.183C428.653,481.806 437.07,472.558 442.456,468.758C437.07,464.958 428.653,455.71 425.447,450.333Z" style="fill:rgb(200,0,0);fill-rule:nonzero;"/>
                <path d="M360.25,314.859C361.586,312.619 365.093,308.765 367.337,307.182C365.093,305.598 361.586,301.745 360.25,299.504C358.914,301.745 355.407,305.598 353.163,307.182C355.407,308.765 358.914,312.619 360.25,314.859Z" style="fill:rgb(200,0,0);fill-rule:nonzero;"/>
                <path d="M360.25,452.575C358.914,454.816 355.407,458.669 353.163,460.253C355.407,461.836 358.914,465.69 360.25,467.931C361.586,465.69 365.093,461.836 367.337,460.253C365.093,458.669 361.586,454.816 360.25,452.575Z" style="fill:rgb(200,0,0);fill-rule:nonzero;"/>
                <path d="M490.644,452.575C489.308,454.816 485.8,458.669 483.556,460.253C485.8,461.836 489.308,465.69 490.644,467.931C491.979,465.69 495.487,461.836 497.731,460.253C495.487,458.669 491.979,454.816 490.644,452.575Z" style="fill:rgb(200,0,0);fill-rule:nonzero;"/>
                <path d="M490.644,314.859C491.979,312.619 495.487,308.765 497.731,307.182C495.487,305.598 491.979,301.745 490.644,299.504C489.308,301.745 485.8,305.598 483.556,307.182C485.8,308.765 489.308,312.619 490.644,314.859Z" style="fill:rgb(200,0,0);fill-rule:nonzero;"/>
                <path d="M359.999,294.258C358.436,294.258 357.076,293.774 356.146,292.879C355.231,291.999 354.748,290.754 354.748,289.276L357.248,289.276C357.248,290.069 357.46,290.675 357.879,291.077C358.373,291.553 359.2,291.793 360.202,291.754C362.226,291.676 363.252,290.225 363.252,287.443C363.252,284.228 361.614,283.733 360.187,283.662L358.264,283.564L359.135,281.848C359.553,281.024 360.057,280.085 360.636,279.008C360.931,278.459 361.245,277.874 361.576,277.25L357.248,277.251L357.248,278.662L354.748,278.662L354.748,274.751L365.705,274.75L364.756,276.577C364.053,277.93 363.409,279.128 362.838,280.191C362.591,280.651 362.357,281.085 362.14,281.496C364.458,282.275 365.752,284.361 365.752,287.443C365.752,291.574 363.714,294.12 360.299,294.252C360.198,294.256 360.098,294.258 359.999,294.258Z" style="fill:rgb(200,0,0);fill-rule:nonzero;"/>
                <path d="M490.393,294.258C488.829,294.258 487.47,293.774 486.539,292.879C485.625,291.999 485.142,290.754 485.142,289.276L487.642,289.276C487.642,290.069 487.854,290.675 488.272,291.077C488.767,291.553 489.597,291.793 490.596,291.754C492.619,291.676 493.646,290.225 493.646,287.443C493.646,284.228 492.008,283.733 490.58,283.662L488.657,283.564L489.528,281.848C489.946,281.024 490.45,280.085 491.029,279.008C491.324,278.459 491.639,277.874 491.97,277.25L487.642,277.251L487.642,278.662L485.142,278.662L485.142,274.751L496.099,274.75L495.149,276.577C494.446,277.93 493.803,279.128 493.231,280.191C492.984,280.651 492.751,281.085 492.533,281.496C494.852,282.275 496.146,284.361 496.146,287.443C496.146,291.574 494.107,294.12 490.692,294.252C490.592,294.256 490.491,294.258 490.393,294.258Z" style="fill:rgb(200,0,0);fill-rule:nonzero;"/>
                <path d="M356.854,492.684L354.796,492.684L355.744,490.857C356.447,489.504 357.091,488.306 357.662,487.243C357.909,486.783 358.143,486.349 358.361,485.938C356.042,485.159 354.748,483.073 354.748,479.991C354.748,475.86 356.787,473.314 360.201,473.182C361.895,473.116 363.366,473.603 364.354,474.555C365.27,475.435 365.753,476.68 365.753,478.158L363.253,478.158C363.253,477.365 363.04,476.759 362.622,476.357C362.127,475.881 361.295,475.635 360.299,475.68C358.274,475.758 357.248,477.209 357.248,479.991C357.248,483.206 358.887,483.701 360.313,483.772L362.236,483.87L361.365,485.586C360.948,486.41 360.443,487.349 359.865,488.426C359.57,488.975 359.256,489.56 358.924,490.184L363.252,490.183L363.252,488.772L365.752,488.772L365.752,492.683L356.854,492.684Z" style="fill:rgb(200,0,0);fill-rule:nonzero;"/>
                <path d="M487.247,492.684L485.189,492.684L486.138,490.857C486.841,489.504 487.484,488.306 488.056,487.243C488.303,486.783 488.536,486.349 488.755,485.938C486.436,485.159 485.142,483.073 485.142,479.991C485.142,475.86 487.181,473.314 490.595,473.182C492.282,473.116 493.76,473.603 494.748,474.555C495.663,475.435 496.146,476.68 496.146,478.158L493.646,478.158C493.646,477.365 493.434,476.759 493.016,476.357C492.521,475.881 491.691,475.635 490.692,475.68C488.668,475.758 487.642,477.209 487.642,479.991C487.642,483.206 489.28,483.701 490.707,483.772L492.63,483.87L491.759,485.586C491.342,486.41 490.837,487.349 490.259,488.426C489.964,488.975 489.649,489.56 489.317,490.184L493.646,490.183L493.646,488.772L496.146,488.772L496.146,492.683L487.247,492.684Z" style="fill:rgb(200,0,0);fill-rule:nonzero;"/>
            </g>
        </g>
    </g>
</svg>
