<?xml version="1.0" encoding="UTF-8" standalone="no"?>
<!DOCTYPE svg PUBLIC "-//W3C//DTD SVG 1.1//EN" "http://www.w3.org/Graphics/SVG/1.1/DTD/svg11.dtd">
<svg width="100%" height="100%" viewBox="0 0 150 225" version="1.1" xmlns="http://www.w3.org/2000/svg" xmlns:xlink="http://www.w3.org/1999/xlink" xml:space="preserve" xmlns:serif="http://www.serif.com/" style="fill-rule:evenodd;clip-rule:evenodd;stroke-linejoin:round;stroke-miterlimit:1.41421;">
    <g transform="matrix(1,0,0,1,-11,-271)">
        <g>
            <g>
                <rect x="0.25" y="1.04" width="1530.71" height="1530.71" style="fill:white;fill-rule:nonzero;"/>
                <path d="M18.502,507.274C10.644,507.274 4.251,500.882 4.251,493.024L4.251,274.41C4.251,266.553 10.644,260.16 18.502,260.16L152.077,260.16C159.934,260.16 166.327,266.553 166.327,274.41L166.327,493.024C166.327,500.882 159.934,507.274 152.077,507.274L18.502,507.274Z" style="fill:white;fill-rule:nonzero;"/>
                <path d="M152.077,259.91L18.502,259.91C10.506,259.91 4.001,266.415 4.001,274.41L4.001,493.024C4.001,501.019 10.506,507.524 18.502,507.524L152.077,507.524C160.072,507.524 166.577,501.019 166.577,493.024L166.577,274.41C166.577,266.415 160.072,259.91 152.077,259.91ZM152.077,260.41C159.809,260.41 166.077,266.678 166.077,274.41L166.077,493.024C166.077,500.756 159.809,507.024 152.077,507.024L18.502,507.024C10.77,507.024 4.501,500.756 4.501,493.024L4.501,274.41C4.501,266.678 10.77,260.41 18.502,260.41L152.077,260.41Z" style="fill-rule:nonzero;"/>
            </g>
            <g>
                <path d="M85.275,317.103C84.632,315.746 83.816,314.722 82.427,313.209C80.784,311.418 74.894,306.256 72.727,303.744C71.152,301.919 68.577,298.623 68.315,292.715C68.214,290.431 67.995,284.844 73.344,281.357C75.633,279.864 79.564,279.7 82.115,282.016C84.897,284.542 85.281,287.457 85.281,287.457C85.281,287.457 86.376,283.497 88.659,281.934C90.109,280.939 92.071,279.717 95.412,280.586C100.126,281.812 102.256,286.282 102.296,291.316C102.337,296.547 101.587,300.019 96.95,304.772C93.695,308.111 90.292,310.854 87.357,314.259C86.243,315.549 85.879,315.838 85.275,317.103Z" style="fill:rgb(200,0,0);fill-rule:nonzero;"/>
                <path d="M85.275,402.143C84.632,400.786 83.816,399.762 82.427,398.249C80.784,396.458 74.894,391.296 72.727,388.784C71.152,386.959 68.577,383.664 68.315,377.755C68.214,375.471 67.995,369.884 73.344,366.397C75.633,364.904 79.564,364.74 82.115,367.056C84.897,369.582 85.281,372.498 85.281,372.498C85.281,372.498 86.376,368.537 88.659,366.974C90.109,365.979 92.071,364.757 95.412,365.626C100.126,366.853 102.256,371.322 102.296,376.356C102.337,381.587 101.587,385.059 96.95,389.812C93.695,393.151 90.292,395.894 87.357,399.299C86.243,400.589 85.879,400.878 85.275,402.143Z" style="fill:rgb(200,0,0);fill-rule:nonzero;"/>
                <path d="M85.303,450.332C85.946,451.69 86.762,452.713 88.151,454.227C89.794,456.017 95.685,461.179 97.852,463.691C99.426,465.517 102.001,468.812 102.263,474.72C102.364,477.004 102.584,482.591 97.234,486.078C94.945,487.571 91.014,487.735 88.463,485.419C85.681,482.894 85.297,479.978 85.297,479.978C85.297,479.978 84.202,483.938 81.919,485.502C80.469,486.497 78.507,487.719 75.167,486.85C70.452,485.623 68.323,481.153 68.283,476.12C68.242,470.888 68.991,467.416 73.628,462.663C76.883,459.325 80.286,456.581 83.221,453.177C84.335,451.886 84.699,451.597 85.303,450.332Z" style="fill:rgb(200,0,0);fill-rule:nonzero;"/>
                <path d="M20.086,314.859C19.818,314.294 19.478,313.867 18.899,313.237C18.214,312.491 15.76,310.34 14.857,309.293C14.201,308.532 13.128,307.159 13.019,304.697C12.977,303.745 12.885,301.417 15.114,299.964C16.068,299.342 17.706,299.274 18.769,300.239C19.928,301.291 20.089,302.506 20.089,302.506C20.089,302.506 20.545,300.856 21.496,300.204C22.1,299.79 22.918,299.281 24.31,299.643C26.274,300.154 27.162,302.016 27.178,304.114C27.195,306.294 26.883,307.741 24.951,309.721C23.595,311.112 22.177,312.256 20.954,313.674C20.489,314.212 20.338,314.332 20.086,314.859Z" style="fill:rgb(200,0,0);fill-rule:nonzero;"/>
                <path d="M20.098,452.575C20.365,453.141 20.706,453.567 21.284,454.198C21.969,454.944 24.424,457.095 25.327,458.142C25.983,458.902 27.056,460.275 27.165,462.737C27.207,463.689 27.298,466.017 25.069,467.47C24.115,468.092 22.477,468.161 21.414,467.196C20.255,466.143 20.095,464.928 20.095,464.928C20.095,464.928 19.639,466.579 18.688,467.23C18.083,467.645 17.266,468.154 15.874,467.792C13.909,467.281 13.022,465.418 13.005,463.321C12.988,461.141 13.301,459.694 15.233,457.713C16.589,456.322 18.007,455.179 19.23,453.76C19.694,453.222 19.846,453.102 20.098,452.575Z" style="fill:rgb(200,0,0);fill-rule:nonzero;"/>
                <path d="M150.492,452.575C150.76,453.141 151.1,453.567 151.679,454.198C152.364,454.944 154.818,457.095 155.721,458.142C156.377,458.902 157.45,460.275 157.559,462.737C157.601,463.689 157.693,466.017 155.464,467.47C154.51,468.092 152.872,468.161 151.809,467.196C150.65,466.143 150.49,464.928 150.49,464.928C150.49,464.928 150.033,466.579 149.082,467.23C148.478,467.645 147.66,468.154 146.268,467.792C144.304,467.281 143.416,465.418 143.4,463.321C143.383,461.141 143.695,459.694 145.627,457.713C146.984,456.322 148.402,455.179 149.625,453.76C150.089,453.222 150.241,453.102 150.492,452.575Z" style="fill:rgb(200,0,0);fill-rule:nonzero;"/>
                <path d="M150.48,314.859C150.213,314.294 149.872,313.867 149.294,313.237C148.609,312.491 146.155,310.34 145.252,309.293C144.596,308.532 143.522,307.159 143.413,304.697C143.371,303.745 143.28,301.417 145.509,299.964C146.463,299.342 148.101,299.274 149.164,300.239C150.323,301.291 150.483,302.506 150.483,302.506C150.483,302.506 150.939,300.856 151.89,300.204C152.495,299.79 153.312,299.281 154.704,299.643C156.669,300.154 157.556,302.016 157.573,304.114C157.59,306.294 157.278,307.741 155.346,309.721C153.989,311.112 152.571,312.256 151.348,313.674C150.884,314.212 150.732,314.332 150.48,314.859Z" style="fill:rgb(200,0,0);fill-rule:nonzero;"/>
                <path d="M19.841,294.258C18.277,294.258 16.918,293.774 15.988,292.879C15.073,291.999 14.59,290.754 14.59,289.276L17.09,289.276C17.09,290.069 17.302,290.675 17.721,291.077C18.215,291.553 19.042,291.793 20.044,291.754C22.068,291.676 23.094,290.225 23.094,287.443C23.094,284.228 21.456,283.733 20.029,283.662L18.106,283.564L18.977,281.848C19.395,281.024 19.899,280.085 20.478,279.008C20.772,278.459 21.087,277.874 21.418,277.25L17.09,277.251L17.09,278.662L14.59,278.662L14.59,274.751L25.547,274.75L24.598,276.577C23.895,277.93 23.252,279.128 22.68,280.191C22.433,280.651 22.2,281.085 21.981,281.496C24.3,282.275 25.594,284.361 25.594,287.443C25.594,291.574 23.556,294.12 20.141,294.252C20.041,294.256 19.94,294.258 19.841,294.258Z" style="fill:rgb(200,0,0);fill-rule:nonzero;"/>
                <path d="M150.235,294.258C148.671,294.258 147.312,293.774 146.382,292.879C145.467,291.999 144.984,290.754 144.984,289.276L147.484,289.276C147.484,290.069 147.696,290.675 148.115,291.077C148.609,291.553 149.439,291.793 150.438,291.754C152.462,291.676 153.488,290.225 153.488,287.443C153.488,284.228 151.85,283.733 150.423,283.662L148.5,283.564L149.371,281.848C149.789,281.024 150.293,280.085 150.872,279.008C151.167,278.459 151.481,277.874 151.813,277.25L147.484,277.251L147.484,278.662L144.984,278.662L144.984,274.751L155.941,274.75L154.992,276.577C154.289,277.93 153.646,279.128 153.074,280.191C152.827,280.651 152.594,281.085 152.375,281.496C154.694,282.275 155.988,284.361 155.988,287.443C155.988,291.574 153.95,294.12 150.535,294.252C150.435,294.256 150.334,294.258 150.235,294.258Z" style="fill:rgb(200,0,0);fill-rule:nonzero;"/>
                <path d="M16.696,492.684L14.638,492.684L15.586,490.857C16.29,489.504 16.933,488.306 17.504,487.243C17.752,486.783 17.985,486.349 18.203,485.938C15.884,485.159 14.59,483.073 14.59,479.991C14.59,475.86 16.629,473.314 20.043,473.182C21.737,473.116 23.208,473.603 24.197,474.555C25.111,475.435 25.595,476.68 25.595,478.158L23.095,478.158C23.095,477.365 22.882,476.759 22.464,476.357C21.969,475.881 21.137,475.635 20.141,475.68C18.117,475.758 17.09,477.209 17.09,479.991C17.09,483.206 18.729,483.701 20.156,483.772L22.079,483.87L21.208,485.586C20.79,486.41 20.286,487.349 19.707,488.426C19.412,488.975 19.098,489.56 18.766,490.184L23.094,490.183L23.094,488.772L25.594,488.772L25.594,492.683L16.696,492.684Z" style="fill:rgb(200,0,0);fill-rule:nonzero;"/>
                <path d="M147.09,492.684L145.032,492.684L145.98,490.857C146.684,489.504 147.327,488.306 147.898,487.243C148.146,486.783 148.379,486.349 148.597,485.938C146.278,485.159 144.984,483.073 144.984,479.991C144.984,475.86 147.023,473.314 150.438,473.182C152.125,473.116 153.602,473.603 154.591,474.555C155.505,475.435 155.989,476.68 155.989,478.158L153.489,478.158C153.489,477.365 153.276,476.759 152.858,476.357C152.363,475.881 151.534,475.635 150.535,475.68C148.511,475.758 147.484,477.209 147.484,479.991C147.484,483.206 149.123,483.701 150.55,483.772L152.473,483.87L151.602,485.586C151.184,486.41 150.68,487.349 150.101,488.426C149.806,488.975 149.492,489.56 149.16,490.184L153.488,490.183L153.488,488.772L155.988,488.772L155.988,492.683L147.09,492.684Z" style="fill:rgb(200,0,0);fill-rule:nonzero;"/>
            </g>
        </g>
    </g>
</svg>
