<?xml version="1.0" encoding="UTF-8" standalone="no"?>
<!DOCTYPE svg PUBLIC "-//W3C//DTD SVG 1.1//EN" "http://www.w3.org/Graphics/SVG/1.1/DTD/svg11.dtd">
<svg width="100%" height="100%" viewBox="0 0 150 225" version="1.1" xmlns="http://www.w3.org/2000/svg" xmlns:xlink="http://www.w3.org/1999/xlink" xml:space="preserve" xmlns:serif="http://www.serif.com/" style="fill-rule:evenodd;clip-rule:evenodd;stroke-linejoin:round;stroke-miterlimit:1.41421;">
    <g transform="matrix(1,0,0,1,-1031,-271)">
        <g>
            <g>
                <rect x="0.25" y="1.04" width="1530.71" height="1530.71" style="fill:white;fill-rule:nonzero;"/>
                <path d="M1038.97,507.274C1031.12,507.274 1024.72,500.882 1024.72,493.024L1024.72,274.41C1024.72,266.553 1031.12,260.16 1038.97,260.16L1172.55,260.16C1180.41,260.16 1186.8,266.553 1186.8,274.41L1186.8,493.024C1186.8,500.882 1180.41,507.274 1172.55,507.274L1038.97,507.274Z" style="fill:white;fill-rule:nonzero;"/>
                <path d="M1172.55,259.91L1038.97,259.91C1030.98,259.91 1024.47,266.415 1024.47,274.41L1024.47,493.024C1024.47,501.019 1030.98,507.524 1038.97,507.524L1172.55,507.524C1180.54,507.524 1187.05,501.019 1187.05,493.024L1187.05,274.41C1187.05,266.415 1180.54,259.91 1172.55,259.91ZM1172.55,260.41C1180.28,260.41 1186.55,266.678 1186.55,274.41L1186.55,493.024C1186.55,500.756 1180.28,507.024 1172.55,507.024L1038.97,507.024C1031.24,507.024 1024.97,500.756 1024.97,493.024L1024.97,274.41C1024.97,266.678 1031.24,260.41 1038.97,260.41L1172.55,260.41Z" style="fill-rule:nonzero;"/>
            </g>
            <g>
                <path d="M1117.43,289.256C1114.56,286.144 1110.25,282.433 1105.76,280.252C1101.27,282.433 1096.96,286.144 1094.09,289.256C1089.98,293.715 1088.71,297.398 1088.75,301.762C1088.79,305.96 1090.92,309.689 1095.63,310.712C1098.97,311.437 1100.93,310.417 1102.38,309.588C1103.73,308.816 1104.66,307.344 1105.2,306.27C1104.56,309.488 1103.45,314.51 1102.34,317.103C1105.36,317.082 1105.76,317.103 1105.76,317.103C1105.76,317.103 1106.16,317.082 1109.18,317.103C1108.07,314.51 1106.96,309.488 1106.32,306.27C1106.86,307.344 1107.79,308.816 1109.14,309.588C1110.59,310.417 1112.55,311.437 1115.89,310.712C1120.6,309.689 1122.73,305.96 1122.77,301.762C1122.81,297.398 1121.55,293.715 1117.43,289.256Z" style="fill-rule:nonzero;"/>
                <path d="M1117.43,374.296C1114.56,371.184 1110.25,367.473 1105.76,365.292C1101.27,367.473 1096.96,371.184 1094.09,374.296C1089.98,378.755 1088.71,382.438 1088.75,386.802C1088.79,391 1090.92,394.729 1095.63,395.752C1098.97,396.478 1100.93,395.457 1102.38,394.628C1103.73,393.856 1104.66,392.384 1105.2,391.311C1104.56,394.528 1103.45,399.55 1102.34,402.143C1105.36,402.122 1105.76,402.143 1105.76,402.143C1105.76,402.143 1106.16,402.122 1109.18,402.143C1108.07,399.55 1106.96,394.528 1106.32,391.311C1106.86,392.384 1107.79,393.856 1109.14,394.628C1110.59,395.457 1112.55,396.478 1115.89,395.752C1120.6,394.729 1122.73,391 1122.77,386.802C1122.81,382.438 1121.55,378.755 1117.43,374.296Z" style="fill-rule:nonzero;"/>
                <path d="M1094.09,478.179C1096.96,481.291 1101.27,485.002 1105.76,487.183C1110.25,485.002 1114.56,481.291 1117.43,478.179C1121.55,473.721 1122.81,470.037 1122.77,465.673C1122.73,461.475 1120.6,457.746 1115.89,456.723C1112.55,455.998 1110.59,457.018 1109.14,457.847C1107.79,458.62 1106.86,460.091 1106.32,461.165C1106.96,457.948 1108.07,452.925 1109.18,450.332C1106.16,450.354 1105.76,450.332 1105.76,450.332C1105.76,450.332 1105.37,450.354 1102.34,450.332C1103.45,452.925 1104.56,457.948 1105.2,461.165C1104.66,460.091 1103.73,458.62 1102.38,457.847C1100.93,457.018 1098.97,455.998 1095.63,456.723C1090.92,457.746 1088.79,461.475 1088.75,465.673C1088.71,470.037 1089.98,473.721 1094.09,478.179Z" style="fill-rule:nonzero;"/>
                <path d="M1045.43,303.256C1044.23,301.959 1042.43,300.412 1040.56,299.504C1038.69,300.412 1036.9,301.959 1035.7,303.256C1033.99,305.114 1033.46,306.648 1033.48,308.467C1033.49,310.216 1034.38,311.77 1036.34,312.196C1037.73,312.499 1038.55,312.074 1039.16,311.728C1039.72,311.406 1040.11,310.793 1040.33,310.345C1040.06,311.686 1039.6,313.779 1039.14,314.859C1040.4,314.85 1040.56,314.859 1040.56,314.859C1040.56,314.859 1040.73,314.85 1041.99,314.859C1041.53,313.779 1041.07,311.686 1040.8,310.345C1041.02,310.793 1041.41,311.406 1041.97,311.728C1042.58,312.074 1043.39,312.499 1044.79,312.196C1046.75,311.77 1047.63,310.216 1047.65,308.467C1047.67,306.648 1047.14,305.114 1045.43,303.256Z" style="fill-rule:nonzero;"/>
                <path d="M1035.7,464.179C1036.9,465.476 1038.69,467.022 1040.56,467.931C1042.43,467.022 1044.23,465.476 1045.43,464.179C1047.14,462.321 1047.67,460.786 1047.65,458.968C1047.63,457.218 1046.75,455.664 1044.79,455.238C1043.39,454.936 1042.58,455.361 1041.97,455.706C1041.41,456.028 1041.02,456.642 1040.8,457.089C1041.07,455.748 1041.53,453.655 1041.99,452.575C1040.73,452.584 1040.56,452.575 1040.56,452.575C1040.56,452.575 1040.4,452.584 1039.14,452.575C1039.6,453.655 1040.06,455.748 1040.33,457.089C1040.11,456.642 1039.72,456.028 1039.16,455.706C1038.55,455.361 1037.73,454.936 1036.34,455.238C1034.38,455.664 1033.49,457.218 1033.48,458.968C1033.46,460.786 1033.99,462.321 1035.7,464.179Z" style="fill-rule:nonzero;"/>
                <path d="M1166.1,464.179C1167.29,465.476 1169.09,467.022 1170.96,467.931C1172.83,467.022 1174.62,465.476 1175.82,464.179C1177.54,462.321 1178.06,460.786 1178.04,458.968C1178.03,457.218 1177.14,455.664 1175.18,455.238C1173.79,454.936 1172.97,455.361 1172.37,455.706C1171.8,456.028 1171.42,456.642 1171.19,457.089C1171.46,455.748 1171.92,453.655 1172.38,452.575C1171.12,452.584 1170.96,452.575 1170.96,452.575C1170.96,452.575 1170.79,452.584 1169.53,452.575C1170,453.655 1170.46,455.748 1170.72,457.089C1170.5,456.642 1170.11,456.028 1169.55,455.706C1168.95,455.361 1168.13,454.936 1166.74,455.238C1164.77,455.664 1163.89,457.218 1163.87,458.968C1163.85,460.786 1164.38,462.321 1166.1,464.179Z" style="fill-rule:nonzero;"/>
                <path d="M1175.82,303.256C1174.62,301.959 1172.83,300.412 1170.96,299.504C1169.09,300.412 1167.29,301.959 1166.1,303.256C1164.38,305.114 1163.85,306.648 1163.87,308.467C1163.89,310.216 1164.77,311.77 1166.74,312.196C1168.13,312.499 1168.95,312.074 1169.55,311.728C1170.11,311.406 1170.5,310.793 1170.72,310.345C1170.46,311.686 1170,313.779 1169.53,314.859C1170.79,314.85 1170.96,314.859 1170.96,314.859C1170.96,314.859 1171.12,314.85 1172.38,314.859C1171.92,313.779 1171.46,311.686 1171.19,310.345C1171.42,310.793 1171.8,311.406 1172.37,311.728C1172.97,312.074 1173.79,312.499 1175.18,312.196C1177.14,311.77 1178.03,310.216 1178.04,308.467C1178.06,306.648 1177.54,305.114 1175.82,303.256Z" style="fill-rule:nonzero;"/>
                <path d="M1040.31,294.258C1038.75,294.258 1037.39,293.774 1036.46,292.879C1035.55,291.999 1035.06,290.754 1035.06,289.276L1037.56,289.276C1037.56,290.069 1037.77,290.675 1038.19,291.077C1038.69,291.553 1039.51,291.793 1040.52,291.754C1042.54,291.676 1043.57,290.225 1043.57,287.443C1043.57,284.228 1041.93,283.733 1040.5,283.662L1038.58,283.564L1039.45,281.848C1039.87,281.024 1040.37,280.085 1040.95,279.008C1041.25,278.459 1041.56,277.874 1041.89,277.25L1037.56,277.251L1037.56,278.662L1035.06,278.662L1035.06,274.751L1046.02,274.75L1045.07,276.577C1044.37,277.93 1043.72,279.128 1043.15,280.191C1042.91,280.651 1042.67,281.085 1042.45,281.496C1044.77,282.275 1046.07,284.361 1046.07,287.443C1046.07,291.574 1044.03,294.12 1040.61,294.252C1040.51,294.256 1040.41,294.258 1040.31,294.258Z" style="fill-rule:nonzero;"/>
                <path d="M1170.71,294.258C1169.14,294.258 1167.78,293.774 1166.85,292.879C1165.94,291.999 1165.46,290.754 1165.46,289.276L1167.96,289.276C1167.96,290.069 1168.17,290.675 1168.59,291.077C1169.08,291.553 1169.91,291.793 1170.91,291.754C1172.93,291.676 1173.96,290.225 1173.96,287.443C1173.96,284.228 1172.32,283.733 1170.89,283.662L1168.97,283.564L1169.84,281.848C1170.26,281.024 1170.76,280.085 1171.34,279.008C1171.64,278.459 1171.95,277.874 1172.28,277.25L1167.96,277.251L1167.96,278.662L1165.46,278.662L1165.46,274.751L1176.41,274.75L1175.46,276.577C1174.76,277.93 1174.12,279.128 1173.55,280.191C1173.3,280.651 1173.07,281.085 1172.85,281.496C1175.17,282.275 1176.46,284.361 1176.46,287.443C1176.46,291.574 1174.42,294.12 1171.01,294.252C1170.91,294.256 1170.81,294.258 1170.71,294.258Z" style="fill-rule:nonzero;"/>
                <path d="M1037.17,492.684L1035.11,492.684L1036.06,490.857C1036.76,489.504 1037.41,488.306 1037.98,487.243C1038.22,486.783 1038.46,486.349 1038.68,485.938C1036.36,485.159 1035.06,483.073 1035.06,479.991C1035.06,475.86 1037.1,473.314 1040.52,473.182C1042.21,473.116 1043.68,473.603 1044.67,474.555C1045.58,475.435 1046.07,476.68 1046.07,478.158L1043.57,478.158C1043.57,477.365 1043.35,476.759 1042.94,476.357C1042.44,475.881 1041.61,475.635 1040.61,475.68C1038.59,475.758 1037.56,477.209 1037.56,479.991C1037.56,483.206 1039.2,483.701 1040.63,483.772L1042.55,483.87L1041.68,485.586C1041.26,486.41 1040.76,487.349 1040.18,488.426C1039.88,488.975 1039.57,489.56 1039.24,490.184L1043.57,490.183L1043.57,488.772L1046.07,488.772L1046.07,492.683L1037.17,492.684Z" style="fill-rule:nonzero;"/>
                <path d="M1167.56,492.684L1165.5,492.684L1166.45,490.857C1167.16,489.504 1167.8,488.306 1168.37,487.243C1168.62,486.783 1168.85,486.349 1169.07,485.938C1166.75,485.159 1165.46,483.073 1165.46,479.991C1165.46,475.86 1167.5,473.314 1170.91,473.182C1172.6,473.116 1174.07,473.603 1175.06,474.555C1175.98,475.435 1176.46,476.68 1176.46,478.158L1173.96,478.158C1173.96,477.365 1173.75,476.759 1173.33,476.357C1172.83,475.881 1172.01,475.635 1171.01,475.68C1168.98,475.758 1167.96,477.209 1167.96,479.991C1167.96,483.206 1169.59,483.701 1171.02,483.772L1172.94,483.87L1172.07,485.586C1171.66,486.41 1171.15,487.349 1170.57,488.426C1170.28,488.975 1169.96,489.56 1169.63,490.184L1173.96,490.183L1173.96,488.772L1176.46,488.772L1176.46,492.683L1167.56,492.684Z" style="fill-rule:nonzero;"/>
            </g>
        </g>
    </g>
</svg>
