<?xml version="1.0" encoding="UTF-8" standalone="no"?>
<!DOCTYPE svg PUBLIC "-//W3C//DTD SVG 1.1//EN" "http://www.w3.org/Graphics/SVG/1.1/DTD/svg11.dtd">
<svg width="100%" height="100%" viewBox="0 0 150 225" version="1.1" xmlns="http://www.w3.org/2000/svg" xmlns:xlink="http://www.w3.org/1999/xlink" xml:space="preserve" xmlns:serif="http://www.serif.com/" style="fill-rule:evenodd;clip-rule:evenodd;stroke-linejoin:round;stroke-miterlimit:1.41421;">
    <g transform="matrix(1,0,0,1,-691,-271)">
        <g>
            <g>
                <rect x="0.25" y="1.04" width="1530.71" height="1530.71" style="fill:white;fill-rule:nonzero;"/>
                <path d="M698.816,507.274C690.959,507.274 684.566,500.882 684.566,493.024L684.566,274.41C684.566,266.553 690.959,260.16 698.816,260.16L832.392,260.16C840.249,260.16 846.642,266.553 846.642,274.41L846.642,493.024C846.642,500.882 840.249,507.274 832.392,507.274L698.816,507.274Z" style="fill:white;fill-rule:nonzero;"/>
                <path d="M832.392,259.91L698.816,259.91C690.821,259.91 684.316,266.415 684.316,274.41L684.316,493.024C684.316,501.019 690.821,507.524 698.816,507.524L832.392,507.524C840.387,507.524 846.892,501.019 846.892,493.024L846.892,274.41C846.892,266.415 840.387,259.91 832.392,259.91ZM832.392,260.41C840.123,260.41 846.392,266.678 846.392,274.41L846.392,493.024C846.392,500.756 840.123,507.024 832.392,507.024L698.816,507.024C691.084,507.024 684.816,500.756 684.816,493.024L684.816,274.41C684.816,266.678 691.084,260.41 698.816,260.41L832.392,260.41Z" style="fill-rule:nonzero;"/>
            </g>
            <g>
                <path d="M776.124,294.554C773.974,294.134 771.03,295.8 768.637,297.556C770.847,295.147 773.455,291.721 773.455,288.951C773.455,284.147 769.939,280.252 765.604,280.252C761.269,280.252 757.754,284.147 757.754,288.951C757.754,291.722 760.362,295.147 762.573,297.557C760.179,295.8 757.235,294.134 755.085,294.554C750.815,295.389 747.964,299.9 748.717,304.631C749.47,309.362 753.542,312.521 757.811,311.687C760.4,311.181 763.136,307.4 764.891,304.5C764.235,308.509 763.212,314.105 762.187,317.103C765.207,317.076 765.604,317.103 765.604,317.103C765.604,317.103 766.001,317.076 769.022,317.103C767.997,314.105 766.974,308.509 766.318,304.5C768.073,307.4 770.809,311.181 773.398,311.687C777.667,312.521 781.739,309.362 782.492,304.631C783.245,299.9 780.394,295.389 776.124,294.554Z" style="fill-rule:nonzero;"/>
                <path d="M776.124,379.594C773.974,379.174 771.03,380.84 768.637,382.596C770.847,380.187 773.455,376.761 773.455,373.991C773.455,369.187 769.939,365.292 765.604,365.292C761.269,365.292 757.754,369.187 757.754,373.991C757.754,376.762 760.362,380.187 762.573,382.597C760.179,380.84 757.235,379.174 755.085,379.594C750.815,380.429 747.964,384.94 748.717,389.671C749.47,394.402 753.542,397.561 757.811,396.727C760.4,396.221 763.136,392.44 764.891,389.54C764.235,393.549 763.212,399.145 762.187,402.143C765.207,402.116 765.604,402.143 765.604,402.143C765.604,402.143 766.001,402.116 769.022,402.143C767.997,399.145 766.974,393.549 766.318,389.54C768.073,392.44 770.809,396.221 773.398,396.727C777.667,397.561 781.739,394.402 782.492,389.671C783.245,384.94 780.394,380.429 776.124,379.594Z" style="fill-rule:nonzero;"/>
                <path d="M755.085,472.881C757.235,473.302 760.179,471.636 762.572,469.879C760.362,472.289 757.754,475.714 757.754,478.484C757.754,483.288 761.27,487.183 765.604,487.183C769.94,487.183 773.455,483.288 773.455,478.484C773.455,475.714 770.847,472.288 768.636,469.879C771.03,471.636 773.974,473.301 776.124,472.881C780.394,472.047 783.245,467.536 782.492,462.805C781.739,458.074 777.667,454.914 773.398,455.748C770.809,456.254 768.073,460.036 766.318,462.936C766.974,458.927 767.997,453.331 769.022,450.332C766.002,450.359 765.604,450.332 765.604,450.332C765.604,450.332 765.208,450.359 762.187,450.332C763.212,453.331 764.235,458.927 764.891,462.936C763.136,460.036 760.4,456.254 757.811,455.748C753.542,454.914 749.47,458.074 748.717,462.805C747.964,467.536 750.815,472.047 755.085,472.881Z" style="fill-rule:nonzero;"/>
                <path d="M704.791,305.463C703.895,305.288 702.668,305.982 701.671,306.714C702.592,305.71 703.678,304.283 703.678,303.129C703.678,301.127 702.213,299.504 700.407,299.504C698.601,299.504 697.136,301.127 697.136,303.129C697.136,304.283 698.223,305.711 699.144,306.714C698.146,305.982 696.92,305.288 696.024,305.463C694.245,305.811 693.057,307.691 693.37,309.662C693.684,311.634 695.381,312.95 697.16,312.603C698.238,312.392 699.379,310.816 700.11,309.608C699.836,311.278 699.41,313.61 698.983,314.859C700.242,314.848 700.407,314.859 700.407,314.859C700.407,314.859 700.572,314.848 701.831,314.859C701.404,313.61 700.978,311.278 700.705,309.608C701.436,310.816 702.576,312.392 703.655,312.603C705.434,312.95 707.131,311.634 707.444,309.662C707.758,307.691 706.57,305.811 704.791,305.463Z" style="fill-rule:nonzero;"/>
                <path d="M696.024,461.971C696.92,462.146 698.146,461.452 699.144,460.72C698.223,461.724 697.136,463.152 697.136,464.306C697.136,466.308 698.601,467.931 700.407,467.931C702.214,467.931 703.678,466.308 703.678,464.306C703.678,463.151 702.592,461.724 701.671,460.72C702.668,461.452 703.895,462.146 704.791,461.971C706.57,461.623 707.758,459.744 707.444,457.772C707.131,455.801 705.434,454.484 703.655,454.832C702.576,455.043 701.436,456.618 700.705,457.827C700.978,456.156 701.404,453.824 701.831,452.575C700.573,452.586 700.407,452.575 700.407,452.575C700.407,452.575 700.242,452.586 698.983,452.575C699.41,453.824 699.836,456.156 700.11,457.827C699.379,456.618 698.238,455.043 697.159,454.832C695.381,454.484 693.684,455.801 693.37,457.772C693.057,459.744 694.245,461.623 696.024,461.971Z" style="fill-rule:nonzero;"/>
                <path d="M826.417,461.971C827.313,462.146 828.54,461.452 829.537,460.72C828.616,461.724 827.53,463.152 827.53,464.306C827.53,466.308 828.995,467.931 830.801,467.931C832.607,467.931 834.072,466.308 834.072,464.306C834.072,463.151 832.985,461.724 832.064,460.72C833.061,461.452 834.288,462.146 835.184,461.971C836.963,461.623 838.151,459.744 837.838,457.772C837.524,455.801 835.827,454.484 834.048,454.832C832.969,455.043 831.829,456.618 831.098,457.827C831.371,456.156 831.798,453.824 832.225,452.575C830.966,452.586 830.801,452.575 830.801,452.575C830.801,452.575 830.636,452.586 829.377,452.575C829.804,453.824 830.23,456.156 830.503,457.827C829.772,456.618 828.632,455.043 827.553,454.832C825.774,454.484 824.077,455.801 823.764,457.772C823.45,459.744 824.638,461.623 826.417,461.971Z" style="fill-rule:nonzero;"/>
                <path d="M835.184,305.463C834.288,305.288 833.062,305.982 832.064,306.714C832.985,305.71 834.072,304.283 834.072,303.129C834.072,301.127 832.607,299.504 830.801,299.504C828.994,299.504 827.53,301.127 827.53,303.129C827.53,304.283 828.616,305.711 829.537,306.714C828.54,305.982 827.313,305.288 826.417,305.463C824.638,305.811 823.45,307.691 823.764,309.662C824.077,311.634 825.774,312.95 827.553,312.603C828.632,312.392 829.772,310.816 830.503,309.608C830.23,311.278 829.804,313.61 829.377,314.859C830.635,314.848 830.801,314.859 830.801,314.859C830.801,314.859 830.966,314.848 832.225,314.859C831.798,313.61 831.371,311.278 831.098,309.608C831.829,310.816 832.969,312.392 834.048,312.603C835.827,312.95 837.524,311.634 837.838,309.662C838.151,307.691 836.963,305.811 835.184,305.463Z" style="fill-rule:nonzero;"/>
                <path d="M700.156,294.258C698.593,294.258 697.233,293.774 696.303,292.879C695.389,291.999 694.905,290.754 694.905,289.276L697.405,289.276C697.405,290.069 697.617,290.675 698.036,291.077C698.53,291.553 699.357,291.793 700.359,291.754C702.383,291.676 703.409,290.225 703.409,287.443C703.409,284.228 701.771,283.733 700.344,283.662L698.421,283.564L699.292,281.848C699.71,281.024 700.214,280.085 700.793,279.008C701.088,278.459 701.402,277.874 701.733,277.25L697.405,277.251L697.405,278.662L694.905,278.662L694.905,274.751L705.862,274.75L704.913,276.577C704.21,277.93 703.566,279.128 702.995,280.191C702.748,280.651 702.515,281.085 702.297,281.496C704.615,282.275 705.909,284.361 705.909,287.443C705.909,291.574 703.871,294.12 700.456,294.252C700.355,294.256 700.255,294.258 700.156,294.258Z" style="fill-rule:nonzero;"/>
                <path d="M830.55,294.258C828.986,294.258 827.627,293.774 826.696,292.879C825.782,291.999 825.299,290.754 825.299,289.276L827.799,289.276C827.799,290.069 828.011,290.675 828.43,291.077C828.924,291.553 829.754,291.793 830.753,291.754C832.776,291.676 833.803,290.225 833.803,287.443C833.803,284.228 832.165,283.733 830.737,283.662L828.814,283.564L829.686,281.848C830.104,281.024 830.607,280.085 831.187,279.008C831.481,278.459 831.796,277.874 832.127,277.25L827.799,277.251L827.799,278.662L825.299,278.662L825.299,274.751L836.256,274.75L835.307,276.577C834.604,277.93 833.96,279.128 833.389,280.191C833.142,280.651 832.908,281.085 832.69,281.496C835.009,282.275 836.303,284.361 836.303,287.443C836.303,291.574 834.265,294.12 830.85,294.252C830.749,294.256 830.648,294.258 830.55,294.258Z" style="fill-rule:nonzero;"/>
                <path d="M697.011,492.684L694.953,492.684L695.901,490.857C696.604,489.504 697.248,488.306 697.819,487.243C698.066,486.783 698.3,486.349 698.519,485.938C696.199,485.159 694.905,483.073 694.905,479.991C694.905,475.86 696.944,473.314 700.358,473.182C702.052,473.116 703.523,473.603 704.512,474.555C705.427,475.435 705.91,476.68 705.91,478.158L703.41,478.158C703.41,477.365 703.197,476.759 702.779,476.357C702.284,475.881 701.452,475.635 700.456,475.68C698.432,475.758 697.405,477.209 697.405,479.991C697.405,483.206 699.044,483.701 700.471,483.772L702.394,483.87L701.522,485.586C701.105,486.41 700.601,487.349 700.022,488.426C699.728,488.975 699.413,489.56 699.081,490.184L703.409,490.183L703.409,488.772L705.909,488.772L705.909,492.683L697.011,492.684Z" style="fill-rule:nonzero;"/>
                <path d="M827.404,492.684L825.347,492.684L826.295,490.857C826.998,489.504 827.642,488.306 828.213,487.243C828.46,486.783 828.693,486.349 828.912,485.938C826.593,485.159 825.299,483.073 825.299,479.991C825.299,475.86 827.338,473.314 830.752,473.182C832.439,473.116 833.917,473.603 834.905,474.555C835.82,475.435 836.304,476.68 836.304,478.158L833.804,478.158C833.804,477.365 833.591,476.759 833.173,476.357C832.678,475.881 831.849,475.635 830.85,475.68C828.825,475.758 827.799,477.209 827.799,479.991C827.799,483.206 829.438,483.701 830.864,483.772L832.787,483.87L831.916,485.586C831.499,486.41 830.994,487.349 830.416,488.426C830.121,488.975 829.807,489.56 829.475,490.184L833.803,490.183L833.803,488.772L836.303,488.772L836.303,492.683L827.404,492.684Z" style="fill-rule:nonzero;"/>
            </g>
        </g>
    </g>
</svg>
