<?xml version="1.0" encoding="UTF-8" standalone="no"?>
<!DOCTYPE svg PUBLIC "-//W3C//DTD SVG 1.1//EN" "http://www.w3.org/Graphics/SVG/1.1/DTD/svg11.dtd">
<svg width="100%" height="100%" viewBox="0 0 150 225" version="1.1" xmlns="http://www.w3.org/2000/svg" xmlns:xlink="http://www.w3.org/1999/xlink" xml:space="preserve" xmlns:serif="http://www.serif.com/" style="fill-rule:evenodd;clip-rule:evenodd;stroke-linejoin:round;stroke-miterlimit:1.41421;">
    <g transform="matrix(1,0,0,1,-351,-16)">
        <g>
            <g>
                <rect x="0.25" y="1.04" width="1530.71" height="1530.71" style="fill:white;fill-rule:nonzero;"/>
                <path d="M358.659,252.156C350.802,252.156 344.409,245.764 344.409,237.906L344.409,19.292C344.409,11.435 350.802,5.042 358.659,5.042L492.234,5.042C500.091,5.042 506.484,11.435 506.484,19.292L506.484,237.906C506.484,245.764 500.091,252.156 492.234,252.156L358.659,252.156Z" style="fill:white;fill-rule:nonzero;"/>
                <path d="M492.234,4.792L358.659,4.792C350.664,4.792 344.159,11.297 344.159,19.292L344.159,237.906C344.159,245.901 350.664,252.406 358.659,252.406L492.234,252.406C500.229,252.406 506.734,245.901 506.734,237.906L506.734,19.292C506.734,11.297 500.229,4.792 492.234,4.792ZM492.234,5.292C499.966,5.292 506.234,11.56 506.234,19.292L506.234,237.906C506.234,245.638 499.966,251.906 492.234,251.906L358.659,251.906C350.927,251.906 344.659,245.638 344.659,237.906L344.659,19.292C344.659,11.56 350.927,5.292 358.659,5.292L492.234,5.292Z" style="fill-rule:nonzero;"/>
            </g>
            <g>
                <path d="M425.25,61.965C428.456,56.588 436.873,47.34 442.258,43.54C436.873,39.741 428.456,30.493 425.25,25.116C422.044,30.493 413.627,39.741 408.242,43.54C413.627,47.34 422.044,56.588 425.25,61.965Z" style="fill:rgb(200,0,0);fill-rule:nonzero;"/>
                <path d="M424.75,231.465C427.956,226.088 436.373,216.84 441.758,213.04C436.373,209.24 427.956,199.992 424.75,194.615C421.544,199.992 413.127,209.24 407.742,213.04C413.127,216.84 421.544,226.088 424.75,231.465Z" style="fill:rgb(200,0,0);fill-rule:nonzero;"/>
                <path d="M360.25,59.741C361.586,57.501 365.093,53.647 367.337,52.064C365.093,50.481 361.586,46.627 360.25,44.386C358.914,46.627 355.407,50.481 353.163,52.064C355.407,53.647 358.914,57.501 360.25,59.741Z" style="fill:rgb(200,0,0);fill-rule:nonzero;"/>
                <path d="M360.25,197.457C358.914,199.698 355.407,203.551 353.163,205.135C355.407,206.718 358.914,210.572 360.25,212.812C361.586,210.572 365.093,206.718 367.337,205.135C365.093,203.551 361.586,199.698 360.25,197.457Z" style="fill:rgb(200,0,0);fill-rule:nonzero;"/>
                <path d="M490.644,197.457C489.308,199.698 485.8,203.551 483.556,205.135C485.8,206.718 489.308,210.572 490.644,212.812C491.979,210.572 495.487,206.718 497.731,205.135C495.487,203.551 491.979,199.698 490.644,197.457Z" style="fill:rgb(200,0,0);fill-rule:nonzero;"/>
                <path d="M490.644,59.741C491.979,57.501 495.487,53.647 497.731,52.064C495.487,50.481 491.979,46.627 490.644,44.386C489.308,46.627 485.8,50.481 483.556,52.064C485.8,53.647 489.308,57.501 490.644,59.741Z" style="fill:rgb(200,0,0);fill-rule:nonzero;"/>
                <path d="M365.752,39.141L354.748,39.141L354.748,37.891C354.748,33.808 357.591,31.622 359.875,29.866C361.969,28.256 363.252,27.184 363.252,25.478C363.252,23.164 362.326,22.133 360.25,22.133C358.853,22.133 357.248,22.534 357.248,25.665L354.748,25.665C354.748,21.888 356.805,19.633 360.25,19.633C363.747,19.633 365.752,21.764 365.752,25.478C365.752,28.501 363.439,30.279 361.398,31.848C359.599,33.232 357.883,34.551 357.389,36.641L363.252,36.641L363.252,35.229L365.752,35.229L365.752,39.141Z" style="fill:rgb(200,0,0);fill-rule:nonzero;"/>
                <path d="M496.146,39.142L485.142,39.142L485.142,37.892C485.142,33.809 487.984,31.623 490.27,29.867C492.363,28.257 493.646,27.184 493.646,25.479C493.646,23.165 492.721,22.133 490.644,22.133C489.246,22.133 487.642,22.535 487.642,25.665L485.142,25.665C485.142,21.888 487.198,19.633 490.644,19.633C494.141,19.633 496.146,21.764 496.146,25.479C496.146,28.502 493.833,30.28 491.793,31.849C489.992,33.233 488.276,34.552 487.783,36.642L493.646,36.642L493.646,35.229L496.146,35.229L496.146,39.142Z" style="fill:rgb(200,0,0);fill-rule:nonzero;"/>
                <path d="M360.251,237.565C356.754,237.565 354.748,235.435 354.748,231.72C354.748,228.697 357.062,226.919 359.102,225.35C360.902,223.966 362.618,222.647 363.111,220.557L357.248,220.557L357.248,221.969L354.748,221.969L354.748,218.057L365.753,218.057L365.753,219.307C365.753,223.39 362.91,225.576 360.625,227.332C358.531,228.942 357.248,230.015 357.248,231.72C357.248,234.034 358.174,235.065 360.251,235.065C361.648,235.065 363.253,234.664 363.253,231.533L365.753,231.533C365.753,235.311 363.696,237.565 360.251,237.565Z" style="fill:rgb(200,0,0);fill-rule:nonzero;"/>
                <path d="M490.644,237.567C487.146,237.567 485.142,235.436 485.142,231.721C485.142,228.698 487.454,226.92 489.495,225.352C491.295,223.967 493.011,222.648 493.505,220.559L487.642,220.559L487.642,221.971L485.142,221.971L485.142,218.059L496.146,218.059L496.146,219.309C496.146,223.392 493.303,225.577 491.019,227.333C488.925,228.943 487.642,230.016 487.642,231.721C487.642,234.035 488.567,235.067 490.644,235.067C492.041,235.067 493.646,234.665 493.646,231.535L496.146,231.535C496.146,235.312 494.089,237.567 490.644,237.567Z" style="fill:rgb(200,0,0);fill-rule:nonzero;"/>
            </g>
        </g>
    </g>
</svg>
