<?xml version="1.0" encoding="UTF-8" standalone="no"?>
<!DOCTYPE svg PUBLIC "-//W3C//DTD SVG 1.1//EN" "http://www.w3.org/Graphics/SVG/1.1/DTD/svg11.dtd">
<svg width="100%" height="100%" viewBox="0 0 150 225" version="1.1" xmlns="http://www.w3.org/2000/svg" xmlns:xlink="http://www.w3.org/1999/xlink" xml:space="preserve" xmlns:serif="http://www.serif.com/" style="fill-rule:evenodd;clip-rule:evenodd;stroke-linejoin:round;stroke-miterlimit:1.41421;">
    <g transform="matrix(1,0,0,1,-11,-16)">
        <g>
            <g>
                <rect x="0.25" y="1.04" width="1530.71" height="1530.71" style="fill:white;fill-rule:nonzero;"/>
                <path d="M18.502,252.156C10.644,252.156 4.251,245.764 4.251,237.906L4.251,19.292C4.251,11.435 10.644,5.042 18.502,5.042L152.077,5.042C159.934,5.042 166.327,11.435 166.327,19.292L166.327,237.906C166.327,245.764 159.934,252.156 152.077,252.156L18.502,252.156Z" style="fill:white;fill-rule:nonzero;"/>
                <path d="M152.077,4.792L18.502,4.792C10.506,4.792 4.001,11.297 4.001,19.292L4.001,237.906C4.001,245.901 10.506,252.406 18.502,252.406L152.077,252.406C160.072,252.406 166.577,245.901 166.577,237.906L166.577,19.292C166.577,11.297 160.072,4.792 152.077,4.792ZM152.077,5.292C159.809,5.292 166.077,11.56 166.077,19.292L166.077,237.906C166.077,245.638 159.809,251.906 152.077,251.906L18.502,251.906C10.77,251.906 4.501,245.638 4.501,237.906L4.501,19.292C4.501,11.56 10.77,5.292 18.502,5.292L152.077,5.292Z" style="fill-rule:nonzero;"/>
            </g>
            <g>
                <path d="M85.275,61.985C84.632,60.628 83.816,59.604 82.427,58.091C80.784,56.301 74.894,51.139 72.727,48.626C71.152,46.801 68.577,43.506 68.315,37.598C68.214,35.313 67.995,29.726 73.344,26.24C75.633,24.747 79.564,24.582 82.115,26.898C84.897,29.424 85.281,32.34 85.281,32.34C85.281,32.34 86.376,28.379 88.659,26.816C90.109,25.821 92.071,24.599 95.412,25.468C100.126,26.695 102.256,31.164 102.296,36.198C102.337,41.43 101.587,44.901 96.95,49.655C93.695,52.993 90.292,55.737 87.357,59.141C86.243,60.432 85.879,60.721 85.275,61.985Z" style="fill:rgb(200,0,0);fill-rule:nonzero;"/>
                <path d="M85.303,195.214C85.946,196.572 86.762,197.595 88.151,199.108C89.794,200.899 95.685,206.061 97.852,208.573C99.426,210.398 102.001,213.694 102.263,219.602C102.364,221.886 102.584,227.473 97.234,230.96C94.945,232.453 91.014,232.617 88.463,230.301C85.681,227.775 85.297,224.86 85.297,224.86C85.297,224.86 84.202,228.82 81.919,230.384C80.469,231.378 78.507,232.601 75.167,231.731C70.452,230.505 68.323,226.035 68.283,221.001C68.242,215.77 68.991,212.298 73.628,207.545C76.883,204.207 80.286,201.463 83.221,198.059C84.335,196.768 84.699,196.479 85.303,195.214Z" style="fill:rgb(200,0,0);fill-rule:nonzero;"/>
                <path d="M20.086,59.742C19.818,59.176 19.478,58.75 18.899,58.119C18.214,57.373 15.76,55.222 14.857,54.175C14.201,53.414 13.128,52.041 13.019,49.579C12.977,48.628 12.885,46.299 15.114,44.847C16.068,44.224 17.706,44.156 18.769,45.121C19.928,46.174 20.089,47.388 20.089,47.388C20.089,47.388 20.545,45.738 21.496,45.087C22.1,44.672 22.918,44.163 24.31,44.525C26.274,45.036 27.162,46.899 27.178,48.996C27.195,51.176 26.883,52.623 24.951,54.604C23.595,55.995 22.177,57.138 20.954,58.557C20.489,59.094 20.338,59.215 20.086,59.742Z" style="fill:rgb(200,0,0);fill-rule:nonzero;"/>
                <path d="M20.098,197.457C20.365,198.023 20.706,198.449 21.284,199.08C21.969,199.826 24.424,201.977 25.327,203.024C25.983,203.784 27.056,205.157 27.165,207.619C27.207,208.571 27.298,210.899 25.069,212.352C24.115,212.974 22.477,213.043 21.414,212.078C20.255,211.025 20.095,209.81 20.095,209.81C20.095,209.81 19.639,211.461 18.688,212.112C18.083,212.526 17.266,213.036 15.874,212.674C13.909,212.162 13.022,210.3 13.005,208.202C12.988,206.022 13.301,204.576 15.233,202.595C16.589,201.204 18.007,200.061 19.23,198.642C19.694,198.104 19.846,197.984 20.098,197.457Z" style="fill:rgb(200,0,0);fill-rule:nonzero;"/>
                <path d="M150.492,197.457C150.76,198.023 151.1,198.449 151.679,199.08C152.364,199.826 154.818,201.977 155.721,203.024C156.377,203.784 157.45,205.157 157.559,207.619C157.601,208.571 157.693,210.899 155.464,212.352C154.51,212.974 152.872,213.043 151.809,212.078C150.65,211.025 150.49,209.81 150.49,209.81C150.49,209.81 150.033,211.461 149.082,212.112C148.478,212.526 147.66,213.036 146.268,212.674C144.304,212.162 143.416,210.3 143.4,208.202C143.383,206.022 143.695,204.576 145.627,202.595C146.984,201.204 148.402,200.061 149.625,198.642C150.089,198.104 150.241,197.984 150.492,197.457Z" style="fill:rgb(200,0,0);fill-rule:nonzero;"/>
                <path d="M150.48,59.742C150.213,59.176 149.872,58.75 149.294,58.119C148.609,57.373 146.155,55.222 145.252,54.175C144.596,53.414 143.522,52.041 143.413,49.579C143.371,48.628 143.28,46.299 145.509,44.847C146.463,44.224 148.101,44.156 149.164,45.121C150.323,46.174 150.483,47.388 150.483,47.388C150.483,47.388 150.939,45.738 151.89,45.087C152.495,44.672 153.312,44.163 154.704,44.525C156.669,45.036 157.556,46.899 157.573,48.996C157.59,51.176 157.278,52.623 155.346,54.604C153.989,55.995 152.571,57.138 151.348,58.557C150.884,59.094 150.732,59.215 150.48,59.742Z" style="fill:rgb(200,0,0);fill-rule:nonzero;"/>
                <path d="M25.594,39.141L14.59,39.141L14.59,37.891C14.59,33.808 17.433,31.622 19.717,29.866C21.811,28.256 23.094,27.184 23.094,25.478C23.094,23.164 22.168,22.133 20.092,22.133C18.694,22.133 17.09,22.534 17.09,25.665L14.59,25.665C14.59,21.888 16.647,19.633 20.092,19.633C23.589,19.633 25.594,21.764 25.594,25.478C25.594,28.501 23.281,30.279 21.241,31.848C19.44,33.232 17.725,34.551 17.231,36.641L23.094,36.641L23.094,35.229L25.594,35.229L25.594,39.141Z" style="fill:rgb(200,0,0);fill-rule:nonzero;"/>
                <path d="M155.989,39.142L144.984,39.142L144.984,37.892C144.984,33.809 147.827,31.623 150.112,29.867C152.206,28.257 153.489,27.184 153.489,25.479C153.489,23.165 152.563,22.133 150.486,22.133C149.089,22.133 147.484,22.535 147.484,25.665L144.984,25.665C144.984,21.888 147.041,19.633 150.486,19.633C153.983,19.633 155.989,21.764 155.989,25.479C155.989,28.502 153.676,30.28 151.635,31.849C149.835,33.233 148.119,34.552 147.625,36.642L153.489,36.642L153.489,35.229L155.989,35.229L155.989,39.142Z" style="fill:rgb(200,0,0);fill-rule:nonzero;"/>
                <path d="M20.093,237.565C16.596,237.565 14.59,235.435 14.59,231.72C14.59,228.697 16.903,226.919 18.944,225.35C20.744,223.966 22.46,222.647 22.954,220.557L17.09,220.557L17.09,221.969L14.59,221.969L14.59,218.057L25.595,218.057L25.595,219.307C25.595,223.39 22.752,225.576 20.467,227.332C18.374,228.942 17.09,230.015 17.09,231.72C17.09,234.034 18.016,235.065 20.093,235.065C21.49,235.065 23.095,234.664 23.095,231.533L25.595,231.533C25.595,235.311 23.538,237.565 20.093,237.565Z" style="fill:rgb(200,0,0);fill-rule:nonzero;"/>
                <path d="M150.486,237.567C146.989,237.567 144.984,235.436 144.984,231.721C144.984,228.698 147.297,226.92 149.337,225.352C151.138,223.967 152.854,222.648 153.347,220.559L147.484,220.559L147.484,221.971L144.984,221.971L144.984,218.059L155.988,218.059L155.988,219.309C155.988,223.392 153.146,225.577 150.861,227.333C148.767,228.943 147.484,230.016 147.484,231.721C147.484,234.035 148.41,235.067 150.486,235.067C151.884,235.067 153.488,234.665 153.488,231.535L155.988,231.535C155.988,235.312 153.932,237.567 150.486,237.567Z" style="fill:rgb(200,0,0);fill-rule:nonzero;"/>
            </g>
        </g>
    </g>
</svg>
