<?xml version="1.0" encoding="UTF-8" standalone="no"?>
<!DOCTYPE svg PUBLIC "-//W3C//DTD SVG 1.1//EN" "http://www.w3.org/Graphics/SVG/1.1/DTD/svg11.dtd">
<svg width="100%" height="100%" viewBox="0 0 150 225" version="1.1" xmlns="http://www.w3.org/2000/svg" xmlns:xlink="http://www.w3.org/1999/xlink" xml:space="preserve" xmlns:serif="http://www.serif.com/" style="fill-rule:evenodd;clip-rule:evenodd;stroke-linejoin:round;stroke-miterlimit:1.41421;">
    <g transform="matrix(1,0,0,1,-1371,-526)">
        <g>
            <g>
                <rect x="0.25" y="1.04" width="1530.71" height="1530.71" style="fill:white;fill-rule:nonzero;"/>
                <path d="M1379.13,762.393C1371.28,762.393 1364.88,756 1364.88,748.143L1364.88,529.528C1364.88,521.671 1371.28,515.278 1379.13,515.278L1512.71,515.278C1520.57,515.278 1526.96,521.671 1526.96,529.528L1526.96,748.143C1526.96,756 1520.57,762.393 1512.71,762.393L1379.13,762.393Z" style="fill:white;fill-rule:nonzero;"/>
                <path d="M1512.71,515.028L1379.13,515.028C1371.14,515.028 1364.63,521.533 1364.63,529.528L1364.63,748.143C1364.63,756.138 1371.14,762.643 1379.13,762.643L1512.71,762.643C1520.7,762.643 1527.21,756.138 1527.21,748.143L1527.21,529.528C1527.21,521.533 1520.7,515.028 1512.71,515.028ZM1512.71,515.528C1520.44,515.528 1526.71,521.796 1526.71,529.528L1526.71,748.143C1526.71,755.874 1520.44,762.143 1512.71,762.143L1379.13,762.143C1371.4,762.143 1365.13,755.874 1365.13,748.143L1365.13,529.528C1365.13,521.796 1371.4,515.528 1379.13,515.528L1512.71,515.528Z" style="fill-rule:nonzero;"/>
                <path d="M1456.44,634.712C1454.29,634.292 1451.34,635.958 1448.95,637.714C1451.16,635.305 1453.77,631.879 1453.77,629.109C1453.77,624.306 1450.25,620.411 1445.92,620.411C1441.58,620.411 1438.07,624.306 1438.07,629.109C1438.07,631.88 1440.68,635.306 1442.89,637.715C1440.49,635.958 1437.55,634.292 1435.4,634.712C1431.13,635.547 1428.28,640.058 1429.03,644.789C1429.78,649.52 1433.86,652.68 1438.13,651.845C1440.71,651.339 1443.45,647.558 1445.21,644.658C1444.55,648.667 1443.53,654.263 1442.5,657.261C1445.52,657.234 1445.92,657.261 1445.92,657.261C1445.92,657.261 1446.32,657.234 1449.34,657.261C1448.31,654.263 1447.29,648.667 1446.63,644.658C1448.39,647.558 1451.12,651.339 1453.71,651.845C1457.98,652.68 1462.05,649.52 1462.81,644.789C1463.56,640.058 1460.71,635.547 1456.44,634.712Z" style="fill-rule:nonzero;"/>
                <path d="M1385.11,560.581C1384.21,560.406 1382.98,561.1 1381.99,561.832C1382.91,560.828 1383.99,559.401 1383.99,558.247C1383.99,556.245 1382.53,554.622 1380.72,554.622C1378.92,554.622 1377.45,556.245 1377.45,558.247C1377.45,559.401 1378.54,560.829 1379.46,561.833C1378.46,561.1 1377.23,560.406 1376.34,560.581C1374.56,560.929 1373.37,562.809 1373.68,564.78C1374,566.752 1375.7,568.068 1377.47,567.721C1378.55,567.51 1379.69,565.934 1380.42,564.726C1380.15,566.396 1379.72,568.728 1379.3,569.978C1380.56,569.966 1380.72,569.978 1380.72,569.978C1380.72,569.978 1380.89,569.966 1382.15,569.978C1381.72,568.728 1381.29,566.396 1381.02,564.726C1381.75,565.934 1382.89,567.51 1383.97,567.721C1385.75,568.068 1387.44,566.752 1387.76,564.78C1388.07,562.809 1386.88,560.929 1385.11,560.581Z" style="fill-rule:nonzero;"/>
                <path d="M1376.34,717.089C1377.23,717.264 1378.46,716.57 1379.46,715.838C1378.54,716.842 1377.45,718.27 1377.45,719.424C1377.45,721.426 1378.92,723.049 1380.72,723.049C1382.53,723.049 1383.99,721.426 1383.99,719.424C1383.99,718.27 1382.91,716.842 1381.98,715.838C1382.98,716.57 1384.21,717.264 1385.11,717.089C1386.88,716.742 1388.07,714.862 1387.76,712.89C1387.44,710.919 1385.75,709.602 1383.97,709.95C1382.89,710.161 1381.75,711.736 1381.02,712.945C1381.29,711.274 1381.72,708.942 1382.15,707.693C1380.89,707.704 1380.72,707.693 1380.72,707.693C1380.72,707.693 1380.56,707.704 1379.3,707.693C1379.72,708.942 1380.15,711.274 1380.42,712.945C1379.69,711.736 1378.55,710.161 1377.47,709.95C1375.7,709.602 1374,710.919 1373.68,712.89C1373.37,714.862 1374.56,716.742 1376.34,717.089Z" style="fill-rule:nonzero;"/>
                <path d="M1506.73,717.089C1507.63,717.264 1508.86,716.57 1509.85,715.838C1508.93,716.842 1507.84,718.27 1507.84,719.424C1507.84,721.426 1509.31,723.049 1511.12,723.049C1512.92,723.049 1514.39,721.426 1514.39,719.424C1514.39,718.27 1513.3,716.842 1512.38,715.838C1513.38,716.57 1514.6,717.264 1515.5,717.089C1517.28,716.742 1518.47,714.862 1518.15,712.89C1517.84,710.919 1516.14,709.602 1514.36,709.95C1513.28,710.161 1512.14,711.736 1511.41,712.945C1511.69,711.274 1512.11,708.942 1512.54,707.693C1511.28,707.704 1511.12,707.693 1511.12,707.693C1511.12,707.693 1510.95,707.704 1509.69,707.693C1510.12,708.942 1510.55,711.274 1510.82,712.945C1510.09,711.736 1508.95,710.161 1507.87,709.95C1506.09,709.602 1504.39,710.919 1504.08,712.89C1503.77,714.862 1504.95,716.742 1506.73,717.089Z" style="fill-rule:nonzero;"/>
                <path d="M1515.5,560.581C1514.6,560.406 1513.38,561.1 1512.38,561.832C1513.3,560.828 1514.39,559.401 1514.39,558.247C1514.39,556.245 1512.92,554.622 1511.12,554.622C1509.31,554.622 1507.84,556.245 1507.84,558.247C1507.84,559.401 1508.93,560.829 1509.85,561.833C1508.86,561.1 1507.63,560.406 1506.73,560.581C1504.95,560.929 1503.77,562.809 1504.08,564.78C1504.39,566.752 1506.09,568.068 1507.87,567.721C1508.95,567.51 1510.09,565.934 1510.82,564.726C1510.55,566.396 1510.12,568.728 1509.69,569.978C1510.95,569.966 1511.12,569.978 1511.12,569.978C1511.12,569.978 1511.28,569.966 1512.54,569.978C1512.11,568.728 1511.69,566.396 1511.41,564.726C1512.14,565.934 1513.28,567.51 1514.36,567.721C1516.14,568.068 1517.84,566.752 1518.15,564.78C1518.47,562.809 1517.28,560.929 1515.5,560.581Z" style="fill-rule:nonzero;"/>
                <path d="M1379.11,542.568L1380.73,536.146L1382.33,542.568L1379.11,542.568ZM1385.96,546.818L1381.88,530.151L1379.69,530.151L1375.45,546.818L1374.83,546.818L1374.83,549.318L1378.63,549.318L1378.63,546.818L1378.03,546.818L1378.48,545.068L1382.95,545.068L1383.38,546.818L1382.8,546.818L1382.8,549.318L1386.63,549.318L1386.63,546.818L1385.96,546.818Z" style="fill-rule:nonzero;"/>
                <path d="M1509.5,542.568L1511.13,536.146L1512.72,542.568L1509.5,542.568ZM1516.35,546.818L1512.27,530.151L1510.08,530.151L1505.85,546.818L1505.23,546.818L1505.23,549.318L1509.02,549.318L1509.02,546.818L1508.43,546.818L1508.87,545.068L1513.34,545.068L1513.78,546.818L1513.19,546.818L1513.19,549.318L1517.03,549.318L1517.03,546.818L1516.35,546.818Z" style="fill-rule:nonzero;"/>
                <path d="M1382.36,735.327L1380.73,741.748L1379.14,735.327L1382.36,735.327ZM1375.51,731.077L1379.59,747.744L1381.78,747.744L1386.01,731.077L1386.63,731.077L1386.63,728.577L1382.84,728.577L1382.84,731.077L1383.43,731.077L1382.99,732.827L1378.52,732.827L1378.08,731.077L1378.67,731.077L1378.67,728.577L1374.83,728.577L1374.83,731.077L1375.51,731.077Z" style="fill-rule:nonzero;"/>
                <path d="M1512.75,735.327L1511.13,741.748L1509.53,735.327L1512.75,735.327ZM1505.9,731.077L1509.99,747.744L1512.17,747.744L1516.41,731.077L1517.03,731.077L1517.03,728.577L1513.24,728.577L1513.24,731.077L1513.83,731.077L1513.38,732.827L1508.91,732.827L1508.48,731.077L1509.06,731.077L1509.06,728.577L1505.23,728.577L1505.23,731.077L1505.9,731.077Z" style="fill-rule:nonzero;"/>
            </g>
        </g>
    </g>
</svg>
