<?xml version="1.0" encoding="UTF-8" standalone="no"?>
<!DOCTYPE svg PUBLIC "-//W3C//DTD SVG 1.1//EN" "http://www.w3.org/Graphics/SVG/1.1/DTD/svg11.dtd">
<svg width="100%" height="100%" viewBox="0 0 150 225" version="1.1" xmlns="http://www.w3.org/2000/svg" xmlns:xlink="http://www.w3.org/1999/xlink" xml:space="preserve" xmlns:serif="http://www.serif.com/" style="fill-rule:evenodd;clip-rule:evenodd;stroke-linejoin:round;stroke-miterlimit:1.41421;">
    <g transform="matrix(1,0,0,1,-1371,-16)">
        <g>
            <g>
                <rect x="0.25" y="1.04" width="1530.71" height="1530.71" style="fill:white;fill-rule:nonzero;"/>
                <path d="M1379.13,252.156C1371.28,252.156 1364.88,245.764 1364.88,237.906L1364.88,19.292C1364.88,11.435 1371.28,5.042 1379.13,5.042L1512.71,5.042C1520.57,5.042 1526.96,11.435 1526.96,19.292L1526.96,237.906C1526.96,245.764 1520.57,252.156 1512.71,252.156L1379.13,252.156Z" style="fill:white;fill-rule:nonzero;"/>
                <path d="M1512.71,4.792L1379.13,4.792C1371.14,4.792 1364.63,11.297 1364.63,19.292L1364.63,237.906C1364.63,245.901 1371.14,252.406 1379.13,252.406L1512.71,252.406C1520.7,252.406 1527.21,245.901 1527.21,237.906L1527.21,19.292C1527.21,11.297 1520.7,4.792 1512.71,4.792ZM1512.71,5.292C1520.44,5.292 1526.71,11.56 1526.71,19.292L1526.71,237.906C1526.71,245.638 1520.44,251.906 1512.71,251.906L1379.13,251.906C1371.4,251.906 1365.13,245.638 1365.13,237.906L1365.13,19.292C1365.13,11.56 1371.4,5.292 1379.13,5.292L1512.71,5.292Z" style="fill-rule:nonzero;"/>
                <path d="M1445.9,147.025C1445.26,145.667 1444.45,144.644 1443.06,143.131C1441.41,141.34 1435.52,136.178 1433.36,133.666C1431.78,131.841 1429.21,128.545 1428.95,122.637C1428.84,120.353 1428.62,114.766 1433.97,111.279C1436.26,109.786 1440.19,109.622 1442.75,111.938C1445.53,114.464 1445.91,117.379 1445.91,117.379C1445.91,117.379 1447.01,113.419 1449.29,111.855C1450.74,110.861 1452.7,109.639 1456.04,110.508C1460.76,111.734 1462.89,116.204 1462.93,121.238C1462.97,126.469 1462.22,129.941 1457.58,134.694C1454.32,138.033 1450.92,140.776 1447.99,144.181C1446.87,145.471 1446.51,145.76 1445.9,147.025Z" style="fill:rgb(200,0,0);fill-rule:nonzero;"/>
                <path d="M1380.72,59.742C1380.45,59.176 1380.11,58.75 1379.53,58.119C1378.84,57.373 1376.39,55.222 1375.49,54.175C1374.83,53.414 1373.76,52.041 1373.65,49.579C1373.61,48.628 1373.52,46.299 1375.74,44.847C1376.7,44.224 1378.34,44.156 1379.4,45.121C1380.56,46.174 1380.72,47.388 1380.72,47.388C1380.72,47.388 1381.17,45.738 1382.13,45.087C1382.73,44.672 1383.55,44.163 1384.94,44.525C1386.9,45.036 1387.79,46.899 1387.81,48.996C1387.83,51.176 1387.51,52.623 1385.58,54.604C1384.22,55.995 1382.81,57.138 1381.58,58.557C1381.12,59.094 1380.97,59.215 1380.72,59.742Z" style="fill:rgb(200,0,0);fill-rule:nonzero;"/>
                <path d="M1380.73,197.457C1381,198.023 1381.34,198.449 1381.91,199.08C1382.6,199.826 1385.05,201.977 1385.96,203.024C1386.61,203.784 1387.69,205.157 1387.79,207.619C1387.84,208.571 1387.93,210.899 1385.7,212.352C1384.75,212.974 1383.11,213.043 1382.04,212.078C1380.89,211.025 1380.72,209.81 1380.72,209.81C1380.72,209.81 1380.27,211.461 1379.32,212.112C1378.71,212.526 1377.9,213.036 1376.5,212.674C1374.54,212.162 1373.65,210.3 1373.64,208.202C1373.62,206.022 1373.93,204.576 1375.86,202.595C1377.22,201.204 1378.64,200.061 1379.86,198.642C1380.32,198.104 1380.48,197.984 1380.73,197.457Z" style="fill:rgb(200,0,0);fill-rule:nonzero;"/>
                <path d="M1511.12,197.457C1511.39,198.023 1511.73,198.449 1512.31,199.08C1512.99,199.826 1515.45,201.977 1516.35,203.024C1517.01,203.784 1518.08,205.157 1518.19,207.619C1518.23,208.571 1518.32,210.899 1516.09,212.352C1515.14,212.974 1513.5,213.043 1512.44,212.078C1511.28,211.025 1511.12,209.81 1511.12,209.81C1511.12,209.81 1510.66,211.461 1509.71,212.112C1509.11,212.526 1508.29,213.036 1506.9,212.674C1504.93,212.162 1504.05,210.3 1504.03,208.202C1504.01,206.022 1504.32,204.576 1506.26,202.595C1507.61,201.204 1509.03,200.061 1510.25,198.642C1510.72,198.104 1510.87,197.984 1511.12,197.457Z" style="fill:rgb(200,0,0);fill-rule:nonzero;"/>
                <path d="M1511.11,59.742C1510.84,59.176 1510.5,58.75 1509.92,58.119C1509.24,57.373 1506.78,55.222 1505.88,54.175C1505.23,53.414 1504.15,52.041 1504.04,49.579C1504,48.628 1503.91,46.299 1506.14,44.847C1507.09,44.224 1508.73,44.156 1509.79,45.121C1510.95,46.174 1511.11,47.388 1511.11,47.388C1511.11,47.388 1511.57,45.738 1512.52,45.087C1513.12,44.672 1513.94,44.163 1515.33,44.525C1517.3,45.036 1518.19,46.899 1518.2,48.996C1518.22,51.176 1517.91,52.623 1515.98,54.604C1514.62,55.995 1513.2,57.138 1511.98,58.557C1511.51,59.094 1511.36,59.215 1511.11,59.742Z" style="fill:rgb(200,0,0);fill-rule:nonzero;"/>
                <path d="M1379.11,32.332L1380.73,25.911L1382.33,32.332L1379.11,32.332ZM1385.96,36.582L1381.88,19.915L1379.69,19.915L1375.45,36.582L1374.83,36.582L1374.83,39.082L1378.63,39.082L1378.63,36.582L1378.03,36.582L1378.48,34.832L1382.95,34.832L1383.38,36.582L1382.8,36.582L1382.8,39.082L1386.63,39.082L1386.63,36.582L1385.96,36.582Z" style="fill:rgb(200,0,0);fill-rule:nonzero;"/>
                <path d="M1509.5,32.332L1511.13,25.911L1512.72,32.332L1509.5,32.332ZM1516.35,36.582L1512.27,19.915L1510.08,19.915L1505.85,36.582L1505.23,36.582L1505.23,39.082L1509.02,39.082L1509.02,36.582L1508.43,36.582L1508.87,34.832L1513.34,34.832L1513.78,36.582L1513.19,36.582L1513.19,39.082L1517.03,39.082L1517.03,36.582L1516.35,36.582Z" style="fill:rgb(200,0,0);fill-rule:nonzero;"/>
                <path d="M1382.36,225.091L1380.73,231.512L1379.14,225.091L1382.36,225.091ZM1375.51,220.841L1379.59,237.507L1381.78,237.507L1386.01,220.841L1386.63,220.841L1386.63,218.341L1382.84,218.341L1382.84,220.841L1383.43,220.841L1382.99,222.591L1378.52,222.591L1378.08,220.841L1378.67,220.841L1378.67,218.341L1374.83,218.341L1374.83,220.841L1375.51,220.841Z" style="fill:rgb(200,0,0);fill-rule:nonzero;"/>
                <path d="M1512.75,225.091L1511.13,231.512L1509.53,225.091L1512.75,225.091ZM1505.9,220.841L1509.99,237.507L1512.17,237.507L1516.41,220.841L1517.03,220.841L1517.03,218.341L1513.24,218.341L1513.24,220.841L1513.83,220.841L1513.38,222.591L1508.91,222.591L1508.48,220.841L1509.06,220.841L1509.06,218.341L1505.23,218.341L1505.23,220.841L1505.9,220.841Z" style="fill:rgb(200,0,0);fill-rule:nonzero;"/>
            </g>
        </g>
    </g>
</svg>
