<?xml version="1.0" encoding="UTF-8" standalone="no"?>
<!DOCTYPE svg PUBLIC "-//W3C//DTD SVG 1.1//EN" "http://www.w3.org/Graphics/SVG/1.1/DTD/svg11.dtd">
<svg width="100%" height="100%" viewBox="0 0 150 225" version="1.1" xmlns="http://www.w3.org/2000/svg" xmlns:xlink="http://www.w3.org/1999/xlink" xml:space="preserve" xmlns:serif="http://www.serif.com/" style="fill-rule:evenodd;clip-rule:evenodd;stroke-linejoin:round;stroke-miterlimit:1.41421;">
    <g transform="matrix(1,0,0,1,-1371,-271)">
        <g>
            <g>
                <rect x="0.25" y="1.04" width="1530.71" height="1530.71" style="fill:white;fill-rule:nonzero;"/>
                <path d="M1379.13,507.274C1371.28,507.274 1364.88,500.882 1364.88,493.024L1364.88,274.41C1364.88,266.553 1371.28,260.16 1379.13,260.16L1512.71,260.16C1520.57,260.16 1526.96,266.553 1526.96,274.41L1526.96,493.024C1526.96,500.882 1520.57,507.274 1512.71,507.274L1379.13,507.274Z" style="fill:white;fill-rule:nonzero;"/>
                <path d="M1512.71,259.91L1379.13,259.91C1371.14,259.91 1364.63,266.415 1364.63,274.41L1364.63,493.024C1364.63,501.019 1371.14,507.524 1379.13,507.524L1512.71,507.524C1520.7,507.524 1527.21,501.019 1527.21,493.024L1527.21,274.41C1527.21,266.415 1520.7,259.91 1512.71,259.91ZM1512.71,260.41C1520.44,260.41 1526.71,266.678 1526.71,274.41L1526.71,493.024C1526.71,500.756 1520.44,507.024 1512.71,507.024L1379.13,507.024C1371.4,507.024 1365.13,500.756 1365.13,493.024L1365.13,274.41C1365.13,266.678 1371.4,260.41 1379.13,260.41L1512.71,260.41Z" style="fill-rule:nonzero;"/>
                <path d="M1445.92,402.143C1449.13,396.766 1457.54,387.518 1462.93,383.718C1457.54,379.918 1449.13,370.67 1445.92,365.293C1442.71,370.67 1434.3,379.918 1428.91,383.718C1434.3,387.518 1442.71,396.766 1445.92,402.143Z" style="fill:rgb(200,0,0);fill-rule:nonzero;"/>
                <path d="M1380.72,314.859C1382.06,312.619 1385.56,308.765 1387.81,307.182C1385.56,305.598 1382.06,301.745 1380.72,299.504C1379.39,301.745 1375.88,305.598 1373.63,307.182C1375.88,308.765 1379.39,312.619 1380.72,314.859Z" style="fill:rgb(200,0,0);fill-rule:nonzero;"/>
                <path d="M1380.72,452.575C1379.39,454.816 1375.88,458.669 1373.63,460.253C1375.88,461.836 1379.39,465.69 1380.72,467.931C1382.06,465.69 1385.56,461.836 1387.81,460.253C1385.56,458.669 1382.06,454.816 1380.72,452.575Z" style="fill:rgb(200,0,0);fill-rule:nonzero;"/>
                <path d="M1511.12,452.575C1509.78,454.816 1506.27,458.669 1504.03,460.253C1506.27,461.836 1509.78,465.69 1511.12,467.931C1512.45,465.69 1515.96,461.836 1518.2,460.253C1515.96,458.669 1512.45,454.816 1511.12,452.575Z" style="fill:rgb(200,0,0);fill-rule:nonzero;"/>
                <path d="M1511.12,314.859C1512.45,312.619 1515.96,308.765 1518.2,307.182C1515.96,305.598 1512.45,301.745 1511.12,299.504C1509.78,301.745 1506.27,305.598 1504.03,307.182C1506.27,308.765 1509.78,312.619 1511.12,314.859Z" style="fill:rgb(200,0,0);fill-rule:nonzero;"/>
                <path d="M1379.11,287.45L1380.73,281.028L1382.33,287.45L1379.11,287.45ZM1385.96,291.7L1381.88,275.033L1379.69,275.033L1375.45,291.7L1374.83,291.7L1374.83,294.2L1378.63,294.2L1378.63,291.7L1378.03,291.7L1378.48,289.95L1382.95,289.95L1383.38,291.7L1382.8,291.7L1382.8,294.2L1386.63,294.2L1386.63,291.7L1385.96,291.7Z" style="fill:rgb(200,0,0);fill-rule:nonzero;"/>
                <path d="M1509.5,287.45L1511.13,281.028L1512.72,287.45L1509.5,287.45ZM1516.35,291.7L1512.27,275.033L1510.08,275.033L1505.85,291.7L1505.23,291.7L1505.23,294.2L1509.02,294.2L1509.02,291.7L1508.43,291.7L1508.87,289.95L1513.34,289.95L1513.78,291.7L1513.19,291.7L1513.19,294.2L1517.03,294.2L1517.03,291.7L1516.35,291.7Z" style="fill:rgb(200,0,0);fill-rule:nonzero;"/>
                <path d="M1382.36,480.209L1380.73,486.63L1379.14,480.209L1382.36,480.209ZM1375.51,475.959L1379.59,492.625L1381.78,492.625L1386.01,475.959L1386.63,475.959L1386.63,473.459L1382.84,473.459L1382.84,475.959L1383.43,475.959L1382.99,477.709L1378.52,477.709L1378.08,475.959L1378.67,475.959L1378.67,473.459L1374.83,473.459L1374.83,475.959L1375.51,475.959Z" style="fill:rgb(200,0,0);fill-rule:nonzero;"/>
                <path d="M1512.75,480.209L1511.13,486.63L1509.53,480.209L1512.75,480.209ZM1505.9,475.959L1509.99,492.625L1512.17,492.625L1516.41,475.959L1517.03,475.959L1517.03,473.459L1513.24,473.459L1513.24,475.959L1513.83,475.959L1513.38,477.709L1508.91,477.709L1508.48,475.959L1509.06,475.959L1509.06,473.459L1505.23,473.459L1505.23,475.959L1505.9,475.959Z" style="fill:rgb(200,0,0);fill-rule:nonzero;"/>
            </g>
        </g>
    </g>
</svg>
