<?xml version="1.0" encoding="UTF-8" standalone="no"?>
<!DOCTYPE svg PUBLIC "-//W3C//DTD SVG 1.1//EN" "http://www.w3.org/Graphics/SVG/1.1/DTD/svg11.dtd">
<svg width="100%" height="100%" viewBox="0 0 150 225" version="1.1" xmlns="http://www.w3.org/2000/svg" xmlns:xlink="http://www.w3.org/1999/xlink" xml:space="preserve" xmlns:serif="http://www.serif.com/" style="fill-rule:evenodd;clip-rule:evenodd;stroke-linejoin:round;stroke-miterlimit:1.41421;">
    <g transform="matrix(1,0,0,1,-1201,-16)">
        <g>
            <g>
                <rect x="0.25" y="1.04" width="1530.71" height="1530.71" style="fill:white;fill-rule:nonzero;"/>
                <path d="M1209.05,252.156C1201.2,252.156 1194.8,245.764 1194.8,237.906L1194.8,19.292C1194.8,11.435 1201.2,5.042 1209.05,5.042L1342.63,5.042C1350.49,5.042 1356.88,11.435 1356.88,19.292L1356.88,237.906C1356.88,245.764 1350.49,252.156 1342.63,252.156L1209.05,252.156Z" style="fill:white;fill-rule:nonzero;"/>
                <path d="M1342.63,4.792L1209.05,4.792C1201.06,4.792 1194.55,11.297 1194.55,19.292L1194.55,237.906C1194.55,245.901 1201.06,252.406 1209.05,252.406L1342.63,252.406C1350.62,252.406 1357.13,245.901 1357.13,237.906L1357.13,19.292C1357.13,11.297 1350.62,4.792 1342.63,4.792ZM1342.63,5.292C1350.36,5.292 1356.63,11.56 1356.63,19.292L1356.63,237.906C1356.63,245.638 1350.36,251.906 1342.63,251.906L1209.05,251.906C1201.32,251.906 1195.05,245.638 1195.05,237.906L1195.05,19.292C1195.05,11.56 1201.32,5.292 1209.05,5.292L1342.63,5.292Z" style="fill-rule:nonzero;"/>
            </g>
            <g>
                <path d="M1250.66,34.139C1247.79,31.026 1243.48,27.315 1238.99,25.135C1234.5,27.315 1230.19,31.026 1227.32,34.139C1223.2,38.597 1221.94,42.281 1221.98,46.644C1222.02,50.843 1224.15,54.572 1228.86,55.595C1232.2,56.32 1234.16,55.3 1235.61,54.471C1236.96,53.698 1237.89,52.226 1238.43,51.153C1237.79,54.37 1236.68,59.393 1235.57,61.985C1238.59,61.964 1238.99,61.985 1238.99,61.985C1238.99,61.985 1239.39,61.964 1242.41,61.985C1241.3,59.393 1240.19,54.37 1239.55,51.153C1240.09,52.226 1241.02,53.698 1242.37,54.471C1243.82,55.3 1245.78,56.32 1249.12,55.595C1253.83,54.572 1255.96,50.843 1256,46.644C1256.04,42.281 1254.77,38.597 1250.66,34.139Z" style="fill-rule:nonzero;"/>
                <path d="M1324.36,34.139C1321.49,31.026 1317.18,27.315 1312.69,25.135C1308.2,27.315 1303.89,31.026 1301.02,34.139C1296.91,38.597 1295.64,42.281 1295.68,46.644C1295.72,50.843 1297.85,54.572 1302.56,55.595C1305.9,56.32 1307.86,55.3 1309.31,54.471C1310.66,53.698 1311.59,52.226 1312.13,51.153C1311.49,54.37 1310.38,59.393 1309.27,61.985C1312.29,61.964 1312.69,61.985 1312.69,61.985C1312.69,61.985 1313.09,61.964 1316.11,61.985C1315,59.393 1313.89,54.37 1313.25,51.153C1313.79,52.226 1314.72,53.698 1316.07,54.471C1317.52,55.3 1319.48,56.32 1322.82,55.595C1327.53,54.572 1329.66,50.843 1329.7,46.644C1329.74,42.281 1328.48,38.597 1324.36,34.139Z" style="fill-rule:nonzero;"/>
                <path d="M1287.51,76.659C1284.64,73.546 1280.33,69.835 1275.84,67.655C1271.35,69.835 1267.04,73.546 1264.17,76.659C1260.05,81.117 1258.79,84.801 1258.83,89.164C1258.87,93.363 1261,97.092 1265.71,98.115C1269.05,98.84 1271.01,97.82 1272.46,96.991C1273.81,96.218 1274.74,94.747 1275.28,93.673C1274.64,96.89 1273.53,101.912 1272.42,104.505C1275.44,104.483 1275.84,104.505 1275.84,104.505C1275.84,104.505 1276.24,104.483 1279.26,104.505C1278.15,101.912 1277.04,96.89 1276.4,93.673C1276.94,94.747 1277.87,96.218 1279.22,96.991C1280.67,97.82 1282.63,98.84 1285.97,98.115C1290.68,97.092 1292.81,93.363 1292.85,89.164C1292.89,84.801 1291.63,81.117 1287.51,76.659Z" style="fill-rule:nonzero;"/>
                <path d="M1250.66,119.178C1247.79,116.066 1243.48,112.355 1238.99,110.174C1234.5,112.355 1230.19,116.066 1227.32,119.178C1223.2,123.637 1221.94,127.32 1221.98,131.684C1222.02,135.882 1224.15,139.611 1228.86,140.634C1232.2,141.359 1234.16,140.339 1235.61,139.51C1236.96,138.738 1237.89,137.266 1238.43,136.192C1237.79,139.41 1236.68,144.432 1235.57,147.025C1238.59,147.003 1238.99,147.025 1238.99,147.025C1238.99,147.025 1239.39,147.003 1242.41,147.025C1241.3,144.432 1240.19,139.41 1239.55,136.192C1240.09,137.266 1241.02,138.738 1242.37,139.51C1243.82,140.339 1245.78,141.359 1249.12,140.634C1253.83,139.611 1255.96,135.882 1256,131.684C1256.04,127.32 1254.77,123.637 1250.66,119.178Z" style="fill-rule:nonzero;"/>
                <path d="M1324.36,119.178C1321.49,116.066 1317.18,112.355 1312.69,110.174C1308.2,112.355 1303.89,116.066 1301.02,119.178C1296.91,123.637 1295.64,127.32 1295.68,131.684C1295.72,135.882 1297.85,139.611 1302.56,140.634C1305.9,141.359 1307.86,140.339 1309.31,139.51C1310.66,138.738 1311.59,137.266 1312.13,136.192C1311.49,139.41 1310.38,144.432 1309.27,147.025C1312.29,147.003 1312.69,147.025 1312.69,147.025C1312.69,147.025 1313.09,147.003 1316.11,147.025C1315,144.432 1313.89,139.41 1313.25,136.192C1313.79,137.266 1314.72,138.738 1316.07,139.51C1317.52,140.339 1319.48,141.359 1322.82,140.634C1327.53,139.611 1329.66,135.882 1329.7,131.684C1329.74,127.32 1328.48,123.637 1324.36,119.178Z" style="fill-rule:nonzero;"/>
                <path d="M1264.17,180.541C1267.04,183.653 1271.35,187.364 1275.84,189.545C1280.33,187.364 1284.64,183.653 1287.51,180.541C1291.63,176.082 1292.89,172.399 1292.85,168.035C1292.81,163.837 1290.68,160.108 1285.97,159.085C1282.63,158.36 1280.67,159.38 1279.22,160.209C1277.87,160.981 1276.94,162.453 1276.4,163.527C1277.04,160.31 1278.15,155.287 1279.26,152.694C1276.24,152.716 1275.84,152.694 1275.84,152.694C1275.84,152.694 1275.44,152.716 1272.42,152.694C1273.53,155.287 1274.64,160.31 1275.28,163.527C1274.74,162.453 1273.81,160.981 1272.46,160.209C1271.01,159.38 1269.05,158.36 1265.71,159.085C1261,160.108 1258.87,163.837 1258.83,168.035C1258.79,172.399 1260.05,176.082 1264.17,180.541Z" style="fill-rule:nonzero;"/>
                <path d="M1227.32,223.061C1230.19,226.173 1234.5,229.884 1238.99,232.065C1243.48,229.884 1247.79,226.173 1250.66,223.061C1254.77,218.603 1256.04,214.919 1256,210.555C1255.96,206.357 1253.83,202.628 1249.12,201.605C1245.78,200.88 1243.82,201.9 1242.37,202.729C1241.02,203.501 1240.09,204.973 1239.55,206.047C1240.19,202.83 1241.3,197.807 1242.41,195.214C1239.39,195.236 1238.99,195.214 1238.99,195.214C1238.99,195.214 1238.59,195.236 1235.57,195.214C1236.68,197.807 1237.79,202.83 1238.43,206.047C1237.89,204.973 1236.96,203.501 1235.61,202.729C1234.16,201.9 1232.2,200.88 1228.86,201.605C1224.15,202.628 1222.02,206.357 1221.98,210.555C1221.94,214.919 1223.2,218.603 1227.32,223.061Z" style="fill-rule:nonzero;"/>
                <path d="M1301.02,223.061C1303.89,226.173 1308.2,229.884 1312.69,232.065C1317.18,229.884 1321.49,226.173 1324.36,223.061C1328.48,218.603 1329.74,214.919 1329.7,210.555C1329.66,206.357 1327.53,202.628 1322.82,201.605C1319.48,200.88 1317.52,201.9 1316.07,202.729C1314.72,203.501 1313.79,204.973 1313.25,206.047C1313.89,202.83 1315,197.807 1316.11,195.214C1313.09,195.236 1312.69,195.214 1312.69,195.214C1312.69,195.214 1312.29,195.236 1309.27,195.214C1310.38,197.807 1311.49,202.83 1312.13,206.047C1311.59,204.973 1310.66,203.501 1309.31,202.729C1307.86,201.9 1305.9,200.88 1302.56,201.605C1297.85,202.628 1295.72,206.357 1295.68,210.555C1295.64,214.919 1296.91,218.603 1301.02,223.061Z" style="fill-rule:nonzero;"/>
                <path d="M1215.51,48.138C1214.31,46.841 1212.51,45.295 1210.64,44.386C1208.77,45.295 1206.98,46.841 1205.78,48.138C1204.06,49.996 1203.54,51.531 1203.56,53.349C1203.57,55.099 1204.46,56.652 1206.42,57.079C1207.81,57.381 1208.63,56.956 1209.23,56.61C1209.8,56.288 1210.18,55.675 1210.41,55.228C1210.14,56.568 1209.68,58.661 1209.22,59.742C1210.48,59.733 1210.64,59.742 1210.64,59.742C1210.64,59.742 1210.81,59.733 1212.07,59.742C1211.6,58.661 1211.14,56.568 1210.88,55.228C1211.1,55.675 1211.49,56.288 1212.05,56.61C1212.66,56.956 1213.47,57.381 1214.86,57.079C1216.83,56.652 1217.71,55.099 1217.73,53.349C1217.75,51.531 1217.22,49.996 1215.51,48.138Z" style="fill-rule:nonzero;"/>
                <path d="M1205.78,209.061C1206.98,210.358 1208.77,211.904 1210.64,212.813C1212.51,211.904 1214.31,210.358 1215.51,209.061C1217.22,207.203 1217.75,205.668 1217.73,203.849C1217.71,202.1 1216.83,200.546 1214.86,200.12C1213.47,199.818 1212.66,200.243 1212.05,200.588C1211.49,200.91 1211.1,201.523 1210.88,201.971C1211.14,200.63 1211.6,198.537 1212.07,197.457C1210.81,197.466 1210.64,197.457 1210.64,197.457C1210.64,197.457 1210.48,197.466 1209.22,197.457C1209.68,198.537 1210.14,200.63 1210.41,201.971C1210.18,201.523 1209.8,200.91 1209.23,200.588C1208.63,200.243 1207.81,199.818 1206.42,200.12C1204.46,200.546 1203.57,202.1 1203.56,203.849C1203.54,205.668 1204.06,207.203 1205.78,209.061Z" style="fill-rule:nonzero;"/>
                <path d="M1336.17,209.061C1337.37,210.358 1339.17,211.904 1341.04,212.813C1342.91,211.904 1344.7,210.358 1345.9,209.061C1347.61,207.203 1348.14,205.668 1348.12,203.849C1348.11,202.1 1347.22,200.546 1345.26,200.12C1343.87,199.818 1343.05,200.243 1342.45,200.588C1341.88,200.91 1341.49,201.523 1341.27,201.971C1341.54,200.63 1342,198.537 1342.46,197.457C1341.2,197.466 1341.04,197.457 1341.04,197.457C1341.04,197.457 1340.87,197.466 1339.61,197.457C1340.08,198.537 1340.54,200.63 1340.8,201.971C1340.58,201.523 1340.19,200.91 1339.63,200.588C1339.02,200.243 1338.21,199.818 1336.82,200.12C1334.85,200.546 1333.97,202.1 1333.95,203.849C1333.93,205.668 1334.46,207.203 1336.17,209.061Z" style="fill-rule:nonzero;"/>
                <path d="M1345.9,48.138C1344.7,46.841 1342.91,45.295 1341.04,44.386C1339.17,45.295 1337.37,46.841 1336.17,48.138C1334.46,49.996 1333.93,51.531 1333.95,53.349C1333.97,55.099 1334.85,56.652 1336.82,57.079C1338.21,57.381 1339.02,56.956 1339.63,56.61C1340.19,56.288 1340.58,55.675 1340.8,55.228C1340.54,56.568 1340.08,58.661 1339.61,59.742C1340.87,59.733 1341.04,59.742 1341.04,59.742C1341.04,59.742 1341.2,59.733 1342.46,59.742C1342,58.661 1341.54,56.568 1341.27,55.228C1341.49,55.675 1341.88,56.288 1342.45,56.61C1343.05,56.956 1343.87,57.381 1345.26,57.079C1347.22,56.652 1348.11,55.099 1348.12,53.349C1348.14,51.531 1347.61,49.996 1345.9,48.138Z" style="fill-rule:nonzero;"/>
                <path d="M1210.68,36.666C1208.8,36.666 1207.26,35.138 1207.26,33.26C1207.26,31.382 1208.8,29.854 1210.68,29.854C1212.56,29.854 1214.1,31.382 1214.1,33.26C1214.1,35.138 1212.56,36.666 1210.68,36.666ZM1210.62,22.165C1211.97,22.165 1213.07,23.272 1213.07,24.633C1213.07,25.995 1211.97,27.103 1210.62,27.103C1209.28,27.103 1208.18,25.995 1208.18,24.633C1208.18,23.272 1209.28,22.165 1210.62,22.165ZM1213.91,28.317C1214.92,27.406 1215.57,26.101 1215.57,24.633C1215.57,21.894 1213.35,19.664 1210.62,19.664C1207.9,19.664 1205.68,21.894 1205.68,24.633C1205.68,26.124 1206.35,27.446 1207.38,28.358C1205.8,29.419 1204.76,31.22 1204.76,33.26C1204.76,36.517 1207.42,39.166 1210.68,39.166C1213.94,39.166 1216.6,36.517 1216.6,33.26C1216.6,31.193 1215.53,29.373 1213.91,28.317Z" style="fill-rule:nonzero;"/>
                <path d="M1341.07,36.666C1339.19,36.666 1337.66,35.138 1337.66,33.26C1337.66,31.382 1339.19,29.854 1341.07,29.854C1342.96,29.854 1344.49,31.382 1344.49,33.26C1344.49,35.138 1342.96,36.666 1341.07,36.666ZM1341.02,22.165C1342.36,22.165 1343.46,23.272 1343.46,24.633C1343.46,25.995 1342.36,27.103 1341.02,27.103C1339.67,27.103 1338.57,25.995 1338.57,24.633C1338.57,23.272 1339.67,22.165 1341.02,22.165ZM1344.3,28.317C1345.31,27.406 1345.96,26.101 1345.96,24.633C1345.96,21.894 1343.74,19.664 1341.02,19.664C1338.29,19.664 1336.07,21.894 1336.07,24.633C1336.07,26.124 1336.74,27.446 1337.78,28.358C1336.2,29.419 1335.16,31.22 1335.16,33.26C1335.16,36.517 1337.81,39.166 1341.07,39.166C1344.34,39.166 1346.99,36.517 1346.99,33.26C1346.99,31.193 1345.92,29.373 1344.3,28.317Z" style="fill-rule:nonzero;"/>
                <path d="M1210.68,220.59C1212.56,220.59 1214.1,222.118 1214.1,223.996C1214.1,225.874 1212.56,227.401 1210.68,227.401C1208.8,227.401 1207.26,225.874 1207.26,223.996C1207.26,222.118 1208.8,220.59 1210.68,220.59ZM1210.74,235.091C1209.39,235.091 1208.29,233.983 1208.29,232.623C1208.29,231.261 1209.39,230.153 1210.74,230.153C1212.08,230.153 1213.18,231.261 1213.18,232.623C1213.18,233.983 1212.08,235.091 1210.74,235.091ZM1207.45,228.938C1206.44,229.85 1205.79,231.155 1205.79,232.623C1205.79,235.362 1208.01,237.591 1210.74,237.591C1213.46,237.591 1215.68,235.362 1215.68,232.623C1215.68,231.132 1215.01,229.81 1213.98,228.898C1215.56,227.836 1216.6,226.036 1216.6,223.996C1216.6,220.739 1213.94,218.089 1210.68,218.089C1207.42,218.089 1204.76,220.739 1204.76,223.996C1204.76,226.062 1205.83,227.883 1207.45,228.938Z" style="fill-rule:nonzero;"/>
                <path d="M1341.07,220.59C1342.96,220.59 1344.49,222.118 1344.49,223.996C1344.49,225.874 1342.96,227.401 1341.07,227.401C1339.19,227.401 1337.66,225.874 1337.66,223.996C1337.66,222.118 1339.19,220.59 1341.07,220.59ZM1341.13,235.091C1339.78,235.091 1338.69,233.983 1338.69,232.623C1338.69,231.261 1339.78,230.153 1341.13,230.153C1342.48,230.153 1343.57,231.261 1343.57,232.623C1343.57,233.983 1342.48,235.091 1341.13,235.091ZM1337.84,228.938C1336.84,229.85 1336.19,231.155 1336.19,232.623C1336.19,235.362 1338.41,237.591 1341.13,237.591C1343.86,237.591 1346.07,235.362 1346.07,232.623C1346.07,231.132 1345.41,229.81 1344.37,228.898C1345.95,227.836 1346.99,226.036 1346.99,223.996C1346.99,220.739 1344.34,218.089 1341.07,218.089C1337.81,218.089 1335.16,220.739 1335.16,223.996C1335.16,226.062 1336.23,227.883 1337.84,228.938Z" style="fill-rule:nonzero;"/>
            </g>
        </g>
    </g>
</svg>
