<?xml version="1.0" encoding="UTF-8" standalone="no"?>
<!DOCTYPE svg PUBLIC "-//W3C//DTD SVG 1.1//EN" "http://www.w3.org/Graphics/SVG/1.1/DTD/svg11.dtd">
<svg width="100%" height="100%" viewBox="0 0 150 225" version="1.1" xmlns="http://www.w3.org/2000/svg" xmlns:xlink="http://www.w3.org/1999/xlink" xml:space="preserve" xmlns:serif="http://www.serif.com/" style="fill-rule:evenodd;clip-rule:evenodd;stroke-linejoin:round;stroke-miterlimit:1.41421;">
    <g transform="matrix(1,0,0,1,-521,-16)">
        <g>
            <g>
                <rect x="0.25" y="1.04" width="1530.71" height="1530.71" style="fill:white;fill-rule:nonzero;"/>
                <path d="M528.738,252.156C520.88,252.156 514.487,245.764 514.487,237.906L514.487,19.292C514.487,11.435 520.88,5.042 528.738,5.042L662.313,5.042C670.17,5.042 676.563,11.435 676.563,19.292L676.563,237.906C676.563,245.764 670.17,252.156 662.313,252.156L528.738,252.156Z" style="fill:white;fill-rule:nonzero;"/>
                <path d="M662.313,4.792L528.738,4.792C520.742,4.792 514.237,11.297 514.237,19.292L514.237,237.906C514.237,245.901 520.742,252.406 528.738,252.406L662.313,252.406C670.308,252.406 676.813,245.901 676.813,237.906L676.813,19.292C676.813,11.297 670.308,4.792 662.313,4.792ZM662.313,5.292C670.044,5.292 676.313,11.56 676.313,19.292L676.313,237.906C676.313,245.638 670.044,251.906 662.313,251.906L528.738,251.906C521.005,251.906 514.737,245.638 514.737,237.906L514.737,19.292C514.737,11.56 521.005,5.292 528.738,5.292L662.313,5.292Z" style="fill-rule:nonzero;"/>
            </g>
            <g>
                <path d="M558.675,61.985C561.881,56.608 570.297,47.36 575.683,43.56C570.297,39.76 561.881,30.512 558.675,25.135C555.469,30.512 547.052,39.76 541.667,43.56C547.052,47.36 555.469,56.608 558.675,61.985Z" style="fill:rgb(200,0,0);fill-rule:nonzero;"/>
                <path d="M632.376,61.985C635.583,56.608 643.999,47.36 649.385,43.56C643.999,39.76 635.583,30.512 632.376,25.135C629.17,30.512 620.754,39.76 615.368,43.56C620.754,47.36 629.17,56.608 632.376,61.985Z" style="fill:rgb(200,0,0);fill-rule:nonzero;"/>
                <path d="M595.525,104.504C598.731,99.128 607.148,89.88 612.534,86.08C607.148,82.28 598.731,73.032 595.525,67.655C592.319,73.032 583.903,82.28 578.517,86.08C583.903,89.88 592.319,99.128 595.525,104.504Z" style="fill:rgb(200,0,0);fill-rule:nonzero;"/>
                <path d="M558.675,147.024C561.881,141.647 570.297,132.399 575.683,128.6C570.297,124.8 561.881,115.552 558.675,110.175C555.469,115.552 547.052,124.8 541.667,128.6C547.052,132.399 555.469,141.647 558.675,147.024Z" style="fill:rgb(200,0,0);fill-rule:nonzero;"/>
                <path d="M632.376,147.024C635.583,141.647 643.999,132.399 649.385,128.6C643.999,124.8 635.583,115.552 632.376,110.175C629.17,115.552 620.754,124.8 615.368,128.6C620.754,132.399 629.17,141.647 632.376,147.024Z" style="fill:rgb(200,0,0);fill-rule:nonzero;"/>
                <path d="M595.525,152.695C592.319,158.072 583.903,167.32 578.517,171.12C583.903,174.919 592.319,184.167 595.525,189.544C598.731,184.167 607.148,174.919 612.534,171.12C607.148,167.32 598.731,158.072 595.525,152.695Z" style="fill:rgb(200,0,0);fill-rule:nonzero;"/>
                <path d="M558.675,195.215C555.469,200.592 547.052,209.84 541.667,213.64C547.052,217.439 555.469,226.687 558.675,232.064C561.881,226.687 570.297,217.439 575.683,213.64C570.297,209.84 561.881,200.592 558.675,195.215Z" style="fill:rgb(200,0,0);fill-rule:nonzero;"/>
                <path d="M632.376,195.215C629.17,200.592 620.754,209.84 615.368,213.64C620.754,217.439 629.17,226.687 632.376,232.064C635.583,226.687 643.999,217.439 649.385,213.64C643.999,209.84 635.583,200.592 632.376,195.215Z" style="fill:rgb(200,0,0);fill-rule:nonzero;"/>
                <path d="M530.328,59.741C531.664,57.501 535.171,53.647 537.415,52.064C535.171,50.481 531.664,46.627 530.328,44.386C528.992,46.627 525.485,50.481 523.241,52.064C525.485,53.647 528.992,57.501 530.328,59.741Z" style="fill:rgb(200,0,0);fill-rule:nonzero;"/>
                <path d="M530.328,197.457C528.992,199.698 525.485,203.551 523.241,205.135C525.485,206.718 528.992,210.572 530.328,212.812C531.664,210.572 535.171,206.718 537.415,205.135C535.171,203.551 531.664,199.698 530.328,197.457Z" style="fill:rgb(200,0,0);fill-rule:nonzero;"/>
                <path d="M660.723,197.457C659.387,199.698 655.88,203.551 653.635,205.135C655.88,206.718 659.387,210.572 660.723,212.812C662.059,210.572 665.566,206.718 667.81,205.135C665.566,203.551 662.059,199.698 660.723,197.457Z" style="fill:rgb(200,0,0);fill-rule:nonzero;"/>
                <path d="M660.723,59.741C662.059,57.501 665.566,53.647 667.81,52.064C665.566,50.481 662.059,46.627 660.723,44.386C659.387,46.627 655.88,50.481 653.635,52.064C655.88,53.647 659.387,57.501 660.723,59.741Z" style="fill:rgb(200,0,0);fill-rule:nonzero;"/>
                <path d="M530.366,36.666C528.481,36.666 526.949,35.138 526.949,33.26C526.949,31.382 528.481,29.854 530.366,29.854C532.25,29.854 533.783,31.382 533.783,33.26C533.783,35.138 532.25,36.666 530.366,36.666ZM530.309,22.165C531.655,22.165 532.751,23.272 532.751,24.633C532.751,25.995 531.655,27.103 530.309,27.103C528.962,27.103 527.866,25.995 527.866,24.633C527.866,23.272 528.962,22.165 530.309,22.165ZM533.596,28.317C534.604,27.406 535.251,26.101 535.251,24.633C535.251,21.894 533.034,19.664 530.309,19.664C527.583,19.664 525.366,21.894 525.366,24.633C525.366,26.124 526.034,27.446 527.07,28.358C525.49,29.419 524.449,31.22 524.449,33.26C524.449,36.517 527.104,39.166 530.366,39.166C533.629,39.166 536.283,36.517 536.283,33.26C536.283,31.193 535.211,29.373 533.596,28.317Z" style="fill:rgb(200,0,0);fill-rule:nonzero;"/>
                <path d="M660.76,36.666C658.875,36.666 657.343,35.138 657.343,33.26C657.343,31.382 658.875,29.854 660.76,29.854C662.644,29.854 664.177,31.382 664.177,33.26C664.177,35.138 662.644,36.666 660.76,36.666ZM660.702,22.165C662.049,22.165 663.145,23.272 663.145,24.633C663.145,25.995 662.049,27.103 660.702,27.103C659.355,27.103 658.26,25.995 658.26,24.633C658.26,23.272 659.355,22.165 660.702,22.165ZM663.989,28.317C664.997,27.406 665.645,26.101 665.645,24.633C665.645,21.894 663.428,19.664 660.702,19.664C657.977,19.664 655.76,21.894 655.76,24.633C655.76,26.124 656.428,27.446 657.464,28.358C655.884,29.419 654.843,31.22 654.843,33.26C654.843,36.517 657.497,39.166 660.76,39.166C664.022,39.166 666.677,36.517 666.677,33.26C666.677,31.193 665.604,29.373 663.989,28.317Z" style="fill:rgb(200,0,0);fill-rule:nonzero;"/>
                <path d="M530.366,220.59C532.25,220.59 533.783,222.118 533.783,223.996C533.783,225.874 532.25,227.401 530.366,227.401C528.481,227.401 526.949,225.874 526.949,223.996C526.949,222.118 528.481,220.59 530.366,220.59ZM530.423,235.091C529.076,235.091 527.98,233.983 527.98,232.623C527.98,231.261 529.076,230.153 530.423,230.153C531.771,230.153 532.866,231.261 532.866,232.623C532.866,233.983 531.771,235.091 530.423,235.091ZM527.137,228.938C526.128,229.85 525.48,231.155 525.48,232.623C525.48,235.362 527.698,237.591 530.423,237.591C533.148,237.591 535.366,235.362 535.366,232.623C535.366,231.132 534.697,229.81 533.662,228.898C535.241,227.836 536.283,226.036 536.283,223.996C536.283,220.739 533.629,218.089 530.366,218.089C527.104,218.089 524.449,220.739 524.449,223.996C524.449,226.062 525.521,227.883 527.137,228.938Z" style="fill:rgb(200,0,0);fill-rule:nonzero;"/>
                <path d="M660.76,220.59C662.644,220.59 664.177,222.118 664.177,223.996C664.177,225.874 662.644,227.401 660.76,227.401C658.875,227.401 657.343,225.874 657.343,223.996C657.343,222.118 658.875,220.59 660.76,220.59ZM660.816,235.091C659.47,235.091 658.374,233.983 658.374,232.623C658.374,231.261 659.47,230.153 660.816,230.153C662.164,230.153 663.26,231.261 663.26,232.623C663.26,233.983 662.164,235.091 660.816,235.091ZM657.53,228.938C656.521,229.85 655.874,231.155 655.874,232.623C655.874,235.362 658.092,237.591 660.816,237.591C663.542,237.591 665.76,235.362 665.76,232.623C665.76,231.132 665.091,229.81 664.056,228.898C665.635,227.836 666.677,226.036 666.677,223.996C666.677,220.739 664.022,218.089 660.76,218.089C657.497,218.089 654.843,220.739 654.843,223.996C654.843,226.062 655.914,227.883 657.53,228.938Z" style="fill:rgb(200,0,0);fill-rule:nonzero;"/>
            </g>
        </g>
    </g>
</svg>
