<?xml version="1.0" encoding="UTF-8" standalone="no"?>
<!DOCTYPE svg PUBLIC "-//W3C//DTD SVG 1.1//EN" "http://www.w3.org/Graphics/SVG/1.1/DTD/svg11.dtd">
<svg width="100%" height="100%" viewBox="0 0 150 225" version="1.1" xmlns="http://www.w3.org/2000/svg" xmlns:xlink="http://www.w3.org/1999/xlink" xml:space="preserve" xmlns:serif="http://www.serif.com/" style="fill-rule:evenodd;clip-rule:evenodd;stroke-linejoin:round;stroke-miterlimit:1.41421;">
    <g transform="matrix(1,0,0,1,-861,-16)">
        <g>
            <g>
                <rect x="0.25" y="1.04" width="1530.71" height="1530.71" style="fill:white;fill-rule:nonzero;"/>
                <path d="M868.896,252.156C861.038,252.156 854.646,245.764 854.646,237.906L854.646,19.292C854.646,11.435 861.038,5.042 868.896,5.042L1002.47,5.042C1010.33,5.042 1016.72,11.435 1016.72,19.292L1016.72,237.906C1016.72,245.764 1010.33,252.156 1002.47,252.156L868.896,252.156Z" style="fill:white;fill-rule:nonzero;"/>
                <path d="M1002.47,4.792L868.896,4.792C860.9,4.792 854.396,11.297 854.396,19.292L854.396,237.906C854.396,245.901 860.9,252.406 868.896,252.406L1002.47,252.406C1010.47,252.406 1016.97,245.901 1016.97,237.906L1016.97,19.292C1016.97,11.297 1010.47,4.792 1002.47,4.792ZM1002.47,5.292C1010.2,5.292 1016.47,11.56 1016.47,19.292L1016.47,237.906C1016.47,245.638 1010.2,251.906 1002.47,251.906L868.896,251.906C861.163,251.906 854.896,245.638 854.896,237.906L854.896,19.292C854.896,11.56 861.163,5.292 868.896,5.292L1002.47,5.292Z" style="fill-rule:nonzero;"/>
            </g>
            <g>
                <path d="M909.352,39.436C907.201,39.016 904.258,40.682 901.864,42.438C904.075,40.029 906.682,36.603 906.682,33.833C906.682,29.03 903.167,25.135 898.832,25.135C894.497,25.135 890.982,29.03 890.982,33.833C890.982,36.604 893.59,40.03 895.8,42.439C893.407,40.682 890.463,39.017 888.313,39.436C884.043,40.271 881.192,44.782 881.945,49.513C882.697,54.244 886.77,57.404 891.039,56.569C893.627,56.063 896.364,52.282 898.118,49.382C897.462,53.391 896.44,58.987 895.415,61.985C898.435,61.958 898.832,61.985 898.832,61.985C898.832,61.985 899.229,61.958 902.25,61.985C901.224,58.987 900.202,53.391 899.546,49.382C901.3,52.282 904.037,56.063 906.626,56.569C910.895,57.404 914.967,54.244 915.719,49.513C916.472,44.782 913.621,40.271 909.352,39.436Z" style="fill-rule:nonzero;"/>
                <path d="M983.053,39.436C980.902,39.016 977.959,40.682 975.565,42.438C977.776,40.029 980.383,36.603 980.383,33.833C980.383,29.03 976.868,25.135 972.533,25.135C968.198,25.135 964.683,29.03 964.683,33.833C964.683,36.604 967.291,40.03 969.501,42.439C967.108,40.682 964.164,39.017 962.014,39.436C957.744,40.271 954.893,44.782 955.646,49.513C956.398,54.244 960.471,57.404 964.74,56.569C967.329,56.063 970.065,52.282 971.819,49.382C971.164,53.391 970.141,58.987 969.116,61.985C972.136,61.958 972.533,61.985 972.533,61.985C972.533,61.985 972.93,61.958 975.951,61.985C974.925,58.987 973.903,53.391 973.247,49.382C975.001,52.282 977.738,56.063 980.327,56.569C984.596,57.404 988.668,54.244 989.42,49.513C990.173,44.782 987.322,40.271 983.053,39.436Z" style="fill-rule:nonzero;"/>
                <path d="M946.202,81.956C944.052,81.536 941.108,83.202 938.715,84.958C940.925,82.549 943.533,79.123 943.533,76.353C943.533,71.55 940.017,67.655 935.683,67.655C931.347,67.655 927.833,71.55 927.833,76.353C927.833,79.124 930.44,82.55 932.651,84.959C930.257,83.202 927.313,81.537 925.163,81.956C920.894,82.791 918.042,87.302 918.795,92.033C919.548,96.764 923.62,99.924 927.889,99.089C930.478,98.583 933.214,94.802 934.969,91.902C934.313,95.911 933.291,101.507 932.265,104.505C935.285,104.478 935.683,104.505 935.683,104.505C935.683,104.505 936.079,104.478 939.1,104.505C938.075,101.507 937.052,95.911 936.396,91.902C938.151,94.802 940.887,98.583 943.477,99.089C947.745,99.924 951.817,96.764 952.57,92.033C953.323,87.302 950.472,82.791 946.202,81.956Z" style="fill-rule:nonzero;"/>
                <path d="M909.352,124.476C907.201,124.056 904.258,125.722 901.864,127.478C904.075,125.069 906.682,121.643 906.682,118.873C906.682,114.069 903.167,110.174 898.832,110.174C894.497,110.174 890.982,114.069 890.982,118.873C890.982,121.644 893.59,125.069 895.8,127.478C893.407,125.722 890.463,124.056 888.313,124.476C884.043,125.311 881.192,129.822 881.945,134.553C882.697,139.284 886.77,142.443 891.039,141.609C893.627,141.103 896.364,137.322 898.118,134.422C897.462,138.431 896.44,144.027 895.415,147.025C898.435,146.998 898.832,147.025 898.832,147.025C898.832,147.025 899.229,146.998 902.25,147.025C901.224,144.027 900.202,138.431 899.546,134.422C901.3,137.322 904.037,141.103 906.626,141.609C910.895,142.443 914.967,139.284 915.719,134.553C916.472,129.822 913.621,125.311 909.352,124.476Z" style="fill-rule:nonzero;"/>
                <path d="M983.053,124.476C980.902,124.056 977.959,125.722 975.565,127.478C977.776,125.069 980.383,121.643 980.383,118.873C980.383,114.069 976.868,110.174 972.533,110.174C968.198,110.174 964.683,114.069 964.683,118.873C964.683,121.644 967.291,125.069 969.501,127.478C967.108,125.722 964.164,124.056 962.014,124.476C957.744,125.311 954.893,129.822 955.646,134.553C956.398,139.284 960.471,142.443 964.74,141.609C967.329,141.103 970.065,137.322 971.819,134.422C971.164,138.431 970.141,144.027 969.116,147.025C972.136,146.998 972.533,147.025 972.533,147.025C972.533,147.025 972.93,146.998 975.951,147.025C974.925,144.027 973.903,138.431 973.247,134.422C975.001,137.322 977.738,141.103 980.327,141.609C984.596,142.443 988.668,139.284 989.42,134.553C990.173,129.822 987.322,125.311 983.053,124.476Z" style="fill-rule:nonzero;"/>
                <path d="M925.163,175.243C927.313,175.664 930.257,173.998 932.65,172.241C930.44,174.65 927.833,178.076 927.833,180.846C927.833,185.65 931.348,189.545 935.683,189.545C940.018,189.545 943.533,185.65 943.533,180.846C943.533,178.076 940.925,174.65 938.714,172.241C941.108,173.998 944.052,175.663 946.202,175.243C950.472,174.409 953.323,169.897 952.57,165.166C951.817,160.436 947.745,157.276 943.476,158.11C940.887,158.616 938.151,162.397 936.396,165.297C937.052,161.289 938.075,155.692 939.1,152.694C936.08,152.721 935.683,152.694 935.683,152.694C935.683,152.694 935.286,152.721 932.265,152.694C933.291,155.692 934.313,161.289 934.969,165.297C933.214,162.397 930.478,158.616 927.889,158.11C923.62,157.276 919.548,160.436 918.795,165.166C918.042,169.897 920.894,174.409 925.163,175.243Z" style="fill-rule:nonzero;"/>
                <path d="M888.313,217.763C890.463,218.184 893.406,216.518 895.8,214.761C893.589,217.17 890.982,220.596 890.982,223.366C890.982,228.17 894.498,232.065 898.832,232.065C903.167,232.065 906.682,228.17 906.682,223.366C906.682,220.596 904.074,217.17 901.864,214.761C904.257,216.518 907.201,218.183 909.352,217.763C913.621,216.929 916.472,212.417 915.719,207.686C914.967,202.956 910.895,199.796 906.625,200.63C904.037,201.136 901.3,204.917 899.546,207.817C900.202,203.809 901.224,198.212 902.25,195.214C899.229,195.241 898.832,195.214 898.832,195.214C898.832,195.214 898.436,195.241 895.415,195.214C896.44,198.212 897.462,203.809 898.118,207.817C896.364,204.917 893.627,201.136 891.038,200.63C886.77,199.796 882.697,202.956 881.945,207.686C881.192,212.417 884.043,216.929 888.313,217.763Z" style="fill-rule:nonzero;"/>
                <path d="M962.014,217.763C964.164,218.184 967.107,216.518 969.501,214.761C967.291,217.17 964.683,220.596 964.683,223.366C964.683,228.17 968.199,232.065 972.533,232.065C976.869,232.065 980.383,228.17 980.383,223.366C980.383,220.596 977.775,217.17 975.565,214.761C977.958,216.518 980.902,218.183 983.053,217.763C987.322,216.929 990.173,212.417 989.42,207.686C988.668,202.956 984.596,199.796 980.327,200.63C977.738,201.136 975.001,204.917 973.247,207.817C973.903,203.809 974.925,198.212 975.951,195.214C972.931,195.241 972.533,195.214 972.533,195.214C972.533,195.214 972.137,195.241 969.116,195.214C970.141,198.212 971.164,203.809 971.819,207.817C970.065,204.917 967.329,201.136 964.739,200.63C960.471,199.796 956.398,202.956 955.646,207.686C954.893,212.417 957.744,216.929 962.014,217.763Z" style="fill-rule:nonzero;"/>
                <path d="M874.869,50.346C873.973,50.17 872.746,50.865 871.749,51.597C872.67,50.593 873.756,49.165 873.756,48.011C873.756,46.009 872.292,44.386 870.485,44.386C868.679,44.386 867.214,46.009 867.214,48.011C867.214,49.165 868.301,50.593 869.222,51.597C868.225,50.865 866.998,50.171 866.102,50.346C864.323,50.693 863.135,52.573 863.448,54.545C863.762,56.516 865.459,57.833 867.238,57.485C868.317,57.274 869.457,55.698 870.188,54.49C869.915,56.16 869.489,58.492 869.061,59.742C870.32,59.731 870.485,59.742 870.485,59.742C870.485,59.742 870.651,59.731 871.909,59.742C871.482,58.492 871.056,56.16 870.783,54.49C871.514,55.698 872.654,57.274 873.733,57.485C875.512,57.833 877.209,56.516 877.522,54.545C877.836,52.573 876.648,50.693 874.869,50.346Z" style="fill-rule:nonzero;"/>
                <path d="M866.102,206.853C866.998,207.028 868.224,206.334 869.222,205.602C868.301,206.606 867.214,208.034 867.214,209.188C867.214,211.189 868.679,212.813 870.485,212.813C872.292,212.813 873.756,211.189 873.756,209.188C873.756,208.033 872.67,206.606 871.749,205.602C872.746,206.334 873.973,207.028 874.869,206.853C876.648,206.505 877.836,204.625 877.522,202.654C877.209,200.683 875.512,199.366 873.733,199.714C872.654,199.925 871.514,201.5 870.783,202.709C871.056,201.038 871.482,198.706 871.909,197.457C870.651,197.468 870.485,197.457 870.485,197.457C870.485,197.457 870.32,197.468 869.061,197.457C869.489,198.706 869.915,201.038 870.188,202.709C869.457,201.5 868.317,199.925 867.238,199.714C865.459,199.366 863.762,200.683 863.448,202.654C863.135,204.625 864.323,206.505 866.102,206.853Z" style="fill-rule:nonzero;"/>
                <path d="M996.496,206.853C997.392,207.028 998.619,206.334 999.616,205.602C998.695,206.606 997.609,208.034 997.609,209.188C997.609,211.189 999.074,212.813 1000.88,212.813C1002.69,212.813 1004.15,211.189 1004.15,209.188C1004.15,208.033 1003.06,206.606 1002.14,205.602C1003.14,206.334 1004.37,207.028 1005.26,206.853C1007.04,206.505 1008.23,204.625 1007.92,202.654C1007.6,200.683 1005.91,199.366 1004.13,199.714C1003.05,199.925 1001.91,201.5 1001.18,202.709C1001.45,201.038 1001.88,198.706 1002.3,197.457C1001.05,197.468 1000.88,197.457 1000.88,197.457C1000.88,197.457 1000.71,197.468 999.456,197.457C999.883,198.706 1000.31,201.038 1000.58,202.709C999.851,201.5 998.711,199.925 997.632,199.714C995.853,199.366 994.156,200.683 993.843,202.654C993.529,204.625 994.717,206.505 996.496,206.853Z" style="fill-rule:nonzero;"/>
                <path d="M1005.26,50.346C1004.37,50.17 1003.14,50.865 1002.14,51.597C1003.06,50.593 1004.15,49.165 1004.15,48.011C1004.15,46.009 1002.69,44.386 1000.88,44.386C999.073,44.386 997.609,46.009 997.609,48.011C997.609,49.165 998.695,50.593 999.617,51.597C998.619,50.865 997.392,50.171 996.496,50.346C994.717,50.693 993.529,52.573 993.843,54.545C994.156,56.516 995.853,57.833 997.632,57.485C998.711,57.274 999.851,55.698 1000.58,54.49C1000.31,56.16 999.883,58.492 999.456,59.742C1000.71,59.731 1000.88,59.742 1000.88,59.742C1000.88,59.742 1001.05,59.731 1002.3,59.742C1001.88,58.492 1001.45,56.16 1001.18,54.49C1001.91,55.698 1003.05,57.274 1004.13,57.485C1005.91,57.833 1007.6,56.516 1007.92,54.545C1008.23,52.573 1007.04,50.693 1005.26,50.346Z" style="fill-rule:nonzero;"/>
                <path d="M870.523,36.666C868.639,36.666 867.106,35.138 867.106,33.26C867.106,31.382 868.639,29.854 870.523,29.854C872.407,29.854 873.94,31.382 873.94,33.26C873.94,35.138 872.407,36.666 870.523,36.666ZM870.466,22.165C871.813,22.165 872.908,23.272 872.908,24.633C872.908,25.995 871.813,27.103 870.466,27.103C869.119,27.103 868.023,25.995 868.023,24.633C868.023,23.272 869.119,22.165 870.466,22.165ZM873.753,28.317C874.761,27.406 875.408,26.101 875.408,24.633C875.408,21.894 873.191,19.664 870.466,19.664C867.74,19.664 865.523,21.894 865.523,24.633C865.523,26.124 866.191,27.446 867.228,28.358C865.647,29.419 864.606,31.22 864.606,33.26C864.606,36.517 867.261,39.166 870.523,39.166C873.786,39.166 876.44,36.517 876.44,33.26C876.44,31.193 875.368,29.373 873.753,28.317Z" style="fill-rule:nonzero;"/>
                <path d="M1000.92,36.666C999.032,36.666 997.5,35.138 997.5,33.26C997.5,31.382 999.032,29.854 1000.92,29.854C1002.8,29.854 1004.33,31.382 1004.33,33.26C1004.33,35.138 1002.8,36.666 1000.92,36.666ZM1000.86,22.165C1002.21,22.165 1003.3,23.272 1003.3,24.633C1003.3,25.995 1002.21,27.103 1000.86,27.103C999.513,27.103 998.417,25.995 998.417,24.633C998.417,23.272 999.513,22.165 1000.86,22.165ZM1004.15,28.317C1005.15,27.406 1005.8,26.101 1005.8,24.633C1005.8,21.894 1003.58,19.664 1000.86,19.664C998.134,19.664 995.917,21.894 995.917,24.633C995.917,26.124 996.585,27.446 997.621,28.358C996.041,29.419 995,31.22 995,33.26C995,36.517 997.654,39.166 1000.92,39.166C1004.18,39.166 1006.83,36.517 1006.83,33.26C1006.83,31.193 1005.76,29.373 1004.15,28.317Z" style="fill-rule:nonzero;"/>
                <path d="M870.523,220.59C872.407,220.59 873.94,222.118 873.94,223.996C873.94,225.874 872.407,227.401 870.523,227.401C868.639,227.401 867.106,225.874 867.106,223.996C867.106,222.118 868.639,220.59 870.523,220.59ZM870.58,235.091C869.233,235.091 868.138,233.983 868.138,232.623C868.138,231.261 869.233,230.153 870.58,230.153C871.928,230.153 873.023,231.261 873.023,232.623C873.023,233.983 871.928,235.091 870.58,235.091ZM867.294,228.938C866.285,229.85 865.638,231.155 865.638,232.623C865.638,235.362 867.855,237.591 870.58,237.591C873.306,237.591 875.523,235.362 875.523,232.623C875.523,231.132 874.854,229.81 873.819,228.898C875.398,227.836 876.44,226.036 876.44,223.996C876.44,220.739 873.786,218.089 870.523,218.089C867.261,218.089 864.606,220.739 864.606,223.996C864.606,226.062 865.678,227.883 867.294,228.938Z" style="fill-rule:nonzero;"/>
                <path d="M1000.92,220.59C1002.8,220.59 1004.33,222.118 1004.33,223.996C1004.33,225.874 1002.8,227.401 1000.92,227.401C999.032,227.401 997.5,225.874 997.5,223.996C997.5,222.118 999.032,220.59 1000.92,220.59ZM1000.97,235.091C999.627,235.091 998.531,233.983 998.531,232.623C998.531,231.261 999.627,230.153 1000.97,230.153C1002.32,230.153 1003.42,231.261 1003.42,232.623C1003.42,233.983 1002.32,235.091 1000.97,235.091ZM997.688,228.938C996.679,229.85 996.031,231.155 996.031,232.623C996.031,235.362 998.249,237.591 1000.97,237.591C1003.7,237.591 1005.92,235.362 1005.92,232.623C1005.92,231.132 1005.25,229.81 1004.21,228.898C1005.79,227.836 1006.83,226.036 1006.83,223.996C1006.83,220.739 1004.18,218.089 1000.92,218.089C997.654,218.089 995,220.739 995,223.996C995,226.062 996.071,227.883 997.688,228.938Z" style="fill-rule:nonzero;"/>
            </g>
        </g>
    </g>
</svg>
