<?xml version="1.0" encoding="UTF-8" standalone="no"?><!DOCTYPE svg PUBLIC "-//W3C//DTD SVG 1.1//EN" "http://www.w3.org/Graphics/SVG/1.1/DTD/svg11.dtd"><svg width="100%" height="100%" viewBox="0 0 150 225" version="1.1" xmlns="http://www.w3.org/2000/svg" xmlns:xlink="http://www.w3.org/1999/xlink" xml:space="preserve" xmlns:serif="http://www.serif.com/" style="fill-rule:evenodd;clip-rule:evenodd;stroke-linejoin:round;stroke-miterlimit:1.41421;"><g><g><path d="M7.502,236.51c-7.858,0 -14.251,-6.39 -14.251,-14.25l0,-218.614c0,-7.857 6.393,-14.25 14.251,-14.25l133.575,0c7.857,0 14.25,6.393 14.25,14.25l0,218.614c0,7.86 -6.393,14.25 -14.25,14.25l-133.575,0Z" style="fill:#fff;fill-rule:nonzero;"/><path d="M141.077,-10.854l-133.575,0c-7.996,0 -14.501,6.505 -14.501,14.5l0,218.614c0,8 6.505,14.5 14.501,14.5l133.575,0c7.995,0 14.5,-6.5 14.5,-14.5l0,-218.614c0,-7.995 -6.505,-14.5 -14.5,-14.5Zm0,0.5c7.732,0 14,6.268 14,14l0,218.614c0,7.73 -6.268,14 -14,14l-133.575,0c-7.732,0 -14.001,-6.27 -14.001,-14l0,-218.614c0,-7.732 6.269,-14 14.001,-14l133.575,0Z" style="fill-rule:nonzero;"/></g><g><path d="M37.425,46.339c-0.643,-1.357 -1.459,-2.381 -2.848,-3.894c-1.643,-1.79 -7.534,-6.952 -9.7,-9.465c-1.575,-1.825 -4.15,-5.12 -4.412,-11.028c-0.101,-2.285 -0.32,-7.871 5.029,-11.358c2.289,-1.493 6.22,-1.658 8.771,0.658c2.782,2.526 3.166,5.442 3.166,5.442c0,0 1.095,-3.961 3.378,-5.524c1.45,-0.995 3.412,-2.217 6.753,-1.348c4.714,1.227 6.843,5.697 6.883,10.73c0.041,5.232 -0.708,8.703 -5.345,13.457c-3.255,3.338 -6.658,6.082 -9.593,9.486c-1.114,1.291 -1.478,1.58 -2.082,2.844Z" style="fill:#c80000;fill-rule:nonzero;"/><path d="M111.125,46.339c-0.642,-1.357 -1.458,-2.381 -2.847,-3.894c-1.644,-1.79 -7.534,-6.952 -9.701,-9.465c-1.574,-1.825 -4.149,-5.12 -4.411,-11.028c-0.101,-2.285 -0.321,-7.871 5.028,-11.358c2.29,-1.493 6.221,-1.658 8.772,0.658c2.782,2.526 3.166,5.442 3.166,5.442c0,0 1.095,-3.961 3.377,-5.524c1.451,-0.995 3.413,-2.217 6.753,-1.348c4.715,1.227 6.844,5.697 6.884,10.73c0.041,5.232 -0.708,8.703 -5.345,13.457c-3.256,3.338 -6.658,6.082 -9.593,9.486c-1.114,1.291 -1.479,1.58 -2.083,2.844Z" style="fill:#c80000;fill-rule:nonzero;"/><path d="M74.275,131.379c-0.643,-1.357 -1.459,-2.381 -2.848,-3.894c-1.643,-1.79 -7.533,-6.952 -9.7,-9.465c-1.575,-1.825 -4.15,-5.12 -4.412,-11.028c-0.101,-2.285 -0.32,-7.871 5.029,-11.358c2.289,-1.493 6.22,-1.657 8.771,0.658c2.782,2.526 3.166,5.442 3.166,5.442c0,0 1.095,-3.961 3.378,-5.524c1.45,-0.995 3.412,-2.217 6.753,-1.348c4.714,1.227 6.844,5.697 6.884,10.73c0.041,5.232 -0.709,8.703 -5.346,13.457c-3.255,3.338 -6.658,6.082 -9.593,9.486c-1.114,1.291 -1.478,1.58 -2.082,2.844Z" style="fill:#c80000;fill-rule:nonzero;"/><path d="M37.453,179.569c0.643,1.357 1.459,2.381 2.848,3.894c1.643,1.79 7.534,6.952 9.701,9.465c1.574,1.825 4.149,5.12 4.411,11.029c0.101,2.284 0.32,7.871 -5.029,11.357c-2.289,1.494 -6.22,1.658 -8.771,-0.658c-2.782,-2.526 -3.166,-5.442 -3.166,-5.442c0,0 -1.095,3.961 -3.378,5.524c-1.45,0.995 -3.412,2.217 -6.753,1.348c-4.714,-1.227 -6.843,-5.696 -6.883,-10.73c-0.041,-5.232 0.708,-8.703 5.345,-13.457c3.255,-3.338 6.658,-6.082 9.593,-9.486c1.114,-1.29 1.478,-1.58 2.082,-2.844Z" style="fill:#c80000;fill-rule:nonzero;"/><path d="M111.154,179.569c0.642,1.357 1.459,2.381 2.847,3.894c1.644,1.79 7.534,6.952 9.701,9.465c1.574,1.825 4.15,5.12 4.411,11.029c0.101,2.284 0.321,7.871 -5.028,11.357c-2.29,1.494 -6.22,1.658 -8.772,-0.658c-2.781,-2.526 -3.166,-5.442 -3.166,-5.442c0,0 -1.094,3.961 -3.377,5.524c-1.451,0.995 -3.413,2.217 -6.753,1.348c-4.714,-1.227 -6.844,-5.696 -6.884,-10.73c-0.041,-5.232 0.709,-8.703 5.346,-13.457c3.255,-3.338 6.658,-6.082 9.593,-9.486c1.114,-1.29 1.478,-1.58 2.082,-2.844Z" style="fill:#c80000;fill-rule:nonzero;"/><path d="M9.086,44.096c-0.268,-0.566 -0.608,-0.992 -1.187,-1.623c-0.685,-0.746 -3.139,-2.897 -4.042,-3.944c-0.656,-0.76 -1.729,-2.134 -1.838,-4.596c-0.042,-0.951 -0.134,-3.28 2.095,-4.732c0.954,-0.623 2.592,-0.691 3.655,0.274c1.159,1.053 1.32,2.267 1.32,2.267c0,0 0.456,-1.65 1.407,-2.301c0.604,-0.415 1.422,-0.924 2.814,-0.562c1.964,0.511 2.852,2.374 2.868,4.471c0.017,2.18 -0.295,3.627 -2.227,5.608c-1.356,1.391 -2.774,2.534 -3.997,3.953c-0.465,0.537 -0.616,0.658 -0.868,1.185Z" style="fill:#c80000;fill-rule:nonzero;"/><path d="M9.098,181.811c0.267,0.566 0.608,0.992 1.186,1.623c0.685,0.746 3.14,2.897 4.043,3.944c0.656,0.761 1.729,2.134 1.838,4.596c0.042,0.952 0.133,3.28 -2.096,4.733c-0.954,0.622 -2.592,0.69 -3.655,-0.275c-1.159,-1.052 -1.319,-2.267 -1.319,-2.267c0,0 -0.456,1.65 -1.407,2.301c-0.605,0.415 -1.422,0.924 -2.814,0.562c-1.965,-0.511 -2.852,-2.374 -2.869,-4.471c-0.017,-2.18 0.296,-3.627 2.228,-5.607c1.356,-1.392 2.774,-2.535 3.997,-3.953c0.464,-0.538 0.616,-0.659 0.868,-1.186Z" style="fill:#c80000;fill-rule:nonzero;"/><path d="M139.492,181.811c0.268,0.566 0.608,0.992 1.187,1.623c0.685,0.746 3.139,2.897 4.042,3.944c0.656,0.761 1.729,2.134 1.838,4.596c0.042,0.952 0.134,3.28 -2.095,4.733c-0.954,0.622 -2.592,0.69 -3.655,-0.275c-1.159,-1.052 -1.319,-2.267 -1.319,-2.267c0,0 -0.457,1.65 -1.408,2.301c-0.604,0.415 -1.422,0.924 -2.814,0.562c-1.964,-0.511 -2.852,-2.374 -2.868,-4.471c-0.017,-2.18 0.295,-3.627 2.227,-5.607c1.357,-1.392 2.775,-2.535 3.998,-3.953c0.464,-0.538 0.616,-0.659 0.867,-1.186Z" style="fill:#c80000;fill-rule:nonzero;"/><path d="M139.48,44.096c-0.267,-0.566 -0.608,-0.992 -1.186,-1.623c-0.685,-0.746 -3.139,-2.897 -4.042,-3.944c-0.656,-0.76 -1.73,-2.134 -1.839,-4.596c-0.042,-0.951 -0.133,-3.28 2.096,-4.732c0.954,-0.623 2.592,-0.691 3.655,0.274c1.159,1.053 1.319,2.267 1.319,2.267c0,0 0.456,-1.65 1.407,-2.301c0.605,-0.415 1.422,-0.924 2.814,-0.562c1.965,0.511 2.852,2.374 2.869,4.471c0.017,2.18 -0.295,3.627 -2.227,5.608c-1.357,1.391 -2.775,2.534 -3.998,3.953c-0.464,0.537 -0.616,0.658 -0.868,1.185Z" style="fill:#c80000;fill-rule:nonzero;"/><path d="M9.01,23.478c-1.614,0 -3.101,-0.559 -4.089,-1.538c-0.848,-0.84 -1.296,-1.929 -1.296,-3.15l2.5,0c0,0.546 0.187,1.009 0.556,1.375c0.53,0.525 1.413,0.836 2.37,0.813c1.438,-0.013 2.984,-1.27 3.011,-4.76c0.012,-1.516 -0.337,-2.676 -1.009,-3.353c-0.625,-0.63 -1.428,-0.762 -1.991,-0.762c-2.018,0 -2.789,0.068 -3.677,0.499l-1.795,0.869l0,-9.484l9.754,-0.001l0,2.5l-7.254,0.001l0,3.282c0.815,-0.143 1.733,-0.166 2.972,-0.166c1.467,0 2.805,0.533 3.766,1.501c1.168,1.177 1.752,2.905 1.734,5.133c-0.039,4.968 -2.785,7.216 -5.489,7.241c-0.021,0 -0.042,0 -0.063,0Z" style="fill:#c80000;fill-rule:nonzero;"/><path d="M139.404,23.478c-1.614,0 -3.101,-0.559 -4.089,-1.538c-0.848,-0.84 -1.296,-1.929 -1.296,-3.15l2.5,0c0,0.546 0.187,1.009 0.556,1.375c0.53,0.525 1.423,0.836 2.37,0.813c1.438,-0.013 2.984,-1.27 3.011,-4.76c0.012,-1.516 -0.337,-2.676 -1.009,-3.353c-0.625,-0.63 -1.428,-0.762 -1.991,-0.762c-2.018,0 -2.789,0.068 -3.677,0.499l-1.795,0.869l0,-9.484l9.754,-0.001l0,2.5l-7.254,0.001l0,3.282c0.815,-0.143 1.733,-0.166 2.972,-0.166c1.467,0 2.805,0.533 3.766,1.501c1.168,1.177 1.752,2.905 1.734,5.133c-0.039,4.968 -2.785,7.216 -5.489,7.241c-0.021,0 -0.042,0 -0.063,0Z" style="fill:#c80000;fill-rule:nonzero;"/><path d="M4.84,221.9l0,-2.5l7.255,0l0,-3.28c-0.816,0.144 -1.733,0.167 -2.972,0.167c-1.468,0 -2.805,-0.533 -3.767,-1.502c-1.167,-1.177 -1.751,-2.904 -1.733,-5.133c0.039,-4.967 2.784,-7.216 5.488,-7.24c1.637,0.025 3.152,0.546 4.153,1.537c0.848,0.841 1.296,1.93 1.296,3.151l-2.5,0c0,-0.546 -0.187,-1.009 -0.556,-1.375c-0.53,-0.525 -1.397,-0.825 -2.37,-0.813c-1.438,0.013 -2.984,1.27 -3.011,4.76c-0.012,1.515 0.337,2.676 1.008,3.352c0.626,0.63 1.429,0.763 1.992,0.763c2.018,0 2.789,-0.068 3.677,-0.499l1.795,-0.869l0,9.481l-9.755,0Z" style="fill:#c80000;fill-rule:nonzero;"/><path d="M135.234,221.9l0,-2.5l7.255,0l0,-3.28c-0.816,0.144 -1.733,0.167 -2.972,0.167c-1.468,0 -2.805,-0.533 -3.767,-1.502c-1.167,-1.177 -1.751,-2.904 -1.733,-5.133c0.039,-4.967 2.784,-7.216 5.488,-7.24c1.644,0.025 3.152,0.546 4.153,1.537c0.848,0.841 1.296,1.93 1.296,3.151l-2.5,0c0,-0.546 -0.187,-1.009 -0.556,-1.375c-0.53,-0.525 -1.388,-0.825 -2.37,-0.813c-1.438,0.013 -2.984,1.27 -3.011,4.76c-0.012,1.515 0.337,2.676 1.008,3.352c0.626,0.63 1.429,0.763 1.992,0.763c2.018,0 2.789,-0.068 3.677,-0.499l1.795,-0.869l0,9.481l-9.755,0Z" style="fill:#c80000;fill-rule:nonzero;"/></g></g></svg>