<?xml version="1.0" encoding="UTF-8" standalone="no"?>
<!DOCTYPE svg PUBLIC "-//W3C//DTD SVG 1.1//EN" "http://www.w3.org/Graphics/SVG/1.1/DTD/svg11.dtd">
<svg width="100%" height="100%" viewBox="0 0 150 225" version="1.1" xmlns="http://www.w3.org/2000/svg" xmlns:xlink="http://www.w3.org/1999/xlink" xml:space="preserve" xmlns:serif="http://www.serif.com/" style="fill-rule:evenodd;clip-rule:evenodd;stroke-linejoin:round;stroke-miterlimit:1.41421;">
    <g transform="matrix(1,0,0,1,-351,-781)">
        <g>
            <g>
                <rect x="0.25" y="1.04" width="1530.71" height="1530.71" style="fill:white;fill-rule:nonzero;"/>
                <path d="M358.659,1017.51C350.802,1017.51 344.409,1011.12 344.409,1003.26L344.409,784.646C344.409,776.789 350.802,770.396 358.659,770.396L492.234,770.396C500.091,770.396 506.484,776.789 506.484,784.646L506.484,1003.26C506.484,1011.12 500.091,1017.51 492.234,1017.51L358.659,1017.51Z" style="fill:white;fill-rule:nonzero;"/>
                <path d="M492.234,770.146L358.659,770.146C350.664,770.146 344.159,776.651 344.159,784.646L344.159,1003.26C344.159,1011.26 350.664,1017.76 358.659,1017.76L492.234,1017.76C500.229,1017.76 506.734,1011.26 506.734,1003.26L506.734,784.646C506.734,776.651 500.229,770.146 492.234,770.146ZM492.234,770.646C499.966,770.646 506.234,776.914 506.234,784.646L506.234,1003.26C506.234,1010.99 499.966,1017.26 492.234,1017.26L358.659,1017.26C350.927,1017.26 344.659,1010.99 344.659,1003.26L344.659,784.646C344.659,776.914 350.927,770.646 358.659,770.646L492.234,770.646Z" style="fill-rule:nonzero;"/>
            </g>
            <g>
                <path d="M388.597,827.339C391.803,821.962 400.219,812.714 405.605,808.914C400.219,805.114 391.803,795.866 388.597,790.489C385.391,795.866 376.974,805.114 371.588,808.914C376.974,812.714 385.391,821.962 388.597,827.339Z" style="fill:rgb(200,0,0);fill-rule:nonzero;"/>
                <path d="M462.297,827.339C465.503,821.962 473.919,812.714 479.305,808.914C473.919,805.114 465.503,795.866 462.297,790.489C459.091,795.866 450.674,805.114 445.289,808.914C450.674,812.714 459.091,821.962 462.297,827.339Z" style="fill:rgb(200,0,0);fill-rule:nonzero;"/>
                <path d="M425.447,912.379C428.653,907.002 437.07,897.754 442.456,893.954C437.07,890.154 428.653,880.906 425.447,875.529C422.241,880.906 413.825,890.154 408.439,893.954C413.825,897.754 422.241,907.002 425.447,912.379Z" style="fill:rgb(200,0,0);fill-rule:nonzero;"/>
                <path d="M388.597,960.569C385.391,965.946 376.974,975.194 371.588,978.994C376.974,982.794 385.391,992.042 388.597,997.419C391.803,992.042 400.219,982.794 405.605,978.994C400.219,975.194 391.803,965.946 388.597,960.569Z" style="fill:rgb(200,0,0);fill-rule:nonzero;"/>
                <path d="M462.297,960.569C459.091,965.946 450.674,975.194 445.289,978.994C450.674,982.794 459.091,992.042 462.297,997.419C465.503,992.042 473.919,982.794 479.305,978.994C473.919,975.194 465.503,965.946 462.297,960.569Z" style="fill:rgb(200,0,0);fill-rule:nonzero;"/>
                <path d="M360.25,825.096C361.586,822.855 365.093,819.001 367.337,817.418C365.093,815.834 361.586,811.981 360.25,809.74C358.914,811.981 355.407,815.834 353.163,817.418C355.407,819.001 358.914,822.855 360.25,825.096Z" style="fill:rgb(200,0,0);fill-rule:nonzero;"/>
                <path d="M360.25,962.812C358.914,965.052 355.407,968.906 353.163,970.489C355.407,972.073 358.914,975.926 360.25,978.167C361.586,975.926 365.093,972.073 367.337,970.489C365.093,968.906 361.586,965.052 360.25,962.812Z" style="fill:rgb(200,0,0);fill-rule:nonzero;"/>
                <path d="M490.649,962.811C490.917,963.377 491.257,963.803 491.836,964.434C492.521,965.18 494.975,967.331 495.878,968.378C496.534,969.139 497.607,970.512 497.716,972.974C497.759,973.926 497.85,976.254 495.621,977.707C494.667,978.329 493.029,978.397 491.966,977.432C490.807,976.38 490.647,975.165 490.647,975.165C490.647,975.165 490.191,976.815 489.239,977.466C488.635,977.881 487.817,978.39 486.425,978.028C484.461,977.517 483.574,975.654 483.557,973.557C483.54,971.377 483.852,969.93 485.784,967.95C487.141,966.558 488.559,965.415 489.782,963.997C490.246,963.459 490.398,963.338 490.649,962.811Z" style="fill:rgb(200,0,0);fill-rule:nonzero;"/>
                <path d="M490.644,825.096C491.979,822.855 495.487,819.001 497.731,817.418C495.487,815.834 491.979,811.981 490.644,809.74C489.308,811.981 485.8,815.834 483.556,817.418C485.8,819.001 489.308,822.855 490.644,825.096Z" style="fill:rgb(200,0,0);fill-rule:nonzero;"/>
                <path d="M360.168,804.478C358.554,804.478 357.066,803.919 356.079,802.94C355.23,802.1 354.782,801.011 354.782,799.79L357.282,799.79C357.282,800.336 357.47,800.799 357.839,801.165C358.369,801.69 359.252,802.001 360.209,801.978C361.646,801.965 363.192,800.708 363.22,797.218C363.231,795.702 362.883,794.542 362.211,793.865C361.586,793.235 360.783,793.103 360.22,793.103C358.202,793.103 357.431,793.171 356.543,793.602L354.748,794.471L354.748,784.987L364.502,784.986L364.502,787.486L357.248,787.487L357.248,790.769C358.063,790.626 358.98,790.603 360.22,790.603C361.688,790.603 363.024,791.136 363.986,792.104C365.154,793.281 365.737,795.009 365.72,797.237C365.681,802.205 362.936,804.453 360.231,804.478C360.21,804.478 360.188,804.478 360.168,804.478Z" style="fill:rgb(200,0,0);fill-rule:nonzero;"/>
                <path d="M490.562,804.478C488.947,804.478 487.46,803.919 486.473,802.94C485.624,802.1 485.176,801.011 485.176,799.79L487.676,799.79C487.676,800.336 487.863,800.799 488.232,801.165C488.763,801.69 489.655,802.001 490.603,801.978C492.04,801.965 493.586,800.708 493.613,797.218C493.625,795.702 493.276,794.542 492.604,793.865C491.979,793.235 491.177,793.103 490.613,793.103C488.596,793.103 487.824,793.171 486.937,793.602L485.142,794.471L485.142,784.987L494.896,784.986L494.896,787.486L487.642,787.487L487.642,790.769C488.457,790.626 489.374,790.603 490.613,790.603C492.081,790.603 493.418,791.136 494.38,792.104C495.548,793.281 496.131,795.009 496.113,797.237C496.074,802.205 493.329,804.453 490.625,804.478C490.604,804.478 490.582,804.478 490.562,804.478Z" style="fill:rgb(200,0,0);fill-rule:nonzero;"/>
                <path d="M355.998,1002.9L355.998,1000.4L363.253,1000.4L363.253,997.12C362.438,997.264 361.52,997.287 360.28,997.287C358.813,997.287 357.476,996.754 356.515,995.785C355.347,994.608 354.763,992.881 354.78,990.652C354.819,985.685 357.565,983.436 360.27,983.412C361.905,983.437 363.421,983.958 364.422,984.949C365.27,985.79 365.718,986.879 365.718,988.1L363.218,988.1C363.218,987.554 363.031,987.091 362.662,986.725C362.132,986.2 361.265,985.9 360.292,985.912C358.854,985.925 357.308,987.182 357.28,990.672C357.269,992.187 357.617,993.348 358.289,994.024C358.915,994.654 359.718,994.787 360.28,994.787C362.299,994.787 363.069,994.719 363.958,994.288L365.753,993.419L365.753,1002.9L355.998,1002.9Z" style="fill:rgb(200,0,0);fill-rule:nonzero;"/>
                <path d="M486.392,1002.9L486.392,1000.4L493.646,1000.4L493.646,997.12C492.831,997.264 491.913,997.287 490.674,997.287C489.207,997.287 487.869,996.754 486.908,995.785C485.74,994.608 485.156,992.881 485.174,990.652C485.213,985.685 487.959,983.436 490.663,983.412C492.307,983.437 493.814,983.958 494.815,984.949C495.663,985.79 496.111,986.879 496.111,988.1L493.611,988.1C493.611,987.554 493.425,987.091 493.056,986.725C492.525,986.2 491.668,985.9 490.686,985.912C489.247,985.925 487.701,987.182 487.674,990.672C487.662,992.187 488.011,993.348 488.683,994.024C489.309,994.654 490.111,994.787 490.674,994.787C492.692,994.787 493.463,994.719 494.352,994.288L496.146,993.419L496.146,1002.9L486.392,1002.9Z" style="fill:rgb(200,0,0);fill-rule:nonzero;"/>
            </g>
        </g>
    </g>
</svg>
