<?xml version="1.0" encoding="UTF-8" standalone="no"?>
<!DOCTYPE svg PUBLIC "-//W3C//DTD SVG 1.1//EN" "http://www.w3.org/Graphics/SVG/1.1/DTD/svg11.dtd">
<svg width="100%" height="100%" viewBox="0 0 150 225" version="1.1" xmlns="http://www.w3.org/2000/svg" xmlns:xlink="http://www.w3.org/1999/xlink" xml:space="preserve" xmlns:serif="http://www.serif.com/" style="fill-rule:evenodd;clip-rule:evenodd;stroke-linejoin:round;stroke-miterlimit:1.41421;">
    <g transform="matrix(1,0,0,1,-1031,-781)">
        <g>
            <g>
                <rect x="0.25" y="1.04" width="1530.71" height="1530.71" style="fill:white;fill-rule:nonzero;"/>
                <path d="M1038.97,1017.51C1031.12,1017.51 1024.72,1011.12 1024.72,1003.26L1024.72,784.646C1024.72,776.789 1031.12,770.396 1038.97,770.396L1172.55,770.396C1180.41,770.396 1186.8,776.789 1186.8,784.646L1186.8,1003.26C1186.8,1011.12 1180.41,1017.51 1172.55,1017.51L1038.97,1017.51Z" style="fill:white;fill-rule:nonzero;"/>
                <path d="M1172.55,770.146L1038.97,770.146C1030.98,770.146 1024.47,776.651 1024.47,784.646L1024.47,1003.26C1024.47,1011.26 1030.98,1017.76 1038.97,1017.76L1172.55,1017.76C1180.54,1017.76 1187.05,1011.26 1187.05,1003.26L1187.05,784.646C1187.05,776.651 1180.54,770.146 1172.55,770.146ZM1172.55,770.646C1180.28,770.646 1186.55,776.914 1186.55,784.646L1186.55,1003.26C1186.55,1010.99 1180.28,1017.26 1172.55,1017.26L1038.97,1017.26C1031.24,1017.26 1024.97,1010.99 1024.97,1003.26L1024.97,784.646C1024.97,776.914 1031.24,770.646 1038.97,770.646L1172.55,770.646Z" style="fill-rule:nonzero;"/>
            </g>
            <g>
                <path d="M1080.58,799.493C1077.71,796.38 1073.4,792.669 1068.91,790.489C1064.42,792.669 1060.11,796.38 1057.24,799.493C1053.13,803.951 1051.86,807.635 1051.9,811.998C1051.94,816.197 1054.07,819.926 1058.78,820.949C1062.12,821.674 1064.08,820.654 1065.53,819.825C1066.88,819.052 1067.81,817.581 1068.35,816.507C1067.71,819.724 1066.6,824.747 1065.49,827.339C1068.51,827.318 1068.91,827.339 1068.91,827.339C1068.91,827.339 1069.31,827.318 1072.33,827.339C1071.22,824.747 1070.11,819.724 1069.47,816.507C1070.01,817.581 1070.94,819.052 1072.29,819.825C1073.74,820.654 1075.7,821.674 1079.04,820.949C1083.75,819.926 1085.88,816.197 1085.92,811.998C1085.96,807.635 1084.7,803.951 1080.58,799.493Z" style="fill-rule:nonzero;"/>
                <path d="M1154.28,799.493C1151.41,796.38 1147.1,792.669 1142.61,790.489C1138.12,792.669 1133.81,796.38 1130.94,799.493C1126.83,803.951 1125.56,807.635 1125.6,811.998C1125.64,816.197 1127.77,819.926 1132.48,820.949C1135.82,821.674 1137.78,820.654 1139.23,819.825C1140.58,819.052 1141.51,817.581 1142.05,816.507C1141.41,819.724 1140.3,824.747 1139.19,827.339C1142.21,827.318 1142.61,827.339 1142.61,827.339C1142.61,827.339 1143.01,827.318 1146.03,827.339C1144.92,824.747 1143.81,819.724 1143.17,816.507C1143.71,817.581 1144.64,819.052 1145.99,819.825C1147.44,820.654 1149.4,821.674 1152.74,820.949C1157.45,819.926 1159.58,816.197 1159.62,811.998C1159.66,807.635 1158.4,803.951 1154.28,799.493Z" style="fill-rule:nonzero;"/>
                <path d="M1117.43,884.533C1114.56,881.42 1110.25,877.709 1105.76,875.529C1101.27,877.709 1096.96,881.42 1094.09,884.533C1089.98,888.991 1088.71,892.675 1088.75,897.039C1088.79,901.237 1090.92,904.966 1095.63,905.989C1098.97,906.714 1100.93,905.694 1102.38,904.865C1103.73,904.092 1104.66,902.621 1105.2,901.547C1104.56,904.764 1103.45,909.787 1102.34,912.379C1105.36,912.358 1105.76,912.379 1105.76,912.379C1105.76,912.379 1106.16,912.358 1109.18,912.379C1108.07,909.787 1106.96,904.764 1106.32,901.547C1106.86,902.621 1107.79,904.092 1109.14,904.865C1110.59,905.694 1112.55,906.714 1115.89,905.989C1120.6,904.966 1122.73,901.237 1122.77,897.039C1122.81,892.675 1121.55,888.991 1117.43,884.533Z" style="fill-rule:nonzero;"/>
                <path d="M1057.24,988.415C1060.11,991.528 1064.42,995.239 1068.91,997.419C1073.4,995.239 1077.71,991.528 1080.58,988.415C1084.7,983.957 1085.96,980.273 1085.92,975.91C1085.88,971.711 1083.75,967.982 1079.04,966.959C1075.7,966.234 1073.74,967.254 1072.29,968.083C1070.94,968.856 1070.01,970.328 1069.47,971.401C1070.11,968.184 1071.22,963.162 1072.33,960.569C1069.31,960.59 1068.91,960.569 1068.91,960.569C1068.91,960.569 1068.51,960.59 1065.49,960.569C1066.6,963.162 1067.71,968.184 1068.35,971.401C1067.81,970.328 1066.88,968.856 1065.53,968.083C1064.08,967.254 1062.12,966.234 1058.78,966.959C1054.07,967.982 1051.94,971.711 1051.9,975.91C1051.86,980.273 1053.13,983.957 1057.24,988.415Z" style="fill-rule:nonzero;"/>
                <path d="M1130.94,988.415C1133.81,991.528 1138.12,995.239 1142.61,997.419C1147.1,995.239 1151.41,991.528 1154.28,988.415C1158.4,983.957 1159.66,980.273 1159.62,975.91C1159.58,971.711 1157.45,967.982 1152.74,966.959C1149.4,966.234 1147.44,967.254 1145.99,968.083C1144.64,968.856 1143.71,970.328 1143.17,971.401C1143.81,968.184 1144.92,963.162 1146.03,960.569C1143.01,960.59 1142.61,960.569 1142.61,960.569C1142.61,960.569 1142.21,960.59 1139.19,960.569C1140.3,963.162 1141.41,968.184 1142.05,971.401C1141.51,970.328 1140.58,968.856 1139.23,968.083C1137.78,967.254 1135.82,966.234 1132.48,966.959C1127.77,967.982 1125.64,971.711 1125.6,975.91C1125.56,980.273 1126.83,983.957 1130.94,988.415Z" style="fill-rule:nonzero;"/>
                <path d="M1045.43,813.492C1044.23,812.195 1042.43,810.649 1040.56,809.74C1038.69,810.649 1036.9,812.195 1035.7,813.492C1033.99,815.35 1033.46,816.885 1033.48,818.703C1033.49,820.453 1034.38,822.006 1036.34,822.433C1037.73,822.735 1038.55,822.31 1039.16,821.964C1039.72,821.642 1040.11,821.029 1040.33,820.582C1040.06,821.922 1039.6,824.015 1039.14,825.096C1040.4,825.087 1040.56,825.096 1040.56,825.096C1040.56,825.096 1040.73,825.087 1041.99,825.096C1041.53,824.015 1041.07,821.922 1040.8,820.582C1041.02,821.029 1041.41,821.642 1041.97,821.964C1042.58,822.31 1043.39,822.735 1044.79,822.433C1046.75,822.006 1047.63,820.453 1047.65,818.703C1047.67,816.885 1047.14,815.35 1045.43,813.492Z" style="fill-rule:nonzero;"/>
                <path d="M1035.7,974.415C1036.9,975.712 1038.69,977.258 1040.56,978.167C1042.43,977.258 1044.23,975.712 1045.43,974.415C1047.14,972.557 1047.67,971.022 1047.65,969.204C1047.63,967.454 1046.75,965.901 1044.79,965.474C1043.39,965.172 1042.58,965.597 1041.97,965.943C1041.41,966.265 1041.02,966.878 1040.8,967.325C1041.07,965.985 1041.53,963.892 1041.99,962.811C1040.73,962.82 1040.56,962.811 1040.56,962.811C1040.56,962.811 1040.4,962.82 1039.14,962.811C1039.6,963.892 1040.06,965.985 1040.33,967.325C1040.11,966.878 1039.72,966.265 1039.16,965.943C1038.55,965.597 1037.73,965.172 1036.34,965.474C1034.38,965.901 1033.49,967.454 1033.48,969.204C1033.46,971.022 1033.99,972.557 1035.7,974.415Z" style="fill-rule:nonzero;"/>
                <path d="M1166.1,974.415C1167.29,975.712 1169.09,977.258 1170.96,978.167C1172.83,977.258 1174.62,975.712 1175.82,974.415C1177.54,972.557 1178.06,971.022 1178.04,969.204C1178.03,967.454 1177.14,965.901 1175.18,965.474C1173.79,965.172 1172.97,965.597 1172.37,965.943C1171.8,966.265 1171.42,966.878 1171.19,967.325C1171.46,965.985 1171.92,963.892 1172.38,962.811C1171.12,962.82 1170.96,962.811 1170.96,962.811C1170.96,962.811 1170.79,962.82 1169.53,962.811C1170,963.892 1170.46,965.985 1170.72,967.325C1170.5,966.878 1170.11,966.265 1169.55,965.943C1168.95,965.597 1168.13,965.172 1166.74,965.474C1164.77,965.901 1163.89,967.454 1163.87,969.204C1163.85,971.022 1164.38,972.557 1166.1,974.415Z" style="fill-rule:nonzero;"/>
                <path d="M1175.82,813.492C1174.62,812.195 1172.83,810.649 1170.96,809.74C1169.09,810.649 1167.29,812.195 1166.1,813.492C1164.38,815.35 1163.85,816.885 1163.87,818.703C1163.89,820.453 1164.77,822.006 1166.74,822.433C1168.13,822.735 1168.95,822.31 1169.55,821.964C1170.11,821.642 1170.5,821.029 1170.72,820.582C1170.46,821.922 1170,824.015 1169.53,825.096C1170.79,825.087 1170.96,825.096 1170.96,825.096C1170.96,825.096 1171.12,825.087 1172.38,825.096C1171.92,824.015 1171.46,821.922 1171.19,820.582C1171.42,821.029 1171.8,821.642 1172.37,821.964C1172.97,822.31 1173.79,822.735 1175.18,822.433C1177.14,822.006 1178.03,820.453 1178.04,818.703C1178.06,816.885 1177.54,815.35 1175.82,813.492Z" style="fill-rule:nonzero;"/>
                <path d="M1040.48,804.478C1038.87,804.478 1037.38,803.919 1036.39,802.94C1035.54,802.1 1035.1,801.011 1035.1,799.79L1037.6,799.79C1037.6,800.336 1037.78,800.799 1038.15,801.165C1038.68,801.69 1039.57,802.001 1040.52,801.978C1041.96,801.965 1043.51,800.708 1043.53,797.218C1043.55,795.702 1043.2,794.542 1042.53,793.865C1041.9,793.235 1041.1,793.103 1040.53,793.103C1038.52,793.103 1037.75,793.171 1036.86,793.602L1035.06,794.471L1035.06,784.987L1044.82,784.986L1044.82,787.486L1037.56,787.487L1037.56,790.769C1038.38,790.626 1039.29,790.603 1040.53,790.603C1042,790.603 1043.34,791.136 1044.3,792.104C1045.47,793.281 1046.05,795.009 1046.03,797.237C1046,802.205 1043.25,804.453 1040.55,804.478C1040.52,804.478 1040.5,804.478 1040.48,804.478Z" style="fill-rule:nonzero;"/>
                <path d="M1170.88,804.478C1169.26,804.478 1167.77,803.919 1166.79,802.94C1165.94,802.1 1165.49,801.011 1165.49,799.79L1167.99,799.79C1167.99,800.336 1168.18,800.799 1168.55,801.165C1169.08,801.69 1169.97,802.001 1170.92,801.978C1172.35,801.965 1173.9,800.708 1173.93,797.218C1173.94,795.702 1173.59,794.542 1172.92,793.865C1172.29,793.235 1171.49,793.103 1170.93,793.103C1168.91,793.103 1168.14,793.171 1167.25,793.602L1165.46,794.471L1165.46,784.987L1175.21,784.986L1175.21,787.486L1167.96,787.487L1167.96,790.769C1168.77,790.626 1169.69,790.603 1170.93,790.603C1172.4,790.603 1173.73,791.136 1174.69,792.104C1175.86,793.281 1176.45,795.009 1176.43,797.237C1176.39,802.205 1173.64,804.453 1170.94,804.478C1170.92,804.478 1170.9,804.478 1170.88,804.478Z" style="fill-rule:nonzero;"/>
                <path d="M1036.31,1002.9L1036.31,1000.4L1043.57,1000.4L1043.57,997.12C1042.75,997.264 1041.83,997.287 1040.59,997.287C1039.13,997.287 1037.79,996.754 1036.83,995.785C1035.66,994.608 1035.08,992.881 1035.09,990.652C1035.13,985.685 1037.88,983.436 1040.58,983.412C1042.22,983.437 1043.74,983.958 1044.74,984.949C1045.58,985.79 1046.03,986.879 1046.03,988.1L1043.53,988.1C1043.53,987.554 1043.35,987.091 1042.98,986.725C1042.45,986.2 1041.58,985.9 1040.61,985.912C1039.17,985.925 1037.62,987.182 1037.59,990.672C1037.58,992.187 1037.93,993.348 1038.6,994.024C1039.23,994.654 1040.03,994.787 1040.59,994.787C1042.61,994.787 1043.38,994.719 1044.27,994.288L1046.07,993.419L1046.07,1002.9L1036.31,1002.9Z" style="fill-rule:nonzero;"/>
                <path d="M1166.71,1002.9L1166.71,1000.4L1173.96,1000.4L1173.96,997.12C1173.15,997.264 1172.23,997.287 1170.99,997.287C1169.52,997.287 1168.18,996.754 1167.22,995.785C1166.05,994.608 1165.47,992.881 1165.49,990.652C1165.53,985.685 1168.27,983.436 1170.98,983.412C1172.62,983.437 1174.13,983.958 1175.13,984.949C1175.98,985.79 1176.43,986.879 1176.43,988.1L1173.93,988.1C1173.93,987.554 1173.74,987.091 1173.37,986.725C1172.84,986.2 1171.98,985.9 1171,985.912C1169.56,985.925 1168.02,987.182 1167.99,990.672C1167.98,992.187 1168.33,993.348 1169,994.024C1169.62,994.654 1170.43,994.787 1170.99,994.787C1173.01,994.787 1173.78,994.719 1174.67,994.288L1176.46,993.419L1176.46,1002.9L1166.71,1002.9Z" style="fill-rule:nonzero;"/>
            </g>
        </g>
    </g>
</svg>
