<?xml version="1.0" encoding="UTF-8" standalone="no"?>
<!DOCTYPE svg PUBLIC "-//W3C//DTD SVG 1.1//EN" "http://www.w3.org/Graphics/SVG/1.1/DTD/svg11.dtd">
<svg width="100%" height="100%" viewBox="0 0 150 225" version="1.1" xmlns="http://www.w3.org/2000/svg" xmlns:xlink="http://www.w3.org/1999/xlink" xml:space="preserve" xmlns:serif="http://www.serif.com/" style="fill-rule:evenodd;clip-rule:evenodd;stroke-linejoin:round;stroke-miterlimit:1.41421;">
    <g transform="matrix(1,0,0,1,-691,-781)">
        <g>
            <g>
                <rect x="0.25" y="1.04" width="1530.71" height="1530.71" style="fill:white;fill-rule:nonzero;"/>
                <path d="M698.816,1017.51C690.959,1017.51 684.566,1011.12 684.566,1003.26L684.566,784.646C684.566,776.789 690.959,770.396 698.816,770.396L832.392,770.396C840.249,770.396 846.642,776.789 846.642,784.646L846.642,1003.26C846.642,1011.12 840.249,1017.51 832.392,1017.51L698.816,1017.51Z" style="fill:white;fill-rule:nonzero;"/>
                <path d="M832.392,770.146L698.816,770.146C690.821,770.146 684.316,776.651 684.316,784.646L684.316,1003.26C684.316,1011.26 690.821,1017.76 698.816,1017.76L832.392,1017.76C840.387,1017.76 846.892,1011.26 846.892,1003.26L846.892,784.646C846.892,776.651 840.387,770.146 832.392,770.146ZM832.392,770.646C840.123,770.646 846.392,776.914 846.392,784.646L846.392,1003.26C846.392,1010.99 840.123,1017.26 832.392,1017.26L698.816,1017.26C691.084,1017.26 684.816,1010.99 684.816,1003.26L684.816,784.646C684.816,776.914 691.084,770.646 698.816,770.646L832.392,770.646Z" style="fill-rule:nonzero;"/>
            </g>
            <g>
                <path d="M739.273,804.79C737.123,804.37 734.18,806.036 731.786,807.792C733.997,805.383 736.604,801.957 736.604,799.187C736.604,794.384 733.088,790.489 728.754,790.489C724.418,790.489 720.904,794.384 720.904,799.187C720.904,801.958 723.512,805.384 725.722,807.793C723.329,806.036 720.385,804.371 718.234,804.79C713.965,805.625 711.114,810.136 711.867,814.867C712.619,819.598 716.691,822.758 720.96,821.923C723.549,821.417 726.286,817.636 728.04,814.736C727.384,818.745 726.362,824.341 725.336,827.339C728.356,827.312 728.754,827.339 728.754,827.339C728.754,827.339 729.15,827.312 732.171,827.339C731.146,824.341 730.124,818.745 729.468,814.736C731.222,817.636 733.958,821.417 736.548,821.923C740.816,822.758 744.889,819.598 745.641,814.867C746.394,810.136 743.543,805.625 739.273,804.79Z" style="fill-rule:nonzero;"/>
                <path d="M812.974,804.79C810.823,804.37 807.88,806.036 805.486,807.792C807.697,805.383 810.304,801.957 810.304,799.187C810.304,794.384 806.789,790.489 802.454,790.489C798.119,790.489 794.604,794.384 794.604,799.187C794.604,801.958 797.212,805.384 799.422,807.793C797.029,806.036 794.085,804.371 791.935,804.79C787.665,805.625 784.814,810.136 785.567,814.867C786.319,819.598 790.392,822.758 794.661,821.923C797.25,821.417 799.986,817.636 801.74,814.736C801.084,818.745 800.062,824.341 799.037,827.339C802.057,827.312 802.454,827.339 802.454,827.339C802.454,827.339 802.851,827.312 805.872,827.339C804.846,824.341 803.824,818.745 803.168,814.736C804.922,817.636 807.659,821.417 810.248,821.923C814.517,822.758 818.589,819.598 819.341,814.867C820.094,810.136 817.243,805.625 812.974,804.79Z" style="fill-rule:nonzero;"/>
                <path d="M776.124,889.831C773.974,889.41 771.03,891.076 768.637,892.832C770.847,890.423 773.455,886.998 773.455,884.228C773.455,879.424 769.939,875.529 765.604,875.529C761.269,875.529 757.754,879.424 757.754,884.228C757.754,886.998 760.362,890.424 762.573,892.833C760.179,891.076 757.235,889.411 755.085,889.831C750.815,890.665 747.964,895.176 748.717,899.907C749.47,904.638 753.542,907.798 757.811,906.963C760.4,906.457 763.136,902.676 764.891,899.776C764.235,903.785 763.212,909.381 762.187,912.379C765.207,912.353 765.604,912.379 765.604,912.379C765.604,912.379 766.001,912.353 769.022,912.379C767.997,909.381 766.974,903.785 766.318,899.776C768.073,902.676 770.809,906.457 773.398,906.963C777.667,907.798 781.739,904.638 782.492,899.907C783.245,895.176 780.394,890.665 776.124,889.831Z" style="fill-rule:nonzero;"/>
                <path d="M718.234,983.118C720.385,983.538 723.328,981.872 725.722,980.116C723.511,982.525 720.904,985.951 720.904,988.721C720.904,993.524 724.419,997.419 728.754,997.419C733.089,997.419 736.604,993.524 736.604,988.721C736.604,985.95 733.996,982.524 731.786,980.115C734.179,981.872 737.123,983.538 739.273,983.118C743.543,982.283 746.394,977.772 745.641,973.041C744.889,968.31 740.816,965.15 736.547,965.985C733.958,966.491 731.222,970.272 729.468,973.172C730.124,969.163 731.146,963.567 732.171,960.569C729.151,960.596 728.754,960.569 728.754,960.569C728.754,960.569 728.357,960.596 725.336,960.569C726.362,963.567 727.384,969.163 728.04,973.172C726.286,970.272 723.549,966.491 720.96,965.985C716.691,965.15 712.619,968.31 711.867,973.041C711.114,977.772 713.965,982.283 718.234,983.118Z" style="fill-rule:nonzero;"/>
                <path d="M791.935,983.118C794.085,983.538 797.028,981.872 799.422,980.116C797.211,982.525 794.604,985.951 794.604,988.721C794.604,993.524 798.12,997.419 802.454,997.419C806.79,997.419 810.304,993.524 810.304,988.721C810.304,985.95 807.696,982.524 805.486,980.115C807.879,981.872 810.823,983.538 812.974,983.118C817.243,982.283 820.094,977.772 819.341,973.041C818.589,968.31 814.517,965.15 810.248,965.985C807.659,966.491 804.922,970.272 803.168,973.172C803.824,969.163 804.846,963.567 805.872,960.569C802.852,960.596 802.454,960.569 802.454,960.569C802.454,960.569 802.058,960.596 799.037,960.569C800.062,963.567 801.084,969.163 801.74,973.172C799.986,970.272 797.25,966.491 794.66,965.985C790.392,965.15 786.319,968.31 785.567,973.041C784.814,977.772 787.665,982.283 791.935,983.118Z" style="fill-rule:nonzero;"/>
                <path d="M704.791,815.7C703.895,815.524 702.668,816.219 701.671,816.951C702.592,815.947 703.678,814.519 703.678,813.365C703.678,811.363 702.213,809.74 700.407,809.74C698.601,809.74 697.136,811.363 697.136,813.365C697.136,814.519 698.223,815.947 699.144,816.951C698.146,816.219 696.92,815.525 696.024,815.7C694.245,816.047 693.057,817.927 693.37,819.899C693.684,821.87 695.381,823.187 697.16,822.839C698.238,822.628 699.379,821.052 700.11,819.844C699.836,821.514 699.41,823.846 698.983,825.096C700.242,825.085 700.407,825.096 700.407,825.096C700.407,825.096 700.572,825.085 701.831,825.096C701.404,823.846 700.978,821.514 700.705,819.844C701.436,821.052 702.576,822.628 703.655,822.839C705.434,823.187 707.131,821.87 707.444,819.899C707.758,817.927 706.57,816.047 704.791,815.7Z" style="fill-rule:nonzero;"/>
                <path d="M696.024,972.207C696.92,972.383 698.146,971.688 699.144,970.957C698.223,971.96 697.136,973.388 697.136,974.542C697.136,976.544 698.601,978.167 700.407,978.167C702.214,978.167 703.678,976.544 703.678,974.542C703.678,973.388 702.592,971.96 701.671,970.956C702.668,971.688 703.895,972.382 704.791,972.207C706.57,971.86 707.758,969.98 707.444,968.009C707.131,966.037 705.434,964.72 703.655,965.068C702.576,965.279 701.436,966.855 700.705,968.063C700.978,966.393 701.404,964.061 701.831,962.811C700.573,962.823 700.407,962.811 700.407,962.811C700.407,962.811 700.242,962.823 698.983,962.811C699.41,964.061 699.836,966.393 700.11,968.063C699.379,966.855 698.238,965.279 697.159,965.068C695.381,964.72 693.684,966.037 693.37,968.009C693.057,969.98 694.245,971.86 696.024,972.207Z" style="fill-rule:nonzero;"/>
                <path d="M826.417,972.207C827.313,972.383 828.54,971.688 829.537,970.957C828.616,971.96 827.53,973.388 827.53,974.542C827.53,976.544 828.995,978.167 830.801,978.167C832.607,978.167 834.072,976.544 834.072,974.542C834.072,973.388 832.985,971.96 832.064,970.956C833.061,971.688 834.288,972.382 835.184,972.207C836.963,971.86 838.151,969.98 837.838,968.009C837.524,966.037 835.827,964.72 834.048,965.068C832.969,965.279 831.829,966.855 831.098,968.063C831.371,966.393 831.798,964.061 832.225,962.811C830.966,962.823 830.801,962.811 830.801,962.811C830.801,962.811 830.636,962.823 829.377,962.811C829.804,964.061 830.23,966.393 830.503,968.063C829.772,966.855 828.632,965.279 827.553,965.068C825.774,964.72 824.077,966.037 823.764,968.009C823.45,969.98 824.638,971.86 826.417,972.207Z" style="fill-rule:nonzero;"/>
                <path d="M835.184,815.7C834.288,815.524 833.062,816.219 832.064,816.951C832.985,815.947 834.072,814.519 834.072,813.365C834.072,811.363 832.607,809.74 830.801,809.74C828.994,809.74 827.53,811.363 827.53,813.365C827.53,814.519 828.616,815.947 829.537,816.951C828.54,816.219 827.313,815.525 826.417,815.7C824.638,816.047 823.45,817.927 823.764,819.899C824.077,821.87 825.774,823.187 827.553,822.839C828.632,822.628 829.772,821.052 830.503,819.844C830.23,821.514 829.804,823.846 829.377,825.096C830.635,825.085 830.801,825.096 830.801,825.096C830.801,825.096 830.966,825.085 832.225,825.096C831.798,823.846 831.371,821.514 831.098,819.844C831.829,821.052 832.969,822.628 834.048,822.839C835.827,823.187 837.524,821.87 837.838,819.899C838.151,817.927 836.963,816.047 835.184,815.7Z" style="fill-rule:nonzero;"/>
                <path d="M700.325,804.478C698.711,804.478 697.224,803.919 696.236,802.94C695.388,802.1 694.939,801.011 694.939,799.79L697.439,799.79C697.439,800.336 697.627,800.799 697.996,801.165C698.526,801.69 699.409,802.001 700.366,801.978C701.804,801.965 703.35,800.708 703.377,797.218C703.389,795.702 703.04,794.542 702.368,793.865C701.743,793.235 700.94,793.103 700.377,793.103C698.359,793.103 697.588,793.171 696.7,793.602L694.905,794.471L694.905,784.987L704.659,784.986L704.659,787.486L697.405,787.487L697.405,790.769C698.221,790.626 699.138,790.603 700.377,790.603C701.845,790.603 703.182,791.136 704.144,792.104C705.312,793.281 705.895,795.009 705.877,797.237C705.838,802.205 703.093,804.453 700.389,804.478C700.367,804.478 700.346,804.478 700.325,804.478Z" style="fill-rule:nonzero;"/>
                <path d="M830.719,804.478C829.104,804.478 827.617,803.919 826.63,802.94C825.781,802.1 825.333,801.011 825.333,799.79L827.833,799.79C827.833,800.336 828.021,800.799 828.39,801.165C828.92,801.69 829.813,802.001 830.76,801.978C832.197,801.965 833.743,800.708 833.771,797.218C833.782,795.702 833.434,794.542 832.762,793.865C832.137,793.235 831.334,793.103 830.771,793.103C828.753,793.103 827.981,793.171 827.094,793.602L825.299,794.471L825.299,784.987L835.053,784.986L835.053,787.486L827.799,787.487L827.799,790.769C828.614,790.626 829.531,790.603 830.771,790.603C832.238,790.603 833.575,791.136 834.537,792.104C835.705,793.281 836.288,795.009 836.271,797.237C836.231,802.205 833.486,804.453 830.782,804.478C830.761,804.478 830.739,804.478 830.719,804.478Z" style="fill-rule:nonzero;"/>
                <path d="M696.155,1002.9L696.155,1000.4L703.41,1000.4L703.41,997.12C702.595,997.264 701.677,997.287 700.438,997.287C698.971,997.287 697.633,996.754 696.672,995.785C695.504,994.608 694.92,992.881 694.938,990.652C694.977,985.685 697.723,983.436 700.427,983.412C702.063,983.437 703.578,983.958 704.579,984.949C705.427,985.79 705.875,986.879 705.875,988.1L703.375,988.1C703.375,987.554 703.188,987.091 702.819,986.725C702.289,986.2 701.422,985.9 700.449,985.912C699.011,985.925 697.465,987.182 697.438,990.672C697.426,992.187 697.774,993.348 698.446,994.024C699.072,994.654 699.875,994.787 700.438,994.787C702.456,994.787 703.227,994.719 704.115,994.288L705.91,993.419L705.91,1002.9L696.155,1002.9Z" style="fill-rule:nonzero;"/>
                <path d="M826.549,1002.9L826.549,1000.4L833.804,1000.4L833.804,997.12C832.988,997.264 832.07,997.287 830.831,997.287C829.364,997.287 828.026,996.754 827.065,995.785C825.897,994.608 825.313,992.881 825.331,990.652C825.37,985.685 828.116,983.436 830.82,983.412C832.464,983.437 833.972,983.958 834.973,984.949C835.82,985.79 836.269,986.879 836.269,988.1L833.769,988.1C833.769,987.554 833.582,987.091 833.213,986.725C832.683,986.2 831.825,985.9 830.843,985.912C829.404,985.925 827.858,987.182 827.831,990.672C827.819,992.187 828.168,993.348 828.84,994.024C829.466,994.654 830.269,994.787 830.831,994.787C832.85,994.787 833.62,994.719 834.509,994.288L836.304,993.419L836.304,1002.9L826.549,1002.9Z" style="fill-rule:nonzero;"/>
            </g>
        </g>
    </g>
</svg>
