<?xml version="1.0" encoding="UTF-8" standalone="no"?>
<!DOCTYPE svg PUBLIC "-//W3C//DTD SVG 1.1//EN" "http://www.w3.org/Graphics/SVG/1.1/DTD/svg11.dtd">
<svg width="100%" height="100%" viewBox="0 0 150 225" version="1.1" xmlns="http://www.w3.org/2000/svg" xmlns:xlink="http://www.w3.org/1999/xlink" xml:space="preserve" xmlns:serif="http://www.serif.com/" style="fill-rule:evenodd;clip-rule:evenodd;stroke-linejoin:round;stroke-miterlimit:1.41421;">
    <g transform="matrix(1,0,0,1,-11,-526)">
        <g>
            <g>
                <rect x="0.25" y="1.04" width="1530.71" height="1530.71" style="fill:white;fill-rule:nonzero;"/>
                <path d="M18.502,762.393C10.644,762.393 4.251,756 4.251,748.143L4.251,529.528C4.251,521.671 10.644,515.278 18.502,515.278L152.077,515.278C159.934,515.278 166.327,521.671 166.327,529.528L166.327,748.143C166.327,756 159.934,762.393 152.077,762.393L18.502,762.393Z" style="fill:white;fill-rule:nonzero;"/>
                <path d="M152.077,515.028L18.502,515.028C10.506,515.028 4.001,521.533 4.001,529.528L4.001,748.143C4.001,756.138 10.506,762.643 18.502,762.643L152.077,762.643C160.072,762.643 166.577,756.138 166.577,748.143L166.577,529.528C166.577,521.533 160.072,515.028 152.077,515.028ZM152.077,515.528C159.809,515.528 166.077,521.796 166.077,529.528L166.077,748.143C166.077,755.874 159.809,762.143 152.077,762.143L18.502,762.143C10.77,762.143 4.501,755.874 4.501,748.143L4.501,529.528C4.501,521.796 10.77,515.528 18.502,515.528L152.077,515.528Z" style="fill-rule:nonzero;"/>
            </g>
            <g>
                <path d="M48.425,572.221C47.782,570.864 46.966,569.84 45.577,568.327C43.934,566.537 38.043,561.374 35.877,558.862C34.302,557.037 31.727,553.742 31.465,547.833C31.364,545.549 31.145,539.962 36.494,536.476C38.783,534.982 42.714,534.818 45.265,537.134C48.047,539.66 48.431,542.576 48.431,542.576C48.431,542.576 49.526,538.615 51.809,537.052C53.259,536.057 55.221,534.835 58.562,535.704C63.276,536.931 65.405,541.4 65.445,546.434C65.486,551.665 64.737,555.137 60.1,559.891C56.845,563.229 53.442,565.973 50.507,569.377C49.393,570.667 49.029,570.957 48.425,572.221Z" style="fill:rgb(200,0,0);fill-rule:nonzero;"/>
                <path d="M122.125,572.221C121.483,570.864 120.667,569.84 119.278,568.327C117.634,566.537 111.744,561.374 109.577,558.862C108.003,557.037 105.428,553.742 105.166,547.833C105.065,545.549 104.845,539.962 110.194,536.476C112.484,534.982 116.415,534.818 118.966,537.134C121.748,539.66 122.132,542.576 122.132,542.576C122.132,542.576 123.227,538.615 125.509,537.052C126.96,536.057 128.922,534.835 132.262,535.704C136.977,536.931 139.106,541.4 139.146,546.434C139.187,551.665 138.438,555.137 133.801,559.891C130.545,563.229 127.143,565.973 124.208,569.377C123.094,570.667 122.729,570.957 122.125,572.221Z" style="fill:rgb(200,0,0);fill-rule:nonzero;"/>
                <path d="M48.453,705.451C49.096,706.808 49.912,707.832 51.301,709.345C52.944,711.135 58.835,716.297 61.002,718.81C62.576,720.635 65.151,723.93 65.413,729.838C65.514,732.123 65.733,737.709 60.384,741.196C58.095,742.689 54.164,742.853 51.613,740.538C48.831,738.012 48.447,735.096 48.447,735.096C48.447,735.096 47.352,739.057 45.069,740.62C43.619,741.615 41.657,742.837 38.316,741.968C33.602,740.741 31.473,736.271 31.433,731.238C31.392,726.006 32.141,722.535 36.778,717.781C40.033,714.443 43.436,711.699 46.371,708.295C47.485,707.004 47.849,706.715 48.453,705.451Z" style="fill:rgb(200,0,0);fill-rule:nonzero;"/>
                <path d="M122.154,705.451C122.796,706.808 123.613,707.832 125.001,709.345C126.645,711.135 132.535,716.297 134.702,718.81C136.276,720.635 138.852,723.93 139.113,729.838C139.214,732.123 139.434,737.709 134.085,741.196C131.795,742.689 127.865,742.853 125.313,740.538C122.532,738.012 122.147,735.096 122.147,735.096C122.147,735.096 121.053,739.057 118.77,740.62C117.319,741.615 115.357,742.837 112.017,741.968C107.303,740.741 105.173,736.271 105.133,731.238C105.092,726.006 105.842,722.535 110.479,717.781C113.734,714.443 117.137,711.699 120.072,708.295C121.186,707.004 121.55,706.715 122.154,705.451Z" style="fill:rgb(200,0,0);fill-rule:nonzero;"/>
                <path d="M20.086,569.978C19.818,569.412 19.478,568.985 18.899,568.355C18.214,567.609 15.76,565.458 14.857,564.411C14.201,563.65 13.128,562.277 13.019,559.815C12.977,558.863 12.885,556.535 15.114,555.082C16.068,554.46 17.706,554.392 18.769,555.357C19.928,556.409 20.089,557.624 20.089,557.624C20.089,557.624 20.545,555.974 21.496,555.322C22.1,554.908 22.918,554.399 24.31,554.761C26.274,555.272 27.162,557.135 27.178,559.232C27.195,561.412 26.883,562.859 24.951,564.839C23.595,566.23 22.177,567.374 20.954,568.792C20.489,569.33 20.338,569.451 20.086,569.978Z" style="fill:rgb(200,0,0);fill-rule:nonzero;"/>
                <path d="M20.098,707.693C20.365,708.259 20.706,708.685 21.284,709.316C21.969,710.062 24.424,712.213 25.327,713.26C25.983,714.02 27.056,715.394 27.165,717.856C27.207,718.807 27.298,721.135 25.069,722.588C24.115,723.211 22.477,723.279 21.414,722.314C20.255,721.261 20.095,720.046 20.095,720.046C20.095,720.046 19.639,721.697 18.688,722.348C18.083,722.763 17.266,723.272 15.874,722.91C13.909,722.399 13.022,720.536 13.005,718.439C12.988,716.259 13.301,714.812 15.233,712.831C16.589,711.44 18.007,710.297 19.23,708.878C19.694,708.341 19.846,708.22 20.098,707.693Z" style="fill:rgb(200,0,0);fill-rule:nonzero;"/>
                <path d="M150.492,707.693C150.76,708.259 151.1,708.685 151.679,709.316C152.364,710.062 154.818,712.213 155.721,713.26C156.377,714.02 157.45,715.394 157.559,717.856C157.601,718.807 157.693,721.135 155.464,722.588C154.51,723.211 152.872,723.279 151.809,722.314C150.65,721.261 150.49,720.046 150.49,720.046C150.49,720.046 150.033,721.697 149.082,722.348C148.478,722.763 147.66,723.272 146.268,722.91C144.304,722.399 143.416,720.536 143.4,718.439C143.383,716.259 143.695,714.812 145.627,712.831C146.984,711.44 148.402,710.297 149.625,708.878C150.089,708.341 150.241,708.22 150.492,707.693Z" style="fill:rgb(200,0,0);fill-rule:nonzero;"/>
                <path d="M150.48,569.978C150.213,569.412 149.872,568.985 149.294,568.355C148.609,567.609 146.155,565.458 145.252,564.411C144.596,563.65 143.522,562.277 143.413,559.815C143.371,558.863 143.28,556.535 145.509,555.082C146.463,554.46 148.101,554.392 149.164,555.357C150.323,556.409 150.483,557.624 150.483,557.624C150.483,557.624 150.939,555.974 151.89,555.322C152.495,554.908 153.312,554.399 154.704,554.761C156.669,555.272 157.556,557.135 157.573,559.232C157.59,561.412 157.278,562.859 155.346,564.839C153.989,566.23 152.571,567.374 151.348,568.792C150.884,569.33 150.732,569.451 150.48,569.978Z" style="fill:rgb(200,0,0);fill-rule:nonzero;"/>
                <path d="M17.272,541.445L21.024,535.252L21.024,541.445L17.272,541.445ZM25.294,544.315L25.294,541.445L23.824,541.445L23.824,529.844L21.024,529.844L21.024,529.866L21.002,529.852L13.976,541.445L13.955,541.445L13.955,544.315L21.024,544.315L21.024,546.476L20.272,546.476L20.272,549.346L24.664,549.346L24.664,546.476L23.824,546.476L23.824,544.315L25.294,544.315Z" style="fill:rgb(200,0,0);fill-rule:nonzero;"/>
                <path d="M147.666,541.445L151.418,535.252L151.418,541.445L147.666,541.445ZM155.688,544.315L155.688,541.445L154.218,541.445L154.218,529.844L151.418,529.844L151.418,529.866L151.396,529.852L144.37,541.445L144.349,541.445L144.349,544.315L151.418,544.315L151.418,546.476L150.666,546.476L150.666,549.346L155.058,549.346L155.058,546.476L154.218,546.476L154.218,544.315L155.688,544.315Z" style="fill:rgb(200,0,0);fill-rule:nonzero;"/>
                <path d="M21.978,736.171L18.225,742.363L18.225,736.171L21.978,736.171ZM13.955,733.3L13.955,736.171L15.425,736.171L15.425,747.772L18.225,747.772L18.225,747.749L18.247,747.764L25.273,736.171L25.294,736.171L25.294,733.3L18.225,733.3L18.225,731.14L18.977,731.14L18.977,728.269L14.585,728.269L14.585,731.14L15.425,731.14L15.425,733.3L13.955,733.3Z" style="fill:rgb(200,0,0);fill-rule:nonzero;"/>
                <path d="M152.372,736.171L148.619,742.363L148.619,736.171L152.372,736.171ZM144.349,733.3L144.349,736.171L145.819,736.171L145.819,747.772L148.619,747.772L148.619,747.749L148.641,747.764L155.667,736.171L155.688,736.171L155.688,733.3L148.619,733.3L148.619,731.14L149.371,731.14L149.371,728.269L144.979,728.269L144.979,731.14L145.819,731.14L145.819,733.3L144.349,733.3Z" style="fill:rgb(200,0,0);fill-rule:nonzero;"/>
            </g>
        </g>
    </g>
</svg>
