<?xml version="1.0" encoding="UTF-8" standalone="no"?>
<!DOCTYPE svg PUBLIC "-//W3C//DTD SVG 1.1//EN" "http://www.w3.org/Graphics/SVG/1.1/DTD/svg11.dtd">
<svg width="100%" height="100%" viewBox="0 0 150 225" version="1.1" xmlns="http://www.w3.org/2000/svg" xmlns:xlink="http://www.w3.org/1999/xlink" xml:space="preserve" xmlns:serif="http://www.serif.com/" style="fill-rule:evenodd;clip-rule:evenodd;stroke-linejoin:round;stroke-miterlimit:1.41421;">
    <g transform="matrix(1,0,0,1,-351,-526)">
        <g>
            <g>
                <rect x="0.25" y="1.04" width="1530.71" height="1530.71" style="fill:white;fill-rule:nonzero;"/>
                <path d="M358.659,762.393C350.802,762.393 344.409,756 344.409,748.143L344.409,529.528C344.409,521.671 350.802,515.278 358.659,515.278L492.234,515.278C500.091,515.278 506.484,521.671 506.484,529.528L506.484,748.143C506.484,756 500.091,762.393 492.234,762.393L358.659,762.393Z" style="fill:white;fill-rule:nonzero;"/>
                <path d="M492.234,515.028L358.659,515.028C350.664,515.028 344.159,521.533 344.159,529.528L344.159,748.143C344.159,756.138 350.664,762.643 358.659,762.643L492.234,762.643C500.229,762.643 506.734,756.138 506.734,748.143L506.734,529.528C506.734,521.533 500.229,515.028 492.234,515.028ZM492.234,515.528C499.966,515.528 506.234,521.796 506.234,529.528L506.234,748.143C506.234,755.874 499.966,762.143 492.234,762.143L358.659,762.143C350.927,762.143 344.659,755.874 344.659,748.143L344.659,529.528C344.659,521.796 350.927,515.528 358.659,515.528L492.234,515.528Z" style="fill-rule:nonzero;"/>
            </g>
            <g>
                <path d="M388.597,572.221C391.803,566.844 400.219,557.596 405.605,553.796C400.219,549.996 391.803,540.748 388.597,535.371C385.391,540.748 376.974,549.996 371.588,553.796C376.974,557.596 385.391,566.844 388.597,572.221Z" style="fill:rgb(200,0,0);fill-rule:nonzero;"/>
                <path d="M462.297,572.221C465.503,566.844 473.919,557.596 479.305,553.796C473.919,549.996 465.503,540.748 462.297,535.371C459.091,540.748 450.674,549.996 445.289,553.796C450.674,557.596 459.091,566.844 462.297,572.221Z" style="fill:rgb(200,0,0);fill-rule:nonzero;"/>
                <path d="M388.597,705.451C385.391,710.828 376.974,720.076 371.588,723.876C376.974,727.676 385.391,736.924 388.597,742.301C391.803,736.924 400.219,727.676 405.605,723.876C400.219,720.076 391.803,710.828 388.597,705.451Z" style="fill:rgb(200,0,0);fill-rule:nonzero;"/>
                <path d="M462.297,705.451C459.091,710.828 450.674,720.076 445.289,723.876C450.674,727.676 459.091,736.924 462.297,742.301C465.503,736.924 473.919,727.676 479.305,723.876C473.919,720.076 465.503,710.828 462.297,705.451Z" style="fill:rgb(200,0,0);fill-rule:nonzero;"/>
                <path d="M360.25,569.977C361.586,567.737 365.093,563.883 367.337,562.3C365.093,560.716 361.586,556.863 360.25,554.622C358.914,556.863 355.407,560.716 353.163,562.3C355.407,563.883 358.914,567.737 360.25,569.977Z" style="fill:rgb(200,0,0);fill-rule:nonzero;"/>
                <path d="M360.25,707.693C358.914,709.934 355.407,713.788 353.163,715.371C355.407,716.954 358.914,720.808 360.25,723.049C361.586,720.808 365.093,716.954 367.337,715.371C365.093,713.788 361.586,709.934 360.25,707.693Z" style="fill:rgb(200,0,0);fill-rule:nonzero;"/>
                <path d="M490.644,707.693C489.308,709.934 485.8,713.788 483.556,715.371C485.8,716.954 489.308,720.808 490.644,723.049C491.979,720.808 495.487,716.954 497.731,715.371C495.487,713.788 491.979,709.934 490.644,707.693Z" style="fill:rgb(200,0,0);fill-rule:nonzero;"/>
                <path d="M490.644,569.977C491.979,567.737 495.487,563.883 497.731,562.3C495.487,560.716 491.979,556.863 490.644,554.622C489.308,556.863 485.8,560.716 483.556,562.3C485.8,563.883 489.308,567.737 490.644,569.977Z" style="fill:rgb(200,0,0);fill-rule:nonzero;"/>
                <path d="M357.43,541.445L361.183,535.252L361.183,541.445L357.43,541.445ZM365.452,544.315L365.452,541.445L363.982,541.445L363.982,529.844L361.183,529.844L361.183,529.866L361.16,529.852L354.134,541.445L354.113,541.445L354.113,544.315L361.183,544.315L361.183,546.476L360.43,546.476L360.43,549.346L364.822,549.346L364.822,546.476L363.982,546.476L363.982,544.315L365.452,544.315Z" style="fill:rgb(200,0,0);fill-rule:nonzero;"/>
                <path d="M487.823,541.445L491.576,535.252L491.576,541.445L487.823,541.445ZM495.846,544.315L495.846,541.445L494.376,541.445L494.376,529.844L491.576,529.844L491.576,529.866L491.554,529.852L484.527,541.445L484.507,541.445L484.507,544.315L491.576,544.315L491.576,546.476L490.823,546.476L490.823,549.346L495.216,549.346L495.216,546.476L494.376,546.476L494.376,544.315L495.846,544.315Z" style="fill:rgb(200,0,0);fill-rule:nonzero;"/>
                <path d="M362.136,736.171L358.383,742.363L358.383,736.171L362.136,736.171ZM354.113,733.3L354.113,736.171L355.583,736.171L355.583,747.772L358.383,747.772L358.383,747.749L358.405,747.764L365.431,736.171L365.452,736.171L365.452,733.3L358.383,733.3L358.383,731.14L359.135,731.14L359.135,728.269L354.743,728.269L354.743,731.14L355.583,731.14L355.583,733.3L354.113,733.3Z" style="fill:rgb(200,0,0);fill-rule:nonzero;"/>
                <path d="M492.529,736.171L488.776,742.363L488.776,736.171L492.529,736.171ZM484.507,733.3L484.507,736.171L485.977,736.171L485.977,747.772L488.776,747.772L488.776,747.749L488.799,747.764L495.824,736.171L495.846,736.171L495.846,733.3L488.776,733.3L488.776,731.14L489.528,731.14L489.528,728.269L485.137,728.269L485.137,731.14L485.977,731.14L485.977,733.3L484.507,733.3Z" style="fill:rgb(200,0,0);fill-rule:nonzero;"/>
            </g>
        </g>
    </g>
</svg>
