<?xml version="1.0" encoding="UTF-8" standalone="no"?>
<!DOCTYPE svg PUBLIC "-//W3C//DTD SVG 1.1//EN" "http://www.w3.org/Graphics/SVG/1.1/DTD/svg11.dtd">
<svg width="100%" height="100%" viewBox="0 0 150 225" version="1.1" xmlns="http://www.w3.org/2000/svg" xmlns:xlink="http://www.w3.org/1999/xlink" xml:space="preserve" xmlns:serif="http://www.serif.com/" style="fill-rule:evenodd;clip-rule:evenodd;stroke-miterlimit:1.41421;">
    <g transform="matrix(1,0,0,1,-1371,-1036)">
        <g>
            <g>
                <rect x="0.25" y="1.04" width="1530.71" height="1530.71" style="fill:white;fill-rule:nonzero;"/>
                <path d="M1379.13,1272.63C1371.28,1272.63 1364.88,1266.24 1364.88,1258.38L1364.88,1039.76C1364.88,1031.91 1371.28,1025.51 1379.13,1025.51L1512.71,1025.51C1520.57,1025.51 1526.96,1031.91 1526.96,1039.76L1526.96,1258.38C1526.96,1266.24 1520.57,1272.63 1512.71,1272.63L1379.13,1272.63Z" style="fill:white;fill-rule:nonzero;"/>
                <path d="M1512.71,1025.26L1379.13,1025.26C1371.14,1025.26 1364.63,1031.77 1364.63,1039.76L1364.63,1258.38C1364.63,1266.37 1371.14,1272.88 1379.13,1272.88L1512.71,1272.88C1520.7,1272.88 1527.21,1266.37 1527.21,1258.38L1527.21,1039.76C1527.21,1031.77 1520.7,1025.26 1512.71,1025.26ZM1512.71,1025.76C1520.44,1025.76 1526.71,1032.03 1526.71,1039.76L1526.71,1258.38C1526.71,1266.11 1520.44,1272.38 1512.71,1272.38L1379.13,1272.38C1371.4,1272.38 1365.13,1266.11 1365.13,1258.38L1365.13,1039.76C1365.13,1032.03 1371.4,1025.76 1379.13,1025.76L1512.71,1025.76Z" style="fill-rule:nonzero;"/>
                <path d="M1443.02,1106.95C1443.02,1106.95 1444.02,1106.27 1442.79,1105.98C1442.07,1105.81 1441.32,1104.47 1439.4,1102.71C1438.23,1101.64 1436.57,1096.92 1437.35,1092.36C1437.73,1090.17 1437.23,1086.71 1438.68,1084.98C1440.04,1083.34 1442.9,1082.04 1447.32,1082.04C1452.19,1082.04 1455.86,1084.06 1457.23,1088C1458.04,1090.34 1459.43,1096.4 1458.22,1098.56C1456.74,1101.19 1453.67,1103.24 1452.55,1104.58C1451.91,1105.34 1452.33,1105.75 1452.57,1106.31C1452.74,1106.72 1447.55,1111.36 1446.77,1111.42C1445.99,1111.48 1443.02,1106.95 1443.02,1106.95Z" style="fill:white;fill-rule:nonzero;"/>
                <path d="M1443.02,1106.95C1443.02,1106.95 1444.02,1106.27 1442.79,1105.98C1442.07,1105.81 1441.32,1104.47 1439.4,1102.71C1438.23,1101.64 1436.57,1096.92 1437.35,1092.36C1437.73,1090.17 1437.23,1086.71 1438.68,1084.98C1440.04,1083.34 1442.9,1082.04 1447.32,1082.04C1452.19,1082.04 1455.86,1084.06 1457.23,1088C1458.04,1090.34 1459.43,1096.4 1458.22,1098.56C1456.74,1101.19 1453.67,1103.24 1452.55,1104.58C1451.91,1105.34 1452.33,1105.75 1452.57,1106.31C1452.74,1106.72 1447.55,1111.36 1446.77,1111.42C1445.99,1111.48 1443.02,1106.95 1443.02,1106.95Z" style="fill:none;stroke:black;stroke-width:0.25px;"/>
                <path d="M1442.94,1106.02C1443.42,1106.05 1444.31,1106.72 1445.88,1105.68C1445.88,1105.68 1448.51,1105 1449.42,1104.46C1450.25,1103.96 1452.92,1102.46 1453,1099.96" style="fill:none;stroke:black;stroke-width:0.25px;"/>
                <path d="M1441.1,1099.98C1442.64,1101.66 1444.25,1102.35 1448.74,1099.8C1446.24,1101.56 1446.55,1103.31 1444.25,1103.6C1442.27,1103.86 1442.08,1100.96 1441.1,1099.98Z" style="fill-rule:nonzero;"/>
                <path d="M1441.1,1099.98C1442.64,1101.66 1444.25,1102.35 1448.74,1099.8C1446.24,1101.56 1446.55,1103.31 1444.25,1103.6C1442.27,1103.86 1442.08,1100.96 1441.1,1099.98Z" style="fill:none;stroke:black;stroke-width:0.25px;stroke-linejoin:round;"/>
                <path d="M1448.63,1098.85C1448.69,1099.41 1449.05,1099.65 1449.94,1099.75" style="fill:none;stroke:black;stroke-width:0.15px;"/>
                <path d="M1441.22,1098.93C1441.02,1099.46 1440.56,1099.8 1440.09,1100.06" style="fill:none;stroke:black;stroke-width:0.15px;"/>
                <path d="M1445.52,1099.16C1445.76,1099.68 1444.06,1100.28 1443.42,1099.8C1441.98,1098.7 1443.96,1096.97 1444.08,1095.36" style="fill:none;stroke:black;stroke-width:0.25px;stroke-linecap:round;"/>
                <path d="M1448.64,1094.07C1448.54,1094.57 1448.01,1094.91 1447.45,1094.82C1446.89,1094.74 1446.51,1094.26 1446.61,1093.76C1446.71,1093.26 1447.25,1092.92 1447.8,1093.01C1448.36,1093.09 1448.74,1093.57 1448.64,1094.07Z" style="fill-rule:nonzero;"/>
                <path d="M1449.61,1094.61C1447.91,1092 1445.99,1092.76 1445.68,1094.35C1446.76,1095.41 1447.64,1094.56 1449.61,1094.61Z" style="fill:none;stroke:black;stroke-width:0.25px;stroke-linecap:round;"/>
                <path d="M1445.7,1092.24C1445.88,1091.21 1447.6,1090.02 1449.85,1090.94" style="fill:none;stroke:black;stroke-width:0.25px;stroke-linecap:round;"/>
                <path d="M1442.52,1092.3C1442.37,1091.26 1440.97,1090.07 1439.13,1091" style="fill:none;stroke:black;stroke-width:0.25px;stroke-linecap:round;"/>
                <path d="M1440.05,1094.13C1440.13,1094.6 1440.61,1094.91 1441.11,1094.83C1441.61,1094.75 1441.94,1094.3 1441.86,1093.83C1441.78,1093.36 1441.3,1093.05 1440.8,1093.13C1440.3,1093.21 1439.96,1093.66 1440.05,1094.13Z" style="fill-rule:nonzero;"/>
                <path d="M1438.96,1094.62C1440.35,1092.18 1441.95,1092.9 1442.21,1094.39C1441.31,1095.38 1440.58,1094.58 1438.96,1094.62Z" style="fill:none;stroke:black;stroke-width:0.25px;stroke-linecap:round;"/>
                <path d="M1437.54,1090.51C1442.22,1087.51 1448.64,1088.37 1450.99,1090.28C1453.33,1092.19 1453.15,1099.11 1452.67,1104.29C1455.19,1102.68 1459.96,1098.39 1459.87,1093.28C1461.22,1091.09 1470.11,1092.39 1465.07,1104.33C1478.85,1092.82 1467.8,1082.67 1459.4,1086.59C1458.04,1083.83 1456.39,1081.8 1453.15,1081.29C1456.39,1069 1437.57,1068.34 1431.53,1073.45C1437.3,1072.67 1447.96,1073.79 1444.98,1079.67C1441.47,1079.93 1439.25,1082.7 1438.02,1084.05C1426.31,1082.15 1419.94,1097.09 1429.13,1101.76C1425.25,1092.16 1432.67,1089.79 1437.54,1090.51Z" style="fill:white;fill-rule:nonzero;"/>
                <path d="M1437.54,1090.51C1442.22,1087.51 1448.64,1088.37 1450.99,1090.28C1453.33,1092.19 1453.15,1099.11 1452.67,1104.29C1455.19,1102.68 1459.96,1098.39 1459.87,1093.28C1461.22,1091.09 1470.11,1092.39 1465.07,1104.33C1478.85,1092.82 1467.8,1082.67 1459.4,1086.59C1458.04,1083.83 1456.39,1081.8 1453.15,1081.29C1456.39,1069 1437.57,1068.34 1431.53,1073.45C1437.3,1072.67 1447.96,1073.79 1444.98,1079.67C1441.47,1079.93 1439.25,1082.7 1438.02,1084.05C1426.31,1082.15 1419.94,1097.09 1429.13,1101.76C1425.25,1092.16 1432.67,1089.79 1437.54,1090.51Z" style="fill:none;stroke:black;stroke-width:0.25px;"/>
                <path d="M1431.38,1102.28C1431.38,1103.34 1430.48,1104.21 1429.37,1104.21C1428.26,1104.21 1427.36,1103.34 1427.36,1102.28C1427.36,1101.21 1428.26,1100.35 1429.37,1100.35C1430.48,1100.35 1431.38,1101.21 1431.38,1102.28Z" style="fill:white;fill-rule:nonzero;"/>
                <path d="M1431.38,1102.28C1431.38,1103.34 1430.48,1104.21 1429.37,1104.21C1428.26,1104.21 1427.36,1103.34 1427.36,1102.28C1427.36,1101.21 1428.26,1100.35 1429.37,1100.35C1430.48,1100.35 1431.38,1101.21 1431.38,1102.28Z" style="fill:none;stroke:black;stroke-width:0.25px;"/>
                <path d="M1432.34,1073.91C1432.34,1074.97 1431.44,1075.84 1430.33,1075.84C1429.22,1075.84 1428.32,1074.97 1428.32,1073.91C1428.32,1072.84 1429.22,1071.97 1430.33,1071.97C1431.44,1071.97 1432.34,1072.84 1432.34,1073.91Z" style="fill:white;fill-rule:nonzero;"/>
                <path d="M1432.34,1073.91C1432.34,1074.97 1431.44,1075.84 1430.33,1075.84C1429.22,1075.84 1428.32,1074.97 1428.32,1073.91C1428.32,1072.84 1429.22,1071.97 1430.33,1071.97C1431.44,1071.97 1432.34,1072.84 1432.34,1073.91Z" style="fill:none;stroke:black;stroke-width:0.25px;"/>
                <path d="M1466.21,1104.81C1466.21,1105.88 1465.31,1106.75 1464.2,1106.75C1463.09,1106.75 1462.19,1105.88 1462.19,1104.81C1462.19,1103.75 1463.09,1102.88 1464.2,1102.88C1465.31,1102.88 1466.21,1103.75 1466.21,1104.81Z" style="fill:white;fill-rule:nonzero;"/>
                <path d="M1466.21,1104.81C1466.21,1105.88 1465.31,1106.75 1464.2,1106.75C1463.09,1106.75 1462.19,1105.88 1462.19,1104.81C1462.19,1103.75 1463.09,1102.88 1464.2,1102.88C1465.31,1102.88 1466.21,1103.75 1466.21,1104.81Z" style="fill:none;stroke:black;stroke-width:0.25px;"/>
                <path d="M1444.57,1154.38C1441.63,1167.84 1446.69,1186.43 1449.53,1192.12C1450.92,1194.91 1447.59,1202.69 1447.19,1215.39C1447.06,1219.24 1445.41,1220.5 1446.75,1222.42C1447.65,1223.7 1454.74,1225.26 1456.61,1224.04C1455.94,1221.76 1453.06,1220.49 1453.67,1218.2C1454.35,1215.64 1458.23,1204.04 1459.23,1200.36C1459.81,1198.21 1460.12,1196.82 1460.65,1194.12C1461.07,1191.96 1460.68,1190.4 1460.85,1188.62C1461.38,1183 1461.8,1160.56 1461.47,1155.56L1444.57,1154.38Z" style="fill-rule:nonzero;"/>
                <path d="M1444.57,1154.38C1441.63,1167.84 1446.69,1186.43 1449.53,1192.12C1450.92,1194.91 1447.59,1202.69 1447.19,1215.39C1447.06,1219.24 1445.41,1220.5 1446.75,1222.42C1447.65,1223.7 1454.74,1225.26 1456.61,1224.04C1455.94,1221.76 1453.06,1220.49 1453.67,1218.2C1454.35,1215.64 1458.23,1204.04 1459.23,1200.36C1459.81,1198.21 1460.12,1196.82 1460.65,1194.12C1461.07,1191.96 1460.68,1190.4 1460.85,1188.62C1461.38,1183 1461.8,1160.56 1461.47,1155.56L1444.57,1154.38Z" style="fill:none;stroke:black;stroke-width:0.25px;"/>
                <path d="M1459.95,1219.51C1461.92,1218.64 1457.71,1217.24 1455.16,1219.06C1453.37,1220.35 1452.25,1221.81 1450.32,1221.55C1449.22,1221.41 1447.26,1219.19 1445.09,1218.19C1442.91,1217.19 1441.74,1217.35 1441.08,1218.32C1440.43,1219.29 1443.76,1218.08 1444.32,1219.96C1444.68,1221.21 1444.75,1222.64 1444.45,1223.93C1444.14,1225.21 1444.8,1227.84 1446.54,1228.31C1450.4,1229.36 1456.51,1226.58 1460.8,1227.36C1464.76,1228.08 1470.23,1229.48 1472.87,1227.9C1475.09,1226.57 1476.68,1221.27 1473.79,1219.44C1471.82,1218.18 1469.39,1220.67 1469.39,1220.67C1469.39,1220.67 1473.01,1220.07 1473.22,1221.87C1473.38,1223.17 1472.65,1224.9 1471.14,1224.97C1468.79,1225.09 1467.15,1223.28 1465.08,1222.69C1462.69,1222 1460.03,1220.36 1456.13,1220.97C1456.25,1218.95 1459.13,1219.87 1459.95,1219.51Z" style="fill:white;fill-rule:nonzero;"/>
                <path d="M1459.95,1219.51C1461.92,1218.64 1457.71,1217.24 1455.16,1219.06C1453.37,1220.35 1452.25,1221.81 1450.32,1221.55C1449.22,1221.41 1447.26,1219.19 1445.09,1218.19C1442.91,1217.19 1441.74,1217.35 1441.08,1218.32C1440.43,1219.29 1443.76,1218.08 1444.32,1219.96C1444.68,1221.21 1444.75,1222.64 1444.45,1223.93C1444.14,1225.21 1444.8,1227.84 1446.54,1228.31C1450.4,1229.36 1456.51,1226.58 1460.8,1227.36C1464.76,1228.08 1470.23,1229.48 1472.87,1227.9C1475.09,1226.57 1476.68,1221.27 1473.79,1219.44C1471.82,1218.18 1469.39,1220.67 1469.39,1220.67C1469.39,1220.67 1473.01,1220.07 1473.22,1221.87C1473.38,1223.17 1472.65,1224.9 1471.14,1224.97C1468.79,1225.09 1467.15,1223.28 1465.08,1222.69C1462.69,1222 1460.03,1220.36 1456.13,1220.97C1456.25,1218.95 1459.13,1219.87 1459.95,1219.51Z" style="fill:none;stroke:black;stroke-width:0.25px;"/>
                <path d="M1448.04,1155.79C1445.26,1167.92 1433.29,1183.85 1428.42,1187.75C1426.04,1189.66 1432.57,1192.8 1435.6,1209.96C1436.27,1213.74 1437.77,1215.28 1436.21,1216.92C1435.17,1218.02 1429.63,1218.78 1427.89,1217.26C1428.81,1215.16 1430.41,1213.68 1429.18,1211.61C1428.18,1209.92 1420.29,1195.58 1419.4,1193.08C1419.02,1192.01 1416.44,1189.2 1416.45,1185.9C1416.45,1184 1417.96,1181.55 1418.3,1180.32C1419.79,1174.91 1431.44,1151.85 1432.16,1149.42L1448.04,1155.79Z" style="fill:rgb(200,0,0);fill-rule:nonzero;"/>
                <path d="M1448.04,1155.79C1445.26,1167.92 1433.29,1183.85 1428.42,1187.75C1426.04,1189.66 1432.57,1192.8 1435.6,1209.96C1436.27,1213.74 1437.77,1215.28 1436.21,1216.92C1435.17,1218.02 1429.63,1218.78 1427.89,1217.26C1428.81,1215.16 1430.41,1213.68 1429.18,1211.61C1428.18,1209.92 1420.29,1195.58 1419.4,1193.08C1419.02,1192.01 1416.44,1189.2 1416.45,1185.9C1416.45,1184 1417.96,1181.55 1418.3,1180.32C1419.79,1174.91 1431.44,1151.85 1432.16,1149.42L1448.04,1155.79Z" style="fill:none;stroke:black;stroke-width:0.25px;"/>
                <path d="M1423.03,1215.1C1420.88,1214.63 1424.69,1212.47 1427.63,1213.76C1429.69,1214.68 1431.15,1215.88 1432.98,1215.26C1434.02,1214.92 1435.42,1212.39 1437.32,1211.01C1439.22,1209.63 1440.41,1209.56 1441.29,1210.39C1442.16,1211.2 1438.6,1210.66 1438.5,1212.59C1438.44,1213.88 1438.71,1215.28 1439.31,1216.47C1439.92,1217.66 1439.9,1220.34 1438.31,1221.12C1434.75,1222.87 1428.09,1221.33 1424.06,1222.89C1420.34,1224.34 1415.3,1226.72 1412.33,1225.69C1409.82,1224.82 1407,1219.97 1409.4,1217.64C1411.04,1216.05 1414.02,1218.01 1414.02,1218.01C1414.02,1218.01 1410.33,1218.11 1410.54,1219.9C1410.7,1221.18 1411.83,1222.73 1413.32,1222.52C1415.67,1222.19 1416.85,1220.13 1418.73,1219.16C1420.93,1218.04 1423.15,1215.94 1427.13,1215.8C1426.53,1213.86 1423.92,1215.3 1423.03,1215.1Z" style="fill:white;fill-rule:nonzero;"/>
                <path d="M1423.03,1215.1C1420.88,1214.63 1424.69,1212.47 1427.63,1213.76C1429.69,1214.68 1431.15,1215.88 1432.98,1215.26C1434.02,1214.92 1435.42,1212.39 1437.32,1211.01C1439.22,1209.63 1440.41,1209.56 1441.29,1210.39C1442.16,1211.2 1438.6,1210.66 1438.5,1212.59C1438.44,1213.88 1438.71,1215.28 1439.31,1216.47C1439.92,1217.66 1439.9,1220.34 1438.31,1221.12C1434.75,1222.87 1428.09,1221.33 1424.06,1222.89C1420.34,1224.34 1415.3,1226.72 1412.33,1225.69C1409.82,1224.82 1407,1219.97 1409.4,1217.64C1411.04,1216.05 1414.02,1218.01 1414.02,1218.01C1414.02,1218.01 1410.33,1218.11 1410.54,1219.9C1410.7,1221.18 1411.83,1222.73 1413.32,1222.52C1415.67,1222.19 1416.85,1220.13 1418.73,1219.16C1420.93,1218.04 1423.15,1215.94 1427.13,1215.8C1426.53,1213.86 1423.92,1215.3 1423.03,1215.1Z" style="fill:none;stroke:black;stroke-width:0.25px;"/>
                <path d="M1498.6,1131.66C1501.49,1128.06 1504.52,1130.44 1506.83,1128.3C1508.84,1126.45 1509.09,1124.01 1509.09,1124.01C1509.09,1124.01 1510.53,1122.7 1510.32,1120.8C1510.19,1119.58 1510.13,1118.69 1509.12,1119.04C1508.51,1119.26 1507.82,1120.32 1507.33,1121.27C1507.01,1121.9 1506.49,1122.33 1505.93,1122.68C1505.4,1122.99 1505.02,1123.53 1502.77,1124.33C1501.58,1124.31 1503.56,1121.15 1502.46,1121.19C1501.37,1121.24 1501.15,1123.23 1499.88,1124.78C1498.98,1125.89 1498.65,1124.93 1496.82,1128.38C1500.13,1130.58 1497.7,1130.9 1498.6,1131.66Z" style="fill:white;fill-rule:nonzero;"/>
                <path d="M1498.6,1131.66C1501.49,1128.06 1504.52,1130.44 1506.83,1128.3C1508.84,1126.45 1509.09,1124.01 1509.09,1124.01C1509.09,1124.01 1510.53,1122.7 1510.32,1120.8C1510.19,1119.58 1510.13,1118.69 1509.12,1119.04C1508.51,1119.26 1507.82,1120.32 1507.33,1121.27C1507.01,1121.9 1506.49,1122.33 1505.93,1122.68C1505.4,1122.99 1505.02,1123.53 1502.77,1124.33C1501.58,1124.31 1503.56,1121.15 1502.46,1121.19C1501.37,1121.24 1501.15,1123.23 1499.88,1124.78C1498.98,1125.89 1498.65,1124.93 1496.82,1128.38C1500.13,1130.58 1497.7,1130.9 1498.6,1131.66Z" style="fill:none;stroke:black;stroke-width:0.25px;"/>
                <path d="M1502.77,1124.33C1502.26,1124.4 1501.79,1124.91 1501.79,1124.91" style="fill:none;stroke:black;stroke-width:0.25px;"/>
                <path d="M1510.23,1120.21C1510.09,1118.9 1509.36,1119.13 1509.18,1119.55C1508.96,1120.06 1509.35,1122.5 1509.08,1124.05" style="fill:none;stroke:black;stroke-width:0.25px;"/>
                <path d="M1509.13,1121.17C1509.1,1120.47 1508.38,1119.84 1508.1,1120.6C1507.82,1121.37 1508.18,1122.92 1507.56,1124.17C1507.2,1124.91 1507.13,1125.54 1506.66,1126.01" style="fill:none;stroke:black;stroke-width:0.25px;"/>
                <path d="M1504.46,1123.62C1505.77,1123.37 1506.42,1123.61 1506.42,1123.61" style="fill:none;stroke:black;stroke-width:0.25px;"/>
                <path d="M1502.54,1127.12C1501.88,1127.12 1500.39,1127.2 1500.11,1127.97" style="fill:none;stroke:black;stroke-width:0.25px;"/>
                <path d="M1507.94,1122.35C1507.8,1122.83 1507.44,1122.99 1507.12,1123.38" style="fill:none;stroke:black;stroke-width:0.25px;"/>
                <path d="M1407.83,1154.43C1403.87,1156.81 1405.81,1160.13 1403.38,1162.13C1401.27,1163.87 1398.82,1163.79 1398.82,1163.79C1398.82,1163.79 1397.33,1165.03 1395.48,1164.57C1394.28,1164.27 1393.41,1164.09 1393.9,1163.14C1394.2,1162.56 1395.34,1162.02 1396.35,1161.67C1397.01,1161.44 1397.51,1160.98 1397.93,1160.47C1398.32,1159.99 1398.9,1159.69 1400,1157.57C1400.14,1156.38 1396.74,1157.92 1396.94,1156.83C1397.13,1155.76 1399.13,1155.81 1400.84,1154.77C1402.06,1154.02 1401.15,1153.56 1404.82,1152.22C1406.55,1155.8 1407.19,1153.44 1407.83,1154.43Z" style="fill:white;fill-rule:nonzero;"/>
                <path d="M1407.83,1154.43C1403.87,1156.81 1405.81,1160.13 1403.38,1162.13C1401.27,1163.87 1398.82,1163.79 1398.82,1163.79C1398.82,1163.79 1397.33,1165.03 1395.48,1164.57C1394.28,1164.27 1393.41,1164.09 1393.9,1163.14C1394.2,1162.56 1395.34,1162.02 1396.35,1161.67C1397.01,1161.44 1397.51,1160.98 1397.93,1160.47C1398.32,1159.99 1398.9,1159.69 1400,1157.57C1400.14,1156.38 1396.74,1157.92 1396.94,1156.83C1397.13,1155.76 1399.13,1155.81 1400.84,1154.77C1402.06,1154.02 1401.15,1153.56 1404.82,1152.22C1406.55,1155.8 1407.19,1153.44 1407.83,1154.43Z" style="fill:none;stroke:black;stroke-width:0.25px;"/>
                <path d="M1400,1157.57C1400.14,1157.07 1400.71,1156.67 1400.71,1156.67" style="fill:none;stroke:black;stroke-width:0.25px;"/>
                <path d="M1394.9,1164.4C1393.63,1164.08 1393.95,1163.39 1394.4,1163.26C1394.93,1163.11 1397.3,1163.84 1398.86,1163.78" style="fill:none;stroke:black;stroke-width:0.25px;"/>
                <path d="M1396,1163.43C1395.31,1163.31 1394.79,1162.51 1395.58,1162.34C1396.38,1162.17 1397.87,1162.73 1399.18,1162.29C1399.97,1162.03 1400.61,1162.04 1401.13,1161.65" style="fill:none;stroke:black;stroke-width:0.25px;"/>
                <path d="M1399.07,1159.14C1398.64,1160.41 1398.79,1161.08 1398.79,1161.08" style="fill:none;stroke:black;stroke-width:0.25px;"/>
                <path d="M1402.79,1157.72C1402.88,1157.07 1403.17,1155.6 1403.97,1155.42" style="fill:none;stroke:black;stroke-width:0.25px;"/>
                <path d="M1397.34,1162.42C1397.83,1162.34 1398.04,1162.01 1398.46,1161.75" style="fill:none;stroke:black;stroke-width:0.25px;"/>
                <path d="M1491.13,1112.76L1502.08,1108.91L1502.7,1107.15L1491.86,1111.16L1491.13,1112.76Z" style="fill:white;fill-rule:nonzero;"/>
                <path d="M1491.13,1112.76L1502.08,1108.91L1502.7,1107.15L1491.86,1111.16L1491.13,1112.76Z" style="fill:none;stroke:black;stroke-width:0.25px;"/>
                <path d="M1488.25,1101.05L1498.55,1095.7L1498.92,1093.87L1488.74,1099.36L1488.25,1101.05Z" style="fill:white;fill-rule:nonzero;"/>
                <path d="M1488.25,1101.05L1498.55,1095.7L1498.92,1093.87L1488.74,1099.36L1488.25,1101.05Z" style="fill:none;stroke:black;stroke-width:0.25px;"/>
                <path d="M1483.15,1088.08L1492.84,1081.69L1493.02,1079.84L1483.47,1086.35L1483.15,1088.08Z" style="fill:white;fill-rule:nonzero;"/>
                <path d="M1483.15,1088.08L1492.84,1081.69L1493.02,1079.84L1483.47,1086.35L1483.15,1088.08Z" style="fill:none;stroke:black;stroke-width:0.25px;"/>
                <path d="M1477.25,1078.29L1486.13,1071.04L1485.66,1069.02L1476.68,1076.31L1477.25,1078.29Z" style="fill:white;fill-rule:nonzero;"/>
                <path d="M1477.25,1078.29L1486.13,1071.04L1485.66,1069.02L1476.68,1076.31L1477.25,1078.29Z" style="fill:none;stroke:black;stroke-width:0.25px;"/>
                <path d="M1469.04,1070.67L1474.46,1060.46L1472.41,1058.45L1466.91,1068.62L1469.04,1070.67Z" style="fill:white;fill-rule:nonzero;"/>
                <path d="M1469.04,1070.67L1474.46,1060.46L1472.41,1058.45L1466.91,1068.62L1469.04,1070.67Z" style="fill:none;stroke:black;stroke-width:0.25px;"/>
                <path d="M1458.91,1065.89L1451.94,1063.67L1455.72,1051.82L1462.68,1054.04L1458.91,1065.89Z" style="fill:white;fill-rule:nonzero;"/>
                <path d="M1458.91,1065.89L1451.94,1063.67L1455.72,1051.82L1462.68,1054.04L1458.91,1065.89Z" style="fill:none;stroke:black;stroke-width:0.25px;"/>
                <path d="M1442.31,1063.26L1435,1063.38L1434.81,1050.94L1442.12,1050.83L1442.31,1063.26Z" style="fill:white;fill-rule:nonzero;"/>
                <path d="M1442.31,1063.26L1435,1063.38L1434.81,1050.94L1442.12,1050.83L1442.31,1063.26Z" style="fill:none;stroke:black;stroke-width:0.25px;"/>
                <path d="M1427.2,1065.26L1421.07,1069.25L1414.3,1058.82L1420.43,1054.83L1427.2,1065.26Z" style="fill:white;fill-rule:nonzero;"/>
                <path d="M1427.2,1065.26L1421.07,1069.25L1414.3,1058.82L1420.43,1054.83L1427.2,1065.26Z" style="fill:none;stroke:black;stroke-width:0.25px;"/>
                <path d="M1415.2,1074.94L1411.15,1081.03L1400.8,1074.14L1404.85,1068.05L1415.2,1074.94Z" style="fill:white;fill-rule:nonzero;"/>
                <path d="M1415.2,1074.94L1411.15,1081.03L1400.8,1074.14L1404.85,1068.05L1415.2,1074.94Z" style="fill:none;stroke:black;stroke-width:0.25px;"/>
                <path d="M1410.18,1076.36C1409.95,1076.31 1409.75,1076.32 1409.44,1076.35C1409.08,1076.39 1407.91,1076.63 1407.41,1076.66C1407.04,1076.69 1406.41,1076.7 1405.67,1076.19C1405.38,1076 1404.68,1075.51 1404.74,1074.55C1404.77,1074.13 1405.11,1073.64 1405.63,1073.54C1406.19,1073.43 1406.58,1073.65 1406.58,1073.65C1406.58,1073.65 1406.19,1073.16 1406.21,1072.74C1406.22,1072.47 1406.25,1072.12 1406.67,1071.79C1407.24,1071.33 1407.98,1071.48 1408.6,1071.94C1409.24,1072.41 1409.59,1072.82 1409.74,1073.82C1409.85,1074.52 1409.88,1075.18 1410.02,1075.85C1410.08,1076.1 1410.08,1076.17 1410.18,1076.36Z" style="fill:rgb(200,0,0);fill-rule:nonzero;"/>
                <path d="M1438.52,1060.21C1439.02,1059.38 1440.32,1057.93 1441.15,1057.34C1440.31,1056.75 1439,1055.32 1438.49,1054.49C1438,1055.33 1436.7,1056.77 1435.87,1057.37C1436.71,1057.95 1438.02,1059.38 1438.52,1060.21Z" style="fill:rgb(200,0,0);fill-rule:nonzero;"/>
                <path d="M1421.91,1060.23C1421.55,1060.39 1421.29,1060.93 1421.12,1061.44C1421.19,1060.86 1421.22,1060.09 1420.94,1059.68C1420.44,1058.98 1419.52,1058.77 1418.89,1059.22C1418.25,1059.66 1418.14,1060.6 1418.64,1061.3C1418.92,1061.71 1419.66,1061.94 1420.23,1062.06C1419.7,1062.05 1419.09,1062.11 1418.82,1062.4C1418.28,1062.96 1418.33,1063.91 1418.93,1064.53C1419.53,1065.14 1420.45,1065.19 1420.99,1064.62C1421.32,1064.28 1421.33,1063.45 1421.28,1062.84C1421.6,1063.5 1422.03,1064.42 1422.19,1064.97C1422.63,1064.65 1422.69,1064.61 1422.69,1064.61C1422.69,1064.61 1422.74,1064.57 1423.19,1064.26C1422.73,1063.93 1422,1063.21 1421.49,1062.69C1422.05,1062.94 1422.84,1063.21 1423.27,1063.02C1423.98,1062.7 1424.25,1061.82 1423.88,1061.05C1423.5,1060.28 1422.62,1059.91 1421.91,1060.23Z" style="fill-rule:nonzero;"/>
                <path d="M1459.55,1057.65C1459.28,1057.05 1458.83,1056.3 1458.27,1055.76C1457.51,1055.86 1456.69,1056.2 1456.12,1056.51C1455.3,1056.97 1454.93,1057.45 1454.72,1058.09C1454.53,1058.71 1454.66,1059.36 1455.3,1059.74C1455.76,1060.01 1456.09,1059.96 1456.35,1059.91C1456.58,1059.86 1456.79,1059.69 1456.92,1059.56C1456.67,1060 1456.26,1060.68 1455.98,1061.01C1456.42,1061.15 1456.48,1061.18 1456.48,1061.18C1456.48,1061.18 1456.54,1061.19 1456.98,1061.34C1456.94,1060.91 1457.03,1060.12 1457.09,1059.61C1457.11,1059.8 1457.18,1060.06 1457.34,1060.24C1457.51,1060.43 1457.75,1060.67 1458.28,1060.73C1459.02,1060.81 1459.51,1060.36 1459.72,1059.75C1459.94,1059.11 1459.94,1058.51 1459.55,1057.65Z" style="fill-rule:nonzero;"/>
                <path d="M1461.18,1108.85C1464.33,1108.95 1467.7,1113.48 1469.16,1116.26C1471.16,1120.06 1474.63,1125.16 1477.36,1134.07C1478.2,1136.83 1486.08,1130.76 1497,1126.96C1500.26,1128.36 1499.43,1128.86 1499.75,1131.46C1493.03,1135.26 1478.2,1144.78 1473.79,1144.17C1471.14,1143.81 1468.7,1136.79 1466.64,1132.87C1464.33,1128.47 1462.97,1123.66 1460.76,1122.81C1457.09,1118.96 1460.4,1110.85 1461.18,1108.85Z" style="fill-rule:nonzero;"/>
                <path d="M1461.18,1108.85C1464.33,1108.95 1467.7,1113.48 1469.16,1116.26C1471.16,1120.06 1474.63,1125.16 1477.36,1134.07C1478.2,1136.83 1486.08,1130.76 1497,1126.96C1500.26,1128.36 1499.43,1128.86 1499.75,1131.46C1493.03,1135.26 1478.2,1144.78 1473.79,1144.17C1471.14,1143.81 1468.7,1136.79 1466.64,1132.87C1464.33,1128.47 1462.97,1123.66 1460.76,1122.81C1457.09,1118.96 1460.4,1110.85 1461.18,1108.85Z" style="fill:none;stroke:black;stroke-width:0.25px;"/>
                <path d="M1435.22,1109.9C1433.35,1109.75 1430.99,1110.5 1428.15,1113.26C1423.32,1117.96 1419.73,1135.84 1417.49,1137.67C1414.66,1140 1407.42,1148.33 1404,1151.18C1401.48,1153.28 1407.58,1158.55 1408.88,1157.08C1413.5,1151.88 1420.12,1146.05 1421.7,1145.08C1424.3,1143.46 1424.77,1140.89 1425.9,1139.67C1429.05,1136.27 1430.78,1127.76 1431.65,1122.59C1436.45,1119.21 1435.3,1113.43 1435.22,1109.9Z" style="fill:rgb(200,0,0);fill-rule:nonzero;"/>
                <path d="M1435.22,1109.9C1433.35,1109.75 1430.99,1110.5 1428.15,1113.26C1423.32,1117.96 1419.73,1135.84 1417.49,1137.67C1414.66,1140 1407.42,1148.33 1404,1151.18C1401.48,1153.28 1407.58,1158.55 1408.88,1157.08C1413.5,1151.88 1420.12,1146.05 1421.7,1145.08C1424.3,1143.46 1424.77,1140.89 1425.9,1139.67C1429.05,1136.27 1430.78,1127.76 1431.65,1122.59C1436.45,1119.21 1435.3,1113.43 1435.22,1109.9Z" style="fill:none;stroke:black;stroke-width:0.25px;"/>
                <path d="M1447.22,1111.65C1449.5,1109.78 1451.69,1107.5 1452.44,1107.5C1453.27,1107.5 1458.03,1107.75 1461.26,1108.68C1461.68,1113.68 1458.03,1119.26 1460.97,1122.86C1459.5,1126.16 1458.03,1128.87 1457.72,1132.27C1457.31,1136.68 1456.46,1140.37 1457.91,1147.13C1458.08,1147.9 1448.97,1148.74 1445.15,1148.85C1444.27,1133.87 1444.28,1128.56 1447.22,1111.65Z" style="fill:rgb(200,0,0);fill-rule:nonzero;"/>
                <path d="M1447.22,1111.65C1449.5,1109.78 1451.69,1107.5 1452.44,1107.5C1453.27,1107.5 1458.03,1107.75 1461.26,1108.68C1461.68,1113.68 1458.03,1119.26 1460.97,1122.86C1459.5,1126.16 1458.03,1128.87 1457.72,1132.27C1457.31,1136.68 1456.46,1140.37 1457.91,1147.13C1458.08,1147.9 1448.97,1148.74 1445.15,1148.85C1444.27,1133.87 1444.28,1128.56 1447.22,1111.65Z" style="fill:none;stroke:black;stroke-width:0.25px;"/>
                <path d="M1445.19,1148.96C1438.3,1149.3 1430.8,1147.3 1431.06,1146.6C1432.72,1142.07 1429.36,1130.46 1431.57,1122.56C1435.24,1119.56 1434.82,1114.26 1435.14,1109.75C1443.64,1107.2 1444.85,1109.4 1447.22,1111.65C1444.8,1126.66 1444.9,1132.07 1445.19,1148.96Z" style="fill-rule:nonzero;"/>
                <path d="M1445.19,1148.96C1438.3,1149.3 1430.8,1147.3 1431.06,1146.6C1432.72,1142.07 1429.36,1130.46 1431.57,1122.56C1435.24,1119.56 1434.82,1114.26 1435.14,1109.75C1443.64,1107.2 1444.85,1109.4 1447.22,1111.65C1444.8,1126.66 1444.9,1132.07 1445.19,1148.96Z" style="fill:none;stroke:black;stroke-width:0.25px;"/>
                <path d="M1441.86,1108.15C1442.29,1106.5 1443.33,1106.05 1443.85,1106.95C1444.38,1107.85 1445.22,1109.25 1446.48,1110.05C1447.74,1110.85 1447.32,1111.05 1447.22,1111.85C1447.11,1112.66 1441.44,1109.75 1441.86,1108.15Z" style="fill:rgb(200,0,0);fill-rule:nonzero;"/>
                <path d="M1441.86,1108.15C1442.29,1106.5 1443.33,1106.05 1443.85,1106.95C1444.38,1107.85 1445.22,1109.25 1446.48,1110.05C1447.74,1110.85 1447.32,1111.05 1447.22,1111.85C1447.11,1112.66 1441.44,1109.75 1441.86,1108.15Z" style="fill:none;stroke:black;stroke-width:0.25px;"/>
                <path d="M1452.36,1106.25C1452.77,1105.57 1455.2,1107.15 1454.78,1107.95C1454.36,1108.75 1446.91,1112.92 1447.12,1111.82C1447.33,1110.72 1447.37,1110.8 1448.11,1110.2C1448.84,1109.6 1451.52,1107.65 1452.36,1106.25Z" style="fill-rule:nonzero;"/>
                <path d="M1452.36,1106.25C1452.77,1105.57 1455.2,1107.15 1454.78,1107.95C1454.36,1108.75 1446.91,1112.92 1447.12,1111.82C1447.33,1110.72 1447.37,1110.8 1448.11,1110.2C1448.84,1109.6 1451.52,1107.65 1452.36,1106.25Z" style="fill:none;stroke:black;stroke-width:0.25px;"/>
                <path d="M1431.15,1146.08C1429.1,1155.67 1419.25,1158.71 1419.36,1167.41C1424.93,1160.21 1431.46,1162.38 1434.4,1156.18C1432.3,1159.38 1430.97,1170.54 1429.78,1173.09C1435.87,1172.19 1438.05,1162.12 1441.65,1157.88C1437.24,1164.68 1444.59,1167.49 1444.59,1174.39C1448.79,1168.99 1445.64,1162.47 1448.37,1157.98C1449.84,1164.18 1453.41,1167.79 1456.04,1172.59C1458.45,1166.98 1456.26,1158.88 1456.56,1157.18C1457.82,1162.38 1462.34,1167.99 1466.43,1170.39C1462.65,1158.88 1465.67,1157.4 1457.61,1146.47C1453.17,1148 1448.2,1148.46 1445.22,1148.46C1442.25,1148.46 1434.71,1148.34 1431.15,1146.08Z" style="fill:white;fill-rule:nonzero;"/>
                <path d="M1431.15,1146.08C1429.1,1155.67 1419.25,1158.71 1419.36,1167.41C1424.93,1160.21 1431.46,1162.38 1434.4,1156.18C1432.3,1159.38 1430.97,1170.54 1429.78,1173.09C1435.87,1172.19 1438.05,1162.12 1441.65,1157.88C1437.24,1164.68 1444.59,1167.49 1444.59,1174.39C1448.79,1168.99 1445.64,1162.47 1448.37,1157.98C1449.84,1164.18 1453.41,1167.79 1456.04,1172.59C1458.45,1166.98 1456.26,1158.88 1456.56,1157.18C1457.82,1162.38 1462.34,1167.99 1466.43,1170.39C1462.65,1158.88 1465.67,1157.4 1457.61,1146.47C1453.17,1148 1448.2,1148.46 1445.22,1148.46C1442.25,1148.46 1434.71,1148.34 1431.15,1146.08Z" style="fill:none;stroke:black;stroke-width:0.25px;"/>
                <path d="M1421.04,1167.46C1421.04,1168.39 1420.25,1169.14 1419.28,1169.14C1418.31,1169.14 1417.52,1168.39 1417.52,1167.46C1417.52,1166.54 1418.31,1165.79 1419.28,1165.79C1420.25,1165.79 1421.04,1166.54 1421.04,1167.46Z" style="fill:white;fill-rule:nonzero;"/>
                <path d="M1421.04,1167.46C1421.04,1168.39 1420.25,1169.14 1419.28,1169.14C1418.31,1169.14 1417.52,1168.39 1417.52,1167.46C1417.52,1166.54 1418.31,1165.79 1419.28,1165.79C1420.25,1165.79 1421.04,1166.54 1421.04,1167.46Z" style="fill:none;stroke:black;stroke-width:0.25px;"/>
                <path d="M1419.49,1165.79C1419.79,1166.11 1419.61,1166.46 1419.61,1166.46C1419.61,1166.46 1419.83,1166.11 1420.24,1166.09C1419.98,1165.96 1419.79,1165.84 1419.49,1165.79Z" style="fill-rule:nonzero;"/>
                <path d="M1431.02,1174.39C1430.8,1175.29 1429.86,1175.86 1428.91,1175.65C1427.97,1175.44 1427.38,1174.54 1427.6,1173.64C1427.81,1172.74 1428.76,1172.17 1429.71,1172.38C1430.65,1172.59 1431.24,1173.49 1431.02,1174.39Z" style="fill:white;fill-rule:nonzero;"/>
                <path d="M1431.02,1174.39C1430.8,1175.29 1429.86,1175.86 1428.91,1175.65C1427.97,1175.44 1427.38,1174.54 1427.6,1173.64C1427.81,1172.74 1428.76,1172.17 1429.71,1172.38C1430.65,1172.59 1431.24,1173.49 1431.02,1174.39Z" style="fill:none;stroke:black;stroke-width:0.25px;"/>
                <path d="M1429.91,1172.43C1430.12,1172.8 1429.87,1173.11 1429.87,1173.11C1429.87,1173.11 1430.16,1172.81 1430.57,1172.88C1430.35,1172.7 1430.18,1172.55 1429.91,1172.43Z" style="fill-rule:nonzero;"/>
                <path d="M1446,1175.21C1446.04,1176.14 1445.27,1176.91 1444.31,1176.94C1443.33,1176.97 1442.52,1176.25 1442.49,1175.32C1442.46,1174.4 1443.22,1173.62 1444.19,1173.59C1445.16,1173.56 1445.97,1174.29 1446,1175.21Z" style="fill:white;fill-rule:nonzero;"/>
                <path d="M1446,1175.21C1446.04,1176.14 1445.27,1176.91 1444.31,1176.94C1443.33,1176.97 1442.52,1176.25 1442.49,1175.32C1442.46,1174.4 1443.22,1173.62 1444.19,1173.59C1445.16,1173.56 1445.97,1174.29 1446,1175.21Z" style="fill:none;stroke:black;stroke-width:0.25px;"/>
                <path d="M1444.4,1173.59C1444.71,1173.9 1444.54,1174.26 1444.54,1174.26C1444.54,1174.26 1444.75,1173.9 1445.16,1173.87C1444.9,1173.74 1444.7,1173.63 1444.4,1173.59Z" style="fill-rule:nonzero;"/>
                <path d="M1457.63,1172.81C1457.97,1173.68 1457.5,1174.64 1456.59,1174.96C1455.68,1175.28 1454.67,1174.84 1454.33,1173.97C1454,1173.1 1454.46,1172.14 1455.38,1171.82C1456.29,1171.5 1457.3,1171.94 1457.63,1172.81Z" style="fill:white;fill-rule:nonzero;"/>
                <path d="M1457.63,1172.81C1457.97,1173.68 1457.5,1174.64 1456.59,1174.96C1455.68,1175.28 1454.67,1174.84 1454.33,1173.97C1454,1173.1 1454.46,1172.14 1455.38,1171.82C1456.29,1171.5 1457.3,1171.94 1457.63,1172.81Z" style="fill:none;stroke:black;stroke-width:0.25px;"/>
                <path d="M1455.57,1171.75C1455.97,1171.95 1455.93,1172.34 1455.93,1172.34C1455.93,1172.34 1456,1171.94 1456.38,1171.79C1456.09,1171.75 1455.87,1171.71 1455.57,1171.75Z" style="fill-rule:nonzero;"/>
                <path d="M1467.86,1169.56C1468.74,1169.97 1469.1,1170.97 1468.67,1171.8C1468.24,1172.63 1467.19,1172.98 1466.32,1172.57C1465.45,1172.16 1465.08,1171.16 1465.51,1170.33C1465.94,1169.5 1466.99,1169.15 1467.86,1169.56Z" style="fill:white;fill-rule:nonzero;"/>
                <path d="M1467.86,1169.56C1468.74,1169.97 1469.1,1170.97 1468.67,1171.8C1468.24,1172.63 1467.19,1172.98 1466.32,1172.57C1465.45,1172.16 1465.08,1171.16 1465.51,1170.33C1465.94,1169.5 1466.99,1169.15 1467.86,1169.56Z" style="fill:none;stroke:black;stroke-width:0.25px;"/>
                <path d="M1465.6,1170.15C1466.04,1170.04 1466.29,1170.34 1466.29,1170.34C1466.29,1170.34 1466.05,1170 1466.22,1169.64C1465.98,1169.8 1465.79,1169.92 1465.6,1170.15Z" style="fill-rule:nonzero;"/>
                <path d="M1478.2,1134.37C1477.78,1134.97 1476.41,1135.97 1475.57,1136.17" style="fill:none;stroke:black;stroke-width:0.15px;"/>
                <path d="M1478.83,1134.77C1478.72,1135.57 1478.41,1136.47 1477.88,1136.97" style="fill:none;stroke:black;stroke-width:0.15px;"/>
                <path d="M1457.04,1132.72C1456.19,1132.52 1455.62,1132.07 1455.41,1131.67" style="fill:none;stroke:black;stroke-width:0.15px;"/>
                <path d="M1456.98,1134.57C1456.04,1134.37 1455.72,1133.77 1455.3,1133.67" style="fill:none;stroke:black;stroke-width:0.15px;"/>
                <path d="M1456.88,1130.87C1456.35,1130.46 1456.14,1130.46 1455.83,1129.86" style="fill:none;stroke:black;stroke-width:0.15px;"/>
                <path d="M1439.86,1171.89C1439.55,1171.89 1438.39,1170.79 1438.18,1170.49" style="fill:none;stroke:black;stroke-width:0.15px;"/>
                <path d="M1439.34,1172.89C1438.81,1172.59 1437.97,1171.59 1437.66,1171.29" style="fill:none;stroke:black;stroke-width:0.15px;"/>
                <path d="M1438.71,1173.39C1438.08,1172.99 1437.55,1172.39 1437.24,1171.89" style="fill:none;stroke:black;stroke-width:0.15px;"/>
                <path d="M1437.66,1174.09C1437.13,1173.49 1436.82,1172.89 1436.82,1172.89" style="fill:none;stroke:black;stroke-width:0.15px;"/>
                <path d="M1440.18,1170.99L1439.34,1170.29" style="fill:none;stroke:black;stroke-width:0.15px;"/>
                <path d="M1418.02,1136.92L1419.28,1137.67" style="fill:none;stroke:black;stroke-width:0.15px;"/>
                <path d="M1417.39,1221.57C1418.18,1222.02 1419.6,1222.92 1419.6,1222.92" style="fill:none;stroke:black;stroke-width:0.15px;"/>
                <path d="M1417.86,1223.37L1416.29,1222.47" style="fill:none;stroke:black;stroke-width:0.15px;"/>
                <path d="M1419.6,1221.27L1418.33,1220.37" style="fill:none;stroke:black;stroke-width:0.15px;"/>
                <path d="M1467.96,1224.87L1466.85,1225.77" style="fill:none;stroke:black;stroke-width:0.15px;"/>
                <path d="M1469.37,1225.77L1467.64,1226.97" style="fill:none;stroke:black;stroke-width:0.15px;"/>
                <path d="M1430.94,1217.22C1430.94,1217.22 1433.3,1217.97 1434.88,1217.07" style="fill:none;stroke:black;stroke-width:0.15px;"/>
                <path d="M1452.2,1224.12C1452.2,1224.12 1449.05,1225.92 1447.48,1224.12" style="fill:none;stroke:black;stroke-width:0.15px;"/>
                <path d="M1426.21,1186.15L1428.1,1187.95" style="fill:none;stroke:black;stroke-width:0.15px;"/>
                <path d="M1427.79,1188.85L1425.74,1188.4" style="fill:none;stroke:black;stroke-width:0.15px;"/>
                <path d="M1511.17,1053.34C1508.6,1053.34 1506.87,1051.71 1506.87,1049.27L1508.47,1049.27C1508.47,1050.97 1509.48,1051.99 1511.17,1051.99C1511.83,1051.99 1512.47,1051.76 1512.92,1051.38C1513.41,1050.96 1513.66,1050.38 1513.65,1049.7C1513.64,1048.36 1513.65,1040.62 1513.65,1040.54L1515.25,1040.54C1515.25,1040.62 1515.24,1048.35 1515.25,1049.69C1515.27,1050.72 1514.84,1051.66 1514.06,1052.33C1513.31,1052.97 1512.26,1053.34 1511.17,1053.34Z" style="fill-rule:nonzero;"/>
                <path d="M1511.13,1057.11C1509.84,1057.11 1508.51,1057.71 1508.51,1062.15C1508.51,1065.84 1509.23,1067.28 1511.06,1067.28L1511.06,1067.96L1511.12,1067.28C1512.87,1067.26 1513.75,1065.53 1513.75,1062.15C1513.75,1058.81 1512.87,1057.11 1511.13,1057.11ZM1511.06,1068.64C1506.87,1068.64 1506.87,1064.26 1506.87,1062.15C1506.87,1060.24 1506.87,1055.75 1511.13,1055.75C1513.96,1055.75 1515.39,1057.91 1515.39,1062.15C1515.39,1066.42 1513.97,1068.6 1511.15,1068.64L1511.06,1068.64Z" style="fill-rule:nonzero;"/>
                <path d="M1509.41,1078.23L1513.75,1083.85L1515.46,1083.85L1510.43,1077.06L1515.1,1071.47L1513.43,1071.47L1508.37,1077.11L1508.37,1071.47L1506.77,1071.47L1506.77,1083.85L1508.37,1083.85L1508.37,1079.37L1508.42,1079.38L1509.41,1078.23Z" style="fill-rule:nonzero;"/>
                <path d="M1508.37,1098.1L1508.37,1093.72L1511.5,1093.72L1511.5,1092.37L1508.37,1092.37L1508.37,1087.92L1515.22,1087.92L1515.22,1086.56L1506.77,1086.56L1506.77,1099.45L1515.28,1099.45L1515.28,1098.1L1508.37,1098.1Z" style="fill-rule:nonzero;"/>
                <path d="M1508.37,1107.71L1508.37,1103.3L1510.99,1103.3C1511.52,1103.3 1512.27,1103.38 1512.81,1103.78C1513.29,1104.14 1513.53,1104.68 1513.53,1105.42C1513.53,1106.98 1512.01,1107.71 1510.99,1107.71C1510.3,1107.71 1508.99,1107.71 1508.37,1107.71ZM1515.1,1105.42C1515.1,1103.99 1514.42,1103.18 1513.84,1102.76C1513.12,1102.22 1512.14,1101.94 1510.99,1101.94L1506.77,1101.94L1506.77,1114.54L1508.37,1114.54L1508.37,1109.07C1508.93,1109.07 1510.06,1109.07 1510.77,1109.07L1513.53,1114.54L1515.2,1114.54L1512.37,1108.84C1513.85,1108.36 1515.1,1107.14 1515.1,1105.42Z" style="fill-rule:nonzero;"/>
                <path d="M1380.78,1053.34C1378.21,1053.34 1376.48,1051.71 1376.48,1049.27L1378.08,1049.27C1378.08,1050.97 1379.09,1051.99 1380.78,1051.99C1381.44,1051.99 1382.07,1051.76 1382.53,1051.38C1383.01,1050.96 1383.27,1050.38 1383.26,1049.7C1383.25,1048.36 1383.26,1040.62 1383.26,1040.54L1384.86,1040.54C1384.86,1040.62 1384.85,1048.35 1384.86,1049.69C1384.87,1050.72 1384.45,1051.66 1383.66,1052.33C1382.91,1052.97 1381.86,1053.34 1380.78,1053.34Z" style="fill-rule:nonzero;"/>
                <path d="M1380.74,1057.11C1379.44,1057.11 1378.12,1057.71 1378.12,1062.15C1378.12,1065.84 1378.83,1067.28 1380.67,1067.28L1380.67,1067.96L1380.72,1067.28C1382.47,1067.26 1383.36,1065.53 1383.36,1062.15C1383.36,1058.81 1382.48,1057.11 1380.74,1057.11ZM1380.67,1068.64C1376.48,1068.64 1376.48,1064.26 1376.48,1062.15C1376.48,1060.24 1376.48,1055.75 1380.74,1055.75C1383.57,1055.75 1385,1057.91 1385,1062.15C1385,1066.42 1383.57,1068.6 1380.75,1068.64L1380.67,1068.64Z" style="fill-rule:nonzero;"/>
                <path d="M1379.01,1078.23L1383.36,1083.85L1385.06,1083.85L1380.03,1077.06L1384.71,1071.47L1383.04,1071.47L1377.98,1077.11L1377.98,1071.47L1376.38,1071.47L1376.37,1083.85L1377.98,1083.85L1377.98,1079.37L1378.02,1079.38L1379.01,1078.23Z" style="fill-rule:nonzero;"/>
                <path d="M1377.98,1098.1L1377.98,1093.72L1381.1,1093.72L1381.1,1092.37L1377.98,1092.37L1377.98,1087.92L1384.83,1087.92L1384.83,1086.56L1376.37,1086.56L1376.37,1099.45L1384.88,1099.45L1384.88,1098.1L1377.98,1098.1Z" style="fill-rule:nonzero;"/>
                <path d="M1377.98,1107.71L1377.98,1103.3L1380.6,1103.3C1381.13,1103.3 1381.88,1103.38 1382.42,1103.78C1382.89,1104.14 1383.13,1104.68 1383.13,1105.42C1383.13,1106.98 1381.62,1107.71 1380.59,1107.71C1379.91,1107.71 1378.6,1107.71 1377.98,1107.71ZM1384.71,1105.42C1384.71,1103.99 1384.02,1103.18 1383.45,1102.76C1382.73,1102.22 1381.75,1101.94 1380.6,1101.94L1376.37,1101.94L1376.37,1114.54L1377.98,1114.54L1377.98,1109.07C1378.54,1109.07 1379.66,1109.07 1380.37,1109.07L1383.13,1114.54L1384.81,1114.54L1381.97,1108.84C1383.45,1108.36 1384.71,1107.14 1384.71,1105.42Z" style="fill-rule:nonzero;"/>
                <path d="M1380.66,1236.44C1383.23,1236.44 1384.96,1238.07 1384.96,1240.51L1383.36,1240.51C1383.36,1238.81 1382.35,1237.79 1380.66,1237.79C1380,1237.79 1379.36,1238.01 1378.91,1238.4C1378.42,1238.82 1378.17,1239.4 1378.18,1240.08C1378.19,1241.42 1378.18,1249.16 1378.18,1249.24L1376.58,1249.24C1376.58,1249.16 1376.59,1241.43 1376.58,1240.09C1376.57,1239.06 1376.99,1238.12 1377.78,1237.45C1378.52,1236.8 1379.58,1236.44 1380.66,1236.44Z" style="fill-rule:nonzero;"/>
                <path d="M1380.7,1232.67C1382,1232.67 1383.32,1232.07 1383.32,1227.62C1383.32,1223.93 1382.6,1222.5 1380.77,1222.5L1380.77,1221.82L1380.71,1222.5C1378.97,1222.52 1378.08,1224.25 1378.08,1227.62C1378.08,1230.97 1378.96,1232.67 1380.7,1232.67ZM1380.77,1221.14C1384.96,1221.14 1384.96,1225.52 1384.96,1227.62C1384.96,1229.54 1384.96,1234.03 1380.7,1234.03C1377.87,1234.03 1376.44,1231.87 1376.44,1227.62C1376.44,1223.36 1377.87,1221.18 1380.69,1221.14L1380.77,1221.14Z" style="fill-rule:nonzero;"/>
                <path d="M1382.43,1211.55L1378.08,1205.92L1376.38,1205.92L1381.41,1212.72L1376.73,1218.31L1378.4,1218.31L1383.46,1212.67L1383.46,1218.31L1385.06,1218.31L1385.06,1205.92L1383.46,1205.92L1383.46,1210.41L1383.42,1210.4L1382.43,1211.55Z" style="fill-rule:nonzero;"/>
                <path d="M1383.46,1191.68L1383.46,1196.06L1380.34,1196.06L1380.34,1197.41L1383.46,1197.41L1383.46,1201.86L1376.61,1201.86L1376.61,1203.22L1385.06,1203.22L1385.06,1190.33L1376.56,1190.33L1376.56,1191.68L1383.46,1191.68Z" style="fill-rule:nonzero;"/>
                <path d="M1383.46,1182.07L1383.46,1186.48L1380.84,1186.48C1380.31,1186.48 1379.56,1186.4 1379.02,1186C1378.55,1185.64 1378.31,1185.09 1378.31,1184.36C1378.31,1182.8 1379.82,1182.07 1380.84,1182.07C1381.53,1182.07 1382.84,1182.07 1383.46,1182.07ZM1376.73,1184.36C1376.73,1185.79 1377.41,1186.6 1377.99,1187.02C1378.71,1187.56 1379.69,1187.84 1380.84,1187.84L1385.06,1187.84L1385.06,1175.24L1383.46,1175.24L1383.46,1180.71C1382.9,1180.71 1381.77,1180.71 1381.06,1180.71L1378.31,1175.24L1376.63,1175.24L1379.46,1180.94C1377.99,1181.42 1376.73,1182.64 1376.73,1184.36Z" style="fill-rule:nonzero;"/>
                <path d="M1511.05,1236.44C1513.63,1236.44 1515.35,1238.07 1515.35,1240.51L1513.75,1240.51C1513.75,1238.81 1512.75,1237.79 1511.05,1237.79C1510.39,1237.79 1509.76,1238.01 1509.31,1238.4C1508.82,1238.82 1508.56,1239.4 1508.57,1240.08C1508.59,1241.42 1508.57,1249.16 1508.57,1249.24L1506.97,1249.24C1506.97,1249.16 1506.99,1241.43 1506.97,1240.09C1506.96,1239.06 1507.38,1238.12 1508.17,1237.45C1508.92,1236.8 1509.97,1236.44 1511.05,1236.44Z" style="fill-rule:nonzero;"/>
                <path d="M1511.09,1232.67C1512.39,1232.67 1513.71,1232.07 1513.71,1227.62C1513.71,1223.93 1513,1222.5 1511.17,1222.5L1511.17,1221.82L1511.11,1222.5C1509.36,1222.52 1508.48,1224.25 1508.48,1227.62C1508.48,1230.97 1509.36,1232.67 1511.09,1232.67ZM1511.17,1221.14C1515.35,1221.14 1515.35,1225.52 1515.35,1227.62C1515.35,1229.54 1515.35,1234.03 1511.09,1234.03C1508.26,1234.03 1506.83,1231.87 1506.83,1227.62C1506.83,1223.36 1508.26,1221.18 1511.08,1221.14L1511.17,1221.14Z" style="fill-rule:nonzero;"/>
                <path d="M1512.82,1211.55L1508.47,1205.92L1506.77,1205.92L1511.8,1212.72L1507.12,1218.31L1508.79,1218.31L1513.85,1212.67L1513.85,1218.31L1515.46,1218.31L1515.46,1205.92L1513.85,1205.92L1513.85,1210.41L1513.81,1210.4L1512.82,1211.55Z" style="fill-rule:nonzero;"/>
                <path d="M1513.85,1191.68L1513.85,1196.06L1510.73,1196.06L1510.73,1197.41L1513.85,1197.41L1513.85,1201.86L1507.01,1201.86L1507.01,1203.22L1515.46,1203.22L1515.46,1190.33L1506.95,1190.33L1506.95,1191.68L1513.85,1191.68Z" style="fill-rule:nonzero;"/>
                <path d="M1513.85,1182.07L1513.85,1186.48L1511.23,1186.48C1510.7,1186.48 1509.96,1186.4 1509.41,1186C1508.94,1185.64 1508.7,1185.09 1508.7,1184.36C1508.7,1182.8 1510.21,1182.07 1511.24,1182.07C1511.92,1182.07 1513.23,1182.07 1513.85,1182.07ZM1507.12,1184.36C1507.12,1185.79 1507.81,1186.6 1508.38,1187.02C1509.1,1187.56 1510.09,1187.84 1511.23,1187.84L1515.46,1187.84L1515.46,1175.24L1513.85,1175.24L1513.85,1180.71C1513.29,1180.71 1512.17,1180.71 1511.46,1180.71L1508.7,1175.24L1507.02,1175.24L1509.86,1180.94C1508.38,1181.42 1507.12,1182.64 1507.12,1184.36Z" style="fill-rule:nonzero;"/>
            </g>
        </g>
    </g>
</svg>
