<?xml version="1.0" encoding="UTF-8" standalone="no"?>
<!DOCTYPE svg PUBLIC "-//W3C//DTD SVG 1.1//EN" "http://www.w3.org/Graphics/SVG/1.1/DTD/svg11.dtd">
<svg width="100%" height="100%" viewBox="0 0 150 225" version="1.1" xmlns="http://www.w3.org/2000/svg" xmlns:xlink="http://www.w3.org/1999/xlink" xml:space="preserve" xmlns:serif="http://www.serif.com/" style="fill-rule:evenodd;clip-rule:evenodd;stroke-linejoin:round;stroke-miterlimit:1.41421;">
    <g transform="matrix(1,0,0,1,-861,-271)">
        <g>
            <g>
                <rect x="0.25" y="1.04" width="1530.71" height="1530.71" style="fill:white;fill-rule:nonzero;"/>
                <path d="M868.896,507.274C861.038,507.274 854.646,500.882 854.646,493.024L854.646,274.41C854.646,266.553 861.038,260.16 868.896,260.16L1002.47,260.16C1010.33,260.16 1016.72,266.553 1016.72,274.41L1016.72,493.024C1016.72,500.882 1010.33,507.274 1002.47,507.274L868.896,507.274Z" style="fill:white;fill-rule:nonzero;"/>
                <path d="M1002.47,259.91L868.896,259.91C860.9,259.91 854.396,266.415 854.396,274.41L854.396,493.024C854.396,501.019 860.9,507.524 868.896,507.524L1002.47,507.524C1010.47,507.524 1016.97,501.019 1016.97,493.024L1016.97,274.41C1016.97,266.415 1010.47,259.91 1002.47,259.91ZM1002.47,260.41C1010.2,260.41 1016.47,266.678 1016.47,274.41L1016.47,493.024C1016.47,500.756 1010.2,507.024 1002.47,507.024L868.896,507.024C861.163,507.024 854.896,500.756 854.896,493.024L854.896,274.41C854.896,266.678 861.163,260.41 868.896,260.41L1002.47,260.41Z" style="fill-rule:nonzero;"/>
            </g>
            <g>
                <path d="M909.352,294.554C907.201,294.134 904.258,295.8 901.864,297.556C904.075,295.147 906.682,291.721 906.682,288.951C906.682,284.147 903.167,280.252 898.832,280.252C894.497,280.252 890.982,284.147 890.982,288.951C890.982,291.722 893.59,295.147 895.8,297.557C893.407,295.8 890.463,294.134 888.313,294.554C884.043,295.389 881.192,299.9 881.945,304.631C882.697,309.362 886.77,312.521 891.039,311.687C893.627,311.181 896.364,307.4 898.118,304.5C897.462,308.509 896.44,314.105 895.415,317.103C898.435,317.076 898.832,317.103 898.832,317.103C898.832,317.103 899.229,317.076 902.25,317.103C901.224,314.105 900.202,308.509 899.546,304.5C901.3,307.4 904.037,311.181 906.626,311.687C910.895,312.521 914.967,309.362 915.719,304.631C916.472,299.9 913.621,295.389 909.352,294.554Z" style="fill-rule:nonzero;"/>
                <path d="M983.053,294.554C980.902,294.134 977.959,295.8 975.565,297.556C977.776,295.147 980.383,291.721 980.383,288.951C980.383,284.147 976.868,280.252 972.533,280.252C968.198,280.252 964.683,284.147 964.683,288.951C964.683,291.722 967.291,295.147 969.501,297.557C967.108,295.8 964.164,294.134 962.014,294.554C957.744,295.389 954.893,299.9 955.646,304.631C956.398,309.362 960.471,312.521 964.74,311.687C967.329,311.181 970.065,307.4 971.819,304.5C971.164,308.509 970.141,314.105 969.116,317.103C972.136,317.076 972.533,317.103 972.533,317.103C972.533,317.103 972.93,317.076 975.951,317.103C974.925,314.105 973.903,308.509 973.247,304.5C975.001,307.4 977.738,311.181 980.327,311.687C984.596,312.521 988.668,309.362 989.42,304.631C990.173,299.9 987.322,295.389 983.053,294.554Z" style="fill-rule:nonzero;"/>
                <path d="M909.352,351.248C907.201,350.827 904.258,352.493 901.864,354.249C904.075,351.84 906.682,348.415 906.682,345.644C906.682,340.841 903.167,336.946 898.832,336.946C894.497,336.946 890.982,340.841 890.982,345.644C890.982,348.415 893.59,351.841 895.8,354.25C893.407,352.493 890.463,350.828 888.313,351.248C884.043,352.082 881.192,356.593 881.945,361.324C882.697,366.055 886.77,369.215 891.039,368.38C893.627,367.874 896.364,364.093 898.118,361.193C897.462,365.202 896.44,370.798 895.415,373.796C898.435,373.769 898.832,373.796 898.832,373.796C898.832,373.796 899.229,373.769 902.25,373.796C901.224,370.798 900.202,365.202 899.546,361.193C901.3,364.093 904.037,367.874 906.626,368.38C910.895,369.215 914.967,366.055 915.719,361.324C916.472,356.593 913.621,352.082 909.352,351.248Z" style="fill-rule:nonzero;"/>
                <path d="M983.053,351.248C980.902,350.827 977.959,352.493 975.565,354.249C977.776,351.84 980.383,348.415 980.383,345.644C980.383,340.841 976.868,336.946 972.533,336.946C968.198,336.946 964.683,340.841 964.683,345.644C964.683,348.415 967.291,351.841 969.501,354.25C967.108,352.493 964.164,350.828 962.014,351.248C957.744,352.082 954.893,356.593 955.646,361.324C956.398,366.055 960.471,369.215 964.74,368.38C967.329,367.874 970.065,364.093 971.819,361.193C971.164,365.202 970.141,370.798 969.116,373.796C972.136,373.769 972.533,373.796 972.533,373.796C972.533,373.796 972.93,373.769 975.951,373.796C974.925,370.798 973.903,365.202 973.247,361.193C975.001,364.093 977.738,367.874 980.327,368.38C984.596,369.215 988.668,366.055 989.42,361.324C990.173,356.593 987.322,352.082 983.053,351.248Z" style="fill-rule:nonzero;"/>
            </g>
            <g>
                <path d="M946.202,379.594C944.052,379.174 941.108,380.84 938.715,382.596C940.925,380.187 943.533,376.761 943.533,373.991C943.533,369.187 940.017,365.292 935.683,365.292C931.347,365.292 927.833,369.187 927.833,373.991C927.833,376.762 930.44,380.187 932.651,382.597C930.257,380.84 927.313,379.174 925.163,379.594C920.894,380.429 918.042,384.94 918.795,389.671C919.548,394.402 923.62,397.561 927.889,396.727C930.478,396.221 933.214,392.44 934.969,389.54C934.313,393.549 933.291,399.145 932.265,402.143C935.285,402.116 935.683,402.143 935.683,402.143C935.683,402.143 936.079,402.116 939.1,402.143C938.075,399.145 937.052,393.549 936.396,389.54C938.151,392.44 940.887,396.221 943.477,396.727C947.745,397.561 951.817,394.402 952.57,389.671C953.323,384.94 950.472,380.429 946.202,379.594Z" style="fill-rule:nonzero;"/>
                <path d="M888.313,416.188C890.463,416.608 893.406,414.942 895.8,413.186C893.589,415.595 890.982,419.021 890.982,421.791C890.982,426.595 894.498,430.49 898.832,430.49C903.167,430.49 906.682,426.595 906.682,421.791C906.682,419.02 904.074,415.595 901.864,413.186C904.257,414.942 907.201,416.608 909.352,416.188C913.621,415.353 916.472,410.842 915.719,406.111C914.967,401.38 910.895,398.221 906.625,399.055C904.037,399.561 901.3,403.342 899.546,406.242C900.202,402.233 901.224,396.637 902.25,393.639C899.229,393.666 898.832,393.639 898.832,393.639C898.832,393.639 898.436,393.666 895.415,393.639C896.44,396.637 897.462,402.233 898.118,406.242C896.364,403.342 893.627,399.561 891.038,399.055C886.77,398.221 882.697,401.38 881.945,406.111C881.192,410.842 884.043,415.353 888.313,416.188Z" style="fill-rule:nonzero;"/>
                <path d="M962.014,416.188C964.164,416.608 967.107,414.942 969.501,413.186C967.291,415.595 964.683,419.021 964.683,421.791C964.683,426.595 968.199,430.49 972.533,430.49C976.869,430.49 980.383,426.595 980.383,421.791C980.383,419.02 977.775,415.595 975.565,413.186C977.958,414.942 980.902,416.608 983.053,416.188C987.322,415.353 990.173,410.842 989.42,406.111C988.668,401.38 984.596,398.221 980.327,399.055C977.738,399.561 975.001,403.342 973.247,406.242C973.903,402.233 974.925,396.637 975.951,393.639C972.931,393.666 972.533,393.639 972.533,393.639C972.533,393.639 972.137,393.666 969.116,393.639C970.141,396.637 971.164,402.233 971.819,406.242C970.065,403.342 967.329,399.561 964.739,399.055C960.471,398.221 956.398,401.38 955.646,406.111C954.893,410.842 957.744,415.353 962.014,416.188Z" style="fill-rule:nonzero;"/>
                <path d="M888.313,472.881C890.463,473.302 893.406,471.636 895.8,469.879C893.589,472.289 890.982,475.714 890.982,478.484C890.982,483.288 894.498,487.183 898.832,487.183C903.167,487.183 906.682,483.288 906.682,478.484C906.682,475.714 904.074,472.288 901.864,469.879C904.257,471.636 907.201,473.301 909.352,472.881C913.621,472.047 916.472,467.536 915.719,462.805C914.967,458.074 910.895,454.914 906.625,455.748C904.037,456.254 901.3,460.036 899.546,462.936C900.202,458.927 901.224,453.331 902.25,450.332C899.229,450.359 898.832,450.332 898.832,450.332C898.832,450.332 898.436,450.359 895.415,450.332C896.44,453.331 897.462,458.927 898.118,462.936C896.364,460.036 893.627,456.254 891.038,455.748C886.77,454.914 882.697,458.074 881.945,462.805C881.192,467.536 884.043,472.047 888.313,472.881Z" style="fill-rule:nonzero;"/>
                <path d="M962.014,472.881C964.164,473.302 967.107,471.636 969.501,469.879C967.291,472.289 964.683,475.714 964.683,478.484C964.683,483.288 968.199,487.183 972.533,487.183C976.869,487.183 980.383,483.288 980.383,478.484C980.383,475.714 977.775,472.288 975.565,469.879C977.958,471.636 980.902,473.301 983.053,472.881C987.322,472.047 990.173,467.536 989.42,462.805C988.668,458.074 984.596,454.914 980.327,455.748C977.738,456.254 975.001,460.036 973.247,462.936C973.903,458.927 974.925,453.331 975.951,450.332C972.931,450.359 972.533,450.332 972.533,450.332C972.533,450.332 972.137,450.359 969.116,450.332C970.141,453.331 971.164,458.927 971.819,462.936C970.065,460.036 967.329,456.254 964.739,455.748C960.471,454.914 956.398,458.074 955.646,462.805C954.893,467.536 957.744,472.047 962.014,472.881Z" style="fill-rule:nonzero;"/>
                <path d="M874.869,305.463C873.973,305.288 872.746,305.982 871.749,306.714C872.67,305.71 873.756,304.283 873.756,303.129C873.756,301.127 872.292,299.504 870.485,299.504C868.679,299.504 867.214,301.127 867.214,303.129C867.214,304.283 868.301,305.711 869.222,306.714C868.225,305.982 866.998,305.288 866.102,305.463C864.323,305.811 863.135,307.691 863.448,309.662C863.762,311.634 865.459,312.95 867.238,312.603C868.317,312.392 869.457,310.816 870.188,309.608C869.915,311.278 869.489,313.61 869.061,314.859C870.32,314.848 870.485,314.859 870.485,314.859C870.485,314.859 870.651,314.848 871.909,314.859C871.482,313.61 871.056,311.278 870.783,309.608C871.514,310.816 872.654,312.392 873.733,312.603C875.512,312.95 877.209,311.634 877.522,309.662C877.836,307.691 876.648,305.811 874.869,305.463Z" style="fill-rule:nonzero;"/>
                <path d="M866.102,461.971C866.998,462.146 868.224,461.452 869.222,460.72C868.301,461.724 867.214,463.152 867.214,464.306C867.214,466.308 868.679,467.931 870.485,467.931C872.292,467.931 873.756,466.308 873.756,464.306C873.756,463.151 872.67,461.724 871.749,460.72C872.746,461.452 873.973,462.146 874.869,461.971C876.648,461.623 877.836,459.744 877.522,457.772C877.209,455.801 875.512,454.484 873.733,454.832C872.654,455.043 871.514,456.618 870.783,457.827C871.056,456.156 871.482,453.824 871.909,452.575C870.651,452.586 870.485,452.575 870.485,452.575C870.485,452.575 870.32,452.586 869.061,452.575C869.489,453.824 869.915,456.156 870.188,457.827C869.457,456.618 868.317,455.043 867.238,454.832C865.459,454.484 863.762,455.801 863.448,457.772C863.135,459.744 864.323,461.623 866.102,461.971Z" style="fill-rule:nonzero;"/>
                <path d="M996.496,461.971C997.392,462.146 998.619,461.452 999.616,460.72C998.695,461.724 997.609,463.152 997.609,464.306C997.609,466.308 999.074,467.931 1000.88,467.931C1002.69,467.931 1004.15,466.308 1004.15,464.306C1004.15,463.151 1003.06,461.724 1002.14,460.72C1003.14,461.452 1004.37,462.146 1005.26,461.971C1007.04,461.623 1008.23,459.744 1007.92,457.772C1007.6,455.801 1005.91,454.484 1004.13,454.832C1003.05,455.043 1001.91,456.618 1001.18,457.827C1001.45,456.156 1001.88,453.824 1002.3,452.575C1001.05,452.586 1000.88,452.575 1000.88,452.575C1000.88,452.575 1000.71,452.586 999.456,452.575C999.883,453.824 1000.31,456.156 1000.58,457.827C999.851,456.618 998.711,455.043 997.632,454.832C995.853,454.484 994.156,455.801 993.843,457.772C993.529,459.744 994.717,461.623 996.496,461.971Z" style="fill-rule:nonzero;"/>
                <path d="M1005.26,305.463C1004.37,305.288 1003.14,305.982 1002.14,306.714C1003.06,305.71 1004.15,304.283 1004.15,303.129C1004.15,301.127 1002.69,299.504 1000.88,299.504C999.073,299.504 997.609,301.127 997.609,303.129C997.609,304.283 998.695,305.711 999.617,306.714C998.619,305.982 997.392,305.288 996.496,305.463C994.717,305.811 993.529,307.691 993.843,309.662C994.156,311.634 995.853,312.95 997.632,312.603C998.711,312.392 999.851,310.816 1000.58,309.608C1000.31,311.278 999.883,313.61 999.456,314.859C1000.71,314.848 1000.88,314.859 1000.88,314.859C1000.88,314.859 1001.05,314.848 1002.3,314.859C1001.88,313.61 1001.45,311.278 1001.18,309.608C1001.91,310.816 1003.05,312.392 1004.13,312.603C1005.91,312.95 1007.6,311.634 1007.92,309.662C1008.23,307.691 1007.04,305.811 1005.26,305.463Z" style="fill-rule:nonzero;"/>
                <path d="M873.113,279.635C872.805,278.571 872.4,277.996 872.098,277.693C871.684,277.28 871.208,277.077 870.596,277.108C868.503,277.156 867.566,278.869 867.566,280.546C867.566,282.181 867.879,283.314 868.495,283.915C868.955,284.365 869.635,284.588 870.597,284.546C871.193,284.531 872.021,284.367 872.576,283.673C873.229,282.854 873.413,281.465 873.113,279.635ZM870.656,274.607C871.893,274.607 873,275.061 873.864,275.925C874.546,276.606 875.071,277.528 875.438,278.684C875.438,278.684 875.531,278.942 875.554,279.074C875.938,280.473 876.11,282.185 876.065,284.198C876.007,286.878 875.851,293.995 870.656,294.108C868.184,294.15 867.14,293.684 865.547,291.787L867.461,290.18C868.558,291.485 868.905,291.646 870.602,291.608C871.289,291.594 872.997,291.557 873.46,286.209C872.672,286.728 871.714,287.019 870.661,287.046C869.029,287.07 867.705,286.637 866.75,285.705C865.617,284.602 865.066,282.913 865.066,280.546C865.066,277.658 866.945,274.691 870.537,274.608C870.577,274.607 870.616,274.607 870.656,274.607Z" style="fill-rule:nonzero;"/>
                <path d="M1003.51,279.635C1003.2,278.571 1002.79,277.996 1002.49,277.693C1002.08,277.28 1001.6,277.077 1000.99,277.108C998.896,277.156 997.96,278.869 997.96,280.546C997.96,282.181 998.272,283.314 998.889,283.915C999.349,284.365 1000.03,284.588 1000.99,284.546C1001.59,284.531 1002.42,284.367 1002.97,283.673C1003.62,282.854 1003.81,281.465 1003.51,279.635ZM1001.05,274.607C1002.29,274.607 1003.39,275.061 1004.26,275.925C1004.94,276.606 1005.46,277.528 1005.83,278.684C1005.83,278.684 1005.92,278.942 1005.95,279.074C1006.33,280.473 1006.5,282.185 1006.46,284.198C1006.4,286.878 1006.24,293.995 1001.05,294.108C998.577,294.15 997.533,293.684 995.94,291.787L997.854,290.18C998.951,291.485 999.299,291.646 1001,291.608C1001.68,291.594 1003.39,291.557 1003.85,286.209C1003.07,286.728 1002.11,287.019 1001.05,287.046C999.423,287.07 998.099,286.637 997.144,285.705C996.011,284.602 995.46,282.913 995.46,280.546C995.46,277.658 997.339,274.691 1000.93,274.608C1000.97,274.607 1001.01,274.607 1001.05,274.607Z" style="fill-rule:nonzero;"/>
                <path d="M868.025,487.508C868.335,488.572 868.739,489.147 869.042,489.45C869.456,489.863 869.931,490.066 870.544,490.035C872.637,489.987 873.573,488.274 873.573,486.597C873.573,484.962 873.261,483.829 872.645,483.228C872.184,482.778 871.504,482.555 870.542,482.597C869.945,482.612 869.118,482.776 868.563,483.47C867.91,484.289 867.727,485.678 868.025,487.508ZM870.483,492.536C869.247,492.536 868.14,492.082 867.275,491.218C866.593,490.537 866.067,489.615 865.7,488.459C865.7,488.459 865.608,488.201 865.585,488.069C865.2,486.67 865.029,484.958 865.073,482.945C865.132,480.265 865.288,473.148 870.483,473.035C872.955,472.993 873.999,473.459 875.593,475.356L873.679,476.963C872.581,475.658 872.233,475.497 870.537,475.535C869.851,475.549 868.142,475.586 867.68,480.934C868.468,480.415 869.425,480.124 870.479,480.097C872.11,480.073 873.434,480.506 874.39,481.438C875.522,482.541 876.073,484.23 876.073,486.597C876.073,489.485 874.193,492.452 870.602,492.535C870.563,492.536 870.522,492.536 870.483,492.536Z" style="fill-rule:nonzero;"/>
                <path d="M998.419,487.508C998.729,488.572 999.133,489.147 999.436,489.45C999.85,489.863 1000.32,490.066 1000.94,490.035C1003.03,489.987 1003.97,488.274 1003.97,486.597C1003.97,484.962 1003.65,483.829 1003.04,483.228C1002.58,482.778 1001.9,482.555 1000.94,482.597C1000.34,482.612 999.512,482.776 998.957,483.47C998.304,484.289 998.12,485.678 998.419,487.508ZM1000.88,492.536C999.641,492.536 998.533,492.082 997.669,491.218C996.986,490.537 996.461,489.615 996.094,488.459C996.094,488.459 996.002,488.201 995.979,488.069C995.594,486.67 995.423,484.958 995.467,482.945C995.525,480.265 995.682,473.148 1000.88,473.035C1003.35,472.993 1004.39,473.459 1005.99,475.356L1004.07,476.963C1002.97,475.658 1002.63,475.497 1000.93,475.535C1000.24,475.549 998.535,475.586 998.073,480.934C998.861,480.415 999.818,480.124 1000.87,480.097C1002.5,480.073 1003.83,480.506 1004.78,481.438C1005.92,482.541 1006.47,484.23 1006.47,486.597C1006.47,489.485 1004.59,492.452 1001,492.535C1000.96,492.536 1000.92,492.536 1000.88,492.536Z" style="fill-rule:nonzero;"/>
            </g>
        </g>
    </g>
</svg>
