<?xml version="1.0" encoding="UTF-8" standalone="no"?>
<!DOCTYPE svg PUBLIC "-//W3C//DTD SVG 1.1//EN" "http://www.w3.org/Graphics/SVG/1.1/DTD/svg11.dtd">
<svg width="100%" height="100%" viewBox="0 0 150 225" version="1.1" xmlns="http://www.w3.org/2000/svg" xmlns:xlink="http://www.w3.org/1999/xlink" xml:space="preserve" xmlns:serif="http://www.serif.com/" style="fill-rule:evenodd;clip-rule:evenodd;stroke-linejoin:round;stroke-miterlimit:1.41421;">
    <g transform="matrix(1,0,0,1,-1201,-271)">
        <g>
            <g>
                <rect x="0.25" y="1.04" width="1530.71" height="1530.71" style="fill:white;fill-rule:nonzero;"/>
                <path d="M1209.05,507.274C1201.2,507.274 1194.8,500.882 1194.8,493.024L1194.8,274.41C1194.8,266.553 1201.2,260.16 1209.05,260.16L1342.63,260.16C1350.49,260.16 1356.88,266.553 1356.88,274.41L1356.88,493.024C1356.88,500.882 1350.49,507.274 1342.63,507.274L1209.05,507.274Z" style="fill:white;fill-rule:nonzero;"/>
                <path d="M1342.63,259.91L1209.05,259.91C1201.06,259.91 1194.55,266.415 1194.55,274.41L1194.55,493.024C1194.55,501.019 1201.06,507.524 1209.05,507.524L1342.63,507.524C1350.62,507.524 1357.13,501.019 1357.13,493.024L1357.13,274.41C1357.13,266.415 1350.62,259.91 1342.63,259.91ZM1342.63,260.41C1350.36,260.41 1356.63,266.678 1356.63,274.41L1356.63,493.024C1356.63,500.756 1350.36,507.024 1342.63,507.024L1209.05,507.024C1201.32,507.024 1195.05,500.756 1195.05,493.024L1195.05,274.41C1195.05,266.678 1201.32,260.41 1209.05,260.41L1342.63,260.41Z" style="fill-rule:nonzero;"/>
            </g>
            <g>
                <path d="M1250.66,289.256C1247.79,286.144 1243.48,282.433 1238.99,280.252C1234.5,282.433 1230.19,286.144 1227.32,289.256C1223.2,293.715 1221.94,297.398 1221.98,301.762C1222.02,305.96 1224.15,309.689 1228.86,310.712C1232.2,311.437 1234.16,310.417 1235.61,309.588C1236.96,308.816 1237.89,307.344 1238.43,306.27C1237.79,309.488 1236.68,314.51 1235.57,317.103C1238.59,317.082 1238.99,317.103 1238.99,317.103C1238.99,317.103 1239.39,317.082 1242.41,317.103C1241.3,314.51 1240.19,309.488 1239.55,306.27C1240.09,307.344 1241.02,308.816 1242.37,309.588C1243.82,310.417 1245.78,311.437 1249.12,310.712C1253.83,309.689 1255.96,305.96 1256,301.762C1256.04,297.398 1254.77,293.715 1250.66,289.256Z" style="fill-rule:nonzero;"/>
                <path d="M1324.36,289.256C1321.49,286.144 1317.18,282.433 1312.69,280.252C1308.2,282.433 1303.89,286.144 1301.02,289.256C1296.91,293.715 1295.64,297.398 1295.68,301.762C1295.72,305.96 1297.85,309.689 1302.56,310.712C1305.9,311.437 1307.86,310.417 1309.31,309.588C1310.66,308.816 1311.59,307.344 1312.13,306.27C1311.49,309.488 1310.38,314.51 1309.27,317.103C1312.29,317.082 1312.69,317.103 1312.69,317.103C1312.69,317.103 1313.09,317.082 1316.11,317.103C1315,314.51 1313.89,309.488 1313.25,306.27C1313.79,307.344 1314.72,308.816 1316.07,309.588C1317.52,310.417 1319.48,311.437 1322.82,310.712C1327.53,309.689 1329.66,305.96 1329.7,301.762C1329.74,297.398 1328.48,293.715 1324.36,289.256Z" style="fill-rule:nonzero;"/>
                <path d="M1250.66,345.95C1247.79,342.837 1243.48,339.126 1238.99,336.946C1234.5,339.126 1230.19,342.837 1227.32,345.95C1223.2,350.408 1221.94,354.092 1221.98,358.456C1222.02,362.654 1224.15,366.383 1228.86,367.406C1232.2,368.131 1234.16,367.111 1235.61,366.282C1236.96,365.509 1237.89,364.038 1238.43,362.964C1237.79,366.181 1236.68,371.204 1235.57,373.796C1238.59,373.775 1238.99,373.796 1238.99,373.796C1238.99,373.796 1239.39,373.775 1242.41,373.796C1241.3,371.204 1240.19,366.181 1239.55,362.964C1240.09,364.038 1241.02,365.509 1242.37,366.282C1243.82,367.111 1245.78,368.131 1249.12,367.406C1253.83,366.383 1255.96,362.654 1256,358.456C1256.04,354.092 1254.77,350.408 1250.66,345.95Z" style="fill-rule:nonzero;"/>
                <path d="M1324.36,345.95C1321.49,342.837 1317.18,339.126 1312.69,336.946C1308.2,339.126 1303.89,342.837 1301.02,345.95C1296.91,350.408 1295.64,354.092 1295.68,358.456C1295.72,362.654 1297.85,366.383 1302.56,367.406C1305.9,368.131 1307.86,367.111 1309.31,366.282C1310.66,365.509 1311.59,364.038 1312.13,362.964C1311.49,366.181 1310.38,371.204 1309.27,373.796C1312.29,373.775 1312.69,373.796 1312.69,373.796C1312.69,373.796 1313.09,373.775 1316.11,373.796C1315,371.204 1313.89,366.181 1313.25,362.964C1313.79,364.038 1314.72,365.509 1316.07,366.282C1317.52,367.111 1319.48,368.131 1322.82,367.406C1327.53,366.383 1329.66,362.654 1329.7,358.456C1329.74,354.092 1328.48,350.408 1324.36,345.95Z" style="fill-rule:nonzero;"/>
                <path d="M1287.51,374.296C1284.64,371.184 1280.33,367.473 1275.84,365.292C1271.35,367.473 1267.04,371.184 1264.17,374.296C1260.05,378.755 1258.79,382.438 1258.83,386.802C1258.87,391 1261,394.729 1265.71,395.752C1269.05,396.478 1271.01,395.457 1272.46,394.628C1273.81,393.856 1274.74,392.384 1275.28,391.311C1274.64,394.528 1273.53,399.55 1272.42,402.143C1275.44,402.122 1275.84,402.143 1275.84,402.143C1275.84,402.143 1276.24,402.122 1279.26,402.143C1278.15,399.55 1277.04,394.528 1276.4,391.311C1276.94,392.384 1277.87,393.856 1279.22,394.628C1280.67,395.457 1282.63,396.478 1285.97,395.752C1290.68,394.729 1292.81,391 1292.85,386.802C1292.89,382.438 1291.63,378.755 1287.51,374.296Z" style="fill-rule:nonzero;"/>
                <path d="M1227.32,421.486C1230.19,424.598 1234.5,428.309 1238.99,430.49C1243.48,428.309 1247.79,424.598 1250.66,421.486C1254.77,417.027 1256.04,413.344 1256,408.98C1255.96,404.782 1253.83,401.053 1249.12,400.03C1245.78,399.305 1243.82,400.325 1242.37,401.154C1241.02,401.926 1240.09,403.398 1239.55,404.472C1240.19,401.254 1241.3,396.232 1242.41,393.639C1239.39,393.661 1238.99,393.639 1238.99,393.639C1238.99,393.639 1238.59,393.661 1235.57,393.639C1236.68,396.232 1237.79,401.254 1238.43,404.472C1237.89,403.398 1236.96,401.926 1235.61,401.154C1234.16,400.325 1232.2,399.305 1228.86,400.03C1224.15,401.053 1222.02,404.782 1221.98,408.98C1221.94,413.344 1223.2,417.027 1227.32,421.486Z" style="fill-rule:nonzero;"/>
                <path d="M1301.02,421.486C1303.89,424.598 1308.2,428.309 1312.69,430.49C1317.18,428.309 1321.49,424.598 1324.36,421.486C1328.48,417.027 1329.74,413.344 1329.7,408.98C1329.66,404.782 1327.53,401.053 1322.82,400.03C1319.48,399.305 1317.52,400.325 1316.07,401.154C1314.72,401.926 1313.79,403.398 1313.25,404.472C1313.89,401.254 1315,396.232 1316.11,393.639C1313.09,393.661 1312.69,393.639 1312.69,393.639C1312.69,393.639 1312.29,393.661 1309.27,393.639C1310.38,396.232 1311.49,401.254 1312.13,404.472C1311.59,403.398 1310.66,401.926 1309.31,401.154C1307.86,400.325 1305.9,399.305 1302.56,400.03C1297.85,401.053 1295.72,404.782 1295.68,408.98C1295.64,413.344 1296.91,417.027 1301.02,421.486Z" style="fill-rule:nonzero;"/>
                <path d="M1227.32,478.179C1230.19,481.291 1234.5,485.002 1238.99,487.183C1243.48,485.002 1247.79,481.291 1250.66,478.179C1254.77,473.721 1256.04,470.037 1256,465.673C1255.96,461.475 1253.83,457.746 1249.12,456.723C1245.78,455.998 1243.82,457.018 1242.37,457.847C1241.02,458.62 1240.09,460.091 1239.55,461.165C1240.19,457.948 1241.3,452.925 1242.41,450.332C1239.39,450.354 1238.99,450.332 1238.99,450.332C1238.99,450.332 1238.59,450.354 1235.57,450.332C1236.68,452.925 1237.79,457.948 1238.43,461.165C1237.89,460.091 1236.96,458.62 1235.61,457.847C1234.16,457.018 1232.2,455.998 1228.86,456.723C1224.15,457.746 1222.02,461.475 1221.98,465.673C1221.94,470.037 1223.2,473.721 1227.32,478.179Z" style="fill-rule:nonzero;"/>
                <path d="M1301.02,478.179C1303.89,481.291 1308.2,485.002 1312.69,487.183C1317.18,485.002 1321.49,481.291 1324.36,478.179C1328.48,473.721 1329.74,470.037 1329.7,465.673C1329.66,461.475 1327.53,457.746 1322.82,456.723C1319.48,455.998 1317.52,457.018 1316.07,457.847C1314.72,458.62 1313.79,460.091 1313.25,461.165C1313.89,457.948 1315,452.925 1316.11,450.332C1313.09,450.354 1312.69,450.332 1312.69,450.332C1312.69,450.332 1312.29,450.354 1309.27,450.332C1310.38,452.925 1311.49,457.948 1312.13,461.165C1311.59,460.091 1310.66,458.62 1309.31,457.847C1307.86,457.018 1305.9,455.998 1302.56,456.723C1297.85,457.746 1295.72,461.475 1295.68,465.673C1295.64,470.037 1296.91,473.721 1301.02,478.179Z" style="fill-rule:nonzero;"/>
                <path d="M1215.51,303.256C1214.31,301.959 1212.51,300.412 1210.64,299.504C1208.77,300.412 1206.98,301.959 1205.78,303.256C1204.06,305.114 1203.54,306.648 1203.56,308.467C1203.57,310.216 1204.46,311.77 1206.42,312.196C1207.81,312.499 1208.63,312.074 1209.23,311.728C1209.8,311.406 1210.18,310.793 1210.41,310.345C1210.14,311.686 1209.68,313.779 1209.22,314.859C1210.48,314.85 1210.64,314.859 1210.64,314.859C1210.64,314.859 1210.81,314.85 1212.07,314.859C1211.6,313.779 1211.14,311.686 1210.88,310.345C1211.1,310.793 1211.49,311.406 1212.05,311.728C1212.66,312.074 1213.47,312.499 1214.86,312.196C1216.83,311.77 1217.71,310.216 1217.73,308.467C1217.75,306.648 1217.22,305.114 1215.51,303.256Z" style="fill-rule:nonzero;"/>
                <path d="M1205.78,464.179C1206.98,465.476 1208.77,467.022 1210.64,467.931C1212.51,467.022 1214.31,465.476 1215.51,464.179C1217.22,462.321 1217.75,460.786 1217.73,458.968C1217.71,457.218 1216.83,455.664 1214.86,455.238C1213.47,454.936 1212.66,455.361 1212.05,455.706C1211.49,456.028 1211.1,456.642 1210.88,457.089C1211.14,455.748 1211.6,453.655 1212.07,452.575C1210.81,452.584 1210.64,452.575 1210.64,452.575C1210.64,452.575 1210.48,452.584 1209.22,452.575C1209.68,453.655 1210.14,455.748 1210.41,457.089C1210.18,456.642 1209.8,456.028 1209.23,455.706C1208.63,455.361 1207.81,454.936 1206.42,455.238C1204.46,455.664 1203.57,457.218 1203.56,458.968C1203.54,460.786 1204.06,462.321 1205.78,464.179Z" style="fill-rule:nonzero;"/>
                <path d="M1336.17,464.179C1337.37,465.476 1339.17,467.022 1341.04,467.931C1342.91,467.022 1344.7,465.476 1345.9,464.179C1347.61,462.321 1348.14,460.786 1348.12,458.968C1348.11,457.218 1347.22,455.664 1345.26,455.238C1343.87,454.936 1343.05,455.361 1342.45,455.706C1341.88,456.028 1341.49,456.642 1341.27,457.089C1341.54,455.748 1342,453.655 1342.46,452.575C1341.2,452.584 1341.04,452.575 1341.04,452.575C1341.04,452.575 1340.87,452.584 1339.61,452.575C1340.08,453.655 1340.54,455.748 1340.8,457.089C1340.58,456.642 1340.19,456.028 1339.63,455.706C1339.02,455.361 1338.21,454.936 1336.82,455.238C1334.85,455.664 1333.97,457.218 1333.95,458.968C1333.93,460.786 1334.46,462.321 1336.17,464.179Z" style="fill-rule:nonzero;"/>
                <path d="M1345.9,303.256C1344.7,301.959 1342.91,300.412 1341.04,299.504C1339.17,300.412 1337.37,301.959 1336.17,303.256C1334.46,305.114 1333.93,306.648 1333.95,308.467C1333.97,310.216 1334.85,311.77 1336.82,312.196C1338.21,312.499 1339.02,312.074 1339.63,311.728C1340.19,311.406 1340.58,310.793 1340.8,310.345C1340.54,311.686 1340.08,313.779 1339.61,314.859C1340.87,314.85 1341.04,314.859 1341.04,314.859C1341.04,314.859 1341.2,314.85 1342.46,314.859C1342,313.779 1341.54,311.686 1341.27,310.345C1341.49,310.793 1341.88,311.406 1342.45,311.728C1343.05,312.074 1343.87,312.499 1345.26,312.196C1347.22,311.77 1348.11,310.216 1348.12,308.467C1348.14,306.648 1347.61,305.114 1345.9,303.256Z" style="fill-rule:nonzero;"/>
                <path d="M1213.27,279.635C1212.96,278.571 1212.56,277.996 1212.25,277.693C1211.84,277.28 1211.37,277.077 1210.75,277.108C1208.66,277.156 1207.72,278.869 1207.72,280.546C1207.72,282.181 1208.04,283.314 1208.65,283.915C1209.11,284.365 1209.79,284.588 1210.75,284.546C1211.35,284.531 1212.18,284.367 1212.73,283.673C1213.39,282.854 1213.57,281.465 1213.27,279.635ZM1210.81,274.607C1212.05,274.607 1213.16,275.061 1214.02,275.925C1214.7,276.606 1215.23,277.528 1215.6,278.684C1215.6,278.684 1215.69,278.942 1215.71,279.074C1216.1,280.473 1216.27,282.185 1216.22,284.198C1216.16,286.878 1216.01,293.995 1210.81,294.108C1208.34,294.15 1207.3,293.684 1205.7,291.787L1207.62,290.18C1208.71,291.485 1209.06,291.646 1210.76,291.608C1211.45,291.594 1213.15,291.557 1213.62,286.209C1212.83,286.728 1211.87,287.019 1210.82,287.046C1209.19,287.07 1207.86,286.637 1206.91,285.705C1205.77,284.602 1205.22,282.913 1205.22,280.546C1205.22,277.658 1207.1,274.691 1210.69,274.608C1210.73,274.607 1210.77,274.607 1210.81,274.607Z" style="fill-rule:nonzero;"/>
                <path d="M1343.66,279.635C1343.36,278.571 1342.95,277.996 1342.65,277.693C1342.23,277.28 1341.76,277.077 1341.15,277.108C1339.05,277.156 1338.12,278.869 1338.12,280.546C1338.12,282.181 1338.43,283.314 1339.05,283.915C1339.51,284.365 1340.19,284.588 1341.15,284.546C1341.74,284.531 1342.57,284.367 1343.13,283.673C1343.78,282.854 1343.96,281.465 1343.66,279.635ZM1341.21,274.607C1342.44,274.607 1343.55,275.061 1344.42,275.925C1345.1,276.606 1345.62,277.528 1345.99,278.684C1345.99,278.684 1346.08,278.942 1346.1,279.074C1346.49,280.473 1346.66,282.185 1346.62,284.198C1346.56,286.878 1346.4,293.995 1341.21,294.108C1338.73,294.15 1337.69,293.684 1336.1,291.787L1338.01,290.18C1339.11,291.485 1339.46,291.646 1341.15,291.608C1341.84,291.594 1343.55,291.557 1344.01,286.209C1343.22,286.728 1342.26,287.019 1341.21,287.046C1339.58,287.07 1338.26,286.637 1337.3,285.705C1336.17,284.602 1335.62,282.913 1335.62,280.546C1335.62,277.658 1337.5,274.691 1341.09,274.608C1341.13,274.607 1341.17,274.607 1341.21,274.607Z" style="fill-rule:nonzero;"/>
                <path d="M1208.18,487.508C1208.49,488.572 1208.9,489.147 1209.2,489.45C1209.61,489.863 1210.09,490.066 1210.7,490.035C1212.79,489.987 1213.73,488.274 1213.73,486.597C1213.73,484.962 1213.42,483.829 1212.8,483.228C1212.34,482.778 1211.66,482.555 1210.7,482.597C1210.1,482.612 1209.28,482.776 1208.72,483.47C1208.07,484.289 1207.88,485.678 1208.18,487.508ZM1210.64,492.536C1209.4,492.536 1208.3,492.082 1207.43,491.218C1206.75,490.537 1206.22,489.615 1205.86,488.459C1205.86,488.459 1205.77,488.201 1205.74,488.069C1205.36,486.67 1205.19,484.958 1205.23,482.945C1205.29,480.265 1205.45,473.148 1210.64,473.035C1213.11,472.993 1214.16,473.459 1215.75,475.356L1213.84,476.963C1212.74,475.658 1212.39,475.497 1210.69,475.535C1210.01,475.549 1208.3,475.586 1207.84,480.934C1208.63,480.415 1209.58,480.124 1210.64,480.097C1212.27,480.073 1213.59,480.506 1214.55,481.438C1215.68,482.541 1216.23,484.23 1216.23,486.597C1216.23,489.485 1214.35,492.452 1210.76,492.535C1210.72,492.536 1210.68,492.536 1210.64,492.536Z" style="fill-rule:nonzero;"/>
                <path d="M1338.58,487.508C1338.89,488.572 1339.29,489.147 1339.59,489.45C1340.01,489.863 1340.48,490.066 1341.09,490.035C1343.19,489.987 1344.12,488.274 1344.12,486.597C1344.12,484.962 1343.81,483.829 1343.2,483.228C1342.73,482.778 1342.05,482.555 1341.09,482.597C1340.5,482.612 1339.67,482.776 1339.11,483.47C1338.46,484.289 1338.28,485.678 1338.58,487.508ZM1341.03,492.536C1339.8,492.536 1338.69,492.082 1337.83,491.218C1337.14,490.537 1336.62,489.615 1336.25,488.459C1336.25,488.459 1336.16,488.201 1336.14,488.069C1335.75,486.67 1335.58,484.958 1335.62,482.945C1335.68,480.265 1335.84,473.148 1341.03,473.035C1343.51,472.993 1344.55,473.459 1346.14,475.356L1344.23,476.963C1343.13,475.658 1342.78,475.497 1341.09,475.535C1340.4,475.549 1338.69,475.586 1338.23,480.934C1339.02,480.415 1339.98,480.124 1341.03,480.097C1342.66,480.073 1343.98,480.506 1344.94,481.438C1346.07,482.541 1346.62,484.23 1346.62,486.597C1346.62,489.485 1344.74,492.452 1341.15,492.535C1341.11,492.536 1341.07,492.536 1341.03,492.536Z" style="fill-rule:nonzero;"/>
            </g>
        </g>
    </g>
</svg>
