<?xml version="1.0" encoding="UTF-8" standalone="no"?>
<!DOCTYPE svg PUBLIC "-//W3C//DTD SVG 1.1//EN" "http://www.w3.org/Graphics/SVG/1.1/DTD/svg11.dtd">
<svg width="100%" height="100%" viewBox="0 0 150 225" version="1.1" xmlns="http://www.w3.org/2000/svg" xmlns:xlink="http://www.w3.org/1999/xlink" xml:space="preserve" xmlns:serif="http://www.serif.com/" style="fill-rule:evenodd;clip-rule:evenodd;stroke-linejoin:round;stroke-miterlimit:1.41421;">
    <g transform="matrix(1,0,0,1,-181,-271)">
        <g>
            <g>
                <rect x="0.25" y="1.04" width="1530.71" height="1530.71" style="fill:white;fill-rule:nonzero;"/>
                <path d="M188.581,507.274C180.723,507.274 174.331,500.882 174.331,493.024L174.331,274.41C174.331,266.553 180.723,260.16 188.581,260.16L322.155,260.16C330.013,260.16 336.405,266.553 336.405,274.41L336.405,493.024C336.405,500.882 330.013,507.274 322.155,507.274L188.581,507.274Z" style="fill:white;fill-rule:nonzero;"/>
                <path d="M322.155,259.91L188.581,259.91C180.585,259.91 174.081,266.415 174.081,274.41L174.081,493.024C174.081,501.019 180.585,507.524 188.581,507.524L322.155,507.524C330.15,507.524 336.655,501.019 336.655,493.024L336.655,274.41C336.655,266.415 330.15,259.91 322.155,259.91ZM322.155,260.41C329.887,260.41 336.155,266.678 336.155,274.41L336.155,493.024C336.155,500.756 329.887,507.024 322.155,507.024L188.581,507.024C180.849,507.024 174.581,500.756 174.581,493.024L174.581,274.41C174.581,266.678 180.849,260.41 188.581,260.41L322.155,260.41Z" style="fill-rule:nonzero;"/>
            </g>
            <g>
                <path d="M218.503,317.103C217.861,315.746 217.044,314.722 215.656,313.209C214.012,311.418 208.122,306.256 205.955,303.744C204.381,301.919 201.806,298.623 201.544,292.715C201.443,290.431 201.223,284.844 206.572,281.357C208.862,279.864 212.792,279.7 215.344,282.016C218.125,284.542 218.51,287.457 218.51,287.457C218.51,287.457 219.604,283.497 221.887,281.934C223.338,280.939 225.3,279.717 228.64,280.586C233.354,281.812 235.484,286.282 235.524,291.316C235.565,296.547 234.815,300.019 230.179,304.772C226.923,308.111 223.521,310.854 220.585,314.259C219.472,315.549 219.107,315.838 218.503,317.103Z" style="fill:rgb(200,0,0);fill-rule:nonzero;"/>
                <path d="M292.204,317.103C291.562,315.746 290.745,314.722 289.356,313.209C287.713,311.418 281.823,306.256 279.656,303.744C278.082,301.919 275.506,298.623 275.245,292.715C275.144,290.431 274.924,284.844 280.273,281.357C282.563,279.864 286.493,279.7 289.044,282.016C291.826,284.542 292.21,287.457 292.21,287.457C292.21,287.457 293.305,283.497 295.588,281.934C297.039,280.939 299,279.717 302.341,280.586C307.055,281.812 309.185,286.282 309.225,291.316C309.266,296.547 308.516,300.019 303.879,304.772C300.624,308.111 297.221,310.854 294.286,314.259C293.172,315.549 292.808,315.838 292.204,317.103Z" style="fill:rgb(200,0,0);fill-rule:nonzero;"/>
                <path d="M218.503,373.796C217.861,372.439 217.044,371.415 215.656,369.902C214.012,368.112 208.122,362.95 205.955,360.437C204.381,358.612 201.806,355.317 201.544,349.409C201.443,347.124 201.223,341.538 206.572,338.051C208.862,336.558 212.792,336.394 215.344,338.709C218.125,341.235 218.51,344.151 218.51,344.151C218.51,344.151 219.604,340.19 221.887,338.627C223.338,337.632 225.3,336.41 228.64,337.279C233.354,338.506 235.484,342.976 235.524,348.009C235.565,353.241 234.815,356.712 230.179,361.466C226.923,364.804 223.521,367.548 220.585,370.952C219.472,372.243 219.107,372.532 218.503,373.796Z" style="fill:rgb(200,0,0);fill-rule:nonzero;"/>
                <path d="M292.204,373.796C291.562,372.439 290.745,371.415 289.356,369.902C287.713,368.112 281.823,362.95 279.656,360.437C278.082,358.612 275.506,355.317 275.245,349.409C275.144,347.124 274.924,341.538 280.273,338.051C282.563,336.558 286.493,336.394 289.044,338.709C291.826,341.235 292.21,344.151 292.21,344.151C292.21,344.151 293.305,340.19 295.588,338.627C297.039,337.632 299,336.41 302.341,337.279C307.055,338.506 309.185,342.976 309.225,348.009C309.266,353.241 308.516,356.712 303.879,361.466C300.624,364.804 297.221,367.548 294.286,370.952C293.172,372.243 292.808,372.532 292.204,373.796Z" style="fill:rgb(200,0,0);fill-rule:nonzero;"/>
                <path d="M255.354,402.143C254.711,400.786 253.895,399.762 252.506,398.249C250.863,396.458 244.973,391.296 242.806,388.784C241.231,386.959 238.656,383.664 238.395,377.755C238.293,375.471 238.074,369.884 243.423,366.397C245.712,364.904 249.643,364.74 252.194,367.056C254.976,369.582 255.36,372.498 255.36,372.498C255.36,372.498 256.454,368.537 258.738,366.974C260.187,365.979 262.15,364.757 265.491,365.626C270.205,366.853 272.334,371.322 272.375,376.356C272.416,381.587 271.666,385.059 267.029,389.812C263.774,393.151 260.371,395.894 257.436,399.299C256.321,400.589 255.958,400.878 255.354,402.143Z" style="fill:rgb(200,0,0);fill-rule:nonzero;"/>
                <path d="M218.532,393.639C219.174,394.997 219.991,396.02 221.379,397.533C223.023,399.324 228.913,404.486 231.08,406.998C232.654,408.823 235.229,412.119 235.491,418.027C235.592,420.311 235.812,425.898 230.463,429.385C228.173,430.878 224.243,431.042 221.691,428.726C218.91,426.2 218.525,423.285 218.525,423.285C218.525,423.285 217.431,427.245 215.148,428.809C213.697,429.803 211.735,431.025 208.395,430.156C203.681,428.93 201.551,424.46 201.511,419.426C201.47,414.195 202.22,410.723 206.856,405.97C210.112,402.631 213.515,399.888 216.45,396.483C217.563,395.193 217.928,394.904 218.532,393.639Z" style="fill:rgb(200,0,0);fill-rule:nonzero;"/>
                <path d="M292.232,393.639C292.875,394.997 293.691,396.02 295.08,397.533C296.724,399.324 302.614,404.486 304.781,406.998C306.355,408.823 308.93,412.119 309.192,418.027C309.293,420.311 309.513,425.898 304.164,429.385C301.874,430.878 297.943,431.042 295.392,428.726C292.61,426.2 292.226,423.285 292.226,423.285C292.226,423.285 291.131,427.245 288.849,428.809C287.398,429.803 285.436,431.025 282.096,430.156C277.381,428.93 275.252,424.46 275.212,419.426C275.171,414.195 275.92,410.723 280.557,405.97C283.813,402.631 287.215,399.888 290.15,396.483C291.264,395.193 291.628,394.904 292.232,393.639Z" style="fill:rgb(200,0,0);fill-rule:nonzero;"/>
                <path d="M218.532,450.332C219.174,451.69 219.991,452.713 221.379,454.227C223.023,456.017 228.913,461.179 231.08,463.691C232.654,465.517 235.229,468.812 235.491,474.72C235.592,477.004 235.812,482.591 230.463,486.078C228.173,487.571 224.243,487.735 221.691,485.419C218.91,482.894 218.525,479.978 218.525,479.978C218.525,479.978 217.431,483.938 215.148,485.502C213.697,486.497 211.735,487.719 208.395,486.85C203.681,485.623 201.551,481.153 201.511,476.12C201.47,470.888 202.22,467.416 206.856,462.663C210.112,459.325 213.515,456.581 216.45,453.177C217.563,451.886 217.928,451.597 218.532,450.332Z" style="fill:rgb(200,0,0);fill-rule:nonzero;"/>
                <path d="M292.232,450.332C292.875,451.69 293.691,452.713 295.08,454.227C296.724,456.017 302.614,461.179 304.781,463.691C306.355,465.517 308.93,468.812 309.192,474.72C309.293,477.004 309.513,482.591 304.164,486.078C301.874,487.571 297.943,487.735 295.392,485.419C292.61,482.894 292.226,479.978 292.226,479.978C292.226,479.978 291.131,483.938 288.849,485.502C287.398,486.497 285.436,487.719 282.096,486.85C277.381,485.623 275.252,481.153 275.212,476.12C275.171,470.888 275.92,467.416 280.557,462.663C283.813,459.325 287.215,456.581 290.15,453.177C291.264,451.886 291.628,451.597 292.232,450.332Z" style="fill:rgb(200,0,0);fill-rule:nonzero;"/>
                <path d="M190.165,314.859C189.897,314.294 189.557,313.867 188.978,313.237C188.294,312.491 185.839,310.34 184.936,309.293C184.28,308.532 183.207,307.159 183.098,304.697C183.056,303.745 182.964,301.417 185.193,299.964C186.147,299.342 187.785,299.274 188.848,300.239C190.008,301.291 190.168,302.506 190.168,302.506C190.168,302.506 190.624,300.856 191.575,300.204C192.18,299.79 192.997,299.281 194.389,299.643C196.353,300.154 197.241,302.016 197.257,304.114C197.275,306.294 196.962,307.741 195.03,309.721C193.674,311.112 192.256,312.256 191.033,313.674C190.568,314.212 190.417,314.332 190.165,314.859Z" style="fill:rgb(200,0,0);fill-rule:nonzero;"/>
                <path d="M190.177,452.575C190.445,453.141 190.785,453.567 191.363,454.198C192.048,454.944 194.503,457.095 195.406,458.142C196.062,458.902 197.135,460.275 197.244,462.737C197.286,463.689 197.377,466.017 195.148,467.47C194.194,468.092 192.557,468.161 191.493,467.196C190.334,466.143 190.174,464.928 190.174,464.928C190.174,464.928 189.718,466.579 188.767,467.23C188.162,467.645 187.345,468.154 185.953,467.792C183.988,467.281 183.101,465.418 183.084,463.321C183.067,461.141 183.38,459.694 185.312,457.713C186.668,456.322 188.086,455.179 189.309,453.76C189.773,453.222 189.925,453.102 190.177,452.575Z" style="fill:rgb(200,0,0);fill-rule:nonzero;"/>
                <path d="M320.571,452.575C320.839,453.141 321.179,453.567 321.757,454.198C322.442,454.944 324.897,457.095 325.8,458.142C326.456,458.902 327.529,460.275 327.638,462.737C327.68,463.689 327.772,466.017 325.543,467.47C324.588,468.092 322.951,468.161 321.887,467.196C320.728,466.143 320.568,464.928 320.568,464.928C320.568,464.928 320.112,466.579 319.161,467.23C318.556,467.645 317.739,468.154 316.347,467.792C314.382,467.281 313.495,465.418 313.478,463.321C313.461,461.141 313.774,459.694 315.706,457.713C317.062,456.322 318.48,455.179 319.703,453.76C320.167,453.222 320.319,453.102 320.571,452.575Z" style="fill:rgb(200,0,0);fill-rule:nonzero;"/>
                <path d="M320.559,314.859C320.291,314.294 319.951,313.867 319.372,313.237C318.688,312.491 316.233,310.34 315.33,309.293C314.674,308.532 313.601,307.159 313.492,304.697C313.45,303.745 313.358,301.417 315.587,299.964C316.541,299.342 318.179,299.274 319.242,300.239C320.402,301.291 320.562,302.506 320.562,302.506C320.562,302.506 321.018,300.856 321.969,300.204C322.574,299.79 323.391,299.281 324.783,299.643C326.747,300.154 327.635,302.016 327.651,304.114C327.669,306.294 327.356,307.741 325.424,309.721C324.068,311.112 322.65,312.256 321.427,313.674C320.962,314.212 320.811,314.332 320.559,314.859Z" style="fill:rgb(200,0,0);fill-rule:nonzero;"/>
                <path d="M192.799,279.635C192.49,278.571 192.085,277.996 191.783,277.693C191.369,277.28 190.894,277.077 190.281,277.108C188.188,277.156 187.251,278.869 187.251,280.546C187.251,282.181 187.564,283.314 188.18,283.915C188.641,284.365 189.32,284.588 190.282,284.546C190.879,284.531 191.707,284.367 192.261,283.673C192.915,282.854 193.098,281.465 192.799,279.635ZM190.341,274.607C191.578,274.607 192.685,275.061 193.549,275.925C194.231,276.606 194.757,277.528 195.124,278.684C195.124,278.684 195.216,278.942 195.239,279.074C195.624,280.473 195.795,282.185 195.751,284.198C195.692,286.878 195.536,293.995 190.341,294.108C187.869,294.15 186.825,293.684 185.232,291.787L187.146,290.18C188.243,291.485 188.591,291.646 190.287,291.608C190.974,291.594 192.683,291.557 193.145,286.209C192.357,286.728 191.399,287.019 190.346,287.046C188.714,287.07 187.391,286.637 186.435,285.705C185.302,284.602 184.751,282.913 184.751,280.546C184.751,277.658 186.631,274.691 190.223,274.608C190.262,274.607 190.302,274.607 190.341,274.607Z" style="fill:rgb(200,0,0);fill-rule:nonzero;"/>
                <path d="M323.192,279.635C322.883,278.571 322.479,277.996 322.176,277.693C321.762,277.28 321.287,277.077 320.674,277.108C318.582,277.156 317.645,278.869 317.645,280.546C317.645,282.181 317.958,283.314 318.574,283.915C319.034,284.365 319.714,284.588 320.676,284.546C321.272,284.531 322.1,284.367 322.655,283.673C323.308,282.854 323.492,281.465 323.192,279.635ZM320.735,274.607C321.971,274.607 323.079,275.061 323.943,275.925C324.625,276.606 325.15,277.528 325.518,278.684C325.518,278.684 325.61,278.942 325.633,279.074C326.018,280.473 326.189,282.185 326.145,284.198C326.086,286.878 325.93,293.995 320.735,294.108C318.263,294.15 317.219,293.684 315.625,291.787L317.54,290.18C318.637,291.485 318.984,291.646 320.681,291.608C321.368,291.594 323.076,291.557 323.539,286.209C322.75,286.728 321.793,287.019 320.74,287.046C319.108,287.07 317.784,286.637 316.829,285.705C315.696,284.602 315.145,282.913 315.145,280.546C315.145,277.658 317.024,274.691 320.616,274.608C320.656,274.607 320.695,274.607 320.735,274.607Z" style="fill:rgb(200,0,0);fill-rule:nonzero;"/>
                <path d="M187.711,487.508C188.02,488.572 188.424,489.147 188.727,489.45C189.141,489.863 189.616,490.066 190.229,490.035C192.322,489.987 193.258,488.274 193.258,486.597C193.258,484.962 192.946,483.829 192.33,483.228C191.869,482.778 191.189,482.555 190.228,482.597C189.631,482.612 188.803,482.776 188.249,483.47C187.595,484.289 187.412,485.678 187.711,487.508ZM190.168,492.536C188.932,492.536 187.825,492.082 186.96,491.218C186.278,490.537 185.753,489.615 185.386,488.459C185.386,488.459 185.293,488.201 185.271,488.069C184.886,486.67 184.714,484.958 184.759,482.945C184.817,480.265 184.974,473.148 190.168,473.035C192.641,472.993 193.685,473.459 195.278,475.356L193.364,476.963C192.267,475.658 191.919,475.497 190.223,475.535C189.536,475.549 187.827,475.586 187.365,480.934C188.153,480.415 189.11,480.124 190.164,480.097C191.795,480.073 193.119,480.506 194.075,481.438C195.208,482.541 195.758,484.23 195.758,486.597C195.758,489.485 193.879,492.452 190.287,492.535C190.248,492.536 190.208,492.536 190.168,492.536Z" style="fill:rgb(200,0,0);fill-rule:nonzero;"/>
                <path d="M318.104,487.508C318.414,488.572 318.818,489.147 319.121,489.45C319.535,489.863 320.01,490.066 320.623,490.035C322.715,489.987 323.652,488.274 323.652,486.597C323.652,484.962 323.339,483.829 322.723,483.228C322.263,482.778 321.583,482.555 320.621,482.597C320.024,482.612 319.197,482.776 318.642,483.47C317.989,484.289 317.805,485.678 318.104,487.508ZM320.562,492.536C319.326,492.536 318.218,492.082 317.354,491.218C316.672,490.537 316.146,489.615 315.779,488.459C315.779,488.459 315.687,488.201 315.664,488.069C315.279,486.67 315.108,484.958 315.152,482.945C315.211,480.265 315.367,473.148 320.562,473.035C323.034,472.993 324.078,473.459 325.671,475.356L323.757,476.963C322.66,475.658 322.313,475.497 320.616,475.535C319.929,475.549 318.221,475.586 317.758,480.934C318.546,480.415 319.504,480.124 320.557,480.097C322.189,480.073 323.513,480.506 324.468,481.438C325.601,482.541 326.152,484.23 326.152,486.597C326.152,489.485 324.272,492.452 320.681,492.535C320.641,492.536 320.602,492.536 320.562,492.536Z" style="fill:rgb(200,0,0);fill-rule:nonzero;"/>
            </g>
        </g>
    </g>
</svg>
