<?xml version="1.0" encoding="UTF-8" standalone="no"?>
<!DOCTYPE svg PUBLIC "-//W3C//DTD SVG 1.1//EN" "http://www.w3.org/Graphics/SVG/1.1/DTD/svg11.dtd">
<svg width="100%" height="100%" viewBox="0 0 150 225" version="1.1" xmlns="http://www.w3.org/2000/svg" xmlns:xlink="http://www.w3.org/1999/xlink" xml:space="preserve" xmlns:serif="http://www.serif.com/" style="fill-rule:evenodd;clip-rule:evenodd;stroke-linejoin:round;stroke-miterlimit:1.41421;">
    <g transform="matrix(1,0,0,1,-11,-1036)">
        <g>
            <g>
                <rect x="0.25" y="1.04" width="1530.71" height="1530.71" style="fill:white;fill-rule:nonzero;"/>
                <path d="M18.502,1272.63C10.644,1272.63 4.251,1266.24 4.251,1258.38L4.251,1039.76C4.251,1031.91 10.644,1025.51 18.502,1025.51L152.077,1025.51C159.934,1025.51 166.327,1031.91 166.327,1039.76L166.327,1258.38C166.327,1266.24 159.934,1272.63 152.077,1272.63L18.502,1272.63Z" style="fill:white;fill-rule:nonzero;"/>
                <path d="M152.077,1025.26L18.502,1025.26C10.506,1025.26 4.001,1031.77 4.001,1039.76L4.001,1258.38C4.001,1266.37 10.506,1272.88 18.502,1272.88L152.077,1272.88C160.072,1272.88 166.577,1266.37 166.577,1258.38L166.577,1039.76C166.577,1031.77 160.072,1025.26 152.077,1025.26ZM152.077,1025.76C159.809,1025.76 166.077,1032.03 166.077,1039.76L166.077,1258.38C166.077,1266.11 159.809,1272.38 152.077,1272.38L18.502,1272.38C10.77,1272.38 4.501,1266.11 4.501,1258.38L4.501,1039.76C4.501,1032.03 10.77,1025.76 18.502,1025.76L152.077,1025.76Z" style="fill-rule:nonzero;"/>
            </g>
            <g>
                <path d="M48.425,1082.46C47.782,1081.1 46.966,1080.08 45.577,1078.56C43.934,1076.77 38.043,1071.61 35.877,1069.1C34.302,1067.27 31.727,1063.98 31.465,1058.07C31.364,1055.79 31.145,1050.2 36.494,1046.71C38.783,1045.22 42.714,1045.05 45.265,1047.37C48.047,1049.9 48.431,1052.81 48.431,1052.81C48.431,1052.81 49.526,1048.85 51.809,1047.29C53.259,1046.29 55.221,1045.07 58.562,1045.94C63.276,1047.17 65.405,1051.64 65.445,1056.67C65.486,1061.9 64.737,1065.37 60.1,1070.13C56.845,1073.47 53.442,1076.21 50.507,1079.61C49.393,1080.9 49.029,1081.19 48.425,1082.46Z" style="fill:rgb(200,0,0);fill-rule:nonzero;"/>
                <path d="M122.125,1082.46C121.483,1081.1 120.667,1080.08 119.278,1078.56C117.634,1076.77 111.744,1071.61 109.577,1069.1C108.003,1067.27 105.428,1063.98 105.166,1058.07C105.065,1055.79 104.845,1050.2 110.194,1046.71C112.484,1045.22 116.415,1045.05 118.966,1047.37C121.748,1049.9 122.132,1052.81 122.132,1052.81C122.132,1052.81 123.227,1048.85 125.509,1047.29C126.96,1046.29 128.922,1045.07 132.262,1045.94C136.977,1047.17 139.106,1051.64 139.146,1056.67C139.187,1061.9 138.438,1065.37 133.801,1070.13C130.545,1073.47 127.143,1076.21 124.208,1079.61C123.094,1080.9 122.729,1081.19 122.125,1082.46Z" style="fill:rgb(200,0,0);fill-rule:nonzero;"/>
                <path d="M48.425,1167.5C47.782,1166.14 46.966,1165.12 45.577,1163.6C43.934,1161.81 38.043,1156.65 35.877,1154.14C34.302,1152.31 31.727,1149.02 31.465,1143.11C31.364,1140.83 31.145,1135.24 36.494,1131.75C38.783,1130.26 42.714,1130.09 45.265,1132.41C48.047,1134.94 48.431,1137.85 48.431,1137.85C48.431,1137.85 49.526,1133.89 51.809,1132.33C53.259,1131.33 55.221,1130.11 58.562,1130.98C63.276,1132.21 65.405,1136.68 65.445,1141.71C65.486,1146.94 64.737,1150.41 60.1,1155.17C56.845,1158.51 53.442,1161.25 50.507,1164.65C49.393,1165.94 49.029,1166.23 48.425,1167.5Z" style="fill:rgb(200,0,0);fill-rule:nonzero;"/>
                <path d="M122.125,1167.5C121.483,1166.14 120.667,1165.12 119.278,1163.6C117.634,1161.81 111.744,1156.65 109.577,1154.14C108.003,1152.31 105.428,1149.02 105.166,1143.11C105.065,1140.83 104.845,1135.24 110.194,1131.75C112.484,1130.26 116.415,1130.09 118.966,1132.41C121.748,1134.94 122.132,1137.85 122.132,1137.85C122.132,1137.85 123.227,1133.89 125.509,1132.33C126.96,1131.33 128.922,1130.11 132.262,1130.98C136.977,1132.21 139.106,1136.68 139.146,1141.71C139.187,1146.94 138.438,1150.41 133.801,1155.17C130.545,1158.51 127.143,1161.25 124.208,1164.65C123.094,1165.94 122.729,1166.23 122.125,1167.5Z" style="fill:rgb(200,0,0);fill-rule:nonzero;"/>
                <path d="M48.453,1215.69C49.096,1217.04 49.912,1218.07 51.301,1219.58C52.944,1221.37 58.835,1226.53 61.002,1229.05C62.576,1230.87 65.151,1234.17 65.413,1240.07C65.514,1242.36 65.733,1247.95 60.384,1251.43C58.095,1252.93 54.164,1253.09 51.613,1250.77C48.831,1248.25 48.447,1245.33 48.447,1245.33C48.447,1245.33 47.352,1249.29 45.069,1250.86C43.619,1251.85 41.657,1253.07 38.316,1252.2C33.602,1250.98 31.473,1246.51 31.433,1241.47C31.392,1236.24 32.141,1232.77 36.778,1228.02C40.033,1224.68 43.436,1221.94 46.371,1218.53C47.485,1217.24 47.849,1216.95 48.453,1215.69Z" style="fill:rgb(200,0,0);fill-rule:nonzero;"/>
                <path d="M122.154,1215.69C122.796,1217.04 123.613,1218.07 125.001,1219.58C126.645,1221.37 132.535,1226.53 134.702,1229.05C136.276,1230.87 138.852,1234.17 139.113,1240.07C139.214,1242.36 139.434,1247.95 134.085,1251.43C131.795,1252.93 127.865,1253.09 125.313,1250.77C122.532,1248.25 122.147,1245.33 122.147,1245.33C122.147,1245.33 121.053,1249.29 118.77,1250.86C117.319,1251.85 115.357,1253.07 112.017,1252.2C107.303,1250.98 105.173,1246.51 105.133,1241.47C105.092,1236.24 105.842,1232.77 110.479,1228.02C113.734,1224.68 117.137,1221.94 120.072,1218.53C121.186,1217.24 121.55,1216.95 122.154,1215.69Z" style="fill:rgb(200,0,0);fill-rule:nonzero;"/>
                <path d="M20.086,1080.21C19.818,1079.65 19.478,1079.22 18.899,1078.59C18.214,1077.85 15.76,1075.69 14.857,1074.65C14.201,1073.89 13.128,1072.51 13.019,1070.05C12.977,1069.1 12.885,1066.77 15.114,1065.32C16.068,1064.7 17.706,1064.63 18.769,1065.59C19.928,1066.65 20.089,1067.86 20.089,1067.86C20.089,1067.86 20.545,1066.21 21.496,1065.56C22.1,1065.14 22.918,1064.63 24.31,1065C26.274,1065.51 27.162,1067.37 27.178,1069.47C27.195,1071.65 26.883,1073.09 24.951,1075.08C23.595,1076.47 22.177,1077.61 20.954,1079.03C20.489,1079.57 20.338,1079.69 20.086,1080.21Z" style="fill:rgb(200,0,0);fill-rule:nonzero;"/>
                <path d="M20.098,1217.93C20.365,1218.5 20.706,1218.92 21.284,1219.55C21.969,1220.3 24.424,1222.45 25.327,1223.5C25.983,1224.26 27.056,1225.63 27.165,1228.09C27.207,1229.04 27.298,1231.37 25.069,1232.82C24.115,1233.45 22.477,1233.52 21.414,1232.55C20.255,1231.5 20.095,1230.28 20.095,1230.28C20.095,1230.28 19.639,1231.93 18.688,1232.58C18.083,1233 17.266,1233.51 15.874,1233.15C13.909,1232.64 13.022,1230.77 13.005,1228.68C12.988,1226.5 13.301,1225.05 15.233,1223.07C16.589,1221.68 18.007,1220.53 19.23,1219.11C19.694,1218.58 19.846,1218.46 20.098,1217.93Z" style="fill:rgb(200,0,0);fill-rule:nonzero;"/>
                <path d="M150.492,1217.93C150.76,1218.5 151.1,1218.92 151.679,1219.55C152.364,1220.3 154.818,1222.45 155.721,1223.5C156.377,1224.26 157.45,1225.63 157.559,1228.09C157.601,1229.04 157.693,1231.37 155.464,1232.82C154.51,1233.45 152.872,1233.52 151.809,1232.55C150.65,1231.5 150.49,1230.28 150.49,1230.28C150.49,1230.28 150.033,1231.93 149.082,1232.58C148.478,1233 147.66,1233.51 146.268,1233.15C144.304,1232.64 143.416,1230.77 143.4,1228.68C143.383,1226.5 143.695,1225.05 145.627,1223.07C146.984,1221.68 148.402,1220.53 149.625,1219.11C150.089,1218.58 150.241,1218.46 150.492,1217.93Z" style="fill:rgb(200,0,0);fill-rule:nonzero;"/>
                <path d="M150.48,1080.21C150.213,1079.65 149.872,1079.22 149.294,1078.59C148.609,1077.85 146.155,1075.69 145.252,1074.65C144.596,1073.89 143.522,1072.51 143.413,1070.05C143.371,1069.1 143.28,1066.77 145.509,1065.32C146.463,1064.7 148.101,1064.63 149.164,1065.59C150.323,1066.65 150.483,1067.86 150.483,1067.86C150.483,1067.86 150.939,1066.21 151.89,1065.56C152.495,1065.14 153.312,1064.63 154.704,1065C156.669,1065.51 157.556,1067.37 157.573,1069.47C157.59,1071.65 157.278,1073.09 155.346,1075.08C153.989,1076.47 152.571,1077.61 151.348,1079.03C150.884,1079.57 150.732,1079.69 150.48,1080.21Z" style="fill:rgb(200,0,0);fill-rule:nonzero;"/>
                <path d="M17.515,1054.58C17.824,1055.64 18.228,1056.21 18.531,1056.52C18.945,1056.93 19.42,1057.13 20.033,1057.1C22.126,1057.05 23.062,1055.34 23.062,1053.67C23.062,1052.03 22.75,1050.9 22.133,1050.3C21.673,1049.85 20.993,1049.62 20.031,1049.67C19.435,1049.68 18.607,1049.84 18.052,1050.54C17.399,1051.36 17.215,1052.75 17.515,1054.58ZM19.972,1059.6C18.736,1059.6 17.628,1059.15 16.764,1058.29C16.082,1057.6 15.557,1056.68 15.189,1055.53C15.189,1055.53 15.097,1055.27 15.074,1055.14C14.689,1053.74 14.518,1052.03 14.563,1050.01C14.621,1047.33 14.777,1040.22 19.972,1040.1C22.444,1040.06 23.488,1040.53 25.082,1042.42L23.168,1044.03C22.07,1042.73 21.723,1042.56 20.026,1042.6C19.339,1042.62 17.631,1042.65 17.168,1048C17.957,1047.48 18.914,1047.19 19.967,1047.17C21.599,1047.14 22.923,1047.57 23.878,1048.51C25.011,1049.61 25.562,1051.3 25.562,1053.67C25.562,1056.55 23.683,1059.52 20.091,1059.6C20.051,1059.6 20.012,1059.6 19.972,1059.6Z" style="fill:rgb(200,0,0);fill-rule:nonzero;"/>
                <path d="M147.909,1054.58C148.218,1055.64 148.622,1056.21 148.925,1056.52C149.339,1056.93 149.814,1057.13 150.427,1057.1C152.52,1057.05 153.456,1055.34 153.456,1053.67C153.456,1052.03 153.144,1050.9 152.527,1050.3C152.067,1049.85 151.387,1049.62 150.425,1049.67C149.829,1049.68 149.001,1049.84 148.446,1050.54C147.793,1051.36 147.609,1052.75 147.909,1054.58ZM150.366,1059.6C149.13,1059.6 148.022,1059.15 147.158,1058.29C146.476,1057.6 145.951,1056.68 145.583,1055.53C145.583,1055.53 145.491,1055.27 145.468,1055.14C145.083,1053.74 144.912,1052.03 144.957,1050.01C145.015,1047.33 145.171,1040.22 150.366,1040.1C152.838,1040.06 153.882,1040.53 155.476,1042.42L153.562,1044.03C152.464,1042.73 152.117,1042.56 150.42,1042.6C149.733,1042.62 148.025,1042.65 147.563,1048C148.351,1047.48 149.308,1047.19 150.361,1047.17C151.993,1047.14 153.317,1047.57 154.272,1048.51C155.405,1049.61 155.956,1051.3 155.956,1053.67C155.956,1056.55 154.077,1059.52 150.485,1059.6C150.445,1059.6 150.406,1059.6 150.366,1059.6Z" style="fill:rgb(200,0,0);fill-rule:nonzero;"/>
                <path d="M22.604,1243.55C22.294,1242.49 21.89,1241.91 21.587,1241.61C21.173,1241.2 20.698,1240.99 20.085,1241.03C17.993,1241.07 17.056,1242.79 17.056,1244.46C17.056,1246.1 17.369,1247.23 17.985,1247.83C18.445,1248.28 19.125,1248.5 20.087,1248.46C20.684,1248.45 21.511,1248.28 22.066,1247.59C22.719,1246.77 22.903,1245.38 22.604,1243.55ZM20.146,1238.52C21.382,1238.52 22.49,1238.98 23.354,1239.84C24.036,1240.52 24.562,1241.45 24.929,1242.6C24.929,1242.6 25.021,1242.86 25.044,1242.99C25.429,1244.39 25.6,1246.1 25.556,1248.12C25.497,1250.79 25.341,1257.91 20.146,1258.03C17.674,1258.07 16.63,1257.6 15.037,1255.7L16.951,1254.1C18.048,1255.4 18.396,1255.56 20.092,1255.53C20.779,1255.51 22.487,1255.47 22.95,1250.13C22.162,1250.65 21.204,1250.94 20.151,1250.96C18.519,1250.99 17.195,1250.55 16.24,1249.62C15.107,1248.52 14.556,1246.83 14.556,1244.46C14.556,1241.58 16.436,1238.61 20.027,1238.53C20.067,1238.52 20.106,1238.52 20.146,1238.52Z" style="fill:rgb(200,0,0);fill-rule:nonzero;"/>
                <path d="M152.998,1243.55C152.688,1242.49 152.284,1241.91 151.981,1241.61C151.567,1241.2 151.092,1240.99 150.479,1241.03C148.387,1241.07 147.45,1242.79 147.45,1244.46C147.45,1246.1 147.763,1247.23 148.379,1247.83C148.839,1248.28 149.519,1248.5 150.481,1248.46C151.078,1248.45 151.905,1248.28 152.46,1247.59C153.113,1246.77 153.297,1245.38 152.998,1243.55ZM150.54,1238.52C151.776,1238.52 152.884,1238.98 153.748,1239.84C154.43,1240.52 154.956,1241.45 155.323,1242.6C155.323,1242.6 155.415,1242.86 155.438,1242.99C155.823,1244.39 155.994,1246.1 155.95,1248.12C155.891,1250.79 155.735,1257.91 150.54,1258.03C148.068,1258.07 147.024,1257.6 145.431,1255.7L147.345,1254.1C148.442,1255.4 148.79,1255.56 150.486,1255.53C151.173,1255.51 152.881,1255.47 153.344,1250.13C152.556,1250.65 151.598,1250.94 150.545,1250.96C148.913,1250.99 147.589,1250.55 146.634,1249.62C145.501,1248.52 144.95,1246.83 144.95,1244.46C144.95,1241.58 146.83,1238.61 150.421,1238.53C150.461,1238.52 150.5,1238.52 150.54,1238.52Z" style="fill:rgb(200,0,0);fill-rule:nonzero;"/>
            </g>
        </g>
    </g>
</svg>
