<?xml version="1.0" encoding="UTF-8" standalone="no"?>
<!DOCTYPE svg PUBLIC "-//W3C//DTD SVG 1.1//EN" "http://www.w3.org/Graphics/SVG/1.1/DTD/svg11.dtd">
<svg width="100%" height="100%" viewBox="0 0 150 225" version="1.1" xmlns="http://www.w3.org/2000/svg" xmlns:xlink="http://www.w3.org/1999/xlink" xml:space="preserve" xmlns:serif="http://www.serif.com/" style="fill-rule:evenodd;clip-rule:evenodd;stroke-linejoin:round;stroke-miterlimit:1.41421;">
    <g transform="matrix(1,0,0,1,-351,-1036)">
        <g>
            <g>
                <rect x="0.25" y="1.04" width="1530.71" height="1530.71" style="fill:white;fill-rule:nonzero;"/>
                <path d="M358.659,1272.63C350.802,1272.63 344.409,1266.24 344.409,1258.38L344.409,1039.76C344.409,1031.91 350.802,1025.51 358.659,1025.51L492.234,1025.51C500.091,1025.51 506.484,1031.91 506.484,1039.76L506.484,1258.38C506.484,1266.24 500.091,1272.63 492.234,1272.63L358.659,1272.63Z" style="fill:white;fill-rule:nonzero;"/>
                <path d="M492.234,1025.26L358.659,1025.26C350.664,1025.26 344.159,1031.77 344.159,1039.76L344.159,1258.38C344.159,1266.37 350.664,1272.88 358.659,1272.88L492.234,1272.88C500.229,1272.88 506.734,1266.37 506.734,1258.38L506.734,1039.76C506.734,1031.77 500.229,1025.26 492.234,1025.26ZM492.234,1025.76C499.966,1025.76 506.234,1032.03 506.234,1039.76L506.234,1258.38C506.234,1266.11 499.966,1272.38 492.234,1272.38L358.659,1272.38C350.927,1272.38 344.659,1266.11 344.659,1258.38L344.659,1039.76C344.659,1032.03 350.927,1025.76 358.659,1025.76L492.234,1025.76Z" style="fill-rule:nonzero;"/>
            </g>
            <g>
                <path d="M388.597,1082.46C391.803,1077.08 400.219,1067.83 405.605,1064.03C400.219,1060.23 391.803,1050.98 388.597,1045.61C385.391,1050.98 376.974,1060.23 371.588,1064.03C376.974,1067.83 385.391,1077.08 388.597,1082.46Z" style="fill:rgb(200,0,0);fill-rule:nonzero;"/>
                <path d="M462.297,1082.46C465.503,1077.08 473.919,1067.83 479.305,1064.03C473.919,1060.23 465.503,1050.98 462.297,1045.61C459.091,1050.98 450.674,1060.23 445.289,1064.03C450.674,1067.83 459.091,1077.08 462.297,1082.46Z" style="fill:rgb(200,0,0);fill-rule:nonzero;"/>
                <path d="M388.597,1167.5C391.803,1162.12 400.219,1152.87 405.605,1149.07C400.219,1145.27 391.803,1136.02 388.597,1130.65C385.391,1136.02 376.974,1145.27 371.588,1149.07C376.974,1152.87 385.391,1162.12 388.597,1167.5Z" style="fill:rgb(200,0,0);fill-rule:nonzero;"/>
                <path d="M462.297,1167.5C465.503,1162.12 473.919,1152.87 479.305,1149.07C473.919,1145.27 465.503,1136.02 462.297,1130.65C459.091,1136.02 450.674,1145.27 445.289,1149.07C450.674,1152.87 459.091,1162.12 462.297,1167.5Z" style="fill:rgb(200,0,0);fill-rule:nonzero;"/>
                <path d="M388.597,1215.69C385.391,1221.06 376.974,1230.31 371.588,1234.11C376.974,1237.91 385.391,1247.16 388.597,1252.54C391.803,1247.16 400.219,1237.91 405.605,1234.11C400.219,1230.31 391.803,1221.06 388.597,1215.69Z" style="fill:rgb(200,0,0);fill-rule:nonzero;"/>
                <path d="M462.297,1215.69C459.091,1221.06 450.674,1230.31 445.289,1234.11C450.674,1237.91 459.091,1247.16 462.297,1252.54C465.503,1247.16 473.919,1237.91 479.305,1234.11C473.919,1230.31 465.503,1221.06 462.297,1215.69Z" style="fill:rgb(200,0,0);fill-rule:nonzero;"/>
                <path d="M360.25,1080.21C361.586,1077.97 365.093,1074.12 367.337,1072.54C365.093,1070.95 361.586,1067.1 360.25,1064.86C358.914,1067.1 355.407,1070.95 353.163,1072.54C355.407,1074.12 358.914,1077.97 360.25,1080.21Z" style="fill:rgb(200,0,0);fill-rule:nonzero;"/>
                <path d="M360.25,1217.93C358.914,1220.17 355.407,1224.02 353.163,1225.61C355.407,1227.19 358.914,1231.04 360.25,1233.28C361.586,1231.04 365.093,1227.19 367.337,1225.61C365.093,1224.02 361.586,1220.17 360.25,1217.93Z" style="fill:rgb(200,0,0);fill-rule:nonzero;"/>
                <path d="M490.644,1217.93C489.308,1220.17 485.8,1224.02 483.556,1225.61C485.8,1227.19 489.308,1231.04 490.644,1233.28C491.979,1231.04 495.487,1227.19 497.731,1225.61C495.487,1224.02 491.979,1220.17 490.644,1217.93Z" style="fill:rgb(200,0,0);fill-rule:nonzero;"/>
                <path d="M490.644,1080.21C491.979,1077.97 495.487,1074.12 497.731,1072.54C495.487,1070.95 491.979,1067.1 490.644,1064.86C489.308,1067.1 485.8,1070.95 483.556,1072.54C485.8,1074.12 489.308,1077.97 490.644,1080.21Z" style="fill:rgb(200,0,0);fill-rule:nonzero;"/>
                <path d="M357.673,1054.58C357.981,1055.64 358.386,1056.21 358.688,1056.52C359.103,1056.93 359.578,1057.13 360.19,1057.1C362.283,1057.05 363.22,1055.34 363.22,1053.67C363.22,1052.03 362.907,1050.9 362.291,1050.3C361.831,1049.85 361.151,1049.62 360.189,1049.67C359.593,1049.68 358.765,1049.84 358.21,1050.54C357.557,1051.36 357.373,1052.75 357.673,1054.58ZM360.13,1059.6C358.894,1059.6 357.786,1059.15 356.922,1058.29C356.24,1057.6 355.715,1056.68 355.348,1055.53C355.348,1055.53 355.255,1055.27 355.232,1055.14C354.848,1053.74 354.676,1052.03 354.721,1050.01C354.779,1047.33 354.936,1040.22 360.13,1040.1C362.603,1040.06 363.646,1040.53 365.239,1042.42L363.325,1044.03C362.229,1042.73 361.881,1042.56 360.185,1042.6C359.497,1042.62 357.789,1042.65 357.326,1048C358.114,1047.48 359.072,1047.19 360.125,1047.17C361.757,1047.14 363.081,1047.57 364.036,1048.51C365.169,1049.61 365.72,1051.3 365.72,1053.67C365.72,1056.55 363.841,1059.52 360.249,1059.6C360.209,1059.6 360.17,1059.6 360.13,1059.6Z" style="fill:rgb(200,0,0);fill-rule:nonzero;"/>
                <path d="M488.066,1054.58C488.375,1055.64 488.779,1056.21 489.082,1056.52C489.496,1056.93 489.972,1057.13 490.584,1057.1C492.677,1057.05 493.613,1055.34 493.613,1053.67C493.613,1052.03 493.301,1050.9 492.685,1050.3C492.225,1049.85 491.545,1049.62 490.583,1049.67C489.986,1049.68 489.158,1049.84 488.604,1050.54C487.95,1051.36 487.767,1052.75 488.066,1054.58ZM490.523,1059.6C489.287,1059.6 488.18,1059.15 487.315,1058.29C486.634,1057.6 486.108,1056.68 485.741,1055.53C485.741,1055.53 485.648,1055.27 485.626,1055.14C485.241,1053.74 485.069,1052.03 485.114,1050.01C485.173,1047.33 485.329,1040.22 490.523,1040.1C492.996,1040.06 494.04,1040.53 495.633,1042.42L493.719,1044.03C492.622,1042.73 492.274,1042.56 490.578,1042.6C489.891,1042.62 488.183,1042.65 487.72,1048C488.508,1047.48 489.466,1047.19 490.519,1047.17C492.15,1047.14 493.475,1047.57 494.43,1048.51C495.563,1049.61 496.113,1051.3 496.113,1053.67C496.113,1056.55 494.234,1059.52 490.643,1059.6C490.603,1059.6 490.563,1059.6 490.523,1059.6Z" style="fill:rgb(200,0,0);fill-rule:nonzero;"/>
                <path d="M362.762,1243.55C362.452,1242.49 362.048,1241.91 361.745,1241.61C361.331,1241.2 360.856,1240.99 360.243,1241.03C358.15,1241.07 357.214,1242.79 357.214,1244.46C357.214,1246.1 357.526,1247.23 358.143,1247.83C358.604,1248.28 359.283,1248.5 360.245,1248.46C360.842,1248.45 361.669,1248.28 362.224,1247.59C362.877,1246.77 363.061,1245.38 362.762,1243.55ZM360.304,1238.52C361.54,1238.52 362.647,1238.98 363.512,1239.84C364.194,1240.52 364.72,1241.45 365.087,1242.6C365.087,1242.6 365.179,1242.86 365.202,1242.99C365.587,1244.39 365.758,1246.1 365.714,1248.12C365.655,1250.79 365.499,1257.91 360.304,1258.03C357.832,1258.07 356.788,1257.6 355.194,1255.7L357.108,1254.1C358.206,1255.4 358.554,1255.56 360.25,1255.53C360.937,1255.51 362.646,1255.47 363.107,1250.13C362.319,1250.65 361.362,1250.94 360.309,1250.96C358.677,1250.99 357.354,1250.55 356.397,1249.62C355.265,1248.52 354.714,1246.83 354.714,1244.46C354.714,1241.58 356.594,1238.61 360.186,1238.53C360.225,1238.52 360.265,1238.52 360.304,1238.52Z" style="fill:rgb(200,0,0);fill-rule:nonzero;"/>
                <path d="M493.155,1243.55C492.846,1242.49 492.441,1241.91 492.139,1241.61C491.725,1241.2 491.25,1240.99 490.637,1241.03C488.544,1241.07 487.607,1242.79 487.607,1244.46C487.607,1246.1 487.92,1247.23 488.536,1247.83C488.997,1248.28 489.677,1248.5 490.639,1248.46C491.235,1248.45 492.063,1248.28 492.617,1247.59C493.271,1246.77 493.454,1245.38 493.155,1243.55ZM490.697,1238.52C491.934,1238.52 493.041,1238.98 493.905,1239.84C494.588,1240.52 495.113,1241.45 495.48,1242.6C495.48,1242.6 495.572,1242.86 495.596,1242.99C495.98,1244.39 496.151,1246.1 496.107,1248.12C496.049,1250.79 495.893,1257.91 490.697,1258.03C488.226,1258.07 487.182,1257.6 485.588,1255.7L487.502,1254.1C488.6,1255.4 488.947,1255.56 490.644,1255.53C491.33,1255.51 493.039,1255.47 493.501,1250.13C492.713,1250.65 491.756,1250.94 490.702,1250.96C489.07,1250.99 487.747,1250.55 486.791,1249.62C485.658,1248.52 485.107,1246.83 485.107,1244.46C485.107,1241.58 486.987,1238.61 490.579,1238.53C490.618,1238.52 490.658,1238.52 490.697,1238.52Z" style="fill:rgb(200,0,0);fill-rule:nonzero;"/>
            </g>
        </g>
    </g>
</svg>
