<?xml version="1.0" encoding="UTF-8" standalone="no"?>
<!DOCTYPE svg PUBLIC "-//W3C//DTD SVG 1.1//EN" "http://www.w3.org/Graphics/SVG/1.1/DTD/svg11.dtd">
<svg width="100%" height="100%" viewBox="0 0 150 225" version="1.1" xmlns="http://www.w3.org/2000/svg" xmlns:xlink="http://www.w3.org/1999/xlink" xml:space="preserve" xmlns:serif="http://www.serif.com/" style="fill-rule:evenodd;clip-rule:evenodd;stroke-linejoin:round;stroke-miterlimit:1.41421;">
    <g transform="matrix(1,0,0,1,-861,-526)">
        <g>
            <g>
                <rect x="0.25" y="1.04" width="1530.71" height="1530.71" style="fill:white;fill-rule:nonzero;"/>
                <path d="M868.896,762.393C861.038,762.393 854.646,756 854.646,748.143L854.646,529.528C854.646,521.671 861.038,515.278 868.896,515.278L1002.47,515.278C1010.33,515.278 1016.72,521.671 1016.72,529.528L1016.72,748.143C1016.72,756 1010.33,762.393 1002.47,762.393L868.896,762.393Z" style="fill:white;fill-rule:nonzero;"/>
                <path d="M1002.47,515.028L868.896,515.028C860.9,515.028 854.396,521.533 854.396,529.528L854.396,748.143C854.396,756.138 860.9,762.643 868.896,762.643L1002.47,762.643C1010.47,762.643 1016.97,756.138 1016.97,748.143L1016.97,529.528C1016.97,521.533 1010.47,515.028 1002.47,515.028ZM1002.47,515.528C1010.2,515.528 1016.47,521.796 1016.47,529.528L1016.47,748.143C1016.47,755.874 1010.2,762.143 1002.47,762.143L868.896,762.143C861.163,762.143 854.896,755.874 854.896,748.143L854.896,529.528C854.896,521.796 861.163,515.528 868.896,515.528L1002.47,515.528Z" style="fill-rule:nonzero;"/>
            </g>
            <g>
                <path d="M909.352,549.672C907.201,549.252 904.258,550.918 901.864,552.674C904.075,550.265 906.682,546.839 906.682,544.069C906.682,539.266 903.167,535.371 898.832,535.371C894.497,535.371 890.982,539.266 890.982,544.069C890.982,546.84 893.59,550.266 895.8,552.675C893.407,550.918 890.463,549.252 888.313,549.672C884.043,550.507 881.192,555.018 881.945,559.749C882.697,564.48 886.77,567.64 891.039,566.805C893.627,566.299 896.364,562.518 898.118,559.618C897.462,563.627 896.44,569.223 895.415,572.221C898.435,572.194 898.832,572.221 898.832,572.221C898.832,572.221 899.229,572.194 902.25,572.221C901.224,569.223 900.202,563.627 899.546,559.618C901.3,562.518 904.037,566.299 906.626,566.805C910.895,567.64 914.967,564.48 915.719,559.749C916.472,555.018 913.621,550.507 909.352,549.672Z" style="fill-rule:nonzero;"/>
                <path d="M983.053,549.672C980.902,549.252 977.959,550.918 975.565,552.674C977.776,550.265 980.383,546.839 980.383,544.069C980.383,539.266 976.868,535.371 972.533,535.371C968.198,535.371 964.683,539.266 964.683,544.069C964.683,546.84 967.291,550.266 969.501,552.675C967.108,550.918 964.164,549.252 962.014,549.672C957.744,550.507 954.893,555.018 955.646,559.749C956.398,564.48 960.471,567.64 964.74,566.805C967.329,566.299 970.065,562.518 971.819,559.618C971.164,563.627 970.141,569.223 969.116,572.221C972.136,572.194 972.533,572.221 972.533,572.221C972.533,572.221 972.93,572.194 975.951,572.221C974.925,569.223 973.903,563.627 973.247,559.618C975.001,562.518 977.738,566.299 980.327,566.805C984.596,567.64 988.668,564.48 989.42,559.749C990.173,555.018 987.322,550.507 983.053,549.672Z" style="fill-rule:nonzero;"/>
                <path d="M946.202,578.019C944.052,577.599 941.108,579.265 938.715,581.021C940.925,578.612 943.533,575.186 943.533,572.416C943.533,567.612 940.017,563.717 935.683,563.717C931.347,563.717 927.833,567.612 927.833,572.416C927.833,575.186 930.44,578.612 932.651,581.021C930.257,579.265 927.313,577.599 925.163,578.019C920.894,578.853 918.042,583.365 918.795,588.096C919.548,592.827 923.62,595.986 927.889,595.152C930.478,594.646 933.214,590.865 934.969,587.965C934.313,591.974 933.291,597.57 932.265,600.568C935.285,600.541 935.683,600.568 935.683,600.568C935.683,600.568 936.079,600.541 939.1,600.568C938.075,597.57 937.052,591.974 936.396,587.965C938.151,590.865 940.887,594.646 943.477,595.152C947.745,595.986 951.817,592.827 952.57,588.096C953.323,583.365 950.472,578.853 946.202,578.019Z" style="fill-rule:nonzero;"/>
                <path d="M909.352,606.366C907.201,605.945 904.258,607.611 901.864,609.368C904.075,606.958 906.682,603.533 906.682,600.763C906.682,595.959 903.167,592.064 898.832,592.064C894.497,592.064 890.982,595.959 890.982,600.763C890.982,603.533 893.59,606.959 895.8,609.368C893.407,607.611 890.463,605.946 888.313,606.366C884.043,607.2 881.192,611.711 881.945,616.442C882.697,621.173 886.77,624.333 891.039,623.498C893.627,622.993 896.364,619.211 898.118,616.311C897.462,620.32 896.44,625.916 895.415,628.915C898.435,628.888 898.832,628.915 898.832,628.915C898.832,628.915 899.229,628.888 902.25,628.915C901.224,625.916 900.202,620.32 899.546,616.311C901.3,619.211 904.037,622.993 906.626,623.498C910.895,624.333 914.967,621.173 915.719,616.442C916.472,611.711 913.621,607.2 909.352,606.366Z" style="fill-rule:nonzero;"/>
                <path d="M983.053,606.366C980.902,605.945 977.959,607.611 975.565,609.368C977.776,606.958 980.383,603.533 980.383,600.763C980.383,595.959 976.868,592.064 972.533,592.064C968.198,592.064 964.683,595.959 964.683,600.763C964.683,603.533 967.291,606.959 969.501,609.368C967.108,607.611 964.164,605.946 962.014,606.366C957.744,607.2 954.893,611.711 955.646,616.442C956.398,621.173 960.471,624.333 964.74,623.498C967.329,622.993 970.065,619.211 971.819,616.311C971.164,620.32 970.141,625.916 969.116,628.915C972.136,628.888 972.533,628.915 972.533,628.915C972.533,628.915 972.93,628.888 975.951,628.915C974.925,625.916 973.903,620.32 973.247,616.311C975.001,619.211 977.738,622.993 980.327,623.498C984.596,624.333 988.668,621.173 989.42,616.442C990.173,611.711 987.322,607.2 983.053,606.366Z" style="fill-rule:nonzero;"/>
                <path d="M888.313,671.306C890.463,671.727 893.406,670.061 895.8,668.304C893.589,670.713 890.982,674.139 890.982,676.909C890.982,681.713 894.498,685.608 898.832,685.608C903.167,685.608 906.682,681.713 906.682,676.909C906.682,674.139 904.074,670.713 901.864,668.304C904.257,670.061 907.201,671.726 909.352,671.306C913.621,670.472 916.472,665.96 915.719,661.229C914.967,656.498 910.895,653.339 906.625,654.173C904.037,654.679 901.3,658.46 899.546,661.36C900.202,657.352 901.224,651.755 902.25,648.757C899.229,648.784 898.832,648.757 898.832,648.757C898.832,648.757 898.436,648.784 895.415,648.757C896.44,651.755 897.462,657.352 898.118,661.36C896.364,658.46 893.627,654.679 891.038,654.173C886.77,653.339 882.697,656.498 881.945,661.229C881.192,665.96 884.043,670.472 888.313,671.306Z" style="fill-rule:nonzero;"/>
                <path d="M962.014,671.306C964.164,671.727 967.107,670.061 969.501,668.304C967.291,670.713 964.683,674.139 964.683,676.909C964.683,681.713 968.199,685.608 972.533,685.608C976.869,685.608 980.383,681.713 980.383,676.909C980.383,674.139 977.775,670.713 975.565,668.304C977.958,670.061 980.902,671.726 983.053,671.306C987.322,670.472 990.173,665.96 989.42,661.229C988.668,656.498 984.596,653.339 980.327,654.173C977.738,654.679 975.001,658.46 973.247,661.36C973.903,657.352 974.925,651.755 975.951,648.757C972.931,648.784 972.533,648.757 972.533,648.757C972.533,648.757 972.137,648.784 969.116,648.757C970.141,651.755 971.164,657.352 971.819,661.36C970.065,658.46 967.329,654.679 964.739,654.173C960.471,653.339 956.398,656.498 955.646,661.229C954.893,665.96 957.744,670.472 962.014,671.306Z" style="fill-rule:nonzero;"/>
                <path d="M925.163,699.653C927.313,700.073 930.257,698.407 932.65,696.651C930.44,699.06 927.833,702.486 927.833,705.256C927.833,710.06 931.348,713.955 935.683,713.955C940.018,713.955 943.533,710.06 943.533,705.256C943.533,702.485 940.925,699.06 938.714,696.65C941.108,698.407 944.052,700.073 946.202,699.653C950.472,698.818 953.323,694.307 952.57,689.576C951.817,684.845 947.745,681.686 943.476,682.52C940.887,683.026 938.151,686.807 936.396,689.707C937.052,685.698 938.075,680.102 939.1,677.104C936.08,677.131 935.683,677.104 935.683,677.104C935.683,677.104 935.286,677.131 932.265,677.104C933.291,680.102 934.313,685.698 934.969,689.707C933.214,686.807 930.478,683.026 927.889,682.52C923.62,681.686 919.548,684.845 918.795,689.576C918.042,694.307 920.894,698.818 925.163,699.653Z" style="fill-rule:nonzero;"/>
                <path d="M888.313,727.999C890.463,728.42 893.406,726.754 895.8,724.998C893.589,727.407 890.982,730.832 890.982,733.603C890.982,738.406 894.498,742.301 898.832,742.301C903.167,742.301 906.682,738.406 906.682,733.603C906.682,730.832 904.074,727.406 901.864,724.997C904.257,726.754 907.201,728.419 909.352,727.999C913.621,727.165 916.472,722.654 915.719,717.923C914.967,713.192 910.895,710.032 906.625,710.867C904.037,711.373 901.3,715.154 899.546,718.054C900.202,714.045 901.224,708.449 902.25,705.451C899.229,705.478 898.832,705.451 898.832,705.451C898.832,705.451 898.436,705.478 895.415,705.451C896.44,708.449 897.462,714.045 898.118,718.054C896.364,715.154 893.627,711.373 891.038,710.867C886.77,710.032 882.697,713.192 881.945,717.923C881.192,722.654 884.043,727.165 888.313,727.999Z" style="fill-rule:nonzero;"/>
                <path d="M962.014,727.999C964.164,728.42 967.107,726.754 969.501,724.998C967.291,727.407 964.683,730.832 964.683,733.603C964.683,738.406 968.199,742.301 972.533,742.301C976.869,742.301 980.383,738.406 980.383,733.603C980.383,730.832 977.775,727.406 975.565,724.997C977.958,726.754 980.902,728.419 983.053,727.999C987.322,727.165 990.173,722.654 989.42,717.923C988.668,713.192 984.596,710.032 980.327,710.867C977.738,711.373 975.001,715.154 973.247,718.054C973.903,714.045 974.925,708.449 975.951,705.451C972.931,705.478 972.533,705.451 972.533,705.451C972.533,705.451 972.137,705.478 969.116,705.451C970.141,708.449 971.164,714.045 971.819,718.054C970.065,715.154 967.329,711.373 964.739,710.867C960.471,710.032 956.398,713.192 955.646,717.923C954.893,722.654 957.744,727.165 962.014,727.999Z" style="fill-rule:nonzero;"/>
                <path d="M874.869,560.581C873.973,560.406 872.746,561.1 871.749,561.832C872.67,560.828 873.756,559.401 873.756,558.247C873.756,556.245 872.292,554.622 870.485,554.622C868.679,554.622 867.214,556.245 867.214,558.247C867.214,559.401 868.301,560.829 869.222,561.833C868.225,561.1 866.998,560.406 866.102,560.581C864.323,560.929 863.135,562.809 863.448,564.78C863.762,566.752 865.459,568.068 867.238,567.721C868.317,567.51 869.457,565.934 870.188,564.726C869.915,566.396 869.489,568.728 869.061,569.978C870.32,569.966 870.485,569.978 870.485,569.978C870.485,569.978 870.651,569.966 871.909,569.978C871.482,568.728 871.056,566.396 870.783,564.726C871.514,565.934 872.654,567.51 873.733,567.721C875.512,568.068 877.209,566.752 877.522,564.78C877.836,562.809 876.648,560.929 874.869,560.581Z" style="fill-rule:nonzero;"/>
                <path d="M866.102,717.089C866.998,717.264 868.224,716.57 869.222,715.838C868.301,716.842 867.214,718.27 867.214,719.424C867.214,721.426 868.679,723.049 870.485,723.049C872.292,723.049 873.756,721.426 873.756,719.424C873.756,718.27 872.67,716.842 871.749,715.838C872.746,716.57 873.973,717.264 874.869,717.089C876.648,716.742 877.836,714.862 877.522,712.89C877.209,710.919 875.512,709.602 873.733,709.95C872.654,710.161 871.514,711.736 870.783,712.945C871.056,711.274 871.482,708.942 871.909,707.693C870.651,707.704 870.485,707.693 870.485,707.693C870.485,707.693 870.32,707.704 869.061,707.693C869.489,708.942 869.915,711.274 870.188,712.945C869.457,711.736 868.317,710.161 867.238,709.95C865.459,709.602 863.762,710.919 863.448,712.89C863.135,714.862 864.323,716.742 866.102,717.089Z" style="fill-rule:nonzero;"/>
                <path d="M996.496,717.089C997.392,717.264 998.619,716.57 999.616,715.838C998.695,716.842 997.609,718.27 997.609,719.424C997.609,721.426 999.074,723.049 1000.88,723.049C1002.69,723.049 1004.15,721.426 1004.15,719.424C1004.15,718.27 1003.06,716.842 1002.14,715.838C1003.14,716.57 1004.37,717.264 1005.26,717.089C1007.04,716.742 1008.23,714.862 1007.92,712.89C1007.6,710.919 1005.91,709.602 1004.13,709.95C1003.05,710.161 1001.91,711.736 1001.18,712.945C1001.45,711.274 1001.88,708.942 1002.3,707.693C1001.05,707.704 1000.88,707.693 1000.88,707.693C1000.88,707.693 1000.71,707.704 999.456,707.693C999.883,708.942 1000.31,711.274 1000.58,712.945C999.851,711.736 998.711,710.161 997.632,709.95C995.853,709.602 994.156,710.919 993.843,712.89C993.529,714.862 994.717,716.742 996.496,717.089Z" style="fill-rule:nonzero;"/>
                <path d="M1005.26,560.581C1004.37,560.406 1003.14,561.1 1002.14,561.832C1003.06,560.828 1004.15,559.401 1004.15,558.247C1004.15,556.245 1002.69,554.622 1000.88,554.622C999.073,554.622 997.609,556.245 997.609,558.247C997.609,559.401 998.695,560.829 999.617,561.833C998.619,561.1 997.392,560.406 996.496,560.581C994.717,560.929 993.529,562.809 993.843,564.78C994.156,566.752 995.853,568.068 997.632,567.721C998.711,567.51 999.851,565.934 1000.58,564.726C1000.31,566.396 999.883,568.728 999.456,569.978C1000.71,569.966 1000.88,569.978 1000.88,569.978C1000.88,569.978 1001.05,569.966 1002.3,569.978C1001.88,568.728 1001.45,566.396 1001.18,564.726C1001.91,565.934 1003.05,567.51 1004.13,567.721C1005.91,568.068 1007.6,566.752 1007.92,564.78C1008.23,562.809 1007.04,560.929 1005.26,560.581Z" style="fill-rule:nonzero;"/>
                <path d="M871.904,532.353C869.951,532.353 869.541,536.363 869.541,539.728C869.541,542.389 869.848,546.853 871.904,546.853C873.98,546.853 874.291,542.389 874.291,539.728C874.291,535.179 873.376,532.353 871.904,532.353ZM871.904,549.353C868.677,549.353 867.041,546.114 867.041,539.728C867.041,537.285 867.041,529.853 871.904,529.853C874.134,529.853 876.791,531.566 876.791,539.728C876.791,546.114 875.146,549.353 871.904,549.353Z" style="fill-rule:nonzero;"/>
                <rect x="863.892" y="529.852" width="2.5" height="19.501" style="fill-rule:nonzero;"/>
                <path d="M1002.3,532.353C1000.34,532.353 999.935,536.363 999.935,539.728C999.935,542.389 1000.24,546.853 1002.3,546.853C1004.37,546.853 1004.68,542.389 1004.68,539.728C1004.68,535.179 1003.77,532.353 1002.3,532.353ZM1002.3,549.353C999.07,549.353 997.435,546.114 997.435,539.728C997.435,537.285 997.435,529.853 1002.3,529.853C1004.53,529.853 1007.18,531.566 1007.18,539.728C1007.18,546.114 1005.54,549.353 1002.3,549.353Z" style="fill-rule:nonzero;"/>
                <rect x="994.285" y="529.852" width="2.5" height="19.501" style="fill-rule:nonzero;"/>
                <path d="M868.778,745.278C870.731,745.278 871.142,741.267 871.142,737.903C871.142,735.242 870.834,730.778 868.778,730.778C866.701,730.778 866.392,735.242 866.392,737.903C866.392,742.452 867.306,745.278 868.778,745.278ZM868.778,728.278C872.005,728.278 873.642,731.516 873.642,737.903C873.642,740.345 873.642,747.778 868.778,747.778C866.549,747.778 863.892,746.064 863.892,737.903C863.892,731.516 865.535,728.278 868.778,728.278Z" style="fill-rule:nonzero;"/>
                <rect x="874.29" y="728.277" width="2.5" height="19.502" style="fill-rule:nonzero;"/>
                <path d="M999.172,745.278C1001.13,745.278 1001.54,741.267 1001.54,737.903C1001.54,735.242 1001.23,730.778 999.172,730.778C997.095,730.778 996.785,735.242 996.785,737.903C996.785,742.452 997.699,745.278 999.172,745.278ZM999.172,728.278C1002.4,728.278 1004.04,731.516 1004.04,737.903C1004.04,740.345 1004.04,747.778 999.172,747.778C996.942,747.778 994.285,746.064 994.285,737.903C994.285,731.516 995.929,728.278 999.172,728.278Z" style="fill-rule:nonzero;"/>
                <rect x="1004.68" y="728.277" width="2.5" height="19.502" style="fill-rule:nonzero;"/>
            </g>
        </g>
    </g>
</svg>
