<?xml version="1.0" encoding="UTF-8" standalone="no"?>
<!DOCTYPE svg PUBLIC "-//W3C//DTD SVG 1.1//EN" "http://www.w3.org/Graphics/SVG/1.1/DTD/svg11.dtd">
<svg width="100%" height="100%" viewBox="0 0 150 225" version="1.1" xmlns="http://www.w3.org/2000/svg" xmlns:xlink="http://www.w3.org/1999/xlink" xml:space="preserve" xmlns:serif="http://www.serif.com/" style="fill-rule:evenodd;clip-rule:evenodd;stroke-linejoin:round;stroke-miterlimit:1.41421;">
    <g transform="matrix(1,0,0,1,-1201,-526)">
        <g>
            <g>
                <rect x="0.25" y="1.04" width="1530.71" height="1530.71" style="fill:white;fill-rule:nonzero;"/>
                <path d="M1209.05,762.393C1201.2,762.393 1194.8,756 1194.8,748.143L1194.8,529.528C1194.8,521.671 1201.2,515.278 1209.05,515.278L1342.63,515.278C1350.49,515.278 1356.88,521.671 1356.88,529.528L1356.88,748.143C1356.88,756 1350.49,762.393 1342.63,762.393L1209.05,762.393Z" style="fill:white;fill-rule:nonzero;"/>
                <path d="M1342.63,515.028L1209.05,515.028C1201.06,515.028 1194.55,521.533 1194.55,529.528L1194.55,748.143C1194.55,756.138 1201.06,762.643 1209.05,762.643L1342.63,762.643C1350.62,762.643 1357.13,756.138 1357.13,748.143L1357.13,529.528C1357.13,521.533 1350.62,515.028 1342.63,515.028ZM1342.63,515.528C1350.36,515.528 1356.63,521.796 1356.63,529.528L1356.63,748.143C1356.63,755.874 1350.36,762.143 1342.63,762.143L1209.05,762.143C1201.32,762.143 1195.05,755.874 1195.05,748.143L1195.05,529.528C1195.05,521.796 1201.32,515.528 1209.05,515.528L1342.63,515.528Z" style="fill-rule:nonzero;"/>
            </g>
            <g>
                <path d="M1250.66,544.374C1247.79,541.262 1243.48,537.551 1238.99,535.371C1234.5,537.551 1230.19,541.262 1227.32,544.374C1223.2,548.833 1221.94,552.517 1221.98,556.88C1222.02,561.079 1224.15,564.808 1228.86,565.831C1232.2,566.556 1234.16,565.536 1235.61,564.707C1236.96,563.934 1237.89,562.462 1238.43,561.389C1237.79,564.606 1236.68,569.628 1235.57,572.221C1238.59,572.2 1238.99,572.221 1238.99,572.221C1238.99,572.221 1239.39,572.2 1242.41,572.221C1241.3,569.628 1240.19,564.606 1239.55,561.389C1240.09,562.462 1241.02,563.934 1242.37,564.707C1243.82,565.536 1245.78,566.556 1249.12,565.831C1253.83,564.808 1255.96,561.079 1256,556.88C1256.04,552.517 1254.77,548.833 1250.66,544.374Z" style="fill-rule:nonzero;"/>
                <path d="M1324.36,544.374C1321.49,541.262 1317.18,537.551 1312.69,535.371C1308.2,537.551 1303.89,541.262 1301.02,544.374C1296.91,548.833 1295.64,552.517 1295.68,556.88C1295.72,561.079 1297.85,564.808 1302.56,565.831C1305.9,566.556 1307.86,565.536 1309.31,564.707C1310.66,563.934 1311.59,562.462 1312.13,561.389C1311.49,564.606 1310.38,569.628 1309.27,572.221C1312.29,572.2 1312.69,572.221 1312.69,572.221C1312.69,572.221 1313.09,572.2 1316.11,572.221C1315,569.628 1313.89,564.606 1313.25,561.389C1313.79,562.462 1314.72,563.934 1316.07,564.707C1317.52,565.536 1319.48,566.556 1322.82,565.831C1327.53,564.808 1329.66,561.079 1329.7,556.88C1329.74,552.517 1328.48,548.833 1324.36,544.374Z" style="fill-rule:nonzero;"/>
                <path d="M1287.51,572.721C1284.64,569.609 1280.33,565.898 1275.84,563.717C1271.35,565.898 1267.04,569.609 1264.17,572.721C1260.05,577.18 1258.79,580.863 1258.83,585.227C1258.87,589.425 1261,593.154 1265.71,594.177C1269.05,594.902 1271.01,593.882 1272.46,593.053C1273.81,592.281 1274.74,590.809 1275.28,589.735C1274.64,592.953 1273.53,597.975 1272.42,600.568C1275.44,600.546 1275.84,600.568 1275.84,600.568C1275.84,600.568 1276.24,600.546 1279.26,600.568C1278.15,597.975 1277.04,592.953 1276.4,589.735C1276.94,590.809 1277.87,592.281 1279.22,593.053C1280.67,593.882 1282.63,594.902 1285.97,594.177C1290.68,593.154 1292.81,589.425 1292.85,585.227C1292.89,580.863 1291.63,577.18 1287.51,572.721Z" style="fill-rule:nonzero;"/>
                <path d="M1250.66,601.068C1247.79,597.956 1243.48,594.245 1238.99,592.064C1234.5,594.245 1230.19,597.956 1227.32,601.068C1223.2,605.526 1221.94,609.21 1221.98,613.574C1222.02,617.772 1224.15,621.501 1228.86,622.524C1232.2,623.249 1234.16,622.229 1235.61,621.4C1236.96,620.627 1237.89,619.156 1238.43,618.082C1237.79,621.299 1236.68,626.322 1235.57,628.915C1238.59,628.893 1238.99,628.915 1238.99,628.915C1238.99,628.915 1239.39,628.893 1242.41,628.915C1241.3,626.322 1240.19,621.299 1239.55,618.082C1240.09,619.156 1241.02,620.627 1242.37,621.4C1243.82,622.229 1245.78,623.249 1249.12,622.524C1253.83,621.501 1255.96,617.772 1256,613.574C1256.04,609.21 1254.77,605.526 1250.66,601.068Z" style="fill-rule:nonzero;"/>
                <path d="M1324.36,601.068C1321.49,597.956 1317.18,594.245 1312.69,592.064C1308.2,594.245 1303.89,597.956 1301.02,601.068C1296.91,605.526 1295.64,609.21 1295.68,613.574C1295.72,617.772 1297.85,621.501 1302.56,622.524C1305.9,623.249 1307.86,622.229 1309.31,621.4C1310.66,620.627 1311.59,619.156 1312.13,618.082C1311.49,621.299 1310.38,626.322 1309.27,628.915C1312.29,628.893 1312.69,628.915 1312.69,628.915C1312.69,628.915 1313.09,628.893 1316.11,628.915C1315,626.322 1313.89,621.299 1313.25,618.082C1313.79,619.156 1314.72,620.627 1316.07,621.4C1317.52,622.229 1319.48,623.249 1322.82,622.524C1327.53,621.501 1329.66,617.772 1329.7,613.574C1329.74,609.21 1328.48,605.526 1324.36,601.068Z" style="fill-rule:nonzero;"/>
                <path d="M1227.32,676.604C1230.19,679.716 1234.5,683.427 1238.99,685.608C1243.48,683.427 1247.79,679.716 1250.66,676.604C1254.77,672.145 1256.04,668.462 1256,664.098C1255.96,659.9 1253.83,656.171 1249.12,655.148C1245.78,654.423 1243.82,655.443 1242.37,656.272C1241.02,657.044 1240.09,658.516 1239.55,659.59C1240.19,656.373 1241.3,651.35 1242.41,648.757C1239.39,648.779 1238.99,648.757 1238.99,648.757C1238.99,648.757 1238.59,648.779 1235.57,648.757C1236.68,651.35 1237.79,656.373 1238.43,659.59C1237.89,658.516 1236.96,657.044 1235.61,656.272C1234.16,655.443 1232.2,654.423 1228.86,655.148C1224.15,656.171 1222.02,659.9 1221.98,664.098C1221.94,668.462 1223.2,672.145 1227.32,676.604Z" style="fill-rule:nonzero;"/>
                <path d="M1301.02,676.604C1303.89,679.716 1308.2,683.427 1312.69,685.608C1317.18,683.427 1321.49,679.716 1324.36,676.604C1328.48,672.145 1329.74,668.462 1329.7,664.098C1329.66,659.9 1327.53,656.171 1322.82,655.148C1319.48,654.423 1317.52,655.443 1316.07,656.272C1314.72,657.044 1313.79,658.516 1313.25,659.59C1313.89,656.373 1315,651.35 1316.11,648.757C1313.09,648.779 1312.69,648.757 1312.69,648.757C1312.69,648.757 1312.29,648.779 1309.27,648.757C1310.38,651.35 1311.49,656.373 1312.13,659.59C1311.59,658.516 1310.66,657.044 1309.31,656.272C1307.86,655.443 1305.9,654.423 1302.56,655.148C1297.85,656.171 1295.72,659.9 1295.68,664.098C1295.64,668.462 1296.91,672.145 1301.02,676.604Z" style="fill-rule:nonzero;"/>
                <path d="M1264.17,704.951C1267.04,708.063 1271.35,711.774 1275.84,713.955C1280.33,711.774 1284.64,708.063 1287.51,704.951C1291.63,700.492 1292.89,696.809 1292.85,692.445C1292.81,688.247 1290.68,684.518 1285.97,683.495C1282.63,682.769 1280.67,683.79 1279.22,684.619C1277.87,685.391 1276.94,686.863 1276.4,687.936C1277.04,684.719 1278.15,679.697 1279.26,677.104C1276.24,677.125 1275.84,677.104 1275.84,677.104C1275.84,677.104 1275.44,677.125 1272.42,677.104C1273.53,679.697 1274.64,684.719 1275.28,687.936C1274.74,686.863 1273.81,685.391 1272.46,684.619C1271.01,683.79 1269.05,682.769 1265.71,683.495C1261,684.518 1258.87,688.247 1258.83,692.445C1258.79,696.809 1260.05,700.492 1264.17,704.951Z" style="fill-rule:nonzero;"/>
                <path d="M1227.32,733.297C1230.19,736.41 1234.5,740.121 1238.99,742.301C1243.48,740.121 1247.79,736.41 1250.66,733.297C1254.77,728.839 1256.04,725.155 1256,720.791C1255.96,716.593 1253.83,712.864 1249.12,711.841C1245.78,711.116 1243.82,712.136 1242.37,712.965C1241.02,713.738 1240.09,715.209 1239.55,716.283C1240.19,713.066 1241.3,708.043 1242.41,705.451C1239.39,705.472 1238.99,705.451 1238.99,705.451C1238.99,705.451 1238.59,705.472 1235.57,705.451C1236.68,708.043 1237.79,713.066 1238.43,716.283C1237.89,715.209 1236.96,713.738 1235.61,712.965C1234.16,712.136 1232.2,711.116 1228.86,711.841C1224.15,712.864 1222.02,716.593 1221.98,720.791C1221.94,725.155 1223.2,728.839 1227.32,733.297Z" style="fill-rule:nonzero;"/>
                <path d="M1301.02,733.297C1303.89,736.41 1308.2,740.121 1312.69,742.301C1317.18,740.121 1321.49,736.41 1324.36,733.297C1328.48,728.839 1329.74,725.155 1329.7,720.791C1329.66,716.593 1327.53,712.864 1322.82,711.841C1319.48,711.116 1317.52,712.136 1316.07,712.965C1314.72,713.738 1313.79,715.209 1313.25,716.283C1313.89,713.066 1315,708.043 1316.11,705.451C1313.09,705.472 1312.69,705.451 1312.69,705.451C1312.69,705.451 1312.29,705.472 1309.27,705.451C1310.38,708.043 1311.49,713.066 1312.13,716.283C1311.59,715.209 1310.66,713.738 1309.31,712.965C1307.86,712.136 1305.9,711.116 1302.56,711.841C1297.85,712.864 1295.72,716.593 1295.68,720.791C1295.64,725.155 1296.91,728.839 1301.02,733.297Z" style="fill-rule:nonzero;"/>
                <path d="M1215.51,558.374C1214.31,557.077 1212.51,555.531 1210.64,554.622C1208.77,555.531 1206.98,557.077 1205.78,558.374C1204.06,560.232 1203.54,561.767 1203.56,563.585C1203.57,565.334 1204.46,566.888 1206.42,567.315C1207.81,567.617 1208.63,567.192 1209.23,566.846C1209.8,566.524 1210.18,565.911 1210.41,565.464C1210.14,566.804 1209.68,568.897 1209.22,569.978C1210.48,569.969 1210.64,569.978 1210.64,569.978C1210.64,569.978 1210.81,569.969 1212.07,569.978C1211.6,568.897 1211.14,566.804 1210.88,565.464C1211.1,565.911 1211.49,566.524 1212.05,566.846C1212.66,567.192 1213.47,567.617 1214.86,567.315C1216.83,566.888 1217.71,565.334 1217.73,563.585C1217.75,561.767 1217.22,560.232 1215.51,558.374Z" style="fill-rule:nonzero;"/>
                <path d="M1205.78,719.297C1206.98,720.594 1208.77,722.14 1210.64,723.049C1212.51,722.14 1214.31,720.594 1215.51,719.297C1217.22,717.439 1217.75,715.904 1217.73,714.086C1217.71,712.336 1216.83,710.782 1214.86,710.356C1213.47,710.054 1212.66,710.479 1212.05,710.825C1211.49,711.146 1211.1,711.76 1210.88,712.207C1211.14,710.866 1211.6,708.774 1212.07,707.693C1210.81,707.702 1210.64,707.693 1210.64,707.693C1210.64,707.693 1210.48,707.702 1209.22,707.693C1209.68,708.774 1210.14,710.866 1210.41,712.207C1210.18,711.76 1209.8,711.146 1209.23,710.825C1208.63,710.479 1207.81,710.054 1206.42,710.356C1204.46,710.782 1203.57,712.336 1203.56,714.086C1203.54,715.904 1204.06,717.439 1205.78,719.297Z" style="fill-rule:nonzero;"/>
                <path d="M1336.17,719.297C1337.37,720.594 1339.17,722.14 1341.04,723.049C1342.91,722.14 1344.7,720.594 1345.9,719.297C1347.61,717.439 1348.14,715.904 1348.12,714.086C1348.11,712.336 1347.22,710.782 1345.26,710.356C1343.87,710.054 1343.05,710.479 1342.45,710.825C1341.88,711.146 1341.49,711.76 1341.27,712.207C1341.54,710.866 1342,708.774 1342.46,707.693C1341.2,707.702 1341.04,707.693 1341.04,707.693C1341.04,707.693 1340.87,707.702 1339.61,707.693C1340.08,708.774 1340.54,710.866 1340.8,712.207C1340.58,711.76 1340.19,711.146 1339.63,710.825C1339.02,710.479 1338.21,710.054 1336.82,710.356C1334.85,710.782 1333.97,712.336 1333.95,714.086C1333.93,715.904 1334.46,717.439 1336.17,719.297Z" style="fill-rule:nonzero;"/>
                <path d="M1345.9,558.374C1344.7,557.077 1342.91,555.531 1341.04,554.622C1339.17,555.531 1337.37,557.077 1336.17,558.374C1334.46,560.232 1333.93,561.767 1333.95,563.585C1333.97,565.334 1334.85,566.888 1336.82,567.315C1338.21,567.617 1339.02,567.192 1339.63,566.846C1340.19,566.524 1340.58,565.911 1340.8,565.464C1340.54,566.804 1340.08,568.897 1339.61,569.978C1340.87,569.969 1341.04,569.978 1341.04,569.978C1341.04,569.978 1341.2,569.969 1342.46,569.978C1342,568.897 1341.54,566.804 1341.27,565.464C1341.49,565.911 1341.88,566.524 1342.45,566.846C1343.05,567.192 1343.87,567.617 1345.26,567.315C1347.22,566.888 1348.11,565.334 1348.12,563.585C1348.14,561.767 1347.61,560.232 1345.9,558.374Z" style="fill-rule:nonzero;"/>
                <path d="M1212.06,532.353C1210.11,532.353 1209.7,536.363 1209.7,539.728C1209.7,542.389 1210,546.853 1212.06,546.853C1214.14,546.853 1214.45,542.389 1214.45,539.728C1214.45,535.179 1213.53,532.353 1212.06,532.353ZM1212.06,549.353C1208.83,549.353 1207.2,546.114 1207.2,539.728C1207.2,537.285 1207.2,529.853 1212.06,529.853C1214.29,529.853 1216.95,531.566 1216.95,539.728C1216.95,546.114 1215.3,549.353 1212.06,549.353Z" style="fill-rule:nonzero;"/>
                <rect x="1204.05" y="529.852" width="2.5" height="19.501" style="fill-rule:nonzero;"/>
                <path d="M1342.46,532.353C1340.5,532.353 1340.09,536.363 1340.09,539.728C1340.09,542.389 1340.4,546.853 1342.46,546.853C1344.53,546.853 1344.84,542.389 1344.84,539.728C1344.84,535.179 1343.93,532.353 1342.46,532.353ZM1342.46,549.353C1339.23,549.353 1337.59,546.114 1337.59,539.728C1337.59,537.285 1337.59,529.853 1342.46,529.853C1344.68,529.853 1347.34,531.566 1347.34,539.728C1347.34,546.114 1345.7,549.353 1342.46,549.353Z" style="fill-rule:nonzero;"/>
                <rect x="1334.44" y="529.852" width="2.5" height="19.501" style="fill-rule:nonzero;"/>
                <path d="M1208.94,745.278C1210.89,745.278 1211.3,741.267 1211.3,737.903C1211.3,735.242 1210.99,730.778 1208.94,730.778C1206.86,730.778 1206.55,735.242 1206.55,737.903C1206.55,742.452 1207.46,745.278 1208.94,745.278ZM1208.94,728.278C1212.16,728.278 1213.8,731.516 1213.8,737.903C1213.8,740.345 1213.8,747.778 1208.94,747.778C1206.71,747.778 1204.05,746.064 1204.05,737.903C1204.05,731.516 1205.69,728.278 1208.94,728.278Z" style="fill-rule:nonzero;"/>
                <rect x="1214.45" y="728.277" width="2.5" height="19.502" style="fill-rule:nonzero;"/>
                <path d="M1339.33,745.278C1341.28,745.278 1341.69,741.267 1341.69,737.903C1341.69,735.242 1341.38,730.778 1339.33,730.778C1337.25,730.778 1336.94,735.242 1336.94,737.903C1336.94,742.452 1337.86,745.278 1339.33,745.278ZM1339.33,728.278C1342.56,728.278 1344.19,731.516 1344.19,737.903C1344.19,740.345 1344.19,747.778 1339.33,747.778C1337.1,747.778 1334.44,746.064 1334.44,737.903C1334.44,731.516 1336.09,728.278 1339.33,728.278Z" style="fill-rule:nonzero;"/>
                <rect x="1344.84" y="728.277" width="2.5" height="19.502" style="fill-rule:nonzero;"/>
            </g>
        </g>
    </g>
</svg>
