<?xml version="1.0" encoding="UTF-8" standalone="no"?>
<!DOCTYPE svg PUBLIC "-//W3C//DTD SVG 1.1//EN" "http://www.w3.org/Graphics/SVG/1.1/DTD/svg11.dtd">
<svg width="100%" height="100%" viewBox="0 0 150 225" version="1.1" xmlns="http://www.w3.org/2000/svg" xmlns:xlink="http://www.w3.org/1999/xlink" xml:space="preserve" xmlns:serif="http://www.serif.com/" style="fill-rule:evenodd;clip-rule:evenodd;stroke-linejoin:round;stroke-miterlimit:1.41421;">
    <g transform="matrix(1,0,0,1,-521,-526)">
        <g>
            <g>
                <rect x="0.25" y="1.04" width="1530.71" height="1530.71" style="fill:white;fill-rule:nonzero;"/>
                <path d="M528.738,762.393C520.88,762.393 514.487,756 514.487,748.143L514.487,529.528C514.487,521.671 520.88,515.278 528.738,515.278L662.313,515.278C670.17,515.278 676.563,521.671 676.563,529.528L676.563,748.143C676.563,756 670.17,762.393 662.313,762.393L528.738,762.393Z" style="fill:white;fill-rule:nonzero;"/>
                <path d="M662.313,515.028L528.738,515.028C520.742,515.028 514.237,521.533 514.237,529.528L514.237,748.143C514.237,756.138 520.742,762.643 528.738,762.643L662.313,762.643C670.308,762.643 676.813,756.138 676.813,748.143L676.813,529.528C676.813,521.533 670.308,515.028 662.313,515.028ZM662.313,515.528C670.044,515.528 676.313,521.796 676.313,529.528L676.313,748.143C676.313,755.874 670.044,762.143 662.313,762.143L528.738,762.143C521.005,762.143 514.737,755.874 514.737,748.143L514.737,529.528C514.737,521.796 521.005,515.528 528.738,515.528L662.313,515.528Z" style="fill-rule:nonzero;"/>
            </g>
            <g>
                <path d="M558.675,572.221C561.881,566.844 570.297,557.596 575.683,553.796C570.297,549.996 561.881,540.748 558.675,535.371C555.469,540.748 547.052,549.996 541.667,553.796C547.052,557.596 555.469,566.844 558.675,572.221Z" style="fill:rgb(200,0,0);fill-rule:nonzero;"/>
                <path d="M632.376,572.221C635.583,566.844 643.999,557.596 649.385,553.796C643.999,549.996 635.583,540.748 632.376,535.371C629.17,540.748 620.754,549.996 615.368,553.796C620.754,557.596 629.17,566.844 632.376,572.221Z" style="fill:rgb(200,0,0);fill-rule:nonzero;"/>
                <path d="M595.525,600.567C598.731,595.19 607.148,585.942 612.534,582.143C607.148,578.343 598.731,569.095 595.525,563.718C592.319,569.095 583.903,578.343 578.517,582.143C583.903,585.942 592.319,595.19 595.525,600.567Z" style="fill:rgb(200,0,0);fill-rule:nonzero;"/>
                <path d="M558.675,628.914C561.881,623.537 570.297,614.289 575.683,610.489C570.297,606.689 561.881,597.441 558.675,592.064C555.469,597.441 547.052,606.689 541.667,610.489C547.052,614.289 555.469,623.537 558.675,628.914Z" style="fill:rgb(200,0,0);fill-rule:nonzero;"/>
                <path d="M632.376,628.914C635.583,623.537 643.999,614.289 649.385,610.489C643.999,606.689 635.583,597.441 632.376,592.064C629.17,597.441 620.754,606.689 615.368,610.489C620.754,614.289 629.17,623.537 632.376,628.914Z" style="fill:rgb(200,0,0);fill-rule:nonzero;"/>
                <path d="M558.675,648.758C555.469,654.135 547.052,663.383 541.667,667.183C547.052,670.982 555.469,680.23 558.675,685.607C561.881,680.23 570.297,670.982 575.683,667.183C570.297,663.383 561.881,654.135 558.675,648.758Z" style="fill:rgb(200,0,0);fill-rule:nonzero;"/>
                <path d="M632.376,648.758C629.17,654.135 620.754,663.383 615.368,667.183C620.754,670.982 629.17,680.23 632.376,685.607C635.583,680.23 643.999,670.982 649.385,667.183C643.999,663.383 635.583,654.135 632.376,648.758Z" style="fill:rgb(200,0,0);fill-rule:nonzero;"/>
                <path d="M595.525,677.104C592.319,682.481 583.903,691.729 578.517,695.529C583.903,699.329 592.319,708.577 595.525,713.954C598.731,708.577 607.148,699.329 612.534,695.529C607.148,691.729 598.731,682.481 595.525,677.104Z" style="fill:rgb(200,0,0);fill-rule:nonzero;"/>
                <path d="M558.675,705.451C555.469,710.828 547.052,720.076 541.667,723.876C547.052,727.676 555.469,736.924 558.675,742.301C561.881,736.924 570.297,727.676 575.683,723.876C570.297,720.076 561.881,710.828 558.675,705.451Z" style="fill:rgb(200,0,0);fill-rule:nonzero;"/>
                <path d="M632.376,705.451C629.17,710.828 620.754,720.076 615.368,723.876C620.754,727.676 629.17,736.924 632.376,742.301C635.583,736.924 643.999,727.676 649.385,723.876C643.999,720.076 635.583,710.828 632.376,705.451Z" style="fill:rgb(200,0,0);fill-rule:nonzero;"/>
                <path d="M530.328,569.977C531.664,567.737 535.171,563.883 537.415,562.3C535.171,560.716 531.664,556.863 530.328,554.622C528.992,556.863 525.485,560.716 523.241,562.3C525.485,563.883 528.992,567.737 530.328,569.977Z" style="fill:rgb(200,0,0);fill-rule:nonzero;"/>
                <path d="M530.328,707.693C528.992,709.934 525.485,713.788 523.241,715.371C525.485,716.954 528.992,720.808 530.328,723.049C531.664,720.808 535.171,716.954 537.415,715.371C535.171,713.788 531.664,709.934 530.328,707.693Z" style="fill:rgb(200,0,0);fill-rule:nonzero;"/>
                <path d="M660.723,707.693C659.387,709.934 655.88,713.788 653.635,715.371C655.88,716.954 659.387,720.808 660.723,723.049C662.059,720.808 665.566,716.954 667.81,715.371C665.566,713.788 662.059,709.934 660.723,707.693Z" style="fill:rgb(200,0,0);fill-rule:nonzero;"/>
                <path d="M660.723,569.977C662.059,567.737 665.566,563.883 667.81,562.3C665.566,560.716 662.059,556.863 660.723,554.622C659.387,556.863 655.88,560.716 653.635,562.3C655.88,563.883 659.387,567.737 660.723,569.977Z" style="fill:rgb(200,0,0);fill-rule:nonzero;"/>
                <path d="M531.747,532.353C529.794,532.353 529.384,536.363 529.384,539.728C529.384,542.389 529.69,546.853 531.747,546.853C533.823,546.853 534.134,542.389 534.134,539.728C534.134,535.179 533.219,532.353 531.747,532.353ZM531.747,549.353C528.52,549.353 526.884,546.114 526.884,539.728C526.884,537.285 526.884,529.853 531.747,529.853C533.977,529.853 536.634,531.566 536.634,539.728C536.634,546.114 534.989,549.353 531.747,549.353Z" style="fill:rgb(200,0,0);fill-rule:nonzero;"/>
                <rect x="523.734" y="529.852" width="2.5" height="19.501" style="fill:rgb(200,0,0);fill-rule:nonzero;"/>
                <path d="M662.141,532.353C660.188,532.353 659.777,536.363 659.777,539.728C659.777,542.389 660.084,546.853 662.141,546.853C664.217,546.853 664.527,542.389 664.527,539.728C664.527,535.179 663.612,532.353 662.141,532.353ZM662.141,549.353C658.913,549.353 657.277,546.114 657.277,539.728C657.277,537.285 657.277,529.853 662.141,529.853C664.37,529.853 667.027,531.566 667.027,539.728C667.027,546.114 665.383,549.353 662.141,549.353Z" style="fill:rgb(200,0,0);fill-rule:nonzero;"/>
                <rect x="654.128" y="529.852" width="2.5" height="19.501" style="fill:rgb(200,0,0);fill-rule:nonzero;"/>
                <path d="M528.621,745.278C530.574,745.278 530.984,741.267 530.984,737.903C530.984,735.242 530.677,730.778 528.621,730.778C526.544,730.778 526.234,735.242 526.234,737.903C526.234,742.452 527.148,745.278 528.621,745.278ZM528.621,728.278C531.848,728.278 533.484,731.516 533.484,737.903C533.484,740.345 533.484,747.778 528.621,747.778C526.392,747.778 523.734,746.064 523.734,737.903C523.734,731.516 525.378,728.278 528.621,728.278Z" style="fill:rgb(200,0,0);fill-rule:nonzero;"/>
                <rect x="534.133" y="728.277" width="2.5" height="19.502" style="fill:rgb(200,0,0);fill-rule:nonzero;"/>
                <path d="M659.015,745.278C660.968,745.278 661.378,741.267 661.378,737.903C661.378,735.242 661.07,730.778 659.015,730.778C656.938,730.778 656.628,735.242 656.628,737.903C656.628,742.452 657.542,745.278 659.015,745.278ZM659.015,728.278C662.241,728.278 663.878,731.516 663.878,737.903C663.878,740.345 663.878,747.778 659.015,747.778C656.785,747.778 654.128,746.064 654.128,737.903C654.128,731.516 655.771,728.278 659.015,728.278Z" style="fill:rgb(200,0,0);fill-rule:nonzero;"/>
                <rect x="664.526" y="728.277" width="2.5" height="19.502" style="fill:rgb(200,0,0);fill-rule:nonzero;"/>
            </g>
        </g>
    </g>
</svg>
