<?xml version="1.0" encoding="UTF-8" standalone="no"?>
<!DOCTYPE svg PUBLIC "-//W3C//DTD SVG 1.1//EN" "http://www.w3.org/Graphics/SVG/1.1/DTD/svg11.dtd">
<svg width="100%" height="100%" viewBox="0 0 150 225" version="1.1" xmlns="http://www.w3.org/2000/svg" xmlns:xlink="http://www.w3.org/1999/xlink" xml:space="preserve" xmlns:serif="http://www.serif.com/" style="fill-rule:evenodd;clip-rule:evenodd;stroke-linejoin:round;stroke-miterlimit:1.41421;">
    <g transform="matrix(1,0,0,1,-1031,-16)">
        <g>
            <g>
                <rect x="0.25" y="1.04" width="1530.71" height="1530.71" style="fill:white;fill-rule:nonzero;"/>
                <path d="M1038.97,252.156C1031.12,252.156 1024.72,245.764 1024.72,237.906L1024.72,19.292C1024.72,11.435 1031.12,5.042 1038.97,5.042L1172.55,5.042C1180.41,5.042 1186.8,11.435 1186.8,19.292L1186.8,237.906C1186.8,245.764 1180.41,252.156 1172.55,252.156L1038.97,252.156Z" style="fill:white;fill-rule:nonzero;"/>
                <path d="M1172.55,4.792L1038.97,4.792C1030.98,4.792 1024.47,11.297 1024.47,19.292L1024.47,237.906C1024.47,245.901 1030.98,252.406 1038.97,252.406L1172.55,252.406C1180.54,252.406 1187.05,245.901 1187.05,237.906L1187.05,19.292C1187.05,11.297 1180.54,4.792 1172.55,4.792ZM1172.55,5.292C1180.28,5.292 1186.55,11.56 1186.55,19.292L1186.55,237.906C1186.55,245.638 1180.28,251.906 1172.55,251.906L1038.97,251.906C1031.24,251.906 1024.97,245.638 1024.97,237.906L1024.97,19.292C1024.97,11.56 1031.24,5.292 1038.97,5.292L1172.55,5.292Z" style="fill-rule:nonzero;"/>
            </g>
            <g>
                <path d="M1117.43,34.139C1114.56,31.026 1110.25,27.315 1105.76,25.135C1101.27,27.315 1096.96,31.026 1094.09,34.139C1089.98,38.597 1088.71,42.281 1088.75,46.644C1088.79,50.843 1090.92,54.572 1095.63,55.595C1098.97,56.32 1100.93,55.3 1102.38,54.471C1103.73,53.698 1104.66,52.226 1105.2,51.153C1104.56,54.37 1103.45,59.393 1102.34,61.985C1105.36,61.964 1105.76,61.985 1105.76,61.985C1105.76,61.985 1106.16,61.964 1109.18,61.985C1108.07,59.393 1106.96,54.37 1106.32,51.153C1106.86,52.226 1107.79,53.698 1109.14,54.471C1110.59,55.3 1112.55,56.32 1115.89,55.595C1120.6,54.572 1122.73,50.843 1122.77,46.644C1122.81,42.281 1121.55,38.597 1117.43,34.139Z" style="fill-rule:nonzero;"/>
                <path d="M1094.09,223.061C1096.96,226.173 1101.27,229.884 1105.76,232.065C1110.25,229.884 1114.56,226.173 1117.43,223.061C1121.55,218.603 1122.81,214.919 1122.77,210.555C1122.73,206.357 1120.6,202.628 1115.89,201.605C1112.55,200.88 1110.59,201.9 1109.14,202.729C1107.79,203.501 1106.86,204.973 1106.32,206.047C1106.96,202.83 1108.07,197.807 1109.18,195.214C1106.16,195.236 1105.76,195.214 1105.76,195.214C1105.76,195.214 1105.37,195.236 1102.34,195.214C1103.45,197.807 1104.56,202.83 1105.2,206.047C1104.66,204.973 1103.73,203.501 1102.38,202.729C1100.93,201.9 1098.97,200.88 1095.63,201.605C1090.92,202.628 1088.79,206.357 1088.75,210.555C1088.71,214.919 1089.98,218.603 1094.09,223.061Z" style="fill-rule:nonzero;"/>
                <path d="M1045.43,48.138C1044.23,46.841 1042.43,45.295 1040.56,44.386C1038.69,45.295 1036.9,46.841 1035.7,48.138C1033.99,49.996 1033.46,51.531 1033.48,53.349C1033.49,55.099 1034.38,56.652 1036.34,57.079C1037.73,57.381 1038.55,56.956 1039.16,56.61C1039.72,56.288 1040.11,55.675 1040.33,55.228C1040.06,56.568 1039.6,58.661 1039.14,59.742C1040.4,59.733 1040.56,59.742 1040.56,59.742C1040.56,59.742 1040.73,59.733 1041.99,59.742C1041.53,58.661 1041.07,56.568 1040.8,55.228C1041.02,55.675 1041.41,56.288 1041.97,56.61C1042.58,56.956 1043.39,57.381 1044.79,57.079C1046.75,56.652 1047.63,55.099 1047.65,53.349C1047.67,51.531 1047.14,49.996 1045.43,48.138Z" style="fill-rule:nonzero;"/>
                <path d="M1035.7,209.061C1036.9,210.358 1038.69,211.904 1040.56,212.813C1042.43,211.904 1044.23,210.358 1045.43,209.061C1047.14,207.203 1047.67,205.668 1047.65,203.849C1047.63,202.1 1046.75,200.546 1044.79,200.12C1043.39,199.818 1042.58,200.243 1041.97,200.588C1041.41,200.91 1041.02,201.523 1040.8,201.971C1041.07,200.63 1041.53,198.537 1041.99,197.457C1040.73,197.466 1040.56,197.457 1040.56,197.457C1040.56,197.457 1040.4,197.466 1039.14,197.457C1039.6,198.537 1040.06,200.63 1040.33,201.971C1040.11,201.523 1039.72,200.91 1039.16,200.588C1038.55,200.243 1037.73,199.818 1036.34,200.12C1034.38,200.546 1033.49,202.1 1033.48,203.849C1033.46,205.668 1033.99,207.203 1035.7,209.061Z" style="fill-rule:nonzero;"/>
                <path d="M1166.1,209.061C1167.29,210.358 1169.09,211.904 1170.96,212.813C1172.83,211.904 1174.62,210.358 1175.82,209.061C1177.54,207.203 1178.06,205.668 1178.04,203.849C1178.03,202.1 1177.14,200.546 1175.18,200.12C1173.79,199.818 1172.97,200.243 1172.37,200.588C1171.8,200.91 1171.42,201.523 1171.19,201.971C1171.46,200.63 1171.92,198.537 1172.38,197.457C1171.12,197.466 1170.96,197.457 1170.96,197.457C1170.96,197.457 1170.79,197.466 1169.53,197.457C1170,198.537 1170.46,200.63 1170.72,201.971C1170.5,201.523 1170.11,200.91 1169.55,200.588C1168.95,200.243 1168.13,199.818 1166.74,200.12C1164.77,200.546 1163.89,202.1 1163.87,203.849C1163.85,205.668 1164.38,207.203 1166.1,209.061Z" style="fill-rule:nonzero;"/>
                <path d="M1175.82,48.138C1174.62,46.841 1172.83,45.295 1170.96,44.386C1169.09,45.295 1167.29,46.841 1166.1,48.138C1164.38,49.996 1163.85,51.531 1163.87,53.349C1163.89,55.099 1164.77,56.652 1166.74,57.079C1168.13,57.381 1168.95,56.956 1169.55,56.61C1170.11,56.288 1170.5,55.675 1170.72,55.228C1170.46,56.568 1170,58.661 1169.53,59.742C1170.79,59.733 1170.96,59.742 1170.96,59.742C1170.96,59.742 1171.12,59.733 1172.38,59.742C1171.92,58.661 1171.46,56.568 1171.19,55.228C1171.42,55.675 1171.8,56.288 1172.37,56.61C1172.97,56.956 1173.79,57.381 1175.18,57.079C1177.14,56.652 1178.03,55.099 1178.04,53.349C1178.06,51.531 1177.54,49.996 1175.82,48.138Z" style="fill-rule:nonzero;"/>
                <path d="M1046.07,39.141L1035.06,39.141L1035.06,37.891C1035.06,33.808 1037.91,31.622 1040.19,29.866C1042.28,28.256 1043.57,27.184 1043.57,25.478C1043.57,23.164 1042.64,22.133 1040.56,22.133C1039.17,22.133 1037.56,22.534 1037.56,25.665L1035.06,25.665C1035.06,21.888 1037.12,19.633 1040.56,19.633C1044.06,19.633 1046.07,21.764 1046.07,25.478C1046.07,28.501 1043.75,30.279 1041.71,31.848C1039.91,33.232 1038.2,34.551 1037.7,36.641L1043.57,36.641L1043.57,35.229L1046.07,35.229L1046.07,39.141Z" style="fill-rule:nonzero;"/>
                <path d="M1176.46,39.142L1165.46,39.142L1165.46,37.892C1165.46,33.809 1168.3,31.623 1170.58,29.867C1172.68,28.257 1173.96,27.184 1173.96,25.479C1173.96,23.165 1173.04,22.133 1170.96,22.133C1169.56,22.133 1167.96,22.535 1167.96,25.665L1165.46,25.665C1165.46,21.888 1167.51,19.633 1170.96,19.633C1174.46,19.633 1176.46,21.764 1176.46,25.479C1176.46,28.502 1174.15,30.28 1172.11,31.849C1170.31,33.233 1168.59,34.552 1168.1,36.642L1173.96,36.642L1173.96,35.229L1176.46,35.229L1176.46,39.142Z" style="fill-rule:nonzero;"/>
                <path d="M1040.57,237.565C1037.07,237.565 1035.06,235.435 1035.06,231.72C1035.06,228.697 1037.38,226.919 1039.42,225.35C1041.22,223.966 1042.93,222.647 1043.43,220.557L1037.56,220.557L1037.56,221.969L1035.06,221.969L1035.06,218.057L1046.07,218.057L1046.07,219.307C1046.07,223.39 1043.22,225.576 1040.94,227.332C1038.85,228.942 1037.56,230.015 1037.56,231.72C1037.56,234.034 1038.49,235.065 1040.57,235.065C1041.96,235.065 1043.57,234.664 1043.57,231.533L1046.07,231.533C1046.07,235.311 1044.01,237.565 1040.57,237.565Z" style="fill-rule:nonzero;"/>
                <path d="M1170.96,237.567C1167.46,237.567 1165.46,235.436 1165.46,231.721C1165.46,228.698 1167.77,226.92 1169.81,225.352C1171.61,223.967 1173.33,222.648 1173.82,220.559L1167.96,220.559L1167.96,221.971L1165.46,221.971L1165.46,218.059L1176.46,218.059L1176.46,219.309C1176.46,223.392 1173.62,225.577 1171.33,227.333C1169.24,228.943 1167.96,230.016 1167.96,231.721C1167.96,234.035 1168.88,235.067 1170.96,235.067C1172.36,235.067 1173.96,234.665 1173.96,231.535L1176.46,231.535C1176.46,235.312 1174.4,237.567 1170.96,237.567Z" style="fill-rule:nonzero;"/>
            </g>
        </g>
    </g>
</svg>
