<?xml version="1.0" encoding="UTF-8" standalone="no"?>
<!DOCTYPE svg PUBLIC "-//W3C//DTD SVG 1.1//EN" "http://www.w3.org/Graphics/SVG/1.1/DTD/svg11.dtd">
<svg width="100%" height="100%" viewBox="0 0 150 225" version="1.1" xmlns="http://www.w3.org/2000/svg" xmlns:xlink="http://www.w3.org/1999/xlink" xml:space="preserve" xmlns:serif="http://www.serif.com/" style="fill-rule:evenodd;clip-rule:evenodd;stroke-linejoin:round;stroke-miterlimit:1.41421;">
    <g transform="matrix(1,0,0,1,-691,-16)">
        <g>
            <g>
                <rect x="0.25" y="1.04" width="1530.71" height="1530.71" style="fill:white;fill-rule:nonzero;"/>
                <path d="M698.816,252.156C690.959,252.156 684.566,245.764 684.566,237.906L684.566,19.292C684.566,11.435 690.959,5.042 698.816,5.042L832.392,5.042C840.249,5.042 846.642,11.435 846.642,19.292L846.642,237.906C846.642,245.764 840.249,252.156 832.392,252.156L698.816,252.156Z" style="fill:white;fill-rule:nonzero;"/>
                <path d="M832.392,4.792L698.816,4.792C690.821,4.792 684.316,11.297 684.316,19.292L684.316,237.906C684.316,245.901 690.821,252.406 698.816,252.406L832.392,252.406C840.387,252.406 846.892,245.901 846.892,237.906L846.892,19.292C846.892,11.297 840.387,4.792 832.392,4.792ZM832.392,5.292C840.123,5.292 846.392,11.56 846.392,19.292L846.392,237.906C846.392,245.638 840.123,251.906 832.392,251.906L698.816,251.906C691.084,251.906 684.816,245.638 684.816,237.906L684.816,19.292C684.816,11.56 691.084,5.292 698.816,5.292L832.392,5.292Z" style="fill-rule:nonzero;"/>
            </g>
            <g>
                <path d="M776.124,39.436C773.974,39.016 771.03,40.682 768.637,42.438C770.847,40.029 773.455,36.603 773.455,33.833C773.455,29.03 769.939,25.135 765.604,25.135C761.269,25.135 757.754,29.03 757.754,33.833C757.754,36.604 760.362,40.03 762.573,42.439C760.179,40.682 757.235,39.017 755.085,39.436C750.815,40.271 747.964,44.782 748.717,49.513C749.47,54.244 753.542,57.404 757.811,56.569C760.4,56.063 763.136,52.282 764.891,49.382C764.235,53.391 763.212,58.987 762.187,61.985C765.207,61.958 765.604,61.985 765.604,61.985C765.604,61.985 766.001,61.958 769.022,61.985C767.997,58.987 766.974,53.391 766.318,49.382C768.073,52.282 770.809,56.063 773.398,56.569C777.667,57.404 781.739,54.244 782.492,49.513C783.245,44.782 780.394,40.271 776.124,39.436Z" style="fill-rule:nonzero;"/>
                <path d="M755.085,217.763C757.235,218.184 760.179,216.518 762.572,214.761C760.362,217.17 757.754,220.596 757.754,223.366C757.754,228.17 761.27,232.065 765.604,232.065C769.94,232.065 773.455,228.17 773.455,223.366C773.455,220.596 770.847,217.17 768.636,214.761C771.03,216.518 773.974,218.183 776.124,217.763C780.394,216.929 783.245,212.417 782.492,207.686C781.739,202.956 777.667,199.796 773.398,200.63C770.809,201.136 768.073,204.917 766.318,207.817C766.974,203.809 767.997,198.212 769.022,195.214C766.002,195.241 765.604,195.214 765.604,195.214C765.604,195.214 765.208,195.241 762.187,195.214C763.212,198.212 764.235,203.809 764.891,207.817C763.136,204.917 760.4,201.136 757.811,200.63C753.542,199.796 749.47,202.956 748.717,207.686C747.964,212.417 750.815,216.929 755.085,217.763Z" style="fill-rule:nonzero;"/>
                <path d="M704.791,50.346C703.895,50.17 702.668,50.865 701.671,51.597C702.592,50.593 703.678,49.165 703.678,48.011C703.678,46.009 702.213,44.386 700.407,44.386C698.601,44.386 697.136,46.009 697.136,48.011C697.136,49.165 698.223,50.593 699.144,51.597C698.146,50.865 696.92,50.171 696.024,50.346C694.245,50.693 693.057,52.573 693.37,54.545C693.684,56.516 695.381,57.833 697.16,57.485C698.238,57.274 699.379,55.698 700.11,54.49C699.836,56.16 699.41,58.492 698.983,59.742C700.242,59.731 700.407,59.742 700.407,59.742C700.407,59.742 700.572,59.731 701.831,59.742C701.404,58.492 700.978,56.16 700.705,54.49C701.436,55.698 702.576,57.274 703.655,57.485C705.434,57.833 707.131,56.516 707.444,54.545C707.758,52.573 706.57,50.693 704.791,50.346Z" style="fill-rule:nonzero;"/>
                <path d="M696.024,206.853C696.92,207.028 698.146,206.334 699.144,205.602C698.223,206.606 697.136,208.034 697.136,209.188C697.136,211.189 698.601,212.813 700.407,212.813C702.214,212.813 703.678,211.189 703.678,209.188C703.678,208.033 702.592,206.606 701.671,205.602C702.668,206.334 703.895,207.028 704.791,206.853C706.57,206.505 707.758,204.625 707.444,202.654C707.131,200.683 705.434,199.366 703.655,199.714C702.576,199.925 701.436,201.5 700.705,202.709C700.978,201.038 701.404,198.706 701.831,197.457C700.573,197.468 700.407,197.457 700.407,197.457C700.407,197.457 700.242,197.468 698.983,197.457C699.41,198.706 699.836,201.038 700.11,202.709C699.379,201.5 698.238,199.925 697.159,199.714C695.381,199.366 693.684,200.683 693.37,202.654C693.057,204.625 694.245,206.505 696.024,206.853Z" style="fill-rule:nonzero;"/>
                <path d="M826.417,206.853C827.313,207.028 828.54,206.334 829.537,205.602C828.616,206.606 827.53,208.034 827.53,209.188C827.53,211.189 828.995,212.813 830.801,212.813C832.607,212.813 834.072,211.189 834.072,209.188C834.072,208.033 832.985,206.606 832.064,205.602C833.061,206.334 834.288,207.028 835.184,206.853C836.963,206.505 838.151,204.625 837.838,202.654C837.524,200.683 835.827,199.366 834.048,199.714C832.969,199.925 831.829,201.5 831.098,202.709C831.371,201.038 831.798,198.706 832.225,197.457C830.966,197.468 830.801,197.457 830.801,197.457C830.801,197.457 830.636,197.468 829.377,197.457C829.804,198.706 830.23,201.038 830.503,202.709C829.772,201.5 828.632,199.925 827.553,199.714C825.774,199.366 824.077,200.683 823.764,202.654C823.45,204.625 824.638,206.505 826.417,206.853Z" style="fill-rule:nonzero;"/>
                <path d="M835.184,50.346C834.288,50.17 833.062,50.865 832.064,51.597C832.985,50.593 834.072,49.165 834.072,48.011C834.072,46.009 832.607,44.386 830.801,44.386C828.994,44.386 827.53,46.009 827.53,48.011C827.53,49.165 828.616,50.593 829.537,51.597C828.54,50.865 827.313,50.171 826.417,50.346C824.638,50.693 823.45,52.573 823.764,54.545C824.077,56.516 825.774,57.833 827.553,57.485C828.632,57.274 829.772,55.698 830.503,54.49C830.23,56.16 829.804,58.492 829.377,59.742C830.635,59.731 830.801,59.742 830.801,59.742C830.801,59.742 830.966,59.731 832.225,59.742C831.798,58.492 831.371,56.16 831.098,54.49C831.829,55.698 832.969,57.274 834.048,57.485C835.827,57.833 837.524,56.516 837.838,54.545C838.151,52.573 836.963,50.693 835.184,50.346Z" style="fill-rule:nonzero;"/>
                <path d="M705.909,39.141L694.905,39.141L694.905,37.891C694.905,33.808 697.748,31.622 700.032,29.866C702.126,28.256 703.409,27.184 703.409,25.478C703.409,23.164 702.483,22.133 700.407,22.133C699.01,22.133 697.405,22.534 697.405,25.665L694.905,25.665C694.905,21.888 696.962,19.633 700.407,19.633C703.904,19.633 705.909,21.764 705.909,25.478C705.909,28.501 703.597,30.279 701.556,31.848C699.756,33.232 698.04,34.551 697.546,36.641L703.409,36.641L703.409,35.229L705.909,35.229L705.909,39.141Z" style="fill-rule:nonzero;"/>
                <path d="M836.304,39.142L825.299,39.142L825.299,37.892C825.299,33.809 828.142,31.623 830.427,29.867C832.521,28.257 833.804,27.184 833.804,25.479C833.804,23.165 832.878,22.133 830.801,22.133C829.403,22.133 827.799,22.535 827.799,25.665L825.299,25.665C825.299,21.888 827.355,19.633 830.801,19.633C834.298,19.633 836.304,21.764 836.304,25.479C836.304,28.502 833.99,30.28 831.95,31.849C830.149,33.233 828.434,34.552 827.94,36.642L833.804,36.642L833.804,35.229L836.304,35.229L836.304,39.142Z" style="fill-rule:nonzero;"/>
                <path d="M700.408,237.565C696.911,237.565 694.905,235.435 694.905,231.72C694.905,228.697 697.219,226.919 699.259,225.35C701.06,223.966 702.775,222.647 703.269,220.557L697.405,220.557L697.405,221.969L694.905,221.969L694.905,218.057L705.91,218.057L705.91,219.307C705.91,223.39 703.067,225.576 700.782,227.332C698.688,228.942 697.405,230.015 697.405,231.72C697.405,234.034 698.331,235.065 700.408,235.065C701.806,235.065 703.41,234.664 703.41,231.533L705.91,231.533C705.91,235.311 703.854,237.565 700.408,237.565Z" style="fill-rule:nonzero;"/>
                <path d="M830.801,237.567C827.304,237.567 825.299,235.436 825.299,231.721C825.299,228.698 827.611,226.92 829.652,225.352C831.452,223.967 833.168,222.648 833.662,220.559L827.799,220.559L827.799,221.971L825.299,221.971L825.299,218.059L836.303,218.059L836.303,219.309C836.303,223.392 833.46,225.577 831.176,227.333C829.082,228.943 827.799,230.016 827.799,231.721C827.799,234.035 828.725,235.067 830.801,235.067C832.198,235.067 833.803,234.665 833.803,231.535L836.303,231.535C836.303,235.312 834.246,237.567 830.801,237.567Z" style="fill-rule:nonzero;"/>
            </g>
        </g>
    </g>
</svg>
