<?xml version="1.0" encoding="UTF-8" standalone="no"?><!DOCTYPE svg PUBLIC "-//W3C//DTD SVG 1.1//EN" "http://www.w3.org/Graphics/SVG/1.1/DTD/svg11.dtd"><svg width="100%" height="100%" viewBox="0 0 150 225" version="1.1" xmlns="http://www.w3.org/2000/svg" xmlns:xlink="http://www.w3.org/1999/xlink" xml:space="preserve" xmlns:serif="http://www.serif.com/" style="fill-rule:evenodd;clip-rule:evenodd;stroke-linejoin:round;stroke-miterlimit:1.41421;"><g><path d="M73.67,113.19c0,-0.69 0.56,-1.25 1.25,-1.25c0.69,0 1.25,0.56 1.25,1.25c0,0.69 -0.56,1.25 -1.25,1.25c-0.69,0 -1.25,-0.56 -1.25,-1.25Z" style="fill-rule:nonzero;"/><path d="M86.75,113.01c-0.07,-0.01 -0.14,-0.02 -0.19,-0.02c-0.1,0 -0.21,0.01 -0.31,0.02c-0.45,-0.07 -1.16,-0.33 -1.16,-1.28l-0.3,0c0,0.77 0.4,1.22 0.91,1.44c-0.51,0.21 -0.91,0.66 -0.91,1.43l0.3,0c0,-0.95 0.71,-1.21 1.16,-1.28c0.1,0.01 0.21,0.02 0.31,0.02c0.05,0 0.12,-0.01 0.19,-0.02c0.31,0.05 0.76,0.23 1.06,0.57c0.23,0.26 0.33,0.55 0.29,0.88c-0.09,0.8 -0.64,1.22 -1.09,1.43c-1.09,0.51 -2.63,0.34 -3.76,-0.41c-0.42,-0.28 -0.77,-0.63 -1.14,-1c-0.69,-0.7 -1.41,-1.41 -2.63,-1.62c1.22,-0.22 1.94,-0.93 2.63,-1.63c0.37,-0.37 0.72,-0.72 1.14,-1c1.13,-0.75 2.67,-0.92 3.76,-0.41c0.45,0.21 1,0.63 1.09,1.43c0.04,0.33 -0.06,0.62 -0.29,0.88c-0.3,0.34 -0.75,0.52 -1.06,0.57Zm-11.87,3.3c-0.38,-1.5 -1.74,-2.85 -3.22,-3.14c1.48,-0.3 2.84,-1.65 3.22,-3.15c0.37,1.5 1.73,2.85 3.21,3.15c-1.48,0.29 -2.84,1.64 -3.21,3.14Zm-7.24,-1.52c-0.37,0.37 -0.72,0.72 -1.14,1c-1.13,0.75 -2.67,0.92 -3.76,0.41c-0.45,-0.21 -1,-0.63 -1.09,-1.43c-0.04,-0.33 0.06,-0.62 0.29,-0.88c0.3,-0.34 0.75,-0.52 1.06,-0.57c0.07,0.01 0.14,0.02 0.19,0.02c0.1,0 0.21,-0.01 0.31,-0.02c0.45,0.07 1.16,0.33 1.16,1.28l0.3,0c0,-0.77 -0.4,-1.22 -0.91,-1.43c0.51,-0.22 0.91,-0.67 0.91,-1.44l-0.3,0c0,0.95 -0.71,1.21 -1.16,1.28c-0.1,-0.01 -0.21,-0.02 -0.31,-0.02c-0.05,0 -0.12,0.01 -0.19,0.02c-0.31,-0.05 -0.76,-0.23 -1.06,-0.57c-0.23,-0.26 -0.33,-0.55 -0.29,-0.88c0.09,-0.8 0.64,-1.22 1.09,-1.43c1.09,-0.51 2.63,-0.34 3.76,0.41c0.42,0.28 0.77,0.63 1.14,1c0.69,0.7 1.41,1.41 2.63,1.63c-1.22,0.21 -1.94,0.92 -2.63,1.62Zm20.76,-3.27c-0.08,-0.73 -0.53,-1.32 -1.27,-1.66c-1.17,-0.55 -2.83,-0.37 -4.05,0.43c-0.44,0.29 -0.82,0.67 -1.18,1.04c-0.82,0.82 -1.59,1.6 -3.16,1.6c-0.04,0 -0.07,0 -0.11,0c-1.8,-0.04 -3.56,-1.88 -3.56,-3.72c0,-1.82 1.05,-2.46 1.68,-2.67c1.06,-0.36 2.31,-0.05 2.91,0.72c0.5,0.65 0.45,1.52 -0.16,2.45l0.25,0.16c0.92,-1.41 0.49,-2.36 0.15,-2.8c-0.68,-0.86 -2.07,-1.22 -3.25,-0.81c-0.92,0.31 -1.54,1.03 -1.77,2.02c-0.24,-0.99 -0.86,-1.71 -1.78,-2.02c-1.18,-0.41 -2.57,-0.05 -3.25,0.81c-0.34,0.44 -0.77,1.39 0.15,2.8l0.25,-0.16c-0.61,-0.93 -0.66,-1.8 -0.16,-2.45c0.6,-0.77 1.85,-1.08 2.91,-0.72c0.63,0.21 1.68,0.85 1.68,2.67c0,1.84 -1.76,3.68 -3.56,3.72c-0.04,0 -0.07,0 -0.11,0c-1.57,0 -2.34,-0.78 -3.16,-1.6c-0.36,-0.37 -0.74,-0.75 -1.18,-1.04c-1.22,-0.8 -2.88,-0.98 -4.05,-0.43c-0.74,0.34 -1.19,0.93 -1.27,1.66c-0.05,0.42 0.08,0.8 0.37,1.12c0.21,0.24 0.48,0.41 0.75,0.53c-0.27,0.11 -0.54,0.28 -0.75,0.52c-0.29,0.32 -0.42,0.7 -0.37,1.12c0.08,0.73 0.53,1.32 1.27,1.66c1.17,0.55 2.83,0.37 4.05,-0.43c0.44,-0.29 0.82,-0.67 1.18,-1.04c0.82,-0.82 1.59,-1.6 3.16,-1.6c0.04,0 0.07,0 0.11,0c1.8,0.04 3.56,1.88 3.56,3.72c0,1.82 -1.05,2.46 -1.68,2.67c-1.06,0.36 -2.31,0.05 -2.91,-0.72c-0.5,-0.65 -0.45,-1.52 0.16,-2.45l-0.25,-0.16c-0.92,1.41 -0.49,2.36 -0.15,2.8c0.68,0.86 2.07,1.22 3.25,0.81c0.92,-0.31 1.54,-1.03 1.78,-2.02c0.23,0.99 0.85,1.71 1.77,2.02c1.18,0.41 2.57,0.05 3.25,-0.81c0.34,-0.44 0.77,-1.39 -0.15,-2.8l-0.25,0.16c0.61,0.93 0.66,1.8 0.16,2.45c-0.6,0.77 -1.85,1.08 -2.91,0.72c-0.63,-0.21 -1.68,-0.85 -1.68,-2.67c0,-1.84 1.76,-3.68 3.56,-3.72c0.04,0 0.07,0 0.11,0c1.57,0 2.34,0.78 3.16,1.6c0.36,0.37 0.74,0.75 1.18,1.04c1.22,0.8 2.88,0.98 4.05,0.43c0.74,-0.34 1.19,-0.93 1.27,-1.66c0.05,-0.42 -0.08,-0.8 -0.37,-1.12c-0.21,-0.24 -0.48,-0.41 -0.75,-0.52c0.27,-0.12 0.54,-0.29 0.75,-0.53c0.29,-0.32 0.42,-0.7 0.37,-1.12Z" style="fill-rule:nonzero;"/><path d="M147.65,147.242c0.35,-0.779 0.15,-1.045 -0.05,-2.184c-1.18,0.541 -1.49,1.215 -2.09,2.744c-0.34,0.883 -1.17,1.092 -2.55,1.301c0.33,-1.415 0.51,-2.944 0.56,-4.586l0,0.009c0.81,-1.092 1.29,-1.728 2.1,-1.68c1.25,0.076 1.82,0.066 2.63,-0.57c-0.68,-0.484 -0.78,-0.702 -1.45,-0.712c0.42,-0.427 0.29,-1.035 0.51,-1.576c-0.81,0.389 -1.06,0.048 -1.67,0.712c0.36,-0.503 0.01,-0.646 0.04,-1.215c-0.93,0.816 -1.8,1.177 -2.2,2.203c0,0.009 -0.01,0.019 -0.01,0.037c-0.06,-1.044 -0.12,-2.06 -0.21,-3.028c0.01,0.009 0.01,0.028 0.01,0.038c0.67,-1.073 1.07,-1.472 1.62,-1.738c0.61,-0.284 1.23,-0.626 1.31,0.523c0.65,-1.491 0.37,-1.88 -0.29,-2.213c0.18,-0.531 0.59,-1.091 1.5,-1.557c-1.31,-0.228 -1.91,0.01 -2.43,1.225c0.22,-0.987 -0.84,-1.453 -0.84,-1.453c-0.45,0.618 -0.94,1.88 -1.11,3.086c-0.26,-2.041 -0.66,-3.912 -1.26,-5.678c0.41,0.105 0.86,0.124 1.32,0c0.91,-0.246 1.5,-0.987 1.06,-2.411c-0.44,-1.434 -1.94,-1.538 -2.35,-2.421c-1.02,-2.193 0.16,-3.769 2.93,-1.633c-1.18,-1.633 -2.98,-2.041 -4.46,-0.836c-0.19,0.152 -0.57,0.504 -0.79,0.798l-1.71,-1.823l0.19,2.431c-0.38,-0.057 -0.91,-0.048 -1.15,-0.019c-1.94,0.17 -2.89,1.68 -2.48,3.626c0.32,-3.389 2.33,-3.085 3.27,-0.864c0.39,0.902 -0.58,1.985 0.19,3.285c0.77,1.301 1.74,1.406 2.56,0.959c0.44,-0.228 0.74,-0.56 0.95,-0.93c0.99,2.943 1.41,6.247 1.64,10.083c-0.08,-0.38 -0.24,-0.76 -0.62,-1.32c-0.79,-1.149 -1.91,-1.443 -3.25,-2.26c0.21,0.665 -0.14,0.883 0.43,1.425c-0.92,-0.684 -1.1,-0.238 -2.17,-0.57c0.42,0.608 0.46,1.348 1.09,1.794c-0.77,0.114 -0.82,0.38 -1.46,1.073c1.14,0.627 1.8,0.541 3.24,0.257c0.88,-0.181 1.63,0.446 2.82,1.528c0.05,2.231 -0.15,4.254 -0.6,6.077c-0.01,0 -0.01,0 -0.02,0c0.01,0 0.01,0.009 0.01,0.009c-0.09,0.361 -0.18,0.722 -0.29,1.063c-0.8,-0.93 -1.08,-1.49 -1.14,-2.155c-0.09,-0.807 -0.24,-1.642 1.18,-1.358c-1.52,-1.243 -2.1,-1.044 -2.79,-0.389c-0.56,-0.37 -1.06,-1.044 -1.24,-2.25c-0.84,1.453 -0.81,2.231 0.44,3.228c-1.11,-0.57 -2.12,0.522 -2.12,0.522c0.86,1.13 3.58,2.925 5.54,2.754c-0.69,2.012 -1.72,3.731 -3.09,5.165c0.38,-0.912 0.52,-1.937 0.42,-2.564c0,0 -1.38,-0.294 -1.72,0.579c0.15,-1.215 -0.34,-1.756 -1.85,-2.364c0.69,0.893 0.8,1.557 0.68,2.051c-0.88,-0.133 -1.39,-0.019 -1.57,1.481c0.75,-0.807 1.2,-0.18 1.68,0.399c0.38,0.465 0.57,0.949 0.66,1.899c-0.6,0.446 -1.25,0.854 -1.95,1.215c-1.41,0.74 -2.76,1.329 -4.06,1.804c-0.02,-1.045 0.06,-1.69 0.7,-2.06c1.14,-0.665 1.64,-0.997 1.91,-1.994c-0.93,0 -1.16,-0.114 -1.75,0.256c0.08,-0.598 -0.45,-1.016 -0.62,-1.585c-0.44,0.797 -0.89,0.655 -0.98,1.547c-0.03,-0.617 -0.43,-0.532 -0.78,-1.006c-0.27,1.206 -0.78,2.003 -0.43,3.076c0.34,1.063 0.73,1.196 1.53,1.908c-1.5,0.522 -2.94,0.902 -4.31,1.178c-0.01,-0.01 -0.01,-0.01 -0.02,-0.01c0.01,0 0.01,0.01 0.01,0.01c-0.45,0.085 -0.88,0.161 -1.31,0.227c0.6,-0.284 0.9,-0.36 1.38,-1.044c0.54,-0.75 0.42,-1.481 0.59,-2.478c-0.37,0.294 -0.62,0.142 -0.82,0.617c0.2,-0.712 -0.14,-0.702 -0.21,-1.414c-0.29,0.398 -0.76,0.617 -0.89,1.091c-0.28,-0.417 -0.47,-0.379 -1.11,-0.579c-0.09,0.836 0.14,1.196 0.72,1.966c0.35,0.455 0.17,1.025 -0.18,1.936c-1.59,0.238 -3.1,0.38 -4.54,0.513c-2.57,0.228 -5.05,0.465 -7.52,1.234c11.88,-8.279 21.74,-20.631 17.08,-33.382c-1.9,-5.212 -5.13,-9 -9.37,-11.241c1,-0.418 1.58,-0.513 2.17,-0.437c0.78,0.086 1.61,0.133 0.87,1.282c1.68,-1.044 1.69,-1.576 1.31,-2.298c0.54,-0.398 1.34,-0.683 2.53,-0.588c-1.07,-1.016 -1.81,-1.139 -3.17,-0.285c0.91,-0.826 0.23,-1.908 0.23,-1.908c-1.3,0.484 -3.79,2.326 -4.4,3.997c-2.88,-1.424 -6.21,-2.174 -9.93,-2.174c-2.05,0 -4.22,0.227 -6.48,0.683c-2.18,0.437 -4.45,1.13 -6.63,2.079c-0.75,-0.826 -0.97,-1.329 -1,-1.993c-0.03,-0.75 -0.11,-1.51 1.03,-1.567c-1.18,-0.835 -1.66,-0.513 -2.25,0.266c-0.44,-0.228 -0.81,-0.75 -0.9,-1.861c-0.75,1.567 -0.76,2.307 0.2,2.972c-0.87,-0.295 -1.74,0.978 -1.74,0.978c0.65,0.883 2.8,1.965 4.41,1.319c-1.64,0.731 -3.22,1.614 -4.65,2.649c-1.5,-0.655 -2.38,-1.101 -2.53,-1.994c-0.23,-1.481 -0.39,-2.145 -1.47,-2.962c-0.47,0.902 -0.73,1.054 -0.56,1.833c-0.7,-0.399 -1.48,-0.133 -2.26,-0.276c0.75,0.864 0.35,1.225 1.4,1.814c-0.77,-0.314 -0.87,0.114 -1.63,0.19c1.35,0.93 2.06,1.87 3.54,2.136c1.44,0.256 1.82,-0.038 3.03,-0.399c-1.17,0.893 -2.21,1.899 -3.11,3.01c-1.26,-0.845 -1.66,-1.329 -3.38,-1.443c-1.8,-0.124 -2.86,0.902 -4.68,1.718c0.89,0.342 0.9,0.949 1.88,0.779c-1.38,0.446 -1,1.053 -2.08,1.974c0.96,0.057 1.81,0.675 2.72,0.352c-0.38,0.987 -0.11,1.281 0.23,2.649c1.45,-0.76 1.8,-1.595 2.43,-3.504c0.29,-0.864 1.02,-1.253 2.17,-1.557c-1.29,1.89 -2.11,4.054 -2.27,6.523c-0.98,0.569 -1.63,0.854 -2.3,0.512c-1.19,-0.588 -1.74,-0.826 -2.78,-0.55c0.47,0.769 0.48,1.016 1.12,1.3c-0.58,0.247 -0.69,0.883 -1.12,1.32c0.94,-0.038 1.05,0.399 1.9,0.01c-0.54,0.341 -0.26,0.626 -0.52,1.158c1.24,-0.399 2.22,-0.389 3.01,-1.215c0.35,-0.361 0.53,-0.636 0.64,-0.921c0.01,1.206 0.09,2.307 0.25,3.294c-0.11,-0.114 -0.21,-0.237 -0.35,-0.342c-0.49,1.092 -0.88,1.539 -1.51,1.861c-0.71,0.371 -1.41,0.798 -1.93,-0.246c-0.32,1.481 0.18,1.784 1.18,1.974c-0.04,0.513 -0.39,1.102 -1.43,1.681c1.83,0 2.53,-0.332 2.78,-1.529c0.08,0.94 1.65,1.187 1.65,1.187c0.21,-0.361 0.36,-0.921 0.42,-1.529c0.34,0.845 0.75,1.595 1.23,2.26c-0.91,0.807 -1.34,0.94 -1.82,2.222c-0.5,1.281 -0.07,2.307 0.05,3.826c0.43,-0.56 0.84,-0.427 0.95,-1.187c-0.03,1.111 0.46,0.978 0.82,1.994c0.25,-0.693 0.85,-1.168 0.85,-1.908c0.56,0.512 0.82,0.379 1.78,0.455c-0.16,-1.243 -0.63,-1.69 -1.73,-2.601c-0.56,-0.475 -0.61,-1.187 -0.5,-2.288c1.44,1.718 3.4,2.848 5.8,3.712c-0.27,0.209 -0.5,0.475 -0.66,0.807c-0.43,0.864 -0.2,1.842 1.42,2.526c1.61,0.683 2.78,-0.38 3.88,-0.057c2.73,0.778 3.31,2.81 -0.63,3.408c2.33,0.266 3.99,-0.826 3.98,-2.82c-0.01,-0.247 -0.05,-0.788 -0.16,-1.168l2.88,0l-2.34,-1.604c0.32,-0.247 0.69,-0.655 0.85,-0.864c1.24,-1.605 0.56,-3.409 -1.5,-4.491c2.83,2.668 1.12,3.997 -1.58,3.124c-1.09,-0.352 -1.38,-1.871 -3.11,-2.203c-1.73,-0.342 -2.53,0.323 -2.72,1.263c-0.08,0.427 -0.03,0.835 0.1,1.206c-4.77,-1.7 -7.61,-4.396 -7.88,-11.137c0.96,0.218 1.43,0.484 1.85,0.949c0.52,0.579 1.1,1.14 0.13,1.842c1.59,-0.009 1.8,-0.541 1.8,-1.5c0.54,-0.066 1.21,0.133 2.03,0.978c-0.39,-1.69 -0.87,-2.288 -2.16,-2.269c0.96,-0.266 0.89,-1.776 0.89,-1.776c-1.09,-0.313 -3.46,-0.028 -4.56,1.187c-0.01,-0.427 -0.01,-0.854 0,-1.32c0.05,-1.974 0.6,-3.788 1.52,-5.421c-0.13,0.608 -0.21,0.95 0.09,1.795c0.36,1.025 1.17,1.462 2.04,2.345c-0.02,-0.56 0.31,-0.665 -0.02,-1.187c0.57,0.693 0.8,0.38 1.56,0.835c-0.2,-0.541 -0.07,-1.129 -0.46,-1.585c0.62,0.047 0.72,-0.152 1.37,-0.57c-0.75,-0.693 -1.29,-0.75 -2.46,-0.788c-0.69,-0.019 -1.11,-0.56 -1.73,-1.49c0.29,-0.456 0.61,-0.902 0.96,-1.339c0.04,-0.01 0.08,-0.01 0.12,-0.019c-0.02,-0.019 -0.04,-0.029 -0.07,-0.048c0.95,-1.158 2.09,-2.202 3.37,-3.133c0.11,0.703 0.08,1.121 -0.08,1.529c-0.23,0.608 -0.43,1.263 -1.32,0.484c0.61,1.51 1.09,1.605 1.81,1.415c0.25,0.503 0.36,1.177 0.04,2.107c1.12,-0.683 1.38,-1.253 0.87,-2.468c0.56,0.854 1.67,0.494 1.67,0.494c-0.18,-1.045 -1.2,-3.067 -2.45,-3.959c1.32,-0.893 2.76,-1.681 4.27,-2.336c-0.18,0.161 -0.37,0.351 -0.58,0.627c-0.84,1.091 -0.52,2.202 -0.68,3.702c0.63,-0.417 1.09,-0.171 1.37,-0.864c-0.25,1.064 0.37,1.083 0.6,2.165c0.44,-0.589 1.25,-0.864 1.4,-1.586c0.57,0.665 0.91,0.618 2.06,0.978c0.05,-1.243 -0.43,-1.822 -1.58,-3.028c-0.71,-0.741 -0.45,-1.595 0.06,-2.991c1.19,-0.389 2.4,-0.712 3.6,-0.949c1.14,-0.228 2.23,-0.38 3.31,-0.485c-0.23,0.076 -0.47,0.19 -0.79,0.428c-0.76,0.56 -0.89,1.291 -1.38,2.193c0.46,-0.171 0.64,0.038 0.99,-0.351c-0.43,0.626 -0.09,0.712 -0.26,1.414c0.4,-0.304 0.92,-0.361 1.2,-0.788c0.13,0.484 0.33,0.503 0.86,0.883c0.37,-0.759 0.26,-1.177 -0.04,-2.079c-0.19,-0.541 0.18,-1.035 0.84,-1.823c9.81,-0.522 17.11,4.045 20.36,12.96c3.36,9.181 -1.19,18.191 -8.55,25.53c0.99,-1.405 1.81,-2.905 2.5,-4.453l0,0.01l0,-0.01c3.12,-6.997 3.29,-15.01 0.58,-19.929c-0.62,-1.11 -1.61,-2.136 -2.84,-2.971c0.1,-1.064 0.24,-1.709 0.91,-2.023c1.21,-0.56 1.73,-0.854 2.11,-1.813c-0.93,-0.085 -1.15,-0.228 -1.77,0.095c0.14,-0.589 -0.34,-1.054 -0.46,-1.633c-0.52,0.75 -0.96,0.57 -1.13,1.453c0.03,-0.618 -0.37,-0.57 -0.68,-1.083c-0.38,1.187 -0.97,1.937 -0.74,3.029c0.14,0.627 0.32,0.94 0.59,1.253c-1.15,-0.617 -2.43,-1.082 -3.77,-1.338c-0.54,-0.095 -1.07,-0.152 -1.61,-0.19c1.06,-0.674 1.58,-0.807 2.15,-1.994c0.59,-1.234 0.05,-2.26 -0.12,-3.76c-0.53,0.532 -1.03,0.37 -1.16,1.101c0.01,-1.082 -0.59,-0.977 -1.04,-2.003c-0.31,0.665 -1.05,1.092 -1.04,1.823c-0.7,-0.541 -1.02,-0.437 -2.23,-0.57c0.22,1.235 0.81,1.709 2.2,2.668c0.79,0.56 0.78,1.386 0.6,2.706c-0.05,0 -0.1,-0.009 -0.15,-0.009c-1.18,0 -2.33,0.18 -3.44,0.503c-0.51,-0.532 -0.69,-0.893 -0.74,-1.32c-0.06,-0.532 -0.16,-1.082 0.71,-1.073c-0.94,-0.645 -1.29,-0.436 -1.71,0.095c-0.35,-0.18 -0.66,-0.569 -0.78,-1.357c-0.5,1.082 -0.48,1.604 0.3,2.117c-0.69,-0.247 -1.3,0.617 -1.3,0.617c0.42,0.513 1.55,1.149 2.59,1.234c-1.01,0.38 -1.98,0.902 -2.88,1.557c-0.01,-0.427 -0.11,-0.845 -0.4,-1.234c-0.51,-0.693 -1.41,-0.949 -2.7,-0.057c-1.29,0.892 -0.96,2.222 -1.72,2.896c-1.88,1.661 -3.79,1.196 -2.48,-1.975c-1.28,1.604 -1.16,3.313 0.47,4.177c0.21,0.114 0.67,0.323 1.02,0.399l-1.31,2.136l2.37,-1.025c0.05,0.342 0.22,0.807 0.31,1.006c0.74,1.624 2.52,1.918 4.33,0.874c-3.46,0.911 -3.75,-0.94 -1.81,-2.545c0.78,-0.655 2.14,-0.199 3.21,-1.329c1.07,-1.13 0.89,-2.003 0.21,-2.563c-0.32,-0.257 -0.68,-0.399 -1.06,-0.475c2.05,-1.434 4.42,-2.184 6.89,-2.165c0,0.01 0,0.019 -0.01,0.038c0.02,-0.019 0.04,-0.028 0.05,-0.038c0.72,0.01 1.45,0.067 2.18,0.2c0.24,0.047 0.48,0.114 0.72,0.171c-0.31,-0.01 -0.67,0.019 -1.15,0.123c-1.41,0.294 -2.09,1.187 -3.37,2.089c0.73,0.047 0.82,0.437 1.56,0.123c-1.01,0.579 -0.63,0.893 -1.34,1.719c0.75,-0.162 1.5,0.066 2.16,-0.333c-0.16,0.722 0.09,0.864 0.54,1.681c1.02,-0.798 1.17,-1.415 1.39,-2.791c0.14,-0.817 0.95,-1.244 2.32,-1.88c2.04,0.911 3.73,2.297 4.61,3.892c0.57,1.035 1,2.222 1.31,3.504c-1.19,-0.57 -1.7,-0.959 -2.04,-1.5c-0.42,-0.636 -0.9,-1.273 0.51,-1.443c-1.91,-0.599 -2.35,-0.266 -2.71,0.465c-0.67,-0.152 -1.4,-0.56 -2.06,-1.5c-0.17,1.424 0.19,2.05 1.74,2.525c-1.24,-0.161 -1.71,1.016 -1.71,1.016c1.29,0.703 4.63,1.415 6.31,0.636c0.43,1.88 0.59,3.95 0.46,6.114c-0.43,-1.129 -0.45,-1.633 -1.52,-2.44c-1.12,-0.845 -2.3,-0.588 -3.87,-0.788c0.41,0.618 0.13,1.035 0.85,1.33c-1.11,-0.276 -1.15,0.313 -2.3,0.484c0.6,0.446 0.86,1.225 1.61,1.395c-0.72,0.513 -0.68,0.836 -1.11,1.909c1.31,0.095 1.94,-0.332 3.25,-1.377c0.79,-0.626 1.66,-0.38 3.05,0.143c-0.25,2.895 -1,5.915 -2.25,8.782c-0.62,-0.845 -0.94,-1.424 -0.63,-2.07c0.54,-1.158 0.75,-1.699 0.39,-2.668c-0.77,0.503 -1.03,0.532 -1.29,1.149c-0.3,-0.532 -0.98,-0.598 -1.46,-0.968c0.11,0.882 -0.35,1.015 0.11,1.803c-0.39,-0.493 -0.67,-0.218 -1.25,-0.417c0.51,1.139 0.56,2.069 1.48,2.763c0.94,0.721 1.34,0.588 2.5,0.769c-1.17,2.573 -2.74,4.994 -4.73,7.073c-2.3,2.003 -4.8,3.826 -7.35,5.488c1.56,-2.801 1.71,-4.624 1.73,-6.077c0.03,-2.174 -1.02,-2.658 -1.93,-1.775c-0.54,0.531 -0.56,1.737 -0.01,2.952c0.64,1.444 0.62,2.944 0.18,4.919c-1.58,1.034 -3.18,2.012 -4.79,2.886c-0.24,0.133 -0.5,0.256 -0.75,0.389c1.63,-3.038 1.72,-5.079 1.65,-6.712c-0.09,-2.497 -1.4,-3.115 -2.46,-2.146c-0.63,0.579 -0.57,1.965 0.16,3.389c0.86,1.662 0.94,3.342 0.55,5.517c-1.3,0.683 -2.64,1.357 -4.07,2.06c-0.68,0.332 -1.37,0.674 -2.06,1.016c1.85,-3.485 2.02,-5.82 2.01,-7.681c-0.02,-2.896 -1.45,-3.57 -2.67,-2.412c-0.73,0.693 -0.72,2.298 0.05,3.931c0.89,1.861 0.92,3.779 0.45,6.247c-4.17,2.089 -8.45,4.415 -12.12,7.728c1.31,-2.525 1.46,-4.224 1.48,-5.592c0.03,-2.174 -1.02,-2.658 -1.93,-1.775c-0.54,0.532 -0.56,1.737 -0.02,2.953c0.62,1.367 0.62,2.791 0.25,4.614c-1.4,1.301 -2.72,2.744 -3.9,4.377c1.36,-3.067 1.36,-5.279 1.23,-7.102c-0.24,-3.171 -1.99,-4.007 -3.34,-2.82c-0.81,0.712 -0.68,2.469 0.35,4.311c1.15,2.05 1.36,4.101 1.01,6.693c-2.03,3.095 -3.61,6.826 -4.49,11.469c-0.6,3.162 -0.92,6.219 -0.98,9.039l-0.48,0l0,-26.879c0,-0.607 -0.01,-1.281 -0.04,-1.965c0,-0.123 0,-0.266 0,-0.389c0.25,-5.858 1.57,-15.409 7.46,-17.603c3.23,-1.196 6.25,-1.205 8.52,-0.047c1.68,0.864 2.83,2.336 3.23,4.149c0.42,1.899 -0.34,4.196 -1.91,5.706c-1.29,1.253 -2.92,1.794 -4.59,1.491c-1.58,-0.285 -2.72,-0.969 -3.39,-2.032c-0.85,-1.348 -0.74,-3.057 -0.46,-3.874c0.23,-0.693 0.75,-1.282 1.37,-1.566c0.53,-0.228 1.09,-0.238 1.67,-0.029c0.06,0.019 0.1,0.048 0.14,0.067c-0.12,-0.029 -0.25,-0.048 -0.38,-0.048c-0.87,0 -1.58,0.674 -1.58,1.5c0,0.836 0.71,1.51 1.58,1.51c0.12,0 0.24,-0.019 0.35,-0.038c0.6,-0.019 1.11,-0.38 1.32,-1.035c0.28,-0.864 -0.06,-1.956 -1.24,-2.393c-0.71,-0.265 -1.43,-0.246 -2.07,0.038c-0.75,0.342 -1.36,1.026 -1.64,1.852c-0.26,0.769 -0.49,2.658 0.51,4.253c0.75,1.196 2,1.956 3.73,2.26c1.83,0.323 3.63,-0.247 5.04,-1.624c1.67,-1.623 2.49,-4.092 2.04,-6.133c-0.43,-1.956 -1.67,-3.541 -3.49,-4.472c-1.19,-0.607 -2.57,-0.911 -4.07,-0.911c-1.52,0 -3.16,0.313 -4.86,0.94c-4.48,1.661 -6.45,7.139 -7.27,12.551c0,-5.943 -0.01,-13.444 -0.01,-20.517c0,-0.37 0,-0.731 0,-1.092c0.01,-10.396 0.01,-20.261 0,-23.308c0.77,-0.095 1.37,-0.712 1.37,-1.472c0,-0.836 -0.71,-1.51 -1.58,-1.51c-0.02,0 -0.03,0.01 -0.04,0.01c-0.02,0 -0.03,-0.01 -0.05,-0.01c-0.87,0 -1.58,0.674 -1.58,1.51c0,0.76 0.6,1.377 1.37,1.472c-0.01,3.047 -0.01,12.912 0,23.308c0,0.361 0.01,0.722 0.01,1.092c-0.01,7.073 -0.02,14.574 -0.02,20.517c-0.82,-5.412 -2.79,-10.89 -7.27,-12.551c-1.7,-0.627 -3.34,-0.94 -4.86,-0.94c-1.5,0 -2.88,0.304 -4.07,0.911c-1.82,0.931 -3.06,2.516 -3.49,4.472c-0.45,2.041 0.37,4.51 2.04,6.133c1.41,1.377 3.21,1.947 5.04,1.624c1.73,-0.304 2.98,-1.064 3.73,-2.26c1,-1.595 0.77,-3.484 0.51,-4.253c-0.28,-0.826 -0.89,-1.51 -1.64,-1.852c-0.64,-0.284 -1.36,-0.303 -2.07,-0.038c-1.18,0.437 -1.52,1.529 -1.24,2.393c0.21,0.655 0.72,1.016 1.32,1.035c0.11,0.019 0.23,0.038 0.35,0.038c0.87,0 1.58,-0.674 1.58,-1.51c0,-0.826 -0.71,-1.5 -1.58,-1.5c-0.13,0 -0.26,0.019 -0.38,0.048c0.04,-0.019 0.08,-0.048 0.14,-0.067c0.58,-0.209 1.14,-0.199 1.67,0.029c0.62,0.284 1.14,0.873 1.37,1.566c0.28,0.817 0.39,2.526 -0.46,3.874c-0.67,1.063 -1.81,1.747 -3.39,2.032c-1.67,0.303 -3.3,-0.238 -4.59,-1.491c-1.57,-1.51 -2.33,-3.807 -1.91,-5.706c0.4,-1.813 1.55,-3.285 3.23,-4.149c2.27,-1.158 5.29,-1.149 8.52,0.047c5.89,2.194 7.21,11.745 7.46,17.603c0,0.123 0,0.266 0,0.389c-0.03,0.684 -0.04,1.358 -0.04,1.965l0,26.879l-0.48,0c-0.06,-2.82 -0.38,-5.877 -0.98,-9.039c-0.88,-4.643 -2.46,-8.374 -4.49,-11.469c-0.35,-2.592 -0.14,-4.643 1.01,-6.693c1.03,-1.842 1.16,-3.599 0.35,-4.311c-1.35,-1.187 -3.1,-0.351 -3.34,2.82c-0.13,1.823 -0.13,4.035 1.23,7.102c-1.18,-1.633 -2.5,-3.076 -3.9,-4.377c-0.37,-1.823 -0.37,-3.247 0.25,-4.614c0.54,-1.216 0.52,-2.421 -0.02,-2.953c-0.91,-0.883 -1.96,-0.399 -1.93,1.775c0.02,1.368 0.17,3.067 1.48,5.592c-3.67,-3.313 -7.95,-5.639 -12.12,-7.728c-0.47,-2.468 -0.44,-4.386 0.45,-6.247c0.77,-1.633 0.78,-3.238 0.05,-3.931c-1.22,-1.158 -2.65,-0.484 -2.67,2.412c-0.01,1.861 0.16,4.196 2.01,7.681c-0.69,-0.342 -1.38,-0.684 -2.06,-1.016c-1.43,-0.703 -2.77,-1.377 -4.07,-2.06c-0.39,-2.175 -0.31,-3.855 0.55,-5.517c0.73,-1.424 0.79,-2.81 0.16,-3.389c-1.06,-0.969 -2.37,-0.351 -2.46,2.146c-0.07,1.633 0.02,3.674 1.65,6.712c-0.25,-0.133 -0.51,-0.256 -0.75,-0.389c-1.61,-0.874 -3.21,-1.852 -4.79,-2.886c-0.44,-1.975 -0.46,-3.475 0.18,-4.919c0.55,-1.215 0.53,-2.421 -0.01,-2.952c-0.91,-0.883 -1.96,-0.399 -1.93,1.775c0.02,1.453 0.18,3.276 1.73,6.077c-2.55,-1.662 -5.05,-3.485 -7.35,-5.488c-1.99,-2.079 -3.56,-4.5 -4.73,-7.073c1.16,-0.181 1.56,-0.048 2.5,-0.769c0.92,-0.694 0.97,-1.624 1.48,-2.763c-0.58,0.199 -0.86,-0.076 -1.25,0.417c0.46,-0.788 0,-0.921 0.11,-1.803c-0.48,0.37 -1.16,0.436 -1.46,0.968c-0.26,-0.617 -0.52,-0.646 -1.29,-1.149c-0.36,0.969 -0.15,1.51 0.39,2.668c0.31,0.646 -0.01,1.225 -0.63,2.07c-1.25,-2.867 -2,-5.887 -2.25,-8.782c1.39,-0.523 2.26,-0.769 3.05,-0.143c1.31,1.045 1.94,1.472 3.25,1.377c-0.43,-1.073 -0.39,-1.396 -1.11,-1.909c0.75,-0.17 1.01,-0.949 1.61,-1.395c-1.15,-0.171 -1.19,-0.76 -2.3,-0.484c0.72,-0.295 0.44,-0.712 0.85,-1.33c-1.57,0.2 -2.75,-0.057 -3.87,0.788c-1.07,0.807 -1.09,1.311 -1.52,2.44c-0.13,-2.164 0.03,-4.234 0.46,-6.114c1.68,0.779 5.02,0.067 6.31,-0.636c0,0 -0.47,-1.177 -1.71,-1.016c1.55,-0.475 1.91,-1.101 1.74,-2.525c-0.66,0.94 -1.39,1.348 -2.06,1.5c-0.36,-0.731 -0.8,-1.064 -2.71,-0.465c1.41,0.17 0.93,0.807 0.51,1.443c-0.34,0.541 -0.85,0.93 -2.04,1.5c0.31,-1.282 0.74,-2.469 1.31,-3.504c0.88,-1.595 2.57,-2.981 4.61,-3.892c1.37,0.636 2.18,1.063 2.32,1.88c0.22,1.376 0.37,1.993 1.39,2.791c0.45,-0.817 0.7,-0.959 0.54,-1.681c0.66,0.399 1.41,0.171 2.16,0.333c-0.71,-0.826 -0.33,-1.14 -1.34,-1.719c0.74,0.314 0.83,-0.076 1.56,-0.123c-1.28,-0.902 -1.96,-1.795 -3.37,-2.089c-0.48,-0.104 -0.84,-0.133 -1.15,-0.123c0.24,-0.057 0.48,-0.124 0.72,-0.171c0.73,-0.133 1.46,-0.19 2.18,-0.2c0.01,0.01 0.03,0.019 0.05,0.038c-0.01,-0.019 -0.01,-0.028 -0.01,-0.038c2.47,-0.019 4.84,0.731 6.89,2.165c-0.38,0.076 -0.74,0.218 -1.06,0.475c-0.68,0.56 -0.86,1.433 0.21,2.563c1.07,1.13 2.43,0.674 3.21,1.329c1.94,1.605 1.65,3.456 -1.81,2.545c1.81,1.044 3.59,0.75 4.33,-0.874c0.09,-0.199 0.26,-0.664 0.31,-1.006l2.37,1.025l-1.31,-2.136c0.35,-0.076 0.81,-0.285 1.02,-0.399c1.63,-0.864 1.75,-2.573 0.47,-4.177c1.31,3.171 -0.6,3.636 -2.48,1.975c-0.76,-0.674 -0.43,-2.004 -1.72,-2.896c-1.29,-0.892 -2.19,-0.636 -2.7,0.057c-0.29,0.389 -0.39,0.807 -0.4,1.234c-0.9,-0.655 -1.87,-1.177 -2.88,-1.557c1.04,-0.085 2.17,-0.721 2.59,-1.234c0,0 -0.61,-0.864 -1.29,-0.617c0.77,-0.513 0.79,-1.035 0.29,-2.117c-0.12,0.788 -0.43,1.177 -0.78,1.357c-0.42,-0.531 -0.77,-0.74 -1.71,-0.095c0.87,-0.009 0.77,0.541 0.71,1.073c-0.05,0.427 -0.23,0.788 -0.74,1.32c-1.11,-0.323 -2.26,-0.503 -3.44,-0.503c-0.05,0 -0.1,0.009 -0.15,0.009c-0.18,-1.32 -0.19,-2.146 0.6,-2.706c1.39,-0.959 1.98,-1.433 2.2,-2.668c-1.21,0.133 -1.53,0.029 -2.23,0.57c0.01,-0.731 -0.73,-1.158 -1.04,-1.823c-0.45,1.026 -1.05,0.921 -1.04,2.003c-0.13,-0.731 -0.63,-0.569 -1.16,-1.101c-0.17,1.5 -0.71,2.526 -0.12,3.76c0.57,1.187 1.09,1.32 2.15,1.994c-0.54,0.038 -1.07,0.095 -1.61,0.19c-1.34,0.256 -2.62,0.721 -3.77,1.338c0.27,-0.313 0.45,-0.626 0.59,-1.253c0.23,-1.092 -0.36,-1.842 -0.74,-3.029c-0.31,0.513 -0.71,0.465 -0.68,1.083c-0.17,-0.883 -0.61,-0.703 -1.13,-1.453c-0.12,0.579 -0.6,1.044 -0.46,1.633c-0.62,-0.323 -0.84,-0.18 -1.77,-0.095c0.38,0.959 0.9,1.253 2.11,1.813c0.67,0.314 0.81,0.959 0.91,2.023c-1.23,0.835 -2.22,1.861 -2.84,2.971c-2.71,4.919 -2.54,12.932 0.58,19.929l0,0.01l0,-0.01c0.69,1.548 1.52,3.048 2.5,4.453c-7.36,-7.339 -11.91,-16.349 -8.55,-25.53c3.25,-8.915 10.55,-13.482 20.36,-12.96c0.66,0.788 1.03,1.282 0.84,1.823c-0.3,0.902 -0.41,1.32 -0.04,2.079c0.53,-0.38 0.73,-0.399 0.86,-0.883c0.28,0.427 0.8,0.484 1.2,0.788c-0.17,-0.702 0.17,-0.788 -0.26,-1.414c0.35,0.389 0.53,0.18 0.99,0.351c-0.49,-0.902 -0.62,-1.633 -1.38,-2.193c-0.32,-0.238 -0.56,-0.352 -0.79,-0.428c1.08,0.105 2.17,0.257 3.31,0.485c1.2,0.237 2.41,0.56 3.6,0.949c0.51,1.396 0.77,2.25 0.06,2.991c-1.15,1.206 -1.63,1.785 -1.58,3.028c1.15,-0.36 1.49,-0.313 2.06,-0.978c0.15,0.722 0.96,0.997 1.4,1.586c0.23,-1.082 0.85,-1.101 0.6,-2.165c0.28,0.693 0.74,0.447 1.37,0.864c-0.16,-1.5 0.16,-2.611 -0.68,-3.702c-0.21,-0.276 -0.4,-0.466 -0.58,-0.627c1.51,0.655 2.95,1.443 4.27,2.336c-1.25,0.892 -2.27,2.914 -2.45,3.959c0,0 1.11,0.36 1.67,-0.494c-0.51,1.215 -0.25,1.785 0.87,2.468c-0.32,-0.93 -0.21,-1.604 0.04,-2.107c0.72,0.19 1.2,0.095 1.81,-1.415c-0.89,0.779 -1.09,0.124 -1.32,-0.484c-0.16,-0.408 -0.19,-0.826 -0.08,-1.529c1.28,0.931 2.42,1.975 3.37,3.133c-0.03,0.019 -0.05,0.029 -0.07,0.048c0.04,0.009 0.08,0.009 0.12,0.019c0.35,0.437 0.67,0.883 0.96,1.339c-0.62,0.93 -1.04,1.471 -1.73,1.49c-1.17,0.038 -1.71,0.095 -2.46,0.788c0.65,0.418 0.75,0.617 1.37,0.57c-0.39,0.456 -0.26,1.044 -0.46,1.585c0.76,-0.455 0.99,-0.142 1.56,-0.835c-0.33,0.522 0,0.627 -0.02,1.187c0.87,-0.883 1.68,-1.32 2.04,-2.345c0.3,-0.845 0.22,-1.187 0.09,-1.795c0.92,1.633 1.47,3.447 1.52,5.421c0.01,0.466 0.01,0.893 0,1.32c-1.1,-1.215 -3.47,-1.5 -4.56,-1.187c0,0 -0.07,1.51 0.89,1.776c-1.29,-0.019 -1.77,0.579 -2.16,2.269c0.82,-0.845 1.49,-1.044 2.03,-0.978c0,0.959 0.21,1.491 1.8,1.5c-0.97,-0.702 -0.39,-1.263 0.13,-1.842c0.42,-0.465 0.89,-0.731 1.85,-0.949c-0.27,6.741 -3.11,9.437 -7.88,11.137c0.13,-0.371 0.18,-0.779 0.1,-1.206c-0.19,-0.94 -0.99,-1.605 -2.72,-1.263c-1.73,0.332 -2.02,1.851 -3.11,2.203c-2.7,0.873 -4.41,-0.456 -1.58,-3.124c-2.06,1.082 -2.74,2.886 -1.5,4.491c0.16,0.209 0.53,0.617 0.85,0.864l-2.34,1.604l2.88,0c-0.11,0.38 -0.15,0.921 -0.16,1.168c-0.01,1.994 1.65,3.086 3.98,2.82c-3.94,-0.598 -3.36,-2.63 -0.63,-3.408c1.1,-0.323 2.27,0.74 3.88,0.057c1.62,-0.684 1.85,-1.662 1.42,-2.526c-0.16,-0.332 -0.39,-0.598 -0.66,-0.807c2.4,-0.864 4.37,-1.994 5.8,-3.712c0.11,1.101 0.06,1.813 -0.5,2.288c-1.1,0.911 -1.57,1.358 -1.73,2.601c0.96,-0.076 1.22,0.057 1.78,-0.455c0,0.74 0.6,1.215 0.85,1.908c0.36,-1.016 0.85,-0.883 0.82,-1.994c0.11,0.76 0.52,0.627 0.95,1.187c0.12,-1.519 0.55,-2.545 0.05,-3.826c-0.48,-1.282 -0.91,-1.415 -1.82,-2.222c0.48,-0.665 0.89,-1.415 1.23,-2.26c0.06,0.608 0.21,1.168 0.42,1.529c0,0 1.57,-0.247 1.65,-1.187c0.25,1.197 0.95,1.529 2.78,1.529c-1.04,-0.579 -1.39,-1.168 -1.43,-1.681c1,-0.19 1.5,-0.493 1.18,-1.974c-0.52,1.044 -1.22,0.617 -1.93,0.246c-0.63,-0.322 -1.02,-0.769 -1.51,-1.861c-0.14,0.105 -0.24,0.228 -0.35,0.342c0.16,-0.987 0.24,-2.088 0.25,-3.294c0.11,0.285 0.29,0.56 0.64,0.921c0.79,0.826 1.77,0.816 3.01,1.215c-0.26,-0.532 0.02,-0.817 -0.52,-1.158c0.85,0.389 0.96,-0.048 1.9,-0.01c-0.43,-0.437 -0.54,-1.073 -1.12,-1.32c0.64,-0.284 0.65,-0.531 1.12,-1.3c-1.04,-0.276 -1.59,-0.038 -2.78,0.55c-0.67,0.342 -1.32,0.057 -2.3,-0.512c-0.16,-2.469 -0.98,-4.633 -2.27,-6.523c1.15,0.304 1.88,0.693 2.17,1.557c0.63,1.909 0.98,2.744 2.43,3.504c0.34,-1.368 0.61,-1.662 0.23,-2.649c0.91,0.323 1.76,-0.295 2.72,-0.352c-1.08,-0.921 -0.7,-1.528 -2.08,-1.974c0.98,0.17 0.99,-0.437 1.88,-0.779c-1.82,-0.816 -2.88,-1.842 -4.68,-1.718c-1.72,0.114 -2.12,0.598 -3.38,1.443c-0.9,-1.111 -1.94,-2.117 -3.11,-3.01c1.21,0.361 1.59,0.655 3.03,0.399c1.48,-0.266 2.19,-1.206 3.54,-2.136c-0.76,-0.076 -0.86,-0.504 -1.63,-0.19c1.05,-0.589 0.65,-0.95 1.4,-1.814c-0.78,0.143 -1.56,-0.123 -2.26,0.276c0.17,-0.779 -0.09,-0.931 -0.56,-1.833c-1.08,0.817 -1.24,1.481 -1.47,2.962c-0.15,0.893 -1.03,1.339 -2.53,1.994c-1.43,-1.035 -3.01,-1.918 -4.65,-2.649c1.61,0.646 3.76,-0.436 4.41,-1.319c0,0 -0.87,-1.273 -1.74,-0.978c0.96,-0.665 0.95,-1.405 0.2,-2.972c-0.09,1.111 -0.46,1.633 -0.9,1.861c-0.59,-0.779 -1.07,-1.101 -2.25,-0.266c1.14,0.057 1.06,0.817 1.03,1.567c-0.03,0.664 -0.25,1.167 -1,1.993c-2.18,-0.949 -4.45,-1.642 -6.63,-2.079c-2.26,-0.456 -4.43,-0.683 -6.48,-0.683c-3.72,0 -7.05,0.75 -9.93,2.174c-0.61,-1.671 -3.1,-3.513 -4.4,-3.997c0,0 -0.68,1.082 0.23,1.908c-1.36,-0.854 -2.1,-0.731 -3.17,0.285c1.19,-0.095 1.99,0.19 2.53,0.588c-0.38,0.722 -0.37,1.254 1.31,2.298c-0.74,-1.149 0.09,-1.196 0.87,-1.282c0.59,-0.076 1.17,0.019 2.17,0.437c-4.24,2.241 -7.47,6.029 -9.37,11.241c-4.66,12.751 5.2,25.103 17.08,33.382c-2.47,-0.769 -4.95,-1.006 -7.52,-1.234c-1.44,-0.133 -2.95,-0.275 -4.54,-0.513c-0.35,-0.911 -0.53,-1.481 -0.18,-1.936c0.58,-0.77 0.81,-1.13 0.72,-1.966c-0.64,0.2 -0.83,0.162 -1.11,0.579c-0.13,-0.474 -0.6,-0.693 -0.89,-1.091c-0.07,0.712 -0.41,0.702 -0.21,1.414c-0.2,-0.475 -0.45,-0.323 -0.82,-0.617c0.17,0.997 0.05,1.728 0.59,2.478c0.48,0.684 0.78,0.76 1.38,1.044c-0.43,-0.066 -0.86,-0.142 -1.31,-0.227c0,0 0,-0.01 0.01,-0.01c-0.01,0 -0.01,0 -0.02,0.01c-1.37,-0.276 -2.81,-0.656 -4.31,-1.178c0.8,-0.712 1.19,-0.845 1.53,-1.908c0.35,-1.073 -0.16,-1.87 -0.43,-3.076c-0.35,0.474 -0.75,0.389 -0.78,1.006c-0.09,-0.892 -0.54,-0.75 -0.98,-1.547c-0.17,0.569 -0.7,0.987 -0.62,1.585c-0.59,-0.37 -0.82,-0.256 -1.75,-0.256c0.27,0.997 0.77,1.329 1.91,1.994c0.64,0.37 0.72,1.015 0.7,2.06c-1.3,-0.475 -2.65,-1.064 -4.06,-1.804c-0.7,-0.361 -1.35,-0.769 -1.95,-1.215c0.09,-0.95 0.28,-1.434 0.66,-1.899c0.48,-0.579 0.93,-1.206 1.68,-0.399c-0.18,-1.5 -0.69,-1.614 -1.57,-1.481c-0.12,-0.494 -0.01,-1.158 0.68,-2.051c-1.51,0.608 -2,1.149 -1.85,2.364c-0.34,-0.873 -1.72,-0.579 -1.72,-0.579c-0.1,0.627 0.04,1.652 0.42,2.564c-1.37,-1.434 -2.4,-3.153 -3.09,-5.165c1.96,0.171 4.68,-1.624 5.54,-2.754c0,0 -1.01,-1.092 -2.12,-0.522c1.25,-0.997 1.28,-1.775 0.44,-3.228c-0.18,1.206 -0.68,1.88 -1.24,2.25c-0.69,-0.655 -1.27,-0.854 -2.79,0.389c1.42,-0.284 1.27,0.551 1.18,1.358c-0.06,0.665 -0.34,1.225 -1.14,2.155c-0.11,-0.341 -0.2,-0.702 -0.29,-1.063c0,0 0,-0.009 0.01,-0.009c-0.01,0 -0.01,0 -0.02,0c-0.45,-1.823 -0.65,-3.846 -0.6,-6.077c1.19,-1.082 1.94,-1.709 2.82,-1.528c1.44,0.284 2.1,0.37 3.24,-0.257c-0.64,-0.693 -0.69,-0.959 -1.46,-1.073c0.63,-0.446 0.67,-1.186 1.09,-1.794c-1.07,0.332 -1.25,-0.114 -2.17,0.57c0.57,-0.542 0.22,-0.76 0.43,-1.425c-1.34,0.817 -2.46,1.111 -3.25,2.26c-0.38,0.56 -0.54,0.94 -0.62,1.32c0.23,-3.836 0.65,-7.14 1.64,-10.083c0.21,0.37 0.51,0.702 0.95,0.93c0.82,0.447 1.79,0.342 2.56,-0.959c0.77,-1.3 -0.2,-2.383 0.19,-3.285c0.94,-2.221 2.95,-2.525 3.27,0.864c0.41,-1.946 -0.54,-3.456 -2.48,-3.626c-0.24,-0.029 -0.77,-0.038 -1.15,0.019l0.19,-2.431l-1.71,1.823c-0.22,-0.294 -0.6,-0.646 -0.79,-0.798c-1.48,-1.205 -3.28,-0.797 -4.46,0.836c2.77,-2.136 3.95,-0.56 2.93,1.633c-0.41,0.883 -1.91,0.987 -2.35,2.421c-0.44,1.424 0.15,2.165 1.06,2.411c0.46,0.124 0.91,0.105 1.32,0c-0.6,1.766 -1,3.637 -1.26,5.678c-0.17,-1.206 -0.66,-2.468 -1.11,-3.086c0,0 -1.06,0.466 -0.84,1.453c-0.52,-1.215 -1.12,-1.453 -2.43,-1.225c0.91,0.466 1.32,1.026 1.5,1.557c-0.66,0.333 -0.94,0.722 -0.29,2.213c0.08,-1.149 0.7,-0.807 1.31,-0.523c0.55,0.266 0.95,0.665 1.62,1.738c0,-0.01 0,-0.029 0.01,-0.038c-0.09,0.968 -0.15,1.984 -0.21,3.028c0,-0.018 -0.01,-0.028 -0.01,-0.037c-0.4,-1.026 -1.27,-1.387 -2.2,-2.203c0.03,0.569 -0.32,0.712 0.04,1.215c-0.61,-0.664 -0.86,-0.323 -1.67,-0.712c0.22,0.541 0.09,1.149 0.51,1.576c-0.67,0.01 -0.77,0.228 -1.45,0.712c0.81,0.636 1.38,0.646 2.63,0.57c0.81,-0.048 1.29,0.588 2.1,1.68l0,-0.009c0.05,1.642 0.23,3.171 0.56,4.586c-1.38,-0.209 -2.21,-0.418 -2.55,-1.301c-0.6,-1.529 -0.91,-2.203 -2.09,-2.744c-0.2,1.139 -0.4,1.405 -0.05,2.184c-0.73,-0.209 -1.37,0.351 -2.13,0.446c0.91,0.702 0.64,1.225 1.74,1.51c-0.78,-0.086 -0.76,0.417 -1.44,0.75c1.47,0.569 2.36,1.348 3.77,1.148c1.46,-0.199 1.67,-0.683 2.86,-1.595c0.64,2.45 1.74,4.52 3.27,6.219c-1.61,-0.389 -2.56,-0.655 -2.87,-1.462c-0.5,-1.31 -0.78,-1.889 -1.94,-2.478c-0.28,0.883 -0.5,1.073 -0.19,1.747c-0.73,-0.266 -1.41,0.095 -2.18,0.076c0.87,0.674 0.56,1.063 1.66,1.443c-0.78,-0.18 -0.8,0.228 -1.5,0.408c1.44,0.646 2.29,1.396 3.74,1.424c1.63,0.029 1.77,-0.408 3.36,-1.063c1.11,1.215 2.44,2.241 4,3.067c0.45,0.237 0.89,0.446 1.33,0.655c-1.15,0.408 -1.79,0.456 -2.49,0.285c-0.84,-0.209 -1.71,-0.361 -1.2,-1.5c-1.51,0.892 -1.4,1.462 -0.84,2.288c-0.48,0.351 -1.24,0.55 -2.5,0.284c1.34,1.235 2.14,1.472 3.37,0.741c-0.76,0.76 0.18,2.013 0.18,2.013c1.33,-0.37 3.7,-2.193 3.71,-4.007c0.94,0.437 1.86,0.817 2.74,1.13c0,0.019 0,0.029 0,0.038c0.01,-0.009 0.02,-0.019 0.03,-0.028c1.46,0.522 2.85,0.902 4.19,1.186c-1.1,0.788 -1.83,1.216 -2.61,0.969c-1.39,-0.427 -2.04,-0.579 -3.25,-0.067c0.57,0.75 0.59,1.026 1.34,1.216c-0.67,0.379 -0.79,1.11 -1.28,1.68c1.09,-0.237 1.22,0.228 2.21,-0.361c-0.62,0.484 -0.29,0.741 -0.58,1.377c1.43,-0.684 2.57,-0.864 3.48,-1.918c0.95,-1.111 0.8,-1.519 1.1,-2.81c1.61,0.323 3.14,0.512 4.59,0.664c-0.15,0.057 -0.31,0.114 -0.49,0.209c-1.02,0.513 -1.28,1.377 -2.01,2.364c0.59,-0.104 0.78,0.2 1.26,-0.199c-0.61,0.665 -0.22,0.854 -0.52,1.661c0.53,-0.275 1.18,-0.227 1.58,-0.683c0.09,0.627 0.33,0.693 0.93,1.272c0.56,-0.845 0.49,-1.386 0.25,-2.554c-0.14,-0.655 0.31,-1.149 1.11,-1.87c3.19,0.294 6.08,0.588 8.97,1.861c1.7,1.12 3.43,2.155 5.15,3.085c1.57,0.855 3.22,1.671 4.96,2.526c1.43,0.702 2.89,1.414 4.34,2.183c-5.83,-2.164 -12.7,-3.522 -17.53,-3.522c-0.64,0 -1.23,0.019 -1.79,0.067c-2.75,0.237 -6.42,0.93 -10.09,2.221c-4.76,-3.057 -8.21,-3.351 -11.01,-3.38c-4.16,-0.047 -5.55,1.975 -4.25,3.722c0.78,1.044 3.08,1.073 5.65,0.028c3.09,-1.262 5.96,-1.215 9.6,-0.36c-2.5,0.883 -5,2.05 -7.2,3.541c-4.39,-0.465 -6.9,0.437 -8.86,1.31c-2.97,1.329 -3.18,3.181 -1.58,3.959c0.96,0.466 2.61,-0.275 4.02,-1.841c1.62,-1.776 3.56,-2.687 6.23,-3.295c-3.56,2.478 -6.32,5.83 -6.99,10.282c-0.7,4.681 0.43,8.944 3.19,12.001c2.26,2.497 5.36,3.902 8.72,3.931c0.05,0 0.09,0 0.14,0c3.57,0 6.74,-1.567 8.49,-4.206c1.78,-2.687 1.85,-6.067 0.18,-9.267c-1.75,-3.361 -4.73,-5.231 -8.26,-5.174c-3,0.066 -5.72,1.642 -6.77,3.921c-0.84,1.804 -0.87,3.94 -0.09,5.687c0.7,1.567 1.99,2.716 3.73,3.333c2.15,0.759 4.31,0.313 5.49,-1.13c1.08,-1.32 1.03,-3.133 -0.1,-4.776c-0.42,-0.807 -1.29,-1.357 -2.3,-1.357c-1.43,0 -2.59,1.091 -2.59,2.449c0,1.358 1.16,2.45 2.59,2.45c1.25,0 2.29,-0.845 2.53,-1.966c0.31,1.054 0.15,2.08 -0.52,2.906c-1.05,1.281 -2.98,1.671 -4.93,0.977c-1.61,-0.569 -2.8,-1.633 -3.44,-3.066c-0.72,-1.614 -0.68,-3.646 0.09,-5.317c0.97,-2.117 3.51,-3.57 6.32,-3.636c0.06,0 0.13,0 0.19,0c3.22,0 5.99,1.775 7.62,4.908c1.58,3.048 1.52,6.257 -0.17,8.811c-1.68,2.525 -4.73,4.045 -8.19,3.978c-3.22,-0.028 -6.18,-1.367 -8.35,-3.769c-2.66,-2.953 -3.76,-7.083 -3.07,-11.621c1.24,-8.251 9.89,-12.647 17.34,-14.593c-2.85,1.386 -3.95,3.048 -4.72,4.462c-1.17,2.175 -0.41,3.637 0.94,3.58c0.82,-0.038 1.47,-1.244 1.58,-2.972c0.13,-2.051 0.93,-3.532 2.38,-5.117c2.4,-0.618 4.66,-0.978 6.5,-1.14c0.96,-0.085 2.04,-0.085 3.21,-0.028c-4.23,1.794 -6.05,3.807 -7.38,5.525c-2.05,2.63 -1.24,4.301 0.67,4.159c1.14,-0.085 2.27,-1.538 2.75,-3.589c0.55,-2.383 1.91,-4.168 4.16,-6.086c3.28,0.19 7.23,0.883 11.08,1.956c-5.19,0.256 -8,1.823 -10.19,3.257c-3.42,2.24 -3.32,4.661 -1.2,5.373c1.28,0.428 3.18,-0.826 4.63,-3.085c1.68,-2.621 3.94,-4.149 7.21,-5.421c2.06,0.588 4.07,1.291 5.94,2.06c-4.8,0.351 -7.48,1.851 -9.58,3.228c-3.42,2.241 -3.32,4.652 -1.19,5.364c1.27,0.427 3.17,-0.816 4.62,-3.086c1.6,-2.497 3.74,-3.997 6.78,-5.24c0.55,0.246 1.08,0.493 1.6,0.74c1.26,0.769 2.5,1.605 3.7,2.516c-4.61,0.219 -7.11,1.529 -9.05,2.725c-3.05,1.88 -2.96,3.902 -1.07,4.5c1.14,0.361 2.83,-0.683 4.12,-2.582c1.46,-2.146 3.43,-3.409 6.24,-4.462c1.31,1.015 2.56,2.126 3.72,3.361c-3.81,0.18 -5.91,1.158 -7.53,2.06c-2.55,1.433 -2.48,2.962 -0.89,3.418c0.95,0.275 2.36,-0.522 3.45,-1.966c1.2,-1.604 2.82,-2.563 5.12,-3.351c3.34,3.598 5.97,8.269 7.19,14.726c0.22,1.167 0.42,2.411 0.57,3.683c-0.96,-1.917 -2.58,-3.636 -4.77,-4.994c0.21,0.105 0.44,0.219 0.71,0.38c-0.4,-1.32 -0.64,-2.089 -0.04,-2.687c0.92,-0.921 1.31,-1.367 1.31,-2.392c-0.91,0.228 -1.16,0.171 -1.62,0.674c-0.1,-0.589 -0.72,-0.874 -1.04,-1.377c-0.21,0.874 -0.68,0.855 -0.52,1.738c-0.2,-0.589 -0.56,-0.409 -1.04,-0.788c0.08,1.234 -0.19,2.136 0.43,3.076c0.19,0.304 0.37,0.503 0.55,0.664c-0.45,-0.237 -0.92,-0.455 -1.41,-0.664c-0.9,-0.371 -1.88,-0.693 -2.9,-0.95c-0.61,-1.262 -0.96,-2.012 -0.45,-2.706c0.8,-1.091 1.12,-1.604 0.95,-2.677c-0.89,0.37 -1.16,0.342 -1.55,0.94c-0.2,-0.608 -0.88,-0.807 -1.3,-1.291c-0.07,0.94 -0.57,0.978 -0.26,1.88c-0.3,-0.58 -0.64,-0.352 -1.19,-0.674c0.28,1.272 0.14,2.24 0.94,3.142c0.84,0.94 1.28,0.864 2.5,1.31c-1.53,-0.351 -3.16,-0.55 -4.81,-0.55c-0.11,0 -0.23,0.009 -0.34,0.009c0.07,-0.019 0.16,-0.019 0.23,-0.047c-1.25,-0.855 -1.71,-1.339 -1.97,-1.966c-0.29,-0.693 -0.66,-1.405 0.77,-1.348c-1.78,-0.892 -2.28,-0.645 -2.76,0.019c-0.63,-0.256 -1.28,-0.778 -1.76,-1.813c-0.42,1.376 -0.18,2.06 1.26,2.772c-1.2,-0.351 -1.87,0.731 -1.87,0.731c0.86,0.674 2.88,1.557 4.59,1.738c-1.32,0.123 -2.62,0.389 -3.87,0.797c0.02,-0.009 0.04,-0.009 0.05,-0.028c-1.02,-0.418 -1.42,-0.703 -1.71,-1.111c-0.32,-0.475 -0.7,-0.94 0.32,-1.13c-1.4,-0.361 -1.71,-0.095 -1.94,0.484c-0.49,-0.085 -1.03,-0.361 -1.54,-1.054c-0.07,1.092 0.2,1.557 1.34,1.842c-0.9,-0.066 -1.2,0.855 -1.2,0.855c0.77,0.379 2.52,0.712 3.79,0.465c-1.17,0.465 -2.29,1.073 -3.31,1.861c0.02,-0.342 -0.03,-0.684 -0.19,-1.045c-0.35,-0.759 -1.09,-1.215 -2.33,-0.731c-1.23,0.494 -1.13,1.776 -1.88,2.203c-1.85,1.044 -3.43,0.142 -1.86,-2.392c-1.33,1.129 -1.46,2.705 -0.18,3.892c0.17,0.152 0.53,0.446 0.83,0.608l-1.43,1.604l2.19,-0.332c-0.01,0.323 0.07,0.779 0.13,0.987c0.41,1.652 1.9,2.355 3.61,1.852c-3.11,-0.019 -3.11,-1.766 -1.21,-2.744c0.76,-0.399 1.88,0.351 2.95,-0.408c1.08,-0.76 1.04,-1.595 0.54,-2.269c-0.26,-0.333 -0.56,-0.561 -0.9,-0.712c1.41,-1.092 3,-1.861 4.68,-2.346c-1,0.456 -1.31,0.342 -1.9,1.073c-0.52,0.636 -0.38,1.292 -0.52,2.174c0.37,-0.237 0.62,-0.085 0.8,-0.493c-0.17,0.626 0.17,0.636 0.26,1.282c0.27,-0.342 0.74,-0.504 0.85,-0.921c0.29,0.389 0.48,0.37 1.12,0.588c0.07,-0.731 -0.18,-1.073 -0.78,-1.804c-0.39,-0.465 -0.17,-0.997 0.21,-1.908c1.09,-0.313 2.21,-0.503 3.34,-0.598c-0.06,0.019 -0.11,0.038 -0.17,0.057c-1.08,0.446 -1.38,1.338 -2.18,2.316c0.61,-0.057 0.81,0.285 1.32,-0.095c-0.66,0.646 -0.26,0.883 -0.61,1.709c0.58,-0.237 1.25,-0.133 1.68,-0.579c0.08,0.665 0.33,0.76 0.94,1.424c0.61,-0.845 0.55,-1.414 0.34,-2.668c-0.13,-0.816 0.51,-1.329 1.62,-2.183c1.52,0.104 3.01,0.361 4.38,0.75c-1.16,-0.076 -2.29,0.009 -2.96,0.199c0,0 0.17,1.253 1.42,1.367c-1.63,0.124 -2.13,0.656 -2.32,2.08c0.88,-0.769 1.69,-1.007 2.38,-1.007c0.16,0.788 0.52,1.206 2.52,1.045c-1.34,-0.475 -0.71,-0.988 -0.15,-1.519c0.45,-0.428 1.01,-0.694 2.21,-0.978c0.87,0.427 1.67,0.892 2.39,1.414c-0.16,-0.066 -0.34,-0.133 -0.57,-0.18c-1.14,-0.285 -1.95,0.237 -3.22,0.541c0.52,0.313 0.45,0.693 1.1,0.693c-0.93,0.124 -0.77,0.551 -1.59,0.997c0.61,0.142 1.08,0.627 1.71,0.532c-0.38,0.569 -0.24,0.778 -0.2,1.671c1.03,-0.314 1.36,-0.798 2.01,-1.909c0.41,-0.702 1.23,-0.74 2.6,-0.769c1.41,1.453 2.34,3.133 2.7,4.937c0.06,0.902 0.11,1.814 0.12,2.725c-0.58,0.162 -1.01,0.665 -1.01,1.272c0,0.599 0.42,1.092 0.99,1.263c-0.14,3.342 -0.7,6.485 -1.92,8.849c-1.97,3.845 -4.99,4.795 -7.16,4.405c-1.8,-0.323 -3.12,-1.709 -3.22,-3.361c-0.05,-0.902 0.48,-1.851 1.37,-2.421c0.79,-0.512 1.74,-0.598 2.63,-0.294c-0.96,0.038 -1.72,0.759 -1.72,1.652c0,0.921 0.81,1.661 1.81,1.661c0.33,0 0.64,-0.085 0.91,-0.237c0.13,-0.028 0.26,-0.085 0.38,-0.161c0.55,-0.333 0.87,-1.007 0.83,-1.719c-0.06,-0.854 -0.61,-1.566 -1.5,-1.965c-1.3,-0.579 -2.72,-0.475 -3.9,0.275c-1.17,0.75 -1.88,2.032 -1.81,3.266c0.12,2.089 1.78,3.826 4.03,4.235c2.54,0.455 6.03,-0.598 8.25,-4.928c1.19,-2.297 1.87,-5.478 2.03,-9.181l0.52,0l0,14.726c-0.79,0.095 -1.41,0.731 -1.41,1.519c0,0.845 0.72,1.538 1.62,1.538c0.03,0 0.06,0 0.09,-0.009c0.02,0.009 0.05,0.009 0.08,0.009c0.9,0 1.62,-0.693 1.62,-1.538c0,-0.788 -0.62,-1.424 -1.41,-1.519l0,-14.726l0.52,0c0.16,3.703 0.84,6.884 2.03,9.181c2.22,4.33 5.71,5.383 8.25,4.928c2.25,-0.409 3.91,-2.146 4.03,-4.235c0.07,-1.234 -0.64,-2.516 -1.81,-3.266c-1.18,-0.75 -2.6,-0.854 -3.9,-0.275c-0.89,0.399 -1.44,1.111 -1.5,1.965c-0.04,0.712 0.28,1.386 0.83,1.719c0.12,0.076 0.25,0.133 0.38,0.161c0.27,0.152 0.58,0.237 0.91,0.237c1,0 1.81,-0.74 1.81,-1.661c0,-0.893 -0.76,-1.614 -1.72,-1.652c0.89,-0.304 1.84,-0.218 2.63,0.294c0.89,0.57 1.42,1.519 1.37,2.421c-0.1,1.652 -1.42,3.038 -3.22,3.361c-2.17,0.39 -5.19,-0.56 -7.16,-4.405c-1.22,-2.364 -1.78,-5.507 -1.92,-8.849c0.57,-0.171 0.99,-0.664 0.99,-1.263c0,-0.607 -0.43,-1.11 -1.01,-1.272c0.01,-0.911 0.06,-1.823 0.12,-2.725c0.36,-1.804 1.29,-3.484 2.7,-4.937c1.37,0.029 2.19,0.067 2.6,0.769c0.65,1.111 0.98,1.595 2.01,1.909c0.04,-0.893 0.18,-1.102 -0.2,-1.671c0.63,0.095 1.1,-0.39 1.71,-0.532c-0.82,-0.446 -0.66,-0.873 -1.59,-0.997c0.65,0 0.58,-0.38 1.1,-0.693c-1.27,-0.304 -2.08,-0.826 -3.22,-0.541c-0.23,0.047 -0.41,0.114 -0.57,0.18c0.72,-0.522 1.52,-0.987 2.39,-1.414c1.2,0.284 1.76,0.55 2.21,0.978c0.56,0.531 1.19,1.044 -0.15,1.519c2,0.161 2.36,-0.257 2.52,-1.045c0.69,0 1.5,0.238 2.38,1.007c-0.19,-1.424 -0.69,-1.956 -2.31,-2.08c1.25,-0.114 1.41,-1.367 1.41,-1.367c-0.67,-0.19 -1.8,-0.275 -2.96,-0.199c1.37,-0.389 2.86,-0.646 4.38,-0.75c1.11,0.854 1.75,1.367 1.62,2.183c-0.21,1.254 -0.27,1.823 0.34,2.668c0.61,-0.664 0.86,-0.759 0.94,-1.424c0.43,0.446 1.1,0.342 1.68,0.579c-0.35,-0.826 0.05,-1.063 -0.61,-1.709c0.51,0.38 0.71,0.038 1.32,0.095c-0.8,-0.978 -1.1,-1.87 -2.18,-2.316c-0.06,-0.019 -0.11,-0.038 -0.17,-0.057c1.13,0.095 2.25,0.285 3.34,0.598c0.38,0.911 0.6,1.443 0.21,1.908c-0.6,0.731 -0.85,1.073 -0.78,1.804c0.64,-0.218 0.83,-0.199 1.12,-0.588c0.11,0.417 0.58,0.579 0.85,0.921c0.09,-0.646 0.43,-0.656 0.26,-1.282c0.18,0.408 0.43,0.256 0.8,0.493c-0.14,-0.882 0,-1.538 -0.52,-2.174c-0.59,-0.731 -0.9,-0.617 -1.9,-1.073c1.68,0.485 3.27,1.254 4.68,2.346c-0.33,0.151 -0.64,0.379 -0.9,0.712c-0.5,0.674 -0.54,1.509 0.54,2.269c1.07,0.759 2.19,0.009 2.95,0.408c1.9,0.978 1.9,2.725 -1.21,2.744c1.71,0.503 3.2,-0.2 3.61,-1.852c0.06,-0.208 0.14,-0.664 0.13,-0.987l2.19,0.332l-1.43,-1.604c0.3,-0.162 0.66,-0.456 0.83,-0.608c1.28,-1.187 1.15,-2.763 -0.18,-3.892c1.57,2.534 -0.01,3.436 -1.86,2.392c-0.75,-0.427 -0.65,-1.709 -1.88,-2.203c-1.24,-0.484 -1.98,-0.028 -2.33,0.731c-0.16,0.361 -0.21,0.703 -0.19,1.045c-1.02,-0.788 -2.14,-1.396 -3.31,-1.861c1.27,0.247 3.02,-0.086 3.79,-0.465c0,0 -0.3,-0.921 -1.2,-0.855c1.14,-0.285 1.41,-0.75 1.34,-1.842c-0.51,0.693 -1.05,0.969 -1.54,1.054c-0.23,-0.579 -0.54,-0.845 -1.94,-0.484c1.02,0.19 0.64,0.655 0.32,1.13c-0.29,0.408 -0.69,0.693 -1.71,1.111c0.01,0.019 0.03,0.019 0.05,0.028c-1.25,-0.408 -2.55,-0.674 -3.87,-0.797c1.71,-0.181 3.73,-1.064 4.59,-1.738c0,0 -0.67,-1.082 -1.87,-0.731c1.44,-0.712 1.68,-1.396 1.26,-2.772c-0.48,1.035 -1.13,1.557 -1.76,1.813c-0.48,-0.664 -0.98,-0.911 -2.75,-0.019c1.42,-0.057 1.05,0.655 0.76,1.348c-0.26,0.627 -0.72,1.111 -1.97,1.966c0.07,0.028 0.16,0.028 0.23,0.047c-0.11,0 -0.23,-0.009 -0.34,-0.009c-1.65,0 -3.28,0.199 -4.81,0.55c1.22,-0.446 1.66,-0.37 2.5,-1.31c0.8,-0.902 0.66,-1.87 0.94,-3.142c-0.55,0.322 -0.89,0.094 -1.19,0.674c0.31,-0.902 -0.19,-0.94 -0.26,-1.88c-0.42,0.484 -1.1,0.683 -1.3,1.291c-0.39,-0.598 -0.66,-0.57 -1.55,-0.94c-0.17,1.073 0.15,1.586 0.95,2.677c0.51,0.694 0.16,1.444 -0.45,2.706c-1.02,0.257 -2,0.579 -2.9,0.95c-0.49,0.209 -0.96,0.427 -1.41,0.664c0.18,-0.161 0.36,-0.36 0.55,-0.664c0.62,-0.94 0.35,-1.842 0.43,-3.076c-0.48,0.379 -0.84,0.199 -1.04,0.788c0.16,-0.883 -0.31,-0.864 -0.52,-1.738c-0.32,0.503 -0.94,0.788 -1.04,1.377c-0.46,-0.503 -0.71,-0.446 -1.62,-0.674c0,1.025 0.39,1.471 1.31,2.392c0.6,0.598 0.36,1.367 -0.04,2.687c0.27,-0.161 0.5,-0.275 0.71,-0.38c-2.19,1.358 -3.81,3.077 -4.77,4.994c0.15,-1.272 0.35,-2.516 0.57,-3.683c1.22,-6.457 3.85,-11.128 7.19,-14.726c2.3,0.788 3.92,1.747 5.12,3.351c1.09,1.444 2.5,2.241 3.45,1.966c1.59,-0.456 1.66,-1.985 -0.89,-3.418c-1.62,-0.902 -3.72,-1.88 -7.53,-2.06c1.16,-1.235 2.42,-2.346 3.72,-3.361c2.81,1.053 4.78,2.316 6.24,4.462c1.29,1.899 2.98,2.943 4.12,2.582c1.89,-0.598 1.98,-2.62 -1.07,-4.5c-1.94,-1.196 -4.44,-2.506 -9.05,-2.725c1.2,-0.911 2.44,-1.747 3.7,-2.516c0.52,-0.247 1.05,-0.494 1.6,-0.74c3.04,1.243 5.18,2.743 6.78,5.24c1.45,2.27 3.35,3.513 4.62,3.086c2.13,-0.712 2.23,-3.123 -1.19,-5.364c-2.1,-1.377 -4.78,-2.877 -9.58,-3.228c1.87,-0.769 3.88,-1.472 5.94,-2.06c3.27,1.272 5.53,2.8 7.21,5.421c1.45,2.259 3.35,3.513 4.63,3.085c2.12,-0.712 2.22,-3.133 -1.2,-5.373c-2.19,-1.434 -5,-3.001 -10.19,-3.257c3.85,-1.073 7.8,-1.766 11.08,-1.956c2.25,1.918 3.61,3.703 4.16,6.086c0.48,2.051 1.61,3.504 2.75,3.589c1.91,0.142 2.72,-1.529 0.67,-4.159c-1.33,-1.718 -3.15,-3.731 -7.38,-5.525c1.17,-0.057 2.25,-0.057 3.21,0.028c1.84,0.162 4.1,0.522 6.5,1.14c1.45,1.585 2.25,3.066 2.38,5.117c0.11,1.728 0.77,2.934 1.58,2.972c1.35,0.057 2.11,-1.405 0.94,-3.58c-0.77,-1.414 -1.87,-3.076 -4.72,-4.462c7.45,1.946 16.1,6.342 17.34,14.593c0.69,4.538 -0.41,8.668 -3.07,11.621c-2.17,2.402 -5.13,3.741 -8.35,3.769c-3.46,0.067 -6.51,-1.453 -8.19,-3.978c-1.69,-2.554 -1.75,-5.763 -0.17,-8.811c1.63,-3.133 4.4,-4.908 7.62,-4.908c0.06,0 0.13,0 0.19,0c2.81,0.066 5.35,1.519 6.32,3.636c0.77,1.671 0.81,3.703 0.09,5.317c-0.64,1.433 -1.83,2.497 -3.44,3.066c-1.95,0.694 -3.88,0.304 -4.93,-0.977c-0.67,-0.826 -0.83,-1.852 -0.52,-2.906c0.24,1.121 1.28,1.966 2.53,1.966c1.43,0 2.59,-1.092 2.59,-2.45c0,-1.358 -1.16,-2.449 -2.59,-2.449c-1.01,0 -1.88,0.55 -2.3,1.357c-1.13,1.643 -1.18,3.456 -0.1,4.776c1.18,1.443 3.34,1.889 5.49,1.13c1.74,-0.617 3.03,-1.766 3.73,-3.333c0.78,-1.747 0.75,-3.883 -0.09,-5.687c-1.05,-2.279 -3.77,-3.855 -6.77,-3.921c-3.53,-0.057 -6.51,1.813 -8.26,5.174c-1.67,3.2 -1.6,6.58 0.18,9.267c1.75,2.639 4.92,4.206 8.49,4.206c0.05,0 0.09,0 0.14,0c3.36,-0.029 6.46,-1.434 8.72,-3.931c2.76,-3.057 3.89,-7.32 3.19,-12.001c-0.67,-4.452 -3.43,-7.804 -6.99,-10.282c2.67,0.608 4.61,1.519 6.23,3.295c1.41,1.566 3.06,2.307 4.02,1.841c1.6,-0.778 1.39,-2.63 -1.58,-3.959c-1.96,-0.873 -4.47,-1.775 -8.86,-1.31c-2.2,-1.491 -4.7,-2.658 -7.2,-3.541c3.64,-0.855 6.51,-0.902 9.6,0.36c2.57,1.045 4.87,1.016 5.65,-0.028c1.3,-1.747 -0.09,-3.769 -4.25,-3.722c-2.8,0.029 -6.25,0.323 -11.01,3.38c-3.67,-1.291 -7.34,-1.984 -10.09,-2.221c-0.56,-0.048 -1.15,-0.067 -1.79,-0.067c-4.83,0 -11.7,1.358 -17.53,3.522c1.45,-0.769 2.91,-1.481 4.34,-2.183c1.74,-0.855 3.39,-1.671 4.96,-2.526c1.72,-0.93 3.45,-1.965 5.15,-3.085c2.89,-1.273 5.78,-1.567 8.97,-1.861c0.8,0.721 1.25,1.215 1.11,1.87c-0.24,1.168 -0.31,1.709 0.25,2.554c0.6,-0.579 0.84,-0.645 0.93,-1.272c0.4,0.456 1.05,0.408 1.58,0.683c-0.3,-0.807 0.09,-0.996 -0.52,-1.661c0.48,0.399 0.67,0.095 1.26,0.199c-0.73,-0.987 -0.99,-1.851 -2.01,-2.364c-0.18,-0.095 -0.34,-0.152 -0.49,-0.209c1.45,-0.152 2.98,-0.341 4.59,-0.664c0.3,1.291 0.15,1.699 1.1,2.81c0.91,1.054 2.05,1.234 3.48,1.918c-0.29,-0.636 0.04,-0.893 -0.58,-1.377c0.99,0.589 1.12,0.124 2.21,0.361c-0.49,-0.57 -0.61,-1.301 -1.28,-1.68c0.75,-0.19 0.77,-0.466 1.34,-1.216c-1.21,-0.512 -1.86,-0.36 -3.25,0.067c-0.78,0.247 -1.51,-0.181 -2.61,-0.969c1.34,-0.284 2.73,-0.664 4.19,-1.186c0.01,0.009 0.02,0.019 0.03,0.028c0,-0.009 0,-0.019 0,-0.038c0.88,-0.313 1.8,-0.693 2.74,-1.13c0.01,1.814 2.38,3.637 3.71,4.007c0,0 0.94,-1.253 0.18,-2.013c1.23,0.731 2.03,0.494 3.37,-0.741c-1.26,0.266 -2.02,0.067 -2.5,-0.284c0.56,-0.826 0.67,-1.396 -0.84,-2.288c0.51,1.139 -0.36,1.291 -1.2,1.5c-0.7,0.171 -1.34,0.123 -2.49,-0.285c0.44,-0.209 0.88,-0.418 1.33,-0.655c1.56,-0.826 2.89,-1.852 4,-3.067c1.59,0.655 1.73,1.092 3.36,1.063c1.45,-0.028 2.3,-0.778 3.74,-1.424c-0.7,-0.18 -0.72,-0.588 -1.5,-0.408c1.1,-0.38 0.79,-0.769 1.66,-1.443c-0.77,0.019 -1.45,-0.342 -2.18,-0.076c0.31,-0.674 0.09,-0.864 -0.19,-1.747c-1.16,0.589 -1.44,1.168 -1.94,2.478c-0.31,0.807 -1.26,1.073 -2.87,1.462c1.53,-1.699 2.63,-3.769 3.27,-6.219c1.19,0.912 1.4,1.396 2.86,1.595c1.41,0.2 2.3,-0.579 3.77,-1.148c-0.68,-0.333 -0.66,-0.836 -1.44,-0.75c1.1,-0.285 0.83,-0.808 1.74,-1.51c-0.76,-0.095 -1.4,-0.655 -2.13,-0.446Z" style="fill-rule:nonzero;"/><path d="M2.1,77.33c-0.35,0.82 -0.15,1.1 0.05,2.3c1.18,-0.57 1.49,-1.28 2.09,-2.89c0.34,-0.93 1.17,-1.15 2.55,-1.37c-0.33,1.49 -0.51,3.1 -0.56,4.83l0,-0.01c-0.81,1.15 -1.29,1.82 -2.1,1.77c-1.25,-0.08 -1.82,-0.07 -2.63,0.6c0.68,0.51 0.78,0.74 1.45,0.75c-0.42,0.45 -0.29,1.09 -0.51,1.66c0.81,-0.41 1.06,-0.05 1.67,-0.75c-0.36,0.53 -0.01,0.68 -0.04,1.28c0.93,-0.86 1.8,-1.24 2.2,-2.32c0,-0.01 0.01,-0.02 0.01,-0.04c0.06,1.1 0.12,2.17 0.21,3.19c-0.01,-0.01 -0.01,-0.03 -0.01,-0.04c-0.67,1.13 -1.07,1.55 -1.62,1.83c-0.61,0.3 -1.23,0.66 -1.31,-0.55c-0.65,1.57 -0.37,1.98 0.29,2.33c-0.18,0.56 -0.59,1.15 -1.5,1.64c1.31,0.24 1.91,-0.01 2.43,-1.29c-0.22,1.04 0.84,1.53 0.84,1.53c0.45,-0.65 0.94,-1.98 1.11,-3.25c0.26,2.15 0.66,4.12 1.26,5.98c-0.41,-0.11 -0.86,-0.13 -1.32,0c-0.91,0.26 -1.5,1.04 -1.06,2.54c0.44,1.51 1.94,1.62 2.35,2.55c1.02,2.31 -0.16,3.97 -2.93,1.72c1.18,1.72 2.98,2.15 4.46,0.88c0.19,-0.16 0.57,-0.53 0.79,-0.84l1.71,1.92l-0.19,-2.56c0.38,0.06 0.91,0.05 1.15,0.02c1.94,-0.18 2.89,-1.77 2.48,-3.82c-0.32,3.57 -2.33,3.25 -3.27,0.91c-0.39,-0.95 0.58,-2.09 -0.19,-3.46c-0.77,-1.37 -1.74,-1.48 -2.56,-1.01c-0.44,0.24 -0.74,0.59 -0.95,0.98c-0.99,-3.1 -1.41,-6.58 -1.64,-10.62c0.08,0.4 0.24,0.8 0.62,1.39c0.79,1.21 1.91,1.52 3.25,2.38c-0.21,-0.7 0.14,-0.93 -0.43,-1.5c0.92,0.72 1.1,0.25 2.17,0.6c-0.42,-0.64 -0.46,-1.42 -1.09,-1.89c0.77,-0.12 0.82,-0.4 1.46,-1.13c-1.14,-0.66 -1.8,-0.57 -3.24,-0.27c-0.88,0.19 -1.63,-0.47 -2.82,-1.61c-0.05,-2.35 0.15,-4.48 0.6,-6.4c0.01,0 0.01,0 0.02,0c-0.01,0 -0.01,-0.01 -0.01,-0.01c0.09,-0.38 0.18,-0.76 0.29,-1.12c0.8,0.98 1.08,1.57 1.14,2.27c0.09,0.85 0.24,1.73 -1.18,1.43c1.52,1.31 2.1,1.1 2.79,0.41c0.56,0.39 1.06,1.1 1.24,2.37c0.84,-1.53 0.81,-2.35 -0.44,-3.4c1.11,0.6 2.12,-0.55 2.12,-0.55c-0.86,-1.19 -3.58,-3.08 -5.54,-2.9c0.69,-2.12 1.72,-3.93 3.09,-5.44c-0.38,0.96 -0.52,2.04 -0.42,2.7c0,0 1.38,0.31 1.72,-0.61c-0.15,1.28 0.34,1.85 1.85,2.49c-0.69,-0.94 -0.8,-1.64 -0.68,-2.16c0.88,0.14 1.39,0.02 1.57,-1.56c-0.75,0.85 -1.2,0.19 -1.68,-0.42c-0.38,-0.49 -0.57,-1 -0.66,-2c0.6,-0.47 1.25,-0.9 1.95,-1.28c1.41,-0.78 2.76,-1.4 4.06,-1.9c0.02,1.1 -0.06,1.78 -0.7,2.17c-1.14,0.7 -1.64,1.05 -1.91,2.1c0.93,0 1.16,0.12 1.75,-0.27c-0.08,0.63 0.45,1.07 0.62,1.67c0.44,-0.84 0.89,-0.69 0.98,-1.63c0.03,0.65 0.43,0.56 0.78,1.06c0.27,-1.27 0.78,-2.11 0.43,-3.24c-0.34,-1.12 -0.73,-1.26 -1.53,-2.01c1.5,-0.55 2.94,-0.95 4.31,-1.24c0.01,0.01 0.01,0.01 0.02,0.01c-0.01,0 -0.01,-0.01 -0.01,-0.01c0.45,-0.09 0.88,-0.17 1.31,-0.24c-0.6,0.3 -0.9,0.38 -1.38,1.1c-0.54,0.79 -0.42,1.56 -0.59,2.61c0.37,-0.31 0.62,-0.15 0.82,-0.65c-0.2,0.75 0.14,0.74 0.21,1.49c0.29,-0.42 0.76,-0.65 0.89,-1.15c0.28,0.44 0.47,0.4 1.11,0.61c0.09,-0.88 -0.14,-1.26 -0.72,-2.07c-0.35,-0.48 -0.17,-1.08 0.18,-2.04c1.59,-0.25 3.1,-0.4 4.54,-0.54c2.57,-0.24 5.05,-0.49 7.52,-1.3c-11.88,8.72 -21.74,21.73 -17.08,35.16c1.9,5.49 5.13,9.48 9.37,11.84c-1,0.44 -1.58,0.54 -2.17,0.46c-0.78,-0.09 -1.61,-0.14 -0.87,-1.35c-1.68,1.1 -1.69,1.66 -1.31,2.42c-0.54,0.42 -1.34,0.72 -2.53,0.62c1.07,1.07 1.81,1.2 3.17,0.3c-0.91,0.87 -0.23,2.01 -0.23,2.01c1.3,-0.51 3.79,-2.45 4.4,-4.21c2.88,1.5 6.21,2.29 9.93,2.29c2.05,0 4.22,-0.24 6.48,-0.72c2.18,-0.46 4.45,-1.19 6.63,-2.19c0.75,0.87 0.97,1.4 1,2.1c0.03,0.79 0.11,1.59 -1.03,1.65c1.18,0.88 1.66,0.54 2.25,-0.28c0.44,0.24 0.81,0.79 0.9,1.96c0.75,-1.65 0.76,-2.43 -0.2,-3.13c0.87,0.31 1.74,-1.03 1.74,-1.03c-0.65,-0.93 -2.8,-2.07 -4.41,-1.39c1.64,-0.77 3.22,-1.7 4.65,-2.79c1.5,0.69 2.38,1.16 2.53,2.1c0.23,1.56 0.39,2.26 1.47,3.12c0.47,-0.95 0.73,-1.11 0.56,-1.93c0.7,0.42 1.48,0.14 2.26,0.29c-0.75,-0.91 -0.35,-1.29 -1.4,-1.91c0.77,0.33 0.87,-0.12 1.63,-0.2c-1.35,-0.98 -2.06,-1.97 -3.54,-2.25c-1.44,-0.27 -1.82,0.04 -3.03,0.42c1.17,-0.94 2.21,-2 3.11,-3.17c1.26,0.89 1.66,1.4 3.38,1.52c1.8,0.13 2.86,-0.95 4.68,-1.81c-0.89,-0.36 -0.9,-1 -1.88,-0.82c1.38,-0.47 1,-1.11 2.08,-2.08c-0.96,-0.06 -1.81,-0.71 -2.72,-0.37c0.38,-1.04 0.11,-1.35 -0.23,-2.79c-1.45,0.8 -1.8,1.68 -2.43,3.69c-0.29,0.91 -1.02,1.32 -2.17,1.64c1.29,-1.99 2.11,-4.27 2.27,-6.87c0.98,-0.6 1.63,-0.9 2.3,-0.54c1.19,0.62 1.74,0.87 2.78,0.58c-0.47,-0.81 -0.48,-1.07 -1.12,-1.37c0.58,-0.26 0.69,-0.93 1.12,-1.39c-0.94,0.05 -1.05,-0.42 -1.9,-0.01c0.54,-0.36 0.26,-0.66 0.52,-1.22c-1.24,0.42 -2.22,0.41 -3.01,1.28c-0.35,0.38 -0.53,0.67 -0.64,0.97c-0.01,-1.27 -0.09,-2.43 -0.25,-3.47c0.11,0.12 0.21,0.25 0.35,0.36c0.49,-1.15 0.88,-1.62 1.51,-1.96c0.71,-0.39 1.41,-0.84 1.93,0.26c0.32,-1.56 -0.18,-1.88 -1.18,-2.08c0.04,-0.54 0.39,-1.16 1.43,-1.77c-1.83,0 -2.53,0.35 -2.78,1.61c-0.08,-0.99 -1.65,-1.25 -1.65,-1.25c-0.21,0.38 -0.36,0.97 -0.42,1.61c-0.34,-0.89 -0.75,-1.68 -1.23,-2.38c0.91,-0.85 1.34,-0.99 1.82,-2.34c0.5,-1.35 0.07,-2.43 -0.05,-4.03c-0.43,0.59 -0.84,0.45 -0.95,1.25c0.03,-1.17 -0.46,-1.03 -0.82,-2.1c-0.25,0.73 -0.85,1.23 -0.85,2.01c-0.56,-0.54 -0.82,-0.4 -1.78,-0.48c0.16,1.31 0.63,1.79 1.73,2.74c0.56,0.5 0.61,1.25 0.5,2.41c-1.43,-1.81 -3.4,-3 -5.8,-3.91c0.27,-0.22 0.5,-0.5 0.66,-0.85c0.43,-0.91 0.2,-1.94 -1.42,-2.66c-1.61,-0.72 -2.78,0.4 -3.88,0.06c-2.73,-0.82 -3.31,-2.96 0.63,-3.59c-2.33,-0.28 -3.99,0.87 -3.98,2.97c0.01,0.26 0.05,0.83 0.16,1.23l-2.88,0l2.34,1.69c-0.32,0.26 -0.69,0.7 -0.85,0.91c-1.24,1.69 -0.56,3.59 1.5,4.73c-2.83,-2.81 -1.12,-4.21 1.58,-3.29c1.09,0.37 1.38,1.97 3.11,2.32c1.73,0.36 2.53,-0.34 2.72,-1.33c0.08,-0.45 0.03,-0.88 -0.1,-1.27c4.77,1.79 7.61,4.63 7.88,11.73c-0.96,-0.23 -1.43,-0.51 -1.85,-1c-0.52,-0.61 -1.1,-1.2 -0.13,-1.94c-1.59,0.01 -1.8,0.57 -1.8,1.58c-0.54,0.07 -1.21,-0.14 -2.03,-1.03c0.39,1.78 0.87,2.41 2.16,2.39c-0.96,0.28 -0.89,1.87 -0.89,1.87c1.09,0.33 3.46,0.03 4.56,-1.25c0.01,0.45 0.01,0.9 0,1.39c-0.05,2.08 -0.6,3.99 -1.52,5.71c0.13,-0.64 0.21,-1 -0.09,-1.89c-0.36,-1.08 -1.17,-1.54 -2.04,-2.47c0.02,0.59 -0.31,0.7 0.02,1.25c-0.57,-0.73 -0.8,-0.4 -1.56,-0.88c0.2,0.57 0.07,1.19 0.46,1.67c-0.62,-0.05 -0.72,0.16 -1.37,0.6c0.75,0.73 1.29,0.79 2.46,0.83c0.69,0.02 1.11,0.59 1.73,1.57c-0.29,0.48 -0.61,0.95 -0.96,1.41c-0.04,0.01 -0.08,0.01 -0.12,0.02c0.02,0.02 0.04,0.03 0.07,0.05c-0.95,1.22 -2.09,2.32 -3.37,3.3c-0.11,-0.74 -0.08,-1.18 0.08,-1.61c0.23,-0.64 0.43,-1.33 1.32,-0.51c-0.61,-1.59 -1.09,-1.69 -1.81,-1.49c-0.25,-0.53 -0.36,-1.24 -0.04,-2.22c-1.12,0.72 -1.38,1.32 -0.87,2.6c-0.56,-0.9 -1.67,-0.52 -1.67,-0.52c0.18,1.1 1.2,3.23 2.45,4.17c-1.32,0.94 -2.76,1.77 -4.27,2.46c0.18,-0.17 0.37,-0.37 0.58,-0.66c0.84,-1.15 0.52,-2.32 0.68,-3.9c-0.63,0.44 -1.09,0.18 -1.37,0.91c0.25,-1.12 -0.37,-1.14 -0.6,-2.28c-0.44,0.62 -1.25,0.91 -1.4,1.67c-0.57,-0.7 -0.91,-0.65 -2.06,-1.03c-0.05,1.31 0.43,1.92 1.58,3.19c0.71,0.78 0.45,1.68 -0.06,3.15c-1.19,0.41 -2.4,0.75 -3.6,1c-1.14,0.24 -2.23,0.4 -3.31,0.51c0.23,-0.08 0.47,-0.2 0.79,-0.45c0.76,-0.59 0.89,-1.36 1.38,-2.31c-0.46,0.18 -0.64,-0.04 -0.99,0.37c0.43,-0.66 0.09,-0.75 0.26,-1.49c-0.4,0.32 -0.92,0.38 -1.2,0.83c-0.13,-0.51 -0.33,-0.53 -0.86,-0.93c-0.37,0.8 -0.26,1.24 0.04,2.19c0.19,0.57 -0.18,1.09 -0.84,1.92c-9.81,0.55 -17.11,-4.26 -20.36,-13.65c-3.36,-9.67 1.19,-19.16 8.55,-26.89c-0.98,1.48 -1.81,3.06 -2.5,4.69c-3.12,7.37 -3.29,15.81 -0.58,20.99c0.62,1.17 1.61,2.25 2.84,3.13c-0.1,1.12 -0.24,1.8 -0.91,2.13c-1.21,0.59 -1.73,0.9 -2.11,1.91c0.93,0.09 1.15,0.24 1.77,-0.1c-0.14,0.62 0.34,1.11 0.46,1.72c0.52,-0.79 0.96,-0.6 1.13,-1.53c-0.03,0.65 0.37,0.6 0.68,1.14c0.38,-1.25 0.97,-2.04 0.74,-3.19c-0.14,-0.66 -0.32,-0.99 -0.59,-1.32c1.15,0.65 2.43,1.14 3.77,1.41c0.54,0.1 1.07,0.16 1.61,0.2c-1.06,0.71 -1.58,0.85 -2.15,2.1c-0.59,1.3 -0.05,2.38 0.12,3.96c0.53,-0.56 1.03,-0.39 1.16,-1.16c-0.01,1.14 0.59,1.03 1.04,2.11c0.31,-0.7 1.05,-1.15 1.04,-1.92c0.7,0.57 1.02,0.46 2.23,0.6c-0.22,-1.3 -0.81,-1.8 -2.2,-2.81c-0.79,-0.59 -0.78,-1.46 -0.6,-2.85c0.05,0 0.1,0.01 0.15,0.01c1.18,0 2.33,-0.19 3.44,-0.53c0.51,0.56 0.69,0.94 0.74,1.39c0.06,0.56 0.16,1.14 -0.71,1.13c0.94,0.68 1.29,0.46 1.71,-0.1c0.35,0.19 0.66,0.6 0.78,1.43c0.5,-1.14 0.48,-1.69 -0.29,-2.23c0.68,0.26 1.29,-0.65 1.29,-0.65c-0.42,-0.54 -1.55,-1.21 -2.59,-1.3c1.01,-0.4 1.98,-0.95 2.88,-1.64c0.01,0.45 0.11,0.89 0.4,1.3c0.51,0.73 1.41,1 2.7,0.06c1.29,-0.94 0.96,-2.34 1.72,-3.05c1.88,-1.75 3.79,-1.26 2.48,2.08c1.28,-1.69 1.16,-3.49 -0.47,-4.4c-0.21,-0.12 -0.67,-0.34 -1.02,-0.42l1.31,-2.25l-2.37,1.08c-0.05,-0.36 -0.22,-0.85 -0.31,-1.06c-0.74,-1.71 -2.52,-2.02 -4.33,-0.92c3.46,-0.96 3.75,0.99 1.81,2.68c-0.78,0.69 -2.14,0.21 -3.21,1.4c-1.07,1.19 -0.89,2.11 -0.21,2.7c0.32,0.27 0.68,0.42 1.06,0.5c-2.05,1.52 -4.42,2.3 -6.89,2.28c0,-0.01 0,-0.02 0.01,-0.04c-0.02,0.02 -0.04,0.03 -0.05,0.04c-0.72,-0.01 -1.45,-0.07 -2.18,-0.21c-0.24,-0.05 -0.48,-0.12 -0.72,-0.18c0.31,0.01 0.67,-0.02 1.15,-0.13c1.41,-0.31 2.09,-1.25 3.37,-2.2c-0.73,-0.05 -0.82,-0.46 -1.56,-0.13c1.01,-0.61 0.63,-0.94 1.34,-1.81c-0.75,0.17 -1.5,-0.07 -2.16,0.35c0.16,-0.76 -0.09,-0.91 -0.54,-1.77c-1.02,0.84 -1.17,1.49 -1.39,2.94c-0.14,0.86 -0.95,1.31 -2.32,1.98c-2.04,-0.96 -3.73,-2.42 -4.61,-4.1c-0.57,-1.09 -1,-2.34 -1.31,-3.69c1.19,0.6 1.7,1.01 2.04,1.58c0.42,0.67 0.9,1.34 -0.51,1.52c1.91,0.63 2.35,0.28 2.71,-0.49c0.67,0.16 1.4,0.59 2.06,1.58c0.17,-1.5 -0.19,-2.16 -1.74,-2.66c1.24,0.17 1.71,-1.07 1.71,-1.07c-1.29,-0.74 -4.63,-1.49 -6.31,-0.67c-0.43,-1.98 -0.59,-4.16 -0.46,-6.44c0.43,1.19 0.45,1.72 1.52,2.57c1.12,0.89 2.3,0.62 3.87,0.83c-0.41,-0.65 -0.13,-1.09 -0.85,-1.4c1.11,0.29 1.15,-0.33 2.3,-0.51c-0.6,-0.47 -0.86,-1.29 -1.61,-1.47c0.72,-0.54 0.68,-0.88 1.11,-2.01c-1.31,-0.1 -1.94,0.35 -3.25,1.45c-0.79,0.66 -1.66,0.4 -3.05,-0.15c0.25,-3.05 1,-6.23 2.25,-9.25c0.62,0.89 0.94,1.5 0.63,2.18c-0.54,1.22 -0.75,1.79 -0.39,2.81c0.77,-0.53 1.03,-0.56 1.29,-1.21c0.3,0.56 0.98,0.63 1.46,1.02c-0.11,-0.93 0.35,-1.07 -0.11,-1.9c0.39,0.52 0.67,0.23 1.25,0.44c-0.51,-1.2 -0.56,-2.18 -1.48,-2.91c-0.94,-0.76 -1.34,-0.62 -2.5,-0.81c1.17,-2.71 2.74,-5.26 4.73,-7.45c2.3,-2.11 4.8,-4.03 7.35,-5.78c-1.55,2.95 -1.71,4.87 -1.73,6.4c-0.03,2.29 1.02,2.8 1.93,1.87c0.54,-0.56 0.56,-1.83 0.01,-3.11c-0.64,-1.52 -0.62,-3.1 -0.18,-5.18c1.58,-1.09 3.18,-2.12 4.79,-3.04c0.24,-0.14 0.5,-0.27 0.75,-0.41c-1.63,3.2 -1.72,5.35 -1.65,7.07c0.09,2.63 1.4,3.28 2.46,2.26c0.63,-0.61 0.57,-2.07 -0.16,-3.57c-0.86,-1.75 -0.94,-3.52 -0.55,-5.81c1.3,-0.72 2.64,-1.43 4.07,-2.17c0.68,-0.35 1.37,-0.71 2.06,-1.07c-1.85,3.67 -2.02,6.13 -2.01,8.09c0.02,3.05 1.45,3.76 2.67,2.54c0.73,-0.73 0.72,-2.42 -0.05,-4.14c-0.89,-1.96 -0.92,-3.98 -0.45,-6.58c4.17,-2.2 8.45,-4.65 12.12,-8.14c-1.31,2.66 -1.46,4.45 -1.48,5.89c-0.03,2.29 1.02,2.8 1.93,1.87c0.54,-0.56 0.56,-1.83 0.02,-3.11c-0.62,-1.44 -0.62,-2.94 -0.25,-4.86c1.4,-1.37 2.72,-2.89 3.9,-4.61c-1.36,3.23 -1.36,5.56 -1.23,7.48c0.24,3.34 1.99,4.22 3.34,2.97c0.81,-0.75 0.68,-2.6 -0.35,-4.54c-1.15,-2.16 -1.36,-4.32 -1.01,-7.05c2.03,-3.26 3.61,-7.19 4.49,-12.08c0.6,-3.33 0.92,-6.55 0.98,-9.52l0.48,0l0,28.31c0,0.64 0.01,1.35 0.04,2.07c0,0.13 0,0.28 0,0.41c-0.25,6.17 -1.57,16.23 -7.46,18.54c-3.23,1.26 -6.25,1.27 -8.52,0.05c-1.68,-0.91 -2.83,-2.46 -3.23,-4.37c-0.42,-2 0.34,-4.42 1.91,-6.01c1.29,-1.32 2.92,-1.89 4.59,-1.57c1.58,0.3 2.72,1.02 3.39,2.14c0.85,1.42 0.74,3.22 0.46,4.08c-0.23,0.73 -0.75,1.35 -1.37,1.65c-0.53,0.24 -1.09,0.25 -1.67,0.03c-0.06,-0.02 -0.1,-0.05 -0.14,-0.07c0.12,0.03 0.25,0.05 0.38,0.05c0.87,0 1.58,-0.71 1.58,-1.58c0,-0.88 -0.71,-1.59 -1.58,-1.59c-0.12,0 -0.24,0.02 -0.35,0.04c-0.6,0.02 -1.11,0.4 -1.32,1.09c-0.28,0.91 0.06,2.06 1.24,2.52c0.71,0.28 1.43,0.26 2.07,-0.04c0.75,-0.36 1.36,-1.08 1.64,-1.95c0.26,-0.81 0.49,-2.8 -0.51,-4.48c-0.75,-1.26 -2,-2.06 -3.73,-2.38c-1.83,-0.34 -3.63,0.26 -5.04,1.71c-1.67,1.71 -2.49,4.31 -2.04,6.46c0.43,2.06 1.67,3.73 3.49,4.71c1.19,0.64 2.57,0.96 4.07,0.96c1.52,0 3.16,-0.33 4.86,-0.99c4.48,-1.75 6.45,-7.52 7.27,-13.22c0,6.26 0.01,14.16 0.02,21.61c0,0.39 -0.01,0.77 -0.01,1.15c-0.01,10.95 -0.01,21.34 0,24.55c-0.77,0.1 -1.37,0.75 -1.37,1.56c0,0.87 0.71,1.58 1.58,1.58c0.02,0 0.03,-0.01 0.05,-0.01c0.01,0 0.02,0.01 0.04,0.01c0.87,0 1.58,-0.71 1.58,-1.58c0,-0.81 -0.6,-1.46 -1.37,-1.56c0.01,-3.21 0.01,-13.6 0,-24.55c0,-0.38 0,-0.76 0,-1.15c0,-7.45 0.01,-15.35 0.01,-21.61c0.82,5.7 2.79,11.47 7.27,13.22c1.7,0.66 3.34,0.99 4.86,0.99c1.5,0 2.88,-0.32 4.07,-0.96c1.82,-0.98 3.06,-2.65 3.49,-4.71c0.45,-2.15 -0.37,-4.75 -2.04,-6.46c-1.41,-1.45 -3.21,-2.05 -5.04,-1.71c-1.73,0.32 -2.98,1.12 -3.73,2.38c-1,1.68 -0.77,3.67 -0.51,4.48c0.28,0.87 0.89,1.59 1.64,1.95c0.64,0.3 1.36,0.32 2.07,0.04c1.18,-0.46 1.52,-1.61 1.24,-2.52c-0.21,-0.69 -0.72,-1.07 -1.32,-1.09c-0.11,-0.02 -0.23,-0.04 -0.35,-0.04c-0.87,0 -1.58,0.71 -1.58,1.59c0,0.87 0.71,1.58 1.58,1.58c0.13,0 0.26,-0.02 0.38,-0.05c-0.04,0.02 -0.08,0.05 -0.14,0.07c-0.58,0.22 -1.14,0.21 -1.67,-0.03c-0.62,-0.3 -1.14,-0.92 -1.37,-1.65c-0.28,-0.86 -0.39,-2.66 0.46,-4.08c0.67,-1.12 1.81,-1.84 3.39,-2.14c1.67,-0.32 3.3,0.25 4.59,1.57c1.57,1.59 2.33,4.01 1.91,6.01c-0.4,1.91 -1.55,3.46 -3.23,4.37c-2.27,1.22 -5.29,1.21 -8.52,-0.05c-5.89,-2.31 -7.21,-12.37 -7.46,-18.54c0,-0.13 0,-0.28 0,-0.41c0.03,-0.72 0.04,-1.43 0.04,-2.07l0,-28.31l0.48,0c0.06,2.97 0.38,6.19 0.98,9.52c0.88,4.89 2.46,8.82 4.49,12.08c0.35,2.73 0.14,4.89 -1.01,7.05c-1.03,1.94 -1.16,3.79 -0.35,4.54c1.35,1.25 3.1,0.37 3.34,-2.97c0.13,-1.92 0.13,-4.25 -1.23,-7.48c1.18,1.72 2.5,3.24 3.9,4.61c0.37,1.92 0.37,3.42 -0.25,4.86c-0.54,1.28 -0.52,2.55 0.02,3.11c0.91,0.93 1.96,0.42 1.93,-1.87c-0.02,-1.44 -0.17,-3.23 -1.48,-5.89c3.67,3.49 7.95,5.94 12.12,8.14c0.47,2.6 0.44,4.62 -0.45,6.58c-0.77,1.72 -0.78,3.41 -0.05,4.14c1.22,1.22 2.65,0.51 2.67,-2.54c0.01,-1.96 -0.16,-4.42 -2.01,-8.09c0.69,0.36 1.38,0.72 2.06,1.07c1.43,0.74 2.77,1.45 4.07,2.17c0.39,2.29 0.31,4.06 -0.55,5.81c-0.73,1.5 -0.79,2.96 -0.16,3.57c1.06,1.02 2.37,0.37 2.46,-2.26c0.07,-1.72 -0.02,-3.87 -1.65,-7.07c0.25,0.14 0.51,0.27 0.75,0.41c1.61,0.92 3.21,1.95 4.79,3.04c0.44,2.08 0.46,3.66 -0.18,5.18c-0.55,1.28 -0.53,2.55 0.01,3.11c0.91,0.93 1.96,0.42 1.93,-1.87c-0.02,-1.53 -0.17,-3.45 -1.73,-6.4c2.55,1.75 5.05,3.67 7.35,5.78c1.99,2.19 3.56,4.74 4.73,7.45c-1.16,0.19 -1.56,0.05 -2.5,0.81c-0.92,0.73 -0.97,1.71 -1.48,2.91c0.58,-0.21 0.86,0.08 1.25,-0.44c-0.46,0.83 0,0.97 -0.11,1.9c0.48,-0.39 1.16,-0.46 1.46,-1.02c0.26,0.65 0.52,0.68 1.29,1.21c0.36,-1.02 0.15,-1.59 -0.39,-2.81c-0.31,-0.68 0.01,-1.29 0.63,-2.18c1.25,3.02 2,6.2 2.25,9.25c-1.39,0.55 -2.26,0.81 -3.05,0.15c-1.31,-1.1 -1.94,-1.55 -3.25,-1.45c0.43,1.13 0.39,1.47 1.11,2.01c-0.75,0.18 -1.01,1 -1.61,1.47c1.15,0.18 1.19,0.8 2.3,0.51c-0.72,0.31 -0.44,0.75 -0.85,1.4c1.57,-0.21 2.75,0.06 3.87,-0.83c1.07,-0.85 1.09,-1.38 1.52,-2.57c0.13,2.28 -0.03,4.46 -0.46,6.44c-1.68,-0.82 -5.02,-0.07 -6.31,0.67c0,0 0.47,1.24 1.71,1.07c-1.55,0.5 -1.91,1.16 -1.74,2.66c0.66,-0.99 1.39,-1.42 2.06,-1.58c0.36,0.77 0.8,1.12 2.71,0.49c-1.41,-0.18 -0.93,-0.85 -0.51,-1.52c0.34,-0.57 0.85,-0.98 2.04,-1.58c-0.31,1.35 -0.74,2.6 -1.31,3.69c-0.88,1.68 -2.57,3.14 -4.61,4.1c-1.37,-0.67 -2.18,-1.12 -2.32,-1.98c-0.22,-1.45 -0.37,-2.1 -1.39,-2.94c-0.45,0.86 -0.7,1.01 -0.54,1.77c-0.66,-0.42 -1.41,-0.18 -2.16,-0.35c0.71,0.87 0.33,1.2 1.34,1.81c-0.74,-0.33 -0.83,0.08 -1.56,0.13c1.28,0.95 1.96,1.89 3.37,2.2c0.48,0.11 0.84,0.14 1.15,0.13c-0.24,0.06 -0.48,0.13 -0.72,0.18c-0.73,0.14 -1.46,0.2 -2.18,0.21c-0.01,-0.01 -0.03,-0.02 -0.05,-0.04c0.01,0.02 0.01,0.03 0.01,0.04c-2.47,0.02 -4.84,-0.76 -6.89,-2.28c0.38,-0.08 0.74,-0.23 1.06,-0.5c0.68,-0.59 0.86,-1.51 -0.21,-2.7c-1.07,-1.19 -2.43,-0.71 -3.21,-1.4c-1.94,-1.69 -1.65,-3.64 1.81,-2.68c-1.81,-1.1 -3.59,-0.79 -4.33,0.92c-0.09,0.21 -0.26,0.7 -0.31,1.06l-2.37,-1.08l1.31,2.25c-0.35,0.08 -0.81,0.3 -1.02,0.42c-1.63,0.91 -1.75,2.71 -0.47,4.4c-1.31,-3.34 0.6,-3.83 2.48,-2.08c0.76,0.71 0.43,2.11 1.72,3.05c1.29,0.94 2.19,0.67 2.7,-0.06c0.29,-0.41 0.39,-0.85 0.4,-1.3c0.9,0.69 1.87,1.24 2.88,1.64c-1.04,0.09 -2.17,0.76 -2.59,1.3c0,0 0.61,0.91 1.3,0.65c-0.78,0.54 -0.8,1.09 -0.3,2.23c0.12,-0.83 0.43,-1.24 0.78,-1.43c0.42,0.56 0.77,0.78 1.71,0.1c-0.87,0.01 -0.77,-0.57 -0.71,-1.13c0.05,-0.45 0.23,-0.83 0.74,-1.39c1.11,0.34 2.26,0.53 3.44,0.53c0.05,0 0.1,-0.01 0.15,-0.01c0.18,1.39 0.19,2.26 -0.6,2.85c-1.39,1.01 -1.98,1.51 -2.2,2.81c1.21,-0.14 1.53,-0.03 2.23,-0.6c-0.01,0.77 0.73,1.22 1.04,1.92c0.45,-1.08 1.05,-0.97 1.04,-2.11c0.13,0.77 0.63,0.6 1.16,1.16c0.17,-1.58 0.71,-2.66 0.12,-3.96c-0.57,-1.25 -1.09,-1.39 -2.15,-2.1c0.54,-0.04 1.07,-0.1 1.61,-0.2c1.34,-0.27 2.62,-0.76 3.77,-1.41c-0.27,0.33 -0.45,0.66 -0.59,1.32c-0.23,1.15 0.36,1.94 0.74,3.19c0.31,-0.54 0.71,-0.49 0.68,-1.14c0.17,0.93 0.61,0.74 1.13,1.53c0.12,-0.61 0.6,-1.1 0.46,-1.72c0.62,0.34 0.84,0.19 1.77,0.1c-0.38,-1.01 -0.9,-1.32 -2.11,-1.91c-0.67,-0.33 -0.81,-1.01 -0.91,-2.13c1.23,-0.88 2.22,-1.96 2.84,-3.13c2.71,-5.18 2.54,-13.62 -0.58,-20.99c-0.69,-1.63 -1.51,-3.21 -2.5,-4.69c7.36,7.73 11.91,17.22 8.55,26.89c-3.25,9.39 -10.55,14.2 -20.36,13.65c-0.66,-0.83 -1.03,-1.35 -0.84,-1.92c0.3,-0.95 0.41,-1.39 0.04,-2.19c-0.53,0.4 -0.73,0.42 -0.86,0.93c-0.28,-0.45 -0.8,-0.51 -1.2,-0.83c0.17,0.74 -0.17,0.83 0.26,1.49c-0.35,-0.41 -0.53,-0.19 -0.99,-0.37c0.49,0.95 0.62,1.72 1.38,2.31c0.32,0.25 0.56,0.37 0.79,0.45c-1.08,-0.11 -2.17,-0.27 -3.31,-0.51c-1.2,-0.25 -2.41,-0.59 -3.6,-1c-0.51,-1.47 -0.77,-2.37 -0.06,-3.15c1.15,-1.27 1.63,-1.88 1.58,-3.19c-1.15,0.38 -1.49,0.33 -2.06,1.03c-0.15,-0.76 -0.96,-1.05 -1.4,-1.67c-0.23,1.14 -0.85,1.16 -0.6,2.28c-0.28,-0.73 -0.74,-0.47 -1.37,-0.91c0.16,1.58 -0.16,2.75 0.68,3.9c0.21,0.29 0.4,0.49 0.58,0.66c-1.51,-0.69 -2.95,-1.52 -4.27,-2.46c1.25,-0.94 2.27,-3.07 2.45,-4.17c0,0 -1.11,-0.38 -1.67,0.52c0.51,-1.28 0.25,-1.88 -0.87,-2.6c0.32,0.98 0.21,1.69 -0.04,2.22c-0.72,-0.2 -1.2,-0.1 -1.81,1.49c0.89,-0.82 1.09,-0.13 1.32,0.51c0.16,0.43 0.19,0.87 0.08,1.61c-1.28,-0.98 -2.42,-2.08 -3.37,-3.3c0.03,-0.02 0.05,-0.03 0.07,-0.05c-0.04,-0.01 -0.08,-0.01 -0.12,-0.02c-0.35,-0.46 -0.67,-0.93 -0.96,-1.41c0.62,-0.98 1.04,-1.55 1.73,-1.57c1.17,-0.04 1.71,-0.1 2.46,-0.83c-0.65,-0.44 -0.75,-0.65 -1.37,-0.6c0.39,-0.48 0.26,-1.1 0.46,-1.67c-0.76,0.48 -0.99,0.15 -1.56,0.88c0.33,-0.55 0,-0.66 0.02,-1.25c-0.87,0.93 -1.68,1.39 -2.04,2.47c-0.3,0.89 -0.22,1.25 -0.09,1.89c-0.92,-1.72 -1.47,-3.63 -1.52,-5.71c-0.01,-0.49 -0.01,-0.94 0,-1.39c1.1,1.28 3.47,1.58 4.56,1.25c0,0 0.07,-1.59 -0.89,-1.87c1.29,0.02 1.77,-0.61 2.16,-2.39c-0.82,0.89 -1.49,1.1 -2.03,1.03c0,-1.01 -0.21,-1.57 -1.8,-1.58c0.97,0.74 0.39,1.33 -0.13,1.94c-0.42,0.49 -0.89,0.77 -1.85,1c0.27,-7.1 3.11,-9.94 7.88,-11.73c-0.13,0.39 -0.18,0.82 -0.1,1.27c0.19,0.99 0.99,1.69 2.72,1.33c1.73,-0.35 2.02,-1.95 3.11,-2.32c2.7,-0.92 4.41,0.48 1.58,3.29c2.06,-1.14 2.74,-3.04 1.5,-4.73c-0.16,-0.21 -0.53,-0.65 -0.85,-0.91l2.34,-1.69l-2.88,0c0.11,-0.4 0.15,-0.97 0.16,-1.23c0.01,-2.1 -1.65,-3.25 -3.98,-2.97c3.94,0.63 3.36,2.77 0.63,3.59c-1.1,0.34 -2.27,-0.78 -3.88,-0.06c-1.62,0.72 -1.85,1.75 -1.42,2.66c0.16,0.35 0.39,0.63 0.66,0.85c-2.4,0.91 -4.36,2.1 -5.8,3.91c-0.11,-1.16 -0.06,-1.91 0.5,-2.41c1.1,-0.95 1.57,-1.43 1.73,-2.74c-0.96,0.08 -1.22,-0.06 -1.78,0.48c0,-0.78 -0.6,-1.28 -0.85,-2.01c-0.36,1.07 -0.85,0.93 -0.82,2.1c-0.11,-0.8 -0.52,-0.66 -0.95,-1.25c-0.12,1.6 -0.55,2.68 -0.05,4.03c0.48,1.35 0.91,1.49 1.82,2.34c-0.48,0.7 -0.89,1.49 -1.23,2.38c-0.06,-0.64 -0.21,-1.23 -0.42,-1.61c0,0 -1.57,0.26 -1.65,1.25c-0.25,-1.26 -0.95,-1.61 -2.78,-1.61c1.04,0.61 1.39,1.23 1.43,1.77c-1,0.2 -1.5,0.52 -1.18,2.08c0.52,-1.1 1.22,-0.65 1.93,-0.26c0.63,0.34 1.02,0.81 1.51,1.96c0.14,-0.11 0.24,-0.24 0.35,-0.36c-0.16,1.04 -0.24,2.2 -0.25,3.47c-0.11,-0.3 -0.29,-0.59 -0.64,-0.97c-0.79,-0.87 -1.77,-0.86 -3.01,-1.28c0.26,0.56 -0.02,0.86 0.52,1.22c-0.85,-0.41 -0.96,0.06 -1.9,0.01c0.43,0.46 0.54,1.13 1.12,1.39c-0.64,0.3 -0.65,0.56 -1.12,1.37c1.04,0.29 1.59,0.04 2.78,-0.58c0.67,-0.36 1.32,-0.06 2.3,0.54c0.16,2.6 0.98,4.88 2.27,6.87c-1.15,-0.32 -1.88,-0.73 -2.17,-1.64c-0.63,-2.01 -0.98,-2.89 -2.43,-3.69c-0.34,1.44 -0.61,1.75 -0.23,2.79c-0.91,-0.34 -1.76,0.31 -2.72,0.37c1.08,0.97 0.7,1.61 2.08,2.08c-0.98,-0.18 -0.99,0.46 -1.88,0.82c1.82,0.86 2.88,1.94 4.68,1.81c1.72,-0.12 2.12,-0.63 3.38,-1.52c0.9,1.17 1.94,2.23 3.11,3.17c-1.21,-0.38 -1.59,-0.69 -3.03,-0.42c-1.48,0.28 -2.19,1.27 -3.54,2.25c0.76,0.08 0.86,0.53 1.63,0.2c-1.05,0.62 -0.65,1 -1.4,1.91c0.78,-0.15 1.56,0.13 2.26,-0.29c-0.17,0.82 0.09,0.98 0.56,1.93c1.08,-0.86 1.24,-1.56 1.47,-3.12c0.15,-0.94 1.03,-1.41 2.53,-2.1c1.43,1.09 3.01,2.02 4.65,2.79c-1.61,-0.68 -3.76,0.46 -4.41,1.39c0,0 0.87,1.34 1.74,1.03c-0.96,0.7 -0.95,1.48 -0.2,3.13c0.09,-1.17 0.46,-1.72 0.9,-1.96c0.59,0.82 1.07,1.16 2.25,0.28c-1.14,-0.06 -1.06,-0.86 -1.03,-1.65c0.03,-0.7 0.25,-1.23 1,-2.1c2.18,1 4.45,1.73 6.63,2.19c2.26,0.48 4.43,0.72 6.48,0.72c3.72,0 7.05,-0.79 9.93,-2.29c0.61,1.76 3.1,3.7 4.4,4.21c0,0 0.68,-1.14 -0.23,-2.01c1.36,0.9 2.1,0.77 3.17,-0.3c-1.19,0.1 -1.99,-0.2 -2.53,-0.62c0.38,-0.76 0.37,-1.32 -1.31,-2.42c0.74,1.21 -0.09,1.26 -0.87,1.35c-0.59,0.08 -1.17,-0.02 -2.17,-0.46c4.24,-2.36 7.47,-6.35 9.37,-11.84c4.66,-13.43 -5.2,-26.44 -17.08,-35.16c2.47,0.81 4.95,1.06 7.52,1.3c1.44,0.14 2.95,0.29 4.54,0.54c0.35,0.96 0.53,1.56 0.18,2.04c-0.58,0.81 -0.81,1.19 -0.72,2.07c0.64,-0.21 0.83,-0.17 1.11,-0.61c0.13,0.5 0.6,0.73 0.89,1.15c0.07,-0.75 0.41,-0.74 0.21,-1.49c0.2,0.5 0.45,0.34 0.82,0.65c-0.17,-1.05 -0.05,-1.82 -0.59,-2.61c-0.48,-0.72 -0.78,-0.8 -1.38,-1.1c0.43,0.07 0.86,0.15 1.31,0.24c0,0 0,0.01 -0.01,0.01c0.01,0 0.01,0 0.02,-0.01c1.37,0.29 2.81,0.69 4.31,1.24c-0.8,0.75 -1.19,0.89 -1.53,2.01c-0.35,1.13 0.16,1.97 0.43,3.24c0.35,-0.5 0.75,-0.41 0.78,-1.06c0.09,0.94 0.54,0.79 0.98,1.63c0.17,-0.6 0.7,-1.04 0.62,-1.67c0.59,0.39 0.82,0.27 1.75,0.27c-0.27,-1.05 -0.77,-1.4 -1.91,-2.1c-0.64,-0.39 -0.72,-1.07 -0.7,-2.17c1.3,0.5 2.65,1.12 4.06,1.9c0.7,0.38 1.35,0.81 1.95,1.28c-0.09,1 -0.28,1.51 -0.66,2c-0.48,0.61 -0.93,1.27 -1.68,0.42c0.18,1.58 0.69,1.7 1.57,1.56c0.12,0.52 0.01,1.22 -0.68,2.16c1.51,-0.64 2,-1.21 1.85,-2.49c0.34,0.92 1.72,0.61 1.72,0.61c0.1,-0.66 -0.04,-1.74 -0.42,-2.7c1.37,1.51 2.4,3.32 3.09,5.44c-1.96,-0.18 -4.68,1.71 -5.54,2.9c0,0 1.01,1.15 2.12,0.55c-1.25,1.05 -1.28,1.87 -0.44,3.4c0.18,-1.27 0.68,-1.98 1.24,-2.37c0.69,0.69 1.27,0.9 2.79,-0.41c-1.42,0.3 -1.27,-0.58 -1.18,-1.43c0.06,-0.7 0.34,-1.29 1.14,-2.27c0.11,0.36 0.2,0.74 0.29,1.12c0,0 0,0.01 -0.01,0.01c0.01,0 0.01,0 0.02,0c0.45,1.92 0.65,4.05 0.6,6.4c-1.19,1.14 -1.94,1.8 -2.82,1.61c-1.44,-0.3 -2.1,-0.39 -3.24,0.27c0.64,0.73 0.69,1.01 1.46,1.13c-0.63,0.47 -0.67,1.25 -1.09,1.89c1.07,-0.35 1.25,0.12 2.17,-0.6c-0.57,0.57 -0.22,0.8 -0.43,1.5c1.34,-0.86 2.46,-1.17 3.25,-2.38c0.38,-0.59 0.54,-0.99 0.62,-1.39c-0.23,4.04 -0.65,7.52 -1.64,10.62c-0.21,-0.39 -0.51,-0.74 -0.95,-0.98c-0.82,-0.47 -1.79,-0.36 -2.56,1.01c-0.77,1.37 0.2,2.51 -0.19,3.46c-0.94,2.34 -2.95,2.66 -3.27,-0.91c-0.41,2.05 0.54,3.64 2.48,3.82c0.24,0.03 0.77,0.04 1.15,-0.02l-0.19,2.56l1.71,-1.92c0.22,0.31 0.6,0.68 0.79,0.84c1.48,1.27 3.28,0.84 4.46,-0.88c-2.77,2.25 -3.95,0.59 -2.93,-1.72c0.41,-0.93 1.91,-1.04 2.35,-2.55c0.44,-1.5 -0.15,-2.28 -1.06,-2.54c-0.46,-0.13 -0.91,-0.11 -1.32,0c0.6,-1.86 1,-3.83 1.26,-5.98c0.17,1.27 0.66,2.6 1.11,3.25c0,0 1.06,-0.49 0.84,-1.53c0.52,1.28 1.12,1.53 2.43,1.29c-0.91,-0.49 -1.32,-1.08 -1.5,-1.64c0.66,-0.35 0.94,-0.76 0.29,-2.33c-0.08,1.21 -0.7,0.85 -1.31,0.55c-0.55,-0.28 -0.95,-0.7 -1.62,-1.83c0,0.01 0,0.03 -0.01,0.04c0.09,-1.02 0.15,-2.09 0.21,-3.19c0,0.02 0.01,0.03 0.01,0.04c0.4,1.08 1.27,1.46 2.2,2.32c-0.03,-0.6 0.32,-0.75 -0.04,-1.28c0.61,0.7 0.86,0.34 1.67,0.75c-0.22,-0.57 -0.09,-1.21 -0.51,-1.66c0.67,-0.01 0.77,-0.24 1.45,-0.75c-0.81,-0.67 -1.38,-0.68 -2.63,-0.6c-0.81,0.05 -1.29,-0.62 -2.1,-1.77l0,0.01c-0.05,-1.73 -0.23,-3.34 -0.56,-4.83c1.38,0.22 2.21,0.44 2.55,1.37c0.6,1.61 0.91,2.32 2.09,2.89c0.2,-1.2 0.4,-1.48 0.05,-2.3c0.73,0.22 1.37,-0.37 2.13,-0.47c-0.91,-0.74 -0.64,-1.29 -1.74,-1.59c0.78,0.09 0.76,-0.44 1.44,-0.79c-1.47,-0.6 -2.36,-1.42 -3.77,-1.21c-1.46,0.21 -1.67,0.72 -2.86,1.68c-0.64,-2.58 -1.74,-4.76 -3.27,-6.55c1.61,0.41 2.56,0.69 2.87,1.54c0.5,1.38 0.78,1.99 1.94,2.61c0.28,-0.93 0.5,-1.13 0.19,-1.84c0.73,0.28 1.41,-0.1 2.18,-0.08c-0.87,-0.71 -0.56,-1.12 -1.66,-1.52c0.78,0.19 0.8,-0.24 1.5,-0.43c-1.44,-0.68 -2.29,-1.47 -3.74,-1.5c-1.63,-0.03 -1.77,0.43 -3.36,1.12c-1.11,-1.28 -2.44,-2.36 -4,-3.23c-0.45,-0.25 -0.89,-0.47 -1.33,-0.69c1.15,-0.43 1.79,-0.48 2.49,-0.3c0.84,0.22 1.71,0.38 1.2,1.58c1.51,-0.94 1.4,-1.54 0.84,-2.41c0.48,-0.37 1.24,-0.58 2.5,-0.3c-1.34,-1.3 -2.14,-1.55 -3.37,-0.78c0.76,-0.8 -0.18,-2.12 -0.18,-2.12c-1.33,0.39 -3.7,2.31 -3.71,4.22c-0.94,-0.46 -1.86,-0.86 -2.74,-1.19c0,-0.02 0,-0.03 0,-0.04c-0.01,0.01 -0.02,0.02 -0.03,0.03c-1.46,-0.55 -2.85,-0.95 -4.19,-1.25c1.1,-0.83 1.83,-1.28 2.61,-1.02c1.39,0.45 2.04,0.61 3.25,0.07c-0.57,-0.79 -0.59,-1.08 -1.34,-1.28c0.67,-0.4 0.79,-1.17 1.28,-1.77c-1.09,0.25 -1.22,-0.24 -2.21,0.38c0.62,-0.51 0.29,-0.78 0.58,-1.45c-1.43,0.72 -2.57,0.91 -3.48,2.02c-0.95,1.17 -0.8,1.6 -1.1,2.96c-1.61,-0.34 -3.14,-0.54 -4.59,-0.7c0.15,-0.06 0.31,-0.12 0.49,-0.22c1.02,-0.54 1.28,-1.45 2.01,-2.49c-0.59,0.11 -0.78,-0.21 -1.26,0.21c0.61,-0.7 0.22,-0.9 0.52,-1.75c-0.53,0.29 -1.18,0.24 -1.58,0.72c-0.09,-0.66 -0.33,-0.73 -0.93,-1.34c-0.56,0.89 -0.49,1.46 -0.25,2.69c0.14,0.69 -0.31,1.21 -1.11,1.97c-3.19,-0.31 -6.08,-0.62 -8.97,-1.96c-1.7,-1.18 -3.43,-2.27 -5.15,-3.25c-1.57,-0.9 -3.22,-1.76 -4.96,-2.66c-1.43,-0.74 -2.89,-1.49 -4.34,-2.3c5.83,2.28 12.7,3.71 17.53,3.71c0.64,0 1.23,-0.02 1.79,-0.07c2.75,-0.25 6.42,-0.98 10.09,-2.34c4.76,3.22 8.21,3.53 11.01,3.56c4.16,0.05 5.55,-2.08 4.25,-3.92c-0.78,-1.1 -3.08,-1.13 -5.65,-0.03c-3.09,1.33 -5.96,1.28 -9.6,0.38c2.5,-0.93 5,-2.16 7.2,-3.73c4.39,0.49 6.9,-0.46 8.86,-1.38c2.97,-1.4 3.18,-3.35 1.58,-4.16c-0.96,-0.5 -2.61,0.28 -4.02,1.93c-1.62,1.87 -3.56,2.83 -6.23,3.47c3.56,-2.61 6.32,-6.14 6.99,-10.83c0.7,-4.93 -0.43,-9.42 -3.19,-12.64c-2.26,-2.63 -5.36,-4.11 -8.72,-4.14c-0.05,0 -0.09,0 -0.14,0c-3.57,0 -6.74,1.65 -8.49,4.43c-1.78,2.83 -1.85,6.39 -0.18,9.76c1.75,3.54 4.73,5.51 8.26,5.45c3,-0.07 5.72,-1.73 6.77,-4.13c0.84,-1.9 0.87,-4.15 0.09,-5.99c-0.7,-1.65 -1.99,-2.86 -3.73,-3.51c-2.15,-0.8 -4.31,-0.33 -5.49,1.19c-1.08,1.39 -1.03,3.3 0.1,5.03c0.42,0.85 1.29,1.43 2.3,1.43c1.43,0 2.59,-1.15 2.59,-2.58c0,-1.43 -1.16,-2.58 -2.59,-2.58c-1.25,0 -2.29,0.89 -2.53,2.07c-0.31,-1.11 -0.15,-2.19 0.52,-3.06c1.05,-1.35 2.98,-1.76 4.93,-1.03c1.61,0.6 2.8,1.72 3.44,3.23c0.72,1.7 0.68,3.84 -0.09,5.6c-0.97,2.23 -3.51,3.76 -6.32,3.83c-0.06,0 -0.13,0 -0.19,0c-3.22,0 -5.99,-1.87 -7.62,-5.17c-1.58,-3.21 -1.52,-6.59 0.17,-9.28c1.68,-2.66 4.73,-4.26 8.19,-4.19c3.22,0.03 6.18,1.44 8.35,3.97c2.66,3.11 3.76,7.46 3.07,12.24c-1.24,8.69 -9.89,13.32 -17.34,15.37c2.85,-1.46 3.95,-3.21 4.72,-4.7c1.17,-2.29 0.41,-3.83 -0.94,-3.77c-0.81,0.04 -1.47,1.31 -1.58,3.13c-0.13,2.16 -0.93,3.72 -2.38,5.39c-2.4,0.65 -4.66,1.03 -6.5,1.2c-0.96,0.09 -2.04,0.09 -3.21,0.03c4.23,-1.89 6.05,-4.01 7.38,-5.82c2.05,-2.77 1.24,-4.53 -0.67,-4.38c-1.14,0.09 -2.27,1.62 -2.75,3.78c-0.55,2.52 -1.91,4.39 -4.16,6.41c-3.28,-0.2 -7.23,-0.93 -11.08,-2.06c5.19,-0.27 8,-1.92 10.19,-3.43c3.42,-2.36 3.32,-4.9 1.2,-5.65c-1.28,-0.46 -3.18,0.86 -4.63,3.25c-1.68,2.75 -3.94,4.36 -7.21,5.7c-2.06,-0.62 -4.07,-1.36 -5.94,-2.17c4.8,-0.37 7.48,-1.95 9.58,-3.4c3.42,-2.36 3.32,-4.9 1.19,-5.65c-1.27,-0.45 -3.17,0.86 -4.62,3.25c-1.6,2.63 -3.74,4.21 -6.78,5.52c-0.55,-0.26 -1.08,-0.52 -1.6,-0.78c-1.26,-0.81 -2.5,-1.69 -3.7,-2.65c4.61,-0.23 7.11,-1.61 9.05,-2.87c3.05,-1.98 2.96,-4.11 1.07,-4.74c-1.14,-0.38 -2.83,0.72 -4.12,2.72c-1.46,2.26 -3.43,3.59 -6.24,4.7c-1.3,-1.07 -2.56,-2.24 -3.72,-3.54c3.81,-0.19 5.91,-1.22 7.53,-2.17c2.55,-1.51 2.48,-3.12 0.89,-3.6c-0.95,-0.29 -2.36,0.55 -3.45,2.07c-1.2,1.69 -2.82,2.7 -5.12,3.53c-3.34,-3.79 -5.97,-8.71 -7.19,-15.51c-0.22,-1.23 -0.42,-2.54 -0.57,-3.88c0.96,2.02 2.58,3.83 4.77,5.26c-0.21,-0.11 -0.44,-0.23 -0.71,-0.4c0.4,1.39 0.64,2.2 0.04,2.83c-0.92,0.97 -1.31,1.44 -1.31,2.52c0.91,-0.24 1.16,-0.18 1.62,-0.71c0.1,0.62 0.72,0.92 1.04,1.45c0.21,-0.92 0.68,-0.9 0.52,-1.83c0.2,0.62 0.56,0.43 1.04,0.83c-0.08,-1.3 0.19,-2.25 -0.43,-3.24c-0.19,-0.32 -0.37,-0.53 -0.55,-0.7c0.45,0.25 0.92,0.48 1.41,0.7c0.9,0.39 1.88,0.73 2.9,1c0.61,1.33 0.96,2.12 0.45,2.85c-0.8,1.15 -1.12,1.69 -0.95,2.82c0.89,-0.39 1.16,-0.36 1.55,-0.99c0.2,0.64 0.88,0.85 1.3,1.36c0.07,-0.99 0.57,-1.03 0.26,-1.98c0.3,0.61 0.64,0.37 1.19,0.71c-0.28,-1.34 -0.14,-2.36 -0.94,-3.31c-0.84,-0.99 -1.28,-0.91 -2.5,-1.38c1.53,0.37 3.16,0.58 4.81,0.58c0.11,0 0.23,-0.01 0.34,-0.01c-0.07,0.02 -0.16,0.02 -0.23,0.05c1.25,0.9 1.71,1.41 1.97,2.07c0.29,0.73 0.66,1.48 -0.76,1.42c1.77,0.94 2.27,0.68 2.75,-0.02c0.63,0.27 1.28,0.82 1.76,1.91c0.42,-1.45 0.18,-2.17 -1.26,-2.92c1.2,0.37 1.87,-0.77 1.87,-0.77c-0.86,-0.71 -2.88,-1.64 -4.59,-1.83c1.32,-0.13 2.62,-0.41 3.87,-0.84c-0.02,0.01 -0.04,0.01 -0.05,0.03c1.02,0.44 1.42,0.74 1.71,1.17c0.32,0.5 0.7,0.99 -0.32,1.19c1.4,0.38 1.71,0.1 1.94,-0.51c0.49,0.09 1.03,0.38 1.54,1.11c0.07,-1.15 -0.2,-1.64 -1.34,-1.94c0.9,0.07 1.2,-0.9 1.2,-0.9c-0.77,-0.4 -2.52,-0.75 -3.79,-0.49c1.17,-0.49 2.29,-1.13 3.31,-1.96c-0.02,0.36 0.03,0.72 0.19,1.1c0.35,0.8 1.09,1.28 2.33,0.77c1.23,-0.52 1.13,-1.87 1.88,-2.32c1.85,-1.1 3.43,-0.15 1.86,2.52c1.33,-1.19 1.46,-2.85 0.18,-4.1c-0.17,-0.16 -0.53,-0.47 -0.83,-0.64l1.43,-1.69l-2.19,0.35c0.01,-0.34 -0.07,-0.82 -0.13,-1.04c-0.41,-1.74 -1.9,-2.48 -3.61,-1.95c3.11,0.02 3.11,1.86 1.21,2.89c-0.76,0.42 -1.88,-0.37 -2.95,0.43c-1.08,0.8 -1.04,1.68 -0.54,2.39c0.26,0.35 0.57,0.59 0.9,0.75c-1.41,1.15 -3,1.96 -4.68,2.47c1,-0.48 1.31,-0.36 1.9,-1.13c0.52,-0.67 0.38,-1.36 0.52,-2.29c-0.37,0.25 -0.62,0.09 -0.8,0.52c0.17,-0.66 -0.17,-0.67 -0.26,-1.35c-0.27,0.36 -0.74,0.53 -0.85,0.97c-0.29,-0.41 -0.48,-0.39 -1.12,-0.62c-0.07,0.77 0.18,1.13 0.78,1.9c0.39,0.49 0.17,1.05 -0.21,2.01c-1.09,0.33 -2.21,0.53 -3.34,0.63c0.06,-0.02 0.11,-0.04 0.17,-0.06c1.08,-0.47 1.38,-1.41 2.18,-2.44c-0.61,0.06 -0.81,-0.3 -1.32,0.1c0.66,-0.68 0.26,-0.93 0.61,-1.8c-0.58,0.25 -1.25,0.14 -1.68,0.61c-0.08,-0.7 -0.33,-0.8 -0.94,-1.5c-0.61,0.89 -0.55,1.49 -0.34,2.81c0.13,0.86 -0.51,1.4 -1.62,2.3c-1.52,-0.11 -3.01,-0.38 -4.38,-0.79c1.16,0.08 2.29,-0.01 2.96,-0.21c0,0 -0.16,-1.32 -1.41,-1.44c1.62,-0.13 2.12,-0.69 2.31,-2.19c-0.88,0.81 -1.69,1.06 -2.38,1.06c-0.16,-0.83 -0.52,-1.27 -2.52,-1.1c1.34,0.5 0.71,1.04 0.15,1.6c-0.45,0.45 -1.01,0.73 -2.21,1.03c-0.87,-0.45 -1.67,-0.94 -2.39,-1.49c0.16,0.07 0.34,0.14 0.57,0.19c1.14,0.3 1.95,-0.25 3.22,-0.57c-0.52,-0.33 -0.45,-0.73 -1.1,-0.73c0.93,-0.13 0.77,-0.58 1.59,-1.05c-0.61,-0.15 -1.08,-0.66 -1.71,-0.56c0.38,-0.6 0.24,-0.82 0.2,-1.75c-1.03,0.32 -1.36,0.83 -2.01,2c-0.41,0.74 -1.23,0.78 -2.6,0.81c-1.41,-1.53 -2.34,-3.3 -2.7,-5.2c-0.06,-0.95 -0.11,-1.91 -0.12,-2.87c0.58,-0.17 1.01,-0.7 1.01,-1.34c0,-0.63 -0.42,-1.15 -0.99,-1.33c0.14,-3.52 0.7,-6.83 1.92,-9.32c1.97,-4.05 4.99,-5.05 7.16,-4.64c1.8,0.34 3.12,1.8 3.22,3.54c0.05,0.95 -0.48,1.95 -1.37,2.55c-0.79,0.54 -1.74,0.63 -2.63,0.31c0.96,-0.04 1.72,-0.8 1.72,-1.74c0,-0.97 -0.81,-1.75 -1.81,-1.75c-0.33,0 -0.64,0.09 -0.91,0.25c-0.13,0.03 -0.26,0.09 -0.38,0.17c-0.55,0.35 -0.87,1.06 -0.83,1.81c0.06,0.9 0.61,1.65 1.5,2.07c1.3,0.61 2.72,0.5 3.9,-0.29c1.17,-0.79 1.88,-2.14 1.81,-3.44c-0.12,-2.2 -1.78,-4.03 -4.03,-4.46c-2.54,-0.48 -6.03,0.63 -8.25,5.19c-1.19,2.42 -1.87,5.77 -2.03,9.68l-0.52,0l0,-15.52c0.79,-0.1 1.41,-0.77 1.41,-1.6c0,-0.89 -0.72,-1.62 -1.62,-1.62c-0.03,0 -0.06,0 -0.08,0.01c-0.03,-0.01 -0.06,-0.01 -0.09,-0.01c-0.9,0 -1.62,0.73 -1.62,1.62c0,0.83 0.62,1.5 1.41,1.6l0,15.52l-0.52,0c-0.16,-3.91 -0.84,-7.26 -2.03,-9.68c-2.22,-4.56 -5.71,-5.67 -8.25,-5.19c-2.25,0.43 -3.91,2.26 -4.03,4.46c-0.07,1.3 0.64,2.65 1.81,3.44c1.18,0.79 2.6,0.9 3.9,0.29c0.89,-0.42 1.44,-1.17 1.5,-2.07c0.04,-0.75 -0.28,-1.46 -0.83,-1.81c-0.12,-0.08 -0.25,-0.14 -0.38,-0.17c-0.27,-0.16 -0.58,-0.25 -0.91,-0.25c-1,0 -1.81,0.78 -1.81,1.75c0,0.94 0.76,1.7 1.72,1.74c-0.89,0.32 -1.84,0.23 -2.63,-0.31c-0.89,-0.6 -1.42,-1.6 -1.37,-2.55c0.1,-1.74 1.42,-3.2 3.22,-3.54c2.17,-0.41 5.19,0.59 7.16,4.64c1.22,2.49 1.78,5.8 1.92,9.32c-0.57,0.18 -0.99,0.7 -0.99,1.33c0,0.64 0.43,1.17 1.01,1.34c-0.01,0.96 -0.06,1.92 -0.12,2.87c-0.36,1.9 -1.29,3.67 -2.7,5.2c-1.37,-0.03 -2.19,-0.07 -2.6,-0.81c-0.65,-1.17 -0.98,-1.68 -2.01,-2c-0.04,0.93 -0.18,1.15 0.2,1.75c-0.63,-0.1 -1.1,0.41 -1.71,0.56c0.82,0.47 0.66,0.92 1.59,1.05c-0.65,0 -0.58,0.4 -1.1,0.73c1.27,0.32 2.08,0.87 3.22,0.57c0.23,-0.05 0.41,-0.12 0.57,-0.19c-0.72,0.55 -1.52,1.04 -2.39,1.49c-1.2,-0.3 -1.76,-0.58 -2.21,-1.03c-0.56,-0.56 -1.19,-1.1 0.15,-1.6c-2,-0.17 -2.36,0.27 -2.52,1.1c-0.69,0 -1.5,-0.25 -2.38,-1.06c0.19,1.5 0.69,2.06 2.32,2.19c-1.25,0.12 -1.42,1.44 -1.42,1.44c0.67,0.2 1.8,0.29 2.96,0.21c-1.37,0.41 -2.86,0.68 -4.38,0.79c-1.11,-0.9 -1.75,-1.44 -1.62,-2.3c0.21,-1.32 0.27,-1.92 -0.34,-2.81c-0.61,0.7 -0.86,0.8 -0.94,1.5c-0.43,-0.47 -1.1,-0.36 -1.68,-0.61c0.35,0.87 -0.05,1.12 0.61,1.8c-0.51,-0.4 -0.71,-0.04 -1.32,-0.1c0.8,1.03 1.1,1.97 2.18,2.44c0.06,0.02 0.11,0.04 0.17,0.06c-1.13,-0.1 -2.25,-0.3 -3.34,-0.63c-0.38,-0.96 -0.6,-1.52 -0.21,-2.01c0.6,-0.77 0.85,-1.13 0.78,-1.9c-0.64,0.23 -0.83,0.21 -1.12,0.62c-0.11,-0.44 -0.58,-0.61 -0.85,-0.97c-0.09,0.68 -0.43,0.69 -0.26,1.35c-0.18,-0.43 -0.43,-0.27 -0.8,-0.52c0.14,0.93 0,1.62 0.52,2.29c0.59,0.77 0.9,0.65 1.9,1.13c-1.68,-0.51 -3.27,-1.32 -4.68,-2.47c0.34,-0.16 0.64,-0.4 0.9,-0.75c0.5,-0.71 0.54,-1.59 -0.54,-2.39c-1.07,-0.8 -2.19,-0.01 -2.95,-0.43c-1.9,-1.03 -1.9,-2.87 1.21,-2.89c-1.71,-0.53 -3.2,0.21 -3.61,1.95c-0.06,0.22 -0.14,0.7 -0.13,1.04l-2.19,-0.35l1.43,1.69c-0.3,0.17 -0.66,0.48 -0.83,0.64c-1.28,1.25 -1.15,2.91 0.18,4.1c-1.57,-2.67 0.01,-3.62 1.86,-2.52c0.75,0.45 0.65,1.8 1.88,2.32c1.24,0.51 1.98,0.03 2.33,-0.77c0.16,-0.38 0.21,-0.74 0.19,-1.1c1.02,0.83 2.14,1.47 3.31,1.96c-1.27,-0.26 -3.02,0.09 -3.79,0.49c0,0 0.3,0.97 1.2,0.9c-1.14,0.3 -1.41,0.79 -1.34,1.94c0.51,-0.73 1.05,-1.02 1.54,-1.11c0.23,0.61 0.54,0.89 1.94,0.51c-1.02,-0.2 -0.64,-0.69 -0.32,-1.19c0.29,-0.43 0.69,-0.73 1.71,-1.17c-0.01,-0.02 -0.03,-0.02 -0.05,-0.03c1.25,0.43 2.55,0.71 3.87,0.84c-1.71,0.19 -3.73,1.12 -4.59,1.83c0,0 0.67,1.14 1.87,0.77c-1.44,0.75 -1.68,1.47 -1.26,2.92c0.48,-1.09 1.13,-1.64 1.76,-1.91c0.48,0.7 0.98,0.96 2.76,0.02c-1.43,0.06 -1.06,-0.69 -0.77,-1.42c0.26,-0.66 0.72,-1.17 1.97,-2.07c-0.07,-0.03 -0.16,-0.03 -0.23,-0.05c0.11,0 0.23,0.01 0.34,0.01c1.65,0 3.28,-0.21 4.81,-0.58c-1.22,0.47 -1.66,0.39 -2.5,1.38c-0.8,0.95 -0.66,1.97 -0.94,3.31c0.55,-0.34 0.89,-0.1 1.19,-0.71c-0.31,0.95 0.19,0.99 0.26,1.98c0.42,-0.51 1.1,-0.72 1.3,-1.36c0.39,0.63 0.66,0.6 1.55,0.99c0.17,-1.13 -0.15,-1.67 -0.95,-2.82c-0.51,-0.73 -0.16,-1.52 0.45,-2.85c1.02,-0.27 2,-0.61 2.9,-1c0.49,-0.22 0.96,-0.45 1.41,-0.7c-0.18,0.17 -0.36,0.38 -0.55,0.7c-0.62,0.99 -0.35,1.94 -0.43,3.24c0.48,-0.4 0.84,-0.21 1.04,-0.83c-0.16,0.93 0.31,0.91 0.52,1.83c0.32,-0.53 0.94,-0.83 1.04,-1.45c0.46,0.53 0.71,0.47 1.62,0.71c0,-1.08 -0.39,-1.55 -1.31,-2.52c-0.6,-0.63 -0.36,-1.44 0.04,-2.83c-0.27,0.17 -0.5,0.29 -0.71,0.4c2.19,-1.43 3.81,-3.24 4.77,-5.26c-0.15,1.34 -0.35,2.65 -0.57,3.88c-1.22,6.8 -3.85,11.72 -7.19,15.51c-2.3,-0.83 -3.92,-1.84 -5.12,-3.53c-1.09,-1.52 -2.5,-2.36 -3.45,-2.07c-1.59,0.48 -1.66,2.09 0.89,3.6c1.62,0.95 3.72,1.98 7.53,2.17c-1.16,1.3 -2.41,2.47 -3.72,3.54c-2.81,-1.11 -4.78,-2.44 -6.24,-4.7c-1.29,-2 -2.98,-3.1 -4.12,-2.72c-1.89,0.63 -1.98,2.76 1.07,4.74c1.94,1.26 4.44,2.64 9.05,2.87c-1.2,0.96 -2.44,1.84 -3.7,2.65c-0.52,0.26 -1.05,0.52 -1.6,0.78c-3.04,-1.31 -5.18,-2.89 -6.78,-5.52c-1.45,-2.39 -3.35,-3.7 -4.62,-3.25c-2.13,0.75 -2.23,3.29 1.19,5.65c2.1,1.45 4.78,3.03 9.58,3.4c-1.87,0.81 -3.88,1.55 -5.94,2.17c-3.27,-1.34 -5.53,-2.95 -7.21,-5.7c-1.45,-2.39 -3.35,-3.71 -4.63,-3.25c-2.12,0.75 -2.22,3.29 1.2,5.65c2.19,1.51 5,3.16 10.19,3.43c-3.85,1.13 -7.8,1.86 -11.08,2.06c-2.25,-2.02 -3.61,-3.89 -4.16,-6.41c-0.48,-2.16 -1.61,-3.69 -2.75,-3.78c-1.91,-0.15 -2.72,1.61 -0.67,4.38c1.33,1.81 3.15,3.93 7.38,5.82c-1.17,0.06 -2.25,0.06 -3.21,-0.03c-1.84,-0.17 -4.1,-0.55 -6.5,-1.2c-1.45,-1.67 -2.25,-3.23 -2.38,-5.39c-0.11,-1.82 -0.76,-3.09 -1.58,-3.13c-1.35,-0.06 -2.11,1.48 -0.94,3.77c0.77,1.49 1.87,3.24 4.72,4.7c-7.45,-2.05 -16.1,-6.68 -17.34,-15.37c-0.69,-4.78 0.41,-9.13 3.07,-12.24c2.17,-2.53 5.13,-3.94 8.35,-3.97c3.46,-0.07 6.51,1.53 8.19,4.19c1.69,2.69 1.75,6.07 0.17,9.28c-1.63,3.3 -4.4,5.17 -7.62,5.17c-0.06,0 -0.13,0 -0.19,0c-2.81,-0.07 -5.35,-1.6 -6.32,-3.83c-0.77,-1.76 -0.81,-3.9 -0.09,-5.6c0.64,-1.51 1.83,-2.63 3.44,-3.23c1.95,-0.73 3.88,-0.32 4.93,1.03c0.67,0.87 0.83,1.95 0.52,3.06c-0.24,-1.18 -1.28,-2.07 -2.53,-2.07c-1.43,0 -2.59,1.15 -2.59,2.58c0,1.43 1.16,2.58 2.59,2.58c1.01,0 1.88,-0.58 2.3,-1.43c1.13,-1.73 1.18,-3.64 0.1,-5.03c-1.18,-1.52 -3.34,-1.99 -5.49,-1.19c-1.74,0.65 -3.03,1.86 -3.73,3.51c-0.78,1.84 -0.75,4.09 0.09,5.99c1.05,2.4 3.77,4.06 6.77,4.13c3.53,0.06 6.51,-1.91 8.26,-5.45c1.67,-3.37 1.6,-6.93 -0.18,-9.76c-1.75,-2.78 -4.92,-4.43 -8.49,-4.43c-0.05,0 -0.09,0 -0.14,0c-3.36,0.03 -6.46,1.51 -8.72,4.14c-2.76,3.22 -3.89,7.71 -3.19,12.64c0.67,4.69 3.43,8.22 6.99,10.83c-2.67,-0.64 -4.61,-1.6 -6.23,-3.47c-1.41,-1.65 -3.06,-2.43 -4.02,-1.93c-1.6,0.81 -1.39,2.76 1.58,4.16c1.96,0.92 4.47,1.87 8.86,1.38c2.2,1.57 4.7,2.8 7.2,3.73c-3.64,0.9 -6.51,0.95 -9.6,-0.38c-2.57,-1.1 -4.87,-1.07 -5.65,0.03c-1.3,1.84 0.09,3.97 4.25,3.92c2.8,-0.03 6.25,-0.34 11.01,-3.56c3.67,1.36 7.34,2.09 10.09,2.34c0.56,0.05 1.15,0.07 1.79,0.07c4.83,0 11.7,-1.43 17.53,-3.71c-1.45,0.81 -2.91,1.56 -4.34,2.3c-1.74,0.9 -3.39,1.76 -4.96,2.66c-1.72,0.98 -3.45,2.07 -5.15,3.25c-2.89,1.34 -5.78,1.65 -8.97,1.96c-0.8,-0.76 -1.25,-1.28 -1.11,-1.97c0.24,-1.23 0.31,-1.8 -0.25,-2.69c-0.6,0.61 -0.84,0.68 -0.93,1.34c-0.4,-0.48 -1.05,-0.43 -1.58,-0.72c0.3,0.85 -0.09,1.05 0.52,1.75c-0.48,-0.42 -0.67,-0.1 -1.26,-0.21c0.73,1.04 0.99,1.95 2.01,2.49c0.18,0.1 0.34,0.16 0.49,0.22c-1.45,0.16 -2.98,0.36 -4.59,0.7c-0.3,-1.36 -0.15,-1.79 -1.1,-2.96c-0.91,-1.11 -2.05,-1.3 -3.48,-2.02c0.29,0.67 -0.04,0.94 0.58,1.45c-0.99,-0.62 -1.12,-0.13 -2.21,-0.38c0.49,0.6 0.61,1.37 1.28,1.77c-0.75,0.2 -0.77,0.49 -1.34,1.28c1.21,0.54 1.86,0.38 3.25,-0.07c0.78,-0.26 1.51,0.19 2.61,1.02c-1.34,0.3 -2.73,0.7 -4.19,1.25c-0.01,-0.01 -0.02,-0.02 -0.03,-0.03c0,0.01 0,0.02 0,0.04c-0.88,0.33 -1.8,0.73 -2.74,1.19c-0.01,-1.91 -2.38,-3.83 -3.71,-4.22c0,0 -0.94,1.32 -0.18,2.12c-1.23,-0.77 -2.03,-0.52 -3.37,0.78c1.26,-0.28 2.02,-0.07 2.5,0.3c-0.56,0.87 -0.67,1.47 0.84,2.41c-0.51,-1.2 0.36,-1.36 1.2,-1.58c0.7,-0.18 1.34,-0.13 2.49,0.3c-0.44,0.22 -0.88,0.44 -1.33,0.69c-1.56,0.87 -2.89,1.95 -4,3.23c-1.59,-0.69 -1.73,-1.15 -3.36,-1.12c-1.45,0.03 -2.3,0.82 -3.74,1.5c0.7,0.19 0.72,0.62 1.5,0.43c-1.1,0.4 -0.79,0.81 -1.66,1.52c0.77,-0.02 1.45,0.36 2.18,0.08c-0.31,0.71 -0.09,0.91 0.19,1.84c1.16,-0.62 1.44,-1.23 1.94,-2.61c0.31,-0.85 1.26,-1.13 2.87,-1.54c-1.53,1.79 -2.63,3.97 -3.27,6.55c-1.19,-0.96 -1.4,-1.47 -2.86,-1.68c-1.41,-0.21 -2.3,0.61 -3.77,1.21c0.68,0.35 0.66,0.88 1.44,0.79c-1.1,0.3 -0.83,0.85 -1.74,1.59c0.76,0.1 1.4,0.69 2.13,0.47Z" style="fill-rule:nonzero;"/></g></svg>