<?xml version="1.0" encoding="UTF-8" standalone="no"?><!DOCTYPE svg PUBLIC "-//W3C//DTD SVG 1.1//EN" "http://www.w3.org/Graphics/SVG/1.1/DTD/svg11.dtd"><svg width="100%" height="100%" viewBox="0 0 150 225" version="1.1" xmlns="http://www.w3.org/2000/svg" xmlns:xlink="http://www.w3.org/1999/xlink" xml:space="preserve" xmlns:serif="http://www.serif.com/" style="fill-rule:evenodd;clip-rule:evenodd;stroke-linejoin:round;stroke-miterlimit:1.41421;"><g><path d="M73.67,113.19c0,-0.69 0.56,-1.25 1.25,-1.25c0.69,0 1.25,0.56 1.25,1.25c0,0.69 -0.56,1.25 -1.25,1.25c-0.69,0 -1.25,-0.56 -1.25,-1.25Z" style="fill-rule:nonzero;"/><path d="M86.75,113.01c-0.07,-0.01 -0.14,-0.02 -0.19,-0.02c-0.1,0 -0.21,0.01 -0.31,0.02c-0.45,-0.07 -1.16,-0.33 -1.16,-1.28l-0.3,0c0,0.77 0.4,1.22 0.91,1.44c-0.51,0.21 -0.91,0.66 -0.91,1.43l0.3,0c0,-0.95 0.71,-1.21 1.16,-1.28c0.1,0.01 0.21,0.02 0.31,0.02c0.05,0 0.12,-0.01 0.19,-0.02c0.31,0.05 0.76,0.23 1.06,0.57c0.23,0.26 0.33,0.55 0.29,0.88c-0.09,0.8 -0.64,1.22 -1.09,1.43c-1.09,0.51 -2.63,0.34 -3.76,-0.41c-0.42,-0.28 -0.77,-0.63 -1.14,-1c-0.69,-0.7 -1.41,-1.41 -2.63,-1.62c1.22,-0.22 1.94,-0.93 2.63,-1.63c0.37,-0.37 0.72,-0.72 1.14,-1c1.13,-0.75 2.67,-0.92 3.76,-0.41c0.45,0.21 1,0.63 1.09,1.43c0.04,0.33 -0.06,0.62 -0.29,0.88c-0.3,0.34 -0.75,0.52 -1.06,0.57Zm-11.87,3.3c-0.38,-1.5 -1.74,-2.85 -3.22,-3.14c1.48,-0.3 2.84,-1.65 3.22,-3.15c0.37,1.5 1.73,2.85 3.21,3.15c-1.48,0.29 -2.84,1.64 -3.21,3.14Zm-7.24,-1.52c-0.37,0.37 -0.72,0.72 -1.14,1c-1.13,0.75 -2.67,0.92 -3.76,0.41c-0.45,-0.21 -1,-0.63 -1.09,-1.43c-0.04,-0.33 0.06,-0.62 0.29,-0.88c0.3,-0.34 0.75,-0.52 1.06,-0.57c0.07,0.01 0.14,0.02 0.19,0.02c0.1,0 0.21,-0.01 0.31,-0.02c0.45,0.07 1.16,0.33 1.16,1.28l0.3,0c0,-0.77 -0.4,-1.22 -0.91,-1.43c0.51,-0.22 0.91,-0.67 0.91,-1.44l-0.3,0c0,0.95 -0.71,1.21 -1.16,1.28c-0.1,-0.01 -0.21,-0.02 -0.31,-0.02c-0.05,0 -0.12,0.01 -0.19,0.02c-0.31,-0.05 -0.76,-0.23 -1.06,-0.57c-0.23,-0.26 -0.33,-0.55 -0.29,-0.88c0.09,-0.8 0.64,-1.22 1.09,-1.43c1.09,-0.51 2.63,-0.34 3.76,0.41c0.42,0.28 0.77,0.63 1.14,1c0.69,0.7 1.41,1.41 2.63,1.63c-1.22,0.21 -1.94,0.92 -2.63,1.62Zm20.76,-3.27c-0.08,-0.73 -0.53,-1.32 -1.27,-1.66c-1.17,-0.55 -2.83,-0.37 -4.05,0.43c-0.44,0.29 -0.82,0.67 -1.18,1.04c-0.82,0.82 -1.59,1.6 -3.16,1.6c-0.04,0 -0.07,0 -0.11,0c-1.8,-0.04 -3.56,-1.88 -3.56,-3.72c0,-1.82 1.05,-2.46 1.68,-2.67c1.06,-0.36 2.31,-0.05 2.91,0.72c0.5,0.65 0.45,1.52 -0.16,2.45l0.25,0.16c0.92,-1.41 0.49,-2.36 0.15,-2.8c-0.68,-0.86 -2.07,-1.22 -3.25,-0.81c-0.92,0.31 -1.54,1.03 -1.77,2.02c-0.24,-0.99 -0.86,-1.71 -1.78,-2.02c-1.18,-0.41 -2.57,-0.05 -3.25,0.81c-0.34,0.44 -0.77,1.39 0.15,2.8l0.25,-0.16c-0.61,-0.93 -0.66,-1.8 -0.16,-2.45c0.6,-0.77 1.85,-1.08 2.91,-0.72c0.63,0.21 1.68,0.85 1.68,2.67c0,1.84 -1.76,3.68 -3.56,3.72c-0.04,0 -0.07,0 -0.11,0c-1.57,0 -2.34,-0.78 -3.16,-1.6c-0.36,-0.37 -0.74,-0.75 -1.18,-1.04c-1.22,-0.8 -2.88,-0.98 -4.05,-0.43c-0.74,0.34 -1.19,0.93 -1.27,1.66c-0.05,0.42 0.08,0.8 0.37,1.12c0.21,0.24 0.48,0.41 0.75,0.53c-0.27,0.11 -0.54,0.28 -0.75,0.52c-0.29,0.32 -0.42,0.7 -0.37,1.12c0.08,0.73 0.53,1.32 1.27,1.66c1.17,0.55 2.83,0.37 4.05,-0.43c0.44,-0.29 0.82,-0.67 1.18,-1.04c0.82,-0.82 1.59,-1.6 3.16,-1.6c0.04,0 0.07,0 0.11,0c1.8,0.04 3.56,1.88 3.56,3.72c0,1.82 -1.05,2.46 -1.68,2.67c-1.06,0.36 -2.31,0.05 -2.91,-0.72c-0.5,-0.65 -0.45,-1.52 0.16,-2.45l-0.25,-0.16c-0.92,1.41 -0.49,2.36 -0.15,2.8c0.68,0.86 2.07,1.22 3.25,0.81c0.92,-0.31 1.54,-1.03 1.78,-2.02c0.23,0.99 0.85,1.71 1.77,2.02c1.18,0.41 2.57,0.05 3.25,-0.81c0.34,-0.44 0.77,-1.39 -0.15,-2.8l-0.25,0.16c0.61,0.93 0.66,1.8 0.16,2.45c-0.6,0.77 -1.85,1.08 -2.91,0.72c-0.63,-0.21 -1.68,-0.85 -1.68,-2.67c0,-1.84 1.76,-3.68 3.56,-3.72c0.04,0 0.07,0 0.11,0c1.57,0 2.34,0.78 3.16,1.6c0.36,0.37 0.74,0.75 1.18,1.04c1.22,0.8 2.88,0.98 4.05,0.43c0.74,-0.34 1.19,-0.93 1.27,-1.66c0.05,-0.42 -0.08,-0.8 -0.37,-1.12c-0.21,-0.24 -0.48,-0.41 -0.75,-0.52c0.27,-0.12 0.54,-0.29 0.75,-0.53c0.29,-0.32 0.42,-0.7 0.37,-1.12Z" style="fill-rule:nonzero;"/><path d="M147.65,149c0.35,-0.82 0.15,-1.1 -0.05,-2.3c-1.18,0.57 -1.49,1.28 -2.09,2.89c-0.34,0.93 -1.17,1.15 -2.55,1.37c0.33,-1.49 0.51,-3.1 0.56,-4.83l0,0.01c0.81,-1.15 1.29,-1.82 2.1,-1.77c1.25,0.08 1.82,0.07 2.63,-0.6c-0.68,-0.51 -0.78,-0.74 -1.45,-0.75c0.42,-0.45 0.29,-1.09 0.51,-1.66c-0.81,0.41 -1.06,0.05 -1.67,0.75c0.36,-0.53 0.01,-0.68 0.04,-1.28c-0.93,0.86 -1.8,1.24 -2.2,2.32c0,0.01 -0.01,0.02 -0.01,0.04c-0.06,-1.1 -0.12,-2.17 -0.21,-3.19c0.01,0.01 0.01,0.03 0.01,0.04c0.67,-1.13 1.07,-1.55 1.62,-1.83c0.61,-0.3 1.23,-0.66 1.31,0.55c0.65,-1.57 0.37,-1.98 -0.29,-2.33c0.18,-0.56 0.59,-1.15 1.5,-1.64c-1.31,-0.24 -1.91,0.01 -2.43,1.29c0.22,-1.04 -0.84,-1.53 -0.84,-1.53c-0.45,0.65 -0.94,1.98 -1.11,3.25c-0.26,-2.15 -0.66,-4.12 -1.26,-5.98c0.41,0.11 0.86,0.13 1.32,0c0.91,-0.26 1.5,-1.04 1.06,-2.54c-0.44,-1.51 -1.94,-1.62 -2.35,-2.55c-1.02,-2.31 0.16,-3.97 2.93,-1.72c-1.18,-1.72 -2.98,-2.15 -4.46,-0.88c-0.19,0.16 -0.57,0.53 -0.79,0.84l-1.71,-1.92l0.19,2.56c-0.38,-0.06 -0.91,-0.05 -1.15,-0.02c-1.94,0.18 -2.89,1.77 -2.48,3.82c0.32,-3.57 2.33,-3.25 3.27,-0.91c0.39,0.95 -0.58,2.09 0.19,3.46c0.77,1.37 1.74,1.48 2.56,1.01c0.44,-0.24 0.74,-0.59 0.95,-0.98c0.99,3.1 1.41,6.58 1.64,10.62c-0.08,-0.4 -0.24,-0.8 -0.62,-1.39c-0.79,-1.21 -1.91,-1.52 -3.25,-2.38c0.21,0.7 -0.14,0.93 0.43,1.5c-0.92,-0.72 -1.1,-0.25 -2.17,-0.6c0.42,0.64 0.46,1.42 1.09,1.89c-0.77,0.12 -0.82,0.4 -1.46,1.13c1.14,0.66 1.8,0.57 3.24,0.27c0.88,-0.19 1.63,0.47 2.82,1.61c0.05,2.35 -0.15,4.48 -0.6,6.4c-0.01,0 -0.01,0 -0.02,0c0.01,0 0.01,0.01 0.01,0.01c-0.09,0.38 -0.18,0.76 -0.29,1.12c-0.8,-0.98 -1.08,-1.57 -1.14,-2.27c-0.09,-0.85 -0.24,-1.73 1.18,-1.43c-1.52,-1.31 -2.1,-1.1 -2.79,-0.41c-0.56,-0.39 -1.06,-1.1 -1.24,-2.37c-0.84,1.53 -0.81,2.35 0.44,3.4c-1.11,-0.6 -2.12,0.55 -2.12,0.55c0.86,1.19 3.58,3.08 5.54,2.9c-0.69,2.12 -1.72,3.93 -3.09,5.44c0.38,-0.96 0.52,-2.04 0.42,-2.7c0,0 -1.38,-0.31 -1.72,0.61c0.15,-1.28 -0.34,-1.85 -1.85,-2.49c0.69,0.94 0.8,1.64 0.68,2.16c-0.88,-0.14 -1.39,-0.02 -1.57,1.56c0.75,-0.85 1.2,-0.19 1.68,0.42c0.38,0.49 0.57,1 0.66,2c-0.6,0.47 -1.25,0.9 -1.95,1.28c-1.41,0.78 -2.76,1.4 -4.06,1.9c-0.02,-1.1 0.06,-1.78 0.7,-2.17c1.14,-0.7 1.64,-1.05 1.91,-2.1c-0.93,0 -1.16,-0.12 -1.75,0.27c0.08,-0.63 -0.45,-1.07 -0.62,-1.67c-0.44,0.84 -0.89,0.69 -0.98,1.63c-0.03,-0.65 -0.43,-0.56 -0.78,-1.06c-0.27,1.27 -0.78,2.11 -0.43,3.24c0.34,1.12 0.73,1.26 1.53,2.01c-1.5,0.55 -2.94,0.95 -4.31,1.24c-0.01,-0.01 -0.01,-0.01 -0.02,-0.01c0.01,0 0.01,0.01 0.01,0.01c-0.45,0.09 -0.88,0.17 -1.31,0.24c0.6,-0.3 0.9,-0.38 1.38,-1.1c0.54,-0.79 0.42,-1.56 0.59,-2.61c-0.37,0.31 -0.62,0.15 -0.82,0.65c0.2,-0.75 -0.14,-0.74 -0.21,-1.49c-0.29,0.42 -0.76,0.65 -0.89,1.15c-0.28,-0.44 -0.47,-0.4 -1.11,-0.61c-0.09,0.88 0.14,1.26 0.72,2.07c0.35,0.48 0.17,1.08 -0.18,2.04c-1.59,0.25 -3.1,0.4 -4.54,0.54c-2.57,0.24 -5.05,0.49 -7.52,1.3c11.88,-8.72 21.74,-21.73 17.08,-35.16c-1.9,-5.49 -5.13,-9.48 -9.37,-11.84c1,-0.44 1.58,-0.54 2.17,-0.46c0.78,0.09 1.61,0.14 0.87,1.35c1.68,-1.1 1.69,-1.66 1.31,-2.42c0.54,-0.42 1.34,-0.72 2.53,-0.62c-1.07,-1.07 -1.81,-1.2 -3.17,-0.3c0.91,-0.87 0.23,-2.01 0.23,-2.01c-1.3,0.51 -3.79,2.45 -4.4,4.21c-2.88,-1.5 -6.21,-2.29 -9.93,-2.29c-2.05,0 -4.22,0.24 -6.48,0.72c-2.18,0.46 -4.45,1.19 -6.63,2.19c-0.75,-0.87 -0.97,-1.4 -1,-2.1c-0.03,-0.79 -0.11,-1.59 1.03,-1.65c-1.18,-0.88 -1.66,-0.54 -2.25,0.28c-0.44,-0.24 -0.81,-0.79 -0.9,-1.96c-0.75,1.65 -0.76,2.43 0.2,3.13c-0.87,-0.31 -1.74,1.03 -1.74,1.03c0.65,0.93 2.8,2.07 4.41,1.39c-1.64,0.77 -3.22,1.7 -4.65,2.79c-1.5,-0.69 -2.38,-1.16 -2.53,-2.1c-0.23,-1.56 -0.39,-2.26 -1.47,-3.12c-0.47,0.95 -0.73,1.11 -0.56,1.93c-0.7,-0.42 -1.48,-0.14 -2.26,-0.29c0.75,0.91 0.35,1.29 1.4,1.91c-0.77,-0.33 -0.87,0.12 -1.63,0.2c1.35,0.98 2.06,1.97 3.54,2.25c1.44,0.27 1.82,-0.04 3.03,-0.42c-1.17,0.94 -2.21,2 -3.11,3.17c-1.26,-0.89 -1.66,-1.4 -3.38,-1.52c-1.8,-0.13 -2.86,0.95 -4.68,1.81c0.89,0.36 0.9,1 1.88,0.82c-1.38,0.47 -1,1.11 -2.08,2.08c0.96,0.06 1.81,0.71 2.72,0.37c-0.38,1.04 -0.11,1.35 0.23,2.79c1.45,-0.8 1.8,-1.68 2.43,-3.69c0.29,-0.91 1.02,-1.32 2.17,-1.64c-1.29,1.99 -2.11,4.27 -2.27,6.87c-0.98,0.6 -1.63,0.9 -2.3,0.54c-1.19,-0.62 -1.74,-0.87 -2.78,-0.58c0.47,0.81 0.48,1.07 1.12,1.37c-0.58,0.26 -0.69,0.93 -1.12,1.39c0.94,-0.04 1.05,0.42 1.9,0.01c-0.54,0.36 -0.26,0.66 -0.52,1.22c1.24,-0.42 2.22,-0.41 3.01,-1.28c0.35,-0.38 0.53,-0.67 0.64,-0.97c0.01,1.27 0.09,2.43 0.25,3.47c-0.11,-0.12 -0.21,-0.25 -0.35,-0.36c-0.49,1.15 -0.88,1.62 -1.51,1.96c-0.71,0.39 -1.41,0.84 -1.93,-0.26c-0.32,1.56 0.18,1.88 1.18,2.08c-0.04,0.54 -0.39,1.16 -1.43,1.77c1.83,0 2.53,-0.35 2.78,-1.61c0.08,0.99 1.65,1.25 1.65,1.25c0.21,-0.38 0.36,-0.97 0.42,-1.61c0.34,0.89 0.75,1.68 1.23,2.38c-0.91,0.85 -1.34,0.99 -1.82,2.34c-0.5,1.35 -0.07,2.43 0.05,4.03c0.43,-0.59 0.84,-0.45 0.95,-1.25c-0.03,1.17 0.46,1.03 0.82,2.1c0.25,-0.73 0.85,-1.23 0.85,-2.01c0.56,0.54 0.82,0.4 1.78,0.48c-0.16,-1.31 -0.63,-1.78 -1.73,-2.74c-0.56,-0.5 -0.61,-1.25 -0.5,-2.41c1.44,1.81 3.4,3 5.8,3.91c-0.27,0.22 -0.5,0.5 -0.66,0.85c-0.43,0.91 -0.2,1.94 1.42,2.66c1.61,0.72 2.78,-0.4 3.88,-0.06c2.73,0.82 3.31,2.96 -0.63,3.59c2.33,0.28 3.99,-0.87 3.98,-2.97c-0.01,-0.26 -0.05,-0.83 -0.16,-1.23l2.88,0l-2.34,-1.69c0.32,-0.26 0.69,-0.69 0.85,-0.91c1.24,-1.69 0.56,-3.59 -1.5,-4.73c2.83,2.81 1.12,4.21 -1.58,3.29c-1.09,-0.37 -1.38,-1.97 -3.11,-2.32c-1.73,-0.36 -2.53,0.34 -2.72,1.33c-0.08,0.45 -0.03,0.88 0.1,1.27c-4.77,-1.79 -7.61,-4.63 -7.88,-11.73c0.96,0.23 1.43,0.51 1.85,1c0.52,0.61 1.1,1.2 0.13,1.94c1.59,-0.01 1.8,-0.57 1.8,-1.58c0.54,-0.07 1.21,0.14 2.03,1.03c-0.39,-1.78 -0.87,-2.41 -2.16,-2.39c0.96,-0.28 0.89,-1.87 0.89,-1.87c-1.09,-0.33 -3.46,-0.03 -4.56,1.25c-0.01,-0.45 -0.01,-0.9 0,-1.39c0.05,-2.08 0.6,-3.99 1.52,-5.71c-0.13,0.64 -0.21,1 0.09,1.89c0.36,1.08 1.17,1.54 2.04,2.47c-0.02,-0.59 0.31,-0.7 -0.02,-1.25c0.57,0.73 0.8,0.4 1.56,0.88c-0.2,-0.57 -0.07,-1.19 -0.46,-1.67c0.62,0.05 0.72,-0.16 1.37,-0.6c-0.75,-0.73 -1.29,-0.79 -2.46,-0.83c-0.69,-0.02 -1.11,-0.59 -1.73,-1.57c0.29,-0.48 0.61,-0.95 0.96,-1.41c0.04,-0.01 0.08,-0.01 0.12,-0.02c-0.02,-0.02 -0.04,-0.03 -0.07,-0.05c0.95,-1.22 2.09,-2.32 3.37,-3.3c0.11,0.74 0.08,1.18 -0.08,1.61c-0.23,0.64 -0.43,1.33 -1.32,0.51c0.61,1.59 1.09,1.69 1.81,1.49c0.25,0.53 0.36,1.24 0.04,2.22c1.12,-0.72 1.38,-1.32 0.87,-2.6c0.56,0.9 1.67,0.52 1.67,0.52c-0.18,-1.1 -1.2,-3.23 -2.45,-4.17c1.32,-0.94 2.76,-1.77 4.27,-2.46c-0.18,0.17 -0.37,0.37 -0.58,0.66c-0.84,1.15 -0.52,2.32 -0.68,3.9c0.63,-0.44 1.09,-0.18 1.37,-0.91c-0.25,1.12 0.37,1.14 0.6,2.28c0.44,-0.62 1.25,-0.91 1.4,-1.67c0.57,0.7 0.91,0.65 2.06,1.03c0.05,-1.31 -0.43,-1.92 -1.58,-3.19c-0.71,-0.78 -0.45,-1.68 0.06,-3.15c1.19,-0.41 2.4,-0.75 3.6,-1c1.14,-0.24 2.23,-0.4 3.31,-0.51c-0.23,0.08 -0.47,0.2 -0.79,0.45c-0.76,0.59 -0.89,1.36 -1.38,2.31c0.46,-0.18 0.64,0.04 0.99,-0.37c-0.43,0.66 -0.09,0.75 -0.26,1.49c0.4,-0.32 0.92,-0.38 1.2,-0.83c0.13,0.51 0.33,0.53 0.86,0.93c0.37,-0.8 0.26,-1.24 -0.04,-2.19c-0.19,-0.57 0.18,-1.09 0.84,-1.92c9.81,-0.55 17.11,4.26 20.36,13.65c3.36,9.67 -1.19,19.16 -8.55,26.89c0.99,-1.48 1.81,-3.06 2.5,-4.69l0,0.01l0,-0.01c3.12,-7.37 3.29,-15.81 0.58,-20.99c-0.62,-1.17 -1.61,-2.25 -2.84,-3.13c0.1,-1.12 0.24,-1.8 0.91,-2.13c1.21,-0.59 1.73,-0.9 2.11,-1.91c-0.93,-0.09 -1.15,-0.24 -1.77,0.1c0.14,-0.62 -0.34,-1.11 -0.46,-1.72c-0.52,0.79 -0.96,0.6 -1.13,1.53c0.03,-0.65 -0.37,-0.6 -0.68,-1.14c-0.38,1.25 -0.97,2.04 -0.74,3.19c0.14,0.66 0.32,0.99 0.59,1.32c-1.15,-0.65 -2.43,-1.14 -3.77,-1.41c-0.54,-0.1 -1.07,-0.16 -1.61,-0.2c1.06,-0.71 1.58,-0.85 2.15,-2.1c0.59,-1.3 0.05,-2.38 -0.12,-3.96c-0.53,0.56 -1.03,0.39 -1.16,1.16c0.01,-1.14 -0.59,-1.03 -1.04,-2.11c-0.31,0.7 -1.05,1.15 -1.04,1.92c-0.7,-0.57 -1.02,-0.46 -2.23,-0.6c0.22,1.3 0.81,1.8 2.2,2.81c0.79,0.59 0.78,1.46 0.6,2.85c-0.05,0 -0.1,-0.01 -0.15,-0.01c-1.18,0 -2.33,0.19 -3.44,0.53c-0.51,-0.56 -0.69,-0.94 -0.74,-1.39c-0.06,-0.56 -0.16,-1.14 0.71,-1.13c-0.94,-0.68 -1.29,-0.46 -1.71,0.1c-0.35,-0.19 -0.66,-0.6 -0.78,-1.43c-0.5,1.14 -0.48,1.69 0.3,2.23c-0.69,-0.26 -1.3,0.65 -1.3,0.65c0.42,0.54 1.55,1.21 2.59,1.3c-1.01,0.4 -1.98,0.95 -2.88,1.64c-0.01,-0.45 -0.11,-0.89 -0.4,-1.3c-0.51,-0.73 -1.41,-1 -2.7,-0.06c-1.29,0.94 -0.96,2.34 -1.72,3.05c-1.88,1.75 -3.79,1.26 -2.48,-2.08c-1.28,1.69 -1.16,3.49 0.47,4.4c0.21,0.12 0.67,0.34 1.02,0.42l-1.31,2.25l2.37,-1.08c0.05,0.36 0.22,0.85 0.31,1.06c0.74,1.71 2.52,2.02 4.33,0.92c-3.46,0.96 -3.75,-0.99 -1.81,-2.68c0.78,-0.69 2.14,-0.21 3.21,-1.4c1.07,-1.19 0.89,-2.11 0.21,-2.7c-0.32,-0.27 -0.68,-0.42 -1.06,-0.5c2.05,-1.51 4.42,-2.3 6.89,-2.28c0,0.01 0,0.02 -0.01,0.04c0.02,-0.02 0.04,-0.03 0.05,-0.04c0.72,0.01 1.45,0.07 2.18,0.21c0.24,0.05 0.48,0.12 0.72,0.18c-0.31,-0.01 -0.67,0.02 -1.15,0.13c-1.41,0.31 -2.09,1.25 -3.37,2.2c0.73,0.05 0.82,0.46 1.56,0.13c-1.01,0.61 -0.63,0.94 -1.34,1.81c0.75,-0.17 1.5,0.07 2.16,-0.35c-0.16,0.76 0.09,0.91 0.54,1.77c1.02,-0.84 1.17,-1.49 1.39,-2.94c0.14,-0.86 0.95,-1.31 2.32,-1.98c2.04,0.96 3.73,2.42 4.61,4.1c0.57,1.09 1,2.34 1.31,3.69c-1.19,-0.6 -1.7,-1.01 -2.04,-1.58c-0.42,-0.67 -0.9,-1.34 0.51,-1.52c-1.91,-0.63 -2.35,-0.28 -2.71,0.49c-0.67,-0.16 -1.4,-0.59 -2.06,-1.58c-0.17,1.5 0.19,2.16 1.74,2.66c-1.24,-0.17 -1.71,1.07 -1.71,1.07c1.29,0.74 4.63,1.49 6.31,0.67c0.43,1.98 0.59,4.16 0.46,6.44c-0.43,-1.19 -0.45,-1.72 -1.52,-2.57c-1.12,-0.89 -2.3,-0.62 -3.87,-0.83c0.41,0.65 0.13,1.09 0.85,1.4c-1.11,-0.29 -1.15,0.33 -2.3,0.51c0.6,0.47 0.86,1.29 1.61,1.47c-0.72,0.54 -0.68,0.88 -1.11,2.01c1.31,0.1 1.94,-0.35 3.25,-1.45c0.79,-0.66 1.66,-0.4 3.05,0.15c-0.25,3.05 -1,6.23 -2.25,9.25c-0.62,-0.89 -0.94,-1.5 -0.63,-2.18c0.54,-1.22 0.75,-1.79 0.39,-2.81c-0.77,0.53 -1.03,0.56 -1.29,1.21c-0.3,-0.56 -0.98,-0.63 -1.46,-1.02c0.11,0.93 -0.35,1.07 0.11,1.9c-0.39,-0.52 -0.67,-0.23 -1.25,-0.44c0.51,1.2 0.56,2.18 1.48,2.91c0.94,0.76 1.34,0.62 2.5,0.81c-1.17,2.71 -2.74,5.26 -4.73,7.45c-2.3,2.11 -4.8,4.03 -7.35,5.78c1.56,-2.95 1.71,-4.87 1.73,-6.4c0.03,-2.29 -1.02,-2.8 -1.93,-1.87c-0.54,0.56 -0.56,1.83 -0.01,3.11c0.64,1.52 0.62,3.1 0.18,5.18c-1.58,1.09 -3.18,2.12 -4.79,3.04c-0.24,0.14 -0.5,0.27 -0.75,0.41c1.63,-3.2 1.72,-5.35 1.65,-7.07c-0.09,-2.63 -1.4,-3.28 -2.46,-2.26c-0.63,0.61 -0.57,2.07 0.16,3.57c0.86,1.75 0.94,3.52 0.55,5.81c-1.3,0.72 -2.64,1.43 -4.07,2.17c-0.68,0.35 -1.37,0.71 -2.06,1.07c1.85,-3.67 2.02,-6.13 2.01,-8.09c-0.02,-3.05 -1.45,-3.76 -2.67,-2.54c-0.73,0.73 -0.72,2.42 0.05,4.14c0.89,1.96 0.92,3.98 0.45,6.58c-4.17,2.2 -8.45,4.65 -12.12,8.14c1.31,-2.66 1.46,-4.45 1.48,-5.89c0.03,-2.29 -1.02,-2.8 -1.93,-1.87c-0.54,0.56 -0.56,1.83 -0.02,3.11c0.62,1.44 0.62,2.94 0.25,4.86c-1.4,1.37 -2.72,2.89 -3.9,4.61c1.36,-3.23 1.36,-5.56 1.23,-7.48c-0.24,-3.34 -1.99,-4.22 -3.34,-2.97c-0.81,0.75 -0.68,2.6 0.35,4.54c1.15,2.16 1.36,4.32 1.01,7.05c-2.03,3.26 -3.61,7.19 -4.49,12.08c-0.6,3.33 -0.92,6.55 -0.98,9.52l-0.48,0l0,-28.31c0,-0.64 -0.01,-1.35 -0.04,-2.07c0,-0.13 0,-0.28 0,-0.41c0.25,-6.17 1.57,-16.23 7.46,-18.54c3.23,-1.26 6.25,-1.27 8.52,-0.05c1.68,0.91 2.83,2.46 3.23,4.37c0.42,2 -0.34,4.42 -1.91,6.01c-1.29,1.32 -2.92,1.89 -4.59,1.57c-1.58,-0.3 -2.72,-1.02 -3.39,-2.14c-0.85,-1.42 -0.74,-3.22 -0.46,-4.08c0.23,-0.73 0.75,-1.35 1.37,-1.65c0.53,-0.24 1.09,-0.25 1.67,-0.03c0.06,0.02 0.1,0.05 0.14,0.07c-0.12,-0.03 -0.25,-0.05 -0.38,-0.05c-0.87,0 -1.58,0.71 -1.58,1.58c0,0.88 0.71,1.59 1.58,1.59c0.12,0 0.24,-0.02 0.35,-0.04c0.6,-0.02 1.11,-0.4 1.32,-1.09c0.28,-0.91 -0.06,-2.06 -1.24,-2.52c-0.71,-0.28 -1.43,-0.26 -2.07,0.04c-0.75,0.36 -1.36,1.08 -1.64,1.95c-0.26,0.81 -0.49,2.8 0.51,4.48c0.75,1.26 2,2.06 3.73,2.38c1.83,0.34 3.63,-0.26 5.04,-1.71c1.67,-1.71 2.49,-4.31 2.04,-6.46c-0.43,-2.06 -1.67,-3.73 -3.49,-4.71c-1.19,-0.64 -2.57,-0.96 -4.07,-0.96c-1.52,0 -3.16,0.33 -4.86,0.99c-4.48,1.75 -6.45,7.52 -7.27,13.22c0,-6.26 -0.01,-14.16 -0.01,-21.61c0,-0.39 0,-0.77 0,-1.15c0.01,-10.95 0.01,-21.34 0,-24.55c0.77,-0.1 1.37,-0.75 1.37,-1.55c0,-0.88 -0.71,-1.59 -1.58,-1.59c-0.02,0 -0.03,0.01 -0.04,0.01c-0.02,0 -0.03,-0.01 -0.05,-0.01c-0.87,0 -1.58,0.71 -1.58,1.59c0,0.8 0.6,1.45 1.37,1.55c-0.01,3.21 -0.01,13.6 0,24.55c0,0.38 0.01,0.76 0.01,1.15c-0.01,7.45 -0.02,15.35 -0.02,21.61c-0.82,-5.7 -2.79,-11.47 -7.27,-13.22c-1.7,-0.66 -3.34,-0.99 -4.86,-0.99c-1.5,0 -2.88,0.32 -4.07,0.96c-1.82,0.98 -3.06,2.65 -3.49,4.71c-0.45,2.15 0.37,4.75 2.04,6.46c1.41,1.45 3.21,2.05 5.04,1.71c1.73,-0.32 2.98,-1.12 3.73,-2.38c1,-1.68 0.77,-3.67 0.51,-4.48c-0.28,-0.87 -0.89,-1.59 -1.64,-1.95c-0.64,-0.3 -1.36,-0.32 -2.07,-0.04c-1.18,0.46 -1.52,1.61 -1.24,2.52c0.21,0.69 0.72,1.07 1.32,1.09c0.11,0.02 0.23,0.04 0.35,0.04c0.87,0 1.58,-0.71 1.58,-1.59c0,-0.87 -0.71,-1.58 -1.58,-1.58c-0.13,0 -0.26,0.02 -0.38,0.05c0.04,-0.02 0.08,-0.05 0.14,-0.07c0.58,-0.22 1.14,-0.21 1.67,0.03c0.62,0.3 1.14,0.92 1.37,1.65c0.28,0.86 0.39,2.66 -0.46,4.08c-0.67,1.12 -1.81,1.84 -3.39,2.14c-1.67,0.32 -3.3,-0.25 -4.59,-1.57c-1.57,-1.59 -2.33,-4.01 -1.91,-6.01c0.4,-1.91 1.55,-3.46 3.23,-4.37c2.27,-1.22 5.29,-1.21 8.52,0.05c5.89,2.31 7.21,12.37 7.46,18.54c0,0.13 0,0.28 0,0.41c-0.03,0.72 -0.04,1.43 -0.04,2.07l0,28.31l-0.48,0c-0.06,-2.97 -0.38,-6.19 -0.98,-9.52c-0.88,-4.89 -2.46,-8.82 -4.49,-12.08c-0.35,-2.73 -0.14,-4.89 1.01,-7.05c1.03,-1.94 1.16,-3.79 0.35,-4.54c-1.35,-1.25 -3.1,-0.37 -3.34,2.97c-0.13,1.92 -0.13,4.25 1.23,7.48c-1.18,-1.72 -2.5,-3.24 -3.9,-4.61c-0.37,-1.92 -0.37,-3.42 0.25,-4.86c0.54,-1.28 0.52,-2.55 -0.02,-3.11c-0.91,-0.93 -1.96,-0.42 -1.93,1.87c0.02,1.44 0.17,3.23 1.48,5.89c-3.67,-3.49 -7.95,-5.94 -12.12,-8.14c-0.47,-2.6 -0.44,-4.62 0.45,-6.58c0.77,-1.72 0.78,-3.41 0.05,-4.14c-1.22,-1.22 -2.65,-0.51 -2.67,2.54c-0.01,1.96 0.16,4.42 2.01,8.09c-0.69,-0.36 -1.38,-0.72 -2.06,-1.07c-1.43,-0.74 -2.77,-1.45 -4.07,-2.17c-0.39,-2.29 -0.31,-4.06 0.55,-5.81c0.73,-1.5 0.79,-2.96 0.16,-3.57c-1.06,-1.02 -2.37,-0.37 -2.46,2.26c-0.07,1.72 0.02,3.87 1.65,7.07c-0.25,-0.14 -0.51,-0.27 -0.75,-0.41c-1.61,-0.92 -3.21,-1.95 -4.79,-3.04c-0.44,-2.08 -0.46,-3.66 0.18,-5.18c0.55,-1.28 0.53,-2.55 -0.01,-3.11c-0.91,-0.93 -1.96,-0.42 -1.93,1.87c0.02,1.53 0.18,3.45 1.73,6.4c-2.55,-1.75 -5.05,-3.67 -7.35,-5.78c-1.99,-2.19 -3.56,-4.74 -4.73,-7.45c1.16,-0.19 1.56,-0.05 2.5,-0.81c0.92,-0.73 0.97,-1.71 1.48,-2.91c-0.58,0.21 -0.86,-0.08 -1.25,0.44c0.46,-0.83 0,-0.97 0.11,-1.9c-0.48,0.39 -1.16,0.46 -1.46,1.02c-0.26,-0.65 -0.52,-0.68 -1.29,-1.21c-0.36,1.02 -0.15,1.59 0.39,2.81c0.31,0.68 -0.01,1.29 -0.63,2.18c-1.25,-3.02 -2,-6.2 -2.25,-9.25c1.39,-0.55 2.26,-0.81 3.05,-0.15c1.31,1.1 1.94,1.55 3.25,1.45c-0.43,-1.13 -0.39,-1.47 -1.11,-2.01c0.75,-0.18 1.01,-1 1.61,-1.47c-1.15,-0.18 -1.19,-0.8 -2.3,-0.51c0.72,-0.31 0.44,-0.75 0.85,-1.4c-1.57,0.21 -2.75,-0.06 -3.87,0.83c-1.07,0.85 -1.09,1.38 -1.52,2.57c-0.13,-2.28 0.03,-4.46 0.46,-6.44c1.68,0.82 5.02,0.07 6.31,-0.67c0,0 -0.47,-1.24 -1.71,-1.07c1.55,-0.5 1.91,-1.16 1.74,-2.66c-0.66,0.99 -1.39,1.42 -2.06,1.58c-0.36,-0.77 -0.8,-1.12 -2.71,-0.49c1.41,0.18 0.93,0.85 0.51,1.52c-0.34,0.57 -0.85,0.98 -2.04,1.58c0.31,-1.35 0.74,-2.6 1.31,-3.69c0.88,-1.68 2.57,-3.14 4.61,-4.1c1.37,0.67 2.18,1.12 2.32,1.98c0.22,1.45 0.37,2.1 1.39,2.94c0.45,-0.86 0.7,-1.01 0.54,-1.77c0.66,0.42 1.41,0.18 2.16,0.35c-0.71,-0.87 -0.33,-1.2 -1.34,-1.81c0.74,0.33 0.83,-0.08 1.56,-0.13c-1.28,-0.95 -1.96,-1.89 -3.37,-2.2c-0.48,-0.11 -0.84,-0.14 -1.15,-0.13c0.24,-0.06 0.48,-0.13 0.72,-0.18c0.73,-0.14 1.46,-0.2 2.18,-0.21c0.01,0.01 0.03,0.02 0.05,0.04c-0.01,-0.02 -0.01,-0.03 -0.01,-0.04c2.47,-0.02 4.84,0.77 6.89,2.28c-0.38,0.08 -0.74,0.23 -1.06,0.5c-0.68,0.59 -0.86,1.51 0.21,2.7c1.07,1.19 2.43,0.71 3.21,1.4c1.94,1.69 1.65,3.64 -1.81,2.68c1.81,1.1 3.59,0.79 4.33,-0.92c0.09,-0.21 0.26,-0.7 0.31,-1.06l2.37,1.08l-1.31,-2.25c0.35,-0.08 0.81,-0.3 1.02,-0.42c1.63,-0.91 1.75,-2.71 0.47,-4.4c1.31,3.34 -0.6,3.83 -2.48,2.08c-0.76,-0.71 -0.43,-2.11 -1.72,-3.05c-1.29,-0.94 -2.19,-0.67 -2.7,0.06c-0.29,0.41 -0.39,0.85 -0.4,1.3c-0.9,-0.69 -1.87,-1.24 -2.88,-1.64c1.04,-0.09 2.17,-0.76 2.59,-1.3c0,0 -0.61,-0.91 -1.29,-0.65c0.77,-0.54 0.79,-1.09 0.29,-2.23c-0.12,0.83 -0.43,1.24 -0.78,1.43c-0.42,-0.56 -0.77,-0.78 -1.71,-0.1c0.87,-0.01 0.77,0.57 0.71,1.13c-0.05,0.45 -0.23,0.83 -0.74,1.39c-1.11,-0.34 -2.26,-0.53 -3.44,-0.53c-0.05,0 -0.1,0.01 -0.15,0.01c-0.18,-1.39 -0.19,-2.26 0.6,-2.85c1.39,-1.01 1.98,-1.51 2.2,-2.81c-1.21,0.14 -1.53,0.03 -2.23,0.6c0.01,-0.77 -0.73,-1.22 -1.04,-1.92c-0.45,1.08 -1.05,0.97 -1.04,2.11c-0.13,-0.77 -0.63,-0.6 -1.16,-1.16c-0.17,1.58 -0.71,2.66 -0.12,3.96c0.57,1.25 1.09,1.39 2.15,2.1c-0.54,0.04 -1.07,0.1 -1.61,0.2c-1.34,0.27 -2.62,0.76 -3.77,1.41c0.27,-0.33 0.45,-0.66 0.59,-1.32c0.23,-1.15 -0.36,-1.94 -0.74,-3.19c-0.31,0.54 -0.71,0.49 -0.68,1.14c-0.17,-0.93 -0.61,-0.74 -1.13,-1.53c-0.12,0.61 -0.6,1.1 -0.46,1.72c-0.62,-0.34 -0.84,-0.19 -1.77,-0.1c0.38,1.01 0.9,1.32 2.11,1.91c0.67,0.33 0.81,1.01 0.91,2.13c-1.23,0.88 -2.22,1.96 -2.84,3.13c-2.71,5.18 -2.54,13.62 0.58,20.99l0,0.01l0,-0.01c0.69,1.63 1.52,3.21 2.5,4.69c-7.36,-7.73 -11.91,-17.22 -8.55,-26.89c3.25,-9.39 10.55,-14.2 20.36,-13.65c0.66,0.83 1.03,1.35 0.84,1.92c-0.3,0.95 -0.41,1.39 -0.04,2.19c0.53,-0.4 0.73,-0.42 0.86,-0.93c0.28,0.45 0.8,0.51 1.2,0.83c-0.17,-0.74 0.17,-0.83 -0.26,-1.49c0.35,0.41 0.53,0.19 0.99,0.37c-0.49,-0.95 -0.62,-1.72 -1.38,-2.31c-0.32,-0.25 -0.56,-0.37 -0.79,-0.45c1.08,0.11 2.17,0.27 3.31,0.51c1.2,0.25 2.41,0.59 3.6,1c0.51,1.47 0.77,2.37 0.06,3.15c-1.15,1.27 -1.63,1.88 -1.58,3.19c1.15,-0.38 1.49,-0.33 2.06,-1.03c0.15,0.76 0.96,1.05 1.4,1.67c0.23,-1.14 0.85,-1.16 0.6,-2.28c0.28,0.73 0.74,0.47 1.37,0.91c-0.16,-1.58 0.16,-2.75 -0.68,-3.9c-0.21,-0.29 -0.4,-0.49 -0.58,-0.66c1.51,0.69 2.95,1.52 4.27,2.46c-1.25,0.94 -2.27,3.07 -2.45,4.17c0,0 1.11,0.38 1.67,-0.52c-0.51,1.28 -0.25,1.88 0.87,2.6c-0.32,-0.98 -0.21,-1.69 0.04,-2.22c0.72,0.2 1.2,0.1 1.81,-1.49c-0.89,0.82 -1.09,0.13 -1.32,-0.51c-0.16,-0.43 -0.19,-0.87 -0.08,-1.61c1.28,0.98 2.42,2.08 3.37,3.3c-0.03,0.02 -0.05,0.03 -0.07,0.05c0.04,0.01 0.08,0.01 0.12,0.02c0.35,0.46 0.67,0.93 0.96,1.41c-0.62,0.98 -1.04,1.55 -1.73,1.57c-1.17,0.04 -1.71,0.1 -2.46,0.83c0.65,0.44 0.75,0.65 1.37,0.6c-0.39,0.48 -0.26,1.1 -0.46,1.67c0.76,-0.48 0.99,-0.15 1.56,-0.88c-0.33,0.55 0,0.66 -0.02,1.25c0.87,-0.93 1.68,-1.39 2.04,-2.47c0.3,-0.89 0.22,-1.25 0.09,-1.89c0.92,1.72 1.47,3.63 1.52,5.71c0.01,0.49 0.01,0.94 0,1.39c-1.1,-1.28 -3.47,-1.58 -4.56,-1.25c0,0 -0.07,1.59 0.89,1.87c-1.29,-0.02 -1.77,0.61 -2.16,2.39c0.82,-0.89 1.49,-1.1 2.03,-1.03c0,1.01 0.21,1.57 1.8,1.58c-0.97,-0.74 -0.39,-1.33 0.13,-1.94c0.42,-0.49 0.89,-0.77 1.85,-1c-0.27,7.1 -3.11,9.94 -7.88,11.73c0.13,-0.39 0.18,-0.82 0.1,-1.27c-0.19,-0.99 -0.99,-1.69 -2.72,-1.33c-1.73,0.35 -2.02,1.95 -3.11,2.32c-2.7,0.92 -4.41,-0.48 -1.58,-3.29c-2.06,1.14 -2.74,3.04 -1.5,4.73c0.16,0.22 0.53,0.65 0.85,0.91l-2.34,1.69l2.88,0c-0.11,0.4 -0.15,0.97 -0.16,1.23c-0.01,2.1 1.65,3.25 3.98,2.97c-3.94,-0.63 -3.36,-2.77 -0.63,-3.59c1.1,-0.34 2.27,0.78 3.88,0.06c1.62,-0.72 1.85,-1.75 1.42,-2.66c-0.16,-0.35 -0.39,-0.63 -0.66,-0.85c2.4,-0.91 4.37,-2.1 5.8,-3.91c0.11,1.16 0.06,1.91 -0.5,2.41c-1.1,0.96 -1.57,1.43 -1.73,2.74c0.96,-0.08 1.22,0.06 1.78,-0.48c0,0.78 0.6,1.28 0.85,2.01c0.36,-1.07 0.85,-0.93 0.82,-2.1c0.11,0.8 0.52,0.66 0.95,1.25c0.12,-1.6 0.55,-2.68 0.05,-4.03c-0.48,-1.35 -0.91,-1.49 -1.82,-2.34c0.48,-0.7 0.89,-1.49 1.23,-2.38c0.06,0.64 0.21,1.23 0.42,1.61c0,0 1.57,-0.26 1.65,-1.25c0.25,1.26 0.95,1.61 2.78,1.61c-1.04,-0.61 -1.39,-1.23 -1.43,-1.77c1,-0.2 1.5,-0.52 1.18,-2.08c-0.52,1.1 -1.22,0.65 -1.93,0.26c-0.63,-0.34 -1.02,-0.81 -1.51,-1.96c-0.14,0.11 -0.24,0.24 -0.35,0.36c0.16,-1.04 0.24,-2.2 0.25,-3.47c0.11,0.3 0.29,0.59 0.64,0.97c0.79,0.87 1.77,0.86 3.01,1.28c-0.26,-0.56 0.02,-0.86 -0.52,-1.22c0.85,0.41 0.96,-0.05 1.9,-0.01c-0.43,-0.46 -0.54,-1.13 -1.12,-1.39c0.64,-0.3 0.65,-0.56 1.12,-1.37c-1.04,-0.29 -1.59,-0.04 -2.78,0.58c-0.67,0.36 -1.32,0.06 -2.3,-0.54c-0.16,-2.6 -0.98,-4.88 -2.27,-6.87c1.15,0.32 1.88,0.73 2.17,1.64c0.63,2.01 0.98,2.89 2.43,3.69c0.34,-1.44 0.61,-1.75 0.23,-2.79c0.91,0.34 1.76,-0.31 2.72,-0.37c-1.08,-0.97 -0.7,-1.61 -2.08,-2.08c0.98,0.18 0.99,-0.46 1.88,-0.82c-1.82,-0.86 -2.88,-1.94 -4.68,-1.81c-1.72,0.12 -2.12,0.63 -3.38,1.52c-0.9,-1.17 -1.94,-2.23 -3.11,-3.17c1.21,0.38 1.59,0.69 3.03,0.42c1.48,-0.28 2.19,-1.27 3.54,-2.25c-0.76,-0.08 -0.86,-0.53 -1.63,-0.2c1.05,-0.62 0.65,-1 1.4,-1.91c-0.78,0.15 -1.56,-0.13 -2.26,0.29c0.17,-0.82 -0.09,-0.98 -0.56,-1.93c-1.08,0.86 -1.24,1.56 -1.47,3.12c-0.15,0.94 -1.03,1.41 -2.53,2.1c-1.43,-1.09 -3.01,-2.02 -4.65,-2.79c1.61,0.68 3.76,-0.46 4.41,-1.39c0,0 -0.87,-1.34 -1.74,-1.03c0.96,-0.7 0.95,-1.48 0.2,-3.13c-0.09,1.17 -0.46,1.72 -0.9,1.96c-0.59,-0.82 -1.07,-1.16 -2.25,-0.28c1.14,0.06 1.06,0.86 1.03,1.65c-0.03,0.7 -0.25,1.23 -1,2.1c-2.18,-1 -4.45,-1.73 -6.63,-2.19c-2.26,-0.48 -4.43,-0.72 -6.48,-0.72c-3.72,0 -7.05,0.79 -9.93,2.29c-0.61,-1.76 -3.1,-3.7 -4.4,-4.21c0,0 -0.68,1.14 0.23,2.01c-1.36,-0.9 -2.1,-0.77 -3.17,0.3c1.19,-0.1 1.99,0.2 2.53,0.62c-0.38,0.76 -0.37,1.32 1.31,2.42c-0.74,-1.21 0.09,-1.26 0.87,-1.35c0.59,-0.08 1.17,0.02 2.17,0.46c-4.24,2.36 -7.47,6.35 -9.37,11.84c-4.66,13.43 5.2,26.44 17.08,35.16c-2.47,-0.81 -4.95,-1.06 -7.52,-1.3c-1.44,-0.14 -2.95,-0.29 -4.54,-0.54c-0.35,-0.96 -0.53,-1.56 -0.18,-2.04c0.58,-0.81 0.81,-1.19 0.72,-2.07c-0.64,0.21 -0.83,0.17 -1.11,0.61c-0.13,-0.5 -0.6,-0.73 -0.89,-1.15c-0.07,0.75 -0.41,0.74 -0.21,1.49c-0.2,-0.5 -0.45,-0.34 -0.82,-0.65c0.17,1.05 0.05,1.82 0.59,2.61c0.48,0.72 0.78,0.8 1.38,1.1c-0.43,-0.07 -0.86,-0.15 -1.31,-0.24c0,0 0,-0.01 0.01,-0.01c-0.01,0 -0.01,0 -0.02,0.01c-1.37,-0.29 -2.81,-0.69 -4.31,-1.24c0.8,-0.75 1.19,-0.89 1.53,-2.01c0.35,-1.13 -0.16,-1.97 -0.43,-3.24c-0.35,0.5 -0.75,0.41 -0.78,1.06c-0.09,-0.94 -0.54,-0.79 -0.98,-1.63c-0.17,0.6 -0.7,1.04 -0.62,1.67c-0.59,-0.39 -0.82,-0.27 -1.75,-0.27c0.27,1.05 0.77,1.4 1.91,2.1c0.64,0.39 0.72,1.07 0.7,2.17c-1.3,-0.5 -2.65,-1.12 -4.06,-1.9c-0.7,-0.38 -1.35,-0.81 -1.95,-1.28c0.09,-1 0.28,-1.51 0.66,-2c0.48,-0.61 0.93,-1.27 1.68,-0.42c-0.18,-1.58 -0.69,-1.7 -1.57,-1.56c-0.12,-0.52 -0.01,-1.22 0.68,-2.16c-1.51,0.64 -2,1.21 -1.85,2.49c-0.34,-0.92 -1.72,-0.61 -1.72,-0.61c-0.1,0.66 0.04,1.74 0.42,2.7c-1.37,-1.51 -2.4,-3.32 -3.09,-5.44c1.96,0.18 4.68,-1.71 5.54,-2.9c0,0 -1.01,-1.15 -2.12,-0.55c1.25,-1.05 1.28,-1.87 0.44,-3.4c-0.18,1.27 -0.68,1.98 -1.24,2.37c-0.69,-0.69 -1.27,-0.9 -2.79,0.41c1.42,-0.3 1.27,0.58 1.18,1.43c-0.06,0.7 -0.34,1.29 -1.14,2.27c-0.11,-0.36 -0.2,-0.74 -0.29,-1.12c0,0 0,-0.01 0.01,-0.01c-0.01,0 -0.01,0 -0.02,0c-0.45,-1.92 -0.65,-4.05 -0.6,-6.4c1.19,-1.14 1.94,-1.8 2.82,-1.61c1.44,0.3 2.1,0.39 3.24,-0.27c-0.64,-0.73 -0.69,-1.01 -1.46,-1.13c0.63,-0.47 0.67,-1.25 1.09,-1.89c-1.07,0.35 -1.25,-0.12 -2.17,0.6c0.57,-0.57 0.22,-0.8 0.43,-1.5c-1.34,0.86 -2.46,1.17 -3.25,2.38c-0.38,0.59 -0.54,0.99 -0.62,1.39c0.23,-4.04 0.65,-7.52 1.64,-10.62c0.21,0.39 0.51,0.74 0.95,0.98c0.82,0.47 1.79,0.36 2.56,-1.01c0.77,-1.37 -0.2,-2.51 0.19,-3.46c0.94,-2.34 2.95,-2.66 3.27,0.91c0.41,-2.05 -0.54,-3.64 -2.48,-3.82c-0.24,-0.03 -0.77,-0.04 -1.15,0.02l0.19,-2.56l-1.71,1.92c-0.22,-0.31 -0.6,-0.68 -0.79,-0.84c-1.48,-1.27 -3.28,-0.84 -4.46,0.88c2.77,-2.25 3.95,-0.59 2.93,1.72c-0.41,0.93 -1.91,1.04 -2.35,2.55c-0.44,1.5 0.15,2.28 1.06,2.54c0.46,0.13 0.91,0.11 1.32,0c-0.6,1.86 -1,3.83 -1.26,5.98c-0.17,-1.27 -0.66,-2.6 -1.11,-3.25c0,0 -1.06,0.49 -0.84,1.53c-0.52,-1.28 -1.12,-1.53 -2.43,-1.29c0.91,0.49 1.32,1.08 1.5,1.64c-0.66,0.35 -0.94,0.76 -0.29,2.33c0.08,-1.21 0.7,-0.85 1.31,-0.55c0.55,0.28 0.95,0.7 1.62,1.83c0,-0.01 0,-0.03 0.01,-0.04c-0.09,1.02 -0.15,2.09 -0.21,3.19c0,-0.02 -0.01,-0.03 -0.01,-0.04c-0.4,-1.08 -1.27,-1.46 -2.2,-2.32c0.03,0.6 -0.32,0.75 0.04,1.28c-0.61,-0.7 -0.86,-0.34 -1.67,-0.75c0.22,0.57 0.09,1.21 0.51,1.66c-0.67,0.01 -0.77,0.24 -1.45,0.75c0.81,0.67 1.38,0.68 2.63,0.6c0.81,-0.05 1.29,0.62 2.1,1.77l0,-0.01c0.05,1.73 0.23,3.34 0.56,4.83c-1.38,-0.22 -2.21,-0.44 -2.55,-1.37c-0.6,-1.61 -0.91,-2.32 -2.09,-2.89c-0.2,1.2 -0.4,1.48 -0.05,2.3c-0.73,-0.22 -1.37,0.37 -2.13,0.47c0.91,0.74 0.64,1.29 1.74,1.59c-0.78,-0.09 -0.76,0.44 -1.44,0.79c1.47,0.6 2.36,1.42 3.77,1.21c1.46,-0.21 1.67,-0.72 2.86,-1.68c0.64,2.58 1.74,4.76 3.27,6.55c-1.61,-0.41 -2.56,-0.69 -2.87,-1.54c-0.5,-1.38 -0.78,-1.99 -1.94,-2.61c-0.28,0.93 -0.5,1.13 -0.19,1.84c-0.73,-0.28 -1.41,0.1 -2.18,0.08c0.87,0.71 0.56,1.12 1.66,1.52c-0.78,-0.19 -0.8,0.24 -1.5,0.43c1.44,0.68 2.29,1.47 3.74,1.5c1.63,0.03 1.77,-0.43 3.36,-1.12c1.11,1.28 2.44,2.36 4,3.23c0.45,0.25 0.89,0.47 1.33,0.69c-1.15,0.43 -1.79,0.48 -2.49,0.3c-0.84,-0.22 -1.71,-0.38 -1.2,-1.58c-1.51,0.94 -1.4,1.54 -0.84,2.41c-0.48,0.37 -1.24,0.58 -2.5,0.3c1.34,1.3 2.14,1.55 3.37,0.78c-0.76,0.8 0.18,2.12 0.18,2.12c1.33,-0.39 3.7,-2.31 3.71,-4.22c0.94,0.46 1.86,0.86 2.74,1.19c0,0.02 0,0.03 0,0.04c0.01,-0.01 0.02,-0.02 0.03,-0.03c1.46,0.55 2.85,0.95 4.19,1.25c-1.1,0.83 -1.83,1.28 -2.61,1.02c-1.39,-0.45 -2.04,-0.61 -3.25,-0.07c0.57,0.79 0.59,1.08 1.34,1.28c-0.67,0.4 -0.79,1.17 -1.28,1.77c1.09,-0.25 1.22,0.24 2.21,-0.38c-0.62,0.51 -0.29,0.78 -0.58,1.45c1.43,-0.72 2.57,-0.91 3.48,-2.02c0.95,-1.17 0.8,-1.6 1.1,-2.96c1.61,0.34 3.14,0.54 4.59,0.7c-0.15,0.06 -0.31,0.12 -0.49,0.22c-1.02,0.54 -1.28,1.45 -2.01,2.49c0.59,-0.11 0.78,0.21 1.26,-0.21c-0.61,0.7 -0.22,0.9 -0.52,1.75c0.53,-0.29 1.18,-0.24 1.58,-0.72c0.09,0.66 0.33,0.73 0.93,1.34c0.56,-0.89 0.49,-1.46 0.25,-2.69c-0.14,-0.69 0.31,-1.21 1.11,-1.97c3.19,0.31 6.08,0.62 8.97,1.96c1.7,1.18 3.43,2.27 5.15,3.25c1.57,0.9 3.22,1.76 4.96,2.66c1.43,0.74 2.89,1.49 4.34,2.3c-5.83,-2.28 -12.7,-3.71 -17.53,-3.71c-0.64,0 -1.23,0.02 -1.79,0.07c-2.75,0.25 -6.42,0.98 -10.09,2.34c-4.76,-3.22 -8.21,-3.53 -11.01,-3.56c-4.16,-0.05 -5.55,2.08 -4.25,3.92c0.78,1.1 3.08,1.13 5.65,0.03c3.09,-1.33 5.96,-1.28 9.6,-0.38c-2.5,0.93 -5,2.16 -7.2,3.73c-4.39,-0.49 -6.9,0.46 -8.86,1.38c-2.97,1.4 -3.18,3.35 -1.58,4.17c0.96,0.49 2.61,-0.29 4.02,-1.94c1.62,-1.87 3.56,-2.83 6.23,-3.47c-3.56,2.61 -6.32,6.14 -6.99,10.83c-0.7,4.93 0.43,9.42 3.19,12.64c2.26,2.63 5.36,4.11 8.72,4.14c0.05,0 0.09,0 0.14,0c3.57,0 6.74,-1.65 8.49,-4.43c1.78,-2.83 1.85,-6.39 0.18,-9.76c-1.75,-3.54 -4.73,-5.51 -8.26,-5.45c-3,0.07 -5.72,1.73 -6.77,4.13c-0.84,1.9 -0.87,4.15 -0.09,5.99c0.7,1.65 1.99,2.86 3.73,3.51c2.15,0.8 4.31,0.33 5.49,-1.19c1.08,-1.39 1.03,-3.3 -0.1,-5.03c-0.42,-0.85 -1.29,-1.43 -2.3,-1.43c-1.43,0 -2.59,1.15 -2.59,2.58c0,1.43 1.16,2.58 2.59,2.58c1.25,0 2.29,-0.89 2.53,-2.07c0.31,1.11 0.15,2.19 -0.52,3.06c-1.05,1.35 -2.98,1.76 -4.93,1.03c-1.61,-0.6 -2.8,-1.72 -3.44,-3.23c-0.72,-1.7 -0.68,-3.84 0.09,-5.6c0.97,-2.23 3.51,-3.76 6.32,-3.83c0.06,0 0.13,0 0.19,0c3.22,0 5.99,1.87 7.62,5.17c1.58,3.21 1.52,6.59 -0.17,9.28c-1.68,2.66 -4.73,4.26 -8.19,4.19c-3.22,-0.03 -6.18,-1.44 -8.35,-3.97c-2.66,-3.11 -3.76,-7.46 -3.07,-12.24c1.24,-8.69 9.89,-13.32 17.34,-15.37c-2.85,1.46 -3.95,3.21 -4.72,4.7c-1.17,2.29 -0.41,3.83 0.94,3.77c0.82,-0.04 1.47,-1.31 1.58,-3.13c0.13,-2.16 0.93,-3.72 2.38,-5.39c2.4,-0.65 4.66,-1.03 6.5,-1.2c0.96,-0.09 2.04,-0.09 3.21,-0.03c-4.23,1.89 -6.05,4.01 -7.38,5.82c-2.05,2.77 -1.24,4.53 0.67,4.38c1.14,-0.09 2.27,-1.62 2.75,-3.78c0.55,-2.51 1.91,-4.39 4.16,-6.41c3.28,0.2 7.23,0.93 11.08,2.06c-5.19,0.27 -8,1.92 -10.19,3.43c-3.42,2.36 -3.32,4.91 -1.2,5.66c1.28,0.45 3.18,-0.87 4.63,-3.25c1.68,-2.76 3.94,-4.37 7.21,-5.71c2.06,0.62 4.07,1.36 5.94,2.17c-4.8,0.37 -7.48,1.95 -9.58,3.4c-3.42,2.36 -3.32,4.9 -1.19,5.65c1.27,0.45 3.17,-0.86 4.62,-3.25c1.6,-2.63 3.74,-4.21 6.78,-5.52c0.55,0.26 1.08,0.52 1.6,0.78c1.26,0.81 2.5,1.69 3.7,2.65c-4.61,0.23 -7.11,1.61 -9.05,2.87c-3.05,1.98 -2.96,4.11 -1.07,4.74c1.14,0.38 2.83,-0.72 4.12,-2.72c1.46,-2.26 3.43,-3.59 6.24,-4.7c1.31,1.07 2.56,2.24 3.72,3.54c-3.81,0.19 -5.91,1.22 -7.53,2.17c-2.55,1.51 -2.48,3.12 -0.89,3.6c0.95,0.29 2.36,-0.55 3.45,-2.07c1.2,-1.69 2.82,-2.7 5.12,-3.53c3.34,3.79 5.97,8.71 7.19,15.51c0.22,1.23 0.42,2.54 0.57,3.88c-0.96,-2.02 -2.58,-3.83 -4.77,-5.26c0.21,0.11 0.44,0.23 0.71,0.4c-0.4,-1.39 -0.64,-2.2 -0.04,-2.83c0.92,-0.97 1.31,-1.44 1.31,-2.52c-0.91,0.24 -1.16,0.18 -1.62,0.71c-0.1,-0.62 -0.72,-0.92 -1.04,-1.45c-0.21,0.92 -0.68,0.9 -0.52,1.83c-0.2,-0.62 -0.56,-0.43 -1.04,-0.83c0.08,1.3 -0.19,2.25 0.43,3.24c0.19,0.32 0.37,0.53 0.55,0.7c-0.45,-0.25 -0.92,-0.48 -1.41,-0.7c-0.9,-0.39 -1.88,-0.73 -2.9,-1c-0.61,-1.33 -0.96,-2.12 -0.45,-2.85c0.8,-1.15 1.12,-1.69 0.95,-2.82c-0.89,0.39 -1.16,0.36 -1.55,0.99c-0.2,-0.64 -0.88,-0.85 -1.3,-1.36c-0.07,0.99 -0.57,1.03 -0.26,1.98c-0.3,-0.61 -0.64,-0.37 -1.19,-0.71c0.28,1.34 0.14,2.36 0.94,3.31c0.84,0.99 1.28,0.91 2.5,1.38c-1.53,-0.37 -3.16,-0.58 -4.81,-0.58c-0.11,0 -0.23,0.01 -0.34,0.01c0.07,-0.02 0.16,-0.02 0.23,-0.05c-1.25,-0.9 -1.71,-1.41 -1.97,-2.07c-0.29,-0.73 -0.66,-1.48 0.77,-1.42c-1.78,-0.94 -2.28,-0.68 -2.76,0.02c-0.63,-0.27 -1.28,-0.82 -1.76,-1.91c-0.42,1.45 -0.18,2.17 1.26,2.92c-1.2,-0.37 -1.87,0.77 -1.87,0.77c0.86,0.71 2.88,1.64 4.59,1.83c-1.32,0.13 -2.62,0.41 -3.87,0.84c0.02,-0.01 0.04,-0.01 0.05,-0.03c-1.02,-0.44 -1.42,-0.74 -1.71,-1.17c-0.32,-0.5 -0.7,-0.99 0.32,-1.19c-1.4,-0.38 -1.71,-0.1 -1.94,0.51c-0.49,-0.09 -1.03,-0.38 -1.54,-1.11c-0.07,1.15 0.2,1.64 1.34,1.94c-0.9,-0.07 -1.2,0.9 -1.2,0.9c0.77,0.4 2.52,0.75 3.79,0.49c-1.17,0.49 -2.29,1.13 -3.31,1.96c0.02,-0.36 -0.03,-0.72 -0.19,-1.1c-0.35,-0.8 -1.09,-1.28 -2.33,-0.77c-1.23,0.52 -1.13,1.87 -1.88,2.32c-1.85,1.1 -3.43,0.15 -1.86,-2.52c-1.33,1.19 -1.46,2.85 -0.18,4.1c0.17,0.16 0.53,0.47 0.83,0.64l-1.43,1.69l2.19,-0.35c-0.01,0.34 0.07,0.82 0.13,1.04c0.41,1.74 1.9,2.48 3.61,1.95c-3.11,-0.02 -3.11,-1.86 -1.21,-2.89c0.76,-0.42 1.88,0.37 2.95,-0.43c1.08,-0.8 1.04,-1.68 0.54,-2.39c-0.26,-0.35 -0.56,-0.59 -0.9,-0.75c1.41,-1.15 3,-1.96 4.68,-2.47c-1,0.48 -1.31,0.36 -1.9,1.13c-0.52,0.67 -0.38,1.36 -0.52,2.29c0.37,-0.25 0.62,-0.09 0.8,-0.52c-0.17,0.66 0.17,0.67 0.26,1.35c0.27,-0.36 0.74,-0.53 0.85,-0.97c0.29,0.41 0.48,0.39 1.12,0.62c0.07,-0.77 -0.18,-1.13 -0.78,-1.9c-0.39,-0.49 -0.17,-1.05 0.21,-2.01c1.09,-0.33 2.21,-0.53 3.34,-0.63c-0.06,0.02 -0.11,0.04 -0.17,0.06c-1.08,0.47 -1.38,1.41 -2.18,2.44c0.61,-0.06 0.81,0.3 1.32,-0.1c-0.66,0.68 -0.26,0.93 -0.61,1.8c0.58,-0.25 1.25,-0.14 1.68,-0.61c0.08,0.7 0.33,0.8 0.94,1.5c0.61,-0.89 0.55,-1.49 0.34,-2.81c-0.13,-0.86 0.51,-1.4 1.62,-2.3c1.52,0.11 3.01,0.38 4.38,0.79c-1.16,-0.08 -2.29,0.01 -2.96,0.21c0,0 0.17,1.32 1.42,1.44c-1.63,0.13 -2.13,0.69 -2.32,2.19c0.88,-0.81 1.69,-1.06 2.38,-1.06c0.16,0.83 0.52,1.27 2.52,1.1c-1.34,-0.5 -0.71,-1.04 -0.15,-1.6c0.45,-0.45 1.01,-0.73 2.21,-1.03c0.87,0.45 1.67,0.94 2.39,1.49c-0.16,-0.07 -0.34,-0.14 -0.57,-0.19c-1.14,-0.3 -1.95,0.25 -3.22,0.57c0.52,0.33 0.45,0.73 1.1,0.73c-0.93,0.13 -0.77,0.58 -1.59,1.05c0.61,0.15 1.08,0.66 1.71,0.56c-0.38,0.6 -0.24,0.82 -0.2,1.76c1.03,-0.33 1.36,-0.84 2.01,-2.01c0.41,-0.74 1.23,-0.78 2.6,-0.81c1.41,1.53 2.34,3.3 2.7,5.2c0.06,0.95 0.11,1.91 0.12,2.87c-0.58,0.17 -1.01,0.7 -1.01,1.34c0,0.63 0.42,1.15 0.99,1.33c-0.14,3.52 -0.7,6.83 -1.92,9.32c-1.97,4.05 -4.99,5.05 -7.16,4.64c-1.8,-0.34 -3.12,-1.8 -3.22,-3.54c-0.05,-0.95 0.48,-1.95 1.37,-2.55c0.79,-0.54 1.74,-0.63 2.63,-0.31c-0.96,0.04 -1.72,0.8 -1.72,1.74c0,0.97 0.81,1.75 1.81,1.75c0.33,0 0.64,-0.09 0.91,-0.25c0.13,-0.03 0.26,-0.09 0.38,-0.17c0.55,-0.35 0.87,-1.06 0.83,-1.81c-0.06,-0.9 -0.61,-1.65 -1.5,-2.07c-1.3,-0.61 -2.72,-0.5 -3.9,0.29c-1.17,0.79 -1.88,2.14 -1.81,3.44c0.12,2.2 1.78,4.03 4.03,4.46c2.54,0.48 6.03,-0.63 8.25,-5.19c1.19,-2.42 1.87,-5.77 2.03,-9.67l0.52,0l0,15.51c-0.79,0.1 -1.41,0.77 -1.41,1.6c0,0.89 0.72,1.62 1.62,1.62c0.03,0 0.06,0 0.09,-0.01c0.02,0.01 0.05,0.01 0.08,0.01c0.9,0 1.62,-0.73 1.62,-1.62c0,-0.83 -0.62,-1.5 -1.41,-1.6l0,-15.51l0.52,0c0.16,3.9 0.84,7.25 2.03,9.67c2.22,4.56 5.71,5.67 8.25,5.19c2.25,-0.43 3.91,-2.26 4.03,-4.46c0.07,-1.3 -0.64,-2.65 -1.81,-3.44c-1.18,-0.79 -2.6,-0.9 -3.9,-0.29c-0.89,0.42 -1.44,1.17 -1.5,2.07c-0.04,0.75 0.28,1.46 0.83,1.81c0.12,0.08 0.25,0.14 0.38,0.17c0.27,0.16 0.58,0.25 0.91,0.25c1,0 1.81,-0.78 1.81,-1.75c0,-0.94 -0.76,-1.7 -1.72,-1.74c0.89,-0.32 1.84,-0.23 2.63,0.31c0.89,0.6 1.42,1.6 1.37,2.55c-0.1,1.74 -1.42,3.2 -3.22,3.54c-2.17,0.41 -5.19,-0.59 -7.16,-4.64c-1.22,-2.49 -1.78,-5.8 -1.92,-9.32c0.57,-0.18 0.99,-0.7 0.99,-1.33c0,-0.64 -0.43,-1.17 -1.01,-1.34c0.01,-0.96 0.06,-1.92 0.12,-2.87c0.36,-1.9 1.29,-3.67 2.7,-5.2c1.37,0.03 2.19,0.07 2.6,0.81c0.65,1.17 0.98,1.68 2.01,2.01c0.04,-0.94 0.18,-1.16 -0.2,-1.76c0.63,0.1 1.1,-0.41 1.71,-0.56c-0.82,-0.47 -0.66,-0.92 -1.59,-1.05c0.65,0 0.58,-0.4 1.1,-0.73c-1.27,-0.32 -2.08,-0.87 -3.22,-0.57c-0.23,0.05 -0.41,0.12 -0.57,0.19c0.72,-0.55 1.52,-1.04 2.39,-1.49c1.2,0.3 1.76,0.58 2.21,1.03c0.56,0.56 1.19,1.1 -0.15,1.6c2,0.17 2.36,-0.27 2.52,-1.1c0.69,0 1.5,0.25 2.38,1.06c-0.19,-1.5 -0.69,-2.06 -2.31,-2.19c1.25,-0.12 1.41,-1.44 1.41,-1.44c-0.67,-0.2 -1.8,-0.29 -2.96,-0.21c1.37,-0.41 2.86,-0.68 4.38,-0.79c1.11,0.9 1.75,1.44 1.62,2.3c-0.21,1.32 -0.27,1.92 0.34,2.81c0.61,-0.7 0.86,-0.8 0.94,-1.5c0.43,0.47 1.1,0.36 1.68,0.61c-0.35,-0.87 0.05,-1.12 -0.61,-1.8c0.51,0.4 0.71,0.04 1.32,0.1c-0.8,-1.03 -1.1,-1.97 -2.18,-2.44c-0.06,-0.02 -0.11,-0.04 -0.17,-0.06c1.13,0.1 2.25,0.3 3.34,0.63c0.38,0.96 0.6,1.52 0.21,2.01c-0.6,0.77 -0.85,1.13 -0.78,1.9c0.64,-0.23 0.83,-0.21 1.12,-0.62c0.11,0.44 0.58,0.61 0.85,0.97c0.09,-0.68 0.43,-0.69 0.26,-1.35c0.18,0.43 0.43,0.27 0.8,0.52c-0.14,-0.93 0,-1.62 -0.52,-2.29c-0.59,-0.77 -0.9,-0.65 -1.9,-1.13c1.68,0.51 3.27,1.32 4.68,2.47c-0.33,0.16 -0.64,0.4 -0.9,0.75c-0.5,0.71 -0.54,1.59 0.54,2.39c1.07,0.8 2.19,0.01 2.95,0.43c1.9,1.03 1.9,2.87 -1.21,2.89c1.71,0.53 3.2,-0.21 3.61,-1.95c0.06,-0.22 0.14,-0.7 0.13,-1.04l2.19,0.35l-1.43,-1.69c0.3,-0.17 0.66,-0.48 0.83,-0.64c1.28,-1.25 1.15,-2.91 -0.18,-4.1c1.57,2.67 -0.01,3.62 -1.86,2.52c-0.75,-0.45 -0.65,-1.8 -1.88,-2.32c-1.24,-0.51 -1.98,-0.03 -2.33,0.77c-0.16,0.38 -0.21,0.74 -0.19,1.1c-1.02,-0.83 -2.14,-1.47 -3.31,-1.96c1.27,0.26 3.02,-0.09 3.79,-0.49c0,0 -0.3,-0.97 -1.2,-0.9c1.14,-0.3 1.41,-0.79 1.34,-1.94c-0.51,0.73 -1.05,1.02 -1.54,1.11c-0.23,-0.61 -0.54,-0.89 -1.94,-0.51c1.02,0.2 0.64,0.69 0.32,1.19c-0.29,0.43 -0.69,0.73 -1.71,1.17c0.01,0.02 0.03,0.02 0.05,0.03c-1.25,-0.43 -2.55,-0.71 -3.87,-0.84c1.71,-0.19 3.73,-1.12 4.59,-1.83c0,0 -0.67,-1.14 -1.87,-0.77c1.44,-0.75 1.68,-1.47 1.26,-2.92c-0.48,1.09 -1.13,1.64 -1.76,1.91c-0.48,-0.7 -0.98,-0.96 -2.75,-0.02c1.42,-0.06 1.05,0.69 0.76,1.42c-0.26,0.66 -0.72,1.17 -1.97,2.07c0.07,0.03 0.16,0.03 0.23,0.05c-0.11,0 -0.23,-0.01 -0.34,-0.01c-1.65,0 -3.28,0.21 -4.81,0.58c1.22,-0.47 1.66,-0.39 2.5,-1.38c0.8,-0.95 0.66,-1.97 0.94,-3.31c-0.55,0.34 -0.89,0.1 -1.19,0.71c0.31,-0.95 -0.19,-0.99 -0.26,-1.98c-0.42,0.51 -1.1,0.72 -1.3,1.36c-0.39,-0.63 -0.66,-0.6 -1.55,-0.99c-0.17,1.13 0.15,1.67 0.95,2.82c0.51,0.73 0.16,1.52 -0.45,2.85c-1.02,0.27 -2,0.61 -2.9,1c-0.49,0.22 -0.96,0.45 -1.41,0.7c0.18,-0.17 0.36,-0.38 0.55,-0.7c0.62,-0.99 0.35,-1.94 0.43,-3.24c-0.48,0.4 -0.84,0.21 -1.04,0.83c0.16,-0.93 -0.31,-0.91 -0.52,-1.83c-0.32,0.53 -0.94,0.83 -1.04,1.45c-0.46,-0.53 -0.71,-0.47 -1.62,-0.71c0,1.08 0.39,1.55 1.31,2.52c0.6,0.63 0.36,1.44 -0.04,2.83c0.27,-0.17 0.5,-0.29 0.71,-0.4c-2.19,1.43 -3.81,3.24 -4.77,5.26c0.15,-1.34 0.35,-2.65 0.57,-3.88c1.22,-6.8 3.85,-11.72 7.19,-15.51c2.3,0.83 3.92,1.84 5.12,3.53c1.09,1.52 2.5,2.36 3.45,2.07c1.59,-0.48 1.66,-2.09 -0.89,-3.6c-1.62,-0.95 -3.72,-1.98 -7.53,-2.17c1.16,-1.3 2.42,-2.47 3.72,-3.54c2.81,1.11 4.78,2.44 6.24,4.7c1.29,2 2.98,3.1 4.12,2.72c1.89,-0.63 1.98,-2.76 -1.07,-4.74c-1.94,-1.26 -4.44,-2.64 -9.05,-2.87c1.2,-0.96 2.44,-1.84 3.7,-2.65c0.52,-0.26 1.05,-0.52 1.6,-0.78c3.04,1.31 5.18,2.89 6.78,5.52c1.45,2.39 3.35,3.7 4.62,3.25c2.13,-0.75 2.23,-3.29 -1.19,-5.65c-2.1,-1.45 -4.78,-3.03 -9.58,-3.4c1.87,-0.81 3.88,-1.55 5.94,-2.17c3.27,1.34 5.53,2.95 7.21,5.71c1.45,2.38 3.35,3.7 4.63,3.25c2.12,-0.75 2.22,-3.3 -1.2,-5.66c-2.19,-1.51 -5,-3.16 -10.19,-3.43c3.85,-1.13 7.8,-1.86 11.08,-2.06c2.25,2.02 3.61,3.9 4.16,6.41c0.48,2.16 1.61,3.69 2.75,3.78c1.91,0.15 2.72,-1.61 0.67,-4.38c-1.33,-1.81 -3.15,-3.93 -7.38,-5.82c1.17,-0.06 2.25,-0.06 3.21,0.03c1.84,0.17 4.1,0.55 6.5,1.2c1.45,1.67 2.25,3.23 2.38,5.39c0.11,1.82 0.77,3.09 1.58,3.13c1.35,0.06 2.11,-1.48 0.94,-3.77c-0.77,-1.49 -1.87,-3.24 -4.72,-4.7c7.45,2.05 16.1,6.68 17.34,15.37c0.69,4.78 -0.41,9.13 -3.07,12.24c-2.17,2.53 -5.13,3.94 -8.35,3.97c-3.46,0.07 -6.51,-1.53 -8.19,-4.19c-1.69,-2.69 -1.75,-6.07 -0.17,-9.28c1.63,-3.3 4.4,-5.17 7.62,-5.17c0.06,0 0.13,0 0.19,0c2.81,0.07 5.35,1.6 6.32,3.83c0.77,1.76 0.81,3.9 0.09,5.6c-0.64,1.51 -1.83,2.63 -3.44,3.23c-1.95,0.73 -3.88,0.32 -4.93,-1.03c-0.67,-0.87 -0.83,-1.95 -0.52,-3.06c0.24,1.18 1.28,2.07 2.53,2.07c1.43,0 2.59,-1.15 2.59,-2.58c0,-1.43 -1.16,-2.58 -2.59,-2.58c-1.01,0 -1.88,0.58 -2.3,1.43c-1.13,1.73 -1.18,3.64 -0.1,5.03c1.18,1.52 3.34,1.99 5.49,1.19c1.74,-0.65 3.03,-1.86 3.73,-3.51c0.78,-1.84 0.75,-4.09 -0.09,-5.99c-1.05,-2.4 -3.77,-4.06 -6.77,-4.13c-3.53,-0.06 -6.51,1.91 -8.26,5.45c-1.67,3.37 -1.6,6.93 0.18,9.76c1.75,2.78 4.92,4.43 8.49,4.43c0.05,0 0.09,0 0.14,0c3.36,-0.03 6.46,-1.51 8.72,-4.14c2.76,-3.22 3.89,-7.71 3.19,-12.64c-0.67,-4.69 -3.43,-8.22 -6.99,-10.83c2.67,0.64 4.61,1.6 6.23,3.47c1.41,1.65 3.06,2.43 4.02,1.94c1.6,-0.82 1.39,-2.77 -1.58,-4.17c-1.96,-0.92 -4.47,-1.87 -8.86,-1.38c-2.2,-1.57 -4.7,-2.8 -7.2,-3.73c3.64,-0.9 6.51,-0.95 9.6,0.38c2.57,1.1 4.87,1.07 5.65,-0.03c1.3,-1.84 -0.09,-3.97 -4.25,-3.92c-2.8,0.03 -6.25,0.34 -11.01,3.56c-3.67,-1.36 -7.34,-2.09 -10.09,-2.34c-0.56,-0.05 -1.15,-0.07 -1.79,-0.07c-4.83,0 -11.7,1.43 -17.53,3.71c1.45,-0.81 2.91,-1.56 4.34,-2.3c1.74,-0.9 3.39,-1.76 4.96,-2.66c1.72,-0.98 3.45,-2.07 5.15,-3.25c2.89,-1.34 5.78,-1.65 8.97,-1.96c0.8,0.76 1.25,1.28 1.11,1.97c-0.24,1.23 -0.31,1.8 0.25,2.69c0.6,-0.61 0.84,-0.68 0.93,-1.34c0.4,0.48 1.05,0.43 1.58,0.72c-0.3,-0.85 0.09,-1.05 -0.52,-1.75c0.48,0.42 0.67,0.1 1.26,0.21c-0.73,-1.04 -0.99,-1.95 -2.01,-2.49c-0.18,-0.1 -0.34,-0.16 -0.49,-0.22c1.45,-0.16 2.98,-0.36 4.59,-0.7c0.3,1.36 0.15,1.79 1.1,2.96c0.91,1.11 2.05,1.3 3.48,2.02c-0.29,-0.67 0.04,-0.94 -0.58,-1.45c0.99,0.62 1.12,0.13 2.21,0.38c-0.49,-0.6 -0.61,-1.37 -1.28,-1.77c0.75,-0.2 0.77,-0.49 1.34,-1.28c-1.21,-0.54 -1.86,-0.38 -3.25,0.07c-0.78,0.26 -1.51,-0.19 -2.61,-1.02c1.34,-0.3 2.73,-0.7 4.19,-1.25c0.01,0.01 0.02,0.02 0.03,0.03c0,-0.01 0,-0.02 0,-0.04c0.88,-0.33 1.8,-0.73 2.74,-1.19c0.01,1.91 2.38,3.83 3.71,4.22c0,0 0.94,-1.32 0.18,-2.12c1.23,0.77 2.03,0.52 3.37,-0.78c-1.26,0.28 -2.02,0.07 -2.5,-0.3c0.56,-0.87 0.67,-1.47 -0.84,-2.41c0.51,1.2 -0.36,1.36 -1.2,1.58c-0.7,0.18 -1.34,0.13 -2.49,-0.3c0.44,-0.22 0.88,-0.44 1.33,-0.69c1.56,-0.87 2.89,-1.95 4,-3.23c1.59,0.69 1.73,1.15 3.36,1.12c1.45,-0.03 2.3,-0.82 3.74,-1.5c-0.7,-0.19 -0.72,-0.62 -1.5,-0.43c1.1,-0.4 0.79,-0.81 1.66,-1.52c-0.77,0.02 -1.45,-0.36 -2.18,-0.08c0.31,-0.71 0.09,-0.91 -0.19,-1.84c-1.16,0.62 -1.44,1.23 -1.94,2.61c-0.31,0.85 -1.26,1.13 -2.87,1.54c1.53,-1.79 2.63,-3.97 3.27,-6.55c1.19,0.96 1.4,1.47 2.86,1.68c1.41,0.21 2.3,-0.61 3.77,-1.21c-0.68,-0.35 -0.66,-0.88 -1.44,-0.79c1.1,-0.3 0.83,-0.85 1.74,-1.59c-0.76,-0.1 -1.4,-0.69 -2.13,-0.47Z" style="fill-rule:nonzero;"/><path d="M2.1,77.33c-0.35,0.82 -0.15,1.1 0.05,2.3c1.18,-0.57 1.49,-1.28 2.09,-2.89c0.34,-0.93 1.17,-1.15 2.55,-1.37c-0.33,1.49 -0.51,3.1 -0.56,4.83l0,-0.01c-0.81,1.15 -1.29,1.82 -2.1,1.77c-1.25,-0.08 -1.82,-0.07 -2.63,0.6c0.68,0.51 0.78,0.74 1.45,0.75c-0.42,0.45 -0.29,1.09 -0.51,1.66c0.81,-0.41 1.06,-0.05 1.67,-0.75c-0.36,0.53 -0.01,0.68 -0.04,1.28c0.93,-0.86 1.8,-1.24 2.2,-2.32c0,-0.01 0.01,-0.02 0.01,-0.04c0.06,1.1 0.12,2.17 0.21,3.19c-0.01,-0.01 -0.01,-0.03 -0.01,-0.04c-0.67,1.13 -1.07,1.55 -1.62,1.83c-0.61,0.3 -1.23,0.66 -1.31,-0.55c-0.65,1.57 -0.37,1.98 0.29,2.33c-0.18,0.56 -0.59,1.15 -1.5,1.64c1.31,0.24 1.91,-0.01 2.43,-1.29c-0.22,1.04 0.84,1.53 0.84,1.53c0.45,-0.65 0.94,-1.98 1.11,-3.25c0.26,2.15 0.66,4.12 1.26,5.98c-0.41,-0.11 -0.86,-0.13 -1.32,0c-0.91,0.26 -1.5,1.04 -1.06,2.54c0.44,1.51 1.94,1.62 2.35,2.55c1.02,2.31 -0.16,3.97 -2.93,1.72c1.18,1.72 2.98,2.15 4.46,0.88c0.19,-0.16 0.57,-0.53 0.79,-0.84l1.71,1.92l-0.19,-2.56c0.38,0.06 0.91,0.05 1.15,0.02c1.94,-0.18 2.89,-1.77 2.48,-3.82c-0.32,3.57 -2.33,3.25 -3.27,0.91c-0.39,-0.95 0.58,-2.09 -0.19,-3.46c-0.77,-1.37 -1.74,-1.48 -2.56,-1.01c-0.44,0.24 -0.74,0.59 -0.95,0.98c-0.99,-3.1 -1.41,-6.58 -1.64,-10.62c0.08,0.4 0.24,0.8 0.62,1.39c0.79,1.21 1.91,1.52 3.25,2.38c-0.21,-0.7 0.14,-0.93 -0.43,-1.5c0.92,0.72 1.1,0.25 2.17,0.6c-0.42,-0.64 -0.46,-1.42 -1.09,-1.89c0.77,-0.12 0.82,-0.4 1.46,-1.13c-1.14,-0.66 -1.8,-0.57 -3.24,-0.27c-0.88,0.19 -1.63,-0.47 -2.82,-1.61c-0.05,-2.35 0.15,-4.48 0.6,-6.4c0.01,0 0.01,0 0.02,0c-0.01,0 -0.01,-0.01 -0.01,-0.01c0.09,-0.38 0.18,-0.76 0.29,-1.12c0.8,0.98 1.08,1.57 1.14,2.27c0.09,0.85 0.24,1.73 -1.18,1.43c1.52,1.31 2.1,1.1 2.79,0.41c0.56,0.39 1.06,1.1 1.24,2.37c0.84,-1.53 0.81,-2.35 -0.44,-3.4c1.11,0.6 2.12,-0.55 2.12,-0.55c-0.86,-1.19 -3.58,-3.08 -5.54,-2.9c0.69,-2.12 1.72,-3.93 3.09,-5.44c-0.38,0.96 -0.52,2.04 -0.42,2.7c0,0 1.38,0.31 1.72,-0.61c-0.15,1.28 0.34,1.85 1.85,2.49c-0.69,-0.94 -0.8,-1.64 -0.68,-2.16c0.88,0.14 1.39,0.02 1.57,-1.56c-0.75,0.85 -1.2,0.19 -1.68,-0.42c-0.38,-0.49 -0.57,-1 -0.66,-2c0.6,-0.47 1.25,-0.9 1.95,-1.28c1.41,-0.78 2.76,-1.4 4.06,-1.9c0.02,1.1 -0.06,1.78 -0.7,2.17c-1.14,0.7 -1.64,1.05 -1.91,2.1c0.93,0 1.16,0.12 1.75,-0.27c-0.08,0.63 0.45,1.07 0.62,1.67c0.44,-0.84 0.89,-0.69 0.98,-1.63c0.03,0.65 0.43,0.56 0.78,1.06c0.27,-1.27 0.78,-2.11 0.43,-3.24c-0.34,-1.12 -0.73,-1.26 -1.53,-2.01c1.5,-0.55 2.94,-0.95 4.31,-1.24c0.01,0.01 0.01,0.01 0.02,0.01c-0.01,0 -0.01,-0.01 -0.01,-0.01c0.45,-0.09 0.88,-0.17 1.31,-0.24c-0.6,0.3 -0.9,0.38 -1.38,1.1c-0.54,0.79 -0.42,1.56 -0.59,2.61c0.37,-0.31 0.62,-0.15 0.82,-0.65c-0.2,0.75 0.14,0.74 0.21,1.49c0.29,-0.42 0.76,-0.65 0.89,-1.15c0.28,0.44 0.47,0.4 1.11,0.61c0.09,-0.88 -0.14,-1.26 -0.72,-2.07c-0.35,-0.48 -0.17,-1.08 0.18,-2.04c1.59,-0.25 3.1,-0.4 4.54,-0.54c2.57,-0.24 5.05,-0.49 7.52,-1.3c-11.88,8.72 -21.74,21.73 -17.08,35.16c1.9,5.49 5.13,9.48 9.37,11.84c-1,0.44 -1.58,0.54 -2.17,0.46c-0.78,-0.09 -1.61,-0.14 -0.87,-1.35c-1.68,1.1 -1.69,1.66 -1.31,2.42c-0.54,0.42 -1.34,0.72 -2.53,0.62c1.07,1.07 1.81,1.2 3.17,0.3c-0.91,0.87 -0.23,2.01 -0.23,2.01c1.3,-0.51 3.79,-2.45 4.4,-4.21c2.88,1.5 6.21,2.29 9.93,2.29c2.05,0 4.22,-0.24 6.48,-0.72c2.18,-0.46 4.45,-1.19 6.63,-2.19c0.75,0.87 0.97,1.4 1,2.1c0.03,0.79 0.11,1.59 -1.03,1.65c1.18,0.88 1.66,0.54 2.25,-0.28c0.44,0.24 0.81,0.79 0.9,1.96c0.75,-1.65 0.76,-2.43 -0.2,-3.13c0.87,0.31 1.74,-1.03 1.74,-1.03c-0.65,-0.93 -2.8,-2.07 -4.41,-1.39c1.64,-0.77 3.22,-1.7 4.65,-2.79c1.5,0.69 2.38,1.16 2.53,2.1c0.23,1.56 0.39,2.26 1.47,3.12c0.47,-0.95 0.73,-1.11 0.56,-1.93c0.7,0.42 1.48,0.14 2.26,0.29c-0.75,-0.91 -0.35,-1.29 -1.4,-1.91c0.77,0.33 0.87,-0.12 1.63,-0.2c-1.35,-0.98 -2.06,-1.97 -3.54,-2.25c-1.44,-0.27 -1.82,0.04 -3.03,0.42c1.17,-0.94 2.21,-2 3.11,-3.17c1.26,0.89 1.66,1.4 3.38,1.52c1.8,0.13 2.86,-0.95 4.68,-1.81c-0.89,-0.36 -0.9,-1 -1.88,-0.82c1.38,-0.47 1,-1.11 2.08,-2.08c-0.96,-0.06 -1.81,-0.71 -2.72,-0.37c0.38,-1.04 0.11,-1.35 -0.23,-2.79c-1.45,0.8 -1.8,1.68 -2.43,3.69c-0.29,0.91 -1.02,1.32 -2.17,1.64c1.29,-1.99 2.11,-4.27 2.27,-6.87c0.98,-0.6 1.63,-0.9 2.3,-0.54c1.19,0.62 1.74,0.87 2.78,0.58c-0.47,-0.81 -0.48,-1.07 -1.12,-1.37c0.58,-0.26 0.69,-0.93 1.12,-1.39c-0.94,0.05 -1.05,-0.42 -1.9,-0.01c0.54,-0.36 0.26,-0.66 0.52,-1.22c-1.24,0.42 -2.22,0.41 -3.01,1.28c-0.35,0.38 -0.53,0.67 -0.64,0.97c-0.01,-1.27 -0.09,-2.43 -0.25,-3.47c0.11,0.12 0.21,0.25 0.35,0.36c0.49,-1.15 0.88,-1.62 1.51,-1.96c0.71,-0.39 1.41,-0.84 1.93,0.26c0.32,-1.56 -0.18,-1.88 -1.18,-2.08c0.04,-0.54 0.39,-1.16 1.43,-1.77c-1.83,0 -2.53,0.35 -2.78,1.61c-0.08,-0.99 -1.65,-1.25 -1.65,-1.25c-0.21,0.38 -0.36,0.97 -0.42,1.61c-0.34,-0.89 -0.75,-1.68 -1.23,-2.38c0.91,-0.85 1.34,-0.99 1.82,-2.34c0.5,-1.35 0.07,-2.43 -0.05,-4.03c-0.43,0.59 -0.84,0.45 -0.95,1.25c0.03,-1.17 -0.46,-1.03 -0.82,-2.1c-0.25,0.73 -0.85,1.23 -0.85,2.01c-0.56,-0.54 -0.82,-0.4 -1.78,-0.48c0.16,1.31 0.63,1.79 1.73,2.74c0.56,0.5 0.61,1.25 0.5,2.41c-1.43,-1.81 -3.4,-3 -5.8,-3.91c0.27,-0.22 0.5,-0.5 0.66,-0.85c0.43,-0.91 0.2,-1.94 -1.42,-2.66c-1.61,-0.72 -2.78,0.4 -3.88,0.06c-2.73,-0.82 -3.31,-2.96 0.63,-3.59c-2.33,-0.28 -3.99,0.87 -3.98,2.97c0.01,0.26 0.05,0.83 0.16,1.23l-2.88,0l2.34,1.69c-0.32,0.26 -0.69,0.7 -0.85,0.91c-1.24,1.69 -0.56,3.59 1.5,4.73c-2.83,-2.81 -1.12,-4.21 1.58,-3.29c1.09,0.37 1.38,1.97 3.11,2.32c1.73,0.36 2.53,-0.34 2.72,-1.33c0.08,-0.45 0.03,-0.88 -0.1,-1.27c4.77,1.79 7.61,4.63 7.88,11.73c-0.96,-0.23 -1.43,-0.51 -1.85,-1c-0.52,-0.61 -1.1,-1.2 -0.13,-1.94c-1.59,0.01 -1.8,0.57 -1.8,1.58c-0.54,0.07 -1.21,-0.14 -2.03,-1.03c0.39,1.78 0.87,2.41 2.16,2.39c-0.96,0.28 -0.89,1.87 -0.89,1.87c1.09,0.33 3.46,0.03 4.56,-1.25c0.01,0.45 0.01,0.9 0,1.39c-0.05,2.08 -0.6,3.99 -1.52,5.71c0.13,-0.64 0.21,-1 -0.09,-1.89c-0.36,-1.08 -1.17,-1.54 -2.04,-2.47c0.02,0.59 -0.31,0.7 0.02,1.25c-0.57,-0.73 -0.8,-0.4 -1.56,-0.88c0.2,0.57 0.07,1.19 0.46,1.67c-0.62,-0.05 -0.72,0.16 -1.37,0.6c0.75,0.73 1.29,0.79 2.46,0.83c0.69,0.02 1.11,0.59 1.73,1.57c-0.29,0.48 -0.61,0.95 -0.96,1.41c-0.04,0.01 -0.08,0.01 -0.12,0.02c0.02,0.02 0.04,0.03 0.07,0.05c-0.95,1.22 -2.09,2.32 -3.37,3.3c-0.11,-0.74 -0.08,-1.18 0.08,-1.61c0.23,-0.64 0.43,-1.33 1.32,-0.51c-0.61,-1.59 -1.09,-1.69 -1.81,-1.49c-0.25,-0.53 -0.36,-1.24 -0.04,-2.22c-1.12,0.72 -1.38,1.32 -0.87,2.6c-0.56,-0.9 -1.67,-0.52 -1.67,-0.52c0.18,1.1 1.2,3.23 2.45,4.17c-1.32,0.94 -2.76,1.77 -4.27,2.46c0.18,-0.17 0.37,-0.37 0.58,-0.66c0.84,-1.15 0.52,-2.32 0.68,-3.9c-0.63,0.44 -1.09,0.18 -1.37,0.91c0.25,-1.12 -0.37,-1.14 -0.6,-2.28c-0.44,0.62 -1.25,0.91 -1.4,1.67c-0.57,-0.7 -0.91,-0.65 -2.06,-1.03c-0.05,1.31 0.43,1.92 1.58,3.19c0.71,0.78 0.45,1.68 -0.06,3.15c-1.19,0.41 -2.4,0.75 -3.6,1c-1.14,0.24 -2.23,0.4 -3.31,0.51c0.23,-0.08 0.47,-0.2 0.79,-0.45c0.76,-0.59 0.89,-1.36 1.38,-2.31c-0.46,0.18 -0.64,-0.04 -0.99,0.37c0.43,-0.66 0.09,-0.75 0.26,-1.49c-0.4,0.32 -0.92,0.38 -1.2,0.83c-0.13,-0.51 -0.33,-0.53 -0.86,-0.93c-0.37,0.8 -0.26,1.24 0.04,2.19c0.19,0.57 -0.18,1.09 -0.84,1.92c-9.81,0.55 -17.11,-4.26 -20.36,-13.65c-3.36,-9.67 1.19,-19.16 8.55,-26.89c-0.98,1.48 -1.81,3.06 -2.5,4.69c-3.12,7.37 -3.29,15.81 -0.58,20.99c0.62,1.17 1.61,2.25 2.84,3.13c-0.1,1.12 -0.24,1.8 -0.91,2.13c-1.21,0.59 -1.73,0.9 -2.11,1.91c0.93,0.09 1.15,0.24 1.77,-0.1c-0.14,0.62 0.34,1.11 0.46,1.72c0.52,-0.79 0.96,-0.6 1.13,-1.53c-0.03,0.65 0.37,0.6 0.68,1.14c0.38,-1.25 0.97,-2.04 0.74,-3.19c-0.14,-0.66 -0.32,-0.99 -0.59,-1.32c1.15,0.65 2.43,1.14 3.77,1.41c0.54,0.1 1.07,0.16 1.61,0.2c-1.06,0.71 -1.58,0.85 -2.15,2.1c-0.59,1.3 -0.05,2.38 0.12,3.96c0.53,-0.56 1.03,-0.39 1.16,-1.16c-0.01,1.14 0.59,1.03 1.04,2.11c0.31,-0.7 1.05,-1.15 1.04,-1.92c0.7,0.57 1.02,0.46 2.23,0.6c-0.22,-1.3 -0.81,-1.8 -2.2,-2.81c-0.79,-0.59 -0.78,-1.46 -0.6,-2.85c0.05,0 0.1,0.01 0.15,0.01c1.18,0 2.33,-0.19 3.44,-0.53c0.51,0.56 0.69,0.94 0.74,1.39c0.06,0.56 0.16,1.14 -0.71,1.13c0.94,0.68 1.29,0.46 1.71,-0.1c0.35,0.19 0.66,0.6 0.78,1.43c0.5,-1.14 0.48,-1.69 -0.29,-2.23c0.68,0.26 1.29,-0.65 1.29,-0.65c-0.42,-0.54 -1.55,-1.21 -2.59,-1.3c1.01,-0.4 1.98,-0.95 2.88,-1.64c0.01,0.45 0.11,0.89 0.4,1.3c0.51,0.73 1.41,1 2.7,0.06c1.29,-0.94 0.96,-2.34 1.72,-3.05c1.88,-1.75 3.79,-1.26 2.48,2.08c1.28,-1.69 1.16,-3.49 -0.47,-4.4c-0.21,-0.12 -0.67,-0.34 -1.02,-0.42l1.31,-2.25l-2.37,1.08c-0.05,-0.36 -0.22,-0.85 -0.31,-1.06c-0.74,-1.71 -2.52,-2.02 -4.33,-0.92c3.46,-0.96 3.75,0.99 1.81,2.68c-0.78,0.69 -2.14,0.21 -3.21,1.4c-1.07,1.19 -0.89,2.11 -0.21,2.7c0.32,0.27 0.68,0.42 1.06,0.5c-2.05,1.52 -4.42,2.3 -6.89,2.28c0,-0.01 0,-0.02 0.01,-0.04c-0.02,0.02 -0.04,0.03 -0.05,0.04c-0.72,-0.01 -1.45,-0.07 -2.18,-0.21c-0.24,-0.05 -0.48,-0.12 -0.72,-0.18c0.31,0.01 0.67,-0.02 1.15,-0.13c1.41,-0.31 2.09,-1.25 3.37,-2.2c-0.73,-0.05 -0.82,-0.46 -1.56,-0.13c1.01,-0.61 0.63,-0.94 1.34,-1.81c-0.75,0.17 -1.5,-0.07 -2.16,0.35c0.16,-0.76 -0.09,-0.91 -0.54,-1.77c-1.02,0.84 -1.17,1.49 -1.39,2.94c-0.14,0.86 -0.95,1.31 -2.32,1.98c-2.04,-0.96 -3.73,-2.42 -4.61,-4.1c-0.57,-1.09 -1,-2.34 -1.31,-3.69c1.19,0.6 1.7,1.01 2.04,1.58c0.42,0.67 0.9,1.34 -0.51,1.52c1.91,0.63 2.35,0.28 2.71,-0.49c0.67,0.16 1.4,0.59 2.06,1.58c0.17,-1.5 -0.19,-2.16 -1.74,-2.66c1.24,0.17 1.71,-1.07 1.71,-1.07c-1.29,-0.74 -4.63,-1.49 -6.31,-0.67c-0.43,-1.98 -0.59,-4.16 -0.46,-6.44c0.43,1.19 0.45,1.72 1.52,2.57c1.12,0.89 2.3,0.62 3.87,0.83c-0.41,-0.65 -0.13,-1.09 -0.85,-1.4c1.11,0.29 1.15,-0.33 2.3,-0.51c-0.6,-0.47 -0.86,-1.29 -1.61,-1.47c0.72,-0.54 0.68,-0.88 1.11,-2.01c-1.31,-0.1 -1.94,0.35 -3.25,1.45c-0.79,0.66 -1.66,0.4 -3.05,-0.15c0.25,-3.05 1,-6.23 2.25,-9.25c0.62,0.89 0.94,1.5 0.63,2.18c-0.54,1.22 -0.75,1.79 -0.39,2.81c0.77,-0.53 1.03,-0.56 1.29,-1.21c0.3,0.56 0.98,0.63 1.46,1.02c-0.11,-0.93 0.35,-1.07 -0.11,-1.9c0.39,0.52 0.67,0.23 1.25,0.44c-0.51,-1.2 -0.56,-2.18 -1.48,-2.91c-0.94,-0.76 -1.34,-0.62 -2.5,-0.81c1.17,-2.71 2.74,-5.26 4.73,-7.45c2.3,-2.11 4.8,-4.03 7.35,-5.78c-1.55,2.95 -1.71,4.87 -1.73,6.4c-0.03,2.29 1.02,2.8 1.93,1.87c0.54,-0.56 0.56,-1.83 0.01,-3.11c-0.64,-1.52 -0.62,-3.1 -0.18,-5.18c1.58,-1.09 3.18,-2.12 4.79,-3.04c0.24,-0.14 0.5,-0.27 0.75,-0.41c-1.63,3.2 -1.72,5.35 -1.65,7.07c0.09,2.63 1.4,3.28 2.46,2.26c0.63,-0.61 0.57,-2.07 -0.16,-3.57c-0.86,-1.75 -0.94,-3.52 -0.55,-5.81c1.3,-0.72 2.64,-1.43 4.07,-2.17c0.68,-0.35 1.37,-0.71 2.06,-1.07c-1.85,3.67 -2.02,6.13 -2.01,8.09c0.02,3.05 1.45,3.76 2.67,2.54c0.73,-0.73 0.72,-2.42 -0.05,-4.14c-0.89,-1.96 -0.92,-3.98 -0.45,-6.58c4.17,-2.2 8.45,-4.65 12.12,-8.14c-1.31,2.66 -1.46,4.45 -1.48,5.89c-0.03,2.29 1.02,2.8 1.93,1.87c0.54,-0.56 0.56,-1.83 0.02,-3.11c-0.62,-1.44 -0.62,-2.94 -0.25,-4.86c1.4,-1.37 2.72,-2.89 3.9,-4.61c-1.36,3.23 -1.36,5.56 -1.23,7.48c0.24,3.34 1.99,4.22 3.34,2.97c0.81,-0.75 0.68,-2.6 -0.35,-4.54c-1.15,-2.16 -1.36,-4.32 -1.01,-7.05c2.03,-3.26 3.61,-7.19 4.49,-12.08c0.6,-3.33 0.92,-6.55 0.98,-9.52l0.48,0l0,28.31c0,0.64 0.01,1.35 0.04,2.07c0,0.13 0,0.28 0,0.41c-0.25,6.17 -1.57,16.23 -7.46,18.54c-3.23,1.26 -6.25,1.27 -8.52,0.05c-1.68,-0.91 -2.83,-2.46 -3.23,-4.37c-0.42,-2 0.34,-4.42 1.91,-6.01c1.29,-1.32 2.92,-1.89 4.59,-1.57c1.58,0.3 2.72,1.02 3.39,2.14c0.85,1.42 0.74,3.22 0.46,4.08c-0.23,0.73 -0.75,1.35 -1.37,1.65c-0.53,0.24 -1.09,0.25 -1.67,0.03c-0.06,-0.02 -0.1,-0.05 -0.14,-0.07c0.12,0.03 0.25,0.05 0.38,0.05c0.87,0 1.58,-0.71 1.58,-1.58c0,-0.88 -0.71,-1.59 -1.58,-1.59c-0.12,0 -0.24,0.02 -0.35,0.04c-0.6,0.02 -1.11,0.4 -1.32,1.09c-0.28,0.91 0.06,2.06 1.24,2.52c0.71,0.28 1.43,0.26 2.07,-0.04c0.75,-0.36 1.36,-1.08 1.64,-1.95c0.26,-0.81 0.49,-2.8 -0.51,-4.48c-0.75,-1.26 -2,-2.06 -3.73,-2.38c-1.83,-0.34 -3.63,0.26 -5.04,1.71c-1.67,1.71 -2.49,4.31 -2.04,6.46c0.43,2.06 1.67,3.73 3.49,4.71c1.19,0.64 2.57,0.96 4.07,0.96c1.52,0 3.16,-0.33 4.86,-0.99c4.48,-1.75 6.45,-7.52 7.27,-13.22c0,6.26 0.01,14.16 0.02,21.61c0,0.39 -0.01,0.77 -0.01,1.15c-0.01,10.95 -0.01,21.34 0,24.55c-0.77,0.1 -1.37,0.75 -1.37,1.56c0,0.87 0.71,1.58 1.58,1.58c0.02,0 0.03,-0.01 0.05,-0.01c0.01,0 0.02,0.01 0.04,0.01c0.87,0 1.58,-0.71 1.58,-1.58c0,-0.81 -0.6,-1.46 -1.37,-1.56c0.01,-3.21 0.01,-13.6 0,-24.55c0,-0.38 0,-0.76 0,-1.15c0,-7.45 0.01,-15.35 0.01,-21.61c0.82,5.7 2.79,11.47 7.27,13.22c1.7,0.66 3.34,0.99 4.86,0.99c1.5,0 2.88,-0.32 4.07,-0.96c1.82,-0.98 3.06,-2.65 3.49,-4.71c0.45,-2.15 -0.37,-4.75 -2.04,-6.46c-1.41,-1.45 -3.21,-2.05 -5.04,-1.71c-1.73,0.32 -2.98,1.12 -3.73,2.38c-1,1.68 -0.77,3.67 -0.51,4.48c0.28,0.87 0.89,1.59 1.64,1.95c0.64,0.3 1.36,0.32 2.07,0.04c1.18,-0.46 1.52,-1.61 1.24,-2.52c-0.21,-0.69 -0.72,-1.07 -1.32,-1.09c-0.11,-0.02 -0.23,-0.04 -0.35,-0.04c-0.87,0 -1.58,0.71 -1.58,1.59c0,0.87 0.71,1.58 1.58,1.58c0.13,0 0.26,-0.02 0.38,-0.05c-0.04,0.02 -0.08,0.05 -0.14,0.07c-0.58,0.22 -1.14,0.21 -1.67,-0.03c-0.62,-0.3 -1.14,-0.92 -1.37,-1.65c-0.28,-0.86 -0.39,-2.66 0.46,-4.08c0.67,-1.12 1.81,-1.84 3.39,-2.14c1.67,-0.32 3.3,0.25 4.59,1.57c1.57,1.59 2.33,4.01 1.91,6.01c-0.4,1.91 -1.55,3.46 -3.23,4.37c-2.27,1.22 -5.29,1.21 -8.52,-0.05c-5.89,-2.31 -7.21,-12.37 -7.46,-18.54c0,-0.13 0,-0.28 0,-0.41c0.03,-0.72 0.04,-1.43 0.04,-2.07l0,-28.31l0.48,0c0.06,2.97 0.38,6.19 0.98,9.52c0.88,4.89 2.46,8.82 4.49,12.08c0.35,2.73 0.14,4.89 -1.01,7.05c-1.03,1.94 -1.16,3.79 -0.35,4.54c1.35,1.25 3.1,0.37 3.34,-2.97c0.13,-1.92 0.13,-4.25 -1.23,-7.48c1.18,1.72 2.5,3.24 3.9,4.61c0.37,1.92 0.37,3.42 -0.25,4.86c-0.54,1.28 -0.52,2.55 0.02,3.11c0.91,0.93 1.96,0.42 1.93,-1.87c-0.02,-1.44 -0.17,-3.23 -1.48,-5.89c3.67,3.49 7.95,5.94 12.12,8.14c0.47,2.6 0.44,4.62 -0.45,6.58c-0.77,1.72 -0.78,3.41 -0.05,4.14c1.22,1.22 2.65,0.51 2.67,-2.54c0.01,-1.96 -0.16,-4.42 -2.01,-8.09c0.69,0.36 1.38,0.72 2.06,1.07c1.43,0.74 2.77,1.45 4.07,2.17c0.39,2.29 0.31,4.06 -0.55,5.81c-0.73,1.5 -0.79,2.96 -0.16,3.57c1.06,1.02 2.37,0.37 2.46,-2.26c0.07,-1.72 -0.02,-3.87 -1.65,-7.07c0.25,0.14 0.51,0.27 0.75,0.41c1.61,0.92 3.21,1.95 4.79,3.04c0.44,2.08 0.46,3.66 -0.18,5.18c-0.55,1.28 -0.53,2.55 0.01,3.11c0.91,0.93 1.96,0.42 1.93,-1.87c-0.02,-1.53 -0.17,-3.45 -1.73,-6.4c2.55,1.75 5.05,3.67 7.35,5.78c1.99,2.19 3.56,4.74 4.73,7.45c-1.16,0.19 -1.56,0.05 -2.5,0.81c-0.92,0.73 -0.97,1.71 -1.48,2.91c0.58,-0.21 0.86,0.08 1.25,-0.44c-0.46,0.83 0,0.97 -0.11,1.9c0.48,-0.39 1.16,-0.46 1.46,-1.02c0.26,0.65 0.52,0.68 1.29,1.21c0.36,-1.02 0.15,-1.59 -0.39,-2.81c-0.31,-0.68 0.01,-1.29 0.63,-2.18c1.25,3.02 2,6.2 2.25,9.25c-1.39,0.55 -2.26,0.81 -3.05,0.15c-1.31,-1.1 -1.94,-1.55 -3.25,-1.45c0.43,1.13 0.39,1.47 1.11,2.01c-0.75,0.18 -1.01,1 -1.61,1.47c1.15,0.18 1.19,0.8 2.3,0.51c-0.72,0.31 -0.44,0.75 -0.85,1.4c1.57,-0.21 2.75,0.06 3.87,-0.83c1.07,-0.85 1.09,-1.38 1.52,-2.57c0.13,2.28 -0.03,4.46 -0.46,6.44c-1.68,-0.82 -5.02,-0.07 -6.31,0.67c0,0 0.47,1.24 1.71,1.07c-1.55,0.5 -1.91,1.16 -1.74,2.66c0.66,-0.99 1.39,-1.42 2.06,-1.58c0.36,0.77 0.8,1.12 2.71,0.49c-1.41,-0.18 -0.93,-0.85 -0.51,-1.52c0.34,-0.57 0.85,-0.98 2.04,-1.58c-0.31,1.35 -0.74,2.6 -1.31,3.69c-0.88,1.68 -2.57,3.14 -4.61,4.1c-1.37,-0.67 -2.18,-1.12 -2.32,-1.98c-0.22,-1.45 -0.37,-2.1 -1.39,-2.94c-0.45,0.86 -0.7,1.01 -0.54,1.77c-0.66,-0.42 -1.41,-0.18 -2.16,-0.35c0.71,0.87 0.33,1.2 1.34,1.81c-0.74,-0.33 -0.83,0.08 -1.56,0.13c1.28,0.95 1.96,1.89 3.37,2.2c0.48,0.11 0.84,0.14 1.15,0.13c-0.24,0.06 -0.48,0.13 -0.72,0.18c-0.73,0.14 -1.46,0.2 -2.18,0.21c-0.01,-0.01 -0.03,-0.02 -0.05,-0.04c0.01,0.02 0.01,0.03 0.01,0.04c-2.47,0.02 -4.84,-0.76 -6.89,-2.28c0.38,-0.08 0.74,-0.23 1.06,-0.5c0.68,-0.59 0.86,-1.51 -0.21,-2.7c-1.07,-1.19 -2.43,-0.71 -3.21,-1.4c-1.94,-1.69 -1.65,-3.64 1.81,-2.68c-1.81,-1.1 -3.59,-0.79 -4.33,0.92c-0.09,0.21 -0.26,0.7 -0.31,1.06l-2.37,-1.08l1.31,2.25c-0.35,0.08 -0.81,0.3 -1.02,0.42c-1.63,0.91 -1.75,2.71 -0.47,4.4c-1.31,-3.34 0.6,-3.83 2.48,-2.08c0.76,0.71 0.43,2.11 1.72,3.05c1.29,0.94 2.19,0.67 2.7,-0.06c0.29,-0.41 0.39,-0.85 0.4,-1.3c0.9,0.69 1.87,1.24 2.88,1.64c-1.04,0.09 -2.17,0.76 -2.59,1.3c0,0 0.61,0.91 1.3,0.65c-0.78,0.54 -0.8,1.09 -0.3,2.23c0.12,-0.83 0.43,-1.24 0.78,-1.43c0.42,0.56 0.77,0.78 1.71,0.1c-0.87,0.01 -0.77,-0.57 -0.71,-1.13c0.05,-0.45 0.23,-0.83 0.74,-1.39c1.11,0.34 2.26,0.53 3.44,0.53c0.05,0 0.1,-0.01 0.15,-0.01c0.18,1.39 0.19,2.26 -0.6,2.85c-1.39,1.01 -1.98,1.51 -2.2,2.81c1.21,-0.14 1.53,-0.03 2.23,-0.6c-0.01,0.77 0.73,1.22 1.04,1.92c0.45,-1.08 1.05,-0.97 1.04,-2.11c0.13,0.77 0.63,0.6 1.16,1.16c0.17,-1.58 0.71,-2.66 0.12,-3.96c-0.57,-1.25 -1.09,-1.39 -2.15,-2.1c0.54,-0.04 1.07,-0.1 1.61,-0.2c1.34,-0.27 2.62,-0.76 3.77,-1.41c-0.27,0.33 -0.45,0.66 -0.59,1.32c-0.23,1.15 0.36,1.94 0.74,3.19c0.31,-0.54 0.71,-0.49 0.68,-1.14c0.17,0.93 0.61,0.74 1.13,1.53c0.12,-0.61 0.6,-1.1 0.46,-1.72c0.62,0.34 0.84,0.19 1.77,0.1c-0.38,-1.01 -0.9,-1.32 -2.11,-1.91c-0.67,-0.33 -0.81,-1.01 -0.91,-2.13c1.23,-0.88 2.22,-1.96 2.84,-3.13c2.71,-5.18 2.54,-13.62 -0.58,-20.99c-0.69,-1.63 -1.51,-3.21 -2.5,-4.69c7.36,7.73 11.91,17.22 8.55,26.89c-3.25,9.39 -10.55,14.2 -20.36,13.65c-0.66,-0.83 -1.03,-1.35 -0.84,-1.92c0.3,-0.95 0.41,-1.39 0.04,-2.19c-0.53,0.4 -0.73,0.42 -0.86,0.93c-0.28,-0.45 -0.8,-0.51 -1.2,-0.83c0.17,0.74 -0.17,0.83 0.26,1.49c-0.35,-0.41 -0.53,-0.19 -0.99,-0.37c0.49,0.95 0.62,1.72 1.38,2.31c0.32,0.25 0.56,0.37 0.79,0.45c-1.08,-0.11 -2.17,-0.27 -3.31,-0.51c-1.2,-0.25 -2.41,-0.59 -3.6,-1c-0.51,-1.47 -0.77,-2.37 -0.06,-3.15c1.15,-1.27 1.63,-1.88 1.58,-3.19c-1.15,0.38 -1.49,0.33 -2.06,1.03c-0.15,-0.76 -0.96,-1.05 -1.4,-1.67c-0.23,1.14 -0.85,1.16 -0.6,2.28c-0.28,-0.73 -0.74,-0.47 -1.37,-0.91c0.16,1.58 -0.16,2.75 0.68,3.9c0.21,0.29 0.4,0.49 0.58,0.66c-1.51,-0.69 -2.95,-1.52 -4.27,-2.46c1.25,-0.94 2.27,-3.07 2.45,-4.17c0,0 -1.11,-0.38 -1.67,0.52c0.51,-1.28 0.25,-1.88 -0.87,-2.6c0.32,0.98 0.21,1.69 -0.04,2.22c-0.72,-0.2 -1.2,-0.1 -1.81,1.49c0.89,-0.82 1.09,-0.13 1.32,0.51c0.16,0.43 0.19,0.87 0.08,1.61c-1.28,-0.98 -2.42,-2.08 -3.37,-3.3c0.03,-0.02 0.05,-0.03 0.07,-0.05c-0.04,-0.01 -0.08,-0.01 -0.12,-0.02c-0.35,-0.46 -0.67,-0.93 -0.96,-1.41c0.62,-0.98 1.04,-1.55 1.73,-1.57c1.17,-0.04 1.71,-0.1 2.46,-0.83c-0.65,-0.44 -0.75,-0.65 -1.37,-0.6c0.39,-0.48 0.26,-1.1 0.46,-1.67c-0.76,0.48 -0.99,0.15 -1.56,0.88c0.33,-0.55 0,-0.66 0.02,-1.25c-0.87,0.93 -1.68,1.39 -2.04,2.47c-0.3,0.89 -0.22,1.25 -0.09,1.89c-0.92,-1.72 -1.47,-3.63 -1.52,-5.71c-0.01,-0.49 -0.01,-0.94 0,-1.39c1.1,1.28 3.47,1.58 4.56,1.25c0,0 0.07,-1.59 -0.89,-1.87c1.29,0.02 1.77,-0.61 2.16,-2.39c-0.82,0.89 -1.49,1.1 -2.03,1.03c0,-1.01 -0.21,-1.57 -1.8,-1.58c0.97,0.74 0.39,1.33 -0.13,1.94c-0.42,0.49 -0.89,0.77 -1.85,1c0.27,-7.1 3.11,-9.94 7.88,-11.73c-0.13,0.39 -0.18,0.82 -0.1,1.27c0.19,0.99 0.99,1.69 2.72,1.33c1.73,-0.35 2.02,-1.95 3.11,-2.32c2.7,-0.92 4.41,0.48 1.58,3.29c2.06,-1.14 2.74,-3.04 1.5,-4.73c-0.16,-0.21 -0.53,-0.65 -0.85,-0.91l2.34,-1.69l-2.88,0c0.11,-0.4 0.15,-0.97 0.16,-1.23c0.01,-2.1 -1.65,-3.25 -3.98,-2.97c3.94,0.63 3.36,2.77 0.63,3.59c-1.1,0.34 -2.27,-0.78 -3.88,-0.06c-1.62,0.72 -1.85,1.75 -1.42,2.66c0.16,0.35 0.39,0.63 0.66,0.85c-2.4,0.91 -4.36,2.1 -5.8,3.91c-0.11,-1.16 -0.06,-1.91 0.5,-2.41c1.1,-0.95 1.57,-1.43 1.73,-2.74c-0.96,0.08 -1.22,-0.06 -1.78,0.48c0,-0.78 -0.6,-1.28 -0.85,-2.01c-0.36,1.07 -0.85,0.93 -0.82,2.1c-0.11,-0.8 -0.52,-0.66 -0.95,-1.25c-0.12,1.6 -0.55,2.68 -0.05,4.03c0.48,1.35 0.91,1.49 1.82,2.34c-0.48,0.7 -0.89,1.49 -1.23,2.38c-0.06,-0.64 -0.21,-1.23 -0.42,-1.61c0,0 -1.57,0.26 -1.65,1.25c-0.25,-1.26 -0.95,-1.61 -2.78,-1.61c1.04,0.61 1.39,1.23 1.43,1.77c-1,0.2 -1.5,0.52 -1.18,2.08c0.52,-1.1 1.22,-0.65 1.93,-0.26c0.63,0.34 1.02,0.81 1.51,1.96c0.14,-0.11 0.24,-0.24 0.35,-0.36c-0.16,1.04 -0.24,2.2 -0.25,3.47c-0.11,-0.3 -0.29,-0.59 -0.64,-0.97c-0.79,-0.87 -1.77,-0.86 -3.01,-1.28c0.26,0.56 -0.02,0.86 0.52,1.22c-0.85,-0.41 -0.96,0.06 -1.9,0.01c0.43,0.46 0.54,1.13 1.12,1.39c-0.64,0.3 -0.65,0.56 -1.12,1.37c1.04,0.29 1.59,0.04 2.78,-0.58c0.67,-0.36 1.32,-0.06 2.3,0.54c0.16,2.6 0.98,4.88 2.27,6.87c-1.15,-0.32 -1.88,-0.73 -2.17,-1.64c-0.63,-2.01 -0.98,-2.89 -2.43,-3.69c-0.34,1.44 -0.61,1.75 -0.23,2.79c-0.91,-0.34 -1.76,0.31 -2.72,0.37c1.08,0.97 0.7,1.61 2.08,2.08c-0.98,-0.18 -0.99,0.46 -1.88,0.82c1.82,0.86 2.88,1.94 4.68,1.81c1.72,-0.12 2.12,-0.63 3.38,-1.52c0.9,1.17 1.94,2.23 3.11,3.17c-1.21,-0.38 -1.59,-0.69 -3.03,-0.42c-1.48,0.28 -2.19,1.27 -3.54,2.25c0.76,0.08 0.86,0.53 1.63,0.2c-1.05,0.62 -0.65,1 -1.4,1.91c0.78,-0.15 1.56,0.13 2.26,-0.29c-0.17,0.82 0.09,0.98 0.56,1.93c1.08,-0.86 1.24,-1.56 1.47,-3.12c0.15,-0.94 1.03,-1.41 2.53,-2.1c1.43,1.09 3.01,2.02 4.65,2.79c-1.61,-0.68 -3.76,0.46 -4.41,1.39c0,0 0.87,1.34 1.74,1.03c-0.96,0.7 -0.95,1.48 -0.2,3.13c0.09,-1.17 0.46,-1.72 0.9,-1.96c0.59,0.82 1.07,1.16 2.25,0.28c-1.14,-0.06 -1.06,-0.86 -1.03,-1.65c0.03,-0.7 0.25,-1.23 1,-2.1c2.18,1 4.45,1.73 6.63,2.19c2.26,0.48 4.43,0.72 6.48,0.72c3.72,0 7.05,-0.79 9.93,-2.29c0.61,1.76 3.1,3.7 4.4,4.21c0,0 0.68,-1.14 -0.23,-2.01c1.36,0.9 2.1,0.77 3.17,-0.3c-1.19,0.1 -1.99,-0.2 -2.53,-0.62c0.38,-0.76 0.37,-1.32 -1.31,-2.42c0.74,1.21 -0.09,1.26 -0.87,1.35c-0.59,0.08 -1.17,-0.02 -2.17,-0.46c4.24,-2.36 7.47,-6.35 9.37,-11.84c4.66,-13.43 -5.2,-26.44 -17.08,-35.16c2.47,0.81 4.95,1.06 7.52,1.3c1.44,0.14 2.95,0.29 4.54,0.54c0.35,0.96 0.53,1.56 0.18,2.04c-0.58,0.81 -0.81,1.19 -0.72,2.07c0.64,-0.21 0.83,-0.17 1.11,-0.61c0.13,0.5 0.6,0.73 0.89,1.15c0.07,-0.75 0.41,-0.74 0.21,-1.49c0.2,0.5 0.45,0.34 0.82,0.65c-0.17,-1.05 -0.05,-1.82 -0.59,-2.61c-0.48,-0.72 -0.78,-0.8 -1.38,-1.1c0.43,0.07 0.86,0.15 1.31,0.24c0,0 0,0.01 -0.01,0.01c0.01,0 0.01,0 0.02,-0.01c1.37,0.29 2.81,0.69 4.31,1.24c-0.8,0.75 -1.19,0.89 -1.53,2.01c-0.35,1.13 0.16,1.97 0.43,3.24c0.35,-0.5 0.75,-0.41 0.78,-1.06c0.09,0.94 0.54,0.79 0.98,1.63c0.17,-0.6 0.7,-1.04 0.62,-1.67c0.59,0.39 0.82,0.27 1.75,0.27c-0.27,-1.05 -0.77,-1.4 -1.91,-2.1c-0.64,-0.39 -0.72,-1.07 -0.7,-2.17c1.3,0.5 2.65,1.12 4.06,1.9c0.7,0.38 1.35,0.81 1.95,1.28c-0.09,1 -0.28,1.51 -0.66,2c-0.48,0.61 -0.93,1.27 -1.68,0.42c0.18,1.58 0.69,1.7 1.57,1.56c0.12,0.52 0.01,1.22 -0.68,2.16c1.51,-0.64 2,-1.21 1.85,-2.49c0.34,0.92 1.72,0.61 1.72,0.61c0.1,-0.66 -0.04,-1.74 -0.42,-2.7c1.37,1.51 2.4,3.32 3.09,5.44c-1.96,-0.18 -4.68,1.71 -5.54,2.9c0,0 1.01,1.15 2.12,0.55c-1.25,1.05 -1.28,1.87 -0.44,3.4c0.18,-1.27 0.68,-1.98 1.24,-2.37c0.69,0.69 1.27,0.9 2.79,-0.41c-1.42,0.3 -1.27,-0.58 -1.18,-1.43c0.06,-0.7 0.34,-1.29 1.14,-2.27c0.11,0.36 0.2,0.74 0.29,1.12c0,0 0,0.01 -0.01,0.01c0.01,0 0.01,0 0.02,0c0.45,1.92 0.65,4.05 0.6,6.4c-1.19,1.14 -1.94,1.8 -2.82,1.61c-1.44,-0.3 -2.1,-0.39 -3.24,0.27c0.64,0.73 0.69,1.01 1.46,1.13c-0.63,0.47 -0.67,1.25 -1.09,1.89c1.07,-0.35 1.25,0.12 2.17,-0.6c-0.57,0.57 -0.22,0.8 -0.43,1.5c1.34,-0.86 2.46,-1.17 3.25,-2.38c0.38,-0.59 0.54,-0.99 0.62,-1.39c-0.23,4.04 -0.65,7.52 -1.64,10.62c-0.21,-0.39 -0.51,-0.74 -0.95,-0.98c-0.82,-0.47 -1.79,-0.36 -2.56,1.01c-0.77,1.37 0.2,2.51 -0.19,3.46c-0.94,2.34 -2.95,2.66 -3.27,-0.91c-0.41,2.05 0.54,3.64 2.48,3.82c0.24,0.03 0.77,0.04 1.15,-0.02l-0.19,2.56l1.71,-1.92c0.22,0.31 0.6,0.68 0.79,0.84c1.48,1.27 3.28,0.84 4.46,-0.88c-2.77,2.25 -3.95,0.59 -2.93,-1.72c0.41,-0.93 1.91,-1.04 2.35,-2.55c0.44,-1.5 -0.15,-2.28 -1.06,-2.54c-0.46,-0.13 -0.91,-0.11 -1.32,0c0.6,-1.86 1,-3.83 1.26,-5.98c0.17,1.27 0.66,2.6 1.11,3.25c0,0 1.06,-0.49 0.84,-1.53c0.52,1.28 1.12,1.53 2.43,1.29c-0.91,-0.49 -1.32,-1.08 -1.5,-1.64c0.66,-0.35 0.94,-0.76 0.29,-2.33c-0.08,1.21 -0.7,0.85 -1.31,0.55c-0.55,-0.28 -0.95,-0.7 -1.62,-1.83c0,0.01 0,0.03 -0.01,0.04c0.09,-1.02 0.15,-2.09 0.21,-3.19c0,0.02 0.01,0.03 0.01,0.04c0.4,1.08 1.27,1.46 2.2,2.32c-0.03,-0.6 0.32,-0.75 -0.04,-1.28c0.61,0.7 0.86,0.34 1.67,0.75c-0.22,-0.57 -0.09,-1.21 -0.51,-1.66c0.67,-0.01 0.77,-0.24 1.45,-0.75c-0.81,-0.67 -1.38,-0.68 -2.63,-0.6c-0.81,0.05 -1.29,-0.62 -2.1,-1.77l0,0.01c-0.05,-1.73 -0.23,-3.34 -0.56,-4.83c1.38,0.22 2.21,0.44 2.55,1.37c0.6,1.61 0.91,2.32 2.09,2.89c0.2,-1.2 0.4,-1.48 0.05,-2.3c0.73,0.22 1.37,-0.37 2.13,-0.47c-0.91,-0.74 -0.64,-1.29 -1.74,-1.59c0.78,0.09 0.76,-0.44 1.44,-0.79c-1.47,-0.6 -2.36,-1.42 -3.77,-1.21c-1.46,0.21 -1.67,0.72 -2.86,1.68c-0.64,-2.58 -1.74,-4.76 -3.27,-6.55c1.61,0.41 2.56,0.69 2.87,1.54c0.5,1.38 0.78,1.99 1.94,2.61c0.28,-0.93 0.5,-1.13 0.19,-1.84c0.73,0.28 1.41,-0.1 2.18,-0.08c-0.87,-0.71 -0.56,-1.12 -1.66,-1.52c0.78,0.19 0.8,-0.24 1.5,-0.43c-1.44,-0.68 -2.29,-1.47 -3.74,-1.5c-1.63,-0.03 -1.77,0.43 -3.36,1.12c-1.11,-1.28 -2.44,-2.36 -4,-3.23c-0.45,-0.25 -0.89,-0.47 -1.33,-0.69c1.15,-0.43 1.79,-0.48 2.49,-0.3c0.84,0.22 1.71,0.38 1.2,1.58c1.51,-0.94 1.4,-1.54 0.84,-2.41c0.48,-0.37 1.24,-0.58 2.5,-0.3c-1.34,-1.3 -2.14,-1.55 -3.37,-0.78c0.76,-0.8 -0.18,-2.12 -0.18,-2.12c-1.33,0.39 -3.7,2.31 -3.71,4.22c-0.94,-0.46 -1.86,-0.86 -2.74,-1.19c0,-0.02 0,-0.03 0,-0.04c-0.01,0.01 -0.02,0.02 -0.03,0.03c-1.46,-0.55 -2.85,-0.95 -4.19,-1.25c1.1,-0.83 1.83,-1.28 2.61,-1.02c1.39,0.45 2.04,0.61 3.25,0.07c-0.57,-0.79 -0.59,-1.08 -1.34,-1.28c0.67,-0.4 0.79,-1.17 1.28,-1.77c-1.09,0.25 -1.22,-0.24 -2.21,0.38c0.62,-0.51 0.29,-0.78 0.58,-1.45c-1.43,0.72 -2.57,0.91 -3.48,2.02c-0.95,1.17 -0.8,1.6 -1.1,2.96c-1.61,-0.34 -3.14,-0.54 -4.59,-0.7c0.15,-0.06 0.31,-0.12 0.49,-0.22c1.02,-0.54 1.28,-1.45 2.01,-2.49c-0.59,0.11 -0.78,-0.21 -1.26,0.21c0.61,-0.7 0.22,-0.9 0.52,-1.75c-0.53,0.29 -1.18,0.24 -1.58,0.72c-0.09,-0.66 -0.33,-0.73 -0.93,-1.34c-0.56,0.89 -0.49,1.46 -0.25,2.69c0.14,0.69 -0.31,1.21 -1.11,1.97c-3.19,-0.31 -6.08,-0.62 -8.97,-1.96c-1.7,-1.18 -3.43,-2.27 -5.15,-3.25c-1.57,-0.9 -3.22,-1.76 -4.96,-2.66c-1.43,-0.74 -2.89,-1.49 -4.34,-2.3c5.83,2.28 12.7,3.71 17.53,3.71c0.64,0 1.23,-0.02 1.79,-0.07c2.75,-0.25 6.42,-0.98 10.09,-2.34c4.76,3.22 8.21,3.53 11.01,3.56c4.16,0.05 5.55,-2.08 4.25,-3.92c-0.78,-1.1 -3.08,-1.13 -5.65,-0.03c-3.09,1.33 -5.96,1.28 -9.6,0.38c2.5,-0.93 5,-2.16 7.2,-3.73c4.39,0.49 6.9,-0.46 8.86,-1.38c2.97,-1.4 3.18,-3.35 1.58,-4.16c-0.96,-0.5 -2.61,0.28 -4.02,1.93c-1.62,1.87 -3.56,2.83 -6.23,3.47c3.56,-2.61 6.32,-6.14 6.99,-10.83c0.7,-4.93 -0.43,-9.42 -3.19,-12.64c-2.26,-2.63 -5.36,-4.11 -8.72,-4.14c-0.05,0 -0.09,0 -0.14,0c-3.57,0 -6.74,1.65 -8.49,4.43c-1.78,2.83 -1.85,6.39 -0.18,9.76c1.75,3.54 4.73,5.51 8.26,5.45c3,-0.07 5.72,-1.73 6.77,-4.13c0.84,-1.9 0.87,-4.15 0.09,-5.99c-0.7,-1.65 -1.99,-2.86 -3.73,-3.51c-2.15,-0.8 -4.31,-0.33 -5.49,1.19c-1.08,1.39 -1.03,3.3 0.1,5.03c0.42,0.85 1.29,1.43 2.3,1.43c1.43,0 2.59,-1.15 2.59,-2.58c0,-1.43 -1.16,-2.58 -2.59,-2.58c-1.25,0 -2.29,0.89 -2.53,2.07c-0.31,-1.11 -0.15,-2.19 0.52,-3.06c1.05,-1.35 2.98,-1.76 4.93,-1.03c1.61,0.6 2.8,1.72 3.44,3.23c0.72,1.7 0.68,3.84 -0.09,5.6c-0.97,2.23 -3.51,3.76 -6.32,3.83c-0.06,0 -0.13,0 -0.19,0c-3.22,0 -5.99,-1.87 -7.62,-5.17c-1.58,-3.21 -1.52,-6.59 0.17,-9.28c1.68,-2.66 4.73,-4.26 8.19,-4.19c3.22,0.03 6.18,1.44 8.35,3.97c2.66,3.11 3.76,7.46 3.07,12.24c-1.24,8.69 -9.89,13.32 -17.34,15.37c2.85,-1.46 3.95,-3.21 4.72,-4.7c1.17,-2.29 0.41,-3.83 -0.94,-3.77c-0.81,0.04 -1.47,1.31 -1.58,3.13c-0.13,2.16 -0.93,3.72 -2.38,5.39c-2.4,0.65 -4.66,1.03 -6.5,1.2c-0.96,0.09 -2.04,0.09 -3.21,0.03c4.23,-1.89 6.05,-4.01 7.38,-5.82c2.05,-2.77 1.24,-4.53 -0.67,-4.38c-1.14,0.09 -2.27,1.62 -2.75,3.78c-0.55,2.52 -1.91,4.39 -4.16,6.41c-3.28,-0.2 -7.23,-0.93 -11.08,-2.06c5.19,-0.27 8,-1.92 10.19,-3.43c3.42,-2.36 3.32,-4.9 1.2,-5.65c-1.28,-0.46 -3.18,0.86 -4.63,3.25c-1.68,2.75 -3.94,4.36 -7.21,5.7c-2.06,-0.62 -4.07,-1.36 -5.94,-2.17c4.8,-0.37 7.48,-1.95 9.58,-3.4c3.42,-2.36 3.32,-4.9 1.19,-5.65c-1.27,-0.45 -3.17,0.86 -4.62,3.25c-1.6,2.63 -3.74,4.21 -6.78,5.52c-0.55,-0.26 -1.08,-0.52 -1.6,-0.78c-1.26,-0.81 -2.5,-1.69 -3.7,-2.65c4.61,-0.23 7.11,-1.61 9.05,-2.87c3.05,-1.98 2.96,-4.11 1.07,-4.74c-1.14,-0.38 -2.83,0.72 -4.12,2.72c-1.46,2.26 -3.43,3.59 -6.24,4.7c-1.3,-1.07 -2.56,-2.24 -3.72,-3.54c3.81,-0.19 5.91,-1.22 7.53,-2.17c2.55,-1.51 2.48,-3.12 0.89,-3.6c-0.95,-0.29 -2.36,0.55 -3.45,2.07c-1.2,1.69 -2.82,2.7 -5.12,3.53c-3.34,-3.79 -5.97,-8.71 -7.19,-15.51c-0.22,-1.23 -0.42,-2.54 -0.57,-3.88c0.96,2.02 2.58,3.83 4.77,5.26c-0.21,-0.11 -0.44,-0.23 -0.71,-0.4c0.4,1.39 0.64,2.2 0.04,2.83c-0.92,0.97 -1.31,1.44 -1.31,2.52c0.91,-0.24 1.16,-0.18 1.62,-0.71c0.1,0.62 0.72,0.92 1.04,1.45c0.21,-0.92 0.68,-0.9 0.52,-1.83c0.2,0.62 0.56,0.43 1.04,0.83c-0.08,-1.3 0.19,-2.25 -0.43,-3.24c-0.19,-0.32 -0.37,-0.53 -0.55,-0.7c0.45,0.25 0.92,0.48 1.41,0.7c0.9,0.39 1.88,0.73 2.9,1c0.61,1.33 0.96,2.12 0.45,2.85c-0.8,1.15 -1.12,1.69 -0.95,2.82c0.89,-0.39 1.16,-0.36 1.55,-0.99c0.2,0.64 0.88,0.85 1.3,1.36c0.07,-0.99 0.57,-1.03 0.26,-1.98c0.3,0.61 0.64,0.37 1.19,0.71c-0.28,-1.34 -0.14,-2.36 -0.94,-3.31c-0.84,-0.99 -1.28,-0.91 -2.5,-1.38c1.53,0.37 3.16,0.58 4.81,0.58c0.11,0 0.23,-0.01 0.34,-0.01c-0.07,0.02 -0.16,0.02 -0.23,0.05c1.25,0.9 1.71,1.41 1.97,2.07c0.29,0.73 0.66,1.48 -0.76,1.42c1.77,0.94 2.27,0.68 2.75,-0.02c0.63,0.27 1.28,0.82 1.76,1.91c0.42,-1.45 0.18,-2.17 -1.26,-2.92c1.2,0.37 1.87,-0.77 1.87,-0.77c-0.86,-0.71 -2.88,-1.64 -4.59,-1.83c1.32,-0.13 2.62,-0.41 3.87,-0.84c-0.02,0.01 -0.04,0.01 -0.05,0.03c1.02,0.44 1.42,0.74 1.71,1.17c0.32,0.5 0.7,0.99 -0.32,1.19c1.4,0.38 1.71,0.1 1.94,-0.51c0.49,0.09 1.03,0.38 1.54,1.11c0.07,-1.15 -0.2,-1.64 -1.34,-1.94c0.9,0.07 1.2,-0.9 1.2,-0.9c-0.77,-0.4 -2.52,-0.75 -3.79,-0.49c1.17,-0.49 2.29,-1.13 3.31,-1.96c-0.02,0.36 0.03,0.72 0.19,1.1c0.35,0.8 1.09,1.28 2.33,0.77c1.23,-0.52 1.13,-1.87 1.88,-2.32c1.85,-1.1 3.43,-0.15 1.86,2.52c1.33,-1.19 1.46,-2.85 0.18,-4.1c-0.17,-0.16 -0.53,-0.47 -0.83,-0.64l1.43,-1.69l-2.19,0.35c0.01,-0.34 -0.07,-0.82 -0.13,-1.04c-0.41,-1.74 -1.9,-2.48 -3.61,-1.95c3.11,0.02 3.11,1.86 1.21,2.89c-0.76,0.42 -1.88,-0.37 -2.95,0.43c-1.08,0.8 -1.04,1.68 -0.54,2.39c0.26,0.35 0.57,0.59 0.9,0.75c-1.41,1.15 -3,1.96 -4.68,2.47c1,-0.48 1.31,-0.36 1.9,-1.13c0.52,-0.67 0.38,-1.36 0.52,-2.29c-0.37,0.25 -0.62,0.09 -0.8,0.52c0.17,-0.66 -0.17,-0.67 -0.26,-1.35c-0.27,0.36 -0.74,0.53 -0.85,0.97c-0.29,-0.41 -0.48,-0.39 -1.12,-0.62c-0.07,0.77 0.18,1.13 0.78,1.9c0.39,0.49 0.17,1.05 -0.21,2.01c-1.09,0.33 -2.21,0.53 -3.34,0.63c0.06,-0.02 0.11,-0.04 0.17,-0.06c1.08,-0.47 1.38,-1.41 2.18,-2.44c-0.61,0.06 -0.81,-0.3 -1.32,0.1c0.66,-0.68 0.26,-0.93 0.61,-1.8c-0.58,0.25 -1.25,0.14 -1.68,0.61c-0.08,-0.7 -0.33,-0.8 -0.94,-1.5c-0.61,0.89 -0.55,1.49 -0.34,2.81c0.13,0.86 -0.51,1.4 -1.62,2.3c-1.52,-0.11 -3.01,-0.38 -4.38,-0.79c1.16,0.08 2.29,-0.01 2.96,-0.21c0,0 -0.16,-1.32 -1.41,-1.44c1.62,-0.13 2.12,-0.69 2.31,-2.19c-0.88,0.81 -1.69,1.06 -2.38,1.06c-0.16,-0.83 -0.52,-1.27 -2.52,-1.1c1.34,0.5 0.71,1.04 0.15,1.6c-0.45,0.45 -1.01,0.73 -2.21,1.03c-0.87,-0.45 -1.67,-0.94 -2.39,-1.49c0.16,0.07 0.34,0.14 0.57,0.19c1.14,0.3 1.95,-0.25 3.22,-0.57c-0.52,-0.33 -0.45,-0.73 -1.1,-0.73c0.93,-0.13 0.77,-0.58 1.59,-1.05c-0.61,-0.15 -1.08,-0.66 -1.71,-0.56c0.38,-0.6 0.24,-0.82 0.2,-1.75c-1.03,0.32 -1.36,0.83 -2.01,2c-0.41,0.74 -1.23,0.78 -2.6,0.81c-1.41,-1.53 -2.34,-3.3 -2.7,-5.2c-0.06,-0.95 -0.11,-1.91 -0.12,-2.87c0.58,-0.17 1.01,-0.7 1.01,-1.34c0,-0.63 -0.42,-1.15 -0.99,-1.33c0.14,-3.52 0.7,-6.83 1.92,-9.32c1.97,-4.05 4.99,-5.05 7.16,-4.64c1.8,0.34 3.12,1.8 3.22,3.54c0.05,0.95 -0.48,1.95 -1.37,2.55c-0.79,0.54 -1.74,0.63 -2.63,0.31c0.96,-0.04 1.72,-0.8 1.72,-1.74c0,-0.97 -0.81,-1.75 -1.81,-1.75c-0.33,0 -0.64,0.09 -0.91,0.25c-0.13,0.03 -0.26,0.09 -0.38,0.17c-0.55,0.35 -0.87,1.06 -0.83,1.81c0.06,0.9 0.61,1.65 1.5,2.07c1.3,0.61 2.72,0.5 3.9,-0.29c1.17,-0.79 1.88,-2.14 1.81,-3.44c-0.12,-2.2 -1.78,-4.03 -4.03,-4.46c-2.54,-0.48 -6.03,0.63 -8.25,5.19c-1.19,2.42 -1.87,5.77 -2.03,9.68l-0.52,0l0,-15.52c0.79,-0.1 1.41,-0.77 1.41,-1.6c0,-0.89 -0.72,-1.62 -1.62,-1.62c-0.03,0 -0.06,0 -0.08,0.01c-0.03,-0.01 -0.06,-0.01 -0.09,-0.01c-0.9,0 -1.62,0.73 -1.62,1.62c0,0.83 0.62,1.5 1.41,1.6l0,15.52l-0.52,0c-0.16,-3.91 -0.84,-7.26 -2.03,-9.68c-2.22,-4.56 -5.71,-5.67 -8.25,-5.19c-2.25,0.43 -3.91,2.26 -4.03,4.46c-0.07,1.3 0.64,2.65 1.81,3.44c1.18,0.79 2.6,0.9 3.9,0.29c0.89,-0.42 1.44,-1.17 1.5,-2.07c0.04,-0.75 -0.28,-1.46 -0.83,-1.81c-0.12,-0.08 -0.25,-0.14 -0.38,-0.17c-0.27,-0.16 -0.58,-0.25 -0.91,-0.25c-1,0 -1.81,0.78 -1.81,1.75c0,0.94 0.76,1.7 1.72,1.74c-0.89,0.32 -1.84,0.23 -2.63,-0.31c-0.89,-0.6 -1.42,-1.6 -1.37,-2.55c0.1,-1.74 1.42,-3.2 3.22,-3.54c2.17,-0.41 5.19,0.59 7.16,4.64c1.22,2.49 1.78,5.8 1.92,9.32c-0.57,0.18 -0.99,0.7 -0.99,1.33c0,0.64 0.43,1.17 1.01,1.34c-0.01,0.96 -0.06,1.92 -0.12,2.87c-0.36,1.9 -1.29,3.67 -2.7,5.2c-1.37,-0.03 -2.19,-0.07 -2.6,-0.81c-0.65,-1.17 -0.98,-1.68 -2.01,-2c-0.04,0.93 -0.18,1.15 0.2,1.75c-0.63,-0.1 -1.1,0.41 -1.71,0.56c0.82,0.47 0.66,0.92 1.59,1.05c-0.65,0 -0.58,0.4 -1.1,0.73c1.27,0.32 2.08,0.87 3.22,0.57c0.23,-0.05 0.41,-0.12 0.57,-0.19c-0.72,0.55 -1.52,1.04 -2.39,1.49c-1.2,-0.3 -1.76,-0.58 -2.21,-1.03c-0.56,-0.56 -1.19,-1.1 0.15,-1.6c-2,-0.17 -2.36,0.27 -2.52,1.1c-0.69,0 -1.5,-0.25 -2.38,-1.06c0.19,1.5 0.69,2.06 2.32,2.19c-1.25,0.12 -1.42,1.44 -1.42,1.44c0.67,0.2 1.8,0.29 2.96,0.21c-1.37,0.41 -2.86,0.68 -4.38,0.79c-1.11,-0.9 -1.75,-1.44 -1.62,-2.3c0.21,-1.32 0.27,-1.92 -0.34,-2.81c-0.61,0.7 -0.86,0.8 -0.94,1.5c-0.43,-0.47 -1.1,-0.36 -1.68,-0.61c0.35,0.87 -0.05,1.12 0.61,1.8c-0.51,-0.4 -0.71,-0.04 -1.32,-0.1c0.8,1.03 1.1,1.97 2.18,2.44c0.06,0.02 0.11,0.04 0.17,0.06c-1.13,-0.1 -2.25,-0.3 -3.34,-0.63c-0.38,-0.96 -0.6,-1.52 -0.21,-2.01c0.6,-0.77 0.85,-1.13 0.78,-1.9c-0.64,0.23 -0.83,0.21 -1.12,0.62c-0.11,-0.44 -0.58,-0.61 -0.85,-0.97c-0.09,0.68 -0.43,0.69 -0.26,1.35c-0.18,-0.43 -0.43,-0.27 -0.8,-0.52c0.14,0.93 0,1.62 0.52,2.29c0.59,0.77 0.9,0.65 1.9,1.13c-1.68,-0.51 -3.27,-1.32 -4.68,-2.47c0.34,-0.16 0.64,-0.4 0.9,-0.75c0.5,-0.71 0.54,-1.59 -0.54,-2.39c-1.07,-0.8 -2.19,-0.01 -2.95,-0.43c-1.9,-1.03 -1.9,-2.87 1.21,-2.89c-1.71,-0.53 -3.2,0.21 -3.61,1.95c-0.06,0.22 -0.14,0.7 -0.13,1.04l-2.19,-0.35l1.43,1.69c-0.3,0.17 -0.66,0.48 -0.83,0.64c-1.28,1.25 -1.15,2.91 0.18,4.1c-1.57,-2.67 0.01,-3.62 1.86,-2.52c0.75,0.45 0.65,1.8 1.88,2.32c1.24,0.51 1.98,0.03 2.33,-0.77c0.16,-0.38 0.21,-0.74 0.19,-1.1c1.02,0.83 2.14,1.47 3.31,1.96c-1.27,-0.26 -3.02,0.09 -3.79,0.49c0,0 0.3,0.97 1.2,0.9c-1.14,0.3 -1.41,0.79 -1.34,1.94c0.51,-0.73 1.05,-1.02 1.54,-1.11c0.23,0.61 0.54,0.89 1.94,0.51c-1.02,-0.2 -0.64,-0.69 -0.32,-1.19c0.29,-0.43 0.69,-0.73 1.71,-1.17c-0.01,-0.02 -0.03,-0.02 -0.05,-0.03c1.25,0.43 2.55,0.71 3.87,0.84c-1.71,0.19 -3.73,1.12 -4.59,1.83c0,0 0.67,1.14 1.87,0.77c-1.44,0.75 -1.68,1.47 -1.26,2.92c0.48,-1.09 1.13,-1.64 1.76,-1.91c0.48,0.7 0.98,0.96 2.76,0.02c-1.43,0.06 -1.06,-0.69 -0.77,-1.42c0.26,-0.66 0.72,-1.17 1.97,-2.07c-0.07,-0.03 -0.16,-0.03 -0.23,-0.05c0.11,0 0.23,0.01 0.34,0.01c1.65,0 3.28,-0.21 4.81,-0.58c-1.22,0.47 -1.66,0.39 -2.5,1.38c-0.8,0.95 -0.66,1.97 -0.94,3.31c0.55,-0.34 0.89,-0.1 1.19,-0.71c-0.31,0.95 0.19,0.99 0.26,1.98c0.42,-0.51 1.1,-0.72 1.3,-1.36c0.39,0.63 0.66,0.6 1.55,0.99c0.17,-1.13 -0.15,-1.67 -0.95,-2.82c-0.51,-0.73 -0.16,-1.52 0.45,-2.85c1.02,-0.27 2,-0.61 2.9,-1c0.49,-0.22 0.96,-0.45 1.41,-0.7c-0.18,0.17 -0.36,0.38 -0.55,0.7c-0.62,0.99 -0.35,1.94 -0.43,3.24c0.48,-0.4 0.84,-0.21 1.04,-0.83c-0.16,0.93 0.31,0.91 0.52,1.83c0.32,-0.53 0.94,-0.83 1.04,-1.45c0.46,0.53 0.71,0.47 1.62,0.71c0,-1.08 -0.39,-1.55 -1.31,-2.52c-0.6,-0.63 -0.36,-1.44 0.04,-2.83c-0.27,0.17 -0.5,0.29 -0.71,0.4c2.19,-1.43 3.81,-3.24 4.77,-5.26c-0.15,1.34 -0.35,2.65 -0.57,3.88c-1.22,6.8 -3.85,11.72 -7.19,15.51c-2.3,-0.83 -3.92,-1.84 -5.12,-3.53c-1.09,-1.52 -2.5,-2.36 -3.45,-2.07c-1.59,0.48 -1.66,2.09 0.89,3.6c1.62,0.95 3.72,1.98 7.53,2.17c-1.16,1.3 -2.41,2.47 -3.72,3.54c-2.81,-1.11 -4.78,-2.44 -6.24,-4.7c-1.29,-2 -2.98,-3.1 -4.12,-2.72c-1.89,0.63 -1.98,2.76 1.07,4.74c1.94,1.26 4.44,2.64 9.05,2.87c-1.2,0.96 -2.44,1.84 -3.7,2.65c-0.52,0.26 -1.05,0.52 -1.6,0.78c-3.04,-1.31 -5.18,-2.89 -6.78,-5.52c-1.45,-2.39 -3.35,-3.7 -4.62,-3.25c-2.13,0.75 -2.23,3.29 1.19,5.65c2.1,1.45 4.78,3.03 9.58,3.4c-1.87,0.81 -3.88,1.55 -5.94,2.17c-3.27,-1.34 -5.53,-2.95 -7.21,-5.7c-1.45,-2.39 -3.35,-3.71 -4.63,-3.25c-2.12,0.75 -2.22,3.29 1.2,5.65c2.19,1.51 5,3.16 10.19,3.43c-3.85,1.13 -7.8,1.86 -11.08,2.06c-2.25,-2.02 -3.61,-3.89 -4.16,-6.41c-0.48,-2.16 -1.61,-3.69 -2.75,-3.78c-1.91,-0.15 -2.72,1.61 -0.67,4.38c1.33,1.81 3.15,3.93 7.38,5.82c-1.17,0.06 -2.25,0.06 -3.21,-0.03c-1.84,-0.17 -4.1,-0.55 -6.5,-1.2c-1.45,-1.67 -2.25,-3.23 -2.38,-5.39c-0.11,-1.82 -0.76,-3.09 -1.58,-3.13c-1.35,-0.06 -2.11,1.48 -0.94,3.77c0.77,1.49 1.87,3.24 4.72,4.7c-7.45,-2.05 -16.1,-6.68 -17.34,-15.37c-0.69,-4.78 0.41,-9.13 3.07,-12.24c2.17,-2.53 5.13,-3.94 8.35,-3.97c3.46,-0.07 6.51,1.53 8.19,4.19c1.69,2.69 1.75,6.07 0.17,9.28c-1.63,3.3 -4.4,5.17 -7.62,5.17c-0.06,0 -0.13,0 -0.19,0c-2.81,-0.07 -5.35,-1.6 -6.32,-3.83c-0.77,-1.76 -0.81,-3.9 -0.09,-5.6c0.64,-1.51 1.83,-2.63 3.44,-3.23c1.95,-0.73 3.88,-0.32 4.93,1.03c0.67,0.87 0.83,1.95 0.52,3.06c-0.24,-1.18 -1.28,-2.07 -2.53,-2.07c-1.43,0 -2.59,1.15 -2.59,2.58c0,1.43 1.16,2.58 2.59,2.58c1.01,0 1.88,-0.58 2.3,-1.43c1.13,-1.73 1.18,-3.64 0.1,-5.03c-1.18,-1.52 -3.34,-1.99 -5.49,-1.19c-1.74,0.65 -3.03,1.86 -3.73,3.51c-0.78,1.84 -0.75,4.09 0.09,5.99c1.05,2.4 3.77,4.06 6.77,4.13c3.53,0.06 6.51,-1.91 8.26,-5.45c1.67,-3.37 1.6,-6.93 -0.18,-9.76c-1.75,-2.78 -4.92,-4.43 -8.49,-4.43c-0.05,0 -0.09,0 -0.14,0c-3.36,0.03 -6.46,1.51 -8.72,4.14c-2.76,3.22 -3.89,7.71 -3.19,12.64c0.67,4.69 3.43,8.22 6.99,10.83c-2.67,-0.64 -4.61,-1.6 -6.23,-3.47c-1.41,-1.65 -3.06,-2.43 -4.02,-1.93c-1.6,0.81 -1.39,2.76 1.58,4.16c1.96,0.92 4.47,1.87 8.86,1.38c2.2,1.57 4.7,2.8 7.2,3.73c-3.64,0.9 -6.51,0.95 -9.6,-0.38c-2.57,-1.1 -4.87,-1.07 -5.65,0.03c-1.3,1.84 0.09,3.97 4.25,3.92c2.8,-0.03 6.25,-0.34 11.01,-3.56c3.67,1.36 7.34,2.09 10.09,2.34c0.56,0.05 1.15,0.07 1.79,0.07c4.83,0 11.7,-1.43 17.53,-3.71c-1.45,0.81 -2.91,1.56 -4.34,2.3c-1.74,0.9 -3.39,1.76 -4.96,2.66c-1.72,0.98 -3.45,2.07 -5.15,3.25c-2.89,1.34 -5.78,1.65 -8.97,1.96c-0.8,-0.76 -1.25,-1.28 -1.11,-1.97c0.24,-1.23 0.31,-1.8 -0.25,-2.69c-0.6,0.61 -0.84,0.68 -0.93,1.34c-0.4,-0.48 -1.05,-0.43 -1.58,-0.72c0.3,0.85 -0.09,1.05 0.52,1.75c-0.48,-0.42 -0.67,-0.1 -1.26,-0.21c0.73,1.04 0.99,1.95 2.01,2.49c0.18,0.1 0.34,0.16 0.49,0.22c-1.45,0.16 -2.98,0.36 -4.59,0.7c-0.3,-1.36 -0.15,-1.79 -1.1,-2.96c-0.91,-1.11 -2.05,-1.3 -3.48,-2.02c0.29,0.67 -0.04,0.94 0.58,1.45c-0.99,-0.62 -1.12,-0.13 -2.21,-0.38c0.49,0.6 0.61,1.37 1.28,1.77c-0.75,0.2 -0.77,0.49 -1.34,1.28c1.21,0.54 1.86,0.38 3.25,-0.07c0.78,-0.26 1.51,0.19 2.61,1.02c-1.34,0.3 -2.73,0.7 -4.19,1.25c-0.01,-0.01 -0.02,-0.02 -0.03,-0.03c0,0.01 0,0.02 0,0.04c-0.88,0.33 -1.8,0.73 -2.74,1.19c-0.01,-1.91 -2.38,-3.83 -3.71,-4.22c0,0 -0.94,1.32 -0.18,2.12c-1.23,-0.77 -2.03,-0.52 -3.37,0.78c1.26,-0.28 2.02,-0.07 2.5,0.3c-0.56,0.87 -0.67,1.47 0.84,2.41c-0.51,-1.2 0.36,-1.36 1.2,-1.58c0.7,-0.18 1.34,-0.13 2.49,0.3c-0.44,0.22 -0.88,0.44 -1.33,0.69c-1.56,0.87 -2.89,1.95 -4,3.23c-1.59,-0.69 -1.73,-1.15 -3.36,-1.12c-1.45,0.03 -2.3,0.82 -3.74,1.5c0.7,0.19 0.72,0.62 1.5,0.43c-1.1,0.4 -0.79,0.81 -1.66,1.52c0.77,-0.02 1.45,0.36 2.18,0.08c-0.31,0.71 -0.09,0.91 0.19,1.84c1.16,-0.62 1.44,-1.23 1.94,-2.61c0.31,-0.85 1.26,-1.13 2.87,-1.54c-1.53,1.79 -2.63,3.97 -3.27,6.55c-1.19,-0.96 -1.4,-1.47 -2.86,-1.68c-1.41,-0.21 -2.3,0.61 -3.77,1.21c0.68,0.35 0.66,0.88 1.44,0.79c-1.1,0.3 -0.83,0.85 -1.74,1.59c0.76,0.1 1.4,0.69 2.13,0.47Z" style="fill-rule:nonzero;"/></g></svg>