<?xml version="1.0" encoding="UTF-8" standalone="no"?>
<!DOCTYPE svg PUBLIC "-//W3C//DTD SVG 1.1//EN" "http://www.w3.org/Graphics/SVG/1.1/DTD/svg11.dtd">
<svg width="100%" height="100%" viewBox="0 0 950 105" version="1.1" xmlns="http://www.w3.org/2000/svg" xmlns:xlink="http://www.w3.org/1999/xlink" xml:space="preserve" xmlns:serif="http://www.serif.com/" style="fill-rule:evenodd;clip-rule:evenodd;stroke-linecap:round;stroke-linejoin:round;stroke-miterlimit:1.5;">
    <rect x="0" y="0" width="950" height="105" style="fill:#6b8aa5;"/>
    <path d="M950,105l-950,0l0,-105l950,0l0,105Zm-948.855,-1.145l947.71,0l0,-102.71l-947.71,0l0,102.71Z"/>
    <path id="prevButton_glyph" d="M2.36,87.092l30.632,-14.784l-1.266,30.002l-29.366,-15.218Z" style="fill:#0a0a0a;stroke:#000;stroke-width:1.55px;"/>
    <path id="nextButton_glyph" d="M808.895,87.004l-30,15l0,-30l30,15Z" style="fill:#0a0a0a;stroke:#000;stroke-width:1.55px;"/>
    <text id="txtScore" x="34.115px" y="95.225px" style="font-family:'BookmanOldStyle', 'Bookman Old Style', serif;font-weight:300;font-size:24px;fill:#fff;">(1 of 2) Score:</text>
    <text id="txtMessage" x="6.764px" y="24.679px" style="font-family:'BookmanOldStyle-BoldItalic', 'Bookman Old Style', serif;font-weight:600;font-style:italic;font-size:24px;fill:#fff;">Message:</text>
    <path id="btnContinue_glyph" d="M944.166,-0.044l1.974,3.853c-8.084,8.294 -17.079,21.063 -26.987,38.308c-9.907,17.244 -17.475,33.353 -22.703,48.327l-4.192,3.864c-3.475,3.298 -5.836,5.745 -7.083,7.341c-0.486,-2.416 -1.554,-6.373 -3.205,-11.872l-1.576,-5.011c-2.251,-7.194 -4.344,-12.512 -6.281,-15.954c-1.936,-3.441 -4.111,-5.726 -6.522,-6.852c4.082,-5.87 7.82,-8.808 11.214,-8.814c2.904,-0.006 6.119,5.362 9.647,16.102l1.744,5.396c6.397,-14.667 14.603,-28.926 24.618,-42.777c10.016,-13.851 19.8,-24.488 29.352,-31.911Z" style="fill-opacity:0.971429;fill-rule:nonzero;"/>
    <path id="btnHigherScore_glyph" d="M836.21,9.994l16,16.078l0,12.124l-11.733,-11.79l0,23.588l-8.535,0l0,-23.588l-11.732,11.79l0,-12.124l16,-16.078Z" style="fill-rule:nonzero;"/>
    <path id="btnLowerScore_glyph" d="M836.21,97.103l-16,-16.079l0,-12.123l11.732,11.789l0,-23.587l8.535,0l0,23.587l11.733,-11.789l0,12.123l-16,16.079Z" style="fill-rule:nonzero;"/>
    <rect id="btnHigherScore" x="820.21" y="7.487" width="32" height="42.506" style="fill:#c1d1de;fill-opacity:0.01;"/>
    <rect id="nextButton" x="775" y="70.688" width="36.24" height="32.631" style="fill:#c1d1de;fill-opacity:0.01;"/>
    <rect id="prevButton" x="1.201" y="71.184" width="32.915" height="32.631" style="fill:#c1d1de;fill-opacity:0.01;"/>
    <rect id="btnLowerScore" x="820.21" y="57.103" width="32" height="40" style="fill:#c1d1de;fill-opacity:0.01;"/>
    <rect id="btnContinue" x="872.372" y="0" width="76.641" height="103.795" style="fill:#c1d1de;fill-opacity:0.02;"/>
</svg>
