<?xml version="1.0" encoding="UTF-8" standalone="no"?><!DOCTYPE svg PUBLIC "-//W3C//DTD SVG 1.1//EN" "http://www.w3.org/Graphics/SVG/1.1/DTD/svg11.dtd"><svg width="100%" height="100%" viewBox="0 0 75 23" version="1.1" xmlns="http://www.w3.org/2000/svg" xmlns:xlink="http://www.w3.org/1999/xlink" xml:space="preserve" xmlns:serif="http://www.serif.com/" style="fill-rule:evenodd;clip-rule:evenodd;stroke-linejoin:round;stroke-miterlimit:1.41421;"><path d="M11.25,15.187l0,7.313l-11.25,-11.25l11.25,-11.25l0,7.313l63.75,0l0,-7.313l0,22.5l0,-7.313l-63.75,0Z" style="fill:#ff0101;"/><g><path d="M28.775,14.506l0,-5.619l-2.099,0l0,-0.751l5.05,0l0,0.751l-2.108,0l0,5.619l-0.843,0Z" style="fill:#fff;fill-rule:nonzero;"/><path d="M32.491,14.506l0,-6.37l0.782,0l0,2.285c0.365,-0.423 0.826,-0.634 1.382,-0.634c0.342,0 0.639,0.067 0.891,0.202c0.252,0.135 0.432,0.321 0.541,0.558c0.109,0.238 0.163,0.583 0.163,1.035l0,2.924l-0.782,0l0,-2.924c0,-0.391 -0.085,-0.676 -0.254,-0.854c-0.17,-0.178 -0.41,-0.268 -0.72,-0.268c-0.231,0 -0.449,0.061 -0.654,0.181c-0.204,0.12 -0.35,0.283 -0.436,0.489c-0.087,0.205 -0.131,0.489 -0.131,0.851l0,2.525l-0.782,0Z" style="fill:#fff;fill-rule:nonzero;"/><path d="M40.6,13.02l0.808,0.1c-0.127,0.472 -0.363,0.839 -0.708,1.1c-0.345,0.26 -0.785,0.391 -1.321,0.391c-0.675,0 -1.21,-0.208 -1.606,-0.624c-0.395,-0.416 -0.593,-0.999 -0.593,-1.749c0,-0.777 0.2,-1.379 0.6,-1.808c0.399,-0.429 0.918,-0.643 1.555,-0.643c0.618,0 1.122,0.21 1.513,0.63c0.391,0.42 0.586,1.011 0.586,1.773c0,0.046 -0.001,0.116 -0.004,0.209l-3.442,0c0.029,0.507 0.173,0.895 0.431,1.164c0.257,0.27 0.579,0.404 0.964,0.404c0.287,0 0.532,-0.075 0.735,-0.226c0.202,-0.15 0.363,-0.391 0.482,-0.721Zm-2.568,-1.264l2.577,0c-0.035,-0.389 -0.134,-0.68 -0.296,-0.874c-0.249,-0.301 -0.572,-0.452 -0.969,-0.452c-0.359,0 -0.661,0.12 -0.906,0.361c-0.245,0.24 -0.38,0.562 -0.406,0.965Z" style="fill:#fff;fill-rule:nonzero;"/><path d="M44.937,14.506l0,-6.37l1.269,0l1.508,4.51c0.139,0.42 0.24,0.735 0.304,0.943c0.073,-0.231 0.186,-0.572 0.339,-1.021l1.525,-4.432l1.135,0l0,6.37l-0.813,0l0,-5.332l-1.851,5.332l-0.761,0l-1.842,-5.423l0,5.423l-0.813,0Z" style="fill:#fff;fill-rule:nonzero;"/><path d="M55.436,13.02l0.809,0.1c-0.128,0.472 -0.364,0.839 -0.709,1.1c-0.345,0.26 -0.785,0.391 -1.321,0.391c-0.675,0 -1.21,-0.208 -1.606,-0.624c-0.395,-0.416 -0.593,-0.999 -0.593,-1.749c0,-0.777 0.2,-1.379 0.6,-1.808c0.4,-0.429 0.918,-0.643 1.556,-0.643c0.617,0 1.121,0.21 1.512,0.63c0.391,0.42 0.587,1.011 0.587,1.773c0,0.046 -0.002,0.116 -0.005,0.209l-3.441,0c0.028,0.507 0.172,0.895 0.43,1.164c0.258,0.27 0.579,0.404 0.964,0.404c0.287,0 0.532,-0.075 0.735,-0.226c0.203,-0.15 0.363,-0.391 0.482,-0.721Zm-2.568,-1.264l2.577,0c-0.035,-0.389 -0.133,-0.68 -0.296,-0.874c-0.249,-0.301 -0.572,-0.452 -0.969,-0.452c-0.359,0 -0.661,0.12 -0.906,0.361c-0.245,0.24 -0.38,0.562 -0.406,0.965Z" style="fill:#fff;fill-rule:nonzero;"/><path d="M57.227,14.506l0,-4.615l0.704,0l0,0.656c0.339,-0.507 0.828,-0.76 1.469,-0.76c0.278,0 0.533,0.05 0.767,0.15c0.233,0.1 0.407,0.231 0.523,0.393c0.116,0.162 0.197,0.355 0.244,0.578c0.029,0.145 0.043,0.398 0.043,0.761l0,2.837l-0.782,0l0,-2.807c0,-0.319 -0.031,-0.557 -0.091,-0.715c-0.061,-0.158 -0.169,-0.284 -0.324,-0.378c-0.155,-0.094 -0.337,-0.141 -0.546,-0.141c-0.333,0 -0.62,0.106 -0.862,0.317c-0.242,0.212 -0.363,0.613 -0.363,1.204l0,2.52l-0.782,0Z" style="fill:#fff;fill-rule:nonzero;"/><path d="M65.201,14.506l0,-0.678c-0.359,0.522 -0.847,0.783 -1.464,0.783c-0.273,0 -0.527,-0.053 -0.763,-0.157c-0.236,-0.104 -0.411,-0.235 -0.526,-0.393c-0.114,-0.158 -0.195,-0.351 -0.241,-0.58c-0.032,-0.154 -0.048,-0.397 -0.048,-0.73l0,-2.86l0.782,0l0,2.56c0,0.408 0.016,0.684 0.048,0.826c0.049,0.205 0.154,0.367 0.313,0.484c0.159,0.117 0.356,0.176 0.591,0.176c0.235,0 0.455,-0.06 0.661,-0.18c0.205,-0.121 0.351,-0.284 0.436,-0.491c0.086,-0.208 0.129,-0.508 0.129,-0.902l0,-2.473l0.782,0l0,4.615l-0.7,0Z" style="fill:#fff;fill-rule:nonzero;"/></g></svg>