<?xml version="1.0" encoding="UTF-8" standalone="no"?><!DOCTYPE svg PUBLIC "-//W3C//DTD SVG 1.1//EN" "http://www.w3.org/Graphics/SVG/1.1/DTD/svg11.dtd"><svg width="100%" height="100%" viewBox="0 0 75 23" version="1.1" xmlns="http://www.w3.org/2000/svg" xmlns:xlink="http://www.w3.org/1999/xlink" xml:space="preserve" xmlns:serif="http://www.serif.com/" style="fill-rule:evenodd;clip-rule:evenodd;stroke-linejoin:round;stroke-miterlimit:1.41421;"><path d="M11.25,15.187l0,7.313l-11.25,-11.25l11.25,-11.25l0,7.313l63.75,0l0,-7.313l0,22.5l0,-7.313l-63.75,0Z" style="fill:#f00;"/><g><path d="M19.327,14.253l0,-5.493l-2.052,0l0,-0.735l4.937,0l0,0.735l-2.061,0l0,5.493l-0.824,0Z" style="fill:#eee4e4;fill-rule:nonzero;"/><path d="M22.959,14.253l0,-6.228l0.765,0l0,2.235c0.357,-0.414 0.807,-0.621 1.351,-0.621c0.334,0 0.624,0.066 0.871,0.198c0.246,0.132 0.422,0.314 0.529,0.546c0.106,0.232 0.159,0.569 0.159,1.011l0,2.859l-0.765,0l0,-2.859c0,-0.383 -0.083,-0.661 -0.248,-0.835c-0.166,-0.174 -0.4,-0.261 -0.703,-0.261c-0.227,0 -0.44,0.059 -0.64,0.176c-0.199,0.118 -0.342,0.277 -0.427,0.478c-0.085,0.201 -0.127,0.479 -0.127,0.833l0,2.468l-0.765,0Z" style="fill:#eee4e4;fill-rule:nonzero;"/><path d="M30.886,12.8l0.79,0.098c-0.124,0.461 -0.355,0.819 -0.692,1.074c-0.337,0.255 -0.768,0.383 -1.292,0.383c-0.659,0 -1.183,-0.204 -1.569,-0.61c-0.387,-0.406 -0.58,-0.976 -0.58,-1.71c0,-0.759 0.195,-1.348 0.586,-1.767c0.391,-0.419 0.898,-0.629 1.521,-0.629c0.603,0 1.096,0.206 1.478,0.616c0.383,0.411 0.574,0.989 0.574,1.734c0,0.045 -0.002,0.113 -0.004,0.203l-3.365,0c0.028,0.496 0.169,0.876 0.421,1.139c0.252,0.263 0.566,0.395 0.943,0.395c0.28,0 0.519,-0.074 0.718,-0.221c0.198,-0.147 0.355,-0.382 0.471,-0.705Zm-2.51,-1.236l2.519,0c-0.034,-0.38 -0.131,-0.664 -0.289,-0.854c-0.244,-0.295 -0.56,-0.442 -0.948,-0.442c-0.351,0 -0.646,0.118 -0.885,0.353c-0.24,0.235 -0.372,0.549 -0.397,0.943Z" style="fill:#eee4e4;fill-rule:nonzero;"/><path d="M39.595,12.069l0.824,0.208c-0.173,0.677 -0.484,1.193 -0.933,1.549c-0.449,0.355 -0.997,0.533 -1.646,0.533c-0.671,0 -1.217,-0.137 -1.637,-0.41c-0.421,-0.273 -0.741,-0.669 -0.96,-1.187c-0.22,-0.519 -0.33,-1.075 -0.33,-1.67c0,-0.648 0.124,-1.214 0.372,-1.697c0.248,-0.483 0.6,-0.85 1.058,-1.1c0.457,-0.251 0.961,-0.376 1.51,-0.376c0.623,0 1.147,0.158 1.572,0.476c0.425,0.317 0.72,0.763 0.888,1.338l-0.812,0.191c-0.144,-0.453 -0.354,-0.783 -0.629,-0.99c-0.274,-0.207 -0.62,-0.31 -1.036,-0.31c-0.479,0 -0.879,0.115 -1.2,0.344c-0.322,0.23 -0.547,0.538 -0.678,0.924c-0.13,0.387 -0.195,0.785 -0.195,1.196c0,0.53 0.077,0.992 0.231,1.387c0.155,0.395 0.395,0.69 0.72,0.886c0.326,0.195 0.679,0.293 1.058,0.293c0.462,0 0.853,-0.133 1.173,-0.4c0.32,-0.266 0.536,-0.661 0.65,-1.185Z" style="fill:#eee4e4;fill-rule:nonzero;"/><path d="M41.336,14.253l0,-6.228l0.765,0l0,2.235c0.357,-0.414 0.807,-0.621 1.351,-0.621c0.334,0 0.624,0.066 0.871,0.198c0.246,0.132 0.422,0.314 0.529,0.546c0.106,0.232 0.159,0.569 0.159,1.011l0,2.859l-0.765,0l0,-2.859c0,-0.383 -0.083,-0.661 -0.248,-0.835c-0.166,-0.174 -0.4,-0.261 -0.703,-0.261c-0.227,0 -0.44,0.059 -0.64,0.176c-0.199,0.118 -0.342,0.277 -0.427,0.478c-0.085,0.201 -0.127,0.479 -0.127,0.833l0,2.468l-0.765,0Z" style="fill:#eee4e4;fill-rule:nonzero;"/><path d="M49.263,12.8l0.79,0.098c-0.124,0.461 -0.355,0.819 -0.692,1.074c-0.337,0.255 -0.768,0.383 -1.291,0.383c-0.66,0 -1.184,-0.204 -1.57,-0.61c-0.387,-0.406 -0.58,-0.976 -0.58,-1.71c0,-0.759 0.195,-1.348 0.586,-1.767c0.391,-0.419 0.898,-0.629 1.521,-0.629c0.603,0 1.096,0.206 1.478,0.616c0.383,0.411 0.574,0.989 0.574,1.734c0,0.045 -0.002,0.113 -0.004,0.203l-3.365,0c0.028,0.496 0.169,0.876 0.421,1.139c0.252,0.263 0.566,0.395 0.943,0.395c0.28,0 0.519,-0.074 0.718,-0.221c0.198,-0.147 0.355,-0.382 0.471,-0.705Zm-2.51,-1.236l2.519,0c-0.034,-0.38 -0.131,-0.664 -0.289,-0.854c-0.244,-0.295 -0.559,-0.442 -0.947,-0.442c-0.352,0 -0.647,0.118 -0.886,0.353c-0.24,0.235 -0.372,0.549 -0.397,0.943Z" style="fill:#eee4e4;fill-rule:nonzero;"/><path d="M53.957,12.6l0.752,0.098c-0.082,0.518 -0.292,0.924 -0.631,1.217c-0.338,0.293 -0.754,0.44 -1.246,0.44c-0.618,0 -1.114,-0.202 -1.489,-0.606c-0.376,-0.403 -0.563,-0.982 -0.563,-1.735c0,-0.487 0.08,-0.913 0.242,-1.279c0.161,-0.365 0.407,-0.639 0.737,-0.822c0.33,-0.182 0.689,-0.274 1.077,-0.274c0.49,0 0.89,0.124 1.202,0.372c0.312,0.248 0.511,0.6 0.599,1.056l-0.743,0.114c-0.071,-0.303 -0.197,-0.531 -0.376,-0.684c-0.18,-0.152 -0.398,-0.229 -0.652,-0.229c-0.386,0 -0.699,0.138 -0.939,0.414c-0.241,0.276 -0.361,0.713 -0.361,1.311c0,0.606 0.116,1.046 0.348,1.321c0.232,0.275 0.535,0.412 0.909,0.412c0.3,0 0.551,-0.092 0.752,-0.276c0.201,-0.184 0.328,-0.467 0.382,-0.85Z" style="fill:#eee4e4;fill-rule:nonzero;"/><path d="M55.368,14.253l0,-6.228l0.764,0l0,3.551l1.81,-1.835l0.99,0l-1.725,1.674l1.899,2.838l-0.943,0l-1.491,-2.307l-0.54,0.518l0,1.789l-0.764,0Z" style="fill:#eee4e4;fill-rule:nonzero;"/></g></svg>