<?xml version="1.0" encoding="UTF-8" standalone="no"?><!DOCTYPE svg PUBLIC "-//W3C//DTD SVG 1.1//EN" "http://www.w3.org/Graphics/SVG/1.1/DTD/svg11.dtd"><svg width="100%" height="100%" viewBox="0 0 113 410" version="1.1" xmlns="http://www.w3.org/2000/svg" xmlns:xlink="http://www.w3.org/1999/xlink" xml:space="preserve" xmlns:serif="http://www.serif.com/" style="fill-rule:evenodd;clip-rule:evenodd;stroke-linecap:round;stroke-linejoin:round;stroke-miterlimit:1.5;"><g id="background"><rect x="0" y="0" width="112.5" height="409.091" style="fill:#808080;"/></g><g id="Layer1"><path d="M111.861,56.471c0,-30.835 -24.988,-55.832 -55.811,-55.832c-30.824,0 -55.812,24.997 -55.812,55.832l19.454,0c0,-20.087 16.278,-36.371 36.358,-36.371c20.079,0 36.357,16.284 36.357,36.371l19.454,0Z" style="fill:none;stroke:#000;stroke-width:1.36px;"/><path d="M45.143,374.888c0,18.325 15.025,33.18 33.559,33.18c18.535,0 33.56,-14.855 33.56,-33.18l-19.896,0c0,7.461 -6.118,13.509 -13.664,13.509c-7.546,0 -13.663,-6.048 -13.663,-13.509l-19.896,0Z" style="fill:none;stroke:#000;stroke-width:1.36px;"/><ellipse cx="2.551" cy="336.023" rx="2.551" ry="2.552" style="fill:#120000;"/><ellipse cx="2.551" cy="343.68" rx="2.551" ry="2.552" style="fill:#120000;"/><ellipse cx="2.551" cy="366.651" rx="2.551" ry="2.552" style="fill:#120000;"/><ellipse cx="2.551" cy="358.994" rx="2.551" ry="2.552" style="fill:#120000;"/><ellipse cx="2.551" cy="351.337" rx="2.551" ry="2.552" style="fill:#120000;"/><ellipse cx="17.86" cy="336.023" rx="2.551" ry="2.552" style="fill:#120000;"/><ellipse cx="17.86" cy="343.68" rx="2.551" ry="2.552" style="fill:#120000;"/><ellipse cx="17.86" cy="366.651" rx="2.551" ry="2.552" style="fill:#120000;"/><ellipse cx="17.86" cy="358.994" rx="2.551" ry="2.552" style="fill:#120000;"/><ellipse cx="17.86" cy="351.337" rx="2.551" ry="2.552" style="fill:#120000;"/><ellipse cx="2.551" cy="336.023" rx="2.551" ry="2.552" style="fill:#120000;"/><ellipse cx="2.551" cy="343.68" rx="2.551" ry="2.552" style="fill:#120000;"/><ellipse cx="2.551" cy="366.651" rx="2.551" ry="2.552" style="fill:#120000;"/><ellipse cx="2.551" cy="358.994" rx="2.551" ry="2.552" style="fill:#120000;"/><ellipse cx="2.551" cy="351.337" rx="2.551" ry="2.552" style="fill:#120000;"/><ellipse cx="17.86" cy="336.023" rx="2.551" ry="2.552" style="fill:#120000;"/><ellipse cx="17.86" cy="343.68" rx="2.551" ry="2.552" style="fill:#120000;"/><ellipse cx="17.86" cy="366.651" rx="2.551" ry="2.552" style="fill:#120000;"/><ellipse cx="17.86" cy="358.994" rx="2.551" ry="2.552" style="fill:#120000;"/><ellipse cx="17.86" cy="351.337" rx="2.551" ry="2.552" style="fill:#120000;"/><ellipse cx="2.551" cy="290.082" rx="2.551" ry="2.552" style="fill:#120000;"/><ellipse cx="2.551" cy="297.739" rx="2.551" ry="2.552" style="fill:#120000;"/><ellipse cx="2.551" cy="313.053" rx="2.551" ry="2.552" style="fill:#120000;"/><ellipse cx="2.551" cy="305.396" rx="2.551" ry="2.552" style="fill:#120000;"/><ellipse cx="17.86" cy="290.082" rx="2.551" ry="2.552" style="fill:#120000;"/><ellipse cx="17.86" cy="297.739" rx="2.551" ry="2.552" style="fill:#120000;"/><ellipse cx="17.86" cy="313.053" rx="2.551" ry="2.552" style="fill:#120000;"/><ellipse cx="17.86" cy="305.396" rx="2.551" ry="2.552" style="fill:#120000;"/><ellipse cx="2.551" cy="290.082" rx="2.551" ry="2.552" style="fill:#120000;"/><ellipse cx="2.551" cy="297.739" rx="2.551" ry="2.552" style="fill:#120000;"/><ellipse cx="2.551" cy="313.053" rx="2.551" ry="2.552" style="fill:#120000;"/><ellipse cx="2.551" cy="305.396" rx="2.551" ry="2.552" style="fill:#120000;"/><ellipse cx="17.86" cy="290.082" rx="2.551" ry="2.552" style="fill:#120000;"/><ellipse cx="17.86" cy="297.739" rx="2.551" ry="2.552" style="fill:#120000;"/><ellipse cx="17.86" cy="313.053" rx="2.551" ry="2.552" style="fill:#120000;"/><ellipse cx="17.86" cy="305.396" rx="2.551" ry="2.552" style="fill:#120000;"/><rect x="0" y="282.905" width="20.411" height="2.552" style="fill:#120000;"/><ellipse cx="2.551" cy="290.082" rx="2.551" ry="2.552" style="fill:#120000;"/><ellipse cx="2.551" cy="297.739" rx="2.551" ry="2.552" style="fill:#120000;"/><ellipse cx="2.551" cy="313.053" rx="2.551" ry="2.552" style="fill:#120000;"/><ellipse cx="2.551" cy="305.396" rx="2.551" ry="2.552" style="fill:#120000;"/><ellipse cx="17.86" cy="290.082" rx="2.551" ry="2.552" style="fill:#120000;"/><ellipse cx="17.86" cy="297.739" rx="2.551" ry="2.552" style="fill:#120000;"/><ellipse cx="17.86" cy="313.053" rx="2.551" ry="2.552" style="fill:#120000;"/><ellipse cx="17.86" cy="305.396" rx="2.551" ry="2.552" style="fill:#120000;"/><ellipse cx="2.551" cy="290.082" rx="2.551" ry="2.552" style="fill:#120000;"/><ellipse cx="2.551" cy="297.739" rx="2.551" ry="2.552" style="fill:#120000;"/><ellipse cx="2.551" cy="320.71" rx="2.551" ry="2.552" style="fill:#120000;"/><ellipse cx="2.551" cy="313.053" rx="2.551" ry="2.552" style="fill:#120000;"/><ellipse cx="2.551" cy="305.396" rx="2.551" ry="2.552" style="fill:#120000;"/><ellipse cx="17.86" cy="290.082" rx="2.551" ry="2.552" style="fill:#120000;"/><ellipse cx="17.86" cy="297.739" rx="2.551" ry="2.552" style="fill:#120000;"/><ellipse cx="17.86" cy="313.053" rx="2.551" ry="2.552" style="fill:#120000;"/><ellipse cx="17.86" cy="305.396" rx="2.551" ry="2.552" style="fill:#120000;"/><ellipse cx="2.551" cy="245.101" rx="2.551" ry="2.552" style="fill:#120000;"/><ellipse cx="2.551" cy="252.758" rx="2.551" ry="2.552" style="fill:#120000;"/><ellipse cx="2.551" cy="275.729" rx="2.551" ry="2.552" style="fill:#120000;"/><ellipse cx="2.551" cy="268.072" rx="2.551" ry="2.552" style="fill:#120000;"/><ellipse cx="2.551" cy="260.415" rx="2.551" ry="2.552" style="fill:#120000;"/><ellipse cx="17.86" cy="245.101" rx="2.551" ry="2.552" style="fill:#120000;"/><ellipse cx="17.86" cy="252.758" rx="2.551" ry="2.552" style="fill:#120000;"/><ellipse cx="17.86" cy="275.729" rx="2.551" ry="2.552" style="fill:#120000;"/><ellipse cx="17.86" cy="268.072" rx="2.551" ry="2.552" style="fill:#120000;"/><ellipse cx="17.86" cy="260.415" rx="2.551" ry="2.552" style="fill:#120000;"/><ellipse cx="2.551" cy="245.101" rx="2.551" ry="2.552" style="fill:#120000;"/><ellipse cx="2.551" cy="252.758" rx="2.551" ry="2.552" style="fill:#120000;"/><ellipse cx="2.551" cy="275.729" rx="2.551" ry="2.552" style="fill:#120000;"/><ellipse cx="2.551" cy="268.072" rx="2.551" ry="2.552" style="fill:#120000;"/><ellipse cx="2.551" cy="260.415" rx="2.551" ry="2.552" style="fill:#120000;"/><ellipse cx="17.86" cy="245.101" rx="2.551" ry="2.552" style="fill:#120000;"/><ellipse cx="17.86" cy="252.758" rx="2.551" ry="2.552" style="fill:#120000;"/><ellipse cx="17.86" cy="275.729" rx="2.551" ry="2.552" style="fill:#120000;"/><ellipse cx="17.86" cy="268.072" rx="2.551" ry="2.552" style="fill:#120000;"/><ellipse cx="17.86" cy="260.415" rx="2.551" ry="2.552" style="fill:#120000;"/><ellipse cx="2.551" cy="199.16" rx="2.551" ry="2.552" style="fill:#120000;"/><ellipse cx="2.551" cy="206.817" rx="2.551" ry="2.552" style="fill:#120000;"/><ellipse cx="2.551" cy="229.787" rx="2.551" ry="2.552" style="fill:#120000;"/><ellipse cx="2.551" cy="222.131" rx="2.551" ry="2.552" style="fill:#120000;"/><ellipse cx="2.551" cy="214.474" rx="2.551" ry="2.552" style="fill:#120000;"/><ellipse cx="17.86" cy="199.16" rx="2.551" ry="2.552" style="fill:#120000;"/><ellipse cx="17.86" cy="206.817" rx="2.551" ry="2.552" style="fill:#120000;"/><ellipse cx="17.86" cy="229.787" rx="2.551" ry="2.552" style="fill:#120000;"/><ellipse cx="17.86" cy="222.131" rx="2.551" ry="2.552" style="fill:#120000;"/><ellipse cx="17.86" cy="214.474" rx="2.551" ry="2.552" style="fill:#120000;"/><rect x="0" y="236.494" width="20.411" height="2.552" style="fill:#120000;"/><ellipse cx="2.551" cy="199.16" rx="2.551" ry="2.552" style="fill:#120000;"/><ellipse cx="2.551" cy="206.817" rx="2.551" ry="2.552" style="fill:#120000;"/><ellipse cx="2.551" cy="229.787" rx="2.551" ry="2.552" style="fill:#120000;"/><ellipse cx="2.551" cy="222.131" rx="2.551" ry="2.552" style="fill:#120000;"/><ellipse cx="2.551" cy="214.474" rx="2.551" ry="2.552" style="fill:#120000;"/><ellipse cx="17.86" cy="199.16" rx="2.551" ry="2.552" style="fill:#120000;"/><ellipse cx="17.86" cy="206.817" rx="2.551" ry="2.552" style="fill:#120000;"/><ellipse cx="17.86" cy="229.787" rx="2.551" ry="2.552" style="fill:#120000;"/><ellipse cx="17.86" cy="222.131" rx="2.551" ry="2.552" style="fill:#120000;"/><ellipse cx="17.86" cy="214.474" rx="2.551" ry="2.552" style="fill:#120000;"/><rect x="0" y="236.494" width="20.411" height="2.552" style="fill:#120000;"/><ellipse cx="2.551" cy="245.101" rx="2.551" ry="2.552" style="fill:#120000;"/><ellipse cx="2.551" cy="252.758" rx="2.551" ry="2.552" style="fill:#120000;"/><ellipse cx="2.551" cy="275.729" rx="2.551" ry="2.552" style="fill:#120000;"/><ellipse cx="2.551" cy="268.072" rx="2.551" ry="2.552" style="fill:#120000;"/><ellipse cx="2.551" cy="260.415" rx="2.551" ry="2.552" style="fill:#120000;"/><ellipse cx="17.86" cy="245.101" rx="2.551" ry="2.552" style="fill:#120000;"/><ellipse cx="17.86" cy="252.758" rx="2.551" ry="2.552" style="fill:#120000;"/><ellipse cx="17.86" cy="275.729" rx="2.551" ry="2.552" style="fill:#120000;"/><ellipse cx="17.86" cy="268.072" rx="2.551" ry="2.552" style="fill:#120000;"/><ellipse cx="17.86" cy="260.415" rx="2.551" ry="2.552" style="fill:#120000;"/><ellipse cx="2.551" cy="245.101" rx="2.551" ry="2.552" style="fill:#120000;"/><ellipse cx="2.551" cy="252.758" rx="2.551" ry="2.552" style="fill:#120000;"/><ellipse cx="2.551" cy="275.729" rx="2.551" ry="2.552" style="fill:#120000;"/><ellipse cx="2.551" cy="268.072" rx="2.551" ry="2.552" style="fill:#120000;"/><ellipse cx="2.551" cy="260.415" rx="2.551" ry="2.552" style="fill:#120000;"/><ellipse cx="17.86" cy="245.101" rx="2.551" ry="2.552" style="fill:#120000;"/><ellipse cx="17.86" cy="252.758" rx="2.551" ry="2.552" style="fill:#120000;"/><ellipse cx="17.86" cy="275.729" rx="2.551" ry="2.552" style="fill:#120000;"/><ellipse cx="17.86" cy="268.072" rx="2.551" ry="2.552" style="fill:#120000;"/><ellipse cx="17.86" cy="260.415" rx="2.551" ry="2.552" style="fill:#120000;"/><rect x="0" y="191.983" width="20.411" height="2.552" style="fill:#120000;"/><ellipse cx="2.551" cy="199.16" rx="2.551" ry="2.552" style="fill:#120000;"/><ellipse cx="2.551" cy="206.817" rx="2.551" ry="2.552" style="fill:#120000;"/><ellipse cx="2.551" cy="229.787" rx="2.551" ry="2.552" style="fill:#120000;"/><ellipse cx="2.551" cy="222.131" rx="2.551" ry="2.552" style="fill:#120000;"/><ellipse cx="2.551" cy="214.474" rx="2.551" ry="2.552" style="fill:#120000;"/><ellipse cx="17.86" cy="199.16" rx="2.551" ry="2.552" style="fill:#120000;"/><ellipse cx="17.86" cy="206.817" rx="2.551" ry="2.552" style="fill:#120000;"/><ellipse cx="17.86" cy="229.787" rx="2.551" ry="2.552" style="fill:#120000;"/><ellipse cx="17.86" cy="222.131" rx="2.551" ry="2.552" style="fill:#120000;"/><ellipse cx="17.86" cy="214.474" rx="2.551" ry="2.552" style="fill:#120000;"/><rect x="0" y="236.494" width="20.411" height="2.552" style="fill:#120000;"/><ellipse cx="2.551" cy="199.16" rx="2.551" ry="2.552" style="fill:#120000;"/><ellipse cx="2.551" cy="206.817" rx="2.551" ry="2.552" style="fill:#120000;"/><ellipse cx="2.551" cy="229.787" rx="2.551" ry="2.552" style="fill:#120000;"/><ellipse cx="2.551" cy="222.131" rx="2.551" ry="2.552" style="fill:#120000;"/><ellipse cx="2.551" cy="214.474" rx="2.551" ry="2.552" style="fill:#120000;"/><ellipse cx="17.86" cy="199.16" rx="2.551" ry="2.552" style="fill:#120000;"/><ellipse cx="17.86" cy="206.817" rx="2.551" ry="2.552" style="fill:#120000;"/><ellipse cx="17.86" cy="229.787" rx="2.551" ry="2.552" style="fill:#120000;"/><ellipse cx="17.86" cy="222.131" rx="2.551" ry="2.552" style="fill:#120000;"/><ellipse cx="17.86" cy="214.474" rx="2.551" ry="2.552" style="fill:#120000;"/><rect x="0" y="236.494" width="20.411" height="2.552" style="fill:#120000;"/><ellipse cx="2.551" cy="320.71" rx="2.551" ry="2.552" style="fill:#120000;"/><ellipse cx="17.86" cy="320.71" rx="2.551" ry="2.552" style="fill:#120000;"/><ellipse cx="2.551" cy="320.71" rx="2.551" ry="2.552" style="fill:#120000;"/><ellipse cx="17.86" cy="320.71" rx="2.551" ry="2.552" style="fill:#120000;"/><ellipse cx="2.551" cy="320.71" rx="2.551" ry="2.552" style="fill:#120000;"/><ellipse cx="17.86" cy="320.71" rx="2.551" ry="2.552" style="fill:#120000;"/><ellipse cx="17.86" cy="320.71" rx="2.551" ry="2.552" style="fill:#120000;"/><ellipse cx="2.551" cy="154.194" rx="2.551" ry="2.552" style="fill:#120000;"/><ellipse cx="2.551" cy="161.851" rx="2.551" ry="2.552" style="fill:#120000;"/><ellipse cx="2.551" cy="177.165" rx="2.551" ry="2.552" style="fill:#120000;"/><ellipse cx="2.551" cy="169.508" rx="2.551" ry="2.552" style="fill:#120000;"/><ellipse cx="17.86" cy="154.194" rx="2.551" ry="2.552" style="fill:#120000;"/><ellipse cx="17.86" cy="161.851" rx="2.551" ry="2.552" style="fill:#120000;"/><ellipse cx="17.86" cy="177.165" rx="2.551" ry="2.552" style="fill:#120000;"/><ellipse cx="17.86" cy="169.508" rx="2.551" ry="2.552" style="fill:#120000;"/><ellipse cx="2.551" cy="154.194" rx="2.551" ry="2.552" style="fill:#120000;"/><ellipse cx="2.551" cy="161.851" rx="2.551" ry="2.552" style="fill:#120000;"/><ellipse cx="2.551" cy="177.165" rx="2.551" ry="2.552" style="fill:#120000;"/><ellipse cx="2.551" cy="169.508" rx="2.551" ry="2.552" style="fill:#120000;"/><ellipse cx="17.86" cy="154.194" rx="2.551" ry="2.552" style="fill:#120000;"/><ellipse cx="17.86" cy="161.851" rx="2.551" ry="2.552" style="fill:#120000;"/><ellipse cx="17.86" cy="177.165" rx="2.551" ry="2.552" style="fill:#120000;"/><ellipse cx="17.86" cy="169.508" rx="2.551" ry="2.552" style="fill:#120000;"/><rect x="0" y="147.018" width="20.411" height="2.552" style="fill:#120000;"/><ellipse cx="2.551" cy="154.194" rx="2.551" ry="2.552" style="fill:#120000;"/><ellipse cx="2.551" cy="161.851" rx="2.551" ry="2.552" style="fill:#120000;"/><ellipse cx="2.551" cy="177.165" rx="2.551" ry="2.552" style="fill:#120000;"/><ellipse cx="2.551" cy="169.508" rx="2.551" ry="2.552" style="fill:#120000;"/><ellipse cx="17.86" cy="154.194" rx="2.551" ry="2.552" style="fill:#120000;"/><ellipse cx="17.86" cy="161.851" rx="2.551" ry="2.552" style="fill:#120000;"/><ellipse cx="17.86" cy="177.165" rx="2.551" ry="2.552" style="fill:#120000;"/><ellipse cx="17.86" cy="169.508" rx="2.551" ry="2.552" style="fill:#120000;"/><ellipse cx="2.551" cy="154.194" rx="2.551" ry="2.552" style="fill:#120000;"/><ellipse cx="2.551" cy="161.851" rx="2.551" ry="2.552" style="fill:#120000;"/><ellipse cx="2.551" cy="184.822" rx="2.551" ry="2.552" style="fill:#120000;"/><ellipse cx="2.551" cy="177.165" rx="2.551" ry="2.552" style="fill:#120000;"/><ellipse cx="2.551" cy="169.508" rx="2.551" ry="2.552" style="fill:#120000;"/><ellipse cx="17.86" cy="154.194" rx="2.551" ry="2.552" style="fill:#120000;"/><ellipse cx="17.86" cy="161.851" rx="2.551" ry="2.552" style="fill:#120000;"/><ellipse cx="17.86" cy="177.165" rx="2.551" ry="2.552" style="fill:#120000;"/><ellipse cx="17.86" cy="169.508" rx="2.551" ry="2.552" style="fill:#120000;"/><ellipse cx="2.551" cy="109.214" rx="2.551" ry="2.552" style="fill:#120000;"/><ellipse cx="2.551" cy="116.871" rx="2.551" ry="2.552" style="fill:#120000;"/><ellipse cx="2.551" cy="139.842" rx="2.551" ry="2.552" style="fill:#120000;"/><ellipse cx="2.551" cy="132.185" rx="2.551" ry="2.552" style="fill:#120000;"/><ellipse cx="2.551" cy="124.528" rx="2.551" ry="2.552" style="fill:#120000;"/><ellipse cx="17.86" cy="109.214" rx="2.551" ry="2.552" style="fill:#120000;"/><ellipse cx="17.86" cy="116.871" rx="2.551" ry="2.552" style="fill:#120000;"/><ellipse cx="17.86" cy="139.842" rx="2.551" ry="2.552" style="fill:#120000;"/><ellipse cx="17.86" cy="132.185" rx="2.551" ry="2.552" style="fill:#120000;"/><ellipse cx="17.86" cy="124.528" rx="2.551" ry="2.552" style="fill:#120000;"/><ellipse cx="2.551" cy="109.214" rx="2.551" ry="2.552" style="fill:#120000;"/><ellipse cx="2.551" cy="116.871" rx="2.551" ry="2.552" style="fill:#120000;"/><ellipse cx="2.551" cy="139.842" rx="2.551" ry="2.552" style="fill:#120000;"/><ellipse cx="2.551" cy="132.185" rx="2.551" ry="2.552" style="fill:#120000;"/><ellipse cx="2.551" cy="124.528" rx="2.551" ry="2.552" style="fill:#120000;"/><ellipse cx="17.86" cy="109.214" rx="2.551" ry="2.552" style="fill:#120000;"/><ellipse cx="17.86" cy="116.871" rx="2.551" ry="2.552" style="fill:#120000;"/><ellipse cx="17.86" cy="139.842" rx="2.551" ry="2.552" style="fill:#120000;"/><ellipse cx="17.86" cy="132.185" rx="2.551" ry="2.552" style="fill:#120000;"/><ellipse cx="17.86" cy="124.528" rx="2.551" ry="2.552" style="fill:#120000;"/><ellipse cx="2.551" cy="63.272" rx="2.551" ry="2.552" style="fill:#120000;"/><ellipse cx="2.551" cy="70.929" rx="2.551" ry="2.552" style="fill:#120000;"/><ellipse cx="2.551" cy="93.9" rx="2.551" ry="2.552" style="fill:#120000;"/><ellipse cx="2.551" cy="86.243" rx="2.551" ry="2.552" style="fill:#120000;"/><ellipse cx="2.551" cy="78.586" rx="2.551" ry="2.552" style="fill:#120000;"/><ellipse cx="17.86" cy="63.272" rx="2.551" ry="2.552" style="fill:#120000;"/><ellipse cx="17.86" cy="70.929" rx="2.551" ry="2.552" style="fill:#120000;"/><ellipse cx="17.86" cy="93.9" rx="2.551" ry="2.552" style="fill:#120000;"/><ellipse cx="17.86" cy="86.243" rx="2.551" ry="2.552" style="fill:#120000;"/><ellipse cx="17.86" cy="78.586" rx="2.551" ry="2.552" style="fill:#120000;"/><rect x="0" y="100.607" width="20.411" height="2.552" style="fill:#120000;"/><ellipse cx="2.551" cy="63.272" rx="2.551" ry="2.552" style="fill:#120000;"/><ellipse cx="2.551" cy="70.929" rx="2.551" ry="2.552" style="fill:#120000;"/><ellipse cx="2.551" cy="93.9" rx="2.551" ry="2.552" style="fill:#120000;"/><ellipse cx="2.551" cy="86.243" rx="2.551" ry="2.552" style="fill:#120000;"/><ellipse cx="2.551" cy="78.586" rx="2.551" ry="2.552" style="fill:#120000;"/><ellipse cx="17.86" cy="63.272" rx="2.551" ry="2.552" style="fill:#120000;"/><ellipse cx="17.86" cy="70.929" rx="2.551" ry="2.552" style="fill:#120000;"/><ellipse cx="17.86" cy="93.9" rx="2.551" ry="2.552" style="fill:#120000;"/><ellipse cx="17.86" cy="86.243" rx="2.551" ry="2.552" style="fill:#120000;"/><ellipse cx="17.86" cy="78.586" rx="2.551" ry="2.552" style="fill:#120000;"/><rect x="0" y="100.607" width="20.411" height="2.552" style="fill:#120000;"/><ellipse cx="2.551" cy="109.214" rx="2.551" ry="2.552" style="fill:#120000;"/><ellipse cx="2.551" cy="116.871" rx="2.551" ry="2.552" style="fill:#120000;"/><ellipse cx="2.551" cy="139.842" rx="2.551" ry="2.552" style="fill:#120000;"/><ellipse cx="2.551" cy="132.185" rx="2.551" ry="2.552" style="fill:#120000;"/><ellipse cx="2.551" cy="124.528" rx="2.551" ry="2.552" style="fill:#120000;"/><ellipse cx="17.86" cy="109.214" rx="2.551" ry="2.552" style="fill:#120000;"/><ellipse cx="17.86" cy="116.871" rx="2.551" ry="2.552" style="fill:#120000;"/><ellipse cx="17.86" cy="139.842" rx="2.551" ry="2.552" style="fill:#120000;"/><ellipse cx="17.86" cy="132.185" rx="2.551" ry="2.552" style="fill:#120000;"/><ellipse cx="17.86" cy="124.528" rx="2.551" ry="2.552" style="fill:#120000;"/><ellipse cx="2.551" cy="109.214" rx="2.551" ry="2.552" style="fill:#120000;"/><ellipse cx="2.551" cy="116.871" rx="2.551" ry="2.552" style="fill:#120000;"/><ellipse cx="2.551" cy="139.842" rx="2.551" ry="2.552" style="fill:#120000;"/><ellipse cx="2.551" cy="132.185" rx="2.551" ry="2.552" style="fill:#120000;"/><ellipse cx="2.551" cy="124.528" rx="2.551" ry="2.552" style="fill:#120000;"/><ellipse cx="17.86" cy="109.214" rx="2.551" ry="2.552" style="fill:#120000;"/><ellipse cx="17.86" cy="139.842" rx="2.551" ry="2.552" style="fill:#120000;"/><ellipse cx="17.86" cy="132.185" rx="2.551" ry="2.552" style="fill:#120000;"/><ellipse cx="17.86" cy="124.528" rx="2.551" ry="2.552" style="fill:#120000;"/><rect x="0" y="56.096" width="20.411" height="2.552" style="fill:#120000;"/><ellipse cx="2.551" cy="63.272" rx="2.551" ry="2.552" style="fill:#120000;"/><ellipse cx="2.551" cy="70.929" rx="2.551" ry="2.552" style="fill:#120000;"/><ellipse cx="2.551" cy="93.9" rx="2.551" ry="2.552" style="fill:#120000;"/><ellipse cx="2.551" cy="86.243" rx="2.551" ry="2.552" style="fill:#120000;"/><ellipse cx="2.551" cy="78.586" rx="2.551" ry="2.552" style="fill:#120000;"/><ellipse cx="17.86" cy="63.272" rx="2.551" ry="2.552" style="fill:#120000;"/><ellipse cx="17.86" cy="70.929" rx="2.551" ry="2.552" style="fill:#120000;"/><ellipse cx="17.86" cy="93.9" rx="2.551" ry="2.552" style="fill:#120000;"/><ellipse cx="17.86" cy="86.243" rx="2.551" ry="2.552" style="fill:#120000;"/><ellipse cx="17.86" cy="78.586" rx="2.551" ry="2.552" style="fill:#120000;"/><rect x="0" y="100.607" width="20.411" height="2.552" style="fill:#120000;"/><ellipse cx="2.551" cy="63.272" rx="2.551" ry="2.552" style="fill:#120000;"/><ellipse cx="2.551" cy="70.929" rx="2.551" ry="2.552" style="fill:#120000;"/><ellipse cx="2.551" cy="93.9" rx="2.551" ry="2.552" style="fill:#120000;"/><ellipse cx="2.551" cy="86.243" rx="2.551" ry="2.552" style="fill:#120000;"/><ellipse cx="2.551" cy="78.586" rx="2.551" ry="2.552" style="fill:#120000;"/><ellipse cx="17.86" cy="63.272" rx="2.551" ry="2.552" style="fill:#120000;"/><ellipse cx="17.86" cy="70.929" rx="2.551" ry="2.552" style="fill:#120000;"/><ellipse cx="17.86" cy="93.9" rx="2.551" ry="2.552" style="fill:#120000;"/><ellipse cx="17.86" cy="86.243" rx="2.551" ry="2.552" style="fill:#120000;"/><ellipse cx="17.86" cy="78.586" rx="2.551" ry="2.552" style="fill:#120000;"/><rect x="0" y="100.607" width="20.411" height="2.552" style="fill:#120000;"/><ellipse cx="2.551" cy="184.822" rx="2.551" ry="2.552" style="fill:#120000;"/><ellipse cx="17.86" cy="184.822" rx="2.551" ry="2.552" style="fill:#120000;"/><ellipse cx="2.551" cy="184.822" rx="2.551" ry="2.552" style="fill:#120000;"/><ellipse cx="17.86" cy="184.822" rx="2.551" ry="2.552" style="fill:#120000;"/><ellipse cx="2.551" cy="184.822" rx="2.551" ry="2.552" style="fill:#120000;"/><ellipse cx="17.86" cy="184.822" rx="2.551" ry="2.552" style="fill:#120000;"/><ellipse cx="17.86" cy="184.822" rx="2.551" ry="2.552" style="fill:#120000;"/><rect x="0" y="327.416" width="20.411" height="2.552" style="fill:#120000;"/><rect x="0" y="327.416" width="20.411" height="2.552" style="fill:#120000;"/><ellipse cx="2.551" cy="336.023" rx="2.551" ry="2.552" style="fill:#120000;"/><ellipse cx="2.551" cy="343.68" rx="2.551" ry="2.552" style="fill:#120000;"/><ellipse cx="2.551" cy="366.651" rx="2.551" ry="2.552" style="fill:#120000;"/><ellipse cx="2.551" cy="358.994" rx="2.551" ry="2.552" style="fill:#120000;"/><ellipse cx="2.551" cy="351.337" rx="2.551" ry="2.552" style="fill:#120000;"/><ellipse cx="17.86" cy="336.023" rx="2.551" ry="2.552" style="fill:#120000;"/><ellipse cx="17.86" cy="343.68" rx="2.551" ry="2.552" style="fill:#120000;"/><ellipse cx="17.86" cy="366.651" rx="2.551" ry="2.552" style="fill:#120000;"/><ellipse cx="17.86" cy="358.994" rx="2.551" ry="2.552" style="fill:#120000;"/><ellipse cx="17.86" cy="351.337" rx="2.551" ry="2.552" style="fill:#120000;"/><ellipse cx="2.551" cy="336.023" rx="2.551" ry="2.552" style="fill:#120000;"/><ellipse cx="2.551" cy="343.68" rx="2.551" ry="2.552" style="fill:#120000;"/><ellipse cx="2.551" cy="358.994" rx="2.551" ry="2.552" style="fill:#120000;"/><ellipse cx="2.551" cy="351.337" rx="2.551" ry="2.552" style="fill:#120000;"/><ellipse cx="17.86" cy="336.023" rx="2.551" ry="2.552" style="fill:#120000;"/><ellipse cx="17.86" cy="343.68" rx="2.551" ry="2.552" style="fill:#120000;"/><ellipse cx="17.86" cy="366.651" rx="2.551" ry="2.552" style="fill:#120000;"/><ellipse cx="17.86" cy="358.994" rx="2.551" ry="2.552" style="fill:#120000;"/><ellipse cx="17.86" cy="351.337" rx="2.551" ry="2.552" style="fill:#120000;"/><rect x="0" y="327.416" width="20.411" height="2.552" style="fill:#120000;"/><rect x="0" y="327.416" width="20.411" height="2.552" style="fill:#120000;"/><rect x="0" y="373.358" width="20.411" height="2.552" style="fill:#120000;"/><rect x="0" y="373.358" width="20.411" height="2.552" style="fill:#120000;"/><rect x="0" y="373.358" width="20.411" height="2.552" style="fill:#120000;"/><rect x="0" y="373.358" width="20.411" height="2.552" style="fill:#120000;"/><path d="M55.093,0l0,20.419l2.552,0l0,-20.419l-2.552,0Z" style="fill:#120000;"/><ellipse cx="48.354" cy="291.129" rx="2.457" ry="2.552" style="fill:#120000;"/><ellipse cx="48.354" cy="298.786" rx="2.457" ry="2.552" style="fill:#120000;"/><ellipse cx="48.354" cy="321.757" rx="2.457" ry="2.552" style="fill:#120000;"/><ellipse cx="48.354" cy="314.1" rx="2.457" ry="2.552" style="fill:#120000;"/><ellipse cx="48.354" cy="306.443" rx="2.457" ry="2.552" style="fill:#120000;"/><ellipse cx="63.097" cy="291.129" rx="2.457" ry="2.552" style="fill:#120000;"/><ellipse cx="63.097" cy="298.786" rx="2.457" ry="2.552" style="fill:#120000;"/><ellipse cx="63.097" cy="321.757" rx="2.457" ry="2.552" style="fill:#120000;"/><ellipse cx="63.097" cy="314.1" rx="2.457" ry="2.552" style="fill:#120000;"/><ellipse cx="63.097" cy="306.443" rx="2.457" ry="2.552" style="fill:#120000;"/><ellipse cx="48.354" cy="245.187" rx="2.457" ry="2.552" style="fill:#120000;"/><ellipse cx="48.354" cy="252.844" rx="2.457" ry="2.552" style="fill:#120000;"/><ellipse cx="48.354" cy="268.158" rx="2.457" ry="2.552" style="fill:#120000;"/><ellipse cx="48.354" cy="260.501" rx="2.457" ry="2.552" style="fill:#120000;"/><ellipse cx="63.097" cy="245.187" rx="2.457" ry="2.552" style="fill:#120000;"/><ellipse cx="63.097" cy="252.844" rx="2.457" ry="2.552" style="fill:#120000;"/><ellipse cx="63.097" cy="268.158" rx="2.457" ry="2.552" style="fill:#120000;"/><ellipse cx="63.097" cy="260.501" rx="2.457" ry="2.552" style="fill:#120000;"/><rect x="45.896" y="238.011" width="19.658" height="2.552" style="fill:#120000;"/><ellipse cx="48.354" cy="275.815" rx="2.457" ry="2.552" style="fill:#120000;"/><ellipse cx="48.354" cy="200.207" rx="2.457" ry="2.552" style="fill:#120000;"/><ellipse cx="48.354" cy="207.864" rx="2.457" ry="2.552" style="fill:#120000;"/><ellipse cx="48.354" cy="230.835" rx="2.457" ry="2.552" style="fill:#120000;"/><ellipse cx="48.354" cy="223.178" rx="2.457" ry="2.552" style="fill:#120000;"/><ellipse cx="48.354" cy="215.521" rx="2.457" ry="2.552" style="fill:#120000;"/><ellipse cx="63.097" cy="200.207" rx="2.457" ry="2.552" style="fill:#120000;"/><ellipse cx="63.097" cy="207.864" rx="2.457" ry="2.552" style="fill:#120000;"/><ellipse cx="63.097" cy="230.835" rx="2.457" ry="2.552" style="fill:#120000;"/><ellipse cx="63.097" cy="223.178" rx="2.457" ry="2.552" style="fill:#120000;"/><ellipse cx="63.097" cy="215.521" rx="2.457" ry="2.552" style="fill:#120000;"/><ellipse cx="48.354" cy="207.864" rx="2.457" ry="2.552" style="fill:#120000;"/><ellipse cx="48.354" cy="215.521" rx="2.457" ry="2.552" style="fill:#120000;"/><ellipse cx="63.097" cy="207.864" rx="2.457" ry="2.552" style="fill:#120000;"/><ellipse cx="63.097" cy="215.521" rx="2.457" ry="2.552" style="fill:#120000;"/><ellipse cx="48.354" cy="154.265" rx="2.457" ry="2.552" style="fill:#120000;"/><ellipse cx="48.354" cy="161.922" rx="2.457" ry="2.552" style="fill:#120000;"/><ellipse cx="48.354" cy="184.893" rx="2.457" ry="2.552" style="fill:#120000;"/><ellipse cx="48.354" cy="177.236" rx="2.457" ry="2.552" style="fill:#120000;"/><ellipse cx="48.354" cy="169.579" rx="2.457" ry="2.552" style="fill:#120000;"/><ellipse cx="63.097" cy="154.265" rx="2.457" ry="2.552" style="fill:#120000;"/><ellipse cx="63.097" cy="161.922" rx="2.457" ry="2.552" style="fill:#120000;"/><ellipse cx="63.097" cy="184.893" rx="2.457" ry="2.552" style="fill:#120000;"/><ellipse cx="63.097" cy="177.236" rx="2.457" ry="2.552" style="fill:#120000;"/><ellipse cx="63.097" cy="169.579" rx="2.457" ry="2.552" style="fill:#120000;"/><rect x="45.896" y="191.6" width="19.658" height="2.552" style="fill:#120000;"/><ellipse cx="48.354" cy="154.265" rx="2.457" ry="2.552" style="fill:#120000;"/><ellipse cx="48.354" cy="161.922" rx="2.457" ry="2.552" style="fill:#120000;"/><ellipse cx="48.354" cy="184.893" rx="2.457" ry="2.552" style="fill:#120000;"/><ellipse cx="48.354" cy="177.236" rx="2.457" ry="2.552" style="fill:#120000;"/><ellipse cx="48.354" cy="169.579" rx="2.457" ry="2.552" style="fill:#120000;"/><ellipse cx="63.097" cy="154.265" rx="2.457" ry="2.552" style="fill:#120000;"/><ellipse cx="63.097" cy="161.922" rx="2.457" ry="2.552" style="fill:#120000;"/><ellipse cx="63.097" cy="184.893" rx="2.457" ry="2.552" style="fill:#120000;"/><ellipse cx="63.097" cy="177.236" rx="2.457" ry="2.552" style="fill:#120000;"/><ellipse cx="63.097" cy="169.579" rx="2.457" ry="2.552" style="fill:#120000;"/><rect x="45.896" y="191.6" width="19.658" height="2.552" style="fill:#120000;"/><ellipse cx="48.354" cy="207.864" rx="2.457" ry="2.552" style="fill:#120000;"/><ellipse cx="48.354" cy="215.521" rx="2.457" ry="2.552" style="fill:#120000;"/><ellipse cx="63.097" cy="207.864" rx="2.457" ry="2.552" style="fill:#120000;"/><ellipse cx="63.097" cy="215.521" rx="2.457" ry="2.552" style="fill:#120000;"/><ellipse cx="48.354" cy="207.864" rx="2.457" ry="2.552" style="fill:#120000;"/><ellipse cx="48.354" cy="215.521" rx="2.457" ry="2.552" style="fill:#120000;"/><ellipse cx="63.097" cy="207.864" rx="2.457" ry="2.552" style="fill:#120000;"/><ellipse cx="63.097" cy="215.521" rx="2.457" ry="2.552" style="fill:#120000;"/><rect x="45.896" y="147.089" width="19.658" height="2.552" style="fill:#120000;"/><ellipse cx="48.354" cy="154.265" rx="2.457" ry="2.552" style="fill:#120000;"/><ellipse cx="48.354" cy="161.922" rx="2.457" ry="2.552" style="fill:#120000;"/><ellipse cx="48.354" cy="184.893" rx="2.457" ry="2.552" style="fill:#120000;"/><ellipse cx="48.354" cy="177.236" rx="2.457" ry="2.552" style="fill:#120000;"/><ellipse cx="48.354" cy="169.579" rx="2.457" ry="2.552" style="fill:#120000;"/><ellipse cx="63.097" cy="154.265" rx="2.457" ry="2.552" style="fill:#120000;"/><ellipse cx="63.097" cy="161.922" rx="2.457" ry="2.552" style="fill:#120000;"/><ellipse cx="63.097" cy="184.893" rx="2.457" ry="2.552" style="fill:#120000;"/><ellipse cx="63.097" cy="177.236" rx="2.457" ry="2.552" style="fill:#120000;"/><ellipse cx="63.097" cy="169.579" rx="2.457" ry="2.552" style="fill:#120000;"/><rect x="45.896" y="191.6" width="19.658" height="2.552" style="fill:#120000;"/><ellipse cx="48.354" cy="154.265" rx="2.457" ry="2.552" style="fill:#120000;"/><ellipse cx="48.354" cy="161.922" rx="2.457" ry="2.552" style="fill:#120000;"/><ellipse cx="48.354" cy="184.893" rx="2.457" ry="2.552" style="fill:#120000;"/><ellipse cx="48.354" cy="177.236" rx="2.457" ry="2.552" style="fill:#120000;"/><ellipse cx="48.354" cy="169.579" rx="2.457" ry="2.552" style="fill:#120000;"/><ellipse cx="63.097" cy="154.265" rx="2.457" ry="2.552" style="fill:#120000;"/><ellipse cx="63.097" cy="161.922" rx="2.457" ry="2.552" style="fill:#120000;"/><ellipse cx="63.097" cy="184.893" rx="2.457" ry="2.552" style="fill:#120000;"/><ellipse cx="63.097" cy="177.236" rx="2.457" ry="2.552" style="fill:#120000;"/><ellipse cx="63.097" cy="169.579" rx="2.457" ry="2.552" style="fill:#120000;"/><rect x="45.896" y="191.6" width="19.658" height="2.552" style="fill:#120000;"/><ellipse cx="63.097" cy="275.815" rx="2.457" ry="2.552" style="fill:#120000;"/><ellipse cx="48.354" cy="109.299" rx="2.457" ry="2.552" style="fill:#120000;"/><ellipse cx="48.354" cy="116.956" rx="2.457" ry="2.552" style="fill:#120000;"/><ellipse cx="48.354" cy="132.27" rx="2.457" ry="2.552" style="fill:#120000;"/><ellipse cx="48.354" cy="124.613" rx="2.457" ry="2.552" style="fill:#120000;"/><ellipse cx="63.097" cy="109.299" rx="2.457" ry="2.552" style="fill:#120000;"/><ellipse cx="63.097" cy="116.956" rx="2.457" ry="2.552" style="fill:#120000;"/><ellipse cx="63.097" cy="132.27" rx="2.457" ry="2.552" style="fill:#120000;"/><rect x="45.896" y="102.123" width="19.658" height="2.552" style="fill:#120000;"/><ellipse cx="48.354" cy="139.927" rx="2.457" ry="2.552" style="fill:#120000;"/><ellipse cx="63.097" cy="124.613" rx="2.457" ry="2.552" style="fill:#120000;"/><ellipse cx="48.354" cy="64.319" rx="2.457" ry="2.552" style="fill:#120000;"/><ellipse cx="48.354" cy="71.976" rx="2.457" ry="2.552" style="fill:#120000;"/><ellipse cx="48.354" cy="94.947" rx="2.457" ry="2.552" style="fill:#120000;"/><ellipse cx="48.354" cy="87.29" rx="2.457" ry="2.552" style="fill:#120000;"/><ellipse cx="48.354" cy="79.633" rx="2.457" ry="2.552" style="fill:#120000;"/><ellipse cx="63.097" cy="64.319" rx="2.457" ry="2.552" style="fill:#120000;"/><ellipse cx="63.097" cy="71.976" rx="2.457" ry="2.552" style="fill:#120000;"/><ellipse cx="63.097" cy="94.947" rx="2.457" ry="2.552" style="fill:#120000;"/><ellipse cx="63.097" cy="87.29" rx="2.457" ry="2.552" style="fill:#120000;"/><ellipse cx="63.097" cy="79.633" rx="2.457" ry="2.552" style="fill:#120000;"/><rect x="45.896" y="55.712" width="19.658" height="2.552" style="fill:#120000;"/><ellipse cx="63.097" cy="139.927" rx="2.457" ry="2.552" style="fill:#120000;"/><rect x="45.896" y="282.522" width="19.658" height="2.552" style="fill:#120000;"/><rect x="45.896" y="328.464" width="19.658" height="2.552" style="fill:#120000;"/><ellipse cx="47.6" cy="337.044" rx="2.457" ry="2.552" style="fill:#120000;"/><ellipse cx="47.6" cy="344.701" rx="2.457" ry="2.552" style="fill:#120000;"/><ellipse cx="47.6" cy="367.672" rx="2.457" ry="2.552" style="fill:#120000;"/><ellipse cx="47.6" cy="360.015" rx="2.457" ry="2.552" style="fill:#120000;"/><ellipse cx="47.6" cy="352.358" rx="2.457" ry="2.552" style="fill:#120000;"/><ellipse cx="62.343" cy="337.044" rx="2.457" ry="2.552" style="fill:#120000;"/><ellipse cx="62.343" cy="344.701" rx="2.457" ry="2.552" style="fill:#120000;"/><ellipse cx="62.343" cy="367.672" rx="2.457" ry="2.552" style="fill:#120000;"/><ellipse cx="62.343" cy="360.015" rx="2.457" ry="2.552" style="fill:#120000;"/><ellipse cx="62.343" cy="352.358" rx="2.457" ry="2.552" style="fill:#120000;"/><rect x="45.143" y="374.379" width="19.658" height="2.552" style="fill:#120000;"/><ellipse cx="94.402" cy="336.023" rx="2.551" ry="2.552" style="fill:#120000;"/><ellipse cx="94.402" cy="343.68" rx="2.551" ry="2.552" style="fill:#120000;"/><ellipse cx="94.402" cy="366.651" rx="2.551" ry="2.552" style="fill:#120000;"/><ellipse cx="94.402" cy="358.994" rx="2.551" ry="2.552" style="fill:#120000;"/><ellipse cx="94.402" cy="351.337" rx="2.551" ry="2.552" style="fill:#120000;"/><ellipse cx="109.71" cy="336.023" rx="2.551" ry="2.552" style="fill:#120000;"/><ellipse cx="109.71" cy="343.68" rx="2.551" ry="2.552" style="fill:#120000;"/><ellipse cx="109.71" cy="366.651" rx="2.551" ry="2.552" style="fill:#120000;"/><ellipse cx="109.71" cy="358.994" rx="2.551" ry="2.552" style="fill:#120000;"/><ellipse cx="109.71" cy="351.337" rx="2.551" ry="2.552" style="fill:#120000;"/><rect x="91.851" y="373.358" width="20.411" height="2.552" style="fill:#120000;"/><ellipse cx="94.402" cy="297.739" rx="2.551" ry="2.552" style="fill:#120000;"/><ellipse cx="94.402" cy="313.053" rx="2.551" ry="2.552" style="fill:#120000;"/><ellipse cx="94.402" cy="305.396" rx="2.551" ry="2.552" style="fill:#120000;"/><ellipse cx="109.71" cy="290.082" rx="2.551" ry="2.552" style="fill:#120000;"/><ellipse cx="109.71" cy="297.739" rx="2.551" ry="2.552" style="fill:#120000;"/><ellipse cx="109.71" cy="313.053" rx="2.551" ry="2.552" style="fill:#120000;"/><ellipse cx="109.71" cy="305.396" rx="2.551" ry="2.552" style="fill:#120000;"/><ellipse cx="94.402" cy="290.082" rx="2.551" ry="2.552" style="fill:#120000;"/><rect x="91.851" y="282.905" width="20.411" height="2.552" style="fill:#120000;"/><ellipse cx="94.402" cy="320.71" rx="2.551" ry="2.552" style="fill:#120000;"/><ellipse cx="94.402" cy="245.101" rx="2.551" ry="2.552" style="fill:#120000;"/><ellipse cx="94.402" cy="252.758" rx="2.551" ry="2.552" style="fill:#120000;"/><ellipse cx="94.402" cy="275.729" rx="2.551" ry="2.552" style="fill:#120000;"/><ellipse cx="94.402" cy="268.072" rx="2.551" ry="2.552" style="fill:#120000;"/><ellipse cx="94.402" cy="260.415" rx="2.551" ry="2.552" style="fill:#120000;"/><ellipse cx="109.71" cy="245.101" rx="2.551" ry="2.552" style="fill:#120000;"/><ellipse cx="109.71" cy="252.758" rx="2.551" ry="2.552" style="fill:#120000;"/><ellipse cx="109.71" cy="275.729" rx="2.551" ry="2.552" style="fill:#120000;"/><ellipse cx="109.71" cy="268.072" rx="2.551" ry="2.552" style="fill:#120000;"/><ellipse cx="109.71" cy="260.415" rx="2.551" ry="2.552" style="fill:#120000;"/><ellipse cx="94.402" cy="198.139" rx="2.551" ry="2.552" style="fill:#120000;"/><rect x="91.851" y="236.494" width="20.411" height="2.552" style="fill:#120000;"/><ellipse cx="94.402" cy="206.817" rx="2.551" ry="2.552" style="fill:#120000;"/><ellipse cx="94.402" cy="229.787" rx="2.551" ry="2.552" style="fill:#120000;"/><ellipse cx="94.402" cy="222.131" rx="2.551" ry="2.552" style="fill:#120000;"/><ellipse cx="94.402" cy="214.474" rx="2.551" ry="2.552" style="fill:#120000;"/><ellipse cx="109.71" cy="199.16" rx="2.551" ry="2.552" style="fill:#120000;"/><ellipse cx="109.71" cy="206.817" rx="2.551" ry="2.552" style="fill:#120000;"/><ellipse cx="109.71" cy="229.787" rx="2.551" ry="2.552" style="fill:#120000;"/><ellipse cx="109.71" cy="222.131" rx="2.551" ry="2.552" style="fill:#120000;"/><ellipse cx="109.71" cy="214.474" rx="2.551" ry="2.552" style="fill:#120000;"/><rect x="91.851" y="191.983" width="20.411" height="2.552" style="fill:#120000;"/><ellipse cx="109.71" cy="320.71" rx="2.551" ry="2.552" style="fill:#120000;"/><ellipse cx="94.402" cy="154.194" rx="2.551" ry="2.552" style="fill:#120000;"/><ellipse cx="94.402" cy="161.851" rx="2.551" ry="2.552" style="fill:#120000;"/><ellipse cx="94.402" cy="177.165" rx="2.551" ry="2.552" style="fill:#120000;"/><ellipse cx="94.402" cy="169.508" rx="2.551" ry="2.552" style="fill:#120000;"/><ellipse cx="109.71" cy="154.194" rx="2.551" ry="2.552" style="fill:#120000;"/><ellipse cx="109.71" cy="161.851" rx="2.551" ry="2.552" style="fill:#120000;"/><ellipse cx="109.71" cy="177.165" rx="2.551" ry="2.552" style="fill:#120000;"/><ellipse cx="109.71" cy="169.508" rx="2.551" ry="2.552" style="fill:#120000;"/><rect x="91.851" y="147.018" width="20.411" height="2.552" style="fill:#120000;"/><ellipse cx="94.402" cy="116.871" rx="2.551" ry="2.552" style="fill:#120000;"/><ellipse cx="94.402" cy="139.842" rx="2.551" ry="2.552" style="fill:#120000;"/><ellipse cx="94.402" cy="132.185" rx="2.551" ry="2.552" style="fill:#120000;"/><ellipse cx="94.402" cy="124.528" rx="2.551" ry="2.552" style="fill:#120000;"/><ellipse cx="109.71" cy="109.214" rx="2.551" ry="2.552" style="fill:#120000;"/><ellipse cx="109.71" cy="116.871" rx="2.551" ry="2.552" style="fill:#120000;"/><ellipse cx="109.71" cy="139.842" rx="2.551" ry="2.552" style="fill:#120000;"/><ellipse cx="109.71" cy="132.185" rx="2.551" ry="2.552" style="fill:#120000;"/><ellipse cx="109.71" cy="124.528" rx="2.551" ry="2.552" style="fill:#120000;"/><ellipse cx="94.402" cy="109.214" rx="2.551" ry="2.552" style="fill:#120000;"/><ellipse cx="94.402" cy="64.293" rx="2.551" ry="2.552" style="fill:#120000;"/><ellipse cx="94.402" cy="70.929" rx="2.551" ry="2.552" style="fill:#120000;"/><ellipse cx="94.402" cy="93.9" rx="2.551" ry="2.552" style="fill:#120000;"/><ellipse cx="94.402" cy="86.243" rx="2.551" ry="2.552" style="fill:#120000;"/><ellipse cx="94.402" cy="78.586" rx="2.551" ry="2.552" style="fill:#120000;"/><ellipse cx="109.71" cy="63.272" rx="2.551" ry="2.552" style="fill:#120000;"/><ellipse cx="109.71" cy="70.929" rx="2.551" ry="2.552" style="fill:#120000;"/><ellipse cx="109.71" cy="93.9" rx="2.551" ry="2.552" style="fill:#120000;"/><ellipse cx="109.71" cy="86.243" rx="2.551" ry="2.552" style="fill:#120000;"/><ellipse cx="109.71" cy="78.586" rx="2.551" ry="2.552" style="fill:#120000;"/><rect x="91.851" y="100.607" width="20.411" height="2.552" style="fill:#120000;"/><rect x="91.851" y="56.096" width="20.411" height="2.552" style="fill:#120000;"/><ellipse cx="94.402" cy="184.822" rx="2.551" ry="2.552" style="fill:#120000;"/><ellipse cx="109.71" cy="184.822" rx="2.551" ry="2.552" style="fill:#120000;"/><rect x="91.851" y="327.416" width="20.411" height="2.552" style="fill:#120000;"/><rect x="91.851" y="327.416" width="20.411" height="2.552" style="fill:#120000;"/><rect x="91.851" y="327.416" width="20.411" height="2.552" style="fill:#120000;"/><rect x="91.851" y="327.416" width="20.411" height="2.552" style="fill:#120000;"/></g><g id="numbers"><text x="3.881px" y="241.443px" style="font-family:'BookAntiqua', 'Book Antiqua', serif;font-size:10px;fill:#fff;">15</text><text x="3.881px" y="195.671px" style="font-family:'BookAntiqua', 'Book Antiqua', serif;font-size:10px;fill:#fff;">20</text><text x="3.881px" y="150.69px" style="font-family:'BookAntiqua', 'Book Antiqua', serif;font-size:10px;fill:#fff;">25</text><text x="3.881px" y="104.535px" style="font-family:'BookAntiqua', 'Book Antiqua', serif;font-size:10px;fill:#fff;">30</text><text x="3.881px" y="59.783px" style="font-family:'BookAntiqua', 'Book Antiqua', serif;font-size:10px;fill:#fff;">35</text><text x="7.438px" y="331.344px" style="font-family:'BookAntiqua', 'Book Antiqua', serif;font-size:10px;fill:#fff;">5</text><text x="48.283px" y="241.556px" style="font-family:'BookAntiqua', 'Book Antiqua', serif;font-size:10px;fill:#fff;">100</text><text x="49.827px" y="332.391px" style="font-family:'BookAntiqua', 'Book Antiqua', serif;font-size:10px;fill:#fff;">90</text><text x="49.827px" y="286.604px" style="font-family:'BookAntiqua', 'Book Antiqua', serif;font-size:10px;fill:#fff;">95</text><text x="47.826px" y="195.527px" style="font-family:'BookAntiqua', 'Book Antiqua', serif;font-size:10px;fill:#fff;">105</text><text x="47.826px" y="151.017px" style="font-family:'BookAntiqua', 'Book Antiqua', serif;font-size:10px;fill:#fff;">110</text><text x="47.546px" y="105.801px" style="font-family:'BookAntiqua', 'Book Antiqua', serif;font-size:10px;fill:#fff;">115</text><text x="47.826px" y="59.783px" style="font-family:'BookAntiqua', 'Book Antiqua', serif;font-size:10px;fill:#fff;">120</text><text x="49.59px" y="378.307px" style="font-family:'BookAntiqua', 'Book Antiqua', serif;font-size:10px;fill:#fff;">85</text><text x="96.41px" y="377.286px" style="font-family:'BookAntiqua', 'Book Antiqua', serif;font-size:10px;fill:#fff;">80</text><text x="97.231px" y="286.578px" style="font-family:'BookAntiqua', 'Book Antiqua', serif;font-size:10px;fill:#fff;">70</text><text x="97.231px" y="240.422px" style="font-family:'BookAntiqua', 'Book Antiqua', serif;font-size:10px;fill:#fff;">65</text><text x="97.231px" y="195.671px" style="font-family:'BookAntiqua', 'Book Antiqua', serif;font-size:10px;fill:#fff;">60</text><text x="97.231px" y="150.69px" style="font-family:'BookAntiqua', 'Book Antiqua', serif;font-size:10px;fill:#fff;">55</text><text x="97.231px" y="104.535px" style="font-family:'BookAntiqua', 'Book Antiqua', serif;font-size:10px;fill:#fff;">50</text><text x="96.481px" y="59.783px" style="font-family:'BookAntiqua', 'Book Antiqua', serif;font-size:10px;fill:#fff;">45</text><text x="97.432px" y="331.344px" style="font-family:'BookAntiqua', 'Book Antiqua', serif;font-size:10px;fill:#fff;">75</text><text x="3.881px" y="286.578px" style="font-family:'BookAntiqua', 'Book Antiqua', serif;font-size:10px;fill:#fff;">10</text><text x="51.32px" y="12.861px" style="font-family:'BookAntiqua', 'Book Antiqua', serif;font-size:10px;fill:#fff;">40</text></g></svg>