<?xml version="1.0" encoding="UTF-8" standalone="no"?><!DOCTYPE svg PUBLIC "-//W3C//DTD SVG 1.1//EN" "http://www.w3.org/Graphics/SVG/1.1/DTD/svg11.dtd"><svg width="100%" height="100%" viewBox="0 0 250 800" version="1.1" xmlns="http://www.w3.org/2000/svg" xmlns:xlink="http://www.w3.org/1999/xlink" xml:space="preserve" xmlns:serif="http://www.serif.com/" style="fill-rule:evenodd;clip-rule:evenodd;stroke-linecap:round;stroke-linejoin:round;stroke-miterlimit:1.5;"><g id="holes"><g><ellipse cx="36.842" cy="659.521" rx="6.579" ry="6.838" style="fill:#120000;"/><ellipse cx="36.842" cy="675.932" rx="6.579" ry="6.838" style="fill:#120000;"/><ellipse cx="63.158" cy="659.521" rx="6.579" ry="6.838" style="fill:#120000;"/><ellipse cx="63.158" cy="675.932" rx="6.579" ry="6.838" style="fill:#120000;"/><ellipse cx="36.842" cy="692.342" rx="6.579" ry="6.838" style="fill:#120000;"/><ellipse cx="36.842" cy="708.752" rx="6.579" ry="6.838" style="fill:#120000;"/><ellipse cx="36.842" cy="725.162" rx="6.579" ry="6.838" style="fill:#120000;"/><ellipse cx="63.158" cy="692.342" rx="6.579" ry="6.838" style="fill:#120000;"/><ellipse cx="63.158" cy="708.752" rx="6.579" ry="6.838" style="fill:#120000;"/><ellipse cx="63.158" cy="725.162" rx="6.579" ry="6.838" style="fill:#120000;"/><rect x="30" y="645" width="40" height="5" style="fill:#120000;"/></g><g><ellipse cx="36.579" cy="568.521" rx="6.579" ry="6.838" style="fill:#120000;"/><ellipse cx="36.579" cy="584.932" rx="6.579" ry="6.838" style="fill:#120000;"/><ellipse cx="62.895" cy="568.521" rx="6.579" ry="6.838" style="fill:#120000;"/><ellipse cx="62.895" cy="584.932" rx="6.579" ry="6.838" style="fill:#120000;"/><ellipse cx="36.579" cy="601.342" rx="6.579" ry="6.838" style="fill:#120000;"/><ellipse cx="36.579" cy="617.752" rx="6.579" ry="6.838" style="fill:#120000;"/><ellipse cx="36.579" cy="634.162" rx="6.579" ry="6.838" style="fill:#120000;"/><ellipse cx="62.895" cy="601.342" rx="6.579" ry="6.838" style="fill:#120000;"/><ellipse cx="62.895" cy="617.752" rx="6.579" ry="6.838" style="fill:#120000;"/><ellipse cx="62.895" cy="634.162" rx="6.579" ry="6.838" style="fill:#120000;"/><rect x="29.737" y="554" width="40" height="5" style="fill:#120000;"/></g><g><ellipse cx="36.842" cy="477.521" rx="6.579" ry="6.838" style="fill:#120000;"/><ellipse cx="36.842" cy="493.932" rx="6.579" ry="6.838" style="fill:#120000;"/><ellipse cx="63.158" cy="477.521" rx="6.579" ry="6.838" style="fill:#120000;"/><ellipse cx="63.158" cy="493.932" rx="6.579" ry="6.838" style="fill:#120000;"/><ellipse cx="36.842" cy="510.342" rx="6.579" ry="6.838" style="fill:#120000;"/><ellipse cx="36.842" cy="526.752" rx="6.579" ry="6.838" style="fill:#120000;"/><ellipse cx="36.842" cy="543.162" rx="6.579" ry="6.838" style="fill:#120000;"/><ellipse cx="63.158" cy="510.342" rx="6.579" ry="6.838" style="fill:#120000;"/><ellipse cx="63.158" cy="526.752" rx="6.579" ry="6.838" style="fill:#120000;"/><ellipse cx="63.158" cy="543.162" rx="6.579" ry="6.838" style="fill:#120000;"/><rect x="30" y="463" width="40" height="5" style="fill:#120000;"/></g><g><ellipse cx="36.579" cy="385.875" rx="6.579" ry="6.838" style="fill:#120000;"/><ellipse cx="36.579" cy="402.286" rx="6.579" ry="6.838" style="fill:#120000;"/><ellipse cx="62.895" cy="385.875" rx="6.579" ry="6.838" style="fill:#120000;"/><ellipse cx="62.895" cy="402.286" rx="6.579" ry="6.838" style="fill:#120000;"/><ellipse cx="36.579" cy="418.696" rx="6.579" ry="6.838" style="fill:#120000;"/><ellipse cx="36.579" cy="435.106" rx="6.579" ry="6.838" style="fill:#120000;"/><ellipse cx="36.579" cy="451.516" rx="6.579" ry="6.838" style="fill:#120000;"/><ellipse cx="62.895" cy="418.696" rx="6.579" ry="6.838" style="fill:#120000;"/><ellipse cx="62.895" cy="435.106" rx="6.579" ry="6.838" style="fill:#120000;"/><ellipse cx="62.895" cy="451.516" rx="6.579" ry="6.838" style="fill:#120000;"/><rect x="29.737" y="371.354" width="40" height="5" style="fill:#120000;"/></g><g><ellipse cx="36.579" cy="294.875" rx="6.579" ry="6.838" style="fill:#120000;"/><ellipse cx="36.579" cy="311.286" rx="6.579" ry="6.838" style="fill:#120000;"/><ellipse cx="62.895" cy="294.875" rx="6.579" ry="6.838" style="fill:#120000;"/><ellipse cx="62.895" cy="311.286" rx="6.579" ry="6.838" style="fill:#120000;"/><ellipse cx="36.579" cy="327.696" rx="6.579" ry="6.838" style="fill:#120000;"/><ellipse cx="36.579" cy="344.106" rx="6.579" ry="6.838" style="fill:#120000;"/><ellipse cx="36.579" cy="360.516" rx="6.579" ry="6.838" style="fill:#120000;"/><ellipse cx="62.895" cy="327.696" rx="6.579" ry="6.838" style="fill:#120000;"/><ellipse cx="62.895" cy="344.106" rx="6.579" ry="6.838" style="fill:#120000;"/><ellipse cx="62.895" cy="360.516" rx="6.579" ry="6.838" style="fill:#120000;"/><rect x="29.737" y="280.354" width="40" height="5" style="fill:#120000;"/></g><g><ellipse cx="36.579" cy="203.875" rx="6.579" ry="6.838" style="fill:#120000;"/><ellipse cx="36.579" cy="220.286" rx="6.579" ry="6.838" style="fill:#120000;"/><ellipse cx="62.895" cy="203.875" rx="6.579" ry="6.838" style="fill:#120000;"/><ellipse cx="62.895" cy="220.286" rx="6.579" ry="6.838" style="fill:#120000;"/><ellipse cx="36.579" cy="236.696" rx="6.579" ry="6.838" style="fill:#120000;"/><ellipse cx="36.579" cy="253.106" rx="6.579" ry="6.838" style="fill:#120000;"/><ellipse cx="36.579" cy="269.516" rx="6.579" ry="6.838" style="fill:#120000;"/><ellipse cx="62.895" cy="236.696" rx="6.579" ry="6.838" style="fill:#120000;"/><ellipse cx="62.895" cy="253.106" rx="6.579" ry="6.838" style="fill:#120000;"/><ellipse cx="62.895" cy="269.516" rx="6.579" ry="6.838" style="fill:#120000;"/><rect x="29.737" y="189.354" width="40" height="5" style="fill:#120000;"/></g><ellipse cx="36.842" cy="111.875" rx="6.579" ry="6.838" style="fill:#120000;"/><ellipse cx="36.842" cy="128.286" rx="6.579" ry="6.838" style="fill:#120000;"/><ellipse cx="63.158" cy="111.875" rx="6.579" ry="6.838" style="fill:#120000;"/><ellipse cx="63.158" cy="128.286" rx="6.579" ry="6.838" style="fill:#120000;"/><ellipse cx="36.842" cy="144.696" rx="6.579" ry="6.838" style="fill:#120000;"/><ellipse cx="36.842" cy="161.106" rx="6.579" ry="6.838" style="fill:#120000;"/><ellipse cx="36.842" cy="177.516" rx="6.579" ry="6.838" style="fill:#120000;"/><ellipse cx="63.158" cy="144.696" rx="6.579" ry="6.838" style="fill:#120000;"/><ellipse cx="63.158" cy="161.106" rx="6.579" ry="6.838" style="fill:#120000;"/><ellipse cx="63.158" cy="177.516" rx="6.579" ry="6.838" style="fill:#120000;"/><rect x="30" y="97.354" width="40" height="5" style="fill:#120000;"/><g><g><ellipse cx="114.342" cy="660.521" rx="6.579" ry="6.838" style="fill:#120000;"/><ellipse cx="114.342" cy="676.932" rx="6.579" ry="6.838" style="fill:#120000;"/><ellipse cx="140.658" cy="660.521" rx="6.579" ry="6.838" style="fill:#120000;"/><ellipse cx="140.658" cy="676.932" rx="6.579" ry="6.838" style="fill:#120000;"/><ellipse cx="114.342" cy="693.342" rx="6.579" ry="6.838" style="fill:#120000;"/><ellipse cx="114.342" cy="709.752" rx="6.579" ry="6.838" style="fill:#120000;"/><ellipse cx="114.342" cy="726.162" rx="6.579" ry="6.838" style="fill:#120000;"/><ellipse cx="140.658" cy="693.342" rx="6.579" ry="6.838" style="fill:#120000;"/><ellipse cx="140.658" cy="709.752" rx="6.579" ry="6.838" style="fill:#120000;"/><ellipse cx="140.658" cy="726.162" rx="6.579" ry="6.838" style="fill:#120000;"/><rect x="107.5" y="646" width="40" height="5" style="fill:#120000;"/></g><g><ellipse cx="114.079" cy="569.521" rx="6.579" ry="6.838" style="fill:#120000;"/><ellipse cx="114.079" cy="585.932" rx="6.579" ry="6.838" style="fill:#120000;"/><ellipse cx="140.395" cy="569.521" rx="6.579" ry="6.838" style="fill:#120000;"/><ellipse cx="140.395" cy="585.932" rx="6.579" ry="6.838" style="fill:#120000;"/><ellipse cx="114.079" cy="602.342" rx="6.579" ry="6.838" style="fill:#120000;"/><ellipse cx="114.079" cy="618.752" rx="6.579" ry="6.838" style="fill:#120000;"/><ellipse cx="114.079" cy="635.162" rx="6.579" ry="6.838" style="fill:#120000;"/><ellipse cx="140.395" cy="602.342" rx="6.579" ry="6.838" style="fill:#120000;"/><ellipse cx="140.395" cy="618.752" rx="6.579" ry="6.838" style="fill:#120000;"/><ellipse cx="140.395" cy="635.162" rx="6.579" ry="6.838" style="fill:#120000;"/><rect x="107.237" y="555" width="40" height="5" style="fill:#120000;"/></g><rect x="102.5" y="101" width="50" height="636" style="fill:none;stroke:#000;stroke-width:1.34px;"/><g><ellipse cx="114.342" cy="478.521" rx="6.579" ry="6.838" style="fill:#120000;"/><ellipse cx="114.342" cy="494.932" rx="6.579" ry="6.838" style="fill:#120000;"/><ellipse cx="140.658" cy="478.521" rx="6.579" ry="6.838" style="fill:#120000;"/><ellipse cx="140.658" cy="494.932" rx="6.579" ry="6.838" style="fill:#120000;"/><ellipse cx="114.342" cy="511.342" rx="6.579" ry="6.838" style="fill:#120000;"/><ellipse cx="114.342" cy="527.752" rx="6.579" ry="6.838" style="fill:#120000;"/><ellipse cx="114.342" cy="544.162" rx="6.579" ry="6.838" style="fill:#120000;"/><ellipse cx="140.658" cy="511.342" rx="6.579" ry="6.838" style="fill:#120000;"/><ellipse cx="140.658" cy="527.752" rx="6.579" ry="6.838" style="fill:#120000;"/><ellipse cx="140.658" cy="544.162" rx="6.579" ry="6.838" style="fill:#120000;"/><rect x="107.5" y="464" width="40" height="5" style="fill:#120000;"/></g><g><ellipse cx="114.079" cy="386.875" rx="6.579" ry="6.838" style="fill:#120000;"/><ellipse cx="114.079" cy="403.286" rx="6.579" ry="6.838" style="fill:#120000;"/><ellipse cx="140.395" cy="386.875" rx="6.579" ry="6.838" style="fill:#120000;"/><ellipse cx="140.395" cy="403.286" rx="6.579" ry="6.838" style="fill:#120000;"/><ellipse cx="114.079" cy="419.696" rx="6.579" ry="6.838" style="fill:#120000;"/><ellipse cx="114.079" cy="436.106" rx="6.579" ry="6.838" style="fill:#120000;"/><ellipse cx="114.079" cy="452.516" rx="6.579" ry="6.838" style="fill:#120000;"/><ellipse cx="140.395" cy="419.696" rx="6.579" ry="6.838" style="fill:#120000;"/><ellipse cx="140.395" cy="436.106" rx="6.579" ry="6.838" style="fill:#120000;"/><ellipse cx="140.395" cy="452.516" rx="6.579" ry="6.838" style="fill:#120000;"/><rect x="107.237" y="372.354" width="40" height="5" style="fill:#120000;"/></g><g><ellipse cx="114.079" cy="295.875" rx="6.579" ry="6.838" style="fill:#120000;"/><ellipse cx="114.079" cy="312.286" rx="6.579" ry="6.838" style="fill:#120000;"/><ellipse cx="140.395" cy="295.875" rx="6.579" ry="6.838" style="fill:#120000;"/><ellipse cx="140.395" cy="312.286" rx="6.579" ry="6.838" style="fill:#120000;"/><ellipse cx="114.079" cy="328.696" rx="6.579" ry="6.838" style="fill:#120000;"/><ellipse cx="114.079" cy="345.106" rx="6.579" ry="6.838" style="fill:#120000;"/><ellipse cx="114.079" cy="361.516" rx="6.579" ry="6.838" style="fill:#120000;"/><ellipse cx="140.395" cy="328.696" rx="6.579" ry="6.838" style="fill:#120000;"/><ellipse cx="140.395" cy="345.106" rx="6.579" ry="6.838" style="fill:#120000;"/><ellipse cx="140.395" cy="361.516" rx="6.579" ry="6.838" style="fill:#120000;"/><rect x="107.237" y="281.354" width="40" height="5" style="fill:#120000;"/></g><g><ellipse cx="114.079" cy="204.875" rx="6.579" ry="6.838" style="fill:#120000;"/><ellipse cx="114.079" cy="221.286" rx="6.579" ry="6.838" style="fill:#120000;"/><ellipse cx="140.395" cy="204.875" rx="6.579" ry="6.838" style="fill:#120000;"/><ellipse cx="140.395" cy="221.286" rx="6.579" ry="6.838" style="fill:#120000;"/><ellipse cx="114.079" cy="237.696" rx="6.579" ry="6.838" style="fill:#120000;"/><ellipse cx="114.079" cy="254.106" rx="6.579" ry="6.838" style="fill:#120000;"/><ellipse cx="114.079" cy="270.516" rx="6.579" ry="6.838" style="fill:#120000;"/><ellipse cx="140.395" cy="237.696" rx="6.579" ry="6.838" style="fill:#120000;"/><ellipse cx="140.395" cy="254.106" rx="6.579" ry="6.838" style="fill:#120000;"/><ellipse cx="140.395" cy="270.516" rx="6.579" ry="6.838" style="fill:#120000;"/><rect x="107.237" y="190.354" width="40" height="5" style="fill:#120000;"/></g><g><ellipse cx="114.342" cy="112.875" rx="6.579" ry="6.838" style="fill:#120000;"/><ellipse cx="114.342" cy="129.286" rx="6.579" ry="6.838" style="fill:#120000;"/><ellipse cx="140.658" cy="112.875" rx="6.579" ry="6.838" style="fill:#120000;"/><ellipse cx="140.658" cy="129.286" rx="6.579" ry="6.838" style="fill:#120000;"/><ellipse cx="114.342" cy="145.696" rx="6.579" ry="6.838" style="fill:#120000;"/><ellipse cx="114.342" cy="162.106" rx="6.579" ry="6.838" style="fill:#120000;"/><ellipse cx="114.342" cy="178.516" rx="6.579" ry="6.838" style="fill:#120000;"/><ellipse cx="140.658" cy="145.696" rx="6.579" ry="6.838" style="fill:#120000;"/><ellipse cx="140.658" cy="162.106" rx="6.579" ry="6.838" style="fill:#120000;"/><ellipse cx="140.658" cy="178.516" rx="6.579" ry="6.838" style="fill:#120000;"/><rect x="107.5" y="98.354" width="40" height="5" style="fill:#120000;"/></g></g><rect x="25" y="100" width="50" height="636" style="fill:none;stroke:#000;stroke-width:1.34px;"/><rect x="175" y="100" width="50" height="636" style="fill:none;stroke:#000;stroke-width:1.34px;"/><g><g><ellipse cx="186.842" cy="659.521" rx="6.579" ry="6.838" style="fill:#120000;"/><ellipse cx="186.842" cy="675.932" rx="6.579" ry="6.838" style="fill:#120000;"/><ellipse cx="213.158" cy="659.521" rx="6.579" ry="6.838" style="fill:#120000;"/><ellipse cx="213.158" cy="675.932" rx="6.579" ry="6.838" style="fill:#120000;"/><ellipse cx="186.842" cy="692.342" rx="6.579" ry="6.838" style="fill:#120000;"/><ellipse cx="186.842" cy="708.752" rx="6.579" ry="6.838" style="fill:#120000;"/><ellipse cx="186.842" cy="725.162" rx="6.579" ry="6.838" style="fill:#120000;"/><ellipse cx="213.158" cy="692.342" rx="6.579" ry="6.838" style="fill:#120000;"/><ellipse cx="213.158" cy="708.752" rx="6.579" ry="6.838" style="fill:#120000;"/><ellipse cx="213.158" cy="725.162" rx="6.579" ry="6.838" style="fill:#120000;"/><rect x="180" y="645" width="40" height="5" style="fill:#120000;"/></g><g><ellipse cx="186.579" cy="568.521" rx="6.579" ry="6.838" style="fill:#120000;"/><ellipse cx="186.579" cy="584.932" rx="6.579" ry="6.838" style="fill:#120000;"/><ellipse cx="212.895" cy="568.521" rx="6.579" ry="6.838" style="fill:#120000;"/><ellipse cx="212.895" cy="584.932" rx="6.579" ry="6.838" style="fill:#120000;"/><ellipse cx="186.579" cy="601.342" rx="6.579" ry="6.838" style="fill:#120000;"/><ellipse cx="186.579" cy="617.752" rx="6.579" ry="6.838" style="fill:#120000;"/><ellipse cx="186.579" cy="634.162" rx="6.579" ry="6.838" style="fill:#120000;"/><ellipse cx="212.895" cy="601.342" rx="6.579" ry="6.838" style="fill:#120000;"/><ellipse cx="212.895" cy="617.752" rx="6.579" ry="6.838" style="fill:#120000;"/><ellipse cx="212.895" cy="634.162" rx="6.579" ry="6.838" style="fill:#120000;"/><rect x="179.737" y="554" width="40" height="5" style="fill:#120000;"/></g><rect x="175" y="100" width="50" height="636" style="fill:none;stroke:#000;stroke-width:1.34px;"/><g><ellipse cx="186.842" cy="477.521" rx="6.579" ry="6.838" style="fill:#120000;"/><ellipse cx="186.842" cy="493.932" rx="6.579" ry="6.838" style="fill:#120000;"/><ellipse cx="213.158" cy="477.521" rx="6.579" ry="6.838" style="fill:#120000;"/><ellipse cx="213.158" cy="493.932" rx="6.579" ry="6.838" style="fill:#120000;"/><ellipse cx="186.842" cy="510.342" rx="6.579" ry="6.838" style="fill:#120000;"/><ellipse cx="186.842" cy="526.752" rx="6.579" ry="6.838" style="fill:#120000;"/><ellipse cx="186.842" cy="543.162" rx="6.579" ry="6.838" style="fill:#120000;"/><ellipse cx="213.158" cy="510.342" rx="6.579" ry="6.838" style="fill:#120000;"/><ellipse cx="213.158" cy="526.752" rx="6.579" ry="6.838" style="fill:#120000;"/><ellipse cx="213.158" cy="543.162" rx="6.579" ry="6.838" style="fill:#120000;"/><rect x="180" y="463" width="40" height="5" style="fill:#120000;"/></g><g><ellipse cx="186.579" cy="385.875" rx="6.579" ry="6.838" style="fill:#120000;"/><ellipse cx="186.579" cy="402.286" rx="6.579" ry="6.838" style="fill:#120000;"/><ellipse cx="212.895" cy="385.875" rx="6.579" ry="6.838" style="fill:#120000;"/><ellipse cx="212.895" cy="402.286" rx="6.579" ry="6.838" style="fill:#120000;"/><ellipse cx="186.579" cy="418.696" rx="6.579" ry="6.838" style="fill:#120000;"/><ellipse cx="186.579" cy="435.106" rx="6.579" ry="6.838" style="fill:#120000;"/><ellipse cx="186.579" cy="451.516" rx="6.579" ry="6.838" style="fill:#120000;"/><ellipse cx="212.895" cy="418.696" rx="6.579" ry="6.838" style="fill:#120000;"/><ellipse cx="212.895" cy="435.106" rx="6.579" ry="6.838" style="fill:#120000;"/><ellipse cx="212.895" cy="451.516" rx="6.579" ry="6.838" style="fill:#120000;"/><rect x="179.737" y="371.354" width="40" height="5" style="fill:#120000;"/></g><g><ellipse cx="186.579" cy="294.875" rx="6.579" ry="6.838" style="fill:#120000;"/><ellipse cx="186.579" cy="311.286" rx="6.579" ry="6.838" style="fill:#120000;"/><ellipse cx="212.895" cy="294.875" rx="6.579" ry="6.838" style="fill:#120000;"/><ellipse cx="212.895" cy="311.286" rx="6.579" ry="6.838" style="fill:#120000;"/><ellipse cx="186.579" cy="327.696" rx="6.579" ry="6.838" style="fill:#120000;"/><ellipse cx="186.579" cy="344.106" rx="6.579" ry="6.838" style="fill:#120000;"/><ellipse cx="186.579" cy="360.516" rx="6.579" ry="6.838" style="fill:#120000;"/><ellipse cx="212.895" cy="327.696" rx="6.579" ry="6.838" style="fill:#120000;"/><ellipse cx="212.895" cy="344.106" rx="6.579" ry="6.838" style="fill:#120000;"/><ellipse cx="212.895" cy="360.516" rx="6.579" ry="6.838" style="fill:#120000;"/><rect x="179.737" y="280.354" width="40" height="5" style="fill:#120000;"/></g><g><ellipse cx="186.579" cy="203.875" rx="6.579" ry="6.838" style="fill:#120000;"/><ellipse cx="186.579" cy="220.286" rx="6.579" ry="6.838" style="fill:#120000;"/><ellipse cx="212.895" cy="203.875" rx="6.579" ry="6.838" style="fill:#120000;"/><ellipse cx="212.895" cy="220.286" rx="6.579" ry="6.838" style="fill:#120000;"/><ellipse cx="186.579" cy="236.696" rx="6.579" ry="6.838" style="fill:#120000;"/><ellipse cx="186.579" cy="253.106" rx="6.579" ry="6.838" style="fill:#120000;"/><ellipse cx="186.579" cy="269.516" rx="6.579" ry="6.838" style="fill:#120000;"/><ellipse cx="212.895" cy="236.696" rx="6.579" ry="6.838" style="fill:#120000;"/><ellipse cx="212.895" cy="253.106" rx="6.579" ry="6.838" style="fill:#120000;"/><ellipse cx="212.895" cy="269.516" rx="6.579" ry="6.838" style="fill:#120000;"/><rect x="179.737" y="189.354" width="40" height="5" style="fill:#120000;"/></g><g><ellipse cx="186.842" cy="111.875" rx="6.579" ry="6.838" style="fill:#120000;"/><ellipse cx="186.842" cy="128.286" rx="6.579" ry="6.838" style="fill:#120000;"/><ellipse cx="213.158" cy="111.875" rx="6.579" ry="6.838" style="fill:#120000;"/><ellipse cx="213.158" cy="128.286" rx="6.579" ry="6.838" style="fill:#120000;"/><ellipse cx="186.842" cy="144.696" rx="6.579" ry="6.838" style="fill:#120000;"/><ellipse cx="186.842" cy="161.106" rx="6.579" ry="6.838" style="fill:#120000;"/><ellipse cx="186.842" cy="177.516" rx="6.579" ry="6.838" style="fill:#120000;"/><ellipse cx="213.158" cy="144.696" rx="6.579" ry="6.838" style="fill:#120000;"/><ellipse cx="213.158" cy="161.106" rx="6.579" ry="6.838" style="fill:#120000;"/><ellipse cx="213.158" cy="177.516" rx="6.579" ry="6.838" style="fill:#120000;"/><rect x="180" y="97.354" width="40" height="5" style="fill:#120000;"/></g></g></g><g id="arc-hols" serif:id="arc hols"><ellipse cx="163.483" cy="736" rx="43.836" ry="42.85" style="fill:#9b9b9b;fill-opacity:0.521739;"/><g><ellipse cx="38.792" cy="76.798" rx="6.579" ry="6.838" style="fill:#120000;"/><ellipse cx="64.419" cy="82.771" rx="6.579" ry="6.838" style="fill:#120000;"/><ellipse cx="47.367" cy="55.924" rx="6.579" ry="6.838" style="fill:#120000;"/><ellipse cx="70.433" cy="68.574" rx="6.579" ry="6.838" style="fill:#120000;"/><ellipse cx="61.617" cy="37.357" rx="6.579" ry="6.838" style="fill:#120000;"/><ellipse cx="80.443" cy="55.899" rx="6.579" ry="6.838" style="fill:#120000;"/><path d="M81.235,16.161c3.533,0.836 5.697,4.496 4.828,8.168c-0.869,3.673 -4.443,5.975 -7.976,5.139c-3.534,-0.835 -5.697,-4.496 -4.829,-8.168c0.869,-3.672 4.443,-5.975 7.977,-5.139Z" style="fill:#120000;"/><path d="M94.84,38.837c3.546,0.783 5.764,4.41 4.951,8.095c-0.814,3.685 -4.353,6.041 -7.899,5.259c-3.545,-0.783 -5.763,-4.41 -4.95,-8.095c0.814,-3.686 4.353,-6.042 7.898,-5.259Z" style="fill:#120000;"/><path d="M103.498,7.237c3.5,0.965 5.528,4.702 4.525,8.34c-1.003,3.638 -4.659,5.808 -8.159,4.843c-3.501,-0.964 -5.529,-4.701 -4.526,-8.34c1.003,-3.638 4.659,-5.808 8.16,-4.843Z" style="fill:#120000;"/><ellipse cx="108.377" cy="39.101" rx="6.579" ry="6.838" style="fill:#120000;"/></g><g><path d="M151.227,13.587c0,3.631 -3.064,6.579 -6.838,6.579c-3.773,0 -6.837,-2.948 -6.837,-6.579c0,-3.631 3.064,-6.579 6.837,-6.579c3.774,0 6.838,2.948 6.838,6.579Z" style="fill:#120000;"/><path d="M145.254,39.213c0,3.631 -3.064,6.579 -6.837,6.579c-3.774,0 -6.838,-2.948 -6.838,-6.579c0,-3.631 3.064,-6.579 6.838,-6.579c3.773,0 6.837,2.948 6.837,6.579Z" style="fill:#120000;"/><path d="M172.101,22.161c0,3.631 -3.064,6.579 -6.838,6.579c-3.774,0 -6.838,-2.948 -6.838,-6.579c0,-3.631 3.064,-6.579 6.838,-6.579c3.774,0 6.838,2.948 6.838,6.579Z" style="fill:#120000;"/><path d="M159.45,45.228c0,3.631 -3.064,6.579 -6.837,6.579c-3.774,0 -6.838,-2.948 -6.838,-6.579c0,-3.631 3.064,-6.579 6.838,-6.579c3.773,0 6.837,2.948 6.837,6.579Z" style="fill:#120000;"/><path d="M190.668,36.412c0,3.631 -3.064,6.579 -6.838,6.579c-3.773,0 -6.837,-2.948 -6.837,-6.579c0,-3.631 3.064,-6.579 6.837,-6.579c3.774,0 6.838,2.948 6.838,6.579Z" style="fill:#120000;"/><path d="M172.125,55.238c0,3.631 -3.064,6.579 -6.837,6.579c-3.774,0 -6.838,-2.948 -6.838,-6.579c0,-3.631 3.064,-6.579 6.838,-6.579c3.773,0 6.837,2.948 6.837,6.579Z" style="fill:#120000;"/><path d="M205.027,56.029c-0.836,3.534 -4.497,5.697 -8.169,4.828c-3.672,-0.869 -5.975,-4.443 -5.139,-7.976c0.836,-3.534 4.496,-5.697 8.168,-4.828c3.673,0.869 5.975,4.443 5.14,7.976Z" style="fill:#120000;"/><path d="M182.35,69.635c-0.783,3.545 -4.41,5.763 -8.095,4.95c-3.685,-0.814 -6.041,-4.353 -5.259,-7.898c0.783,-3.546 4.411,-5.764 8.096,-4.951c3.685,0.814 6.041,4.353 5.258,7.899Z" style="fill:#120000;"/><path d="M213.95,78.292c-0.965,3.5 -4.702,5.528 -8.34,4.525c-3.638,-1.002 -5.808,-4.658 -4.843,-8.159c0.965,-3.5 4.702,-5.528 8.34,-4.526c3.638,1.003 5.808,4.659 4.843,8.16Z" style="fill:#120000;"/><path d="M188.924,83.171c0,3.631 -3.064,6.579 -6.838,6.579c-3.774,0 -6.838,-2.948 -6.838,-6.579c0,-3.631 3.064,-6.579 6.838,-6.579c3.774,0 6.838,2.948 6.838,6.579Z" style="fill:#120000;"/></g><ellipse cx="125" cy="100" rx="6.579" ry="6.838" style="fill:#120000;"/><path d="M189.133,771.265c2.931,-2.143 7.119,-1.41 9.347,1.636c2.227,3.047 1.656,7.26 -1.275,9.403c-2.931,2.143 -7.119,1.41 -9.347,-1.636c-2.227,-3.047 -1.656,-7.26 1.275,-9.403Z" style="fill:#120000;"/><path d="M204.905,745.606c0.715,-3.56 4.3,-5.847 7.999,-5.103c3.7,0.743 6.124,4.236 5.408,7.796c-0.715,3.56 -4.299,5.847 -7.999,5.104c-3.7,-0.743 -6.123,-4.237 -5.408,-7.797Z" style="fill:#120000;"/><path d="M145.176,760.086c-2.567,-2.568 -2.485,-6.819 0.183,-9.487c2.669,-2.669 6.92,-2.75 9.487,-0.183c2.568,2.568 2.486,6.819 -0.183,9.487c-2.668,2.668 -6.919,2.75 -9.487,0.183Z" style="fill:#120000;"/><path d="M180.198,742.268c0.92,-3.181 4.249,-5.016 7.43,-4.096c3.182,0.92 5.017,4.25 4.097,7.431c-0.92,3.181 -4.25,5.016 -7.431,4.096c-3.181,-0.92 -5.016,-4.249 -4.096,-7.431Z" style="fill:#120000;"/><ellipse cx="163.283" cy="785.758" rx="6.579" ry="6.838" style="fill:#120000;"/><path d="M172.125,750.41c2.571,-2.564 6.822,-2.478 9.487,0.194c2.665,2.672 2.742,6.923 0.172,9.487c-2.571,2.565 -6.821,2.478 -9.487,-0.194c-2.665,-2.671 -2.742,-6.922 -0.172,-9.487Z" style="fill:#120000;"/><ellipse cx="163.483" cy="736.146" rx="16.477" ry="16.5" style="fill:#f00;fill-opacity:0.688406;"/><path d="M124.072,777.493c-1.908,-3.09 -0.849,-7.208 2.362,-9.19c3.211,-1.982 7.367,-1.084 9.274,2.006c1.907,3.09 0.849,7.208 -2.362,9.19c-3.211,1.983 -7.367,1.084 -9.274,-2.006Z" style="fill:#120000;"/><path d="M157.72,762.979c-1.954,-3.06 -0.958,-7.194 2.223,-9.224c3.181,-2.031 7.35,-1.194 9.304,1.866c1.953,3.061 0.957,7.194 -2.224,9.225c-3.181,2.03 -7.35,1.194 -9.303,-1.867Z" style="fill:#120000;"/><path d="M120.869,746.244c0.804,3.541 -1.531,7.094 -5.211,7.929c-3.68,0.836 -7.32,-1.361 -8.124,-4.901c-0.804,-3.541 1.531,-7.094 5.211,-7.93c3.68,-0.835 7.321,1.361 8.124,4.902Z" style="fill:#120000;"/><path d="M148.735,745.466c0.038,3.631 -2.995,6.611 -6.769,6.65c-3.773,0.04 -6.868,-2.876 -6.906,-6.507c-0.038,-3.631 2.995,-6.61 6.769,-6.65c3.773,-0.039 6.868,2.876 6.906,6.507Z" style="fill:#120000;"/><path d="M68.477,754.772c-2.567,-2.568 -2.485,-6.819 0.183,-9.487c2.669,-2.669 6.92,-2.751 9.487,-0.183c2.568,2.567 2.486,6.818 -0.183,9.487c-2.668,2.668 -6.919,2.75 -9.487,0.183Z" style="fill:#120000;"/><path d="M196.358,781.734l0.804,-0.594l-66.554,-90.048l-0.804,0.594l66.554,90.048Z" style="fill:#f00;"/></g><g id="arcs"><path d="M225,100c0,-55.228 -44.772,-100 -100,-100c-55.228,0 -100,44.772 -100,100l50,0c0,-27.614 22.386,-50 50,-50c27.614,0 50,22.386 50,50l50,0Z" style="fill:none;stroke:#000;stroke-width:1px;"/><path d="M102.5,736c0,34.518 27.423,62.5 61.25,62.5c33.827,0 61.25,-27.982 61.25,-62.5l-50.039,0c0,6.318 -5.019,11.44 -11.211,11.44c-6.192,0 -11.211,-5.122 -11.211,-11.44l-50.039,0Z" style="fill:none;stroke:#000;stroke-width:1px;"/></g><g id="seperator-bars" serif:id="seperator bars"><path d="M122.5,0l0,50l5,0l0,-50l-5,0Z" style="fill:#120000;"/></g></svg>