<?xml version="1.0" encoding="UTF-8" standalone="no"?>
<!DOCTYPE svg PUBLIC "-//W3C//DTD SVG 1.1//EN" "http://www.w3.org/Graphics/SVG/1.1/DTD/svg11.dtd">
<svg width="100%" height="100%" viewBox="0 0 150 225" version="1.1" xmlns="http://www.w3.org/2000/svg" xmlns:xlink="http://www.w3.org/1999/xlink" xml:space="preserve" xmlns:serif="http://www.serif.com/" style="fill-rule:evenodd;clip-rule:evenodd;stroke-linejoin:round;stroke-miterlimit:1.41421;">
    <path d="M84.992,-4.584l70.008,-0.416l-0.751,69.996l-69.257,-69.58Z" style="fill:#b0b0b0;"/>
    <clipPath id="_clip1">
        <path d="M84.992,-4.584l70.008,-0.416l-0.751,69.996l-69.257,-69.58Z"/>
    </clipPath>
    <g clip-path="url(#_clip1)">
        <path d="M148.626,1.904l0.634,1.066c-2.592,2.295 -5.477,5.829 -8.654,10.601c-3.177,4.772 -5.603,9.23 -7.279,13.373l-1.345,1.07c-1.114,0.913 -1.871,1.59 -2.271,2.032c-0.156,-0.669 -0.499,-1.764 -1.029,-3.285l-0.506,-1.386c-0.722,-1.991 -1.394,-3.462 -2.016,-4.414c-0.621,-0.952 -1.319,-1.584 -2.092,-1.895c1.309,-1.625 2.507,-2.438 3.596,-2.44c0.932,-0.002 1.963,1.483 3.096,4.454l0.56,1.493c2.051,-4.058 4.682,-8.004 7.893,-11.838c3.212,-3.833 6.35,-6.777 9.413,-8.831Z" style="fill-rule:nonzero;"/>
    </g>
</svg>
